<?xml version="1.0" encoding="UTF-8" standalone="no"?>
<svg
   viewBox="0 0 512 512"
   version="1.1"
   id="svg4"
   sodipodi:docname="arrow-circle-solid.svg"
   width="512"
   height="512"
   inkscape:version="1.1.2 (b8e25be833, 2022-02-05)"
   xmlns:inkscape="http://www.inkscape.org/namespaces/inkscape"
   xmlns:sodipodi="http://sodipodi.sourceforge.net/DTD/sodipodi-0.dtd"
   xmlns="http://www.w3.org/2000/svg"
   xmlns:svg="http://www.w3.org/2000/svg">
  <defs
     id="defs8" />
  <sodipodi:namedview
     id="namedview6"
     pagecolor="#ffffff"
     bordercolor="#666666"
     borderopacity="1.0"
     inkscape:pageshadow="2"
     inkscape:pageopacity="0.0"
     inkscape:pagecheckerboard="0"
     showgrid="false"
     inkscape:zoom="0.7890625"
     inkscape:cx="156.51485"
     inkscape:cy="448"
     inkscape:window-width="1920"
     inkscape:window-height="1001"
     inkscape:window-x="-1929"
     inkscape:window-y="-9"
     inkscape:window-maximized="1"
     inkscape:current-layer="svg4" />
  <!--! Font Awesome Pro 6.0.0 by @fontawesome - https://fontawesome.com License - https://fontawesome.com/license (Commercial License) Copyright 2022 Fonticons, Inc. -->
  <g
     id="path2403"
     transform="matrix(9.2020101,9.2020101,-9.2020101,9.2020101,-407.18593,-3438.8137)"
     style="fill:#646464;fill-opacity:1">
    <path
       style="color:#000000;fill:#646464;fill-opacity:1;stroke-linecap:round;-inkscape-stroke:none"
       d="m 237.90625,150.18359 c -4.4959,-0.42653 -9.05202,1.13992 -12.34961,4.4375 -4.39678,4.39679 -5.71741,11.03267 -3.33789,16.77735 2.37952,5.74467 8.00467,9.50195 14.22266,9.50195 a 3.000005,3.000005 0 0 0 3,-3 3.000005,3.000005 0 0 0 -3,-3 c -3.80845,0 -7.22226,-2.28028 -8.67969,-5.79883 -1.45743,-3.51854 -0.65587,-7.5453 2.03711,-10.23828 2.69298,-2.69298 6.71973,-3.49454 10.23828,-2.03711 3.51855,1.45743 5.80078,4.87124 5.80078,8.67969 a 3.000005,3.000005 0 0 0 3,3 3.000005,3.000005 0 0 0 3,-3 c 0,-6.21799 -3.75923,-11.84313 -9.50391,-14.22266 -1.43616,-0.59488 -2.9291,-0.95743 -4.42773,-1.09961 z"
       id="path1735" />
    <g
       id="g1725"
       style="fill:#646464;fill-opacity:1">
      <g
         id="path1727"
         style="fill:#646464;fill-opacity:1">
        <path
           style="color:#000000;fill:#646464;fill-opacity:1;fill-rule:evenodd;stroke-width:1.2pt;-inkscape-stroke:none"
           d="m 248.83697,172.43057 -6.00001,-10.38001 h 12.00002 z"
           id="path1731" />
        <path
           style="color:#000000;fill:#646464;fill-opacity:1;fill-rule:evenodd;-inkscape-stroke:none"
           d="m 241.45117,161.25 7.38672,12.7793 0.69141,-1.19922 6.69336,-11.58008 z m 2.77149,1.59961 h 9.22851 l -4.61523,7.98242 z"
           id="path1733" />
      </g>
    </g>
  </g>
</svg>
