<?xml version="1.0" encoding="UTF-8" standalone="no"?>
<svg
   viewBox="0 0 512 512"
   version="1.1"
   id="svg4"
   sodipodi:docname="climb-up-solid.svg"
   width="512"
   height="512"
   inkscape:version="1.1.2 (b8e25be833, 2022-02-05)"
   xmlns:inkscape="http://www.inkscape.org/namespaces/inkscape"
   xmlns:sodipodi="http://sodipodi.sourceforge.net/DTD/sodipodi-0.dtd"
   xmlns="http://www.w3.org/2000/svg"
   xmlns:svg="http://www.w3.org/2000/svg">
  <defs
     id="defs8" />
  <sodipodi:namedview
     id="namedview6"
     pagecolor="#ffffff"
     bordercolor="#666666"
     borderopacity="1.0"
     inkscape:pageshadow="2"
     inkscape:pageopacity="0.0"
     inkscape:pagecheckerboard="0"
     showgrid="false"
     inkscape:zoom="0.39453125"
     inkscape:cx="485.38614"
     inkscape:cy="370.05941"
     inkscape:window-width="1812"
     inkscape:window-height="1030"
     inkscape:window-x="-1920"
     inkscape:window-y="0"
     inkscape:window-maximized="0"
     inkscape:current-layer="svg4" />
  <!--! Font Awesome Pro 6.0.0 by @fontawesome - https://fontawesome.com License - https://fontawesome.com/license (Commercial License) Copyright 2022 Fonticons, Inc. -->
  <g
     id="g8821"
     transform="matrix(11.410809,0,0,11.410809,-1406.9374,-875.24129)"
     style="fill:#646464;fill-opacity:1">
    <g
       id="path1586-5-4"
       style="fill:#646464;fill-opacity:1">
      <path
         style="color:#000000;fill:#646464;fill-opacity:1;-inkscape-stroke:none"
         d="m 143.73437,91.443359 v 11.232421 h 4 V 91.443359 Z"
         id="path1568" />
      <g
         id="g1558"
         style="fill:#646464;fill-opacity:1">
        <g
           id="path1560"
           style="fill:#646464;fill-opacity:1">
          <path
             style="color:#000000;fill:#646464;fill-opacity:1;fill-rule:evenodd;stroke-width:1.6pt;-inkscape-stroke:none"
             d="m 145.73352,82.211074 8,13.84 h -16 z"
             id="path1564" />
          <path
             style="color:#000000;fill:#646464;fill-opacity:1;fill-rule:evenodd;-inkscape-stroke:none"
             d="m 145.73437,80.080078 -0.92382,1.597656 -8.92578,15.439453 h 19.69726 z m 0,4.259766 6.15235,10.644531 h -12.30664 z"
             id="path1566" />
        </g>
      </g>
    </g>
    <g
       aria-label="CLIMB"
       id="text4496"
       style="font-size:13.7243px;fill:#646464;fill-opacity:1;stroke-width:0.343107">
      <path
         d="m 132.78322,117.68601 q -1.05211,0.5093 -2.74754,0.5093 -2.21143,0 -3.47798,-1.30005 -1.26655,-1.30006 -1.26655,-3.46459 0,-2.30525 1.42068,-3.73933 1.42738,-1.43408 3.69912,-1.43408 1.40728,0 2.37227,0.35517 v 2.08411 q -0.96499,-0.57632 -2.19803,-0.57632 -1.35367,0 -2.18463,0.85107 -0.83096,0.85107 -0.83096,2.30525 0,1.39388 0.78405,2.22484 0.78405,0.82426 2.11092,0.82426 1.26654,0 2.31865,-0.61652 z"
         style="-inkscape-font-specification:'Segoe UI Bold';fill:#646464;fill-opacity:1"
         id="path1352" />
      <path
         d="m 140.18148,118.02778 h -5.72293 v -9.60969 h 2.16453 v 7.85394 h 3.5584 z"
         style="-inkscape-font-specification:'Segoe UI Bold';fill:#646464;fill-opacity:1"
         id="path1354" />
      <path
         d="m 143.63936,118.02778 h -2.16453 v -9.60969 h 2.16453 z"
         style="-inkscape-font-specification:'Segoe UI Bold';fill:#646464;fill-opacity:1"
         id="path1356" />
      <path
         d="m 156.77394,118.02778 h -2.13772 v -5.74973 q 0,-0.93149 0.0804,-2.05731 h -0.0536 q -0.16754,0.88458 -0.30156,1.27325 l -2.25165,6.53379 h -1.76914 l -2.29185,-6.46677 q -0.0938,-0.26136 -0.30156,-1.34027 h -0.0603 q 0.0871,1.42068 0.0871,2.49289 v 5.31415 h -1.95008 v -9.60969 h 3.16972 l 1.96349,5.69612 q 0.23454,0.68353 0.34177,1.37377 h 0.0402 q 0.18094,-0.79746 0.38198,-1.38717 l 1.96348,-5.68272 h 3.08931 z"
         style="-inkscape-font-specification:'Segoe UI Bold';fill:#646464;fill-opacity:1"
         id="path1358" />
      <path
         d="m 158.95857,118.02778 v -9.60969 h 3.49809 q 1.60832,0 2.47279,0.58971 0.86447,0.58972 0.86447,1.66193 0,0.77735 -0.5294,1.36037 -0.52271,0.58301 -1.34027,0.81086 v 0.0268 q 1.0253,0.12733 1.63512,0.75725 0.61652,0.62993 0.61652,1.5346 0,1.32016 -0.94488,2.09752 -0.94489,0.77065 -2.58001,0.77065 z m 2.16453,-8.01478 v 2.27845 h 0.95159 q 0.67013,0 1.0521,-0.32166 0.38868,-0.32837 0.38868,-0.89798 0,-1.05881 -1.58151,-1.05881 z m 0,3.88677 v 2.53309 h 1.17273 q 0.75055,0 1.17273,-0.34846 0.42889,-0.34847 0.42889,-0.95159 0,-0.57631 -0.42219,-0.90468 -0.41548,-0.32836 -1.16603,-0.32836 z"
         style="-inkscape-font-specification:'Segoe UI Bold';fill:#646464;fill-opacity:1"
         id="path1360" />
    </g>
  </g>
</svg>
