%TF.GenerationSoftware,KiCad,Pcbnew,8.0.6*%
%TF.CreationDate,2024-12-18T16:54:21-05:00*%
%TF.ProjectId,hexapod,68657861-706f-4642-9e6b-696361645f70,rev?*%
%TF.SameCoordinates,Original*%
%TF.FileFunction,Drillmap*%
%TF.FilePolarity,Positive*%
%FSLAX45Y45*%
G04 Gerber Fmt 4.5, Leading zero omitted, Abs format (unit mm)*
G04 Created by KiCad (PCBNEW 8.0.6) date 2024-12-18 16:54:21*
%MOMM*%
%LPD*%
G01*
G04 APERTURE LIST*
%ADD10C,0.050000*%
%ADD11C,0.200000*%
%ADD12C,0.100000*%
%ADD13C,0.102000*%
%ADD14C,0.130000*%
%ADD15C,0.230000*%
G04 APERTURE END LIST*
D10*
X12400000Y-15200000D02*
G75*
G02*
X12100000Y-15500000I-300000J0D01*
G01*
X7900000Y-4500000D02*
X12100000Y-4500000D01*
X12400000Y-4800000D02*
X12400000Y-15200000D01*
X12100000Y-4500000D02*
G75*
G02*
X12400000Y-4800000I0J-300000D01*
G01*
X7900000Y-15500000D02*
G75*
G02*
X7600000Y-15200000I0J300000D01*
G01*
X7600000Y-4800000D02*
G75*
G02*
X7900000Y-4500000I300000J0D01*
G01*
X7600000Y-15200000D02*
X7600000Y-4800000D01*
X12100000Y-15500000D02*
X7900000Y-15500000D01*
D11*
D12*
X7800000Y-5440000D02*
X7900000Y-5540000D01*
X7900000Y-5440000D02*
X7800000Y-5540000D01*
X7800000Y-7000000D02*
X7900000Y-7100000D01*
X7900000Y-7000000D02*
X7800000Y-7100000D01*
X7800000Y-12975000D02*
X7900000Y-13075000D01*
X7900000Y-12975000D02*
X7800000Y-13075000D01*
X7800000Y-14535000D02*
X7900000Y-14635000D01*
X7900000Y-14535000D02*
X7800000Y-14635000D01*
X7817000Y-7550000D02*
X7917000Y-7650000D01*
X7917000Y-7550000D02*
X7817000Y-7650000D01*
X7817000Y-7950000D02*
X7917000Y-8050000D01*
X7917000Y-7950000D02*
X7817000Y-8050000D01*
X7817000Y-8350000D02*
X7917000Y-8450000D01*
X7917000Y-8350000D02*
X7817000Y-8450000D01*
X7817000Y-9550000D02*
X7917000Y-9650000D01*
X7917000Y-9550000D02*
X7817000Y-9650000D01*
X7817000Y-9950000D02*
X7917000Y-10050000D01*
X7917000Y-9950000D02*
X7817000Y-10050000D01*
X7817000Y-10350000D02*
X7917000Y-10450000D01*
X7917000Y-10350000D02*
X7817000Y-10450000D01*
X7817000Y-11650000D02*
X7917000Y-11750000D01*
X7917000Y-11650000D02*
X7817000Y-11750000D01*
X7817000Y-12050000D02*
X7917000Y-12150000D01*
X7917000Y-12050000D02*
X7817000Y-12150000D01*
X7817000Y-12450000D02*
X7917000Y-12550000D01*
X7917000Y-12450000D02*
X7817000Y-12550000D01*
X8071000Y-7550000D02*
X8171000Y-7650000D01*
X8171000Y-7550000D02*
X8071000Y-7650000D01*
X8071000Y-7950000D02*
X8171000Y-8050000D01*
X8171000Y-7950000D02*
X8071000Y-8050000D01*
X8071000Y-8350000D02*
X8171000Y-8450000D01*
X8171000Y-8350000D02*
X8071000Y-8450000D01*
X8071000Y-9550000D02*
X8171000Y-9650000D01*
X8171000Y-9550000D02*
X8071000Y-9650000D01*
X8071000Y-9950000D02*
X8171000Y-10050000D01*
X8171000Y-9950000D02*
X8071000Y-10050000D01*
X8071000Y-10350000D02*
X8171000Y-10450000D01*
X8171000Y-10350000D02*
X8071000Y-10450000D01*
X8071000Y-11650000D02*
X8171000Y-11750000D01*
X8171000Y-11650000D02*
X8071000Y-11750000D01*
X8071000Y-12050000D02*
X8171000Y-12150000D01*
X8171000Y-12050000D02*
X8071000Y-12150000D01*
X8071000Y-12450000D02*
X8171000Y-12550000D01*
X8171000Y-12450000D02*
X8071000Y-12550000D01*
X8325000Y-7550000D02*
X8425000Y-7650000D01*
X8425000Y-7550000D02*
X8325000Y-7650000D01*
X8325000Y-7950000D02*
X8425000Y-8050000D01*
X8425000Y-7950000D02*
X8325000Y-8050000D01*
X8325000Y-8350000D02*
X8425000Y-8450000D01*
X8425000Y-8350000D02*
X8325000Y-8450000D01*
X8325000Y-9550000D02*
X8425000Y-9650000D01*
X8425000Y-9550000D02*
X8325000Y-9650000D01*
X8325000Y-9950000D02*
X8425000Y-10050000D01*
X8425000Y-9950000D02*
X8325000Y-10050000D01*
X8325000Y-10350000D02*
X8425000Y-10450000D01*
X8425000Y-10350000D02*
X8325000Y-10450000D01*
X8325000Y-11650000D02*
X8425000Y-11750000D01*
X8425000Y-11650000D02*
X8325000Y-11750000D01*
X8325000Y-12050000D02*
X8425000Y-12150000D01*
X8425000Y-12050000D02*
X8325000Y-12150000D01*
X8325000Y-12450000D02*
X8425000Y-12550000D01*
X8425000Y-12450000D02*
X8325000Y-12550000D01*
X8700000Y-5440000D02*
X8800000Y-5540000D01*
X8800000Y-5440000D02*
X8700000Y-5540000D01*
X8700000Y-7000000D02*
X8800000Y-7100000D01*
X8800000Y-7000000D02*
X8700000Y-7100000D01*
X8700000Y-12975000D02*
X8800000Y-13075000D01*
X8800000Y-12975000D02*
X8700000Y-13075000D01*
X8700000Y-14535000D02*
X8800000Y-14635000D01*
X8800000Y-14535000D02*
X8700000Y-14635000D01*
X9155000Y-14235000D02*
X9255000Y-14335000D01*
X9255000Y-14235000D02*
X9155000Y-14335000D01*
X9155000Y-15135000D02*
X9255000Y-15235000D01*
X9255000Y-15135000D02*
X9155000Y-15235000D01*
X9165000Y-5700000D02*
X9265000Y-5800000D01*
X9265000Y-5700000D02*
X9165000Y-5800000D01*
X9165000Y-6600000D02*
X9265000Y-6700000D01*
X9265000Y-6600000D02*
X9165000Y-6700000D01*
X9165000Y-12950000D02*
X9265000Y-13050000D01*
X9265000Y-12950000D02*
X9165000Y-13050000D01*
X9165000Y-13850000D02*
X9265000Y-13950000D01*
X9265000Y-13850000D02*
X9165000Y-13950000D01*
X9434000Y-7000000D02*
X9534000Y-7100000D01*
X9534000Y-7000000D02*
X9434000Y-7100000D01*
X10450000Y-7000000D02*
X10550000Y-7100000D01*
X10550000Y-7000000D02*
X10450000Y-7100000D01*
X10715000Y-14235000D02*
X10815000Y-14335000D01*
X10815000Y-14235000D02*
X10715000Y-14335000D01*
X10715000Y-15135000D02*
X10815000Y-15235000D01*
X10815000Y-15135000D02*
X10715000Y-15235000D01*
X10725000Y-5700000D02*
X10825000Y-5800000D01*
X10825000Y-5700000D02*
X10725000Y-5800000D01*
X10725000Y-6600000D02*
X10825000Y-6700000D01*
X10825000Y-6600000D02*
X10725000Y-6700000D01*
X10725000Y-12950000D02*
X10825000Y-13050000D01*
X10825000Y-12950000D02*
X10725000Y-13050000D01*
X10725000Y-13850000D02*
X10825000Y-13950000D01*
X10825000Y-13850000D02*
X10725000Y-13950000D01*
X11200000Y-5440000D02*
X11300000Y-5540000D01*
X11300000Y-5440000D02*
X11200000Y-5540000D01*
X11200000Y-7000000D02*
X11300000Y-7100000D01*
X11300000Y-7000000D02*
X11200000Y-7100000D01*
X11200000Y-12975000D02*
X11300000Y-13075000D01*
X11300000Y-12975000D02*
X11200000Y-13075000D01*
X11200000Y-14535000D02*
X11300000Y-14635000D01*
X11300000Y-14535000D02*
X11200000Y-14635000D01*
X11575000Y-7500000D02*
X11675000Y-7600000D01*
X11675000Y-7500000D02*
X11575000Y-7600000D01*
X11575000Y-7900000D02*
X11675000Y-8000000D01*
X11675000Y-7900000D02*
X11575000Y-8000000D01*
X11575000Y-8300000D02*
X11675000Y-8400000D01*
X11675000Y-8300000D02*
X11575000Y-8400000D01*
X11575000Y-9550000D02*
X11675000Y-9650000D01*
X11675000Y-9550000D02*
X11575000Y-9650000D01*
X11575000Y-9950000D02*
X11675000Y-10050000D01*
X11675000Y-9950000D02*
X11575000Y-10050000D01*
X11575000Y-10350000D02*
X11675000Y-10450000D01*
X11675000Y-10350000D02*
X11575000Y-10450000D01*
X11575000Y-11650000D02*
X11675000Y-11750000D01*
X11675000Y-11650000D02*
X11575000Y-11750000D01*
X11575000Y-12050000D02*
X11675000Y-12150000D01*
X11675000Y-12050000D02*
X11575000Y-12150000D01*
X11575000Y-12450000D02*
X11675000Y-12550000D01*
X11675000Y-12450000D02*
X11575000Y-12550000D01*
X11829000Y-7500000D02*
X11929000Y-7600000D01*
X11929000Y-7500000D02*
X11829000Y-7600000D01*
X11829000Y-7900000D02*
X11929000Y-8000000D01*
X11929000Y-7900000D02*
X11829000Y-8000000D01*
X11829000Y-8300000D02*
X11929000Y-8400000D01*
X11929000Y-8300000D02*
X11829000Y-8400000D01*
X11829000Y-9550000D02*
X11929000Y-9650000D01*
X11929000Y-9550000D02*
X11829000Y-9650000D01*
X11829000Y-9950000D02*
X11929000Y-10050000D01*
X11929000Y-9950000D02*
X11829000Y-10050000D01*
X11829000Y-10350000D02*
X11929000Y-10450000D01*
X11929000Y-10350000D02*
X11829000Y-10450000D01*
X11829000Y-11650000D02*
X11929000Y-11750000D01*
X11929000Y-11650000D02*
X11829000Y-11750000D01*
X11829000Y-12050000D02*
X11929000Y-12150000D01*
X11929000Y-12050000D02*
X11829000Y-12150000D01*
X11829000Y-12450000D02*
X11929000Y-12550000D01*
X11929000Y-12450000D02*
X11829000Y-12550000D01*
X12083000Y-7500000D02*
X12183000Y-7600000D01*
X12183000Y-7500000D02*
X12083000Y-7600000D01*
X12083000Y-7900000D02*
X12183000Y-8000000D01*
X12183000Y-7900000D02*
X12083000Y-8000000D01*
X12083000Y-8300000D02*
X12183000Y-8400000D01*
X12183000Y-8300000D02*
X12083000Y-8400000D01*
X12083000Y-9550000D02*
X12183000Y-9650000D01*
X12183000Y-9550000D02*
X12083000Y-9650000D01*
X12083000Y-9950000D02*
X12183000Y-10050000D01*
X12183000Y-9950000D02*
X12083000Y-10050000D01*
X12083000Y-10350000D02*
X12183000Y-10450000D01*
X12183000Y-10350000D02*
X12083000Y-10450000D01*
X12083000Y-11650000D02*
X12183000Y-11750000D01*
X12183000Y-11650000D02*
X12083000Y-11750000D01*
X12083000Y-12050000D02*
X12183000Y-12150000D01*
X12183000Y-12050000D02*
X12083000Y-12150000D01*
X12083000Y-12450000D02*
X12183000Y-12550000D01*
X12183000Y-12450000D02*
X12083000Y-12550000D01*
X12100000Y-5440000D02*
X12200000Y-5540000D01*
X12200000Y-5440000D02*
X12100000Y-5540000D01*
X12100000Y-7000000D02*
X12200000Y-7100000D01*
X12200000Y-7000000D02*
X12100000Y-7100000D01*
X12100000Y-12975000D02*
X12200000Y-13075000D01*
X12200000Y-12975000D02*
X12100000Y-13075000D01*
X12100000Y-14535000D02*
X12200000Y-14635000D01*
X12200000Y-14535000D02*
X12100000Y-14635000D01*
D13*
X9162000Y-7587000D02*
G75*
G02*
X9060000Y-7587000I-51000J0D01*
G01*
X9060000Y-7587000D02*
G75*
G02*
X9162000Y-7587000I51000J0D01*
G01*
X9162000Y-7841000D02*
G75*
G02*
X9060000Y-7841000I-51000J0D01*
G01*
X9060000Y-7841000D02*
G75*
G02*
X9162000Y-7841000I51000J0D01*
G01*
X9162000Y-8095000D02*
G75*
G02*
X9060000Y-8095000I-51000J0D01*
G01*
X9060000Y-8095000D02*
G75*
G02*
X9162000Y-8095000I51000J0D01*
G01*
X9162000Y-8349000D02*
G75*
G02*
X9060000Y-8349000I-51000J0D01*
G01*
X9060000Y-8349000D02*
G75*
G02*
X9162000Y-8349000I51000J0D01*
G01*
X9162000Y-8603000D02*
G75*
G02*
X9060000Y-8603000I-51000J0D01*
G01*
X9060000Y-8603000D02*
G75*
G02*
X9162000Y-8603000I51000J0D01*
G01*
X9162000Y-8857000D02*
G75*
G02*
X9060000Y-8857000I-51000J0D01*
G01*
X9060000Y-8857000D02*
G75*
G02*
X9162000Y-8857000I51000J0D01*
G01*
X9162000Y-9111000D02*
G75*
G02*
X9060000Y-9111000I-51000J0D01*
G01*
X9060000Y-9111000D02*
G75*
G02*
X9162000Y-9111000I51000J0D01*
G01*
X9162000Y-9365000D02*
G75*
G02*
X9060000Y-9365000I-51000J0D01*
G01*
X9060000Y-9365000D02*
G75*
G02*
X9162000Y-9365000I51000J0D01*
G01*
X9162000Y-9619000D02*
G75*
G02*
X9060000Y-9619000I-51000J0D01*
G01*
X9060000Y-9619000D02*
G75*
G02*
X9162000Y-9619000I51000J0D01*
G01*
X9162000Y-9873000D02*
G75*
G02*
X9060000Y-9873000I-51000J0D01*
G01*
X9060000Y-9873000D02*
G75*
G02*
X9162000Y-9873000I51000J0D01*
G01*
X9162000Y-10127000D02*
G75*
G02*
X9060000Y-10127000I-51000J0D01*
G01*
X9060000Y-10127000D02*
G75*
G02*
X9162000Y-10127000I51000J0D01*
G01*
X9162000Y-10381000D02*
G75*
G02*
X9060000Y-10381000I-51000J0D01*
G01*
X9060000Y-10381000D02*
G75*
G02*
X9162000Y-10381000I51000J0D01*
G01*
X9162000Y-10635000D02*
G75*
G02*
X9060000Y-10635000I-51000J0D01*
G01*
X9060000Y-10635000D02*
G75*
G02*
X9162000Y-10635000I51000J0D01*
G01*
X9162000Y-10889000D02*
G75*
G02*
X9060000Y-10889000I-51000J0D01*
G01*
X9060000Y-10889000D02*
G75*
G02*
X9162000Y-10889000I51000J0D01*
G01*
X9162000Y-11143000D02*
G75*
G02*
X9060000Y-11143000I-51000J0D01*
G01*
X9060000Y-11143000D02*
G75*
G02*
X9162000Y-11143000I51000J0D01*
G01*
X9162000Y-11397000D02*
G75*
G02*
X9060000Y-11397000I-51000J0D01*
G01*
X9060000Y-11397000D02*
G75*
G02*
X9162000Y-11397000I51000J0D01*
G01*
X9162000Y-11651000D02*
G75*
G02*
X9060000Y-11651000I-51000J0D01*
G01*
X9060000Y-11651000D02*
G75*
G02*
X9162000Y-11651000I51000J0D01*
G01*
X9162000Y-11905000D02*
G75*
G02*
X9060000Y-11905000I-51000J0D01*
G01*
X9060000Y-11905000D02*
G75*
G02*
X9162000Y-11905000I51000J0D01*
G01*
X9162000Y-12159000D02*
G75*
G02*
X9060000Y-12159000I-51000J0D01*
G01*
X9060000Y-12159000D02*
G75*
G02*
X9162000Y-12159000I51000J0D01*
G01*
X9162000Y-12413000D02*
G75*
G02*
X9060000Y-12413000I-51000J0D01*
G01*
X9060000Y-12413000D02*
G75*
G02*
X9162000Y-12413000I51000J0D01*
G01*
X9797000Y-12390000D02*
G75*
G02*
X9695000Y-12390000I-51000J0D01*
G01*
X9695000Y-12390000D02*
G75*
G02*
X9797000Y-12390000I51000J0D01*
G01*
X10051000Y-12390000D02*
G75*
G02*
X9949000Y-12390000I-51000J0D01*
G01*
X9949000Y-12390000D02*
G75*
G02*
X10051000Y-12390000I51000J0D01*
G01*
X10305000Y-12390000D02*
G75*
G02*
X10203000Y-12390000I-51000J0D01*
G01*
X10203000Y-12390000D02*
G75*
G02*
X10305000Y-12390000I51000J0D01*
G01*
X10940000Y-7587000D02*
G75*
G02*
X10838000Y-7587000I-51000J0D01*
G01*
X10838000Y-7587000D02*
G75*
G02*
X10940000Y-7587000I51000J0D01*
G01*
X10940000Y-7841000D02*
G75*
G02*
X10838000Y-7841000I-51000J0D01*
G01*
X10838000Y-7841000D02*
G75*
G02*
X10940000Y-7841000I51000J0D01*
G01*
X10940000Y-8095000D02*
G75*
G02*
X10838000Y-8095000I-51000J0D01*
G01*
X10838000Y-8095000D02*
G75*
G02*
X10940000Y-8095000I51000J0D01*
G01*
X10940000Y-8349000D02*
G75*
G02*
X10838000Y-8349000I-51000J0D01*
G01*
X10838000Y-8349000D02*
G75*
G02*
X10940000Y-8349000I51000J0D01*
G01*
X10940000Y-8603000D02*
G75*
G02*
X10838000Y-8603000I-51000J0D01*
G01*
X10838000Y-8603000D02*
G75*
G02*
X10940000Y-8603000I51000J0D01*
G01*
X10940000Y-8857000D02*
G75*
G02*
X10838000Y-8857000I-51000J0D01*
G01*
X10838000Y-8857000D02*
G75*
G02*
X10940000Y-8857000I51000J0D01*
G01*
X10940000Y-9111000D02*
G75*
G02*
X10838000Y-9111000I-51000J0D01*
G01*
X10838000Y-9111000D02*
G75*
G02*
X10940000Y-9111000I51000J0D01*
G01*
X10940000Y-9365000D02*
G75*
G02*
X10838000Y-9365000I-51000J0D01*
G01*
X10838000Y-9365000D02*
G75*
G02*
X10940000Y-9365000I51000J0D01*
G01*
X10940000Y-9619000D02*
G75*
G02*
X10838000Y-9619000I-51000J0D01*
G01*
X10838000Y-9619000D02*
G75*
G02*
X10940000Y-9619000I51000J0D01*
G01*
X10940000Y-9873000D02*
G75*
G02*
X10838000Y-9873000I-51000J0D01*
G01*
X10838000Y-9873000D02*
G75*
G02*
X10940000Y-9873000I51000J0D01*
G01*
X10940000Y-10127000D02*
G75*
G02*
X10838000Y-10127000I-51000J0D01*
G01*
X10838000Y-10127000D02*
G75*
G02*
X10940000Y-10127000I51000J0D01*
G01*
X10940000Y-10381000D02*
G75*
G02*
X10838000Y-10381000I-51000J0D01*
G01*
X10838000Y-10381000D02*
G75*
G02*
X10940000Y-10381000I51000J0D01*
G01*
X10940000Y-10635000D02*
G75*
G02*
X10838000Y-10635000I-51000J0D01*
G01*
X10838000Y-10635000D02*
G75*
G02*
X10940000Y-10635000I51000J0D01*
G01*
X10940000Y-10889000D02*
G75*
G02*
X10838000Y-10889000I-51000J0D01*
G01*
X10838000Y-10889000D02*
G75*
G02*
X10940000Y-10889000I51000J0D01*
G01*
X10940000Y-11143000D02*
G75*
G02*
X10838000Y-11143000I-51000J0D01*
G01*
X10838000Y-11143000D02*
G75*
G02*
X10940000Y-11143000I51000J0D01*
G01*
X10940000Y-11397000D02*
G75*
G02*
X10838000Y-11397000I-51000J0D01*
G01*
X10838000Y-11397000D02*
G75*
G02*
X10940000Y-11397000I51000J0D01*
G01*
X10940000Y-11651000D02*
G75*
G02*
X10838000Y-11651000I-51000J0D01*
G01*
X10838000Y-11651000D02*
G75*
G02*
X10940000Y-11651000I51000J0D01*
G01*
X10940000Y-11905000D02*
G75*
G02*
X10838000Y-11905000I-51000J0D01*
G01*
X10838000Y-11905000D02*
G75*
G02*
X10940000Y-11905000I51000J0D01*
G01*
X10940000Y-12159000D02*
G75*
G02*
X10838000Y-12159000I-51000J0D01*
G01*
X10838000Y-12159000D02*
G75*
G02*
X10940000Y-12159000I51000J0D01*
G01*
X10940000Y-12413000D02*
G75*
G02*
X10838000Y-12413000I-51000J0D01*
G01*
X10838000Y-12413000D02*
G75*
G02*
X10940000Y-12413000I51000J0D01*
G01*
D14*
X9800000Y-5010000D02*
X9800000Y-5140000D01*
X9735000Y-5075000D02*
X9865000Y-5075000D01*
X10300000Y-5010000D02*
X10300000Y-5140000D01*
X10235000Y-5075000D02*
X10365000Y-5075000D01*
D15*
X8531318Y-5031318D02*
X8531318Y-4868682D01*
X8368682Y-4868682D01*
X8368682Y-5031318D01*
X8531318Y-5031318D01*
X8531318Y-15131318D02*
X8531318Y-14968682D01*
X8368682Y-14968682D01*
X8368682Y-15131318D01*
X8531318Y-15131318D01*
X11631318Y-5031318D02*
X11631318Y-4868682D01*
X11468682Y-4868682D01*
X11468682Y-5031318D01*
X11631318Y-5031318D01*
X11631318Y-15131318D02*
X11631318Y-14968682D01*
X11468682Y-14968682D01*
X11468682Y-15131318D01*
X11631318Y-15131318D01*
D11*
X7858277Y-15813984D02*
X7858277Y-15613984D01*
X7858277Y-15613984D02*
X7905896Y-15613984D01*
X7905896Y-15613984D02*
X7934467Y-15623508D01*
X7934467Y-15623508D02*
X7953515Y-15642555D01*
X7953515Y-15642555D02*
X7963039Y-15661603D01*
X7963039Y-15661603D02*
X7972562Y-15699698D01*
X7972562Y-15699698D02*
X7972562Y-15728269D01*
X7972562Y-15728269D02*
X7963039Y-15766365D01*
X7963039Y-15766365D02*
X7953515Y-15785412D01*
X7953515Y-15785412D02*
X7934467Y-15804460D01*
X7934467Y-15804460D02*
X7905896Y-15813984D01*
X7905896Y-15813984D02*
X7858277Y-15813984D01*
X8058277Y-15813984D02*
X8058277Y-15680650D01*
X8058277Y-15718746D02*
X8067801Y-15699698D01*
X8067801Y-15699698D02*
X8077324Y-15690174D01*
X8077324Y-15690174D02*
X8096372Y-15680650D01*
X8096372Y-15680650D02*
X8115420Y-15680650D01*
X8182086Y-15813984D02*
X8182086Y-15680650D01*
X8182086Y-15613984D02*
X8172562Y-15623508D01*
X8172562Y-15623508D02*
X8182086Y-15633031D01*
X8182086Y-15633031D02*
X8191610Y-15623508D01*
X8191610Y-15623508D02*
X8182086Y-15613984D01*
X8182086Y-15613984D02*
X8182086Y-15633031D01*
X8305896Y-15813984D02*
X8286848Y-15804460D01*
X8286848Y-15804460D02*
X8277324Y-15785412D01*
X8277324Y-15785412D02*
X8277324Y-15613984D01*
X8410658Y-15813984D02*
X8391610Y-15804460D01*
X8391610Y-15804460D02*
X8382086Y-15785412D01*
X8382086Y-15785412D02*
X8382086Y-15613984D01*
X8639229Y-15813984D02*
X8639229Y-15613984D01*
X8639229Y-15613984D02*
X8705896Y-15756841D01*
X8705896Y-15756841D02*
X8772563Y-15613984D01*
X8772563Y-15613984D02*
X8772563Y-15813984D01*
X8953515Y-15813984D02*
X8953515Y-15709222D01*
X8953515Y-15709222D02*
X8943991Y-15690174D01*
X8943991Y-15690174D02*
X8924944Y-15680650D01*
X8924944Y-15680650D02*
X8886848Y-15680650D01*
X8886848Y-15680650D02*
X8867801Y-15690174D01*
X8953515Y-15804460D02*
X8934467Y-15813984D01*
X8934467Y-15813984D02*
X8886848Y-15813984D01*
X8886848Y-15813984D02*
X8867801Y-15804460D01*
X8867801Y-15804460D02*
X8858277Y-15785412D01*
X8858277Y-15785412D02*
X8858277Y-15766365D01*
X8858277Y-15766365D02*
X8867801Y-15747317D01*
X8867801Y-15747317D02*
X8886848Y-15737793D01*
X8886848Y-15737793D02*
X8934467Y-15737793D01*
X8934467Y-15737793D02*
X8953515Y-15728269D01*
X9048753Y-15680650D02*
X9048753Y-15880650D01*
X9048753Y-15690174D02*
X9067801Y-15680650D01*
X9067801Y-15680650D02*
X9105896Y-15680650D01*
X9105896Y-15680650D02*
X9124944Y-15690174D01*
X9124944Y-15690174D02*
X9134467Y-15699698D01*
X9134467Y-15699698D02*
X9143991Y-15718746D01*
X9143991Y-15718746D02*
X9143991Y-15775888D01*
X9143991Y-15775888D02*
X9134467Y-15794936D01*
X9134467Y-15794936D02*
X9124944Y-15804460D01*
X9124944Y-15804460D02*
X9105896Y-15813984D01*
X9105896Y-15813984D02*
X9067801Y-15813984D01*
X9067801Y-15813984D02*
X9048753Y-15804460D01*
X9229705Y-15794936D02*
X9239229Y-15804460D01*
X9239229Y-15804460D02*
X9229705Y-15813984D01*
X9229705Y-15813984D02*
X9220182Y-15804460D01*
X9220182Y-15804460D02*
X9229705Y-15794936D01*
X9229705Y-15794936D02*
X9229705Y-15813984D01*
X9229705Y-15690174D02*
X9239229Y-15699698D01*
X9239229Y-15699698D02*
X9229705Y-15709222D01*
X9229705Y-15709222D02*
X9220182Y-15699698D01*
X9220182Y-15699698D02*
X9229705Y-15690174D01*
X9229705Y-15690174D02*
X9229705Y-15709222D01*
D12*
X7497500Y-16092500D02*
X7597500Y-16192500D01*
X7597500Y-16092500D02*
X7497500Y-16192500D01*
D11*
X7963039Y-16233984D02*
X7848753Y-16233984D01*
X7905896Y-16233984D02*
X7905896Y-16033984D01*
X7905896Y-16033984D02*
X7886848Y-16062555D01*
X7886848Y-16062555D02*
X7867801Y-16081603D01*
X7867801Y-16081603D02*
X7848753Y-16091127D01*
X8048753Y-16214936D02*
X8058277Y-16224460D01*
X8058277Y-16224460D02*
X8048753Y-16233984D01*
X8048753Y-16233984D02*
X8039229Y-16224460D01*
X8039229Y-16224460D02*
X8048753Y-16214936D01*
X8048753Y-16214936D02*
X8048753Y-16233984D01*
X8182086Y-16033984D02*
X8201134Y-16033984D01*
X8201134Y-16033984D02*
X8220182Y-16043508D01*
X8220182Y-16043508D02*
X8229705Y-16053031D01*
X8229705Y-16053031D02*
X8239229Y-16072079D01*
X8239229Y-16072079D02*
X8248753Y-16110174D01*
X8248753Y-16110174D02*
X8248753Y-16157793D01*
X8248753Y-16157793D02*
X8239229Y-16195888D01*
X8239229Y-16195888D02*
X8229705Y-16214936D01*
X8229705Y-16214936D02*
X8220182Y-16224460D01*
X8220182Y-16224460D02*
X8201134Y-16233984D01*
X8201134Y-16233984D02*
X8182086Y-16233984D01*
X8182086Y-16233984D02*
X8163039Y-16224460D01*
X8163039Y-16224460D02*
X8153515Y-16214936D01*
X8153515Y-16214936D02*
X8143991Y-16195888D01*
X8143991Y-16195888D02*
X8134467Y-16157793D01*
X8134467Y-16157793D02*
X8134467Y-16110174D01*
X8134467Y-16110174D02*
X8143991Y-16072079D01*
X8143991Y-16072079D02*
X8153515Y-16053031D01*
X8153515Y-16053031D02*
X8163039Y-16043508D01*
X8163039Y-16043508D02*
X8182086Y-16033984D01*
X8372562Y-16033984D02*
X8391610Y-16033984D01*
X8391610Y-16033984D02*
X8410658Y-16043508D01*
X8410658Y-16043508D02*
X8420182Y-16053031D01*
X8420182Y-16053031D02*
X8429705Y-16072079D01*
X8429705Y-16072079D02*
X8439229Y-16110174D01*
X8439229Y-16110174D02*
X8439229Y-16157793D01*
X8439229Y-16157793D02*
X8429705Y-16195888D01*
X8429705Y-16195888D02*
X8420182Y-16214936D01*
X8420182Y-16214936D02*
X8410658Y-16224460D01*
X8410658Y-16224460D02*
X8391610Y-16233984D01*
X8391610Y-16233984D02*
X8372562Y-16233984D01*
X8372562Y-16233984D02*
X8353515Y-16224460D01*
X8353515Y-16224460D02*
X8343991Y-16214936D01*
X8343991Y-16214936D02*
X8334467Y-16195888D01*
X8334467Y-16195888D02*
X8324943Y-16157793D01*
X8324943Y-16157793D02*
X8324943Y-16110174D01*
X8324943Y-16110174D02*
X8334467Y-16072079D01*
X8334467Y-16072079D02*
X8343991Y-16053031D01*
X8343991Y-16053031D02*
X8353515Y-16043508D01*
X8353515Y-16043508D02*
X8372562Y-16033984D01*
X8563039Y-16033984D02*
X8582086Y-16033984D01*
X8582086Y-16033984D02*
X8601134Y-16043508D01*
X8601134Y-16043508D02*
X8610658Y-16053031D01*
X8610658Y-16053031D02*
X8620182Y-16072079D01*
X8620182Y-16072079D02*
X8629705Y-16110174D01*
X8629705Y-16110174D02*
X8629705Y-16157793D01*
X8629705Y-16157793D02*
X8620182Y-16195888D01*
X8620182Y-16195888D02*
X8610658Y-16214936D01*
X8610658Y-16214936D02*
X8601134Y-16224460D01*
X8601134Y-16224460D02*
X8582086Y-16233984D01*
X8582086Y-16233984D02*
X8563039Y-16233984D01*
X8563039Y-16233984D02*
X8543991Y-16224460D01*
X8543991Y-16224460D02*
X8534467Y-16214936D01*
X8534467Y-16214936D02*
X8524944Y-16195888D01*
X8524944Y-16195888D02*
X8515420Y-16157793D01*
X8515420Y-16157793D02*
X8515420Y-16110174D01*
X8515420Y-16110174D02*
X8524944Y-16072079D01*
X8524944Y-16072079D02*
X8534467Y-16053031D01*
X8534467Y-16053031D02*
X8543991Y-16043508D01*
X8543991Y-16043508D02*
X8563039Y-16033984D01*
X8715420Y-16233984D02*
X8715420Y-16100650D01*
X8715420Y-16119698D02*
X8724944Y-16110174D01*
X8724944Y-16110174D02*
X8743991Y-16100650D01*
X8743991Y-16100650D02*
X8772563Y-16100650D01*
X8772563Y-16100650D02*
X8791610Y-16110174D01*
X8791610Y-16110174D02*
X8801134Y-16129222D01*
X8801134Y-16129222D02*
X8801134Y-16233984D01*
X8801134Y-16129222D02*
X8810658Y-16110174D01*
X8810658Y-16110174D02*
X8829705Y-16100650D01*
X8829705Y-16100650D02*
X8858277Y-16100650D01*
X8858277Y-16100650D02*
X8877325Y-16110174D01*
X8877325Y-16110174D02*
X8886848Y-16129222D01*
X8886848Y-16129222D02*
X8886848Y-16233984D01*
X8982086Y-16233984D02*
X8982086Y-16100650D01*
X8982086Y-16119698D02*
X8991610Y-16110174D01*
X8991610Y-16110174D02*
X9010658Y-16100650D01*
X9010658Y-16100650D02*
X9039229Y-16100650D01*
X9039229Y-16100650D02*
X9058277Y-16110174D01*
X9058277Y-16110174D02*
X9067801Y-16129222D01*
X9067801Y-16129222D02*
X9067801Y-16233984D01*
X9067801Y-16129222D02*
X9077325Y-16110174D01*
X9077325Y-16110174D02*
X9096372Y-16100650D01*
X9096372Y-16100650D02*
X9124944Y-16100650D01*
X9124944Y-16100650D02*
X9143991Y-16110174D01*
X9143991Y-16110174D02*
X9153515Y-16129222D01*
X9153515Y-16129222D02*
X9153515Y-16233984D01*
X9543991Y-16024460D02*
X9372563Y-16281603D01*
X9801134Y-16033984D02*
X9820182Y-16033984D01*
X9820182Y-16033984D02*
X9839229Y-16043508D01*
X9839229Y-16043508D02*
X9848753Y-16053031D01*
X9848753Y-16053031D02*
X9858277Y-16072079D01*
X9858277Y-16072079D02*
X9867801Y-16110174D01*
X9867801Y-16110174D02*
X9867801Y-16157793D01*
X9867801Y-16157793D02*
X9858277Y-16195888D01*
X9858277Y-16195888D02*
X9848753Y-16214936D01*
X9848753Y-16214936D02*
X9839229Y-16224460D01*
X9839229Y-16224460D02*
X9820182Y-16233984D01*
X9820182Y-16233984D02*
X9801134Y-16233984D01*
X9801134Y-16233984D02*
X9782087Y-16224460D01*
X9782087Y-16224460D02*
X9772563Y-16214936D01*
X9772563Y-16214936D02*
X9763039Y-16195888D01*
X9763039Y-16195888D02*
X9753515Y-16157793D01*
X9753515Y-16157793D02*
X9753515Y-16110174D01*
X9753515Y-16110174D02*
X9763039Y-16072079D01*
X9763039Y-16072079D02*
X9772563Y-16053031D01*
X9772563Y-16053031D02*
X9782087Y-16043508D01*
X9782087Y-16043508D02*
X9801134Y-16033984D01*
X9953515Y-16214936D02*
X9963039Y-16224460D01*
X9963039Y-16224460D02*
X9953515Y-16233984D01*
X9953515Y-16233984D02*
X9943991Y-16224460D01*
X9943991Y-16224460D02*
X9953515Y-16214936D01*
X9953515Y-16214936D02*
X9953515Y-16233984D01*
X10086848Y-16033984D02*
X10105896Y-16033984D01*
X10105896Y-16033984D02*
X10124944Y-16043508D01*
X10124944Y-16043508D02*
X10134468Y-16053031D01*
X10134468Y-16053031D02*
X10143991Y-16072079D01*
X10143991Y-16072079D02*
X10153515Y-16110174D01*
X10153515Y-16110174D02*
X10153515Y-16157793D01*
X10153515Y-16157793D02*
X10143991Y-16195888D01*
X10143991Y-16195888D02*
X10134468Y-16214936D01*
X10134468Y-16214936D02*
X10124944Y-16224460D01*
X10124944Y-16224460D02*
X10105896Y-16233984D01*
X10105896Y-16233984D02*
X10086848Y-16233984D01*
X10086848Y-16233984D02*
X10067801Y-16224460D01*
X10067801Y-16224460D02*
X10058277Y-16214936D01*
X10058277Y-16214936D02*
X10048753Y-16195888D01*
X10048753Y-16195888D02*
X10039229Y-16157793D01*
X10039229Y-16157793D02*
X10039229Y-16110174D01*
X10039229Y-16110174D02*
X10048753Y-16072079D01*
X10048753Y-16072079D02*
X10058277Y-16053031D01*
X10058277Y-16053031D02*
X10067801Y-16043508D01*
X10067801Y-16043508D02*
X10086848Y-16033984D01*
X10220182Y-16033984D02*
X10343991Y-16033984D01*
X10343991Y-16033984D02*
X10277325Y-16110174D01*
X10277325Y-16110174D02*
X10305896Y-16110174D01*
X10305896Y-16110174D02*
X10324944Y-16119698D01*
X10324944Y-16119698D02*
X10334468Y-16129222D01*
X10334468Y-16129222D02*
X10343991Y-16148269D01*
X10343991Y-16148269D02*
X10343991Y-16195888D01*
X10343991Y-16195888D02*
X10334468Y-16214936D01*
X10334468Y-16214936D02*
X10324944Y-16224460D01*
X10324944Y-16224460D02*
X10305896Y-16233984D01*
X10305896Y-16233984D02*
X10248753Y-16233984D01*
X10248753Y-16233984D02*
X10229706Y-16224460D01*
X10229706Y-16224460D02*
X10220182Y-16214936D01*
X10439229Y-16233984D02*
X10477325Y-16233984D01*
X10477325Y-16233984D02*
X10496372Y-16224460D01*
X10496372Y-16224460D02*
X10505896Y-16214936D01*
X10505896Y-16214936D02*
X10524944Y-16186365D01*
X10524944Y-16186365D02*
X10534468Y-16148269D01*
X10534468Y-16148269D02*
X10534468Y-16072079D01*
X10534468Y-16072079D02*
X10524944Y-16053031D01*
X10524944Y-16053031D02*
X10515420Y-16043508D01*
X10515420Y-16043508D02*
X10496372Y-16033984D01*
X10496372Y-16033984D02*
X10458277Y-16033984D01*
X10458277Y-16033984D02*
X10439229Y-16043508D01*
X10439229Y-16043508D02*
X10429706Y-16053031D01*
X10429706Y-16053031D02*
X10420182Y-16072079D01*
X10420182Y-16072079D02*
X10420182Y-16119698D01*
X10420182Y-16119698D02*
X10429706Y-16138746D01*
X10429706Y-16138746D02*
X10439229Y-16148269D01*
X10439229Y-16148269D02*
X10458277Y-16157793D01*
X10458277Y-16157793D02*
X10496372Y-16157793D01*
X10496372Y-16157793D02*
X10515420Y-16148269D01*
X10515420Y-16148269D02*
X10524944Y-16138746D01*
X10524944Y-16138746D02*
X10534468Y-16119698D01*
X10705896Y-16100650D02*
X10705896Y-16233984D01*
X10658277Y-16024460D02*
X10610658Y-16167317D01*
X10610658Y-16167317D02*
X10734468Y-16167317D01*
X10801134Y-16033984D02*
X10801134Y-16072079D01*
X10877325Y-16033984D02*
X10877325Y-16072079D01*
X11172563Y-16310174D02*
X11163039Y-16300650D01*
X11163039Y-16300650D02*
X11143991Y-16272079D01*
X11143991Y-16272079D02*
X11134468Y-16253031D01*
X11134468Y-16253031D02*
X11124944Y-16224460D01*
X11124944Y-16224460D02*
X11115420Y-16176841D01*
X11115420Y-16176841D02*
X11115420Y-16138746D01*
X11115420Y-16138746D02*
X11124944Y-16091127D01*
X11124944Y-16091127D02*
X11134468Y-16062555D01*
X11134468Y-16062555D02*
X11143991Y-16043508D01*
X11143991Y-16043508D02*
X11163039Y-16014936D01*
X11163039Y-16014936D02*
X11172563Y-16005412D01*
X11277325Y-16119698D02*
X11258277Y-16110174D01*
X11258277Y-16110174D02*
X11248753Y-16100650D01*
X11248753Y-16100650D02*
X11239229Y-16081603D01*
X11239229Y-16081603D02*
X11239229Y-16072079D01*
X11239229Y-16072079D02*
X11248753Y-16053031D01*
X11248753Y-16053031D02*
X11258277Y-16043508D01*
X11258277Y-16043508D02*
X11277325Y-16033984D01*
X11277325Y-16033984D02*
X11315420Y-16033984D01*
X11315420Y-16033984D02*
X11334468Y-16043508D01*
X11334468Y-16043508D02*
X11343991Y-16053031D01*
X11343991Y-16053031D02*
X11353515Y-16072079D01*
X11353515Y-16072079D02*
X11353515Y-16081603D01*
X11353515Y-16081603D02*
X11343991Y-16100650D01*
X11343991Y-16100650D02*
X11334468Y-16110174D01*
X11334468Y-16110174D02*
X11315420Y-16119698D01*
X11315420Y-16119698D02*
X11277325Y-16119698D01*
X11277325Y-16119698D02*
X11258277Y-16129222D01*
X11258277Y-16129222D02*
X11248753Y-16138746D01*
X11248753Y-16138746D02*
X11239229Y-16157793D01*
X11239229Y-16157793D02*
X11239229Y-16195888D01*
X11239229Y-16195888D02*
X11248753Y-16214936D01*
X11248753Y-16214936D02*
X11258277Y-16224460D01*
X11258277Y-16224460D02*
X11277325Y-16233984D01*
X11277325Y-16233984D02*
X11315420Y-16233984D01*
X11315420Y-16233984D02*
X11334468Y-16224460D01*
X11334468Y-16224460D02*
X11343991Y-16214936D01*
X11343991Y-16214936D02*
X11353515Y-16195888D01*
X11353515Y-16195888D02*
X11353515Y-16157793D01*
X11353515Y-16157793D02*
X11343991Y-16138746D01*
X11343991Y-16138746D02*
X11334468Y-16129222D01*
X11334468Y-16129222D02*
X11315420Y-16119698D01*
X11524944Y-16100650D02*
X11524944Y-16233984D01*
X11477325Y-16024460D02*
X11429706Y-16167317D01*
X11429706Y-16167317D02*
X11553515Y-16167317D01*
X11782087Y-16233984D02*
X11782087Y-16033984D01*
X11867801Y-16233984D02*
X11867801Y-16129222D01*
X11867801Y-16129222D02*
X11858277Y-16110174D01*
X11858277Y-16110174D02*
X11839230Y-16100650D01*
X11839230Y-16100650D02*
X11810658Y-16100650D01*
X11810658Y-16100650D02*
X11791610Y-16110174D01*
X11791610Y-16110174D02*
X11782087Y-16119698D01*
X11991610Y-16233984D02*
X11972563Y-16224460D01*
X11972563Y-16224460D02*
X11963039Y-16214936D01*
X11963039Y-16214936D02*
X11953515Y-16195888D01*
X11953515Y-16195888D02*
X11953515Y-16138746D01*
X11953515Y-16138746D02*
X11963039Y-16119698D01*
X11963039Y-16119698D02*
X11972563Y-16110174D01*
X11972563Y-16110174D02*
X11991610Y-16100650D01*
X11991610Y-16100650D02*
X12020182Y-16100650D01*
X12020182Y-16100650D02*
X12039230Y-16110174D01*
X12039230Y-16110174D02*
X12048753Y-16119698D01*
X12048753Y-16119698D02*
X12058277Y-16138746D01*
X12058277Y-16138746D02*
X12058277Y-16195888D01*
X12058277Y-16195888D02*
X12048753Y-16214936D01*
X12048753Y-16214936D02*
X12039230Y-16224460D01*
X12039230Y-16224460D02*
X12020182Y-16233984D01*
X12020182Y-16233984D02*
X11991610Y-16233984D01*
X12172563Y-16233984D02*
X12153515Y-16224460D01*
X12153515Y-16224460D02*
X12143991Y-16205412D01*
X12143991Y-16205412D02*
X12143991Y-16033984D01*
X12324944Y-16224460D02*
X12305896Y-16233984D01*
X12305896Y-16233984D02*
X12267801Y-16233984D01*
X12267801Y-16233984D02*
X12248753Y-16224460D01*
X12248753Y-16224460D02*
X12239230Y-16205412D01*
X12239230Y-16205412D02*
X12239230Y-16129222D01*
X12239230Y-16129222D02*
X12248753Y-16110174D01*
X12248753Y-16110174D02*
X12267801Y-16100650D01*
X12267801Y-16100650D02*
X12305896Y-16100650D01*
X12305896Y-16100650D02*
X12324944Y-16110174D01*
X12324944Y-16110174D02*
X12334468Y-16129222D01*
X12334468Y-16129222D02*
X12334468Y-16148269D01*
X12334468Y-16148269D02*
X12239230Y-16167317D01*
X12410658Y-16224460D02*
X12429706Y-16233984D01*
X12429706Y-16233984D02*
X12467801Y-16233984D01*
X12467801Y-16233984D02*
X12486849Y-16224460D01*
X12486849Y-16224460D02*
X12496372Y-16205412D01*
X12496372Y-16205412D02*
X12496372Y-16195888D01*
X12496372Y-16195888D02*
X12486849Y-16176841D01*
X12486849Y-16176841D02*
X12467801Y-16167317D01*
X12467801Y-16167317D02*
X12439230Y-16167317D01*
X12439230Y-16167317D02*
X12420182Y-16157793D01*
X12420182Y-16157793D02*
X12410658Y-16138746D01*
X12410658Y-16138746D02*
X12410658Y-16129222D01*
X12410658Y-16129222D02*
X12420182Y-16110174D01*
X12420182Y-16110174D02*
X12439230Y-16100650D01*
X12439230Y-16100650D02*
X12467801Y-16100650D01*
X12467801Y-16100650D02*
X12486849Y-16110174D01*
X12563039Y-16310174D02*
X12572563Y-16300650D01*
X12572563Y-16300650D02*
X12591611Y-16272079D01*
X12591611Y-16272079D02*
X12601134Y-16253031D01*
X12601134Y-16253031D02*
X12610658Y-16224460D01*
X12610658Y-16224460D02*
X12620182Y-16176841D01*
X12620182Y-16176841D02*
X12620182Y-16138746D01*
X12620182Y-16138746D02*
X12610658Y-16091127D01*
X12610658Y-16091127D02*
X12601134Y-16062555D01*
X12601134Y-16062555D02*
X12591611Y-16043508D01*
X12591611Y-16043508D02*
X12572563Y-16014936D01*
X12572563Y-16014936D02*
X12563039Y-16005412D01*
D13*
X7597500Y-16406500D02*
G75*
G02*
X7495500Y-16406500I-51000J0D01*
G01*
X7495500Y-16406500D02*
G75*
G02*
X7597500Y-16406500I51000J0D01*
G01*
D11*
X7963039Y-16497984D02*
X7848753Y-16497984D01*
X7905896Y-16497984D02*
X7905896Y-16297984D01*
X7905896Y-16297984D02*
X7886848Y-16326555D01*
X7886848Y-16326555D02*
X7867801Y-16345603D01*
X7867801Y-16345603D02*
X7848753Y-16355127D01*
X8048753Y-16478936D02*
X8058277Y-16488460D01*
X8058277Y-16488460D02*
X8048753Y-16497984D01*
X8048753Y-16497984D02*
X8039229Y-16488460D01*
X8039229Y-16488460D02*
X8048753Y-16478936D01*
X8048753Y-16478936D02*
X8048753Y-16497984D01*
X8182086Y-16297984D02*
X8201134Y-16297984D01*
X8201134Y-16297984D02*
X8220182Y-16307508D01*
X8220182Y-16307508D02*
X8229705Y-16317031D01*
X8229705Y-16317031D02*
X8239229Y-16336079D01*
X8239229Y-16336079D02*
X8248753Y-16374174D01*
X8248753Y-16374174D02*
X8248753Y-16421793D01*
X8248753Y-16421793D02*
X8239229Y-16459888D01*
X8239229Y-16459888D02*
X8229705Y-16478936D01*
X8229705Y-16478936D02*
X8220182Y-16488460D01*
X8220182Y-16488460D02*
X8201134Y-16497984D01*
X8201134Y-16497984D02*
X8182086Y-16497984D01*
X8182086Y-16497984D02*
X8163039Y-16488460D01*
X8163039Y-16488460D02*
X8153515Y-16478936D01*
X8153515Y-16478936D02*
X8143991Y-16459888D01*
X8143991Y-16459888D02*
X8134467Y-16421793D01*
X8134467Y-16421793D02*
X8134467Y-16374174D01*
X8134467Y-16374174D02*
X8143991Y-16336079D01*
X8143991Y-16336079D02*
X8153515Y-16317031D01*
X8153515Y-16317031D02*
X8163039Y-16307508D01*
X8163039Y-16307508D02*
X8182086Y-16297984D01*
X8324943Y-16317031D02*
X8334467Y-16307508D01*
X8334467Y-16307508D02*
X8353515Y-16297984D01*
X8353515Y-16297984D02*
X8401134Y-16297984D01*
X8401134Y-16297984D02*
X8420182Y-16307508D01*
X8420182Y-16307508D02*
X8429705Y-16317031D01*
X8429705Y-16317031D02*
X8439229Y-16336079D01*
X8439229Y-16336079D02*
X8439229Y-16355127D01*
X8439229Y-16355127D02*
X8429705Y-16383698D01*
X8429705Y-16383698D02*
X8315420Y-16497984D01*
X8315420Y-16497984D02*
X8439229Y-16497984D01*
X8563039Y-16297984D02*
X8582086Y-16297984D01*
X8582086Y-16297984D02*
X8601134Y-16307508D01*
X8601134Y-16307508D02*
X8610658Y-16317031D01*
X8610658Y-16317031D02*
X8620182Y-16336079D01*
X8620182Y-16336079D02*
X8629705Y-16374174D01*
X8629705Y-16374174D02*
X8629705Y-16421793D01*
X8629705Y-16421793D02*
X8620182Y-16459888D01*
X8620182Y-16459888D02*
X8610658Y-16478936D01*
X8610658Y-16478936D02*
X8601134Y-16488460D01*
X8601134Y-16488460D02*
X8582086Y-16497984D01*
X8582086Y-16497984D02*
X8563039Y-16497984D01*
X8563039Y-16497984D02*
X8543991Y-16488460D01*
X8543991Y-16488460D02*
X8534467Y-16478936D01*
X8534467Y-16478936D02*
X8524944Y-16459888D01*
X8524944Y-16459888D02*
X8515420Y-16421793D01*
X8515420Y-16421793D02*
X8515420Y-16374174D01*
X8515420Y-16374174D02*
X8524944Y-16336079D01*
X8524944Y-16336079D02*
X8534467Y-16317031D01*
X8534467Y-16317031D02*
X8543991Y-16307508D01*
X8543991Y-16307508D02*
X8563039Y-16297984D01*
X8715420Y-16497984D02*
X8715420Y-16364650D01*
X8715420Y-16383698D02*
X8724944Y-16374174D01*
X8724944Y-16374174D02*
X8743991Y-16364650D01*
X8743991Y-16364650D02*
X8772563Y-16364650D01*
X8772563Y-16364650D02*
X8791610Y-16374174D01*
X8791610Y-16374174D02*
X8801134Y-16393222D01*
X8801134Y-16393222D02*
X8801134Y-16497984D01*
X8801134Y-16393222D02*
X8810658Y-16374174D01*
X8810658Y-16374174D02*
X8829705Y-16364650D01*
X8829705Y-16364650D02*
X8858277Y-16364650D01*
X8858277Y-16364650D02*
X8877325Y-16374174D01*
X8877325Y-16374174D02*
X8886848Y-16393222D01*
X8886848Y-16393222D02*
X8886848Y-16497984D01*
X8982086Y-16497984D02*
X8982086Y-16364650D01*
X8982086Y-16383698D02*
X8991610Y-16374174D01*
X8991610Y-16374174D02*
X9010658Y-16364650D01*
X9010658Y-16364650D02*
X9039229Y-16364650D01*
X9039229Y-16364650D02*
X9058277Y-16374174D01*
X9058277Y-16374174D02*
X9067801Y-16393222D01*
X9067801Y-16393222D02*
X9067801Y-16497984D01*
X9067801Y-16393222D02*
X9077325Y-16374174D01*
X9077325Y-16374174D02*
X9096372Y-16364650D01*
X9096372Y-16364650D02*
X9124944Y-16364650D01*
X9124944Y-16364650D02*
X9143991Y-16374174D01*
X9143991Y-16374174D02*
X9153515Y-16393222D01*
X9153515Y-16393222D02*
X9153515Y-16497984D01*
X9543991Y-16288460D02*
X9372563Y-16545603D01*
X9801134Y-16297984D02*
X9820182Y-16297984D01*
X9820182Y-16297984D02*
X9839229Y-16307508D01*
X9839229Y-16307508D02*
X9848753Y-16317031D01*
X9848753Y-16317031D02*
X9858277Y-16336079D01*
X9858277Y-16336079D02*
X9867801Y-16374174D01*
X9867801Y-16374174D02*
X9867801Y-16421793D01*
X9867801Y-16421793D02*
X9858277Y-16459888D01*
X9858277Y-16459888D02*
X9848753Y-16478936D01*
X9848753Y-16478936D02*
X9839229Y-16488460D01*
X9839229Y-16488460D02*
X9820182Y-16497984D01*
X9820182Y-16497984D02*
X9801134Y-16497984D01*
X9801134Y-16497984D02*
X9782087Y-16488460D01*
X9782087Y-16488460D02*
X9772563Y-16478936D01*
X9772563Y-16478936D02*
X9763039Y-16459888D01*
X9763039Y-16459888D02*
X9753515Y-16421793D01*
X9753515Y-16421793D02*
X9753515Y-16374174D01*
X9753515Y-16374174D02*
X9763039Y-16336079D01*
X9763039Y-16336079D02*
X9772563Y-16317031D01*
X9772563Y-16317031D02*
X9782087Y-16307508D01*
X9782087Y-16307508D02*
X9801134Y-16297984D01*
X9953515Y-16478936D02*
X9963039Y-16488460D01*
X9963039Y-16488460D02*
X9953515Y-16497984D01*
X9953515Y-16497984D02*
X9943991Y-16488460D01*
X9943991Y-16488460D02*
X9953515Y-16478936D01*
X9953515Y-16478936D02*
X9953515Y-16497984D01*
X10086848Y-16297984D02*
X10105896Y-16297984D01*
X10105896Y-16297984D02*
X10124944Y-16307508D01*
X10124944Y-16307508D02*
X10134468Y-16317031D01*
X10134468Y-16317031D02*
X10143991Y-16336079D01*
X10143991Y-16336079D02*
X10153515Y-16374174D01*
X10153515Y-16374174D02*
X10153515Y-16421793D01*
X10153515Y-16421793D02*
X10143991Y-16459888D01*
X10143991Y-16459888D02*
X10134468Y-16478936D01*
X10134468Y-16478936D02*
X10124944Y-16488460D01*
X10124944Y-16488460D02*
X10105896Y-16497984D01*
X10105896Y-16497984D02*
X10086848Y-16497984D01*
X10086848Y-16497984D02*
X10067801Y-16488460D01*
X10067801Y-16488460D02*
X10058277Y-16478936D01*
X10058277Y-16478936D02*
X10048753Y-16459888D01*
X10048753Y-16459888D02*
X10039229Y-16421793D01*
X10039229Y-16421793D02*
X10039229Y-16374174D01*
X10039229Y-16374174D02*
X10048753Y-16336079D01*
X10048753Y-16336079D02*
X10058277Y-16317031D01*
X10058277Y-16317031D02*
X10067801Y-16307508D01*
X10067801Y-16307508D02*
X10086848Y-16297984D01*
X10324944Y-16364650D02*
X10324944Y-16497984D01*
X10277325Y-16288460D02*
X10229706Y-16431317D01*
X10229706Y-16431317D02*
X10353515Y-16431317D01*
X10467801Y-16297984D02*
X10486849Y-16297984D01*
X10486849Y-16297984D02*
X10505896Y-16307508D01*
X10505896Y-16307508D02*
X10515420Y-16317031D01*
X10515420Y-16317031D02*
X10524944Y-16336079D01*
X10524944Y-16336079D02*
X10534468Y-16374174D01*
X10534468Y-16374174D02*
X10534468Y-16421793D01*
X10534468Y-16421793D02*
X10524944Y-16459888D01*
X10524944Y-16459888D02*
X10515420Y-16478936D01*
X10515420Y-16478936D02*
X10505896Y-16488460D01*
X10505896Y-16488460D02*
X10486849Y-16497984D01*
X10486849Y-16497984D02*
X10467801Y-16497984D01*
X10467801Y-16497984D02*
X10448753Y-16488460D01*
X10448753Y-16488460D02*
X10439229Y-16478936D01*
X10439229Y-16478936D02*
X10429706Y-16459888D01*
X10429706Y-16459888D02*
X10420182Y-16421793D01*
X10420182Y-16421793D02*
X10420182Y-16374174D01*
X10420182Y-16374174D02*
X10429706Y-16336079D01*
X10429706Y-16336079D02*
X10439229Y-16317031D01*
X10439229Y-16317031D02*
X10448753Y-16307508D01*
X10448753Y-16307508D02*
X10467801Y-16297984D01*
X10610658Y-16317031D02*
X10620182Y-16307508D01*
X10620182Y-16307508D02*
X10639229Y-16297984D01*
X10639229Y-16297984D02*
X10686849Y-16297984D01*
X10686849Y-16297984D02*
X10705896Y-16307508D01*
X10705896Y-16307508D02*
X10715420Y-16317031D01*
X10715420Y-16317031D02*
X10724944Y-16336079D01*
X10724944Y-16336079D02*
X10724944Y-16355127D01*
X10724944Y-16355127D02*
X10715420Y-16383698D01*
X10715420Y-16383698D02*
X10601134Y-16497984D01*
X10601134Y-16497984D02*
X10724944Y-16497984D01*
X10801134Y-16297984D02*
X10801134Y-16336079D01*
X10877325Y-16297984D02*
X10877325Y-16336079D01*
X11172563Y-16574174D02*
X11163039Y-16564650D01*
X11163039Y-16564650D02*
X11143991Y-16536079D01*
X11143991Y-16536079D02*
X11134468Y-16517031D01*
X11134468Y-16517031D02*
X11124944Y-16488460D01*
X11124944Y-16488460D02*
X11115420Y-16440841D01*
X11115420Y-16440841D02*
X11115420Y-16402746D01*
X11115420Y-16402746D02*
X11124944Y-16355127D01*
X11124944Y-16355127D02*
X11134468Y-16326555D01*
X11134468Y-16326555D02*
X11143991Y-16307508D01*
X11143991Y-16307508D02*
X11163039Y-16278936D01*
X11163039Y-16278936D02*
X11172563Y-16269412D01*
X11334468Y-16364650D02*
X11334468Y-16497984D01*
X11286848Y-16288460D02*
X11239229Y-16431317D01*
X11239229Y-16431317D02*
X11363039Y-16431317D01*
X11420182Y-16297984D02*
X11543991Y-16297984D01*
X11543991Y-16297984D02*
X11477325Y-16374174D01*
X11477325Y-16374174D02*
X11505896Y-16374174D01*
X11505896Y-16374174D02*
X11524944Y-16383698D01*
X11524944Y-16383698D02*
X11534468Y-16393222D01*
X11534468Y-16393222D02*
X11543991Y-16412269D01*
X11543991Y-16412269D02*
X11543991Y-16459888D01*
X11543991Y-16459888D02*
X11534468Y-16478936D01*
X11534468Y-16478936D02*
X11524944Y-16488460D01*
X11524944Y-16488460D02*
X11505896Y-16497984D01*
X11505896Y-16497984D02*
X11448753Y-16497984D01*
X11448753Y-16497984D02*
X11429706Y-16488460D01*
X11429706Y-16488460D02*
X11420182Y-16478936D01*
X11782087Y-16497984D02*
X11782087Y-16297984D01*
X11867801Y-16497984D02*
X11867801Y-16393222D01*
X11867801Y-16393222D02*
X11858277Y-16374174D01*
X11858277Y-16374174D02*
X11839230Y-16364650D01*
X11839230Y-16364650D02*
X11810658Y-16364650D01*
X11810658Y-16364650D02*
X11791610Y-16374174D01*
X11791610Y-16374174D02*
X11782087Y-16383698D01*
X11991610Y-16497984D02*
X11972563Y-16488460D01*
X11972563Y-16488460D02*
X11963039Y-16478936D01*
X11963039Y-16478936D02*
X11953515Y-16459888D01*
X11953515Y-16459888D02*
X11953515Y-16402746D01*
X11953515Y-16402746D02*
X11963039Y-16383698D01*
X11963039Y-16383698D02*
X11972563Y-16374174D01*
X11972563Y-16374174D02*
X11991610Y-16364650D01*
X11991610Y-16364650D02*
X12020182Y-16364650D01*
X12020182Y-16364650D02*
X12039230Y-16374174D01*
X12039230Y-16374174D02*
X12048753Y-16383698D01*
X12048753Y-16383698D02*
X12058277Y-16402746D01*
X12058277Y-16402746D02*
X12058277Y-16459888D01*
X12058277Y-16459888D02*
X12048753Y-16478936D01*
X12048753Y-16478936D02*
X12039230Y-16488460D01*
X12039230Y-16488460D02*
X12020182Y-16497984D01*
X12020182Y-16497984D02*
X11991610Y-16497984D01*
X12172563Y-16497984D02*
X12153515Y-16488460D01*
X12153515Y-16488460D02*
X12143991Y-16469412D01*
X12143991Y-16469412D02*
X12143991Y-16297984D01*
X12324944Y-16488460D02*
X12305896Y-16497984D01*
X12305896Y-16497984D02*
X12267801Y-16497984D01*
X12267801Y-16497984D02*
X12248753Y-16488460D01*
X12248753Y-16488460D02*
X12239230Y-16469412D01*
X12239230Y-16469412D02*
X12239230Y-16393222D01*
X12239230Y-16393222D02*
X12248753Y-16374174D01*
X12248753Y-16374174D02*
X12267801Y-16364650D01*
X12267801Y-16364650D02*
X12305896Y-16364650D01*
X12305896Y-16364650D02*
X12324944Y-16374174D01*
X12324944Y-16374174D02*
X12334468Y-16393222D01*
X12334468Y-16393222D02*
X12334468Y-16412269D01*
X12334468Y-16412269D02*
X12239230Y-16431317D01*
X12410658Y-16488460D02*
X12429706Y-16497984D01*
X12429706Y-16497984D02*
X12467801Y-16497984D01*
X12467801Y-16497984D02*
X12486849Y-16488460D01*
X12486849Y-16488460D02*
X12496372Y-16469412D01*
X12496372Y-16469412D02*
X12496372Y-16459888D01*
X12496372Y-16459888D02*
X12486849Y-16440841D01*
X12486849Y-16440841D02*
X12467801Y-16431317D01*
X12467801Y-16431317D02*
X12439230Y-16431317D01*
X12439230Y-16431317D02*
X12420182Y-16421793D01*
X12420182Y-16421793D02*
X12410658Y-16402746D01*
X12410658Y-16402746D02*
X12410658Y-16393222D01*
X12410658Y-16393222D02*
X12420182Y-16374174D01*
X12420182Y-16374174D02*
X12439230Y-16364650D01*
X12439230Y-16364650D02*
X12467801Y-16364650D01*
X12467801Y-16364650D02*
X12486849Y-16374174D01*
X12563039Y-16574174D02*
X12572563Y-16564650D01*
X12572563Y-16564650D02*
X12591611Y-16536079D01*
X12591611Y-16536079D02*
X12601134Y-16517031D01*
X12601134Y-16517031D02*
X12610658Y-16488460D01*
X12610658Y-16488460D02*
X12620182Y-16440841D01*
X12620182Y-16440841D02*
X12620182Y-16402746D01*
X12620182Y-16402746D02*
X12610658Y-16355127D01*
X12610658Y-16355127D02*
X12601134Y-16326555D01*
X12601134Y-16326555D02*
X12591611Y-16307508D01*
X12591611Y-16307508D02*
X12572563Y-16278936D01*
X12572563Y-16278936D02*
X12563039Y-16269412D01*
D14*
X7532500Y-16605500D02*
X7532500Y-16735500D01*
X7467500Y-16670500D02*
X7597500Y-16670500D01*
D11*
X7963039Y-16761984D02*
X7848753Y-16761984D01*
X7905896Y-16761984D02*
X7905896Y-16561984D01*
X7905896Y-16561984D02*
X7886848Y-16590555D01*
X7886848Y-16590555D02*
X7867801Y-16609603D01*
X7867801Y-16609603D02*
X7848753Y-16619127D01*
X8048753Y-16742936D02*
X8058277Y-16752460D01*
X8058277Y-16752460D02*
X8048753Y-16761984D01*
X8048753Y-16761984D02*
X8039229Y-16752460D01*
X8039229Y-16752460D02*
X8048753Y-16742936D01*
X8048753Y-16742936D02*
X8048753Y-16761984D01*
X8124943Y-16561984D02*
X8248753Y-16561984D01*
X8248753Y-16561984D02*
X8182086Y-16638174D01*
X8182086Y-16638174D02*
X8210658Y-16638174D01*
X8210658Y-16638174D02*
X8229705Y-16647698D01*
X8229705Y-16647698D02*
X8239229Y-16657222D01*
X8239229Y-16657222D02*
X8248753Y-16676269D01*
X8248753Y-16676269D02*
X8248753Y-16723888D01*
X8248753Y-16723888D02*
X8239229Y-16742936D01*
X8239229Y-16742936D02*
X8229705Y-16752460D01*
X8229705Y-16752460D02*
X8210658Y-16761984D01*
X8210658Y-16761984D02*
X8153515Y-16761984D01*
X8153515Y-16761984D02*
X8134467Y-16752460D01*
X8134467Y-16752460D02*
X8124943Y-16742936D01*
X8372562Y-16561984D02*
X8391610Y-16561984D01*
X8391610Y-16561984D02*
X8410658Y-16571508D01*
X8410658Y-16571508D02*
X8420182Y-16581031D01*
X8420182Y-16581031D02*
X8429705Y-16600079D01*
X8429705Y-16600079D02*
X8439229Y-16638174D01*
X8439229Y-16638174D02*
X8439229Y-16685793D01*
X8439229Y-16685793D02*
X8429705Y-16723888D01*
X8429705Y-16723888D02*
X8420182Y-16742936D01*
X8420182Y-16742936D02*
X8410658Y-16752460D01*
X8410658Y-16752460D02*
X8391610Y-16761984D01*
X8391610Y-16761984D02*
X8372562Y-16761984D01*
X8372562Y-16761984D02*
X8353515Y-16752460D01*
X8353515Y-16752460D02*
X8343991Y-16742936D01*
X8343991Y-16742936D02*
X8334467Y-16723888D01*
X8334467Y-16723888D02*
X8324943Y-16685793D01*
X8324943Y-16685793D02*
X8324943Y-16638174D01*
X8324943Y-16638174D02*
X8334467Y-16600079D01*
X8334467Y-16600079D02*
X8343991Y-16581031D01*
X8343991Y-16581031D02*
X8353515Y-16571508D01*
X8353515Y-16571508D02*
X8372562Y-16561984D01*
X8563039Y-16561984D02*
X8582086Y-16561984D01*
X8582086Y-16561984D02*
X8601134Y-16571508D01*
X8601134Y-16571508D02*
X8610658Y-16581031D01*
X8610658Y-16581031D02*
X8620182Y-16600079D01*
X8620182Y-16600079D02*
X8629705Y-16638174D01*
X8629705Y-16638174D02*
X8629705Y-16685793D01*
X8629705Y-16685793D02*
X8620182Y-16723888D01*
X8620182Y-16723888D02*
X8610658Y-16742936D01*
X8610658Y-16742936D02*
X8601134Y-16752460D01*
X8601134Y-16752460D02*
X8582086Y-16761984D01*
X8582086Y-16761984D02*
X8563039Y-16761984D01*
X8563039Y-16761984D02*
X8543991Y-16752460D01*
X8543991Y-16752460D02*
X8534467Y-16742936D01*
X8534467Y-16742936D02*
X8524944Y-16723888D01*
X8524944Y-16723888D02*
X8515420Y-16685793D01*
X8515420Y-16685793D02*
X8515420Y-16638174D01*
X8515420Y-16638174D02*
X8524944Y-16600079D01*
X8524944Y-16600079D02*
X8534467Y-16581031D01*
X8534467Y-16581031D02*
X8543991Y-16571508D01*
X8543991Y-16571508D02*
X8563039Y-16561984D01*
X8715420Y-16761984D02*
X8715420Y-16628650D01*
X8715420Y-16647698D02*
X8724944Y-16638174D01*
X8724944Y-16638174D02*
X8743991Y-16628650D01*
X8743991Y-16628650D02*
X8772563Y-16628650D01*
X8772563Y-16628650D02*
X8791610Y-16638174D01*
X8791610Y-16638174D02*
X8801134Y-16657222D01*
X8801134Y-16657222D02*
X8801134Y-16761984D01*
X8801134Y-16657222D02*
X8810658Y-16638174D01*
X8810658Y-16638174D02*
X8829705Y-16628650D01*
X8829705Y-16628650D02*
X8858277Y-16628650D01*
X8858277Y-16628650D02*
X8877325Y-16638174D01*
X8877325Y-16638174D02*
X8886848Y-16657222D01*
X8886848Y-16657222D02*
X8886848Y-16761984D01*
X8982086Y-16761984D02*
X8982086Y-16628650D01*
X8982086Y-16647698D02*
X8991610Y-16638174D01*
X8991610Y-16638174D02*
X9010658Y-16628650D01*
X9010658Y-16628650D02*
X9039229Y-16628650D01*
X9039229Y-16628650D02*
X9058277Y-16638174D01*
X9058277Y-16638174D02*
X9067801Y-16657222D01*
X9067801Y-16657222D02*
X9067801Y-16761984D01*
X9067801Y-16657222D02*
X9077325Y-16638174D01*
X9077325Y-16638174D02*
X9096372Y-16628650D01*
X9096372Y-16628650D02*
X9124944Y-16628650D01*
X9124944Y-16628650D02*
X9143991Y-16638174D01*
X9143991Y-16638174D02*
X9153515Y-16657222D01*
X9153515Y-16657222D02*
X9153515Y-16761984D01*
X9543991Y-16552460D02*
X9372563Y-16809603D01*
X9801134Y-16561984D02*
X9820182Y-16561984D01*
X9820182Y-16561984D02*
X9839229Y-16571508D01*
X9839229Y-16571508D02*
X9848753Y-16581031D01*
X9848753Y-16581031D02*
X9858277Y-16600079D01*
X9858277Y-16600079D02*
X9867801Y-16638174D01*
X9867801Y-16638174D02*
X9867801Y-16685793D01*
X9867801Y-16685793D02*
X9858277Y-16723888D01*
X9858277Y-16723888D02*
X9848753Y-16742936D01*
X9848753Y-16742936D02*
X9839229Y-16752460D01*
X9839229Y-16752460D02*
X9820182Y-16761984D01*
X9820182Y-16761984D02*
X9801134Y-16761984D01*
X9801134Y-16761984D02*
X9782087Y-16752460D01*
X9782087Y-16752460D02*
X9772563Y-16742936D01*
X9772563Y-16742936D02*
X9763039Y-16723888D01*
X9763039Y-16723888D02*
X9753515Y-16685793D01*
X9753515Y-16685793D02*
X9753515Y-16638174D01*
X9753515Y-16638174D02*
X9763039Y-16600079D01*
X9763039Y-16600079D02*
X9772563Y-16581031D01*
X9772563Y-16581031D02*
X9782087Y-16571508D01*
X9782087Y-16571508D02*
X9801134Y-16561984D01*
X9953515Y-16742936D02*
X9963039Y-16752460D01*
X9963039Y-16752460D02*
X9953515Y-16761984D01*
X9953515Y-16761984D02*
X9943991Y-16752460D01*
X9943991Y-16752460D02*
X9953515Y-16742936D01*
X9953515Y-16742936D02*
X9953515Y-16761984D01*
X10086848Y-16561984D02*
X10105896Y-16561984D01*
X10105896Y-16561984D02*
X10124944Y-16571508D01*
X10124944Y-16571508D02*
X10134468Y-16581031D01*
X10134468Y-16581031D02*
X10143991Y-16600079D01*
X10143991Y-16600079D02*
X10153515Y-16638174D01*
X10153515Y-16638174D02*
X10153515Y-16685793D01*
X10153515Y-16685793D02*
X10143991Y-16723888D01*
X10143991Y-16723888D02*
X10134468Y-16742936D01*
X10134468Y-16742936D02*
X10124944Y-16752460D01*
X10124944Y-16752460D02*
X10105896Y-16761984D01*
X10105896Y-16761984D02*
X10086848Y-16761984D01*
X10086848Y-16761984D02*
X10067801Y-16752460D01*
X10067801Y-16752460D02*
X10058277Y-16742936D01*
X10058277Y-16742936D02*
X10048753Y-16723888D01*
X10048753Y-16723888D02*
X10039229Y-16685793D01*
X10039229Y-16685793D02*
X10039229Y-16638174D01*
X10039229Y-16638174D02*
X10048753Y-16600079D01*
X10048753Y-16600079D02*
X10058277Y-16581031D01*
X10058277Y-16581031D02*
X10067801Y-16571508D01*
X10067801Y-16571508D02*
X10086848Y-16561984D01*
X10334468Y-16561984D02*
X10239229Y-16561984D01*
X10239229Y-16561984D02*
X10229706Y-16657222D01*
X10229706Y-16657222D02*
X10239229Y-16647698D01*
X10239229Y-16647698D02*
X10258277Y-16638174D01*
X10258277Y-16638174D02*
X10305896Y-16638174D01*
X10305896Y-16638174D02*
X10324944Y-16647698D01*
X10324944Y-16647698D02*
X10334468Y-16657222D01*
X10334468Y-16657222D02*
X10343991Y-16676269D01*
X10343991Y-16676269D02*
X10343991Y-16723888D01*
X10343991Y-16723888D02*
X10334468Y-16742936D01*
X10334468Y-16742936D02*
X10324944Y-16752460D01*
X10324944Y-16752460D02*
X10305896Y-16761984D01*
X10305896Y-16761984D02*
X10258277Y-16761984D01*
X10258277Y-16761984D02*
X10239229Y-16752460D01*
X10239229Y-16752460D02*
X10229706Y-16742936D01*
X10534468Y-16761984D02*
X10420182Y-16761984D01*
X10477325Y-16761984D02*
X10477325Y-16561984D01*
X10477325Y-16561984D02*
X10458277Y-16590555D01*
X10458277Y-16590555D02*
X10439229Y-16609603D01*
X10439229Y-16609603D02*
X10420182Y-16619127D01*
X10610658Y-16581031D02*
X10620182Y-16571508D01*
X10620182Y-16571508D02*
X10639229Y-16561984D01*
X10639229Y-16561984D02*
X10686849Y-16561984D01*
X10686849Y-16561984D02*
X10705896Y-16571508D01*
X10705896Y-16571508D02*
X10715420Y-16581031D01*
X10715420Y-16581031D02*
X10724944Y-16600079D01*
X10724944Y-16600079D02*
X10724944Y-16619127D01*
X10724944Y-16619127D02*
X10715420Y-16647698D01*
X10715420Y-16647698D02*
X10601134Y-16761984D01*
X10601134Y-16761984D02*
X10724944Y-16761984D01*
X10801134Y-16561984D02*
X10801134Y-16600079D01*
X10877325Y-16561984D02*
X10877325Y-16600079D01*
X11172563Y-16838174D02*
X11163039Y-16828650D01*
X11163039Y-16828650D02*
X11143991Y-16800079D01*
X11143991Y-16800079D02*
X11134468Y-16781031D01*
X11134468Y-16781031D02*
X11124944Y-16752460D01*
X11124944Y-16752460D02*
X11115420Y-16704841D01*
X11115420Y-16704841D02*
X11115420Y-16666746D01*
X11115420Y-16666746D02*
X11124944Y-16619127D01*
X11124944Y-16619127D02*
X11134468Y-16590555D01*
X11134468Y-16590555D02*
X11143991Y-16571508D01*
X11143991Y-16571508D02*
X11163039Y-16542936D01*
X11163039Y-16542936D02*
X11172563Y-16533412D01*
X11239229Y-16581031D02*
X11248753Y-16571508D01*
X11248753Y-16571508D02*
X11267801Y-16561984D01*
X11267801Y-16561984D02*
X11315420Y-16561984D01*
X11315420Y-16561984D02*
X11334468Y-16571508D01*
X11334468Y-16571508D02*
X11343991Y-16581031D01*
X11343991Y-16581031D02*
X11353515Y-16600079D01*
X11353515Y-16600079D02*
X11353515Y-16619127D01*
X11353515Y-16619127D02*
X11343991Y-16647698D01*
X11343991Y-16647698D02*
X11229706Y-16761984D01*
X11229706Y-16761984D02*
X11353515Y-16761984D01*
X11591610Y-16761984D02*
X11591610Y-16561984D01*
X11677325Y-16761984D02*
X11677325Y-16657222D01*
X11677325Y-16657222D02*
X11667801Y-16638174D01*
X11667801Y-16638174D02*
X11648753Y-16628650D01*
X11648753Y-16628650D02*
X11620182Y-16628650D01*
X11620182Y-16628650D02*
X11601134Y-16638174D01*
X11601134Y-16638174D02*
X11591610Y-16647698D01*
X11801134Y-16761984D02*
X11782087Y-16752460D01*
X11782087Y-16752460D02*
X11772563Y-16742936D01*
X11772563Y-16742936D02*
X11763039Y-16723888D01*
X11763039Y-16723888D02*
X11763039Y-16666746D01*
X11763039Y-16666746D02*
X11772563Y-16647698D01*
X11772563Y-16647698D02*
X11782087Y-16638174D01*
X11782087Y-16638174D02*
X11801134Y-16628650D01*
X11801134Y-16628650D02*
X11829706Y-16628650D01*
X11829706Y-16628650D02*
X11848753Y-16638174D01*
X11848753Y-16638174D02*
X11858277Y-16647698D01*
X11858277Y-16647698D02*
X11867801Y-16666746D01*
X11867801Y-16666746D02*
X11867801Y-16723888D01*
X11867801Y-16723888D02*
X11858277Y-16742936D01*
X11858277Y-16742936D02*
X11848753Y-16752460D01*
X11848753Y-16752460D02*
X11829706Y-16761984D01*
X11829706Y-16761984D02*
X11801134Y-16761984D01*
X11982087Y-16761984D02*
X11963039Y-16752460D01*
X11963039Y-16752460D02*
X11953515Y-16733412D01*
X11953515Y-16733412D02*
X11953515Y-16561984D01*
X12134468Y-16752460D02*
X12115420Y-16761984D01*
X12115420Y-16761984D02*
X12077325Y-16761984D01*
X12077325Y-16761984D02*
X12058277Y-16752460D01*
X12058277Y-16752460D02*
X12048753Y-16733412D01*
X12048753Y-16733412D02*
X12048753Y-16657222D01*
X12048753Y-16657222D02*
X12058277Y-16638174D01*
X12058277Y-16638174D02*
X12077325Y-16628650D01*
X12077325Y-16628650D02*
X12115420Y-16628650D01*
X12115420Y-16628650D02*
X12134468Y-16638174D01*
X12134468Y-16638174D02*
X12143991Y-16657222D01*
X12143991Y-16657222D02*
X12143991Y-16676269D01*
X12143991Y-16676269D02*
X12048753Y-16695317D01*
X12220182Y-16752460D02*
X12239230Y-16761984D01*
X12239230Y-16761984D02*
X12277325Y-16761984D01*
X12277325Y-16761984D02*
X12296372Y-16752460D01*
X12296372Y-16752460D02*
X12305896Y-16733412D01*
X12305896Y-16733412D02*
X12305896Y-16723888D01*
X12305896Y-16723888D02*
X12296372Y-16704841D01*
X12296372Y-16704841D02*
X12277325Y-16695317D01*
X12277325Y-16695317D02*
X12248753Y-16695317D01*
X12248753Y-16695317D02*
X12229706Y-16685793D01*
X12229706Y-16685793D02*
X12220182Y-16666746D01*
X12220182Y-16666746D02*
X12220182Y-16657222D01*
X12220182Y-16657222D02*
X12229706Y-16638174D01*
X12229706Y-16638174D02*
X12248753Y-16628650D01*
X12248753Y-16628650D02*
X12277325Y-16628650D01*
X12277325Y-16628650D02*
X12296372Y-16638174D01*
X12372563Y-16838174D02*
X12382087Y-16828650D01*
X12382087Y-16828650D02*
X12401134Y-16800079D01*
X12401134Y-16800079D02*
X12410658Y-16781031D01*
X12410658Y-16781031D02*
X12420182Y-16752460D01*
X12420182Y-16752460D02*
X12429706Y-16704841D01*
X12429706Y-16704841D02*
X12429706Y-16666746D01*
X12429706Y-16666746D02*
X12420182Y-16619127D01*
X12420182Y-16619127D02*
X12410658Y-16590555D01*
X12410658Y-16590555D02*
X12401134Y-16571508D01*
X12401134Y-16571508D02*
X12382087Y-16542936D01*
X12382087Y-16542936D02*
X12372563Y-16533412D01*
X7568211Y-17005211D02*
X7568211Y-16863789D01*
X7426789Y-16863789D01*
X7426789Y-17005211D01*
X7568211Y-17005211D01*
X7848753Y-16845031D02*
X7858277Y-16835508D01*
X7858277Y-16835508D02*
X7877324Y-16825984D01*
X7877324Y-16825984D02*
X7924943Y-16825984D01*
X7924943Y-16825984D02*
X7943991Y-16835508D01*
X7943991Y-16835508D02*
X7953515Y-16845031D01*
X7953515Y-16845031D02*
X7963039Y-16864079D01*
X7963039Y-16864079D02*
X7963039Y-16883127D01*
X7963039Y-16883127D02*
X7953515Y-16911698D01*
X7953515Y-16911698D02*
X7839229Y-17025984D01*
X7839229Y-17025984D02*
X7963039Y-17025984D01*
X8048753Y-17006936D02*
X8058277Y-17016460D01*
X8058277Y-17016460D02*
X8048753Y-17025984D01*
X8048753Y-17025984D02*
X8039229Y-17016460D01*
X8039229Y-17016460D02*
X8048753Y-17006936D01*
X8048753Y-17006936D02*
X8048753Y-17025984D01*
X8124943Y-16825984D02*
X8248753Y-16825984D01*
X8248753Y-16825984D02*
X8182086Y-16902174D01*
X8182086Y-16902174D02*
X8210658Y-16902174D01*
X8210658Y-16902174D02*
X8229705Y-16911698D01*
X8229705Y-16911698D02*
X8239229Y-16921222D01*
X8239229Y-16921222D02*
X8248753Y-16940270D01*
X8248753Y-16940270D02*
X8248753Y-16987889D01*
X8248753Y-16987889D02*
X8239229Y-17006936D01*
X8239229Y-17006936D02*
X8229705Y-17016460D01*
X8229705Y-17016460D02*
X8210658Y-17025984D01*
X8210658Y-17025984D02*
X8153515Y-17025984D01*
X8153515Y-17025984D02*
X8134467Y-17016460D01*
X8134467Y-17016460D02*
X8124943Y-17006936D01*
X8372562Y-16825984D02*
X8391610Y-16825984D01*
X8391610Y-16825984D02*
X8410658Y-16835508D01*
X8410658Y-16835508D02*
X8420182Y-16845031D01*
X8420182Y-16845031D02*
X8429705Y-16864079D01*
X8429705Y-16864079D02*
X8439229Y-16902174D01*
X8439229Y-16902174D02*
X8439229Y-16949793D01*
X8439229Y-16949793D02*
X8429705Y-16987889D01*
X8429705Y-16987889D02*
X8420182Y-17006936D01*
X8420182Y-17006936D02*
X8410658Y-17016460D01*
X8410658Y-17016460D02*
X8391610Y-17025984D01*
X8391610Y-17025984D02*
X8372562Y-17025984D01*
X8372562Y-17025984D02*
X8353515Y-17016460D01*
X8353515Y-17016460D02*
X8343991Y-17006936D01*
X8343991Y-17006936D02*
X8334467Y-16987889D01*
X8334467Y-16987889D02*
X8324943Y-16949793D01*
X8324943Y-16949793D02*
X8324943Y-16902174D01*
X8324943Y-16902174D02*
X8334467Y-16864079D01*
X8334467Y-16864079D02*
X8343991Y-16845031D01*
X8343991Y-16845031D02*
X8353515Y-16835508D01*
X8353515Y-16835508D02*
X8372562Y-16825984D01*
X8563039Y-16825984D02*
X8582086Y-16825984D01*
X8582086Y-16825984D02*
X8601134Y-16835508D01*
X8601134Y-16835508D02*
X8610658Y-16845031D01*
X8610658Y-16845031D02*
X8620182Y-16864079D01*
X8620182Y-16864079D02*
X8629705Y-16902174D01*
X8629705Y-16902174D02*
X8629705Y-16949793D01*
X8629705Y-16949793D02*
X8620182Y-16987889D01*
X8620182Y-16987889D02*
X8610658Y-17006936D01*
X8610658Y-17006936D02*
X8601134Y-17016460D01*
X8601134Y-17016460D02*
X8582086Y-17025984D01*
X8582086Y-17025984D02*
X8563039Y-17025984D01*
X8563039Y-17025984D02*
X8543991Y-17016460D01*
X8543991Y-17016460D02*
X8534467Y-17006936D01*
X8534467Y-17006936D02*
X8524944Y-16987889D01*
X8524944Y-16987889D02*
X8515420Y-16949793D01*
X8515420Y-16949793D02*
X8515420Y-16902174D01*
X8515420Y-16902174D02*
X8524944Y-16864079D01*
X8524944Y-16864079D02*
X8534467Y-16845031D01*
X8534467Y-16845031D02*
X8543991Y-16835508D01*
X8543991Y-16835508D02*
X8563039Y-16825984D01*
X8715420Y-17025984D02*
X8715420Y-16892650D01*
X8715420Y-16911698D02*
X8724944Y-16902174D01*
X8724944Y-16902174D02*
X8743991Y-16892650D01*
X8743991Y-16892650D02*
X8772563Y-16892650D01*
X8772563Y-16892650D02*
X8791610Y-16902174D01*
X8791610Y-16902174D02*
X8801134Y-16921222D01*
X8801134Y-16921222D02*
X8801134Y-17025984D01*
X8801134Y-16921222D02*
X8810658Y-16902174D01*
X8810658Y-16902174D02*
X8829705Y-16892650D01*
X8829705Y-16892650D02*
X8858277Y-16892650D01*
X8858277Y-16892650D02*
X8877325Y-16902174D01*
X8877325Y-16902174D02*
X8886848Y-16921222D01*
X8886848Y-16921222D02*
X8886848Y-17025984D01*
X8982086Y-17025984D02*
X8982086Y-16892650D01*
X8982086Y-16911698D02*
X8991610Y-16902174D01*
X8991610Y-16902174D02*
X9010658Y-16892650D01*
X9010658Y-16892650D02*
X9039229Y-16892650D01*
X9039229Y-16892650D02*
X9058277Y-16902174D01*
X9058277Y-16902174D02*
X9067801Y-16921222D01*
X9067801Y-16921222D02*
X9067801Y-17025984D01*
X9067801Y-16921222D02*
X9077325Y-16902174D01*
X9077325Y-16902174D02*
X9096372Y-16892650D01*
X9096372Y-16892650D02*
X9124944Y-16892650D01*
X9124944Y-16892650D02*
X9143991Y-16902174D01*
X9143991Y-16902174D02*
X9153515Y-16921222D01*
X9153515Y-16921222D02*
X9153515Y-17025984D01*
X9543991Y-16816460D02*
X9372563Y-17073603D01*
X9801134Y-16825984D02*
X9820182Y-16825984D01*
X9820182Y-16825984D02*
X9839229Y-16835508D01*
X9839229Y-16835508D02*
X9848753Y-16845031D01*
X9848753Y-16845031D02*
X9858277Y-16864079D01*
X9858277Y-16864079D02*
X9867801Y-16902174D01*
X9867801Y-16902174D02*
X9867801Y-16949793D01*
X9867801Y-16949793D02*
X9858277Y-16987889D01*
X9858277Y-16987889D02*
X9848753Y-17006936D01*
X9848753Y-17006936D02*
X9839229Y-17016460D01*
X9839229Y-17016460D02*
X9820182Y-17025984D01*
X9820182Y-17025984D02*
X9801134Y-17025984D01*
X9801134Y-17025984D02*
X9782087Y-17016460D01*
X9782087Y-17016460D02*
X9772563Y-17006936D01*
X9772563Y-17006936D02*
X9763039Y-16987889D01*
X9763039Y-16987889D02*
X9753515Y-16949793D01*
X9753515Y-16949793D02*
X9753515Y-16902174D01*
X9753515Y-16902174D02*
X9763039Y-16864079D01*
X9763039Y-16864079D02*
X9772563Y-16845031D01*
X9772563Y-16845031D02*
X9782087Y-16835508D01*
X9782087Y-16835508D02*
X9801134Y-16825984D01*
X9953515Y-17006936D02*
X9963039Y-17016460D01*
X9963039Y-17016460D02*
X9953515Y-17025984D01*
X9953515Y-17025984D02*
X9943991Y-17016460D01*
X9943991Y-17016460D02*
X9953515Y-17006936D01*
X9953515Y-17006936D02*
X9953515Y-17025984D01*
X10086848Y-16825984D02*
X10105896Y-16825984D01*
X10105896Y-16825984D02*
X10124944Y-16835508D01*
X10124944Y-16835508D02*
X10134468Y-16845031D01*
X10134468Y-16845031D02*
X10143991Y-16864079D01*
X10143991Y-16864079D02*
X10153515Y-16902174D01*
X10153515Y-16902174D02*
X10153515Y-16949793D01*
X10153515Y-16949793D02*
X10143991Y-16987889D01*
X10143991Y-16987889D02*
X10134468Y-17006936D01*
X10134468Y-17006936D02*
X10124944Y-17016460D01*
X10124944Y-17016460D02*
X10105896Y-17025984D01*
X10105896Y-17025984D02*
X10086848Y-17025984D01*
X10086848Y-17025984D02*
X10067801Y-17016460D01*
X10067801Y-17016460D02*
X10058277Y-17006936D01*
X10058277Y-17006936D02*
X10048753Y-16987889D01*
X10048753Y-16987889D02*
X10039229Y-16949793D01*
X10039229Y-16949793D02*
X10039229Y-16902174D01*
X10039229Y-16902174D02*
X10048753Y-16864079D01*
X10048753Y-16864079D02*
X10058277Y-16845031D01*
X10058277Y-16845031D02*
X10067801Y-16835508D01*
X10067801Y-16835508D02*
X10086848Y-16825984D01*
X10248753Y-17025984D02*
X10286848Y-17025984D01*
X10286848Y-17025984D02*
X10305896Y-17016460D01*
X10305896Y-17016460D02*
X10315420Y-17006936D01*
X10315420Y-17006936D02*
X10334468Y-16978365D01*
X10334468Y-16978365D02*
X10343991Y-16940270D01*
X10343991Y-16940270D02*
X10343991Y-16864079D01*
X10343991Y-16864079D02*
X10334468Y-16845031D01*
X10334468Y-16845031D02*
X10324944Y-16835508D01*
X10324944Y-16835508D02*
X10305896Y-16825984D01*
X10305896Y-16825984D02*
X10267801Y-16825984D01*
X10267801Y-16825984D02*
X10248753Y-16835508D01*
X10248753Y-16835508D02*
X10239229Y-16845031D01*
X10239229Y-16845031D02*
X10229706Y-16864079D01*
X10229706Y-16864079D02*
X10229706Y-16911698D01*
X10229706Y-16911698D02*
X10239229Y-16930746D01*
X10239229Y-16930746D02*
X10248753Y-16940270D01*
X10248753Y-16940270D02*
X10267801Y-16949793D01*
X10267801Y-16949793D02*
X10305896Y-16949793D01*
X10305896Y-16949793D02*
X10324944Y-16940270D01*
X10324944Y-16940270D02*
X10334468Y-16930746D01*
X10334468Y-16930746D02*
X10343991Y-16911698D01*
X10467801Y-16825984D02*
X10486849Y-16825984D01*
X10486849Y-16825984D02*
X10505896Y-16835508D01*
X10505896Y-16835508D02*
X10515420Y-16845031D01*
X10515420Y-16845031D02*
X10524944Y-16864079D01*
X10524944Y-16864079D02*
X10534468Y-16902174D01*
X10534468Y-16902174D02*
X10534468Y-16949793D01*
X10534468Y-16949793D02*
X10524944Y-16987889D01*
X10524944Y-16987889D02*
X10515420Y-17006936D01*
X10515420Y-17006936D02*
X10505896Y-17016460D01*
X10505896Y-17016460D02*
X10486849Y-17025984D01*
X10486849Y-17025984D02*
X10467801Y-17025984D01*
X10467801Y-17025984D02*
X10448753Y-17016460D01*
X10448753Y-17016460D02*
X10439229Y-17006936D01*
X10439229Y-17006936D02*
X10429706Y-16987889D01*
X10429706Y-16987889D02*
X10420182Y-16949793D01*
X10420182Y-16949793D02*
X10420182Y-16902174D01*
X10420182Y-16902174D02*
X10429706Y-16864079D01*
X10429706Y-16864079D02*
X10439229Y-16845031D01*
X10439229Y-16845031D02*
X10448753Y-16835508D01*
X10448753Y-16835508D02*
X10467801Y-16825984D01*
X10705896Y-16825984D02*
X10667801Y-16825984D01*
X10667801Y-16825984D02*
X10648753Y-16835508D01*
X10648753Y-16835508D02*
X10639229Y-16845031D01*
X10639229Y-16845031D02*
X10620182Y-16873603D01*
X10620182Y-16873603D02*
X10610658Y-16911698D01*
X10610658Y-16911698D02*
X10610658Y-16987889D01*
X10610658Y-16987889D02*
X10620182Y-17006936D01*
X10620182Y-17006936D02*
X10629706Y-17016460D01*
X10629706Y-17016460D02*
X10648753Y-17025984D01*
X10648753Y-17025984D02*
X10686849Y-17025984D01*
X10686849Y-17025984D02*
X10705896Y-17016460D01*
X10705896Y-17016460D02*
X10715420Y-17006936D01*
X10715420Y-17006936D02*
X10724944Y-16987889D01*
X10724944Y-16987889D02*
X10724944Y-16940270D01*
X10724944Y-16940270D02*
X10715420Y-16921222D01*
X10715420Y-16921222D02*
X10705896Y-16911698D01*
X10705896Y-16911698D02*
X10686849Y-16902174D01*
X10686849Y-16902174D02*
X10648753Y-16902174D01*
X10648753Y-16902174D02*
X10629706Y-16911698D01*
X10629706Y-16911698D02*
X10620182Y-16921222D01*
X10620182Y-16921222D02*
X10610658Y-16940270D01*
X10801134Y-16825984D02*
X10801134Y-16864079D01*
X10877325Y-16825984D02*
X10877325Y-16864079D01*
X11172563Y-17102174D02*
X11163039Y-17092650D01*
X11163039Y-17092650D02*
X11143991Y-17064079D01*
X11143991Y-17064079D02*
X11134468Y-17045031D01*
X11134468Y-17045031D02*
X11124944Y-17016460D01*
X11124944Y-17016460D02*
X11115420Y-16968841D01*
X11115420Y-16968841D02*
X11115420Y-16930746D01*
X11115420Y-16930746D02*
X11124944Y-16883127D01*
X11124944Y-16883127D02*
X11134468Y-16854555D01*
X11134468Y-16854555D02*
X11143991Y-16835508D01*
X11143991Y-16835508D02*
X11163039Y-16806936D01*
X11163039Y-16806936D02*
X11172563Y-16797412D01*
X11334468Y-16892650D02*
X11334468Y-17025984D01*
X11286848Y-16816460D02*
X11239229Y-16959317D01*
X11239229Y-16959317D02*
X11363039Y-16959317D01*
X11591610Y-17025984D02*
X11591610Y-16825984D01*
X11677325Y-17025984D02*
X11677325Y-16921222D01*
X11677325Y-16921222D02*
X11667801Y-16902174D01*
X11667801Y-16902174D02*
X11648753Y-16892650D01*
X11648753Y-16892650D02*
X11620182Y-16892650D01*
X11620182Y-16892650D02*
X11601134Y-16902174D01*
X11601134Y-16902174D02*
X11591610Y-16911698D01*
X11801134Y-17025984D02*
X11782087Y-17016460D01*
X11782087Y-17016460D02*
X11772563Y-17006936D01*
X11772563Y-17006936D02*
X11763039Y-16987889D01*
X11763039Y-16987889D02*
X11763039Y-16930746D01*
X11763039Y-16930746D02*
X11772563Y-16911698D01*
X11772563Y-16911698D02*
X11782087Y-16902174D01*
X11782087Y-16902174D02*
X11801134Y-16892650D01*
X11801134Y-16892650D02*
X11829706Y-16892650D01*
X11829706Y-16892650D02*
X11848753Y-16902174D01*
X11848753Y-16902174D02*
X11858277Y-16911698D01*
X11858277Y-16911698D02*
X11867801Y-16930746D01*
X11867801Y-16930746D02*
X11867801Y-16987889D01*
X11867801Y-16987889D02*
X11858277Y-17006936D01*
X11858277Y-17006936D02*
X11848753Y-17016460D01*
X11848753Y-17016460D02*
X11829706Y-17025984D01*
X11829706Y-17025984D02*
X11801134Y-17025984D01*
X11982087Y-17025984D02*
X11963039Y-17016460D01*
X11963039Y-17016460D02*
X11953515Y-16997412D01*
X11953515Y-16997412D02*
X11953515Y-16825984D01*
X12134468Y-17016460D02*
X12115420Y-17025984D01*
X12115420Y-17025984D02*
X12077325Y-17025984D01*
X12077325Y-17025984D02*
X12058277Y-17016460D01*
X12058277Y-17016460D02*
X12048753Y-16997412D01*
X12048753Y-16997412D02*
X12048753Y-16921222D01*
X12048753Y-16921222D02*
X12058277Y-16902174D01*
X12058277Y-16902174D02*
X12077325Y-16892650D01*
X12077325Y-16892650D02*
X12115420Y-16892650D01*
X12115420Y-16892650D02*
X12134468Y-16902174D01*
X12134468Y-16902174D02*
X12143991Y-16921222D01*
X12143991Y-16921222D02*
X12143991Y-16940270D01*
X12143991Y-16940270D02*
X12048753Y-16959317D01*
X12220182Y-17016460D02*
X12239230Y-17025984D01*
X12239230Y-17025984D02*
X12277325Y-17025984D01*
X12277325Y-17025984D02*
X12296372Y-17016460D01*
X12296372Y-17016460D02*
X12305896Y-16997412D01*
X12305896Y-16997412D02*
X12305896Y-16987889D01*
X12305896Y-16987889D02*
X12296372Y-16968841D01*
X12296372Y-16968841D02*
X12277325Y-16959317D01*
X12277325Y-16959317D02*
X12248753Y-16959317D01*
X12248753Y-16959317D02*
X12229706Y-16949793D01*
X12229706Y-16949793D02*
X12220182Y-16930746D01*
X12220182Y-16930746D02*
X12220182Y-16921222D01*
X12220182Y-16921222D02*
X12229706Y-16902174D01*
X12229706Y-16902174D02*
X12248753Y-16892650D01*
X12248753Y-16892650D02*
X12277325Y-16892650D01*
X12277325Y-16892650D02*
X12296372Y-16902174D01*
X12372563Y-17102174D02*
X12382087Y-17092650D01*
X12382087Y-17092650D02*
X12401134Y-17064079D01*
X12401134Y-17064079D02*
X12410658Y-17045031D01*
X12410658Y-17045031D02*
X12420182Y-17016460D01*
X12420182Y-17016460D02*
X12429706Y-16968841D01*
X12429706Y-16968841D02*
X12429706Y-16930746D01*
X12429706Y-16930746D02*
X12420182Y-16883127D01*
X12420182Y-16883127D02*
X12410658Y-16854555D01*
X12410658Y-16854555D02*
X12401134Y-16835508D01*
X12401134Y-16835508D02*
X12382087Y-16806936D01*
X12382087Y-16806936D02*
X12372563Y-16797412D01*
M02*
