%TF.GenerationSoftware,KiCad,Pcbnew,8.0.6*%
%TF.CreationDate,2024-12-18T16:53:39-05:00*%
%TF.ProjectId,hexapod,68657861-706f-4642-9e6b-696361645f70,rev?*%
%TF.SameCoordinates,Original*%
%TF.FileFunction,Copper,L2,Bot*%
%TF.FilePolarity,Positive*%
%FSLAX46Y46*%
G04 Gerber Fmt 4.6, Leading zero omitted, Abs format (unit mm)*
G04 Created by KiCad (PCBNEW 8.0.6) date 2024-12-18 16:53:39*
%MOMM*%
%LPD*%
G01*
G04 APERTURE LIST*
%TA.AperFunction,ComponentPad*%
%ADD10R,2.800000X2.800000*%
%TD*%
%TA.AperFunction,ComponentPad*%
%ADD11C,2.800000*%
%TD*%
%TA.AperFunction,ComponentPad*%
%ADD12R,1.700000X1.700000*%
%TD*%
%TA.AperFunction,ComponentPad*%
%ADD13O,1.700000X1.700000*%
%TD*%
%TA.AperFunction,ComponentPad*%
%ADD14R,2.000000X2.000000*%
%TD*%
%TA.AperFunction,ComponentPad*%
%ADD15O,2.000000X2.000000*%
%TD*%
%TA.AperFunction,ComponentPad*%
%ADD16C,1.700000*%
%TD*%
%TA.AperFunction,ViaPad*%
%ADD17C,3.500000*%
%TD*%
%TA.AperFunction,Conductor*%
%ADD18C,0.500000*%
%TD*%
%TA.AperFunction,Conductor*%
%ADD19C,1.000000*%
%TD*%
G04 APERTURE END LIST*
D10*
%TO.P,J19,1,Pin_1*%
%TO.N,/power*%
X98000000Y-50750000D03*
D11*
%TO.P,J19,2,Pin_2*%
%TO.N,GND*%
X103000000Y-50750000D03*
%TD*%
D12*
%TO.P,J16,1,Pin_1*%
%TO.N,/r3_j1*%
X116250000Y-117000000D03*
D13*
%TO.P,J16,2,Pin_2*%
%TO.N,/power_r3*%
X118790000Y-117000000D03*
%TO.P,J16,3,Pin_3*%
%TO.N,GND*%
X121330000Y-117000000D03*
%TD*%
D12*
%TO.P,J18,1,Pin_1*%
%TO.N,/r3_j3*%
X116250000Y-125000000D03*
D13*
%TO.P,J18,2,Pin_2*%
%TO.N,/power_r3*%
X118790000Y-125000000D03*
%TO.P,J18,3,Pin_3*%
%TO.N,GND*%
X121330000Y-125000000D03*
%TD*%
D14*
%TO.P,D1,1,K*%
%TO.N,Net-(D1-K)*%
X105000000Y-70500000D03*
D15*
%TO.P,D1,2,A*%
%TO.N,Net-(D1-A)*%
X94840000Y-70500000D03*
%TD*%
D12*
%TO.P,U4,1,+input*%
%TO.N,/power*%
X87500000Y-145850000D03*
D16*
%TO.P,U4,2,-input*%
%TO.N,GND*%
X78500000Y-145850000D03*
%TO.P,U4,3,+output*%
%TO.N,/power_l3*%
X87500000Y-130250000D03*
%TO.P,U4,4,-output*%
%TO.N,GND*%
X78500000Y-130250000D03*
%TD*%
D12*
%TO.P,U7,1,+input*%
%TO.N,/power*%
X121500000Y-145850000D03*
D16*
%TO.P,U7,2,-input*%
%TO.N,GND*%
X112500000Y-145850000D03*
%TO.P,U7,3,+output*%
%TO.N,/power_r3*%
X121500000Y-130250000D03*
%TO.P,U7,4,-output*%
%TO.N,GND*%
X112500000Y-130250000D03*
%TD*%
D12*
%TO.P,J10,1,Pin_1*%
%TO.N,/r1_j1*%
X116250000Y-75500000D03*
D13*
%TO.P,J10,2,Pin_2*%
%TO.N,/power_r1*%
X118790000Y-75500000D03*
%TO.P,J10,3,Pin_3*%
%TO.N,GND*%
X121330000Y-75500000D03*
%TD*%
D12*
%TO.P,J3,1,Pin_1*%
%TO.N,/l1_j3*%
X83750000Y-84000000D03*
D13*
%TO.P,J3,2,Pin_2*%
%TO.N,/power_l1*%
X81210000Y-84000000D03*
%TO.P,J3,3,Pin_3*%
%TO.N,GND*%
X78670000Y-84000000D03*
%TD*%
D12*
%TO.P,U5,1,+input*%
%TO.N,/power*%
X112500000Y-54900000D03*
D16*
%TO.P,U5,2,-input*%
%TO.N,GND*%
X121500000Y-54900000D03*
%TO.P,U5,3,+output*%
%TO.N,/power_r1*%
X112500000Y-70500000D03*
%TO.P,U5,4,-output*%
%TO.N,GND*%
X121500000Y-70500000D03*
%TD*%
D12*
%TO.P,J13,1,Pin_1*%
%TO.N,/r2_j1*%
X116250000Y-96000000D03*
D13*
%TO.P,J13,2,Pin_2*%
%TO.N,/power_r2*%
X118790000Y-96000000D03*
%TO.P,J13,3,Pin_3*%
%TO.N,GND*%
X121330000Y-96000000D03*
%TD*%
D12*
%TO.P,J1,1,Pin_1*%
%TO.N,/l1_j1*%
X83750000Y-76000000D03*
D13*
%TO.P,J1,2,Pin_2*%
%TO.N,/power_l1*%
X81210000Y-76000000D03*
%TO.P,J1,3,Pin_3*%
%TO.N,GND*%
X78670000Y-76000000D03*
%TD*%
D12*
%TO.P,U2,1,+input*%
%TO.N,/power*%
X78500000Y-54900000D03*
D16*
%TO.P,U2,2,-input*%
%TO.N,GND*%
X87500000Y-54900000D03*
%TO.P,U2,3,+output*%
%TO.N,/power_l1*%
X78500000Y-70500000D03*
%TO.P,U2,4,-output*%
%TO.N,GND*%
X87500000Y-70500000D03*
%TD*%
D12*
%TO.P,J11,1,Pin_1*%
%TO.N,/r1_j2*%
X116250000Y-79500000D03*
D13*
%TO.P,J11,2,Pin_2*%
%TO.N,/power_r1*%
X118790000Y-79500000D03*
%TO.P,J11,3,Pin_3*%
%TO.N,GND*%
X121330000Y-79500000D03*
%TD*%
D12*
%TO.P,U3,1,+input*%
%TO.N,/power*%
X107750000Y-130000000D03*
D16*
%TO.P,U3,2,-input*%
%TO.N,GND*%
X107750000Y-139000000D03*
%TO.P,U3,3,+output*%
%TO.N,/power_l2*%
X92150000Y-130000000D03*
%TO.P,U3,4,-output*%
%TO.N,GND*%
X92150000Y-139000000D03*
%TD*%
D12*
%TO.P,J4,1,Pin_1*%
%TO.N,/l2_j1*%
X83750000Y-96000000D03*
D13*
%TO.P,J4,2,Pin_2*%
%TO.N,/power_l2*%
X81210000Y-96000000D03*
%TO.P,J4,3,Pin_3*%
%TO.N,GND*%
X78670000Y-96000000D03*
%TD*%
D12*
%TO.P,U8,1,+input*%
%TO.N,/power*%
X107750000Y-57500000D03*
D16*
%TO.P,U8,2,-input*%
%TO.N,GND*%
X107750000Y-66500000D03*
%TO.P,U8,3,+output*%
%TO.N,Net-(D1-A)*%
X92150000Y-57500000D03*
%TO.P,U8,4,-output*%
%TO.N,GND*%
X92150000Y-66500000D03*
%TD*%
D12*
%TO.P,J6,1,Pin_1*%
%TO.N,/l2_j3*%
X83750000Y-104000000D03*
D13*
%TO.P,J6,2,Pin_2*%
%TO.N,/power_l2*%
X81210000Y-104000000D03*
%TO.P,J6,3,Pin_3*%
%TO.N,GND*%
X78670000Y-104000000D03*
%TD*%
D12*
%TO.P,U6,1,+input*%
%TO.N,/power*%
X92050000Y-151850000D03*
D16*
%TO.P,U6,2,-input*%
%TO.N,GND*%
X92050000Y-142850000D03*
%TO.P,U6,3,+output*%
%TO.N,/power_r2*%
X107650000Y-151850000D03*
%TO.P,U6,4,-output*%
%TO.N,GND*%
X107650000Y-142850000D03*
%TD*%
D12*
%TO.P,J9,1,Pin_1*%
%TO.N,/l3_j3*%
X83750000Y-125000000D03*
D13*
%TO.P,J9,2,Pin_2*%
%TO.N,/power_l3*%
X81210000Y-125000000D03*
%TO.P,J9,3,Pin_3*%
%TO.N,GND*%
X78670000Y-125000000D03*
%TD*%
D12*
%TO.P,J8,1,Pin_1*%
%TO.N,/l3_j2*%
X83750000Y-121000000D03*
D13*
%TO.P,J8,2,Pin_2*%
%TO.N,/power_l3*%
X81210000Y-121000000D03*
%TO.P,J8,3,Pin_3*%
%TO.N,GND*%
X78670000Y-121000000D03*
%TD*%
D12*
%TO.P,J2,1,Pin_1*%
%TO.N,/l1_j2*%
X83750000Y-80000000D03*
D13*
%TO.P,J2,2,Pin_2*%
%TO.N,/power_l1*%
X81210000Y-80000000D03*
%TO.P,J2,3,Pin_3*%
%TO.N,GND*%
X78670000Y-80000000D03*
%TD*%
%TO.P,U1,1,GPIO0*%
%TO.N,/l1_j1*%
X91110000Y-75870000D03*
%TO.P,U1,2,GPIO1*%
%TO.N,/l1_j2*%
X91110000Y-78410000D03*
D12*
%TO.P,U1,3,GND*%
%TO.N,GND*%
X91110000Y-80950000D03*
D13*
%TO.P,U1,4,GPIO2*%
%TO.N,/l1_j3*%
X91110000Y-83490000D03*
%TO.P,U1,5,GPIO3*%
%TO.N,unconnected-(U1-GPIO3-Pad5)*%
X91110000Y-86030000D03*
%TO.P,U1,6,GPIO4*%
%TO.N,unconnected-(U1-GPIO4-Pad6)*%
X91110000Y-88570000D03*
%TO.P,U1,7,GPIO5*%
%TO.N,unconnected-(U1-GPIO5-Pad7)*%
X91110000Y-91110000D03*
D12*
%TO.P,U1,8,GND*%
%TO.N,GND*%
X91110000Y-93650000D03*
D13*
%TO.P,U1,9,GPIO6*%
%TO.N,/l2_j1*%
X91110000Y-96190000D03*
%TO.P,U1,10,GPIO7*%
%TO.N,/l2_j2*%
X91110000Y-98730000D03*
%TO.P,U1,11,GPIO8*%
%TO.N,/l2_j3*%
X91110000Y-101270000D03*
%TO.P,U1,12,GPIO9*%
%TO.N,unconnected-(U1-GPIO9-Pad12)*%
X91110000Y-103810000D03*
D12*
%TO.P,U1,13,GND*%
%TO.N,GND*%
X91110000Y-106350000D03*
D13*
%TO.P,U1,14,GPIO10*%
%TO.N,unconnected-(U1-GPIO10-Pad14)*%
X91110000Y-108890000D03*
%TO.P,U1,15,GPIO11*%
%TO.N,unconnected-(U1-GPIO11-Pad15)*%
X91110000Y-111430000D03*
%TO.P,U1,16,GPIO12*%
%TO.N,unconnected-(U1-GPIO12-Pad16)*%
X91110000Y-113970000D03*
%TO.P,U1,17,GPIO13*%
%TO.N,/l3_j1*%
X91110000Y-116510000D03*
D12*
%TO.P,U1,18,GND*%
%TO.N,GND*%
X91110000Y-119050000D03*
D13*
%TO.P,U1,19,GPIO14*%
%TO.N,/l3_j2*%
X91110000Y-121590000D03*
%TO.P,U1,20,GPIO15*%
%TO.N,/l3_j3*%
X91110000Y-124130000D03*
%TO.P,U1,21,GPIO16*%
%TO.N,/r3_j3*%
X108890000Y-124130000D03*
%TO.P,U1,22,GPIO17*%
%TO.N,/r3_j2*%
X108890000Y-121590000D03*
D12*
%TO.P,U1,23,GND*%
%TO.N,GND*%
X108890000Y-119050000D03*
D13*
%TO.P,U1,24,GPIO18*%
%TO.N,/r3_j1*%
X108890000Y-116510000D03*
%TO.P,U1,25,GPIO19*%
%TO.N,/r2_j3*%
X108890000Y-113970000D03*
%TO.P,U1,26,GPIO20*%
%TO.N,/r2_j2*%
X108890000Y-111430000D03*
%TO.P,U1,27,GPIO21*%
%TO.N,/r2_j1*%
X108890000Y-108890000D03*
D12*
%TO.P,U1,28,GND*%
%TO.N,GND*%
X108890000Y-106350000D03*
D13*
%TO.P,U1,29,GPIO22*%
%TO.N,/r1_j3*%
X108890000Y-103810000D03*
%TO.P,U1,30,RUN*%
%TO.N,unconnected-(U1-RUN-Pad30)*%
X108890000Y-101270000D03*
%TO.P,U1,31,GPIO26_ADC0*%
%TO.N,/r1_j2*%
X108890000Y-98730000D03*
%TO.P,U1,32,GPIO27_ADC1*%
%TO.N,/r1_j1*%
X108890000Y-96190000D03*
D12*
%TO.P,U1,33,AGND*%
%TO.N,GND*%
X108890000Y-93650000D03*
D13*
%TO.P,U1,34,GPIO28_ADC2*%
%TO.N,unconnected-(U1-GPIO28_ADC2-Pad34)*%
X108890000Y-91110000D03*
%TO.P,U1,35,ADC_VREF*%
%TO.N,unconnected-(U1-ADC_VREF-Pad35)*%
X108890000Y-88570000D03*
%TO.P,U1,36,3V3*%
%TO.N,unconnected-(U1-3V3-Pad36)*%
X108890000Y-86030000D03*
%TO.P,U1,37,3V3_EN*%
%TO.N,unconnected-(U1-3V3_EN-Pad37)*%
X108890000Y-83490000D03*
D12*
%TO.P,U1,38,GND*%
%TO.N,GND*%
X108890000Y-80950000D03*
D13*
%TO.P,U1,39,VSYS*%
%TO.N,Net-(D1-K)*%
X108890000Y-78410000D03*
%TO.P,U1,40,VBUS*%
%TO.N,unconnected-(U1-VBUS-Pad40)*%
X108890000Y-75870000D03*
%TO.P,U1,41,SWCLK*%
%TO.N,unconnected-(U1-SWCLK-Pad41)*%
X97460000Y-123900000D03*
D12*
%TO.P,U1,42,GND*%
%TO.N,unconnected-(U1-GND-Pad42)*%
X100000000Y-123900000D03*
D13*
%TO.P,U1,43,SWDIO*%
%TO.N,unconnected-(U1-SWDIO-Pad43)*%
X102540000Y-123900000D03*
%TD*%
D12*
%TO.P,J5,1,Pin_1*%
%TO.N,/l2_j2*%
X83750000Y-100000000D03*
D13*
%TO.P,J5,2,Pin_2*%
%TO.N,/power_l2*%
X81210000Y-100000000D03*
%TO.P,J5,3,Pin_3*%
%TO.N,GND*%
X78670000Y-100000000D03*
%TD*%
D12*
%TO.P,J12,1,Pin_1*%
%TO.N,/r1_j3*%
X116250000Y-83500000D03*
D13*
%TO.P,J12,2,Pin_2*%
%TO.N,/power_r1*%
X118790000Y-83500000D03*
%TO.P,J12,3,Pin_3*%
%TO.N,GND*%
X121330000Y-83500000D03*
%TD*%
D12*
%TO.P,J15,1,Pin_1*%
%TO.N,/r2_j3*%
X116250000Y-104000000D03*
D13*
%TO.P,J15,2,Pin_2*%
%TO.N,/power_r2*%
X118790000Y-104000000D03*
%TO.P,J15,3,Pin_3*%
%TO.N,GND*%
X121330000Y-104000000D03*
%TD*%
D12*
%TO.P,J7,1,Pin_1*%
%TO.N,/l3_j1*%
X83750000Y-117000000D03*
D13*
%TO.P,J7,2,Pin_2*%
%TO.N,/power_l3*%
X81210000Y-117000000D03*
%TO.P,J7,3,Pin_3*%
%TO.N,GND*%
X78670000Y-117000000D03*
%TD*%
D12*
%TO.P,J17,1,Pin_1*%
%TO.N,/r3_j2*%
X116250000Y-121000000D03*
D13*
%TO.P,J17,2,Pin_2*%
%TO.N,/power_r3*%
X118790000Y-121000000D03*
%TO.P,J17,3,Pin_3*%
%TO.N,GND*%
X121330000Y-121000000D03*
%TD*%
D12*
%TO.P,J14,1,Pin_1*%
%TO.N,/r2_j2*%
X116250000Y-100000000D03*
D13*
%TO.P,J14,2,Pin_2*%
%TO.N,/power_r2*%
X118790000Y-100000000D03*
%TO.P,J14,3,Pin_3*%
%TO.N,GND*%
X121330000Y-100000000D03*
%TD*%
D17*
%TO.N,GND*%
X115500000Y-150500000D03*
X84500000Y-49500000D03*
X115500000Y-49500000D03*
X84500000Y-150500000D03*
%TD*%
D18*
%TO.N,/r1_j1*%
X112250000Y-92830000D02*
X112250000Y-79500000D01*
X108890000Y-96190000D02*
X112250000Y-92830000D01*
X112250000Y-79500000D02*
X116250000Y-75500000D01*
%TO.N,/r1_j2*%
X113250000Y-82500000D02*
X116250000Y-79500000D01*
X108890000Y-98730000D02*
X113250000Y-94370000D01*
X113250000Y-94370000D02*
X113250000Y-82500000D01*
%TO.N,/r1_j3*%
X114250000Y-95300000D02*
X114250000Y-85500000D01*
X108890000Y-103810000D02*
X111750000Y-100950000D01*
X111750000Y-100950000D02*
X111750000Y-97800000D01*
X111750000Y-97800000D02*
X114250000Y-95300000D01*
X114250000Y-85500000D02*
X116250000Y-83500000D01*
D19*
%TO.N,/power_r2*%
X113500000Y-112250000D02*
X113500000Y-125250000D01*
X118790000Y-96000000D02*
X118790000Y-100000000D01*
X118790000Y-106960000D02*
X113500000Y-112250000D01*
X110250000Y-128500000D02*
X110250000Y-149250000D01*
X113500000Y-125250000D02*
X110250000Y-128500000D01*
X110250000Y-149250000D02*
X107650000Y-151850000D01*
X118790000Y-100000000D02*
X118790000Y-104000000D01*
X118790000Y-104000000D02*
X118790000Y-106960000D01*
%TO.N,/power_l2*%
X81210000Y-104000000D02*
X81210000Y-100000000D01*
X87250000Y-125100000D02*
X87250000Y-113500000D01*
X92150000Y-130000000D02*
X87250000Y-125100000D01*
X81210000Y-96000000D02*
X81210000Y-100000000D01*
X87250000Y-113500000D02*
X81210000Y-107460000D01*
X81210000Y-107460000D02*
X81210000Y-104000000D01*
%TO.N,Net-(D1-K)*%
X105000000Y-74520000D02*
X105000000Y-70500000D01*
X108890000Y-78410000D02*
X105000000Y-74520000D01*
%TO.N,Net-(D1-A)*%
X94840000Y-60190000D02*
X94840000Y-70500000D01*
X92150000Y-57500000D02*
X94840000Y-60190000D01*
%TD*%
%TA.AperFunction,Conductor*%
%TO.N,GND*%
G36*
X121003736Y-45500726D02*
G01*
X121293796Y-45518271D01*
X121308659Y-45520076D01*
X121590798Y-45571780D01*
X121605335Y-45575363D01*
X121879172Y-45660695D01*
X121893163Y-45666000D01*
X122154743Y-45783727D01*
X122167989Y-45790680D01*
X122413465Y-45939075D01*
X122425776Y-45947573D01*
X122651573Y-46124473D01*
X122662781Y-46134403D01*
X122865596Y-46337218D01*
X122875526Y-46348426D01*
X122995481Y-46501538D01*
X123052422Y-46574217D01*
X123060928Y-46586540D01*
X123209316Y-46832004D01*
X123216275Y-46845263D01*
X123333997Y-47106831D01*
X123339306Y-47120832D01*
X123424635Y-47394663D01*
X123428219Y-47409201D01*
X123479923Y-47691340D01*
X123481728Y-47706205D01*
X123499274Y-47996263D01*
X123499500Y-48003750D01*
X123499500Y-151996249D01*
X123499274Y-152003736D01*
X123481728Y-152293794D01*
X123479923Y-152308659D01*
X123428219Y-152590798D01*
X123424635Y-152605336D01*
X123339306Y-152879167D01*
X123333997Y-152893168D01*
X123216275Y-153154736D01*
X123209316Y-153167995D01*
X123060928Y-153413459D01*
X123052422Y-153425782D01*
X122875526Y-153651573D01*
X122865596Y-153662781D01*
X122662781Y-153865596D01*
X122651573Y-153875526D01*
X122425782Y-154052422D01*
X122413459Y-154060928D01*
X122167995Y-154209316D01*
X122154736Y-154216275D01*
X121893168Y-154333997D01*
X121879167Y-154339306D01*
X121605336Y-154424635D01*
X121590798Y-154428219D01*
X121308659Y-154479923D01*
X121293794Y-154481728D01*
X121003736Y-154499274D01*
X120996249Y-154499500D01*
X79003751Y-154499500D01*
X78996264Y-154499274D01*
X78706205Y-154481728D01*
X78691340Y-154479923D01*
X78409201Y-154428219D01*
X78394663Y-154424635D01*
X78120832Y-154339306D01*
X78106831Y-154333997D01*
X77845263Y-154216275D01*
X77832004Y-154209316D01*
X77586540Y-154060928D01*
X77574217Y-154052422D01*
X77348426Y-153875526D01*
X77337218Y-153865596D01*
X77134403Y-153662781D01*
X77124473Y-153651573D01*
X76947573Y-153425776D01*
X76939075Y-153413465D01*
X76790680Y-153167989D01*
X76783727Y-153154743D01*
X76666000Y-152893163D01*
X76660693Y-152879167D01*
X76638355Y-152807483D01*
X76575363Y-152605335D01*
X76571780Y-152590798D01*
X76520076Y-152308659D01*
X76518271Y-152293794D01*
X76500726Y-152003736D01*
X76500500Y-151996249D01*
X76500500Y-150952135D01*
X90699500Y-150952135D01*
X90699500Y-152747870D01*
X90699501Y-152747876D01*
X90705908Y-152807483D01*
X90756202Y-152942328D01*
X90756206Y-152942335D01*
X90842452Y-153057544D01*
X90842455Y-153057547D01*
X90957664Y-153143793D01*
X90957671Y-153143797D01*
X91092517Y-153194091D01*
X91092516Y-153194091D01*
X91099444Y-153194835D01*
X91152127Y-153200500D01*
X92947872Y-153200499D01*
X93007483Y-153194091D01*
X93142331Y-153143796D01*
X93257546Y-153057546D01*
X93343796Y-152942331D01*
X93394091Y-152807483D01*
X93400500Y-152747873D01*
X93400499Y-151849999D01*
X106294341Y-151849999D01*
X106294341Y-151850000D01*
X106314936Y-152085403D01*
X106314938Y-152085413D01*
X106376094Y-152313655D01*
X106376096Y-152313659D01*
X106376097Y-152313663D01*
X106469633Y-152514250D01*
X106475965Y-152527830D01*
X106475967Y-152527834D01*
X106530235Y-152605336D01*
X106611505Y-152721401D01*
X106778599Y-152888495D01*
X106875384Y-152956265D01*
X106972165Y-153024032D01*
X106972167Y-153024033D01*
X106972170Y-153024035D01*
X107186337Y-153123903D01*
X107414592Y-153185063D01*
X107591034Y-153200500D01*
X107649999Y-153205659D01*
X107650000Y-153205659D01*
X107650001Y-153205659D01*
X107708966Y-153200500D01*
X107885408Y-153185063D01*
X108113663Y-153123903D01*
X108327830Y-153024035D01*
X108521401Y-152888495D01*
X108688495Y-152721401D01*
X108824035Y-152527830D01*
X108923903Y-152313663D01*
X108985063Y-152085408D01*
X108996043Y-151959901D01*
X109021495Y-151894834D01*
X109031882Y-151883037D01*
X111027139Y-149887782D01*
X111136632Y-149723914D01*
X111212051Y-149541835D01*
X111250500Y-149348541D01*
X111250500Y-144952135D01*
X120149500Y-144952135D01*
X120149500Y-146747870D01*
X120149501Y-146747876D01*
X120155908Y-146807483D01*
X120206202Y-146942328D01*
X120206206Y-146942335D01*
X120292452Y-147057544D01*
X120292455Y-147057547D01*
X120407664Y-147143793D01*
X120407671Y-147143797D01*
X120542517Y-147194091D01*
X120542516Y-147194091D01*
X120549444Y-147194835D01*
X120602127Y-147200500D01*
X122397872Y-147200499D01*
X122457483Y-147194091D01*
X122592331Y-147143796D01*
X122707546Y-147057546D01*
X122793796Y-146942331D01*
X122844091Y-146807483D01*
X122850500Y-146747873D01*
X122850499Y-144952128D01*
X122844091Y-144892517D01*
X122793796Y-144757669D01*
X122793795Y-144757668D01*
X122793793Y-144757664D01*
X122707547Y-144642455D01*
X122707544Y-144642452D01*
X122592335Y-144556206D01*
X122592328Y-144556202D01*
X122457482Y-144505908D01*
X122457483Y-144505908D01*
X122397883Y-144499501D01*
X122397881Y-144499500D01*
X122397873Y-144499500D01*
X122397864Y-144499500D01*
X120602129Y-144499500D01*
X120602123Y-144499501D01*
X120542516Y-144505908D01*
X120407671Y-144556202D01*
X120407664Y-144556206D01*
X120292455Y-144642452D01*
X120292452Y-144642455D01*
X120206206Y-144757664D01*
X120206202Y-144757671D01*
X120155908Y-144892517D01*
X120149501Y-144952116D01*
X120149501Y-144952123D01*
X120149500Y-144952135D01*
X111250500Y-144952135D01*
X111250500Y-130249999D01*
X120144341Y-130249999D01*
X120144341Y-130250000D01*
X120164936Y-130485403D01*
X120164938Y-130485413D01*
X120226094Y-130713655D01*
X120226096Y-130713659D01*
X120226097Y-130713663D01*
X120299649Y-130871395D01*
X120325965Y-130927830D01*
X120325967Y-130927834D01*
X120424769Y-131068936D01*
X120461505Y-131121401D01*
X120628599Y-131288495D01*
X120695102Y-131335061D01*
X120822165Y-131424032D01*
X120822167Y-131424033D01*
X120822170Y-131424035D01*
X121036337Y-131523903D01*
X121264592Y-131585063D01*
X121452918Y-131601539D01*
X121499999Y-131605659D01*
X121500000Y-131605659D01*
X121500001Y-131605659D01*
X121539234Y-131602226D01*
X121735408Y-131585063D01*
X121963663Y-131523903D01*
X122177830Y-131424035D01*
X122371401Y-131288495D01*
X122538495Y-131121401D01*
X122674035Y-130927830D01*
X122773903Y-130713663D01*
X122835063Y-130485408D01*
X122855659Y-130250000D01*
X122835063Y-130014592D01*
X122773903Y-129786337D01*
X122674035Y-129572171D01*
X122648943Y-129536335D01*
X122538494Y-129378597D01*
X122371402Y-129211506D01*
X122371395Y-129211501D01*
X122177834Y-129075967D01*
X122177830Y-129075965D01*
X122177828Y-129075964D01*
X121963663Y-128976097D01*
X121963659Y-128976096D01*
X121963655Y-128976094D01*
X121735413Y-128914938D01*
X121735403Y-128914936D01*
X121500001Y-128894341D01*
X121499999Y-128894341D01*
X121264596Y-128914936D01*
X121264586Y-128914938D01*
X121036344Y-128976094D01*
X121036335Y-128976098D01*
X120822171Y-129075964D01*
X120822169Y-129075965D01*
X120628597Y-129211505D01*
X120461505Y-129378597D01*
X120325965Y-129572169D01*
X120325964Y-129572171D01*
X120226098Y-129786335D01*
X120226094Y-129786344D01*
X120164938Y-130014586D01*
X120164936Y-130014596D01*
X120144341Y-130249999D01*
X111250500Y-130249999D01*
X111250500Y-128965781D01*
X111270185Y-128898742D01*
X111286814Y-128878105D01*
X114137778Y-126027141D01*
X114137782Y-126027139D01*
X114277139Y-125887782D01*
X114386632Y-125723914D01*
X114462051Y-125541835D01*
X114462051Y-125541832D01*
X114462053Y-125541828D01*
X114475562Y-125473915D01*
X114500499Y-125348544D01*
X114500500Y-125348541D01*
X114500500Y-124102135D01*
X114899500Y-124102135D01*
X114899500Y-125897870D01*
X114899501Y-125897876D01*
X114905908Y-125957483D01*
X114956202Y-126092328D01*
X114956206Y-126092335D01*
X115042452Y-126207544D01*
X115042455Y-126207547D01*
X115157664Y-126293793D01*
X115157671Y-126293797D01*
X115292517Y-126344091D01*
X115292516Y-126344091D01*
X115299444Y-126344835D01*
X115352127Y-126350500D01*
X117147872Y-126350499D01*
X117207483Y-126344091D01*
X117342331Y-126293796D01*
X117457546Y-126207546D01*
X117543796Y-126092331D01*
X117592810Y-125960916D01*
X117634681Y-125904984D01*
X117700145Y-125880566D01*
X117768418Y-125895417D01*
X117796673Y-125916569D01*
X117918599Y-126038495D01*
X118015384Y-126106265D01*
X118112165Y-126174032D01*
X118112167Y-126174033D01*
X118112170Y-126174035D01*
X118326337Y-126273903D01*
X118554592Y-126335063D01*
X118731034Y-126350500D01*
X118789999Y-126355659D01*
X118790000Y-126355659D01*
X118790001Y-126355659D01*
X118848966Y-126350500D01*
X119025408Y-126335063D01*
X119253663Y-126273903D01*
X119467830Y-126174035D01*
X119661401Y-126038495D01*
X119828495Y-125871401D01*
X119964035Y-125677830D01*
X120063903Y-125463663D01*
X120125063Y-125235408D01*
X120145659Y-125000000D01*
X120125063Y-124764592D01*
X120063903Y-124536337D01*
X119964035Y-124322171D01*
X119833267Y-124135413D01*
X119828494Y-124128597D01*
X119661402Y-123961506D01*
X119661395Y-123961501D01*
X119467834Y-123825967D01*
X119467830Y-123825965D01*
X119467828Y-123825964D01*
X119253663Y-123726097D01*
X119253659Y-123726096D01*
X119253655Y-123726094D01*
X119025413Y-123664938D01*
X119025403Y-123664936D01*
X118790001Y-123644341D01*
X118789999Y-123644341D01*
X118554596Y-123664936D01*
X118554586Y-123664938D01*
X118326344Y-123726094D01*
X118326335Y-123726098D01*
X118112171Y-123825964D01*
X118112169Y-123825965D01*
X117918600Y-123961503D01*
X117796673Y-124083430D01*
X117735350Y-124116914D01*
X117665658Y-124111930D01*
X117609725Y-124070058D01*
X117592810Y-124039081D01*
X117543797Y-123907671D01*
X117543793Y-123907664D01*
X117457547Y-123792455D01*
X117457544Y-123792452D01*
X117342335Y-123706206D01*
X117342328Y-123706202D01*
X117207482Y-123655908D01*
X117207483Y-123655908D01*
X117147883Y-123649501D01*
X117147881Y-123649500D01*
X117147873Y-123649500D01*
X117147864Y-123649500D01*
X115352129Y-123649500D01*
X115352123Y-123649501D01*
X115292516Y-123655908D01*
X115157671Y-123706202D01*
X115157664Y-123706206D01*
X115042455Y-123792452D01*
X115042452Y-123792455D01*
X114956206Y-123907664D01*
X114956202Y-123907671D01*
X114905908Y-124042517D01*
X114899501Y-124102116D01*
X114899501Y-124102123D01*
X114899500Y-124102135D01*
X114500500Y-124102135D01*
X114500500Y-120102135D01*
X114899500Y-120102135D01*
X114899500Y-121897870D01*
X114899501Y-121897876D01*
X114905908Y-121957483D01*
X114956202Y-122092328D01*
X114956206Y-122092335D01*
X115042452Y-122207544D01*
X115042455Y-122207547D01*
X115157664Y-122293793D01*
X115157671Y-122293797D01*
X115292517Y-122344091D01*
X115292516Y-122344091D01*
X115299444Y-122344835D01*
X115352127Y-122350500D01*
X117147872Y-122350499D01*
X117207483Y-122344091D01*
X117342331Y-122293796D01*
X117457546Y-122207546D01*
X117543796Y-122092331D01*
X117592810Y-121960916D01*
X117634681Y-121904984D01*
X117700145Y-121880566D01*
X117768418Y-121895417D01*
X117796673Y-121916569D01*
X117918599Y-122038495D01*
X118015384Y-122106265D01*
X118112165Y-122174032D01*
X118112167Y-122174033D01*
X118112170Y-122174035D01*
X118326337Y-122273903D01*
X118554592Y-122335063D01*
X118731034Y-122350500D01*
X118789999Y-122355659D01*
X118790000Y-122355659D01*
X118790001Y-122355659D01*
X118848966Y-122350500D01*
X119025408Y-122335063D01*
X119253663Y-122273903D01*
X119467830Y-122174035D01*
X119661401Y-122038495D01*
X119828495Y-121871401D01*
X119964035Y-121677830D01*
X120063903Y-121463663D01*
X120125063Y-121235408D01*
X120145659Y-121000000D01*
X120125063Y-120764592D01*
X120078626Y-120591285D01*
X120063905Y-120536344D01*
X120063904Y-120536343D01*
X120063903Y-120536337D01*
X119964035Y-120322171D01*
X119916959Y-120254938D01*
X119828494Y-120128597D01*
X119661402Y-119961506D01*
X119661395Y-119961501D01*
X119467834Y-119825967D01*
X119467830Y-119825965D01*
X119467828Y-119825964D01*
X119253663Y-119726097D01*
X119253659Y-119726096D01*
X119253655Y-119726094D01*
X119025413Y-119664938D01*
X119025403Y-119664936D01*
X118790001Y-119644341D01*
X118789999Y-119644341D01*
X118554596Y-119664936D01*
X118554586Y-119664938D01*
X118326344Y-119726094D01*
X118326335Y-119726098D01*
X118112171Y-119825964D01*
X118112169Y-119825965D01*
X117918600Y-119961503D01*
X117796673Y-120083430D01*
X117735350Y-120116914D01*
X117665658Y-120111930D01*
X117609725Y-120070058D01*
X117592810Y-120039081D01*
X117543797Y-119907671D01*
X117543793Y-119907664D01*
X117457547Y-119792455D01*
X117457544Y-119792452D01*
X117342335Y-119706206D01*
X117342328Y-119706202D01*
X117207482Y-119655908D01*
X117207483Y-119655908D01*
X117147883Y-119649501D01*
X117147881Y-119649500D01*
X117147873Y-119649500D01*
X117147864Y-119649500D01*
X115352129Y-119649500D01*
X115352123Y-119649501D01*
X115292516Y-119655908D01*
X115157671Y-119706202D01*
X115157664Y-119706206D01*
X115042455Y-119792452D01*
X115042452Y-119792455D01*
X114956206Y-119907664D01*
X114956202Y-119907671D01*
X114905908Y-120042517D01*
X114899501Y-120102116D01*
X114899501Y-120102123D01*
X114899500Y-120102135D01*
X114500500Y-120102135D01*
X114500500Y-116102135D01*
X114899500Y-116102135D01*
X114899500Y-117897870D01*
X114899501Y-117897876D01*
X114905908Y-117957483D01*
X114956202Y-118092328D01*
X114956206Y-118092335D01*
X115042452Y-118207544D01*
X115042455Y-118207547D01*
X115157664Y-118293793D01*
X115157671Y-118293797D01*
X115292517Y-118344091D01*
X115292516Y-118344091D01*
X115299444Y-118344835D01*
X115352127Y-118350500D01*
X117147872Y-118350499D01*
X117207483Y-118344091D01*
X117342331Y-118293796D01*
X117457546Y-118207546D01*
X117543796Y-118092331D01*
X117592810Y-117960916D01*
X117634681Y-117904984D01*
X117700145Y-117880566D01*
X117768418Y-117895417D01*
X117796673Y-117916569D01*
X117918599Y-118038495D01*
X118015384Y-118106265D01*
X118112165Y-118174032D01*
X118112167Y-118174033D01*
X118112170Y-118174035D01*
X118326337Y-118273903D01*
X118554592Y-118335063D01*
X118731034Y-118350500D01*
X118789999Y-118355659D01*
X118790000Y-118355659D01*
X118790001Y-118355659D01*
X118848966Y-118350500D01*
X119025408Y-118335063D01*
X119253663Y-118273903D01*
X119467830Y-118174035D01*
X119661401Y-118038495D01*
X119828495Y-117871401D01*
X119964035Y-117677830D01*
X120063903Y-117463663D01*
X120125063Y-117235408D01*
X120145659Y-117000000D01*
X120125063Y-116764592D01*
X120063903Y-116536337D01*
X119964035Y-116322171D01*
X119828495Y-116128599D01*
X119828494Y-116128597D01*
X119661402Y-115961506D01*
X119661395Y-115961501D01*
X119467834Y-115825967D01*
X119467830Y-115825965D01*
X119467828Y-115825964D01*
X119253663Y-115726097D01*
X119253659Y-115726096D01*
X119253655Y-115726094D01*
X119025413Y-115664938D01*
X119025403Y-115664936D01*
X118790001Y-115644341D01*
X118789999Y-115644341D01*
X118554596Y-115664936D01*
X118554586Y-115664938D01*
X118326344Y-115726094D01*
X118326335Y-115726098D01*
X118112171Y-115825964D01*
X118112169Y-115825965D01*
X117918600Y-115961503D01*
X117796673Y-116083430D01*
X117735350Y-116116914D01*
X117665658Y-116111930D01*
X117609725Y-116070058D01*
X117592810Y-116039081D01*
X117543797Y-115907671D01*
X117543793Y-115907664D01*
X117457547Y-115792455D01*
X117457544Y-115792452D01*
X117342335Y-115706206D01*
X117342328Y-115706202D01*
X117207482Y-115655908D01*
X117207483Y-115655908D01*
X117147883Y-115649501D01*
X117147881Y-115649500D01*
X117147873Y-115649500D01*
X117147864Y-115649500D01*
X115352129Y-115649500D01*
X115352123Y-115649501D01*
X115292516Y-115655908D01*
X115157671Y-115706202D01*
X115157664Y-115706206D01*
X115042455Y-115792452D01*
X115042452Y-115792455D01*
X114956206Y-115907664D01*
X114956202Y-115907671D01*
X114905908Y-116042517D01*
X114899501Y-116102116D01*
X114899501Y-116102123D01*
X114899500Y-116102135D01*
X114500500Y-116102135D01*
X114500500Y-112715782D01*
X114520185Y-112648743D01*
X114536819Y-112628101D01*
X117051919Y-110113002D01*
X119567140Y-107597781D01*
X119609529Y-107534341D01*
X119676632Y-107433914D01*
X119752051Y-107251835D01*
X119790500Y-107058541D01*
X119790500Y-104960758D01*
X119810185Y-104893719D01*
X119826819Y-104873077D01*
X119828495Y-104871401D01*
X119964035Y-104677830D01*
X120063903Y-104463663D01*
X120125063Y-104235408D01*
X120145659Y-104000000D01*
X120125063Y-103764592D01*
X120063903Y-103536337D01*
X119964035Y-103322171D01*
X119830997Y-103132171D01*
X119828494Y-103128597D01*
X119826819Y-103126922D01*
X119826315Y-103126000D01*
X119825014Y-103124449D01*
X119825325Y-103124187D01*
X119793334Y-103065599D01*
X119790500Y-103039241D01*
X119790500Y-100960758D01*
X119810185Y-100893719D01*
X119826819Y-100873077D01*
X119828495Y-100871401D01*
X119964035Y-100677830D01*
X120063903Y-100463663D01*
X120125063Y-100235408D01*
X120145659Y-100000000D01*
X120143690Y-99977500D01*
X120136772Y-99898425D01*
X120125063Y-99764592D01*
X120063903Y-99536337D01*
X119964035Y-99322171D01*
X119874054Y-99193663D01*
X119828494Y-99128597D01*
X119826819Y-99126922D01*
X119826315Y-99126000D01*
X119825014Y-99124449D01*
X119825325Y-99124187D01*
X119793334Y-99065599D01*
X119790500Y-99039241D01*
X119790500Y-96960758D01*
X119810185Y-96893719D01*
X119826819Y-96873077D01*
X119828495Y-96871401D01*
X119964035Y-96677830D01*
X120063903Y-96463663D01*
X120125063Y-96235408D01*
X120145659Y-96000000D01*
X120125063Y-95764592D01*
X120063903Y-95536337D01*
X119964035Y-95322171D01*
X119961533Y-95318597D01*
X119828494Y-95128597D01*
X119661402Y-94961506D01*
X119661395Y-94961501D01*
X119467834Y-94825967D01*
X119467830Y-94825965D01*
X119448883Y-94817130D01*
X119253663Y-94726097D01*
X119253659Y-94726096D01*
X119253655Y-94726094D01*
X119025413Y-94664938D01*
X119025403Y-94664936D01*
X118790001Y-94644341D01*
X118789999Y-94644341D01*
X118554596Y-94664936D01*
X118554586Y-94664938D01*
X118326344Y-94726094D01*
X118326335Y-94726098D01*
X118112171Y-94825964D01*
X118112169Y-94825965D01*
X117918600Y-94961503D01*
X117796673Y-95083430D01*
X117735350Y-95116914D01*
X117665658Y-95111930D01*
X117609725Y-95070058D01*
X117592810Y-95039081D01*
X117543797Y-94907671D01*
X117543793Y-94907664D01*
X117457547Y-94792455D01*
X117457544Y-94792452D01*
X117342335Y-94706206D01*
X117342328Y-94706202D01*
X117207482Y-94655908D01*
X117207483Y-94655908D01*
X117147883Y-94649501D01*
X117147881Y-94649500D01*
X117147873Y-94649500D01*
X117147864Y-94649500D01*
X115352129Y-94649500D01*
X115352123Y-94649501D01*
X115292515Y-94655909D01*
X115167832Y-94702412D01*
X115098141Y-94707396D01*
X115036818Y-94673910D01*
X115003334Y-94612587D01*
X115000500Y-94586230D01*
X115000500Y-85862228D01*
X115020185Y-85795189D01*
X115036815Y-85774551D01*
X115924548Y-84886817D01*
X115985871Y-84853333D01*
X116012229Y-84850499D01*
X117147871Y-84850499D01*
X117147872Y-84850499D01*
X117207483Y-84844091D01*
X117342331Y-84793796D01*
X117457546Y-84707546D01*
X117543796Y-84592331D01*
X117592810Y-84460916D01*
X117634681Y-84404984D01*
X117700145Y-84380566D01*
X117768418Y-84395417D01*
X117796673Y-84416569D01*
X117918599Y-84538495D01*
X118015384Y-84606265D01*
X118112165Y-84674032D01*
X118112167Y-84674033D01*
X118112170Y-84674035D01*
X118326337Y-84773903D01*
X118554592Y-84835063D01*
X118742918Y-84851539D01*
X118789999Y-84855659D01*
X118790000Y-84855659D01*
X118790001Y-84855659D01*
X118829234Y-84852226D01*
X119025408Y-84835063D01*
X119253663Y-84773903D01*
X119467830Y-84674035D01*
X119661401Y-84538495D01*
X119828495Y-84371401D01*
X119964035Y-84177830D01*
X120063903Y-83963663D01*
X120125063Y-83735408D01*
X120145659Y-83500000D01*
X120125063Y-83264592D01*
X120063903Y-83036337D01*
X119964035Y-82822171D01*
X119930689Y-82774547D01*
X119828494Y-82628597D01*
X119661402Y-82461506D01*
X119661395Y-82461501D01*
X119647119Y-82451505D01*
X119584518Y-82407671D01*
X119467834Y-82325967D01*
X119467830Y-82325965D01*
X119446383Y-82315964D01*
X119253663Y-82226097D01*
X119253659Y-82226096D01*
X119253655Y-82226094D01*
X119025413Y-82164938D01*
X119025403Y-82164936D01*
X118790001Y-82144341D01*
X118789999Y-82144341D01*
X118554596Y-82164936D01*
X118554586Y-82164938D01*
X118326344Y-82226094D01*
X118326335Y-82226098D01*
X118112171Y-82325964D01*
X118112169Y-82325965D01*
X117918600Y-82461503D01*
X117796673Y-82583430D01*
X117735350Y-82616914D01*
X117665658Y-82611930D01*
X117609725Y-82570058D01*
X117592810Y-82539081D01*
X117543797Y-82407671D01*
X117543793Y-82407664D01*
X117457547Y-82292455D01*
X117457544Y-82292452D01*
X117342335Y-82206206D01*
X117342328Y-82206202D01*
X117207482Y-82155908D01*
X117207483Y-82155908D01*
X117147883Y-82149501D01*
X117147881Y-82149500D01*
X117147873Y-82149500D01*
X117147864Y-82149500D01*
X115352129Y-82149500D01*
X115352123Y-82149501D01*
X115292516Y-82155908D01*
X115157671Y-82206202D01*
X115157664Y-82206206D01*
X115042455Y-82292452D01*
X115042452Y-82292455D01*
X114956206Y-82407664D01*
X114956202Y-82407671D01*
X114905908Y-82542517D01*
X114899501Y-82602116D01*
X114899500Y-82602135D01*
X114899500Y-83737769D01*
X114879815Y-83804808D01*
X114863181Y-83825450D01*
X114212181Y-84476450D01*
X114150858Y-84509935D01*
X114081166Y-84504951D01*
X114025233Y-84463079D01*
X114000816Y-84397615D01*
X114000500Y-84388769D01*
X114000500Y-82862228D01*
X114020185Y-82795189D01*
X114036814Y-82774552D01*
X115924548Y-80886817D01*
X115985871Y-80853333D01*
X116012229Y-80850499D01*
X117147871Y-80850499D01*
X117147872Y-80850499D01*
X117207483Y-80844091D01*
X117342331Y-80793796D01*
X117457546Y-80707546D01*
X117543796Y-80592331D01*
X117592810Y-80460916D01*
X117634681Y-80404984D01*
X117700145Y-80380566D01*
X117768418Y-80395417D01*
X117796673Y-80416569D01*
X117918599Y-80538495D01*
X118015384Y-80606265D01*
X118112165Y-80674032D01*
X118112167Y-80674033D01*
X118112170Y-80674035D01*
X118326337Y-80773903D01*
X118554592Y-80835063D01*
X118742918Y-80851539D01*
X118789999Y-80855659D01*
X118790000Y-80855659D01*
X118790001Y-80855659D01*
X118829234Y-80852226D01*
X119025408Y-80835063D01*
X119253663Y-80773903D01*
X119467830Y-80674035D01*
X119661401Y-80538495D01*
X119828495Y-80371401D01*
X119964035Y-80177830D01*
X120063903Y-79963663D01*
X120125063Y-79735408D01*
X120145659Y-79500000D01*
X120125063Y-79264592D01*
X120063903Y-79036337D01*
X119964035Y-78822171D01*
X119956930Y-78812023D01*
X119828494Y-78628597D01*
X119661402Y-78461506D01*
X119661395Y-78461501D01*
X119635014Y-78443029D01*
X119622521Y-78434281D01*
X119467834Y-78325967D01*
X119467830Y-78325965D01*
X119467828Y-78325964D01*
X119253663Y-78226097D01*
X119253659Y-78226096D01*
X119253655Y-78226094D01*
X119025413Y-78164938D01*
X119025403Y-78164936D01*
X118790001Y-78144341D01*
X118789999Y-78144341D01*
X118554596Y-78164936D01*
X118554586Y-78164938D01*
X118326344Y-78226094D01*
X118326335Y-78226098D01*
X118112171Y-78325964D01*
X118112169Y-78325965D01*
X117918600Y-78461503D01*
X117796673Y-78583430D01*
X117735350Y-78616914D01*
X117665658Y-78611930D01*
X117609725Y-78570058D01*
X117592810Y-78539081D01*
X117543797Y-78407671D01*
X117543793Y-78407664D01*
X117457547Y-78292455D01*
X117457544Y-78292452D01*
X117342335Y-78206206D01*
X117342328Y-78206202D01*
X117207482Y-78155908D01*
X117207483Y-78155908D01*
X117147883Y-78149501D01*
X117147881Y-78149500D01*
X117147873Y-78149500D01*
X117147864Y-78149500D01*
X115352129Y-78149500D01*
X115352123Y-78149501D01*
X115292516Y-78155908D01*
X115157671Y-78206202D01*
X115157664Y-78206206D01*
X115042455Y-78292452D01*
X115042452Y-78292455D01*
X114956206Y-78407664D01*
X114956202Y-78407671D01*
X114905908Y-78542517D01*
X114899501Y-78602116D01*
X114899500Y-78602135D01*
X114899500Y-79737770D01*
X114879815Y-79804809D01*
X114863181Y-79825451D01*
X113212181Y-81476451D01*
X113150858Y-81509936D01*
X113081166Y-81504952D01*
X113025233Y-81463080D01*
X113000816Y-81397616D01*
X113000500Y-81388770D01*
X113000500Y-79862228D01*
X113020185Y-79795189D01*
X113036814Y-79774552D01*
X115924548Y-76886817D01*
X115985871Y-76853333D01*
X116012229Y-76850499D01*
X117147871Y-76850499D01*
X117147872Y-76850499D01*
X117207483Y-76844091D01*
X117342331Y-76793796D01*
X117457546Y-76707546D01*
X117543796Y-76592331D01*
X117592810Y-76460916D01*
X117634681Y-76404984D01*
X117700145Y-76380566D01*
X117768418Y-76395417D01*
X117796673Y-76416569D01*
X117918599Y-76538495D01*
X118015384Y-76606265D01*
X118112165Y-76674032D01*
X118112167Y-76674033D01*
X118112170Y-76674035D01*
X118326337Y-76773903D01*
X118554592Y-76835063D01*
X118742918Y-76851539D01*
X118789999Y-76855659D01*
X118790000Y-76855659D01*
X118790001Y-76855659D01*
X118829234Y-76852226D01*
X119025408Y-76835063D01*
X119253663Y-76773903D01*
X119467830Y-76674035D01*
X119661401Y-76538495D01*
X119828495Y-76371401D01*
X119964035Y-76177830D01*
X120063903Y-75963663D01*
X120125063Y-75735408D01*
X120145659Y-75500000D01*
X120125063Y-75264592D01*
X120063903Y-75036337D01*
X119964035Y-74822171D01*
X119956802Y-74811840D01*
X119828494Y-74628597D01*
X119661402Y-74461506D01*
X119661395Y-74461501D01*
X119467834Y-74325967D01*
X119467830Y-74325965D01*
X119467828Y-74325964D01*
X119253663Y-74226097D01*
X119253659Y-74226096D01*
X119253655Y-74226094D01*
X119025413Y-74164938D01*
X119025403Y-74164936D01*
X118790001Y-74144341D01*
X118789999Y-74144341D01*
X118554596Y-74164936D01*
X118554586Y-74164938D01*
X118326344Y-74226094D01*
X118326335Y-74226098D01*
X118112171Y-74325964D01*
X118112169Y-74325965D01*
X117918600Y-74461503D01*
X117796673Y-74583430D01*
X117735350Y-74616914D01*
X117665658Y-74611930D01*
X117609725Y-74570058D01*
X117592810Y-74539081D01*
X117543797Y-74407671D01*
X117543793Y-74407664D01*
X117457547Y-74292455D01*
X117457544Y-74292452D01*
X117342335Y-74206206D01*
X117342328Y-74206202D01*
X117207482Y-74155908D01*
X117207483Y-74155908D01*
X117147883Y-74149501D01*
X117147881Y-74149500D01*
X117147873Y-74149500D01*
X117147864Y-74149500D01*
X115352129Y-74149500D01*
X115352123Y-74149501D01*
X115292516Y-74155908D01*
X115157671Y-74206202D01*
X115157664Y-74206206D01*
X115042455Y-74292452D01*
X115042452Y-74292455D01*
X114956206Y-74407664D01*
X114956202Y-74407671D01*
X114905908Y-74542517D01*
X114899501Y-74602116D01*
X114899500Y-74602135D01*
X114899500Y-75737770D01*
X114879815Y-75804809D01*
X114863181Y-75825451D01*
X111667049Y-79021582D01*
X111667049Y-79021583D01*
X111645284Y-79054157D01*
X111584914Y-79144508D01*
X111528343Y-79281082D01*
X111528340Y-79281092D01*
X111499500Y-79426079D01*
X111499500Y-92467769D01*
X111479815Y-92534808D01*
X111463181Y-92555450D01*
X109201500Y-94817130D01*
X109140177Y-94850615D01*
X109103012Y-94852977D01*
X108890002Y-94834341D01*
X108889999Y-94834341D01*
X108654596Y-94854936D01*
X108654586Y-94854938D01*
X108426344Y-94916094D01*
X108426335Y-94916098D01*
X108212171Y-95015964D01*
X108212169Y-95015965D01*
X108018597Y-95151505D01*
X107851505Y-95318597D01*
X107715965Y-95512169D01*
X107715964Y-95512171D01*
X107616098Y-95726335D01*
X107616094Y-95726344D01*
X107554938Y-95954586D01*
X107554936Y-95954596D01*
X107534341Y-96189999D01*
X107534341Y-96190000D01*
X107554936Y-96425403D01*
X107554938Y-96425413D01*
X107616094Y-96653655D01*
X107616096Y-96653659D01*
X107616097Y-96653663D01*
X107715965Y-96867830D01*
X107715967Y-96867834D01*
X107851501Y-97061395D01*
X107851506Y-97061402D01*
X108018597Y-97228493D01*
X108018603Y-97228498D01*
X108204158Y-97358425D01*
X108247783Y-97413002D01*
X108254977Y-97482500D01*
X108223454Y-97544855D01*
X108204158Y-97561575D01*
X108018597Y-97691505D01*
X107851505Y-97858597D01*
X107715965Y-98052169D01*
X107715964Y-98052171D01*
X107616098Y-98266335D01*
X107616094Y-98266344D01*
X107554938Y-98494586D01*
X107554936Y-98494596D01*
X107534341Y-98729999D01*
X107534341Y-98730000D01*
X107554936Y-98965403D01*
X107554938Y-98965413D01*
X107616094Y-99193655D01*
X107616096Y-99193659D01*
X107616097Y-99193663D01*
X107691486Y-99355335D01*
X107715965Y-99407830D01*
X107715967Y-99407834D01*
X107851501Y-99601395D01*
X107851506Y-99601402D01*
X108018597Y-99768493D01*
X108018603Y-99768498D01*
X108204158Y-99898425D01*
X108247783Y-99953002D01*
X108254977Y-100022500D01*
X108223454Y-100084855D01*
X108204158Y-100101575D01*
X108018597Y-100231505D01*
X107851505Y-100398597D01*
X107715965Y-100592169D01*
X107715964Y-100592171D01*
X107616098Y-100806335D01*
X107616094Y-100806344D01*
X107554938Y-101034586D01*
X107554936Y-101034596D01*
X107534341Y-101269999D01*
X107534341Y-101270000D01*
X107554936Y-101505403D01*
X107554938Y-101505413D01*
X107616094Y-101733655D01*
X107616096Y-101733659D01*
X107616097Y-101733663D01*
X107715965Y-101947830D01*
X107715967Y-101947834D01*
X107851501Y-102141395D01*
X107851506Y-102141402D01*
X108018597Y-102308493D01*
X108018603Y-102308498D01*
X108204158Y-102438425D01*
X108247783Y-102493002D01*
X108254977Y-102562500D01*
X108223454Y-102624855D01*
X108204158Y-102641575D01*
X108018597Y-102771505D01*
X107851505Y-102938597D01*
X107715965Y-103132169D01*
X107715964Y-103132171D01*
X107616098Y-103346335D01*
X107616094Y-103346344D01*
X107554938Y-103574586D01*
X107554936Y-103574596D01*
X107534341Y-103809999D01*
X107534341Y-103810000D01*
X107554936Y-104045403D01*
X107554938Y-104045413D01*
X107616094Y-104273655D01*
X107616096Y-104273659D01*
X107616097Y-104273663D01*
X107704692Y-104463655D01*
X107715965Y-104487830D01*
X107715967Y-104487834D01*
X107824281Y-104642521D01*
X107851505Y-104681401D01*
X108018599Y-104848495D01*
X108105575Y-104909396D01*
X108212165Y-104984032D01*
X108212167Y-104984033D01*
X108212170Y-104984035D01*
X108426337Y-105083903D01*
X108654592Y-105145063D01*
X108842918Y-105161539D01*
X108889999Y-105165659D01*
X108890000Y-105165659D01*
X108890001Y-105165659D01*
X108929234Y-105162226D01*
X109125408Y-105145063D01*
X109353663Y-105083903D01*
X109567830Y-104984035D01*
X109761401Y-104848495D01*
X109928495Y-104681401D01*
X110064035Y-104487830D01*
X110163903Y-104273663D01*
X110225063Y-104045408D01*
X110245659Y-103810000D01*
X110227022Y-103596985D01*
X110240788Y-103528486D01*
X110262866Y-103498500D01*
X112332952Y-101428416D01*
X112395327Y-101335063D01*
X112415084Y-101305495D01*
X112471658Y-101168913D01*
X112486891Y-101092332D01*
X112500500Y-101023920D01*
X112500500Y-98162230D01*
X112520185Y-98095191D01*
X112536819Y-98074549D01*
X113603303Y-97008065D01*
X114687821Y-95923546D01*
X114749142Y-95890063D01*
X114818834Y-95895047D01*
X114874767Y-95936919D01*
X114899184Y-96002383D01*
X114899500Y-96011229D01*
X114899500Y-96897870D01*
X114899501Y-96897876D01*
X114905908Y-96957483D01*
X114956202Y-97092328D01*
X114956206Y-97092335D01*
X115042452Y-97207544D01*
X115042455Y-97207547D01*
X115157664Y-97293793D01*
X115157671Y-97293797D01*
X115292517Y-97344091D01*
X115292516Y-97344091D01*
X115299444Y-97344835D01*
X115352127Y-97350500D01*
X117147872Y-97350499D01*
X117207483Y-97344091D01*
X117342331Y-97293796D01*
X117457546Y-97207546D01*
X117543796Y-97092331D01*
X117549318Y-97077525D01*
X117591188Y-97021593D01*
X117656652Y-96997175D01*
X117724925Y-97012026D01*
X117774331Y-97061430D01*
X117789500Y-97120859D01*
X117789500Y-98879140D01*
X117769815Y-98946179D01*
X117717011Y-98991934D01*
X117647853Y-99001878D01*
X117584297Y-98972853D01*
X117549318Y-98922473D01*
X117543797Y-98907671D01*
X117543793Y-98907664D01*
X117457547Y-98792455D01*
X117457544Y-98792452D01*
X117342335Y-98706206D01*
X117342328Y-98706202D01*
X117207482Y-98655908D01*
X117207483Y-98655908D01*
X117147883Y-98649501D01*
X117147881Y-98649500D01*
X117147873Y-98649500D01*
X117147864Y-98649500D01*
X115352129Y-98649500D01*
X115352123Y-98649501D01*
X115292516Y-98655908D01*
X115157671Y-98706202D01*
X115157664Y-98706206D01*
X115042455Y-98792452D01*
X115042452Y-98792455D01*
X114956206Y-98907664D01*
X114956202Y-98907671D01*
X114905908Y-99042517D01*
X114903427Y-99065599D01*
X114899501Y-99102123D01*
X114899500Y-99102135D01*
X114899500Y-100897870D01*
X114899501Y-100897876D01*
X114905908Y-100957483D01*
X114956202Y-101092328D01*
X114956206Y-101092335D01*
X115042452Y-101207544D01*
X115042455Y-101207547D01*
X115157664Y-101293793D01*
X115157671Y-101293797D01*
X115292517Y-101344091D01*
X115292516Y-101344091D01*
X115299444Y-101344835D01*
X115352127Y-101350500D01*
X117147872Y-101350499D01*
X117207483Y-101344091D01*
X117342331Y-101293796D01*
X117457546Y-101207546D01*
X117543796Y-101092331D01*
X117549318Y-101077525D01*
X117591188Y-101021593D01*
X117656652Y-100997175D01*
X117724925Y-101012026D01*
X117774331Y-101061430D01*
X117789500Y-101120859D01*
X117789500Y-102879140D01*
X117769815Y-102946179D01*
X117717011Y-102991934D01*
X117647853Y-103001878D01*
X117584297Y-102972853D01*
X117549318Y-102922473D01*
X117543797Y-102907671D01*
X117543793Y-102907664D01*
X117457547Y-102792455D01*
X117457544Y-102792452D01*
X117342335Y-102706206D01*
X117342328Y-102706202D01*
X117207482Y-102655908D01*
X117207483Y-102655908D01*
X117147883Y-102649501D01*
X117147881Y-102649500D01*
X117147873Y-102649500D01*
X117147864Y-102649500D01*
X115352129Y-102649500D01*
X115352123Y-102649501D01*
X115292516Y-102655908D01*
X115157671Y-102706202D01*
X115157664Y-102706206D01*
X115042455Y-102792452D01*
X115042452Y-102792455D01*
X114956206Y-102907664D01*
X114956202Y-102907671D01*
X114905908Y-103042517D01*
X114903427Y-103065599D01*
X114899501Y-103102123D01*
X114899500Y-103102135D01*
X114899500Y-104897870D01*
X114899501Y-104897876D01*
X114905908Y-104957483D01*
X114956202Y-105092328D01*
X114956206Y-105092335D01*
X115042452Y-105207544D01*
X115042455Y-105207547D01*
X115157664Y-105293793D01*
X115157671Y-105293797D01*
X115292517Y-105344091D01*
X115292516Y-105344091D01*
X115299444Y-105344835D01*
X115352127Y-105350500D01*
X117147872Y-105350499D01*
X117207483Y-105344091D01*
X117342331Y-105293796D01*
X117457546Y-105207546D01*
X117543796Y-105092331D01*
X117549318Y-105077525D01*
X117591188Y-105021593D01*
X117656652Y-104997175D01*
X117724925Y-105012026D01*
X117774331Y-105061430D01*
X117789500Y-105120859D01*
X117789500Y-106494217D01*
X117769815Y-106561256D01*
X117753181Y-106581898D01*
X112862220Y-111472859D01*
X112862218Y-111472861D01*
X112792538Y-111542540D01*
X112722859Y-111612219D01*
X112613371Y-111776079D01*
X112613364Y-111776092D01*
X112537950Y-111958160D01*
X112537947Y-111958170D01*
X112499500Y-112151456D01*
X112499500Y-124784217D01*
X112479815Y-124851256D01*
X112463181Y-124871898D01*
X111041286Y-126293793D01*
X109612221Y-127722858D01*
X109612218Y-127722861D01*
X109542538Y-127792540D01*
X109472859Y-127862219D01*
X109363371Y-128026079D01*
X109363364Y-128026092D01*
X109287950Y-128208160D01*
X109287947Y-128208170D01*
X109249500Y-128401456D01*
X109249500Y-128809897D01*
X109229815Y-128876936D01*
X109177011Y-128922691D01*
X109107853Y-128932635D01*
X109044297Y-128903610D01*
X109026234Y-128884208D01*
X108957547Y-128792455D01*
X108957544Y-128792452D01*
X108842335Y-128706206D01*
X108842328Y-128706202D01*
X108707482Y-128655908D01*
X108707483Y-128655908D01*
X108647883Y-128649501D01*
X108647881Y-128649500D01*
X108647873Y-128649500D01*
X108647864Y-128649500D01*
X106852129Y-128649500D01*
X106852123Y-128649501D01*
X106792516Y-128655908D01*
X106657671Y-128706202D01*
X106657664Y-128706206D01*
X106542455Y-128792452D01*
X106542452Y-128792455D01*
X106456206Y-128907664D01*
X106456202Y-128907671D01*
X106405908Y-129042517D01*
X106399501Y-129102116D01*
X106399500Y-129102135D01*
X106399500Y-130897870D01*
X106399501Y-130897876D01*
X106405908Y-130957483D01*
X106456202Y-131092328D01*
X106456206Y-131092335D01*
X106542452Y-131207544D01*
X106542455Y-131207547D01*
X106657664Y-131293793D01*
X106657671Y-131293797D01*
X106792517Y-131344091D01*
X106792516Y-131344091D01*
X106799444Y-131344835D01*
X106852127Y-131350500D01*
X108647872Y-131350499D01*
X108707483Y-131344091D01*
X108842331Y-131293796D01*
X108957546Y-131207546D01*
X109026234Y-131115789D01*
X109082167Y-131073920D01*
X109151859Y-131068936D01*
X109213182Y-131102421D01*
X109246666Y-131163745D01*
X109249500Y-131190102D01*
X109249500Y-148784216D01*
X109229815Y-148851255D01*
X109213181Y-148871897D01*
X107616969Y-150468108D01*
X107555646Y-150501593D01*
X107540097Y-150503955D01*
X107414596Y-150514936D01*
X107414586Y-150514938D01*
X107186344Y-150576094D01*
X107186335Y-150576098D01*
X106972171Y-150675964D01*
X106972169Y-150675965D01*
X106778597Y-150811505D01*
X106611505Y-150978597D01*
X106475965Y-151172169D01*
X106475964Y-151172171D01*
X106376098Y-151386335D01*
X106376094Y-151386344D01*
X106314938Y-151614586D01*
X106314936Y-151614596D01*
X106294341Y-151849999D01*
X93400499Y-151849999D01*
X93400499Y-150952128D01*
X93394091Y-150892517D01*
X93343796Y-150757669D01*
X93343795Y-150757668D01*
X93343793Y-150757664D01*
X93257547Y-150642455D01*
X93257544Y-150642452D01*
X93142335Y-150556206D01*
X93142328Y-150556202D01*
X93007482Y-150505908D01*
X93007483Y-150505908D01*
X92947883Y-150499501D01*
X92947881Y-150499500D01*
X92947873Y-150499500D01*
X92947864Y-150499500D01*
X91152129Y-150499500D01*
X91152123Y-150499501D01*
X91092516Y-150505908D01*
X90957671Y-150556202D01*
X90957664Y-150556206D01*
X90842455Y-150642452D01*
X90842452Y-150642455D01*
X90756206Y-150757664D01*
X90756202Y-150757671D01*
X90705908Y-150892517D01*
X90699501Y-150952116D01*
X90699501Y-150952123D01*
X90699500Y-150952135D01*
X76500500Y-150952135D01*
X76500500Y-144952135D01*
X86149500Y-144952135D01*
X86149500Y-146747870D01*
X86149501Y-146747876D01*
X86155908Y-146807483D01*
X86206202Y-146942328D01*
X86206206Y-146942335D01*
X86292452Y-147057544D01*
X86292455Y-147057547D01*
X86407664Y-147143793D01*
X86407671Y-147143797D01*
X86542517Y-147194091D01*
X86542516Y-147194091D01*
X86549444Y-147194835D01*
X86602127Y-147200500D01*
X88397872Y-147200499D01*
X88457483Y-147194091D01*
X88592331Y-147143796D01*
X88707546Y-147057546D01*
X88793796Y-146942331D01*
X88844091Y-146807483D01*
X88850500Y-146747873D01*
X88850499Y-144952128D01*
X88844091Y-144892517D01*
X88793796Y-144757669D01*
X88793795Y-144757668D01*
X88793793Y-144757664D01*
X88707547Y-144642455D01*
X88707544Y-144642452D01*
X88592335Y-144556206D01*
X88592328Y-144556202D01*
X88457482Y-144505908D01*
X88457483Y-144505908D01*
X88397883Y-144499501D01*
X88397881Y-144499500D01*
X88397873Y-144499500D01*
X88397864Y-144499500D01*
X86602129Y-144499500D01*
X86602123Y-144499501D01*
X86542516Y-144505908D01*
X86407671Y-144556202D01*
X86407664Y-144556206D01*
X86292455Y-144642452D01*
X86292452Y-144642455D01*
X86206206Y-144757664D01*
X86206202Y-144757671D01*
X86155908Y-144892517D01*
X86149501Y-144952116D01*
X86149501Y-144952123D01*
X86149500Y-144952135D01*
X76500500Y-144952135D01*
X76500500Y-130249999D01*
X86144341Y-130249999D01*
X86144341Y-130250000D01*
X86164936Y-130485403D01*
X86164938Y-130485413D01*
X86226094Y-130713655D01*
X86226096Y-130713659D01*
X86226097Y-130713663D01*
X86299649Y-130871395D01*
X86325965Y-130927830D01*
X86325967Y-130927834D01*
X86424769Y-131068936D01*
X86461505Y-131121401D01*
X86628599Y-131288495D01*
X86695102Y-131335061D01*
X86822165Y-131424032D01*
X86822167Y-131424033D01*
X86822170Y-131424035D01*
X87036337Y-131523903D01*
X87264592Y-131585063D01*
X87452918Y-131601539D01*
X87499999Y-131605659D01*
X87500000Y-131605659D01*
X87500001Y-131605659D01*
X87539234Y-131602226D01*
X87735408Y-131585063D01*
X87963663Y-131523903D01*
X88177830Y-131424035D01*
X88371401Y-131288495D01*
X88538495Y-131121401D01*
X88674035Y-130927830D01*
X88773903Y-130713663D01*
X88835063Y-130485408D01*
X88855659Y-130250000D01*
X88835063Y-130014592D01*
X88773903Y-129786337D01*
X88674035Y-129572171D01*
X88648943Y-129536335D01*
X88538494Y-129378597D01*
X88371402Y-129211506D01*
X88371395Y-129211501D01*
X88177834Y-129075967D01*
X88177830Y-129075965D01*
X88177828Y-129075964D01*
X87963663Y-128976097D01*
X87963659Y-128976096D01*
X87963655Y-128976094D01*
X87735413Y-128914938D01*
X87735403Y-128914936D01*
X87500001Y-128894341D01*
X87499999Y-128894341D01*
X87264596Y-128914936D01*
X87264586Y-128914938D01*
X87036344Y-128976094D01*
X87036335Y-128976098D01*
X86822171Y-129075964D01*
X86822169Y-129075965D01*
X86628597Y-129211505D01*
X86461505Y-129378597D01*
X86325965Y-129572169D01*
X86325964Y-129572171D01*
X86226098Y-129786335D01*
X86226094Y-129786344D01*
X86164938Y-130014586D01*
X86164936Y-130014596D01*
X86144341Y-130249999D01*
X76500500Y-130249999D01*
X76500500Y-124999999D01*
X79854341Y-124999999D01*
X79854341Y-125000000D01*
X79874936Y-125235403D01*
X79874938Y-125235413D01*
X79936094Y-125463655D01*
X79936096Y-125463659D01*
X79936097Y-125463663D01*
X79987507Y-125573911D01*
X80035965Y-125677830D01*
X80035967Y-125677834D01*
X80144281Y-125832521D01*
X80171505Y-125871401D01*
X80338599Y-126038495D01*
X80435384Y-126106265D01*
X80532165Y-126174032D01*
X80532167Y-126174033D01*
X80532170Y-126174035D01*
X80746337Y-126273903D01*
X80974592Y-126335063D01*
X81151034Y-126350500D01*
X81209999Y-126355659D01*
X81210000Y-126355659D01*
X81210001Y-126355659D01*
X81268966Y-126350500D01*
X81445408Y-126335063D01*
X81673663Y-126273903D01*
X81887830Y-126174035D01*
X82081401Y-126038495D01*
X82203329Y-125916566D01*
X82264648Y-125883084D01*
X82334340Y-125888068D01*
X82390274Y-125929939D01*
X82407189Y-125960917D01*
X82456202Y-126092328D01*
X82456206Y-126092335D01*
X82542452Y-126207544D01*
X82542455Y-126207547D01*
X82657664Y-126293793D01*
X82657671Y-126293797D01*
X82792517Y-126344091D01*
X82792516Y-126344091D01*
X82799444Y-126344835D01*
X82852127Y-126350500D01*
X84647872Y-126350499D01*
X84707483Y-126344091D01*
X84842331Y-126293796D01*
X84957546Y-126207546D01*
X85043796Y-126092331D01*
X85094091Y-125957483D01*
X85100500Y-125897873D01*
X85100499Y-124102128D01*
X85094091Y-124042517D01*
X85092810Y-124039083D01*
X85043797Y-123907671D01*
X85043793Y-123907664D01*
X84957547Y-123792455D01*
X84957544Y-123792452D01*
X84842335Y-123706206D01*
X84842328Y-123706202D01*
X84707482Y-123655908D01*
X84707483Y-123655908D01*
X84647883Y-123649501D01*
X84647881Y-123649500D01*
X84647873Y-123649500D01*
X84647864Y-123649500D01*
X82852129Y-123649500D01*
X82852123Y-123649501D01*
X82792516Y-123655908D01*
X82657671Y-123706202D01*
X82657664Y-123706206D01*
X82542455Y-123792452D01*
X82542452Y-123792455D01*
X82456206Y-123907664D01*
X82456203Y-123907669D01*
X82407189Y-124039083D01*
X82365317Y-124095016D01*
X82299853Y-124119433D01*
X82231580Y-124104581D01*
X82203326Y-124083430D01*
X82081402Y-123961506D01*
X82081395Y-123961501D01*
X81887834Y-123825967D01*
X81887830Y-123825965D01*
X81887828Y-123825964D01*
X81673663Y-123726097D01*
X81673659Y-123726096D01*
X81673655Y-123726094D01*
X81445413Y-123664938D01*
X81445403Y-123664936D01*
X81210001Y-123644341D01*
X81209999Y-123644341D01*
X80974596Y-123664936D01*
X80974586Y-123664938D01*
X80746344Y-123726094D01*
X80746335Y-123726098D01*
X80532171Y-123825964D01*
X80532169Y-123825965D01*
X80338597Y-123961505D01*
X80171505Y-124128597D01*
X80035965Y-124322169D01*
X80035964Y-124322171D01*
X79936098Y-124536335D01*
X79936094Y-124536344D01*
X79874938Y-124764586D01*
X79874936Y-124764596D01*
X79854341Y-124999999D01*
X76500500Y-124999999D01*
X76500500Y-120999999D01*
X79854341Y-120999999D01*
X79854341Y-121000000D01*
X79874936Y-121235403D01*
X79874938Y-121235413D01*
X79936094Y-121463655D01*
X79936096Y-121463659D01*
X79936097Y-121463663D01*
X79995009Y-121589999D01*
X80035965Y-121677830D01*
X80035967Y-121677834D01*
X80139297Y-121825403D01*
X80171505Y-121871401D01*
X80338599Y-122038495D01*
X80435384Y-122106265D01*
X80532165Y-122174032D01*
X80532167Y-122174033D01*
X80532170Y-122174035D01*
X80746337Y-122273903D01*
X80974592Y-122335063D01*
X81151034Y-122350500D01*
X81209999Y-122355659D01*
X81210000Y-122355659D01*
X81210001Y-122355659D01*
X81268966Y-122350500D01*
X81445408Y-122335063D01*
X81673663Y-122273903D01*
X81887830Y-122174035D01*
X82081401Y-122038495D01*
X82203329Y-121916566D01*
X82264648Y-121883084D01*
X82334340Y-121888068D01*
X82390274Y-121929939D01*
X82407189Y-121960917D01*
X82456202Y-122092328D01*
X82456206Y-122092335D01*
X82542452Y-122207544D01*
X82542455Y-122207547D01*
X82657664Y-122293793D01*
X82657671Y-122293797D01*
X82792517Y-122344091D01*
X82792516Y-122344091D01*
X82799444Y-122344835D01*
X82852127Y-122350500D01*
X84647872Y-122350499D01*
X84707483Y-122344091D01*
X84842331Y-122293796D01*
X84957546Y-122207546D01*
X85043796Y-122092331D01*
X85094091Y-121957483D01*
X85100500Y-121897873D01*
X85100499Y-120102128D01*
X85094091Y-120042517D01*
X85092810Y-120039083D01*
X85043797Y-119907671D01*
X85043793Y-119907664D01*
X84957547Y-119792455D01*
X84957544Y-119792452D01*
X84842335Y-119706206D01*
X84842328Y-119706202D01*
X84707482Y-119655908D01*
X84707483Y-119655908D01*
X84647883Y-119649501D01*
X84647881Y-119649500D01*
X84647873Y-119649500D01*
X84647864Y-119649500D01*
X82852129Y-119649500D01*
X82852123Y-119649501D01*
X82792516Y-119655908D01*
X82657671Y-119706202D01*
X82657664Y-119706206D01*
X82542455Y-119792452D01*
X82542452Y-119792455D01*
X82456206Y-119907664D01*
X82456203Y-119907669D01*
X82407189Y-120039083D01*
X82365317Y-120095016D01*
X82299853Y-120119433D01*
X82231580Y-120104581D01*
X82203326Y-120083430D01*
X82081402Y-119961506D01*
X82081395Y-119961501D01*
X81887834Y-119825967D01*
X81887830Y-119825965D01*
X81887828Y-119825964D01*
X81673663Y-119726097D01*
X81673659Y-119726096D01*
X81673655Y-119726094D01*
X81445413Y-119664938D01*
X81445403Y-119664936D01*
X81210001Y-119644341D01*
X81209999Y-119644341D01*
X80974596Y-119664936D01*
X80974586Y-119664938D01*
X80746344Y-119726094D01*
X80746335Y-119726098D01*
X80532171Y-119825964D01*
X80532169Y-119825965D01*
X80338597Y-119961505D01*
X80171505Y-120128597D01*
X80035965Y-120322169D01*
X80035964Y-120322171D01*
X79936098Y-120536335D01*
X79936094Y-120536344D01*
X79874938Y-120764586D01*
X79874936Y-120764596D01*
X79854341Y-120999999D01*
X76500500Y-120999999D01*
X76500500Y-116999999D01*
X79854341Y-116999999D01*
X79854341Y-117000000D01*
X79874936Y-117235403D01*
X79874938Y-117235413D01*
X79936094Y-117463655D01*
X79936096Y-117463659D01*
X79936097Y-117463663D01*
X80020499Y-117644663D01*
X80035965Y-117677830D01*
X80035967Y-117677834D01*
X80144281Y-117832521D01*
X80171505Y-117871401D01*
X80338599Y-118038495D01*
X80435384Y-118106265D01*
X80532165Y-118174032D01*
X80532167Y-118174033D01*
X80532170Y-118174035D01*
X80746337Y-118273903D01*
X80974592Y-118335063D01*
X81151034Y-118350500D01*
X81209999Y-118355659D01*
X81210000Y-118355659D01*
X81210001Y-118355659D01*
X81268966Y-118350500D01*
X81445408Y-118335063D01*
X81673663Y-118273903D01*
X81887830Y-118174035D01*
X82081401Y-118038495D01*
X82203329Y-117916566D01*
X82264648Y-117883084D01*
X82334340Y-117888068D01*
X82390274Y-117929939D01*
X82407189Y-117960917D01*
X82456202Y-118092328D01*
X82456206Y-118092335D01*
X82542452Y-118207544D01*
X82542455Y-118207547D01*
X82657664Y-118293793D01*
X82657671Y-118293797D01*
X82792517Y-118344091D01*
X82792516Y-118344091D01*
X82799444Y-118344835D01*
X82852127Y-118350500D01*
X84647872Y-118350499D01*
X84707483Y-118344091D01*
X84842331Y-118293796D01*
X84957546Y-118207546D01*
X85043796Y-118092331D01*
X85094091Y-117957483D01*
X85100500Y-117897873D01*
X85100499Y-116102128D01*
X85094091Y-116042517D01*
X85092810Y-116039083D01*
X85043797Y-115907671D01*
X85043793Y-115907664D01*
X84957547Y-115792455D01*
X84957544Y-115792452D01*
X84842335Y-115706206D01*
X84842328Y-115706202D01*
X84707482Y-115655908D01*
X84707483Y-115655908D01*
X84647883Y-115649501D01*
X84647881Y-115649500D01*
X84647873Y-115649500D01*
X84647864Y-115649500D01*
X82852129Y-115649500D01*
X82852123Y-115649501D01*
X82792516Y-115655908D01*
X82657671Y-115706202D01*
X82657664Y-115706206D01*
X82542455Y-115792452D01*
X82542452Y-115792455D01*
X82456206Y-115907664D01*
X82456203Y-115907669D01*
X82407189Y-116039083D01*
X82365317Y-116095016D01*
X82299853Y-116119433D01*
X82231580Y-116104581D01*
X82203326Y-116083430D01*
X82081402Y-115961506D01*
X82081395Y-115961501D01*
X81887834Y-115825967D01*
X81887830Y-115825965D01*
X81887828Y-115825964D01*
X81673663Y-115726097D01*
X81673659Y-115726096D01*
X81673655Y-115726094D01*
X81445413Y-115664938D01*
X81445403Y-115664936D01*
X81210001Y-115644341D01*
X81209999Y-115644341D01*
X80974596Y-115664936D01*
X80974586Y-115664938D01*
X80746344Y-115726094D01*
X80746335Y-115726098D01*
X80532171Y-115825964D01*
X80532169Y-115825965D01*
X80338597Y-115961505D01*
X80171505Y-116128597D01*
X80035965Y-116322169D01*
X80035964Y-116322171D01*
X79936098Y-116536335D01*
X79936094Y-116536344D01*
X79874938Y-116764586D01*
X79874936Y-116764596D01*
X79854341Y-116999999D01*
X76500500Y-116999999D01*
X76500500Y-95999999D01*
X79854341Y-95999999D01*
X79854341Y-96000000D01*
X79874936Y-96235403D01*
X79874938Y-96235413D01*
X79936094Y-96463655D01*
X79936096Y-96463659D01*
X79936097Y-96463663D01*
X80020499Y-96644663D01*
X80035965Y-96677830D01*
X80035967Y-96677834D01*
X80144281Y-96832521D01*
X80169007Y-96867834D01*
X80171501Y-96871395D01*
X80171506Y-96871402D01*
X80173181Y-96873077D01*
X80173682Y-96873995D01*
X80174982Y-96875544D01*
X80174670Y-96875805D01*
X80206666Y-96934400D01*
X80209500Y-96960758D01*
X80209500Y-99039241D01*
X80189815Y-99106280D01*
X80173181Y-99126922D01*
X80171505Y-99128597D01*
X80035965Y-99322169D01*
X80035964Y-99322171D01*
X79936098Y-99536335D01*
X79936094Y-99536344D01*
X79874938Y-99764586D01*
X79874936Y-99764596D01*
X79854341Y-99999999D01*
X79854341Y-100000000D01*
X79874936Y-100235403D01*
X79874938Y-100235413D01*
X79936094Y-100463655D01*
X79936096Y-100463659D01*
X79936097Y-100463663D01*
X80017920Y-100639132D01*
X80035965Y-100677830D01*
X80035967Y-100677834D01*
X80171501Y-100871395D01*
X80171506Y-100871402D01*
X80173181Y-100873077D01*
X80173682Y-100873995D01*
X80174982Y-100875544D01*
X80174670Y-100875805D01*
X80206666Y-100934400D01*
X80209500Y-100960758D01*
X80209500Y-103039241D01*
X80189815Y-103106280D01*
X80173181Y-103126922D01*
X80171505Y-103128597D01*
X80035965Y-103322169D01*
X80035964Y-103322171D01*
X79936098Y-103536335D01*
X79936094Y-103536344D01*
X79874938Y-103764586D01*
X79874936Y-103764596D01*
X79854341Y-103999999D01*
X79854341Y-104000000D01*
X79874936Y-104235403D01*
X79874938Y-104235413D01*
X79936094Y-104463655D01*
X79936096Y-104463659D01*
X79936097Y-104463663D01*
X80020499Y-104644663D01*
X80035965Y-104677830D01*
X80035967Y-104677834D01*
X80171501Y-104871395D01*
X80171506Y-104871402D01*
X80173181Y-104873077D01*
X80173682Y-104873995D01*
X80174982Y-104875544D01*
X80174670Y-104875805D01*
X80206666Y-104934400D01*
X80209500Y-104960758D01*
X80209500Y-107558541D01*
X80209500Y-107558543D01*
X80209499Y-107558543D01*
X80247947Y-107751829D01*
X80247950Y-107751839D01*
X80323364Y-107933907D01*
X80323371Y-107933920D01*
X80432860Y-108097781D01*
X80432863Y-108097785D01*
X80576537Y-108241459D01*
X80576559Y-108241479D01*
X86213181Y-113878101D01*
X86246666Y-113939424D01*
X86249500Y-113965782D01*
X86249500Y-125198541D01*
X86258561Y-125244090D01*
X86258561Y-125244093D01*
X86287947Y-125391830D01*
X86287951Y-125391842D01*
X86310038Y-125445164D01*
X86363366Y-125573911D01*
X86363371Y-125573920D01*
X86472859Y-125737780D01*
X86472860Y-125737781D01*
X86472861Y-125737782D01*
X86612218Y-125877139D01*
X86612219Y-125877139D01*
X86619286Y-125884206D01*
X86619285Y-125884206D01*
X86619289Y-125884209D01*
X90768108Y-130033029D01*
X90801593Y-130094352D01*
X90803955Y-130109901D01*
X90814936Y-130235403D01*
X90814938Y-130235413D01*
X90876094Y-130463655D01*
X90876096Y-130463659D01*
X90876097Y-130463663D01*
X90975965Y-130677830D01*
X90975967Y-130677834D01*
X91001056Y-130713664D01*
X91111505Y-130871401D01*
X91278599Y-131038495D01*
X91369895Y-131102421D01*
X91472165Y-131174032D01*
X91472167Y-131174033D01*
X91472170Y-131174035D01*
X91686337Y-131273903D01*
X91914592Y-131335063D01*
X92091034Y-131350500D01*
X92149999Y-131355659D01*
X92150000Y-131355659D01*
X92150001Y-131355659D01*
X92208966Y-131350500D01*
X92385408Y-131335063D01*
X92613663Y-131273903D01*
X92827830Y-131174035D01*
X93021401Y-131038495D01*
X93188495Y-130871401D01*
X93324035Y-130677830D01*
X93423903Y-130463663D01*
X93485063Y-130235408D01*
X93505659Y-130000000D01*
X93485063Y-129764592D01*
X93423903Y-129536337D01*
X93324035Y-129322171D01*
X93246547Y-129211505D01*
X93188494Y-129128597D01*
X93021402Y-128961506D01*
X93021395Y-128961501D01*
X92827834Y-128825967D01*
X92827830Y-128825965D01*
X92793372Y-128809897D01*
X92613663Y-128726097D01*
X92613659Y-128726096D01*
X92613655Y-128726094D01*
X92385413Y-128664938D01*
X92385403Y-128664936D01*
X92259901Y-128653955D01*
X92194833Y-128628502D01*
X92183029Y-128618108D01*
X88286819Y-124721898D01*
X88253334Y-124660575D01*
X88250500Y-124634217D01*
X88250500Y-121589999D01*
X89754341Y-121589999D01*
X89754341Y-121590000D01*
X89774936Y-121825403D01*
X89774938Y-121825413D01*
X89836094Y-122053655D01*
X89836096Y-122053659D01*
X89836097Y-122053663D01*
X89935965Y-122267830D01*
X89935967Y-122267834D01*
X90071501Y-122461395D01*
X90071506Y-122461402D01*
X90238597Y-122628493D01*
X90238603Y-122628498D01*
X90424158Y-122758425D01*
X90467783Y-122813002D01*
X90474977Y-122882500D01*
X90443454Y-122944855D01*
X90424158Y-122961575D01*
X90238597Y-123091505D01*
X90071505Y-123258597D01*
X89935965Y-123452169D01*
X89935964Y-123452171D01*
X89836098Y-123666335D01*
X89836094Y-123666344D01*
X89774938Y-123894586D01*
X89774936Y-123894596D01*
X89754341Y-124129999D01*
X89754341Y-124130000D01*
X89774936Y-124365403D01*
X89774938Y-124365413D01*
X89836094Y-124593655D01*
X89836096Y-124593659D01*
X89836097Y-124593663D01*
X89931322Y-124797873D01*
X89935965Y-124807830D01*
X89935967Y-124807834D01*
X90027456Y-124938493D01*
X90071505Y-125001401D01*
X90238599Y-125168495D01*
X90274733Y-125193796D01*
X90432165Y-125304032D01*
X90432167Y-125304033D01*
X90432170Y-125304035D01*
X90646337Y-125403903D01*
X90874592Y-125465063D01*
X91062918Y-125481539D01*
X91109999Y-125485659D01*
X91110000Y-125485659D01*
X91110001Y-125485659D01*
X91149234Y-125482226D01*
X91345408Y-125465063D01*
X91573663Y-125403903D01*
X91787830Y-125304035D01*
X91981401Y-125168495D01*
X92148495Y-125001401D01*
X92284035Y-124807830D01*
X92383903Y-124593663D01*
X92445063Y-124365408D01*
X92465659Y-124130000D01*
X92465536Y-124128599D01*
X92446207Y-123907669D01*
X92445536Y-123899999D01*
X96104341Y-123899999D01*
X96104341Y-123900000D01*
X96124936Y-124135403D01*
X96124938Y-124135413D01*
X96186094Y-124363655D01*
X96186096Y-124363659D01*
X96186097Y-124363663D01*
X96266620Y-124536344D01*
X96285965Y-124577830D01*
X96285967Y-124577834D01*
X96386843Y-124721898D01*
X96421505Y-124771401D01*
X96588599Y-124938495D01*
X96676436Y-124999999D01*
X96782165Y-125074032D01*
X96782167Y-125074033D01*
X96782170Y-125074035D01*
X96996337Y-125173903D01*
X97224592Y-125235063D01*
X97401034Y-125250500D01*
X97459999Y-125255659D01*
X97460000Y-125255659D01*
X97460001Y-125255659D01*
X97518966Y-125250500D01*
X97695408Y-125235063D01*
X97923663Y-125173903D01*
X98137830Y-125074035D01*
X98331401Y-124938495D01*
X98453329Y-124816566D01*
X98514648Y-124783084D01*
X98584340Y-124788068D01*
X98640274Y-124829939D01*
X98657189Y-124860917D01*
X98706202Y-124992328D01*
X98706206Y-124992335D01*
X98792452Y-125107544D01*
X98792455Y-125107547D01*
X98907664Y-125193793D01*
X98907671Y-125193797D01*
X99042517Y-125244091D01*
X99042516Y-125244091D01*
X99049444Y-125244835D01*
X99102127Y-125250500D01*
X100897872Y-125250499D01*
X100957483Y-125244091D01*
X101092331Y-125193796D01*
X101207546Y-125107546D01*
X101293796Y-124992331D01*
X101342810Y-124860916D01*
X101384681Y-124804984D01*
X101450145Y-124780566D01*
X101518418Y-124795417D01*
X101546673Y-124816569D01*
X101668599Y-124938495D01*
X101756436Y-124999999D01*
X101862165Y-125074032D01*
X101862167Y-125074033D01*
X101862170Y-125074035D01*
X102076337Y-125173903D01*
X102304592Y-125235063D01*
X102481034Y-125250500D01*
X102539999Y-125255659D01*
X102540000Y-125255659D01*
X102540001Y-125255659D01*
X102598966Y-125250500D01*
X102775408Y-125235063D01*
X103003663Y-125173903D01*
X103217830Y-125074035D01*
X103411401Y-124938495D01*
X103578495Y-124771401D01*
X103714035Y-124577830D01*
X103813903Y-124363663D01*
X103875063Y-124135408D01*
X103895659Y-123900000D01*
X103875063Y-123664592D01*
X103813903Y-123436337D01*
X103714035Y-123222171D01*
X103622540Y-123091501D01*
X103578494Y-123028597D01*
X103411402Y-122861506D01*
X103411395Y-122861501D01*
X103409251Y-122860000D01*
X103334518Y-122807671D01*
X103217834Y-122725967D01*
X103217830Y-122725965D01*
X103217828Y-122725964D01*
X103003663Y-122626097D01*
X103003659Y-122626096D01*
X103003655Y-122626094D01*
X102775413Y-122564938D01*
X102775403Y-122564936D01*
X102540001Y-122544341D01*
X102539999Y-122544341D01*
X102304596Y-122564936D01*
X102304586Y-122564938D01*
X102076344Y-122626094D01*
X102076335Y-122626098D01*
X101862171Y-122725964D01*
X101862169Y-122725965D01*
X101668600Y-122861503D01*
X101546673Y-122983430D01*
X101485350Y-123016914D01*
X101415658Y-123011930D01*
X101359725Y-122970058D01*
X101342810Y-122939081D01*
X101293797Y-122807671D01*
X101293793Y-122807664D01*
X101207547Y-122692455D01*
X101207544Y-122692452D01*
X101092335Y-122606206D01*
X101092328Y-122606202D01*
X100957482Y-122555908D01*
X100957483Y-122555908D01*
X100897883Y-122549501D01*
X100897881Y-122549500D01*
X100897873Y-122549500D01*
X100897864Y-122549500D01*
X99102129Y-122549500D01*
X99102123Y-122549501D01*
X99042516Y-122555908D01*
X98907671Y-122606202D01*
X98907664Y-122606206D01*
X98792455Y-122692452D01*
X98792452Y-122692455D01*
X98706206Y-122807664D01*
X98706203Y-122807669D01*
X98657189Y-122939083D01*
X98615317Y-122995016D01*
X98549853Y-123019433D01*
X98481580Y-123004581D01*
X98453326Y-122983430D01*
X98331402Y-122861506D01*
X98331395Y-122861501D01*
X98329251Y-122860000D01*
X98254518Y-122807671D01*
X98137834Y-122725967D01*
X98137830Y-122725965D01*
X98137828Y-122725964D01*
X97923663Y-122626097D01*
X97923659Y-122626096D01*
X97923655Y-122626094D01*
X97695413Y-122564938D01*
X97695403Y-122564936D01*
X97460001Y-122544341D01*
X97459999Y-122544341D01*
X97224596Y-122564936D01*
X97224586Y-122564938D01*
X96996344Y-122626094D01*
X96996335Y-122626098D01*
X96782171Y-122725964D01*
X96782169Y-122725965D01*
X96588597Y-122861505D01*
X96421505Y-123028597D01*
X96285965Y-123222169D01*
X96285964Y-123222171D01*
X96186098Y-123436335D01*
X96186094Y-123436344D01*
X96124938Y-123664586D01*
X96124936Y-123664596D01*
X96104341Y-123899999D01*
X92445536Y-123899999D01*
X92445063Y-123894592D01*
X92383903Y-123666337D01*
X92284035Y-123452171D01*
X92148495Y-123258599D01*
X92148494Y-123258597D01*
X91981402Y-123091506D01*
X91981396Y-123091501D01*
X91795842Y-122961575D01*
X91752217Y-122906998D01*
X91745023Y-122837500D01*
X91776546Y-122775145D01*
X91795842Y-122758425D01*
X91842197Y-122725967D01*
X91981401Y-122628495D01*
X92148495Y-122461401D01*
X92284035Y-122267830D01*
X92383903Y-122053663D01*
X92445063Y-121825408D01*
X92465659Y-121590000D01*
X92465659Y-121589999D01*
X107534341Y-121589999D01*
X107534341Y-121590000D01*
X107554936Y-121825403D01*
X107554938Y-121825413D01*
X107616094Y-122053655D01*
X107616096Y-122053659D01*
X107616097Y-122053663D01*
X107715965Y-122267830D01*
X107715967Y-122267834D01*
X107851501Y-122461395D01*
X107851506Y-122461402D01*
X108018597Y-122628493D01*
X108018603Y-122628498D01*
X108204158Y-122758425D01*
X108247783Y-122813002D01*
X108254977Y-122882500D01*
X108223454Y-122944855D01*
X108204158Y-122961575D01*
X108018597Y-123091505D01*
X107851505Y-123258597D01*
X107715965Y-123452169D01*
X107715964Y-123452171D01*
X107616098Y-123666335D01*
X107616094Y-123666344D01*
X107554938Y-123894586D01*
X107554936Y-123894596D01*
X107534341Y-124129999D01*
X107534341Y-124130000D01*
X107554936Y-124365403D01*
X107554938Y-124365413D01*
X107616094Y-124593655D01*
X107616096Y-124593659D01*
X107616097Y-124593663D01*
X107711322Y-124797873D01*
X107715965Y-124807830D01*
X107715967Y-124807834D01*
X107807456Y-124938493D01*
X107851505Y-125001401D01*
X108018599Y-125168495D01*
X108054733Y-125193796D01*
X108212165Y-125304032D01*
X108212167Y-125304033D01*
X108212170Y-125304035D01*
X108426337Y-125403903D01*
X108654592Y-125465063D01*
X108842918Y-125481539D01*
X108889999Y-125485659D01*
X108890000Y-125485659D01*
X108890001Y-125485659D01*
X108929234Y-125482226D01*
X109125408Y-125465063D01*
X109353663Y-125403903D01*
X109567830Y-125304035D01*
X109761401Y-125168495D01*
X109928495Y-125001401D01*
X110064035Y-124807830D01*
X110163903Y-124593663D01*
X110225063Y-124365408D01*
X110245659Y-124130000D01*
X110245536Y-124128599D01*
X110226207Y-123907669D01*
X110225063Y-123894592D01*
X110163903Y-123666337D01*
X110064035Y-123452171D01*
X109928495Y-123258599D01*
X109928494Y-123258597D01*
X109761402Y-123091506D01*
X109761396Y-123091501D01*
X109575842Y-122961575D01*
X109532217Y-122906998D01*
X109525023Y-122837500D01*
X109556546Y-122775145D01*
X109575842Y-122758425D01*
X109622197Y-122725967D01*
X109761401Y-122628495D01*
X109928495Y-122461401D01*
X110064035Y-122267830D01*
X110163903Y-122053663D01*
X110225063Y-121825408D01*
X110245659Y-121590000D01*
X110225063Y-121354592D01*
X110163903Y-121126337D01*
X110064035Y-120912171D01*
X109960703Y-120764596D01*
X109928494Y-120718597D01*
X109761402Y-120551506D01*
X109761395Y-120551501D01*
X109567834Y-120415967D01*
X109567830Y-120415965D01*
X109437813Y-120355337D01*
X109353663Y-120316097D01*
X109353659Y-120316096D01*
X109353655Y-120316094D01*
X109125413Y-120254938D01*
X109125403Y-120254936D01*
X108890001Y-120234341D01*
X108889999Y-120234341D01*
X108654596Y-120254936D01*
X108654586Y-120254938D01*
X108426344Y-120316094D01*
X108426335Y-120316098D01*
X108212171Y-120415964D01*
X108212169Y-120415965D01*
X108018597Y-120551505D01*
X107851505Y-120718597D01*
X107715965Y-120912169D01*
X107715964Y-120912171D01*
X107616098Y-121126335D01*
X107616094Y-121126344D01*
X107554938Y-121354586D01*
X107554936Y-121354596D01*
X107534341Y-121589999D01*
X92465659Y-121589999D01*
X92445063Y-121354592D01*
X92383903Y-121126337D01*
X92284035Y-120912171D01*
X92180703Y-120764596D01*
X92148494Y-120718597D01*
X91981402Y-120551506D01*
X91981395Y-120551501D01*
X91787834Y-120415967D01*
X91787830Y-120415965D01*
X91657813Y-120355337D01*
X91573663Y-120316097D01*
X91573659Y-120316096D01*
X91573655Y-120316094D01*
X91345413Y-120254938D01*
X91345403Y-120254936D01*
X91110001Y-120234341D01*
X91109999Y-120234341D01*
X90874596Y-120254936D01*
X90874586Y-120254938D01*
X90646344Y-120316094D01*
X90646335Y-120316098D01*
X90432171Y-120415964D01*
X90432169Y-120415965D01*
X90238597Y-120551505D01*
X90071505Y-120718597D01*
X89935965Y-120912169D01*
X89935964Y-120912171D01*
X89836098Y-121126335D01*
X89836094Y-121126344D01*
X89774938Y-121354586D01*
X89774936Y-121354596D01*
X89754341Y-121589999D01*
X88250500Y-121589999D01*
X88250500Y-113401456D01*
X88212052Y-113208170D01*
X88212051Y-113208169D01*
X88212051Y-113208165D01*
X88166667Y-113098597D01*
X88136635Y-113026092D01*
X88136628Y-113026079D01*
X88027139Y-112862218D01*
X88027136Y-112862214D01*
X87884686Y-112719764D01*
X87884655Y-112719735D01*
X84054919Y-108889999D01*
X89754341Y-108889999D01*
X89754341Y-108890000D01*
X89774936Y-109125403D01*
X89774938Y-109125413D01*
X89836094Y-109353655D01*
X89836096Y-109353659D01*
X89836097Y-109353663D01*
X89935965Y-109567830D01*
X89935967Y-109567834D01*
X90071501Y-109761395D01*
X90071506Y-109761402D01*
X90238597Y-109928493D01*
X90238603Y-109928498D01*
X90424158Y-110058425D01*
X90467783Y-110113002D01*
X90474977Y-110182500D01*
X90443454Y-110244855D01*
X90424158Y-110261575D01*
X90238597Y-110391505D01*
X90071505Y-110558597D01*
X89935965Y-110752169D01*
X89935964Y-110752171D01*
X89836098Y-110966335D01*
X89836094Y-110966344D01*
X89774938Y-111194586D01*
X89774936Y-111194596D01*
X89754341Y-111429999D01*
X89754341Y-111430000D01*
X89774936Y-111665403D01*
X89774938Y-111665413D01*
X89836094Y-111893655D01*
X89836096Y-111893659D01*
X89836097Y-111893663D01*
X89935965Y-112107830D01*
X89935967Y-112107834D01*
X90071501Y-112301395D01*
X90071506Y-112301402D01*
X90238597Y-112468493D01*
X90238603Y-112468498D01*
X90424158Y-112598425D01*
X90467783Y-112653002D01*
X90474977Y-112722500D01*
X90443454Y-112784855D01*
X90424158Y-112801575D01*
X90238597Y-112931505D01*
X90071505Y-113098597D01*
X89935965Y-113292169D01*
X89935964Y-113292171D01*
X89836098Y-113506335D01*
X89836094Y-113506344D01*
X89774938Y-113734586D01*
X89774936Y-113734596D01*
X89754341Y-113969999D01*
X89754341Y-113970000D01*
X89774936Y-114205403D01*
X89774938Y-114205413D01*
X89836094Y-114433655D01*
X89836096Y-114433659D01*
X89836097Y-114433663D01*
X89935965Y-114647830D01*
X89935967Y-114647834D01*
X90071501Y-114841395D01*
X90071506Y-114841402D01*
X90238597Y-115008493D01*
X90238603Y-115008498D01*
X90424158Y-115138425D01*
X90467783Y-115193002D01*
X90474977Y-115262500D01*
X90443454Y-115324855D01*
X90424158Y-115341575D01*
X90238597Y-115471505D01*
X90071505Y-115638597D01*
X89935965Y-115832169D01*
X89935964Y-115832171D01*
X89836098Y-116046335D01*
X89836094Y-116046344D01*
X89774938Y-116274586D01*
X89774936Y-116274596D01*
X89754341Y-116509999D01*
X89754341Y-116510000D01*
X89774936Y-116745403D01*
X89774938Y-116745413D01*
X89836094Y-116973655D01*
X89836096Y-116973659D01*
X89836097Y-116973663D01*
X89935965Y-117187830D01*
X89935967Y-117187834D01*
X90044281Y-117342521D01*
X90071505Y-117381401D01*
X90238599Y-117548495D01*
X90335384Y-117616265D01*
X90432165Y-117684032D01*
X90432167Y-117684033D01*
X90432170Y-117684035D01*
X90646337Y-117783903D01*
X90874592Y-117845063D01*
X91062918Y-117861539D01*
X91109999Y-117865659D01*
X91110000Y-117865659D01*
X91110001Y-117865659D01*
X91149234Y-117862226D01*
X91345408Y-117845063D01*
X91573663Y-117783903D01*
X91787830Y-117684035D01*
X91981401Y-117548495D01*
X92148495Y-117381401D01*
X92284035Y-117187830D01*
X92383903Y-116973663D01*
X92445063Y-116745408D01*
X92465659Y-116510000D01*
X92445063Y-116274592D01*
X92383903Y-116046337D01*
X92284035Y-115832171D01*
X92209763Y-115726098D01*
X92148494Y-115638597D01*
X91981402Y-115471506D01*
X91981396Y-115471501D01*
X91795842Y-115341575D01*
X91752217Y-115286998D01*
X91745023Y-115217500D01*
X91776546Y-115155145D01*
X91795842Y-115138425D01*
X91818026Y-115122891D01*
X91981401Y-115008495D01*
X92148495Y-114841401D01*
X92284035Y-114647830D01*
X92383903Y-114433663D01*
X92445063Y-114205408D01*
X92465659Y-113970000D01*
X92445063Y-113734592D01*
X92383903Y-113506337D01*
X92284035Y-113292171D01*
X92225218Y-113208170D01*
X92148494Y-113098597D01*
X91981402Y-112931506D01*
X91981396Y-112931501D01*
X91795842Y-112801575D01*
X91752217Y-112746998D01*
X91745023Y-112677500D01*
X91776546Y-112615145D01*
X91795842Y-112598425D01*
X91818026Y-112582891D01*
X91981401Y-112468495D01*
X92148495Y-112301401D01*
X92284035Y-112107830D01*
X92383903Y-111893663D01*
X92445063Y-111665408D01*
X92465659Y-111430000D01*
X92445063Y-111194592D01*
X92383903Y-110966337D01*
X92284035Y-110752171D01*
X92148495Y-110558599D01*
X92148494Y-110558597D01*
X91981402Y-110391506D01*
X91981396Y-110391501D01*
X91795842Y-110261575D01*
X91752217Y-110206998D01*
X91745023Y-110137500D01*
X91776546Y-110075145D01*
X91795842Y-110058425D01*
X91818026Y-110042891D01*
X91981401Y-109928495D01*
X92148495Y-109761401D01*
X92284035Y-109567830D01*
X92383903Y-109353663D01*
X92445063Y-109125408D01*
X92465659Y-108890000D01*
X92465659Y-108889999D01*
X107534341Y-108889999D01*
X107534341Y-108890000D01*
X107554936Y-109125403D01*
X107554938Y-109125413D01*
X107616094Y-109353655D01*
X107616096Y-109353659D01*
X107616097Y-109353663D01*
X107715965Y-109567830D01*
X107715967Y-109567834D01*
X107851501Y-109761395D01*
X107851506Y-109761402D01*
X108018597Y-109928493D01*
X108018603Y-109928498D01*
X108204158Y-110058425D01*
X108247783Y-110113002D01*
X108254977Y-110182500D01*
X108223454Y-110244855D01*
X108204158Y-110261575D01*
X108018597Y-110391505D01*
X107851505Y-110558597D01*
X107715965Y-110752169D01*
X107715964Y-110752171D01*
X107616098Y-110966335D01*
X107616094Y-110966344D01*
X107554938Y-111194586D01*
X107554936Y-111194596D01*
X107534341Y-111429999D01*
X107534341Y-111430000D01*
X107554936Y-111665403D01*
X107554938Y-111665413D01*
X107616094Y-111893655D01*
X107616096Y-111893659D01*
X107616097Y-111893663D01*
X107715965Y-112107830D01*
X107715967Y-112107834D01*
X107851501Y-112301395D01*
X107851506Y-112301402D01*
X108018597Y-112468493D01*
X108018603Y-112468498D01*
X108204158Y-112598425D01*
X108247783Y-112653002D01*
X108254977Y-112722500D01*
X108223454Y-112784855D01*
X108204158Y-112801575D01*
X108018597Y-112931505D01*
X107851505Y-113098597D01*
X107715965Y-113292169D01*
X107715964Y-113292171D01*
X107616098Y-113506335D01*
X107616094Y-113506344D01*
X107554938Y-113734586D01*
X107554936Y-113734596D01*
X107534341Y-113969999D01*
X107534341Y-113970000D01*
X107554936Y-114205403D01*
X107554938Y-114205413D01*
X107616094Y-114433655D01*
X107616096Y-114433659D01*
X107616097Y-114433663D01*
X107715965Y-114647830D01*
X107715967Y-114647834D01*
X107851501Y-114841395D01*
X107851506Y-114841402D01*
X108018597Y-115008493D01*
X108018603Y-115008498D01*
X108204158Y-115138425D01*
X108247783Y-115193002D01*
X108254977Y-115262500D01*
X108223454Y-115324855D01*
X108204158Y-115341575D01*
X108018597Y-115471505D01*
X107851505Y-115638597D01*
X107715965Y-115832169D01*
X107715964Y-115832171D01*
X107616098Y-116046335D01*
X107616094Y-116046344D01*
X107554938Y-116274586D01*
X107554936Y-116274596D01*
X107534341Y-116509999D01*
X107534341Y-116510000D01*
X107554936Y-116745403D01*
X107554938Y-116745413D01*
X107616094Y-116973655D01*
X107616096Y-116973659D01*
X107616097Y-116973663D01*
X107715965Y-117187830D01*
X107715967Y-117187834D01*
X107824281Y-117342521D01*
X107851505Y-117381401D01*
X108018599Y-117548495D01*
X108115384Y-117616265D01*
X108212165Y-117684032D01*
X108212167Y-117684033D01*
X108212170Y-117684035D01*
X108426337Y-117783903D01*
X108654592Y-117845063D01*
X108842918Y-117861539D01*
X108889999Y-117865659D01*
X108890000Y-117865659D01*
X108890001Y-117865659D01*
X108929234Y-117862226D01*
X109125408Y-117845063D01*
X109353663Y-117783903D01*
X109567830Y-117684035D01*
X109761401Y-117548495D01*
X109928495Y-117381401D01*
X110064035Y-117187830D01*
X110163903Y-116973663D01*
X110225063Y-116745408D01*
X110245659Y-116510000D01*
X110225063Y-116274592D01*
X110163903Y-116046337D01*
X110064035Y-115832171D01*
X109989763Y-115726098D01*
X109928494Y-115638597D01*
X109761402Y-115471506D01*
X109761396Y-115471501D01*
X109575842Y-115341575D01*
X109532217Y-115286998D01*
X109525023Y-115217500D01*
X109556546Y-115155145D01*
X109575842Y-115138425D01*
X109598026Y-115122891D01*
X109761401Y-115008495D01*
X109928495Y-114841401D01*
X110064035Y-114647830D01*
X110163903Y-114433663D01*
X110225063Y-114205408D01*
X110245659Y-113970000D01*
X110225063Y-113734592D01*
X110163903Y-113506337D01*
X110064035Y-113292171D01*
X110005218Y-113208170D01*
X109928494Y-113098597D01*
X109761402Y-112931506D01*
X109761396Y-112931501D01*
X109575842Y-112801575D01*
X109532217Y-112746998D01*
X109525023Y-112677500D01*
X109556546Y-112615145D01*
X109575842Y-112598425D01*
X109598026Y-112582891D01*
X109761401Y-112468495D01*
X109928495Y-112301401D01*
X110064035Y-112107830D01*
X110163903Y-111893663D01*
X110225063Y-111665408D01*
X110245659Y-111430000D01*
X110225063Y-111194592D01*
X110163903Y-110966337D01*
X110064035Y-110752171D01*
X109928495Y-110558599D01*
X109928494Y-110558597D01*
X109761402Y-110391506D01*
X109761396Y-110391501D01*
X109575842Y-110261575D01*
X109532217Y-110206998D01*
X109525023Y-110137500D01*
X109556546Y-110075145D01*
X109575842Y-110058425D01*
X109598026Y-110042891D01*
X109761401Y-109928495D01*
X109928495Y-109761401D01*
X110064035Y-109567830D01*
X110163903Y-109353663D01*
X110225063Y-109125408D01*
X110245659Y-108890000D01*
X110225063Y-108654592D01*
X110163903Y-108426337D01*
X110064035Y-108212171D01*
X109983942Y-108097785D01*
X109928494Y-108018597D01*
X109761402Y-107851506D01*
X109761395Y-107851501D01*
X109567834Y-107715967D01*
X109567830Y-107715965D01*
X109567828Y-107715964D01*
X109353663Y-107616097D01*
X109353659Y-107616096D01*
X109353655Y-107616094D01*
X109125413Y-107554938D01*
X109125403Y-107554936D01*
X108890001Y-107534341D01*
X108889999Y-107534341D01*
X108654596Y-107554936D01*
X108654586Y-107554938D01*
X108426344Y-107616094D01*
X108426335Y-107616098D01*
X108212171Y-107715964D01*
X108212169Y-107715965D01*
X108018597Y-107851505D01*
X107851505Y-108018597D01*
X107715965Y-108212169D01*
X107715964Y-108212171D01*
X107616098Y-108426335D01*
X107616094Y-108426344D01*
X107554938Y-108654586D01*
X107554936Y-108654596D01*
X107534341Y-108889999D01*
X92465659Y-108889999D01*
X92445063Y-108654592D01*
X92383903Y-108426337D01*
X92284035Y-108212171D01*
X92203942Y-108097785D01*
X92148494Y-108018597D01*
X91981402Y-107851506D01*
X91981395Y-107851501D01*
X91787834Y-107715967D01*
X91787830Y-107715965D01*
X91787828Y-107715964D01*
X91573663Y-107616097D01*
X91573659Y-107616096D01*
X91573655Y-107616094D01*
X91345413Y-107554938D01*
X91345403Y-107554936D01*
X91110001Y-107534341D01*
X91109999Y-107534341D01*
X90874596Y-107554936D01*
X90874586Y-107554938D01*
X90646344Y-107616094D01*
X90646335Y-107616098D01*
X90432171Y-107715964D01*
X90432169Y-107715965D01*
X90238597Y-107851505D01*
X90071505Y-108018597D01*
X89935965Y-108212169D01*
X89935964Y-108212171D01*
X89836098Y-108426335D01*
X89836094Y-108426344D01*
X89774938Y-108654586D01*
X89774936Y-108654596D01*
X89754341Y-108889999D01*
X84054919Y-108889999D01*
X82246819Y-107081899D01*
X82213334Y-107020576D01*
X82210500Y-106994218D01*
X82210500Y-105120859D01*
X82230185Y-105053820D01*
X82282989Y-105008065D01*
X82352147Y-104998121D01*
X82415703Y-105027146D01*
X82450681Y-105077525D01*
X82453060Y-105083901D01*
X82456204Y-105092332D01*
X82456206Y-105092335D01*
X82542452Y-105207544D01*
X82542455Y-105207547D01*
X82657664Y-105293793D01*
X82657671Y-105293797D01*
X82792517Y-105344091D01*
X82792516Y-105344091D01*
X82799444Y-105344835D01*
X82852127Y-105350500D01*
X84647872Y-105350499D01*
X84707483Y-105344091D01*
X84842331Y-105293796D01*
X84957546Y-105207546D01*
X85043796Y-105092331D01*
X85094091Y-104957483D01*
X85100500Y-104897873D01*
X85100499Y-103102128D01*
X85094091Y-103042517D01*
X85092869Y-103039241D01*
X85043797Y-102907671D01*
X85043793Y-102907664D01*
X84957547Y-102792455D01*
X84957544Y-102792452D01*
X84842335Y-102706206D01*
X84842328Y-102706202D01*
X84707482Y-102655908D01*
X84707483Y-102655908D01*
X84647883Y-102649501D01*
X84647881Y-102649500D01*
X84647873Y-102649500D01*
X84647864Y-102649500D01*
X82852129Y-102649500D01*
X82852123Y-102649501D01*
X82792516Y-102655908D01*
X82657671Y-102706202D01*
X82657664Y-102706206D01*
X82542455Y-102792452D01*
X82542452Y-102792455D01*
X82456206Y-102907664D01*
X82456202Y-102907671D01*
X82450682Y-102922473D01*
X82408811Y-102978407D01*
X82343346Y-103002824D01*
X82275073Y-102987972D01*
X82225668Y-102938567D01*
X82210500Y-102879140D01*
X82210500Y-101120859D01*
X82230185Y-101053820D01*
X82282989Y-101008065D01*
X82352147Y-100998121D01*
X82415703Y-101027146D01*
X82450681Y-101077525D01*
X82453921Y-101086211D01*
X82456204Y-101092332D01*
X82456206Y-101092335D01*
X82542452Y-101207544D01*
X82542455Y-101207547D01*
X82657664Y-101293793D01*
X82657671Y-101293797D01*
X82792517Y-101344091D01*
X82792516Y-101344091D01*
X82799444Y-101344835D01*
X82852127Y-101350500D01*
X84647872Y-101350499D01*
X84707483Y-101344091D01*
X84842331Y-101293796D01*
X84957546Y-101207546D01*
X85043796Y-101092331D01*
X85094091Y-100957483D01*
X85100500Y-100897873D01*
X85100499Y-99102128D01*
X85094091Y-99042517D01*
X85092869Y-99039241D01*
X85043797Y-98907671D01*
X85043793Y-98907664D01*
X84957547Y-98792455D01*
X84957544Y-98792452D01*
X84842335Y-98706206D01*
X84842328Y-98706202D01*
X84707482Y-98655908D01*
X84707483Y-98655908D01*
X84647883Y-98649501D01*
X84647881Y-98649500D01*
X84647873Y-98649500D01*
X84647864Y-98649500D01*
X82852129Y-98649500D01*
X82852123Y-98649501D01*
X82792516Y-98655908D01*
X82657671Y-98706202D01*
X82657664Y-98706206D01*
X82542455Y-98792452D01*
X82542452Y-98792455D01*
X82456206Y-98907664D01*
X82456202Y-98907671D01*
X82450682Y-98922473D01*
X82408811Y-98978407D01*
X82343346Y-99002824D01*
X82275073Y-98987972D01*
X82225668Y-98938567D01*
X82210500Y-98879140D01*
X82210500Y-97120859D01*
X82230185Y-97053820D01*
X82282989Y-97008065D01*
X82352147Y-96998121D01*
X82415703Y-97027146D01*
X82450681Y-97077525D01*
X82453921Y-97086211D01*
X82456204Y-97092332D01*
X82456206Y-97092335D01*
X82542452Y-97207544D01*
X82542455Y-97207547D01*
X82657664Y-97293793D01*
X82657671Y-97293797D01*
X82792517Y-97344091D01*
X82792516Y-97344091D01*
X82799444Y-97344835D01*
X82852127Y-97350500D01*
X84647872Y-97350499D01*
X84707483Y-97344091D01*
X84842331Y-97293796D01*
X84957546Y-97207546D01*
X85043796Y-97092331D01*
X85094091Y-96957483D01*
X85100500Y-96897873D01*
X85100500Y-96189999D01*
X89754341Y-96189999D01*
X89754341Y-96190000D01*
X89774936Y-96425403D01*
X89774938Y-96425413D01*
X89836094Y-96653655D01*
X89836096Y-96653659D01*
X89836097Y-96653663D01*
X89935965Y-96867830D01*
X89935967Y-96867834D01*
X90071501Y-97061395D01*
X90071506Y-97061402D01*
X90238597Y-97228493D01*
X90238603Y-97228498D01*
X90424158Y-97358425D01*
X90467783Y-97413002D01*
X90474977Y-97482500D01*
X90443454Y-97544855D01*
X90424158Y-97561575D01*
X90238597Y-97691505D01*
X90071505Y-97858597D01*
X89935965Y-98052169D01*
X89935964Y-98052171D01*
X89836098Y-98266335D01*
X89836094Y-98266344D01*
X89774938Y-98494586D01*
X89774936Y-98494596D01*
X89754341Y-98729999D01*
X89754341Y-98730000D01*
X89774936Y-98965403D01*
X89774938Y-98965413D01*
X89836094Y-99193655D01*
X89836096Y-99193659D01*
X89836097Y-99193663D01*
X89911486Y-99355335D01*
X89935965Y-99407830D01*
X89935967Y-99407834D01*
X90071501Y-99601395D01*
X90071506Y-99601402D01*
X90238597Y-99768493D01*
X90238603Y-99768498D01*
X90424158Y-99898425D01*
X90467783Y-99953002D01*
X90474977Y-100022500D01*
X90443454Y-100084855D01*
X90424158Y-100101575D01*
X90238597Y-100231505D01*
X90071505Y-100398597D01*
X89935965Y-100592169D01*
X89935964Y-100592171D01*
X89836098Y-100806335D01*
X89836094Y-100806344D01*
X89774938Y-101034586D01*
X89774936Y-101034596D01*
X89754341Y-101269999D01*
X89754341Y-101270000D01*
X89774936Y-101505403D01*
X89774938Y-101505413D01*
X89836094Y-101733655D01*
X89836096Y-101733659D01*
X89836097Y-101733663D01*
X89935965Y-101947830D01*
X89935967Y-101947834D01*
X90071501Y-102141395D01*
X90071506Y-102141402D01*
X90238597Y-102308493D01*
X90238603Y-102308498D01*
X90424158Y-102438425D01*
X90467783Y-102493002D01*
X90474977Y-102562500D01*
X90443454Y-102624855D01*
X90424158Y-102641575D01*
X90238597Y-102771505D01*
X90071505Y-102938597D01*
X89935965Y-103132169D01*
X89935964Y-103132171D01*
X89836098Y-103346335D01*
X89836094Y-103346344D01*
X89774938Y-103574586D01*
X89774936Y-103574596D01*
X89754341Y-103809999D01*
X89754341Y-103810000D01*
X89774936Y-104045403D01*
X89774938Y-104045413D01*
X89836094Y-104273655D01*
X89836096Y-104273659D01*
X89836097Y-104273663D01*
X89924692Y-104463655D01*
X89935965Y-104487830D01*
X89935967Y-104487834D01*
X90044281Y-104642521D01*
X90071505Y-104681401D01*
X90238599Y-104848495D01*
X90325575Y-104909396D01*
X90432165Y-104984032D01*
X90432167Y-104984033D01*
X90432170Y-104984035D01*
X90646337Y-105083903D01*
X90874592Y-105145063D01*
X91062918Y-105161539D01*
X91109999Y-105165659D01*
X91110000Y-105165659D01*
X91110001Y-105165659D01*
X91149234Y-105162226D01*
X91345408Y-105145063D01*
X91573663Y-105083903D01*
X91787830Y-104984035D01*
X91981401Y-104848495D01*
X92148495Y-104681401D01*
X92284035Y-104487830D01*
X92383903Y-104273663D01*
X92445063Y-104045408D01*
X92465659Y-103810000D01*
X92445063Y-103574592D01*
X92383903Y-103346337D01*
X92284035Y-103132171D01*
X92281533Y-103128597D01*
X92148494Y-102938597D01*
X91981402Y-102771506D01*
X91981396Y-102771501D01*
X91795842Y-102641575D01*
X91752217Y-102586998D01*
X91745023Y-102517500D01*
X91776546Y-102455145D01*
X91795842Y-102438425D01*
X91818026Y-102422891D01*
X91981401Y-102308495D01*
X92148495Y-102141401D01*
X92284035Y-101947830D01*
X92383903Y-101733663D01*
X92445063Y-101505408D01*
X92465659Y-101270000D01*
X92445063Y-101034592D01*
X92383903Y-100806337D01*
X92284035Y-100592171D01*
X92194054Y-100463663D01*
X92148494Y-100398597D01*
X91981402Y-100231506D01*
X91981396Y-100231501D01*
X91795842Y-100101575D01*
X91752217Y-100046998D01*
X91745023Y-99977500D01*
X91776546Y-99915145D01*
X91795842Y-99898425D01*
X91818026Y-99882891D01*
X91981401Y-99768495D01*
X92148495Y-99601401D01*
X92284035Y-99407830D01*
X92383903Y-99193663D01*
X92445063Y-98965408D01*
X92465659Y-98730000D01*
X92445063Y-98494592D01*
X92383903Y-98266337D01*
X92284035Y-98052171D01*
X92234361Y-97981228D01*
X92148494Y-97858597D01*
X91981402Y-97691506D01*
X91981396Y-97691501D01*
X91795842Y-97561575D01*
X91752217Y-97506998D01*
X91745023Y-97437500D01*
X91776546Y-97375145D01*
X91795842Y-97358425D01*
X91888140Y-97293797D01*
X91981401Y-97228495D01*
X92148495Y-97061401D01*
X92284035Y-96867830D01*
X92383903Y-96653663D01*
X92445063Y-96425408D01*
X92465659Y-96190000D01*
X92445063Y-95954592D01*
X92383903Y-95726337D01*
X92284035Y-95512171D01*
X92174220Y-95355337D01*
X92148494Y-95318597D01*
X91981402Y-95151506D01*
X91981395Y-95151501D01*
X91787834Y-95015967D01*
X91787830Y-95015965D01*
X91787828Y-95015964D01*
X91573663Y-94916097D01*
X91573659Y-94916096D01*
X91573655Y-94916094D01*
X91345413Y-94854938D01*
X91345403Y-94854936D01*
X91110001Y-94834341D01*
X91109999Y-94834341D01*
X90874596Y-94854936D01*
X90874586Y-94854938D01*
X90646344Y-94916094D01*
X90646335Y-94916098D01*
X90432171Y-95015964D01*
X90432169Y-95015965D01*
X90238597Y-95151505D01*
X90071505Y-95318597D01*
X89935965Y-95512169D01*
X89935964Y-95512171D01*
X89836098Y-95726335D01*
X89836094Y-95726344D01*
X89774938Y-95954586D01*
X89774936Y-95954596D01*
X89754341Y-96189999D01*
X85100500Y-96189999D01*
X85100499Y-95102128D01*
X85094091Y-95042517D01*
X85092810Y-95039083D01*
X85043797Y-94907671D01*
X85043793Y-94907664D01*
X84957547Y-94792455D01*
X84957544Y-94792452D01*
X84842335Y-94706206D01*
X84842328Y-94706202D01*
X84707482Y-94655908D01*
X84707483Y-94655908D01*
X84647883Y-94649501D01*
X84647881Y-94649500D01*
X84647873Y-94649500D01*
X84647864Y-94649500D01*
X82852129Y-94649500D01*
X82852123Y-94649501D01*
X82792516Y-94655908D01*
X82657671Y-94706202D01*
X82657664Y-94706206D01*
X82542455Y-94792452D01*
X82542452Y-94792455D01*
X82456206Y-94907664D01*
X82456203Y-94907669D01*
X82407189Y-95039083D01*
X82365317Y-95095016D01*
X82299853Y-95119433D01*
X82231580Y-95104581D01*
X82203326Y-95083430D01*
X82081402Y-94961506D01*
X82081395Y-94961501D01*
X81887834Y-94825967D01*
X81887830Y-94825965D01*
X81868883Y-94817130D01*
X81673663Y-94726097D01*
X81673659Y-94726096D01*
X81673655Y-94726094D01*
X81445413Y-94664938D01*
X81445403Y-94664936D01*
X81210001Y-94644341D01*
X81209999Y-94644341D01*
X80974596Y-94664936D01*
X80974586Y-94664938D01*
X80746344Y-94726094D01*
X80746335Y-94726098D01*
X80532171Y-94825964D01*
X80532169Y-94825965D01*
X80338597Y-94961505D01*
X80171505Y-95128597D01*
X80035965Y-95322169D01*
X80035964Y-95322171D01*
X79936098Y-95536335D01*
X79936094Y-95536344D01*
X79874938Y-95764586D01*
X79874936Y-95764596D01*
X79854341Y-95999999D01*
X76500500Y-95999999D01*
X76500500Y-83999999D01*
X79854341Y-83999999D01*
X79854341Y-84000000D01*
X79874936Y-84235403D01*
X79874938Y-84235413D01*
X79936094Y-84463655D01*
X79936096Y-84463659D01*
X79936097Y-84463663D01*
X79996095Y-84592328D01*
X80035965Y-84677830D01*
X80035967Y-84677834D01*
X80109256Y-84782500D01*
X80171505Y-84871401D01*
X80338599Y-85038495D01*
X80435384Y-85106265D01*
X80532165Y-85174032D01*
X80532167Y-85174033D01*
X80532170Y-85174035D01*
X80746337Y-85273903D01*
X80974592Y-85335063D01*
X81151034Y-85350500D01*
X81209999Y-85355659D01*
X81210000Y-85355659D01*
X81210001Y-85355659D01*
X81268966Y-85350500D01*
X81445408Y-85335063D01*
X81673663Y-85273903D01*
X81887830Y-85174035D01*
X82081401Y-85038495D01*
X82203329Y-84916566D01*
X82264648Y-84883084D01*
X82334340Y-84888068D01*
X82390274Y-84929939D01*
X82407189Y-84960917D01*
X82456202Y-85092328D01*
X82456206Y-85092335D01*
X82542452Y-85207544D01*
X82542455Y-85207547D01*
X82657664Y-85293793D01*
X82657671Y-85293797D01*
X82792517Y-85344091D01*
X82792516Y-85344091D01*
X82799444Y-85344835D01*
X82852127Y-85350500D01*
X84647872Y-85350499D01*
X84707483Y-85344091D01*
X84842331Y-85293796D01*
X84957546Y-85207546D01*
X85043796Y-85092331D01*
X85094091Y-84957483D01*
X85100500Y-84897873D01*
X85100499Y-83489999D01*
X89754341Y-83489999D01*
X89754341Y-83490000D01*
X89774936Y-83725403D01*
X89774938Y-83725413D01*
X89836094Y-83953655D01*
X89836096Y-83953659D01*
X89836097Y-83953663D01*
X89935965Y-84167830D01*
X89935967Y-84167834D01*
X90071501Y-84361395D01*
X90071506Y-84361402D01*
X90238597Y-84528493D01*
X90238603Y-84528498D01*
X90424158Y-84658425D01*
X90467783Y-84713002D01*
X90474977Y-84782500D01*
X90443454Y-84844855D01*
X90424158Y-84861575D01*
X90238597Y-84991505D01*
X90071505Y-85158597D01*
X89935965Y-85352169D01*
X89935964Y-85352171D01*
X89836098Y-85566335D01*
X89836094Y-85566344D01*
X89774938Y-85794586D01*
X89774936Y-85794596D01*
X89754341Y-86029999D01*
X89754341Y-86030000D01*
X89774936Y-86265403D01*
X89774938Y-86265413D01*
X89836094Y-86493655D01*
X89836096Y-86493659D01*
X89836097Y-86493663D01*
X89935965Y-86707830D01*
X89935967Y-86707834D01*
X90071501Y-86901395D01*
X90071506Y-86901402D01*
X90238597Y-87068493D01*
X90238603Y-87068498D01*
X90424158Y-87198425D01*
X90467783Y-87253002D01*
X90474977Y-87322500D01*
X90443454Y-87384855D01*
X90424158Y-87401575D01*
X90238597Y-87531505D01*
X90071505Y-87698597D01*
X89935965Y-87892169D01*
X89935964Y-87892171D01*
X89836098Y-88106335D01*
X89836094Y-88106344D01*
X89774938Y-88334586D01*
X89774936Y-88334596D01*
X89754341Y-88569999D01*
X89754341Y-88570000D01*
X89774936Y-88805403D01*
X89774938Y-88805413D01*
X89836094Y-89033655D01*
X89836096Y-89033659D01*
X89836097Y-89033663D01*
X89935965Y-89247830D01*
X89935967Y-89247834D01*
X90071501Y-89441395D01*
X90071506Y-89441402D01*
X90238597Y-89608493D01*
X90238603Y-89608498D01*
X90424158Y-89738425D01*
X90467783Y-89793002D01*
X90474977Y-89862500D01*
X90443454Y-89924855D01*
X90424158Y-89941575D01*
X90238597Y-90071505D01*
X90071505Y-90238597D01*
X89935965Y-90432169D01*
X89935964Y-90432171D01*
X89836098Y-90646335D01*
X89836094Y-90646344D01*
X89774938Y-90874586D01*
X89774936Y-90874596D01*
X89754341Y-91109999D01*
X89754341Y-91110000D01*
X89774936Y-91345403D01*
X89774938Y-91345413D01*
X89836094Y-91573655D01*
X89836096Y-91573659D01*
X89836097Y-91573663D01*
X89935965Y-91787830D01*
X89935967Y-91787834D01*
X90044281Y-91942521D01*
X90071505Y-91981401D01*
X90238599Y-92148495D01*
X90335384Y-92216265D01*
X90432165Y-92284032D01*
X90432167Y-92284033D01*
X90432170Y-92284035D01*
X90646337Y-92383903D01*
X90874592Y-92445063D01*
X91062918Y-92461539D01*
X91109999Y-92465659D01*
X91110000Y-92465659D01*
X91110001Y-92465659D01*
X91149234Y-92462226D01*
X91345408Y-92445063D01*
X91573663Y-92383903D01*
X91787830Y-92284035D01*
X91981401Y-92148495D01*
X92148495Y-91981401D01*
X92284035Y-91787830D01*
X92383903Y-91573663D01*
X92445063Y-91345408D01*
X92465659Y-91110000D01*
X92445063Y-90874592D01*
X92383903Y-90646337D01*
X92284035Y-90432171D01*
X92148495Y-90238599D01*
X92148494Y-90238597D01*
X91981402Y-90071506D01*
X91981396Y-90071501D01*
X91795842Y-89941575D01*
X91752217Y-89886998D01*
X91745023Y-89817500D01*
X91776546Y-89755145D01*
X91795842Y-89738425D01*
X91818026Y-89722891D01*
X91981401Y-89608495D01*
X92148495Y-89441401D01*
X92284035Y-89247830D01*
X92383903Y-89033663D01*
X92445063Y-88805408D01*
X92465659Y-88570000D01*
X92445063Y-88334592D01*
X92383903Y-88106337D01*
X92284035Y-87892171D01*
X92148495Y-87698599D01*
X92148494Y-87698597D01*
X91981402Y-87531506D01*
X91981396Y-87531501D01*
X91795842Y-87401575D01*
X91752217Y-87346998D01*
X91745023Y-87277500D01*
X91776546Y-87215145D01*
X91795842Y-87198425D01*
X91818026Y-87182891D01*
X91981401Y-87068495D01*
X92148495Y-86901401D01*
X92284035Y-86707830D01*
X92383903Y-86493663D01*
X92445063Y-86265408D01*
X92465659Y-86030000D01*
X92445063Y-85794592D01*
X92383903Y-85566337D01*
X92284035Y-85352171D01*
X92282865Y-85350499D01*
X92148494Y-85158597D01*
X91981402Y-84991506D01*
X91981396Y-84991501D01*
X91795842Y-84861575D01*
X91752217Y-84806998D01*
X91745023Y-84737500D01*
X91776546Y-84675145D01*
X91795842Y-84658425D01*
X91967115Y-84538498D01*
X91981401Y-84528495D01*
X92148495Y-84361401D01*
X92284035Y-84167830D01*
X92383903Y-83953663D01*
X92445063Y-83725408D01*
X92465659Y-83490000D01*
X92465659Y-83489999D01*
X107534341Y-83489999D01*
X107534341Y-83490000D01*
X107554936Y-83725403D01*
X107554938Y-83725413D01*
X107616094Y-83953655D01*
X107616096Y-83953659D01*
X107616097Y-83953663D01*
X107715965Y-84167830D01*
X107715967Y-84167834D01*
X107851501Y-84361395D01*
X107851506Y-84361402D01*
X108018597Y-84528493D01*
X108018603Y-84528498D01*
X108204158Y-84658425D01*
X108247783Y-84713002D01*
X108254977Y-84782500D01*
X108223454Y-84844855D01*
X108204158Y-84861575D01*
X108018597Y-84991505D01*
X107851505Y-85158597D01*
X107715965Y-85352169D01*
X107715964Y-85352171D01*
X107616098Y-85566335D01*
X107616094Y-85566344D01*
X107554938Y-85794586D01*
X107554936Y-85794596D01*
X107534341Y-86029999D01*
X107534341Y-86030000D01*
X107554936Y-86265403D01*
X107554938Y-86265413D01*
X107616094Y-86493655D01*
X107616096Y-86493659D01*
X107616097Y-86493663D01*
X107715965Y-86707830D01*
X107715967Y-86707834D01*
X107851501Y-86901395D01*
X107851506Y-86901402D01*
X108018597Y-87068493D01*
X108018603Y-87068498D01*
X108204158Y-87198425D01*
X108247783Y-87253002D01*
X108254977Y-87322500D01*
X108223454Y-87384855D01*
X108204158Y-87401575D01*
X108018597Y-87531505D01*
X107851505Y-87698597D01*
X107715965Y-87892169D01*
X107715964Y-87892171D01*
X107616098Y-88106335D01*
X107616094Y-88106344D01*
X107554938Y-88334586D01*
X107554936Y-88334596D01*
X107534341Y-88569999D01*
X107534341Y-88570000D01*
X107554936Y-88805403D01*
X107554938Y-88805413D01*
X107616094Y-89033655D01*
X107616096Y-89033659D01*
X107616097Y-89033663D01*
X107715965Y-89247830D01*
X107715967Y-89247834D01*
X107851501Y-89441395D01*
X107851506Y-89441402D01*
X108018597Y-89608493D01*
X108018603Y-89608498D01*
X108204158Y-89738425D01*
X108247783Y-89793002D01*
X108254977Y-89862500D01*
X108223454Y-89924855D01*
X108204158Y-89941575D01*
X108018597Y-90071505D01*
X107851505Y-90238597D01*
X107715965Y-90432169D01*
X107715964Y-90432171D01*
X107616098Y-90646335D01*
X107616094Y-90646344D01*
X107554938Y-90874586D01*
X107554936Y-90874596D01*
X107534341Y-91109999D01*
X107534341Y-91110000D01*
X107554936Y-91345403D01*
X107554938Y-91345413D01*
X107616094Y-91573655D01*
X107616096Y-91573659D01*
X107616097Y-91573663D01*
X107715965Y-91787830D01*
X107715967Y-91787834D01*
X107824281Y-91942521D01*
X107851505Y-91981401D01*
X108018599Y-92148495D01*
X108115384Y-92216265D01*
X108212165Y-92284032D01*
X108212167Y-92284033D01*
X108212170Y-92284035D01*
X108426337Y-92383903D01*
X108654592Y-92445063D01*
X108842918Y-92461539D01*
X108889999Y-92465659D01*
X108890000Y-92465659D01*
X108890001Y-92465659D01*
X108929234Y-92462226D01*
X109125408Y-92445063D01*
X109353663Y-92383903D01*
X109567830Y-92284035D01*
X109761401Y-92148495D01*
X109928495Y-91981401D01*
X110064035Y-91787830D01*
X110163903Y-91573663D01*
X110225063Y-91345408D01*
X110245659Y-91110000D01*
X110225063Y-90874592D01*
X110163903Y-90646337D01*
X110064035Y-90432171D01*
X109928495Y-90238599D01*
X109928494Y-90238597D01*
X109761402Y-90071506D01*
X109761396Y-90071501D01*
X109575842Y-89941575D01*
X109532217Y-89886998D01*
X109525023Y-89817500D01*
X109556546Y-89755145D01*
X109575842Y-89738425D01*
X109598026Y-89722891D01*
X109761401Y-89608495D01*
X109928495Y-89441401D01*
X110064035Y-89247830D01*
X110163903Y-89033663D01*
X110225063Y-88805408D01*
X110245659Y-88570000D01*
X110225063Y-88334592D01*
X110163903Y-88106337D01*
X110064035Y-87892171D01*
X109928495Y-87698599D01*
X109928494Y-87698597D01*
X109761402Y-87531506D01*
X109761396Y-87531501D01*
X109575842Y-87401575D01*
X109532217Y-87346998D01*
X109525023Y-87277500D01*
X109556546Y-87215145D01*
X109575842Y-87198425D01*
X109598026Y-87182891D01*
X109761401Y-87068495D01*
X109928495Y-86901401D01*
X110064035Y-86707830D01*
X110163903Y-86493663D01*
X110225063Y-86265408D01*
X110245659Y-86030000D01*
X110225063Y-85794592D01*
X110163903Y-85566337D01*
X110064035Y-85352171D01*
X110062865Y-85350499D01*
X109928494Y-85158597D01*
X109761402Y-84991506D01*
X109761396Y-84991501D01*
X109575842Y-84861575D01*
X109532217Y-84806998D01*
X109525023Y-84737500D01*
X109556546Y-84675145D01*
X109575842Y-84658425D01*
X109747115Y-84538498D01*
X109761401Y-84528495D01*
X109928495Y-84361401D01*
X110064035Y-84167830D01*
X110163903Y-83953663D01*
X110225063Y-83725408D01*
X110245659Y-83490000D01*
X110225063Y-83254592D01*
X110166584Y-83036344D01*
X110163905Y-83026344D01*
X110163904Y-83026343D01*
X110163903Y-83026337D01*
X110064035Y-82812171D01*
X110052145Y-82795189D01*
X109928494Y-82618597D01*
X109761402Y-82451506D01*
X109761395Y-82451501D01*
X109567834Y-82315967D01*
X109567830Y-82315965D01*
X109517413Y-82292455D01*
X109353663Y-82216097D01*
X109353659Y-82216096D01*
X109353655Y-82216094D01*
X109125413Y-82154938D01*
X109125403Y-82154936D01*
X108890001Y-82134341D01*
X108889999Y-82134341D01*
X108654596Y-82154936D01*
X108654586Y-82154938D01*
X108426344Y-82216094D01*
X108426335Y-82216098D01*
X108212171Y-82315964D01*
X108212169Y-82315965D01*
X108018597Y-82451505D01*
X107851505Y-82618597D01*
X107715965Y-82812169D01*
X107715964Y-82812171D01*
X107616098Y-83026335D01*
X107616094Y-83026344D01*
X107554938Y-83254586D01*
X107554936Y-83254596D01*
X107534341Y-83489999D01*
X92465659Y-83489999D01*
X92445063Y-83254592D01*
X92386584Y-83036344D01*
X92383905Y-83026344D01*
X92383904Y-83026343D01*
X92383903Y-83026337D01*
X92284035Y-82812171D01*
X92272145Y-82795189D01*
X92148494Y-82618597D01*
X91981402Y-82451506D01*
X91981395Y-82451501D01*
X91787834Y-82315967D01*
X91787830Y-82315965D01*
X91737413Y-82292455D01*
X91573663Y-82216097D01*
X91573659Y-82216096D01*
X91573655Y-82216094D01*
X91345413Y-82154938D01*
X91345403Y-82154936D01*
X91110001Y-82134341D01*
X91109999Y-82134341D01*
X90874596Y-82154936D01*
X90874586Y-82154938D01*
X90646344Y-82216094D01*
X90646335Y-82216098D01*
X90432171Y-82315964D01*
X90432169Y-82315965D01*
X90238597Y-82451505D01*
X90071505Y-82618597D01*
X89935965Y-82812169D01*
X89935964Y-82812171D01*
X89836098Y-83026335D01*
X89836094Y-83026344D01*
X89774938Y-83254586D01*
X89774936Y-83254596D01*
X89754341Y-83489999D01*
X85100499Y-83489999D01*
X85100499Y-83102128D01*
X85094091Y-83042517D01*
X85092810Y-83039083D01*
X85043797Y-82907671D01*
X85043793Y-82907664D01*
X84957547Y-82792455D01*
X84957544Y-82792452D01*
X84842335Y-82706206D01*
X84842328Y-82706202D01*
X84707482Y-82655908D01*
X84707483Y-82655908D01*
X84647883Y-82649501D01*
X84647881Y-82649500D01*
X84647873Y-82649500D01*
X84647864Y-82649500D01*
X82852129Y-82649500D01*
X82852123Y-82649501D01*
X82792516Y-82655908D01*
X82657671Y-82706202D01*
X82657664Y-82706206D01*
X82542455Y-82792452D01*
X82542452Y-82792455D01*
X82456206Y-82907664D01*
X82456203Y-82907669D01*
X82407189Y-83039083D01*
X82365317Y-83095016D01*
X82299853Y-83119433D01*
X82231580Y-83104581D01*
X82203326Y-83083430D01*
X82081402Y-82961506D01*
X82081395Y-82961501D01*
X81887834Y-82825967D01*
X81887830Y-82825965D01*
X81855452Y-82810867D01*
X81673663Y-82726097D01*
X81673659Y-82726096D01*
X81673655Y-82726094D01*
X81445413Y-82664938D01*
X81445403Y-82664936D01*
X81210001Y-82644341D01*
X81209999Y-82644341D01*
X80974596Y-82664936D01*
X80974586Y-82664938D01*
X80746344Y-82726094D01*
X80746335Y-82726098D01*
X80532171Y-82825964D01*
X80532169Y-82825965D01*
X80338597Y-82961505D01*
X80171505Y-83128597D01*
X80035965Y-83322169D01*
X80035964Y-83322171D01*
X79936098Y-83536335D01*
X79936094Y-83536344D01*
X79874938Y-83764586D01*
X79874936Y-83764596D01*
X79854341Y-83999999D01*
X76500500Y-83999999D01*
X76500500Y-79999999D01*
X79854341Y-79999999D01*
X79854341Y-80000000D01*
X79874936Y-80235403D01*
X79874938Y-80235413D01*
X79936094Y-80463655D01*
X79936096Y-80463659D01*
X79936097Y-80463663D01*
X79996095Y-80592328D01*
X80035965Y-80677830D01*
X80035967Y-80677834D01*
X80117163Y-80793793D01*
X80171505Y-80871401D01*
X80338599Y-81038495D01*
X80435384Y-81106265D01*
X80532165Y-81174032D01*
X80532167Y-81174033D01*
X80532170Y-81174035D01*
X80746337Y-81273903D01*
X80974592Y-81335063D01*
X81151034Y-81350500D01*
X81209999Y-81355659D01*
X81210000Y-81355659D01*
X81210001Y-81355659D01*
X81268966Y-81350500D01*
X81445408Y-81335063D01*
X81673663Y-81273903D01*
X81887830Y-81174035D01*
X82081401Y-81038495D01*
X82203329Y-80916566D01*
X82264648Y-80883084D01*
X82334340Y-80888068D01*
X82390274Y-80929939D01*
X82407189Y-80960917D01*
X82456202Y-81092328D01*
X82456206Y-81092335D01*
X82542452Y-81207544D01*
X82542455Y-81207547D01*
X82657664Y-81293793D01*
X82657671Y-81293797D01*
X82792517Y-81344091D01*
X82792516Y-81344091D01*
X82799444Y-81344835D01*
X82852127Y-81350500D01*
X84647872Y-81350499D01*
X84707483Y-81344091D01*
X84842331Y-81293796D01*
X84957546Y-81207546D01*
X85043796Y-81092331D01*
X85094091Y-80957483D01*
X85100500Y-80897873D01*
X85100499Y-79102128D01*
X85094091Y-79042517D01*
X85092810Y-79039083D01*
X85043797Y-78907671D01*
X85043793Y-78907664D01*
X84957547Y-78792455D01*
X84957544Y-78792452D01*
X84842335Y-78706206D01*
X84842328Y-78706202D01*
X84707482Y-78655908D01*
X84707483Y-78655908D01*
X84647883Y-78649501D01*
X84647881Y-78649500D01*
X84647873Y-78649500D01*
X84647864Y-78649500D01*
X82852129Y-78649500D01*
X82852123Y-78649501D01*
X82792516Y-78655908D01*
X82657671Y-78706202D01*
X82657664Y-78706206D01*
X82542455Y-78792452D01*
X82542452Y-78792455D01*
X82456206Y-78907664D01*
X82456203Y-78907669D01*
X82407189Y-79039083D01*
X82365317Y-79095016D01*
X82299853Y-79119433D01*
X82231580Y-79104581D01*
X82203326Y-79083430D01*
X82081402Y-78961506D01*
X82081395Y-78961501D01*
X81887834Y-78825967D01*
X81887830Y-78825965D01*
X81879689Y-78822169D01*
X81673663Y-78726097D01*
X81673659Y-78726096D01*
X81673655Y-78726094D01*
X81445413Y-78664938D01*
X81445403Y-78664936D01*
X81210001Y-78644341D01*
X81209999Y-78644341D01*
X80974596Y-78664936D01*
X80974586Y-78664938D01*
X80746344Y-78726094D01*
X80746335Y-78726098D01*
X80532171Y-78825964D01*
X80532169Y-78825965D01*
X80338597Y-78961505D01*
X80171505Y-79128597D01*
X80035965Y-79322169D01*
X80035964Y-79322171D01*
X79936098Y-79536335D01*
X79936094Y-79536344D01*
X79874938Y-79764586D01*
X79874936Y-79764596D01*
X79854341Y-79999999D01*
X76500500Y-79999999D01*
X76500500Y-75999999D01*
X79854341Y-75999999D01*
X79854341Y-76000000D01*
X79874936Y-76235403D01*
X79874938Y-76235413D01*
X79936094Y-76463655D01*
X79936096Y-76463659D01*
X79936097Y-76463663D01*
X79975345Y-76547830D01*
X80035965Y-76677830D01*
X80035967Y-76677834D01*
X80117163Y-76793793D01*
X80171505Y-76871401D01*
X80338599Y-77038495D01*
X80416443Y-77093002D01*
X80532165Y-77174032D01*
X80532167Y-77174033D01*
X80532170Y-77174035D01*
X80746337Y-77273903D01*
X80974592Y-77335063D01*
X81151034Y-77350500D01*
X81209999Y-77355659D01*
X81210000Y-77355659D01*
X81210001Y-77355659D01*
X81268966Y-77350500D01*
X81445408Y-77335063D01*
X81673663Y-77273903D01*
X81887830Y-77174035D01*
X82081401Y-77038495D01*
X82203329Y-76916566D01*
X82264648Y-76883084D01*
X82334340Y-76888068D01*
X82390274Y-76929939D01*
X82407189Y-76960917D01*
X82456202Y-77092328D01*
X82456206Y-77092335D01*
X82542452Y-77207544D01*
X82542455Y-77207547D01*
X82657664Y-77293793D01*
X82657671Y-77293797D01*
X82792517Y-77344091D01*
X82792516Y-77344091D01*
X82799444Y-77344835D01*
X82852127Y-77350500D01*
X84647872Y-77350499D01*
X84707483Y-77344091D01*
X84842331Y-77293796D01*
X84957546Y-77207546D01*
X85043796Y-77092331D01*
X85094091Y-76957483D01*
X85100500Y-76897873D01*
X85100499Y-75869999D01*
X89754341Y-75869999D01*
X89754341Y-75870000D01*
X89774936Y-76105403D01*
X89774938Y-76105413D01*
X89836094Y-76333655D01*
X89836096Y-76333659D01*
X89836097Y-76333663D01*
X89896717Y-76463663D01*
X89935965Y-76547830D01*
X89935967Y-76547834D01*
X90071501Y-76741395D01*
X90071506Y-76741402D01*
X90238597Y-76908493D01*
X90238603Y-76908498D01*
X90424158Y-77038425D01*
X90467783Y-77093002D01*
X90474977Y-77162500D01*
X90443454Y-77224855D01*
X90424158Y-77241575D01*
X90238597Y-77371505D01*
X90071505Y-77538597D01*
X89935965Y-77732169D01*
X89935964Y-77732171D01*
X89836098Y-77946335D01*
X89836094Y-77946344D01*
X89774938Y-78174586D01*
X89774936Y-78174596D01*
X89754341Y-78409999D01*
X89754341Y-78410000D01*
X89774936Y-78645403D01*
X89774938Y-78645413D01*
X89836094Y-78873655D01*
X89836096Y-78873659D01*
X89836097Y-78873663D01*
X89911953Y-79036337D01*
X89935965Y-79087830D01*
X89935967Y-79087834D01*
X89975649Y-79144505D01*
X90071505Y-79281401D01*
X90238599Y-79448495D01*
X90312154Y-79499999D01*
X90432165Y-79584032D01*
X90432167Y-79584033D01*
X90432170Y-79584035D01*
X90646337Y-79683903D01*
X90874592Y-79745063D01*
X91062918Y-79761539D01*
X91109999Y-79765659D01*
X91110000Y-79765659D01*
X91110001Y-79765659D01*
X91149234Y-79762226D01*
X91345408Y-79745063D01*
X91573663Y-79683903D01*
X91787830Y-79584035D01*
X91981401Y-79448495D01*
X92148495Y-79281401D01*
X92284035Y-79087830D01*
X92311003Y-79029997D01*
X96319723Y-79029997D01*
X96319723Y-79030002D01*
X96338793Y-79247975D01*
X96338793Y-79247979D01*
X96395422Y-79459322D01*
X96395424Y-79459326D01*
X96395425Y-79459330D01*
X96414390Y-79500000D01*
X96487897Y-79657638D01*
X96487898Y-79657639D01*
X96613402Y-79836877D01*
X96768123Y-79991598D01*
X96947361Y-80117102D01*
X97145670Y-80209575D01*
X97357023Y-80266207D01*
X97539926Y-80282208D01*
X97574998Y-80285277D01*
X97575000Y-80285277D01*
X97575002Y-80285277D01*
X97603254Y-80282805D01*
X97792977Y-80266207D01*
X98004330Y-80209575D01*
X98202639Y-80117102D01*
X98381877Y-79991598D01*
X98536598Y-79836877D01*
X98662102Y-79657639D01*
X98754575Y-79459330D01*
X98811207Y-79247977D01*
X98830277Y-79030000D01*
X98830277Y-79029997D01*
X101169723Y-79029997D01*
X101169723Y-79030002D01*
X101188793Y-79247975D01*
X101188793Y-79247979D01*
X101245422Y-79459322D01*
X101245424Y-79459326D01*
X101245425Y-79459330D01*
X101264390Y-79500000D01*
X101337897Y-79657638D01*
X101337898Y-79657639D01*
X101463402Y-79836877D01*
X101618123Y-79991598D01*
X101797361Y-80117102D01*
X101995670Y-80209575D01*
X102207023Y-80266207D01*
X102389926Y-80282208D01*
X102424998Y-80285277D01*
X102425000Y-80285277D01*
X102425002Y-80285277D01*
X102453254Y-80282805D01*
X102642977Y-80266207D01*
X102854330Y-80209575D01*
X103052639Y-80117102D01*
X103231877Y-79991598D01*
X103386598Y-79836877D01*
X103512102Y-79657639D01*
X103604575Y-79459330D01*
X103661207Y-79247977D01*
X103680277Y-79030000D01*
X103661207Y-78812023D01*
X103604966Y-78602128D01*
X103604577Y-78600677D01*
X103604576Y-78600676D01*
X103604575Y-78600670D01*
X103512102Y-78402362D01*
X103512100Y-78402359D01*
X103512099Y-78402357D01*
X103386599Y-78223124D01*
X103312975Y-78149500D01*
X103231877Y-78068402D01*
X103093978Y-77971844D01*
X103052638Y-77942897D01*
X102953484Y-77896661D01*
X102854330Y-77850425D01*
X102854326Y-77850424D01*
X102854322Y-77850422D01*
X102642977Y-77793793D01*
X102425002Y-77774723D01*
X102424998Y-77774723D01*
X102279682Y-77787436D01*
X102207023Y-77793793D01*
X102207020Y-77793793D01*
X101995677Y-77850422D01*
X101995668Y-77850426D01*
X101797361Y-77942898D01*
X101797357Y-77942900D01*
X101618121Y-78068402D01*
X101463402Y-78223121D01*
X101337900Y-78402357D01*
X101337898Y-78402361D01*
X101245426Y-78600668D01*
X101245422Y-78600677D01*
X101188793Y-78812020D01*
X101188793Y-78812024D01*
X101169723Y-79029997D01*
X98830277Y-79029997D01*
X98811207Y-78812023D01*
X98754966Y-78602128D01*
X98754577Y-78600677D01*
X98754576Y-78600676D01*
X98754575Y-78600670D01*
X98662102Y-78402362D01*
X98662100Y-78402359D01*
X98662099Y-78402357D01*
X98536599Y-78223124D01*
X98462975Y-78149500D01*
X98381877Y-78068402D01*
X98243978Y-77971844D01*
X98202638Y-77942897D01*
X98103484Y-77896661D01*
X98004330Y-77850425D01*
X98004326Y-77850424D01*
X98004322Y-77850422D01*
X97792977Y-77793793D01*
X97575002Y-77774723D01*
X97574998Y-77774723D01*
X97429682Y-77787436D01*
X97357023Y-77793793D01*
X97357020Y-77793793D01*
X97145677Y-77850422D01*
X97145668Y-77850426D01*
X96947361Y-77942898D01*
X96947357Y-77942900D01*
X96768121Y-78068402D01*
X96613402Y-78223121D01*
X96487900Y-78402357D01*
X96487898Y-78402361D01*
X96395426Y-78600668D01*
X96395422Y-78600677D01*
X96338793Y-78812020D01*
X96338793Y-78812024D01*
X96319723Y-79029997D01*
X92311003Y-79029997D01*
X92383903Y-78873663D01*
X92445063Y-78645408D01*
X92465659Y-78410000D01*
X92445063Y-78174592D01*
X92383903Y-77946337D01*
X92284035Y-77732171D01*
X92148495Y-77538599D01*
X92148494Y-77538597D01*
X91981402Y-77371506D01*
X91981396Y-77371501D01*
X91795842Y-77241575D01*
X91752217Y-77186998D01*
X91745023Y-77117500D01*
X91776546Y-77055145D01*
X91795842Y-77038425D01*
X91818026Y-77022891D01*
X91981401Y-76908495D01*
X92148495Y-76741401D01*
X92284035Y-76547830D01*
X92383903Y-76333663D01*
X92445063Y-76105408D01*
X92454286Y-75999993D01*
X95869700Y-75999993D01*
X95869700Y-76000006D01*
X95888864Y-76231297D01*
X95888866Y-76231308D01*
X95945842Y-76456300D01*
X96039075Y-76668848D01*
X96166016Y-76863147D01*
X96166019Y-76863151D01*
X96166021Y-76863153D01*
X96323216Y-77033913D01*
X96323219Y-77033915D01*
X96323222Y-77033918D01*
X96506365Y-77176464D01*
X96506371Y-77176468D01*
X96506374Y-77176470D01*
X96710497Y-77286936D01*
X96824487Y-77326068D01*
X96930015Y-77362297D01*
X96930017Y-77362297D01*
X96930019Y-77362298D01*
X97158951Y-77400500D01*
X97158952Y-77400500D01*
X97391048Y-77400500D01*
X97391049Y-77400500D01*
X97619981Y-77362298D01*
X97839503Y-77286936D01*
X98043626Y-77176470D01*
X98046759Y-77174032D01*
X98220893Y-77038498D01*
X98226784Y-77033913D01*
X98383979Y-76863153D01*
X98510924Y-76668849D01*
X98604157Y-76456300D01*
X98661134Y-76231305D01*
X98668313Y-76144664D01*
X98680300Y-76000006D01*
X98680300Y-75999993D01*
X101319700Y-75999993D01*
X101319700Y-76000006D01*
X101338864Y-76231297D01*
X101338866Y-76231308D01*
X101395842Y-76456300D01*
X101489075Y-76668848D01*
X101616016Y-76863147D01*
X101616019Y-76863151D01*
X101616021Y-76863153D01*
X101773216Y-77033913D01*
X101773219Y-77033915D01*
X101773222Y-77033918D01*
X101956365Y-77176464D01*
X101956371Y-77176468D01*
X101956374Y-77176470D01*
X102160497Y-77286936D01*
X102274487Y-77326068D01*
X102380015Y-77362297D01*
X102380017Y-77362297D01*
X102380019Y-77362298D01*
X102608951Y-77400500D01*
X102608952Y-77400500D01*
X102841048Y-77400500D01*
X102841049Y-77400500D01*
X103069981Y-77362298D01*
X103289503Y-77286936D01*
X103493626Y-77176470D01*
X103496759Y-77174032D01*
X103670893Y-77038498D01*
X103676784Y-77033913D01*
X103833979Y-76863153D01*
X103960924Y-76668849D01*
X104054157Y-76456300D01*
X104111134Y-76231305D01*
X104118313Y-76144664D01*
X104130300Y-76000006D01*
X104130300Y-75999993D01*
X104111135Y-75768702D01*
X104111133Y-75768691D01*
X104054157Y-75543699D01*
X103960924Y-75331151D01*
X103833983Y-75136852D01*
X103833980Y-75136849D01*
X103833979Y-75136847D01*
X103676784Y-74966087D01*
X103676779Y-74966083D01*
X103676777Y-74966081D01*
X103493634Y-74823535D01*
X103493628Y-74823531D01*
X103289504Y-74713064D01*
X103289495Y-74713061D01*
X103069984Y-74637702D01*
X102898282Y-74609050D01*
X102841049Y-74599500D01*
X102608951Y-74599500D01*
X102563164Y-74607140D01*
X102380015Y-74637702D01*
X102160504Y-74713061D01*
X102160495Y-74713064D01*
X101956371Y-74823531D01*
X101956365Y-74823535D01*
X101773222Y-74966081D01*
X101773219Y-74966084D01*
X101616016Y-75136852D01*
X101489075Y-75331151D01*
X101395842Y-75543699D01*
X101338866Y-75768691D01*
X101338864Y-75768702D01*
X101319700Y-75999993D01*
X98680300Y-75999993D01*
X98661135Y-75768702D01*
X98661133Y-75768691D01*
X98604157Y-75543699D01*
X98510924Y-75331151D01*
X98383983Y-75136852D01*
X98383980Y-75136849D01*
X98383979Y-75136847D01*
X98226784Y-74966087D01*
X98226779Y-74966083D01*
X98226777Y-74966081D01*
X98043634Y-74823535D01*
X98043628Y-74823531D01*
X97839504Y-74713064D01*
X97839495Y-74713061D01*
X97619984Y-74637702D01*
X97448282Y-74609050D01*
X97391049Y-74599500D01*
X97158951Y-74599500D01*
X97113164Y-74607140D01*
X96930015Y-74637702D01*
X96710504Y-74713061D01*
X96710495Y-74713064D01*
X96506371Y-74823531D01*
X96506365Y-74823535D01*
X96323222Y-74966081D01*
X96323219Y-74966084D01*
X96166016Y-75136852D01*
X96039075Y-75331151D01*
X95945842Y-75543699D01*
X95888866Y-75768691D01*
X95888864Y-75768702D01*
X95869700Y-75999993D01*
X92454286Y-75999993D01*
X92465659Y-75870000D01*
X92445063Y-75634592D01*
X92383903Y-75406337D01*
X92284035Y-75192171D01*
X92259955Y-75157780D01*
X92148494Y-74998597D01*
X91981402Y-74831506D01*
X91981395Y-74831501D01*
X91973487Y-74825964D01*
X91925632Y-74792455D01*
X91787834Y-74695967D01*
X91787830Y-74695965D01*
X91787828Y-74695964D01*
X91573663Y-74596097D01*
X91573659Y-74596096D01*
X91573655Y-74596094D01*
X91345413Y-74534938D01*
X91345403Y-74534936D01*
X91110001Y-74514341D01*
X91109999Y-74514341D01*
X90874596Y-74534936D01*
X90874586Y-74534938D01*
X90646344Y-74596094D01*
X90646335Y-74596098D01*
X90432171Y-74695964D01*
X90432169Y-74695965D01*
X90238597Y-74831505D01*
X90071505Y-74998597D01*
X89935965Y-75192169D01*
X89935964Y-75192171D01*
X89836098Y-75406335D01*
X89836094Y-75406344D01*
X89774938Y-75634586D01*
X89774936Y-75634596D01*
X89754341Y-75869999D01*
X85100499Y-75869999D01*
X85100499Y-75102128D01*
X85094091Y-75042517D01*
X85092810Y-75039083D01*
X85043797Y-74907671D01*
X85043793Y-74907664D01*
X84957547Y-74792455D01*
X84957544Y-74792452D01*
X84842335Y-74706206D01*
X84842328Y-74706202D01*
X84707482Y-74655908D01*
X84707483Y-74655908D01*
X84647883Y-74649501D01*
X84647881Y-74649500D01*
X84647873Y-74649500D01*
X84647864Y-74649500D01*
X82852129Y-74649500D01*
X82852123Y-74649501D01*
X82792516Y-74655908D01*
X82657671Y-74706202D01*
X82657664Y-74706206D01*
X82542455Y-74792452D01*
X82542452Y-74792455D01*
X82456206Y-74907664D01*
X82456203Y-74907669D01*
X82407189Y-75039083D01*
X82365317Y-75095016D01*
X82299853Y-75119433D01*
X82231580Y-75104581D01*
X82203326Y-75083430D01*
X82081402Y-74961506D01*
X82081395Y-74961501D01*
X81887834Y-74825967D01*
X81887830Y-74825965D01*
X81857513Y-74811828D01*
X81673663Y-74726097D01*
X81673659Y-74726096D01*
X81673655Y-74726094D01*
X81445413Y-74664938D01*
X81445403Y-74664936D01*
X81210001Y-74644341D01*
X81209999Y-74644341D01*
X80974596Y-74664936D01*
X80974586Y-74664938D01*
X80746344Y-74726094D01*
X80746335Y-74726098D01*
X80532171Y-74825964D01*
X80532169Y-74825965D01*
X80338597Y-74961505D01*
X80171505Y-75128597D01*
X80035965Y-75322169D01*
X80035964Y-75322171D01*
X79936098Y-75536335D01*
X79936094Y-75536344D01*
X79874938Y-75764586D01*
X79874936Y-75764596D01*
X79854341Y-75999999D01*
X76500500Y-75999999D01*
X76500500Y-70499999D01*
X77144341Y-70499999D01*
X77144341Y-70500000D01*
X77164936Y-70735403D01*
X77164938Y-70735413D01*
X77226094Y-70963655D01*
X77226096Y-70963659D01*
X77226097Y-70963663D01*
X77325965Y-71177830D01*
X77325967Y-71177834D01*
X77434281Y-71332521D01*
X77461505Y-71371401D01*
X77628599Y-71538495D01*
X77725384Y-71606265D01*
X77822165Y-71674032D01*
X77822167Y-71674033D01*
X77822170Y-71674035D01*
X78036337Y-71773903D01*
X78264592Y-71835063D01*
X78452918Y-71851539D01*
X78499999Y-71855659D01*
X78500000Y-71855659D01*
X78500001Y-71855659D01*
X78539234Y-71852226D01*
X78735408Y-71835063D01*
X78963663Y-71773903D01*
X79177830Y-71674035D01*
X79371401Y-71538495D01*
X79538495Y-71371401D01*
X79674035Y-71177830D01*
X79773903Y-70963663D01*
X79835063Y-70735408D01*
X79855659Y-70500000D01*
X79855658Y-70499994D01*
X79835063Y-70264596D01*
X79835063Y-70264592D01*
X79773903Y-70036337D01*
X79674035Y-69822171D01*
X79646883Y-69783393D01*
X79538494Y-69628597D01*
X79371402Y-69461506D01*
X79371395Y-69461501D01*
X79177834Y-69325967D01*
X79177830Y-69325965D01*
X79031373Y-69257671D01*
X78963663Y-69226097D01*
X78963659Y-69226096D01*
X78963655Y-69226094D01*
X78735413Y-69164938D01*
X78735403Y-69164936D01*
X78500001Y-69144341D01*
X78499999Y-69144341D01*
X78264596Y-69164936D01*
X78264586Y-69164938D01*
X78036344Y-69226094D01*
X78036335Y-69226098D01*
X77822171Y-69325964D01*
X77822169Y-69325965D01*
X77628597Y-69461505D01*
X77461505Y-69628597D01*
X77325965Y-69822169D01*
X77325964Y-69822171D01*
X77226098Y-70036335D01*
X77226094Y-70036344D01*
X77164938Y-70264586D01*
X77164936Y-70264596D01*
X77144341Y-70499999D01*
X76500500Y-70499999D01*
X76500500Y-57499999D01*
X90794341Y-57499999D01*
X90794341Y-57500000D01*
X90814936Y-57735403D01*
X90814938Y-57735413D01*
X90876094Y-57963655D01*
X90876096Y-57963659D01*
X90876097Y-57963663D01*
X90975965Y-58177830D01*
X90975967Y-58177834D01*
X91084281Y-58332521D01*
X91111505Y-58371401D01*
X91278599Y-58538495D01*
X91375384Y-58606265D01*
X91472165Y-58674032D01*
X91472167Y-58674033D01*
X91472170Y-58674035D01*
X91686337Y-58773903D01*
X91914592Y-58835063D01*
X92040096Y-58846043D01*
X92105164Y-58871495D01*
X92116969Y-58881890D01*
X93803181Y-60568101D01*
X93836666Y-60629424D01*
X93839500Y-60655782D01*
X93839500Y-69322971D01*
X93819815Y-69390010D01*
X93806730Y-69406953D01*
X93651836Y-69575214D01*
X93515826Y-69783393D01*
X93415936Y-70011118D01*
X93354892Y-70252175D01*
X93354890Y-70252187D01*
X93334357Y-70499994D01*
X93334357Y-70500005D01*
X93354890Y-70747812D01*
X93354892Y-70747824D01*
X93415936Y-70988881D01*
X93515826Y-71216606D01*
X93651833Y-71424782D01*
X93651836Y-71424785D01*
X93820256Y-71607738D01*
X94016491Y-71760474D01*
X94235190Y-71878828D01*
X94470386Y-71959571D01*
X94715665Y-72000500D01*
X94964335Y-72000500D01*
X95209614Y-71959571D01*
X95444810Y-71878828D01*
X95663509Y-71760474D01*
X95859744Y-71607738D01*
X96028164Y-71424785D01*
X96164173Y-71216607D01*
X96264063Y-70988881D01*
X96325108Y-70747821D01*
X96345643Y-70500000D01*
X96325108Y-70252179D01*
X96264063Y-70011119D01*
X96164173Y-69783393D01*
X96028164Y-69575215D01*
X96022217Y-69568754D01*
X95914863Y-69452135D01*
X103499500Y-69452135D01*
X103499500Y-71547870D01*
X103499501Y-71547876D01*
X103505908Y-71607483D01*
X103556202Y-71742328D01*
X103556206Y-71742335D01*
X103642452Y-71857544D01*
X103642455Y-71857547D01*
X103757664Y-71943793D01*
X103757671Y-71943797D01*
X103892517Y-71994091D01*
X103900062Y-71995874D01*
X103899523Y-71998151D01*
X103953287Y-72020408D01*
X103993147Y-72077793D01*
X103999500Y-72116975D01*
X103999500Y-74618541D01*
X104005658Y-74649501D01*
X104006933Y-74655907D01*
X104006933Y-74655909D01*
X104037947Y-74811828D01*
X104037950Y-74811840D01*
X104047509Y-74834916D01*
X104113366Y-74993911D01*
X104113371Y-74993920D01*
X104222859Y-75157780D01*
X104222860Y-75157781D01*
X104222861Y-75157782D01*
X104362218Y-75297139D01*
X104362219Y-75297139D01*
X104369286Y-75304206D01*
X104369285Y-75304206D01*
X104369289Y-75304209D01*
X107508108Y-78443029D01*
X107541593Y-78504352D01*
X107543955Y-78519901D01*
X107554936Y-78645403D01*
X107554938Y-78645413D01*
X107616094Y-78873655D01*
X107616096Y-78873659D01*
X107616097Y-78873663D01*
X107691953Y-79036337D01*
X107715965Y-79087830D01*
X107715967Y-79087834D01*
X107755649Y-79144505D01*
X107851505Y-79281401D01*
X108018599Y-79448495D01*
X108092154Y-79499999D01*
X108212165Y-79584032D01*
X108212167Y-79584033D01*
X108212170Y-79584035D01*
X108426337Y-79683903D01*
X108654592Y-79745063D01*
X108842918Y-79761539D01*
X108889999Y-79765659D01*
X108890000Y-79765659D01*
X108890001Y-79765659D01*
X108929234Y-79762226D01*
X109125408Y-79745063D01*
X109353663Y-79683903D01*
X109567830Y-79584035D01*
X109761401Y-79448495D01*
X109928495Y-79281401D01*
X110064035Y-79087830D01*
X110163903Y-78873663D01*
X110225063Y-78645408D01*
X110245659Y-78410000D01*
X110225063Y-78174592D01*
X110163903Y-77946337D01*
X110064035Y-77732171D01*
X109928495Y-77538599D01*
X109928494Y-77538597D01*
X109761402Y-77371506D01*
X109761396Y-77371501D01*
X109575842Y-77241575D01*
X109532217Y-77186998D01*
X109525023Y-77117500D01*
X109556546Y-77055145D01*
X109575842Y-77038425D01*
X109598026Y-77022891D01*
X109761401Y-76908495D01*
X109928495Y-76741401D01*
X110064035Y-76547830D01*
X110163903Y-76333663D01*
X110225063Y-76105408D01*
X110245659Y-75870000D01*
X110225063Y-75634592D01*
X110163903Y-75406337D01*
X110064035Y-75192171D01*
X110039955Y-75157780D01*
X109928494Y-74998597D01*
X109761402Y-74831506D01*
X109761395Y-74831501D01*
X109753487Y-74825964D01*
X109705632Y-74792455D01*
X109567834Y-74695967D01*
X109567830Y-74695965D01*
X109567828Y-74695964D01*
X109353663Y-74596097D01*
X109353659Y-74596096D01*
X109353655Y-74596094D01*
X109125413Y-74534938D01*
X109125403Y-74534936D01*
X108890001Y-74514341D01*
X108889999Y-74514341D01*
X108654596Y-74534936D01*
X108654586Y-74534938D01*
X108426344Y-74596094D01*
X108426335Y-74596098D01*
X108212171Y-74695964D01*
X108212169Y-74695965D01*
X108018597Y-74831505D01*
X107851505Y-74998597D01*
X107715965Y-75192169D01*
X107715964Y-75192171D01*
X107616098Y-75406335D01*
X107616095Y-75406342D01*
X107605151Y-75447187D01*
X107568786Y-75506847D01*
X107505939Y-75537376D01*
X107436563Y-75529081D01*
X107397695Y-75502774D01*
X106036819Y-74141898D01*
X106003334Y-74080575D01*
X106000500Y-74054217D01*
X106000500Y-72116976D01*
X106020185Y-72049937D01*
X106072989Y-72004182D01*
X106100135Y-71996736D01*
X106099932Y-71995876D01*
X106107479Y-71994092D01*
X106107481Y-71994091D01*
X106107483Y-71994091D01*
X106242331Y-71943796D01*
X106357546Y-71857546D01*
X106443796Y-71742331D01*
X106494091Y-71607483D01*
X106500500Y-71547873D01*
X106500499Y-70499999D01*
X111144341Y-70499999D01*
X111144341Y-70500000D01*
X111164936Y-70735403D01*
X111164938Y-70735413D01*
X111226094Y-70963655D01*
X111226096Y-70963659D01*
X111226097Y-70963663D01*
X111325965Y-71177830D01*
X111325967Y-71177834D01*
X111434281Y-71332521D01*
X111461505Y-71371401D01*
X111628599Y-71538495D01*
X111725384Y-71606265D01*
X111822165Y-71674032D01*
X111822167Y-71674033D01*
X111822170Y-71674035D01*
X112036337Y-71773903D01*
X112264592Y-71835063D01*
X112452918Y-71851539D01*
X112499999Y-71855659D01*
X112500000Y-71855659D01*
X112500001Y-71855659D01*
X112539234Y-71852226D01*
X112735408Y-71835063D01*
X112963663Y-71773903D01*
X113177830Y-71674035D01*
X113371401Y-71538495D01*
X113538495Y-71371401D01*
X113674035Y-71177830D01*
X113773903Y-70963663D01*
X113835063Y-70735408D01*
X113855659Y-70500000D01*
X113855658Y-70499994D01*
X113835063Y-70264596D01*
X113835063Y-70264592D01*
X113773903Y-70036337D01*
X113674035Y-69822171D01*
X113646883Y-69783393D01*
X113538494Y-69628597D01*
X113371402Y-69461506D01*
X113371395Y-69461501D01*
X113177834Y-69325967D01*
X113177830Y-69325965D01*
X113031373Y-69257671D01*
X112963663Y-69226097D01*
X112963659Y-69226096D01*
X112963655Y-69226094D01*
X112735413Y-69164938D01*
X112735403Y-69164936D01*
X112500001Y-69144341D01*
X112499999Y-69144341D01*
X112264596Y-69164936D01*
X112264586Y-69164938D01*
X112036344Y-69226094D01*
X112036335Y-69226098D01*
X111822171Y-69325964D01*
X111822169Y-69325965D01*
X111628597Y-69461505D01*
X111461505Y-69628597D01*
X111325965Y-69822169D01*
X111325964Y-69822171D01*
X111226098Y-70036335D01*
X111226094Y-70036344D01*
X111164938Y-70264586D01*
X111164936Y-70264596D01*
X111144341Y-70499999D01*
X106500499Y-70499999D01*
X106500499Y-69452128D01*
X106494091Y-69392517D01*
X106469269Y-69325967D01*
X106443797Y-69257671D01*
X106443793Y-69257664D01*
X106357547Y-69142455D01*
X106357544Y-69142452D01*
X106242335Y-69056206D01*
X106242328Y-69056202D01*
X106107482Y-69005908D01*
X106107483Y-69005908D01*
X106047883Y-68999501D01*
X106047881Y-68999500D01*
X106047873Y-68999500D01*
X106047864Y-68999500D01*
X103952129Y-68999500D01*
X103952123Y-68999501D01*
X103892516Y-69005908D01*
X103757671Y-69056202D01*
X103757664Y-69056206D01*
X103642455Y-69142452D01*
X103642452Y-69142455D01*
X103556206Y-69257664D01*
X103556202Y-69257671D01*
X103505908Y-69392517D01*
X103499501Y-69452116D01*
X103499501Y-69452123D01*
X103499500Y-69452135D01*
X95914863Y-69452135D01*
X95873270Y-69406953D01*
X95842348Y-69344299D01*
X95840500Y-69322971D01*
X95840500Y-60091456D01*
X95802052Y-59898170D01*
X95802051Y-59898169D01*
X95802051Y-59898165D01*
X95802049Y-59898160D01*
X95726635Y-59716092D01*
X95726628Y-59716079D01*
X95617140Y-59552219D01*
X95617139Y-59552218D01*
X95477782Y-59412861D01*
X95477781Y-59412860D01*
X93531890Y-57466969D01*
X93498405Y-57405646D01*
X93496043Y-57390095D01*
X93485063Y-57264597D01*
X93485063Y-57264596D01*
X93485063Y-57264592D01*
X93423903Y-57036337D01*
X93324035Y-56822171D01*
X93188495Y-56628599D01*
X93188494Y-56628597D01*
X93162032Y-56602135D01*
X106399500Y-56602135D01*
X106399500Y-58397870D01*
X106399501Y-58397876D01*
X106405908Y-58457483D01*
X106456202Y-58592328D01*
X106456206Y-58592335D01*
X106542452Y-58707544D01*
X106542455Y-58707547D01*
X106657664Y-58793793D01*
X106657671Y-58793797D01*
X106792517Y-58844091D01*
X106792516Y-58844091D01*
X106799444Y-58844835D01*
X106852127Y-58850500D01*
X108647872Y-58850499D01*
X108707483Y-58844091D01*
X108842331Y-58793796D01*
X108957546Y-58707546D01*
X109043796Y-58592331D01*
X109094091Y-58457483D01*
X109100500Y-58397873D01*
X109100499Y-56602128D01*
X109094091Y-56542517D01*
X109043796Y-56407669D01*
X109043795Y-56407668D01*
X109043793Y-56407664D01*
X108957547Y-56292455D01*
X108957544Y-56292452D01*
X108842335Y-56206206D01*
X108842328Y-56206202D01*
X108707482Y-56155908D01*
X108707483Y-56155908D01*
X108647883Y-56149501D01*
X108647881Y-56149500D01*
X108647873Y-56149500D01*
X108647864Y-56149500D01*
X106852129Y-56149500D01*
X106852123Y-56149501D01*
X106792516Y-56155908D01*
X106657671Y-56206202D01*
X106657664Y-56206206D01*
X106542455Y-56292452D01*
X106542452Y-56292455D01*
X106456206Y-56407664D01*
X106456202Y-56407671D01*
X106405908Y-56542517D01*
X106399501Y-56602116D01*
X106399501Y-56602123D01*
X106399500Y-56602135D01*
X93162032Y-56602135D01*
X93021402Y-56461506D01*
X93021395Y-56461501D01*
X92827834Y-56325967D01*
X92827830Y-56325965D01*
X92827828Y-56325964D01*
X92613663Y-56226097D01*
X92613659Y-56226096D01*
X92613655Y-56226094D01*
X92385413Y-56164938D01*
X92385403Y-56164936D01*
X92150001Y-56144341D01*
X92149999Y-56144341D01*
X91914596Y-56164936D01*
X91914586Y-56164938D01*
X91686344Y-56226094D01*
X91686335Y-56226098D01*
X91472171Y-56325964D01*
X91472169Y-56325965D01*
X91278597Y-56461505D01*
X91111505Y-56628597D01*
X90975965Y-56822169D01*
X90975964Y-56822171D01*
X90876098Y-57036335D01*
X90876094Y-57036344D01*
X90814938Y-57264586D01*
X90814936Y-57264596D01*
X90794341Y-57499999D01*
X76500500Y-57499999D01*
X76500500Y-54002135D01*
X77149500Y-54002135D01*
X77149500Y-55797870D01*
X77149501Y-55797876D01*
X77155908Y-55857483D01*
X77206202Y-55992328D01*
X77206206Y-55992335D01*
X77292452Y-56107544D01*
X77292455Y-56107547D01*
X77407664Y-56193793D01*
X77407671Y-56193797D01*
X77542517Y-56244091D01*
X77542516Y-56244091D01*
X77549444Y-56244835D01*
X77602127Y-56250500D01*
X79397872Y-56250499D01*
X79457483Y-56244091D01*
X79592331Y-56193796D01*
X79707546Y-56107546D01*
X79793796Y-55992331D01*
X79844091Y-55857483D01*
X79850500Y-55797873D01*
X79850499Y-54002135D01*
X111149500Y-54002135D01*
X111149500Y-55797870D01*
X111149501Y-55797876D01*
X111155908Y-55857483D01*
X111206202Y-55992328D01*
X111206206Y-55992335D01*
X111292452Y-56107544D01*
X111292455Y-56107547D01*
X111407664Y-56193793D01*
X111407671Y-56193797D01*
X111542517Y-56244091D01*
X111542516Y-56244091D01*
X111549444Y-56244835D01*
X111602127Y-56250500D01*
X113397872Y-56250499D01*
X113457483Y-56244091D01*
X113592331Y-56193796D01*
X113707546Y-56107546D01*
X113793796Y-55992331D01*
X113844091Y-55857483D01*
X113850500Y-55797873D01*
X113850499Y-54002128D01*
X113844091Y-53942517D01*
X113793796Y-53807669D01*
X113793795Y-53807668D01*
X113793793Y-53807664D01*
X113707547Y-53692455D01*
X113707544Y-53692452D01*
X113592335Y-53606206D01*
X113592328Y-53606202D01*
X113457482Y-53555908D01*
X113457483Y-53555908D01*
X113397883Y-53549501D01*
X113397881Y-53549500D01*
X113397873Y-53549500D01*
X113397864Y-53549500D01*
X111602129Y-53549500D01*
X111602123Y-53549501D01*
X111542516Y-53555908D01*
X111407671Y-53606202D01*
X111407664Y-53606206D01*
X111292455Y-53692452D01*
X111292452Y-53692455D01*
X111206206Y-53807664D01*
X111206202Y-53807671D01*
X111155908Y-53942517D01*
X111149501Y-54002116D01*
X111149501Y-54002123D01*
X111149500Y-54002135D01*
X79850499Y-54002135D01*
X79850499Y-54002128D01*
X79844091Y-53942517D01*
X79793796Y-53807669D01*
X79793795Y-53807668D01*
X79793793Y-53807664D01*
X79707547Y-53692455D01*
X79707544Y-53692452D01*
X79592335Y-53606206D01*
X79592328Y-53606202D01*
X79457482Y-53555908D01*
X79457483Y-53555908D01*
X79397883Y-53549501D01*
X79397881Y-53549500D01*
X79397873Y-53549500D01*
X79397864Y-53549500D01*
X77602129Y-53549500D01*
X77602123Y-53549501D01*
X77542516Y-53555908D01*
X77407671Y-53606202D01*
X77407664Y-53606206D01*
X77292455Y-53692452D01*
X77292452Y-53692455D01*
X77206206Y-53807664D01*
X77206202Y-53807671D01*
X77155908Y-53942517D01*
X77149501Y-54002116D01*
X77149501Y-54002123D01*
X77149500Y-54002135D01*
X76500500Y-54002135D01*
X76500500Y-49302135D01*
X96099500Y-49302135D01*
X96099500Y-52197870D01*
X96099501Y-52197876D01*
X96105908Y-52257483D01*
X96156202Y-52392328D01*
X96156206Y-52392335D01*
X96242452Y-52507544D01*
X96242455Y-52507547D01*
X96357664Y-52593793D01*
X96357671Y-52593797D01*
X96492517Y-52644091D01*
X96492516Y-52644091D01*
X96499444Y-52644835D01*
X96552127Y-52650500D01*
X99447872Y-52650499D01*
X99507483Y-52644091D01*
X99642331Y-52593796D01*
X99757546Y-52507546D01*
X99843796Y-52392331D01*
X99894091Y-52257483D01*
X99900500Y-52197873D01*
X99900499Y-49302128D01*
X99894091Y-49242517D01*
X99843796Y-49107669D01*
X99843795Y-49107668D01*
X99843793Y-49107664D01*
X99757547Y-48992455D01*
X99757544Y-48992452D01*
X99642335Y-48906206D01*
X99642328Y-48906202D01*
X99507482Y-48855908D01*
X99507483Y-48855908D01*
X99447883Y-48849501D01*
X99447881Y-48849500D01*
X99447873Y-48849500D01*
X99447864Y-48849500D01*
X96552129Y-48849500D01*
X96552123Y-48849501D01*
X96492516Y-48855908D01*
X96357671Y-48906202D01*
X96357664Y-48906206D01*
X96242455Y-48992452D01*
X96242452Y-48992455D01*
X96156206Y-49107664D01*
X96156202Y-49107671D01*
X96105908Y-49242517D01*
X96099501Y-49302116D01*
X96099501Y-49302123D01*
X96099500Y-49302135D01*
X76500500Y-49302135D01*
X76500500Y-48003750D01*
X76500726Y-47996263D01*
X76518271Y-47706205D01*
X76520076Y-47691340D01*
X76571780Y-47409201D01*
X76575364Y-47394663D01*
X76652096Y-47148422D01*
X76660696Y-47120822D01*
X76665998Y-47106841D01*
X76783731Y-46845249D01*
X76790676Y-46832016D01*
X76939080Y-46586526D01*
X76947567Y-46574230D01*
X77124480Y-46348417D01*
X77134395Y-46337226D01*
X77337226Y-46134395D01*
X77348417Y-46124480D01*
X77574230Y-45947567D01*
X77586526Y-45939080D01*
X77832016Y-45790676D01*
X77845249Y-45783731D01*
X78106841Y-45665998D01*
X78120822Y-45660696D01*
X78394668Y-45575362D01*
X78409197Y-45571780D01*
X78691344Y-45520075D01*
X78706201Y-45518271D01*
X78996264Y-45500726D01*
X79003751Y-45500500D01*
X79065892Y-45500500D01*
X120934108Y-45500500D01*
X120996249Y-45500500D01*
X121003736Y-45500726D01*
G37*
%TD.AperFunction*%
%TD*%
M02*
