%TF.GenerationSoftware,KiCad,Pcbnew,8.0.7*%
%TF.CreationDate,2025-01-04T20:58:12-05:00*%
%TF.ProjectId,hexapod,68657861-706f-4642-9e6b-696361645f70,rev?*%
%TF.SameCoordinates,Original*%
%TF.FileFunction,Copper,L1,Top*%
%TF.FilePolarity,Positive*%
%FSLAX46Y46*%
G04 Gerber Fmt 4.6, Leading zero omitted, Abs format (unit mm)*
G04 Created by KiCad (PCBNEW 8.0.7) date 2025-01-04 20:58:12*
%MOMM*%
%LPD*%
G01*
G04 APERTURE LIST*
%TA.AperFunction,ComponentPad*%
%ADD10R,2.800000X2.800000*%
%TD*%
%TA.AperFunction,ComponentPad*%
%ADD11C,2.800000*%
%TD*%
%TA.AperFunction,ComponentPad*%
%ADD12O,1.700000X1.700000*%
%TD*%
%TA.AperFunction,SMDPad,CuDef*%
%ADD13R,3.500000X1.700000*%
%TD*%
%TA.AperFunction,ComponentPad*%
%ADD14R,1.700000X1.700000*%
%TD*%
%TA.AperFunction,ComponentPad*%
%ADD15C,1.700000*%
%TD*%
%TA.AperFunction,ComponentPad*%
%ADD16R,2.000000X2.000000*%
%TD*%
%TA.AperFunction,ComponentPad*%
%ADD17O,2.000000X2.000000*%
%TD*%
%TA.AperFunction,ViaPad*%
%ADD18C,3.500000*%
%TD*%
%TA.AperFunction,Conductor*%
%ADD19C,1.000000*%
%TD*%
%TA.AperFunction,Conductor*%
%ADD20C,0.500000*%
%TD*%
%TA.AperFunction,Conductor*%
%ADD21C,2.000000*%
%TD*%
G04 APERTURE END LIST*
D10*
%TO.P,J19,1,Pin_1*%
%TO.N,/power*%
X98000000Y-50750000D03*
D11*
%TO.P,J19,2,Pin_2*%
%TO.N,GND*%
X103000000Y-50750000D03*
%TD*%
D12*
%TO.P,U1,1,GPIO0*%
%TO.N,/l1_j1*%
X91110000Y-102870000D03*
D13*
X90210000Y-102870000D03*
D12*
%TO.P,U1,2,GPIO1*%
%TO.N,/l1_j2*%
X91110000Y-105410000D03*
D13*
X90210000Y-105410000D03*
D14*
%TO.P,U1,3,GND*%
%TO.N,GND*%
X91110000Y-107950000D03*
D13*
X90210000Y-107950000D03*
D12*
%TO.P,U1,4,GPIO2*%
%TO.N,/l1_j3*%
X91110000Y-110490000D03*
D13*
X90210000Y-110490000D03*
D12*
%TO.P,U1,5,GPIO3*%
%TO.N,unconnected-(U1-GPIO3-Pad5)*%
X91110000Y-113030000D03*
D13*
X90210000Y-113030000D03*
D12*
%TO.P,U1,6,GPIO4*%
%TO.N,unconnected-(U1-GPIO4-Pad6)*%
X91110000Y-115570000D03*
D13*
X90210000Y-115570000D03*
D12*
%TO.P,U1,7,GPIO5*%
%TO.N,/l2_j1*%
X91110000Y-118110000D03*
D13*
X90210000Y-118110000D03*
D14*
%TO.P,U1,8,GND*%
%TO.N,GND*%
X91110000Y-120650000D03*
D13*
X90210000Y-120650000D03*
D12*
%TO.P,U1,9,GPIO6*%
%TO.N,/l2_j2*%
X91110000Y-123190000D03*
D13*
X90210000Y-123190000D03*
D12*
%TO.P,U1,10,GPIO7*%
%TO.N,/l2_j3*%
X91110000Y-125730000D03*
D13*
X90210000Y-125730000D03*
D12*
%TO.P,U1,11,GPIO8*%
%TO.N,unconnected-(U1-GPIO8-Pad11)*%
X91110000Y-128270000D03*
D13*
X90210000Y-128270000D03*
D12*
%TO.P,U1,12,GPIO9*%
%TO.N,/l3_j1*%
X91110000Y-130810000D03*
D13*
X90210000Y-130810000D03*
D14*
%TO.P,U1,13,GND*%
%TO.N,GND*%
X91110000Y-133350000D03*
D13*
X90210000Y-133350000D03*
D12*
%TO.P,U1,14,GPIO10*%
%TO.N,unconnected-(U1-GPIO10-Pad14)*%
X91110000Y-135890000D03*
D13*
X90210000Y-135890000D03*
D12*
%TO.P,U1,15,GPIO11*%
%TO.N,unconnected-(U1-GPIO11-Pad15)*%
X91110000Y-138430000D03*
D13*
X90210000Y-138430000D03*
D12*
%TO.P,U1,16,GPIO12*%
%TO.N,/l3_j2*%
X91110000Y-140970000D03*
D13*
X90210000Y-140970000D03*
D12*
%TO.P,U1,17,GPIO13*%
%TO.N,/l3_j3*%
X91110000Y-143510000D03*
D13*
X90210000Y-143510000D03*
D14*
%TO.P,U1,18,GND*%
%TO.N,GND*%
X91110000Y-146050000D03*
D13*
X90210000Y-146050000D03*
D12*
%TO.P,U1,19,GPIO14*%
%TO.N,unconnected-(U1-GPIO14-Pad19)*%
X91110000Y-148590000D03*
D13*
X90210000Y-148590000D03*
D12*
%TO.P,U1,20,GPIO15*%
%TO.N,unconnected-(U1-GPIO15-Pad20)*%
X91110000Y-151130000D03*
D13*
X90210000Y-151130000D03*
D12*
%TO.P,U1,21,GPIO16*%
%TO.N,/r3_j3*%
X108890000Y-151130000D03*
D13*
X109790000Y-151130000D03*
D12*
%TO.P,U1,22,GPIO17*%
%TO.N,/r3_j2*%
X108890000Y-148590000D03*
D13*
X109790000Y-148590000D03*
D14*
%TO.P,U1,23,GND*%
%TO.N,GND*%
X108890000Y-146050000D03*
D13*
X109790000Y-146050000D03*
D12*
%TO.P,U1,24,GPIO18*%
%TO.N,/r3_j1*%
X108890000Y-143510000D03*
D13*
X109790000Y-143510000D03*
D12*
%TO.P,U1,25,GPIO19*%
%TO.N,/r2_j3*%
X108890000Y-140970000D03*
D13*
X109790000Y-140970000D03*
D12*
%TO.P,U1,26,GPIO20*%
%TO.N,/r2_j2*%
X108890000Y-138430000D03*
D13*
X109790000Y-138430000D03*
D12*
%TO.P,U1,27,GPIO21*%
%TO.N,/r2_j1*%
X108890000Y-135890000D03*
D13*
X109790000Y-135890000D03*
D14*
%TO.P,U1,28,GND*%
%TO.N,GND*%
X108890000Y-133350000D03*
D13*
X109790000Y-133350000D03*
D12*
%TO.P,U1,29,GPIO22*%
%TO.N,/r1_j3*%
X108890000Y-130810000D03*
D13*
X109790000Y-130810000D03*
D12*
%TO.P,U1,30,RUN*%
%TO.N,unconnected-(U1-RUN-Pad30)*%
X108890000Y-128270000D03*
D13*
X109790000Y-128270000D03*
D12*
%TO.P,U1,31,GPIO26_ADC0*%
%TO.N,/r1_j2*%
X108890000Y-125730000D03*
D13*
X109790000Y-125730000D03*
D12*
%TO.P,U1,32,GPIO27_ADC1*%
%TO.N,/r1_j1*%
X108890000Y-123190000D03*
D13*
X109790000Y-123190000D03*
D14*
%TO.P,U1,33,AGND*%
%TO.N,GND*%
X108890000Y-120650000D03*
D13*
X109790000Y-120650000D03*
D12*
%TO.P,U1,34,GPIO28_ADC2*%
%TO.N,unconnected-(U1-GPIO28_ADC2-Pad34)*%
X108890000Y-118110000D03*
D13*
X109790000Y-118110000D03*
D12*
%TO.P,U1,35,ADC_VREF*%
%TO.N,unconnected-(U1-ADC_VREF-Pad35)*%
X108890000Y-115570000D03*
D13*
X109790000Y-115570000D03*
D12*
%TO.P,U1,36,3V3*%
%TO.N,unconnected-(U1-3V3-Pad36)*%
X108890000Y-113030000D03*
D13*
X109790000Y-113030000D03*
D12*
%TO.P,U1,37,3V3_EN*%
%TO.N,unconnected-(U1-3V3_EN-Pad37)*%
X108890000Y-110490000D03*
D13*
X109790000Y-110490000D03*
D14*
%TO.P,U1,38,GND*%
%TO.N,GND*%
X108890000Y-107950000D03*
D13*
X109790000Y-107950000D03*
D12*
%TO.P,U1,39,VSYS*%
%TO.N,Net-(D1-K)*%
X108890000Y-105410000D03*
D13*
X109790000Y-105410000D03*
D12*
%TO.P,U1,40,VBUS*%
%TO.N,unconnected-(U1-VBUS-Pad40)*%
X108890000Y-102870000D03*
D13*
X109790000Y-102870000D03*
%TD*%
D14*
%TO.P,U5,1,+input*%
%TO.N,/power*%
X103250000Y-58210000D03*
X103250000Y-60750000D03*
D15*
%TO.P,U5,2,-input*%
%TO.N,GND*%
X120250000Y-58210000D03*
X120250000Y-60750000D03*
%TO.P,U5,3,+output*%
%TO.N,/power_r1*%
X103250000Y-95670000D03*
X103250000Y-98210000D03*
%TO.P,U5,4,-output*%
%TO.N,GND*%
X120250000Y-95670000D03*
X120250000Y-98210000D03*
%TD*%
D14*
%TO.P,U2,1,+input*%
%TO.N,/power*%
X79750000Y-58210000D03*
X79750000Y-60750000D03*
D15*
%TO.P,U2,2,-input*%
%TO.N,GND*%
X96750000Y-58210000D03*
X96750000Y-60750000D03*
%TO.P,U2,3,+output*%
%TO.N,/power_l1*%
X79750000Y-95670000D03*
X79750000Y-98210000D03*
%TO.P,U2,4,-output*%
%TO.N,GND*%
X96750000Y-95670000D03*
X96750000Y-98210000D03*
%TD*%
D14*
%TO.P,J16,1,Pin_1*%
%TO.N,/r3_j1*%
X116250000Y-132000000D03*
D12*
%TO.P,J16,2,Pin_2*%
%TO.N,/power_r1*%
X118790000Y-132000000D03*
%TO.P,J16,3,Pin_3*%
%TO.N,GND*%
X121330000Y-132000000D03*
%TD*%
D14*
%TO.P,J18,1,Pin_1*%
%TO.N,/r3_j3*%
X116250000Y-140000000D03*
D12*
%TO.P,J18,2,Pin_2*%
%TO.N,/power_r1*%
X118790000Y-140000000D03*
%TO.P,J18,3,Pin_3*%
%TO.N,GND*%
X121330000Y-140000000D03*
%TD*%
D16*
%TO.P,D1,1,K*%
%TO.N,Net-(D1-K)*%
X105080000Y-124750000D03*
D17*
%TO.P,D1,2,A*%
%TO.N,Net-(D1-A)*%
X94920000Y-124750000D03*
%TD*%
D14*
%TO.P,J10,1,Pin_1*%
%TO.N,/r1_j1*%
X116250000Y-103000000D03*
D12*
%TO.P,J10,2,Pin_2*%
%TO.N,/power_r1*%
X118790000Y-103000000D03*
%TO.P,J10,3,Pin_3*%
%TO.N,GND*%
X121330000Y-103000000D03*
%TD*%
D14*
%TO.P,J3,1,Pin_1*%
%TO.N,/l1_j3*%
X83750000Y-111000000D03*
D12*
%TO.P,J3,2,Pin_2*%
%TO.N,/power_l1*%
X81210000Y-111000000D03*
%TO.P,J3,3,Pin_3*%
%TO.N,GND*%
X78670000Y-111000000D03*
%TD*%
D14*
%TO.P,J13,1,Pin_1*%
%TO.N,/r2_j1*%
X116250000Y-117750000D03*
D12*
%TO.P,J13,2,Pin_2*%
%TO.N,/power_r1*%
X118790000Y-117750000D03*
%TO.P,J13,3,Pin_3*%
%TO.N,GND*%
X121330000Y-117750000D03*
%TD*%
%TO.P,J1,3,Pin_3*%
%TO.N,GND*%
X78670000Y-103000000D03*
%TO.P,J1,2,Pin_2*%
%TO.N,/power_l1*%
X81210000Y-103000000D03*
D14*
%TO.P,J1,1,Pin_1*%
%TO.N,/l1_j1*%
X83750000Y-103000000D03*
%TD*%
%TO.P,J11,1,Pin_1*%
%TO.N,/r1_j2*%
X116250000Y-107000000D03*
D12*
%TO.P,J11,2,Pin_2*%
%TO.N,/power_r1*%
X118790000Y-107000000D03*
%TO.P,J11,3,Pin_3*%
%TO.N,GND*%
X121330000Y-107000000D03*
%TD*%
%TO.P,J4,3,Pin_3*%
%TO.N,GND*%
X78670000Y-117500000D03*
%TO.P,J4,2,Pin_2*%
%TO.N,/power_l1*%
X81210000Y-117500000D03*
D14*
%TO.P,J4,1,Pin_1*%
%TO.N,/l2_j1*%
X83750000Y-117500000D03*
%TD*%
%TO.P,U8,1,+input*%
%TO.N,/power*%
X95400000Y-104300000D03*
X95400000Y-106840000D03*
D15*
%TO.P,U8,2,-input*%
%TO.N,GND*%
X104400000Y-104300000D03*
X104400000Y-106840000D03*
%TO.P,U8,3,+output*%
%TO.N,Net-(D1-A)*%
X95400000Y-117360000D03*
X95400000Y-119900000D03*
%TO.P,U8,4,-output*%
%TO.N,GND*%
X104400000Y-117360000D03*
X104400000Y-119900000D03*
%TD*%
D14*
%TO.P,J6,1,Pin_1*%
%TO.N,/l2_j3*%
X83750000Y-125500000D03*
D12*
%TO.P,J6,2,Pin_2*%
%TO.N,/power_l1*%
X81210000Y-125500000D03*
%TO.P,J6,3,Pin_3*%
%TO.N,GND*%
X78670000Y-125500000D03*
%TD*%
D14*
%TO.P,J9,1,Pin_1*%
%TO.N,/l3_j3*%
X83750000Y-140000000D03*
D12*
%TO.P,J9,2,Pin_2*%
%TO.N,/power_l1*%
X81210000Y-140000000D03*
%TO.P,J9,3,Pin_3*%
%TO.N,GND*%
X78670000Y-140000000D03*
%TD*%
D14*
%TO.P,J8,1,Pin_1*%
%TO.N,/l3_j2*%
X83750000Y-136000000D03*
D12*
%TO.P,J8,2,Pin_2*%
%TO.N,/power_l1*%
X81210000Y-136000000D03*
%TO.P,J8,3,Pin_3*%
%TO.N,GND*%
X78670000Y-136000000D03*
%TD*%
D14*
%TO.P,J2,1,Pin_1*%
%TO.N,/l1_j2*%
X83750000Y-107000000D03*
D12*
%TO.P,J2,2,Pin_2*%
%TO.N,/power_l1*%
X81210000Y-107000000D03*
%TO.P,J2,3,Pin_3*%
%TO.N,GND*%
X78670000Y-107000000D03*
%TD*%
D14*
%TO.P,J5,1,Pin_1*%
%TO.N,/l2_j2*%
X83750000Y-121500000D03*
D12*
%TO.P,J5,2,Pin_2*%
%TO.N,/power_l1*%
X81210000Y-121500000D03*
%TO.P,J5,3,Pin_3*%
%TO.N,GND*%
X78670000Y-121500000D03*
%TD*%
D14*
%TO.P,J12,1,Pin_1*%
%TO.N,/r1_j3*%
X116250000Y-111000000D03*
D12*
%TO.P,J12,2,Pin_2*%
%TO.N,/power_r1*%
X118790000Y-111000000D03*
%TO.P,J12,3,Pin_3*%
%TO.N,GND*%
X121330000Y-111000000D03*
%TD*%
D14*
%TO.P,J15,1,Pin_1*%
%TO.N,/r2_j3*%
X116250000Y-125750000D03*
D12*
%TO.P,J15,2,Pin_2*%
%TO.N,/power_r1*%
X118790000Y-125750000D03*
%TO.P,J15,3,Pin_3*%
%TO.N,GND*%
X121330000Y-125750000D03*
%TD*%
D14*
%TO.P,J7,1,Pin_1*%
%TO.N,/l3_j1*%
X83750000Y-132000000D03*
D12*
%TO.P,J7,2,Pin_2*%
%TO.N,/power_l1*%
X81210000Y-132000000D03*
%TO.P,J7,3,Pin_3*%
%TO.N,GND*%
X78670000Y-132000000D03*
%TD*%
D14*
%TO.P,J17,1,Pin_1*%
%TO.N,/r3_j2*%
X116250000Y-136000000D03*
D12*
%TO.P,J17,2,Pin_2*%
%TO.N,/power_r1*%
X118790000Y-136000000D03*
%TO.P,J17,3,Pin_3*%
%TO.N,GND*%
X121330000Y-136000000D03*
%TD*%
D14*
%TO.P,J14,1,Pin_1*%
%TO.N,/r2_j2*%
X116250000Y-121750000D03*
D12*
%TO.P,J14,2,Pin_2*%
%TO.N,/power_r1*%
X118790000Y-121750000D03*
%TO.P,J14,3,Pin_3*%
%TO.N,GND*%
X121330000Y-121750000D03*
%TD*%
D18*
%TO.N,GND*%
X115500000Y-150500000D03*
X84500000Y-49500000D03*
X115500000Y-49500000D03*
X84500000Y-150500000D03*
%TD*%
D19*
%TO.N,Net-(D1-K)*%
X108090000Y-105410000D02*
X108890000Y-105410000D01*
X106250000Y-123580000D02*
X106250000Y-107250000D01*
X105080000Y-124750000D02*
X106250000Y-123580000D01*
X106250000Y-107250000D02*
X108090000Y-105410000D01*
%TO.N,/power*%
X93750000Y-102650000D02*
X95400000Y-104300000D01*
X93750000Y-70250000D02*
X93750000Y-102650000D01*
X103250000Y-60750000D02*
X93750000Y-70250000D01*
D20*
%TO.N,/r1_j1*%
X113250000Y-121250000D02*
X113250000Y-106000000D01*
X111310000Y-123190000D02*
X113250000Y-121250000D01*
X113250000Y-106000000D02*
X116250000Y-103000000D01*
X108890000Y-123190000D02*
X111310000Y-123190000D01*
%TO.N,/r2_j3*%
X114000000Y-137820000D02*
X114000000Y-128000000D01*
X114000000Y-128000000D02*
X116250000Y-125750000D01*
X110850000Y-140970000D02*
X114000000Y-137820000D01*
X108890000Y-140970000D02*
X110850000Y-140970000D01*
%TO.N,/r2_j2*%
X112750000Y-125250000D02*
X116250000Y-121750000D01*
X112750000Y-136530000D02*
X112750000Y-125250000D01*
X110850000Y-138430000D02*
X112750000Y-136530000D01*
X108890000Y-138430000D02*
X110850000Y-138430000D01*
D21*
%TO.N,/power*%
X90540000Y-58210000D02*
X98000000Y-50750000D01*
X79750000Y-58210000D02*
X90540000Y-58210000D01*
X103250000Y-56000000D02*
X98000000Y-50750000D01*
X103250000Y-58210000D02*
X103250000Y-56000000D01*
X103250000Y-60750000D02*
X103250000Y-58210000D01*
X79750000Y-60750000D02*
X79750000Y-58210000D01*
D19*
X95400000Y-104300000D02*
X95400000Y-106840000D01*
%TO.N,Net-(D1-A)*%
X95400000Y-124270000D02*
X94920000Y-124750000D01*
X95400000Y-119900000D02*
X95400000Y-124270000D01*
X95400000Y-117360000D02*
X95400000Y-119900000D01*
D21*
%TO.N,/power_r1*%
X118790000Y-103000000D02*
X118790000Y-140000000D01*
%TO.N,/power_l1*%
X81210000Y-103000000D02*
X81210000Y-140000000D01*
X81210000Y-99670000D02*
X81210000Y-103000000D01*
X79750000Y-98210000D02*
X81210000Y-99670000D01*
X79750000Y-95670000D02*
X79750000Y-98210000D01*
%TO.N,/power_r1*%
X103250000Y-98210000D02*
X115660000Y-98210000D01*
X115660000Y-98210000D02*
X118790000Y-101340000D01*
X118790000Y-101340000D02*
X118790000Y-103000000D01*
X103250000Y-95670000D02*
X103250000Y-98210000D01*
D20*
%TO.N,/r3_j3*%
X116250000Y-145730000D02*
X116250000Y-140000000D01*
X108890000Y-151130000D02*
X110850000Y-151130000D01*
X110850000Y-151130000D02*
X116250000Y-145730000D01*
%TO.N,/l3_j3*%
X87260000Y-143510000D02*
X83750000Y-140000000D01*
X91110000Y-143510000D02*
X87260000Y-143510000D01*
%TO.N,/l3_j2*%
X89150000Y-140970000D02*
X84180000Y-136000000D01*
X84180000Y-136000000D02*
X83750000Y-136000000D01*
X91110000Y-140970000D02*
X89150000Y-140970000D01*
%TO.N,/l3_j1*%
X88940000Y-130810000D02*
X87750000Y-132000000D01*
X87750000Y-132000000D02*
X83750000Y-132000000D01*
X91110000Y-130810000D02*
X88940000Y-130810000D01*
%TO.N,/l2_j3*%
X88750000Y-125500000D02*
X83750000Y-125500000D01*
X88980000Y-125730000D02*
X88750000Y-125500000D01*
X91110000Y-125730000D02*
X88980000Y-125730000D01*
%TO.N,/l2_j2*%
X91110000Y-123190000D02*
X85440000Y-123190000D01*
X85440000Y-123190000D02*
X83750000Y-121500000D01*
%TO.N,/l2_j1*%
X87530000Y-117500000D02*
X83750000Y-117500000D01*
X88140000Y-118110000D02*
X87530000Y-117500000D01*
X91110000Y-118110000D02*
X88140000Y-118110000D01*
%TO.N,/l1_j3*%
X84260000Y-110490000D02*
X83750000Y-111000000D01*
X91110000Y-110490000D02*
X84260000Y-110490000D01*
%TO.N,/l1_j2*%
X85340000Y-105410000D02*
X83750000Y-107000000D01*
X91110000Y-105410000D02*
X85340000Y-105410000D01*
%TO.N,/l1_j1*%
X83880000Y-102870000D02*
X83750000Y-103000000D01*
X91110000Y-102870000D02*
X83880000Y-102870000D01*
%TD*%
%TA.AperFunction,Conductor*%
%TO.N,GND*%
G36*
X121003736Y-45500726D02*
G01*
X121293796Y-45518271D01*
X121308659Y-45520076D01*
X121590798Y-45571780D01*
X121605335Y-45575363D01*
X121879172Y-45660695D01*
X121893163Y-45666000D01*
X122154743Y-45783727D01*
X122167989Y-45790680D01*
X122413465Y-45939075D01*
X122425776Y-45947573D01*
X122651573Y-46124473D01*
X122662781Y-46134403D01*
X122865596Y-46337218D01*
X122875526Y-46348426D01*
X122995481Y-46501538D01*
X123052422Y-46574217D01*
X123060928Y-46586540D01*
X123209316Y-46832004D01*
X123216275Y-46845263D01*
X123333997Y-47106831D01*
X123339306Y-47120832D01*
X123424635Y-47394663D01*
X123428219Y-47409201D01*
X123479923Y-47691340D01*
X123481728Y-47706205D01*
X123499274Y-47996263D01*
X123499500Y-48003750D01*
X123499500Y-151996249D01*
X123499274Y-152003736D01*
X123481728Y-152293794D01*
X123479923Y-152308659D01*
X123428219Y-152590798D01*
X123424635Y-152605336D01*
X123339306Y-152879167D01*
X123333997Y-152893168D01*
X123216275Y-153154736D01*
X123209316Y-153167995D01*
X123060928Y-153413459D01*
X123052422Y-153425782D01*
X122875526Y-153651573D01*
X122865596Y-153662781D01*
X122662781Y-153865596D01*
X122651573Y-153875526D01*
X122425782Y-154052422D01*
X122413459Y-154060928D01*
X122167995Y-154209316D01*
X122154736Y-154216275D01*
X121893168Y-154333997D01*
X121879167Y-154339306D01*
X121605336Y-154424635D01*
X121590798Y-154428219D01*
X121308659Y-154479923D01*
X121293794Y-154481728D01*
X121003736Y-154499274D01*
X120996249Y-154499500D01*
X79003751Y-154499500D01*
X78996264Y-154499274D01*
X78706205Y-154481728D01*
X78691340Y-154479923D01*
X78409201Y-154428219D01*
X78394663Y-154424635D01*
X78120832Y-154339306D01*
X78106831Y-154333997D01*
X77845263Y-154216275D01*
X77832004Y-154209316D01*
X77586540Y-154060928D01*
X77574217Y-154052422D01*
X77348426Y-153875526D01*
X77337218Y-153865596D01*
X77134403Y-153662781D01*
X77124473Y-153651573D01*
X76947573Y-153425776D01*
X76939075Y-153413465D01*
X76790680Y-153167989D01*
X76783727Y-153154743D01*
X76666000Y-152893163D01*
X76660693Y-152879167D01*
X76575364Y-152605336D01*
X76571780Y-152590798D01*
X76520076Y-152308659D01*
X76518271Y-152293794D01*
X76500726Y-152003736D01*
X76500500Y-151996249D01*
X76500500Y-147692135D01*
X87959500Y-147692135D01*
X87959500Y-149487870D01*
X87959501Y-149487876D01*
X87965908Y-149547483D01*
X88016202Y-149682328D01*
X88016203Y-149682330D01*
X88093578Y-149785689D01*
X88117995Y-149851153D01*
X88103144Y-149919426D01*
X88093578Y-149934311D01*
X88016203Y-150037669D01*
X88016202Y-150037671D01*
X87965908Y-150172517D01*
X87959501Y-150232116D01*
X87959501Y-150232123D01*
X87959500Y-150232135D01*
X87959500Y-152027870D01*
X87959501Y-152027876D01*
X87965908Y-152087483D01*
X88016202Y-152222328D01*
X88016206Y-152222335D01*
X88102452Y-152337544D01*
X88102455Y-152337547D01*
X88217664Y-152423793D01*
X88217671Y-152423797D01*
X88352517Y-152474091D01*
X88352516Y-152474091D01*
X88359444Y-152474835D01*
X88412127Y-152480500D01*
X91045611Y-152480499D01*
X91056419Y-152480971D01*
X91109999Y-152485659D01*
X91110000Y-152485659D01*
X91110001Y-152485659D01*
X91163580Y-152480971D01*
X91174388Y-152480499D01*
X92007871Y-152480499D01*
X92007872Y-152480499D01*
X92067483Y-152474091D01*
X92202331Y-152423796D01*
X92317546Y-152337546D01*
X92403796Y-152222331D01*
X92454091Y-152087483D01*
X92460500Y-152027873D01*
X92460499Y-151194383D01*
X92460971Y-151183576D01*
X92465659Y-151130000D01*
X92465659Y-151129999D01*
X92460971Y-151076421D01*
X92460499Y-151065613D01*
X92460499Y-150232129D01*
X92460498Y-150232123D01*
X92460497Y-150232116D01*
X92454091Y-150172517D01*
X92403796Y-150037669D01*
X92326421Y-149934309D01*
X92302004Y-149868848D01*
X92316855Y-149800575D01*
X92326416Y-149785696D01*
X92403796Y-149682331D01*
X92454091Y-149547483D01*
X92460500Y-149487873D01*
X92460499Y-148654383D01*
X92460971Y-148643576D01*
X92465659Y-148590000D01*
X92465659Y-148589999D01*
X92460971Y-148536421D01*
X92460499Y-148525613D01*
X92460499Y-147692129D01*
X92460498Y-147692123D01*
X92460497Y-147692116D01*
X92454091Y-147632517D01*
X92403796Y-147497669D01*
X92403795Y-147497668D01*
X92403793Y-147497664D01*
X92317547Y-147382455D01*
X92317544Y-147382452D01*
X92202335Y-147296206D01*
X92202328Y-147296202D01*
X92067482Y-147245908D01*
X92067483Y-147245908D01*
X92007883Y-147239501D01*
X92007881Y-147239500D01*
X92007873Y-147239500D01*
X92007865Y-147239500D01*
X91174380Y-147239500D01*
X91163573Y-147239028D01*
X91137024Y-147236705D01*
X91110001Y-147234341D01*
X91109998Y-147234341D01*
X91056424Y-147239028D01*
X91045617Y-147239500D01*
X88412129Y-147239500D01*
X88412123Y-147239501D01*
X88352516Y-147245908D01*
X88217671Y-147296202D01*
X88217664Y-147296206D01*
X88102455Y-147382452D01*
X88102452Y-147382455D01*
X88016206Y-147497664D01*
X88016202Y-147497671D01*
X87965908Y-147632517D01*
X87959501Y-147692116D01*
X87959501Y-147692123D01*
X87959500Y-147692135D01*
X76500500Y-147692135D01*
X76500500Y-95551902D01*
X78249500Y-95551902D01*
X78249500Y-98328097D01*
X78286446Y-98561368D01*
X78359433Y-98785996D01*
X78466657Y-98996434D01*
X78605484Y-99187511D01*
X79673181Y-100255208D01*
X79706666Y-100316531D01*
X79709500Y-100342889D01*
X79709500Y-140118097D01*
X79746446Y-140351368D01*
X79819433Y-140575996D01*
X79926657Y-140786433D01*
X80065483Y-140977510D01*
X80232490Y-141144517D01*
X80423567Y-141283343D01*
X80522991Y-141334002D01*
X80634003Y-141390566D01*
X80634005Y-141390566D01*
X80634008Y-141390568D01*
X80733771Y-141422983D01*
X80858631Y-141463553D01*
X81091903Y-141500500D01*
X81091908Y-141500500D01*
X81328097Y-141500500D01*
X81561368Y-141463553D01*
X81785992Y-141390568D01*
X81996433Y-141283343D01*
X82187510Y-141144517D01*
X82262610Y-141069416D01*
X82323929Y-141035934D01*
X82393621Y-141040918D01*
X82449555Y-141082789D01*
X82452562Y-141087467D01*
X82542452Y-141207544D01*
X82542455Y-141207547D01*
X82657664Y-141293793D01*
X82657671Y-141293797D01*
X82792517Y-141344091D01*
X82792516Y-141344091D01*
X82799444Y-141344835D01*
X82852127Y-141350500D01*
X83987769Y-141350499D01*
X84054808Y-141370184D01*
X84075450Y-141386818D01*
X86677049Y-143988416D01*
X86781584Y-144092951D01*
X86781587Y-144092953D01*
X86781588Y-144092954D01*
X86904494Y-144175077D01*
X86904496Y-144175078D01*
X86904505Y-144175084D01*
X86935275Y-144187829D01*
X86935276Y-144187830D01*
X86935277Y-144187830D01*
X87041088Y-144231659D01*
X87157241Y-144254763D01*
X87176468Y-144258587D01*
X87186081Y-144260500D01*
X87186082Y-144260500D01*
X87186083Y-144260500D01*
X87333918Y-144260500D01*
X87835501Y-144260500D01*
X87902540Y-144280185D01*
X87948295Y-144332989D01*
X87959501Y-144384500D01*
X87959501Y-144407876D01*
X87965908Y-144467483D01*
X88016202Y-144602328D01*
X88016206Y-144602335D01*
X88102452Y-144717544D01*
X88102455Y-144717547D01*
X88217664Y-144803793D01*
X88217671Y-144803797D01*
X88352517Y-144854091D01*
X88352516Y-144854091D01*
X88359444Y-144854835D01*
X88412127Y-144860500D01*
X91045611Y-144860499D01*
X91056419Y-144860971D01*
X91109999Y-144865659D01*
X91110000Y-144865659D01*
X91110001Y-144865659D01*
X91163580Y-144860971D01*
X91174388Y-144860499D01*
X92007871Y-144860499D01*
X92007872Y-144860499D01*
X92067483Y-144854091D01*
X92202331Y-144803796D01*
X92317546Y-144717546D01*
X92403796Y-144602331D01*
X92454091Y-144467483D01*
X92460500Y-144407873D01*
X92460499Y-143574383D01*
X92460971Y-143563576D01*
X92465659Y-143510000D01*
X92465659Y-143509999D01*
X92460971Y-143456421D01*
X92460499Y-143445613D01*
X92460499Y-142612129D01*
X92460498Y-142612123D01*
X92460497Y-142612116D01*
X92454091Y-142552517D01*
X92403796Y-142417669D01*
X92326421Y-142314309D01*
X92302004Y-142248848D01*
X92316855Y-142180575D01*
X92326416Y-142165696D01*
X92403796Y-142062331D01*
X92454091Y-141927483D01*
X92460500Y-141867873D01*
X92460499Y-141034383D01*
X92460971Y-141023576D01*
X92465659Y-140970000D01*
X92465659Y-140969999D01*
X92460971Y-140916421D01*
X92460499Y-140905613D01*
X92460499Y-140072129D01*
X92460498Y-140072123D01*
X92460497Y-140072116D01*
X92454091Y-140012517D01*
X92403796Y-139877669D01*
X92326421Y-139774309D01*
X92302004Y-139708848D01*
X92316855Y-139640575D01*
X92326416Y-139625696D01*
X92403796Y-139522331D01*
X92454091Y-139387483D01*
X92460500Y-139327873D01*
X92460499Y-138494383D01*
X92460971Y-138483576D01*
X92465659Y-138430000D01*
X92465659Y-138429999D01*
X92460971Y-138376421D01*
X92460499Y-138365613D01*
X92460499Y-137532129D01*
X92460498Y-137532123D01*
X92460497Y-137532116D01*
X92454091Y-137472517D01*
X92448590Y-137457769D01*
X92403797Y-137337671D01*
X92403795Y-137337668D01*
X92326421Y-137234309D01*
X92302004Y-137168848D01*
X92316855Y-137100575D01*
X92326416Y-137085696D01*
X92403796Y-136982331D01*
X92454091Y-136847483D01*
X92460500Y-136787873D01*
X92460499Y-135954383D01*
X92460971Y-135943576D01*
X92465659Y-135890000D01*
X92465659Y-135889999D01*
X92460971Y-135836421D01*
X92460499Y-135825613D01*
X92460499Y-134992129D01*
X92460498Y-134992123D01*
X92460497Y-134992116D01*
X92454091Y-134932517D01*
X92444823Y-134907669D01*
X92403797Y-134797671D01*
X92403793Y-134797664D01*
X92317547Y-134682455D01*
X92317544Y-134682452D01*
X92202335Y-134596206D01*
X92202328Y-134596202D01*
X92067482Y-134545908D01*
X92067483Y-134545908D01*
X92007883Y-134539501D01*
X92007881Y-134539500D01*
X92007873Y-134539500D01*
X92007865Y-134539500D01*
X91174380Y-134539500D01*
X91163573Y-134539028D01*
X91137024Y-134536705D01*
X91110001Y-134534341D01*
X91109998Y-134534341D01*
X91056424Y-134539028D01*
X91045617Y-134539500D01*
X88412129Y-134539500D01*
X88412123Y-134539501D01*
X88352516Y-134545908D01*
X88217671Y-134596202D01*
X88217664Y-134596206D01*
X88102455Y-134682452D01*
X88102452Y-134682455D01*
X88016206Y-134797664D01*
X88016202Y-134797671D01*
X87965908Y-134932517D01*
X87959501Y-134992116D01*
X87959501Y-134992123D01*
X87959500Y-134992135D01*
X87959500Y-136787870D01*
X87959501Y-136787876D01*
X87965908Y-136847483D01*
X88016202Y-136982328D01*
X88016203Y-136982330D01*
X88093578Y-137085689D01*
X88117995Y-137151153D01*
X88103144Y-137219426D01*
X88093578Y-137234311D01*
X88016203Y-137337669D01*
X88016202Y-137337671D01*
X87965908Y-137472517D01*
X87961972Y-137509132D01*
X87959501Y-137532123D01*
X87959500Y-137532135D01*
X87959500Y-138418770D01*
X87939815Y-138485809D01*
X87887011Y-138531564D01*
X87817853Y-138541508D01*
X87754297Y-138512483D01*
X87747819Y-138506451D01*
X85136818Y-135895450D01*
X85103333Y-135834127D01*
X85100499Y-135807769D01*
X85100499Y-135102129D01*
X85100498Y-135102123D01*
X85094091Y-135042516D01*
X85043797Y-134907671D01*
X85043793Y-134907664D01*
X84957547Y-134792455D01*
X84957544Y-134792452D01*
X84842335Y-134706206D01*
X84842328Y-134706202D01*
X84707482Y-134655908D01*
X84707483Y-134655908D01*
X84647883Y-134649501D01*
X84647881Y-134649500D01*
X84647873Y-134649500D01*
X84647864Y-134649500D01*
X82852129Y-134649500D01*
X82852118Y-134649501D01*
X82847751Y-134649971D01*
X82778992Y-134637563D01*
X82727856Y-134589951D01*
X82710500Y-134526681D01*
X82710500Y-133473319D01*
X82730185Y-133406280D01*
X82782989Y-133360525D01*
X82847756Y-133350030D01*
X82852127Y-133350500D01*
X84647872Y-133350499D01*
X84707483Y-133344091D01*
X84842331Y-133293796D01*
X84957546Y-133207546D01*
X85043796Y-133092331D01*
X85094091Y-132957483D01*
X85100500Y-132897873D01*
X85100500Y-132874500D01*
X85120185Y-132807461D01*
X85172989Y-132761706D01*
X85224500Y-132750500D01*
X87823920Y-132750500D01*
X87921462Y-132731096D01*
X87968913Y-132721658D01*
X88105495Y-132665084D01*
X88154729Y-132632186D01*
X88228416Y-132582952D01*
X88614548Y-132196817D01*
X88675871Y-132163333D01*
X88702229Y-132160499D01*
X91045612Y-132160499D01*
X91056420Y-132160971D01*
X91109999Y-132165659D01*
X91110000Y-132165659D01*
X91110001Y-132165659D01*
X91163580Y-132160971D01*
X91174388Y-132160499D01*
X92007871Y-132160499D01*
X92007872Y-132160499D01*
X92067483Y-132154091D01*
X92202331Y-132103796D01*
X92317546Y-132017546D01*
X92403796Y-131902331D01*
X92454091Y-131767483D01*
X92460500Y-131707873D01*
X92460499Y-130874383D01*
X92460971Y-130863576D01*
X92465659Y-130810000D01*
X92465659Y-130809999D01*
X92460971Y-130756421D01*
X92460499Y-130745613D01*
X92460499Y-129912129D01*
X92460498Y-129912123D01*
X92460497Y-129912116D01*
X92454091Y-129852517D01*
X92403796Y-129717669D01*
X92326421Y-129614309D01*
X92302004Y-129548848D01*
X92316855Y-129480575D01*
X92326416Y-129465696D01*
X92403796Y-129362331D01*
X92454091Y-129227483D01*
X92460500Y-129167873D01*
X92460499Y-128334383D01*
X92460971Y-128323576D01*
X92465659Y-128270000D01*
X92465659Y-128269999D01*
X92460971Y-128216421D01*
X92460499Y-128205613D01*
X92460499Y-127372129D01*
X92460498Y-127372123D01*
X92460497Y-127372116D01*
X92454091Y-127312517D01*
X92434479Y-127259935D01*
X92403797Y-127177671D01*
X92403795Y-127177668D01*
X92390594Y-127160034D01*
X92326421Y-127074309D01*
X92302004Y-127008848D01*
X92316855Y-126940575D01*
X92326416Y-126925696D01*
X92403796Y-126822331D01*
X92454091Y-126687483D01*
X92460500Y-126627873D01*
X92460499Y-125794383D01*
X92460971Y-125783576D01*
X92465659Y-125730000D01*
X92465659Y-125729999D01*
X92460971Y-125676421D01*
X92460499Y-125665613D01*
X92460499Y-124832129D01*
X92460498Y-124832123D01*
X92460497Y-124832116D01*
X92454091Y-124772517D01*
X92445690Y-124749994D01*
X93414357Y-124749994D01*
X93414357Y-124750005D01*
X93434890Y-124997812D01*
X93434892Y-124997824D01*
X93495936Y-125238881D01*
X93595826Y-125466606D01*
X93731833Y-125674782D01*
X93731836Y-125674785D01*
X93900256Y-125857738D01*
X94096491Y-126010474D01*
X94315190Y-126128828D01*
X94550386Y-126209571D01*
X94795665Y-126250500D01*
X95044335Y-126250500D01*
X95289614Y-126209571D01*
X95524810Y-126128828D01*
X95743509Y-126010474D01*
X95939744Y-125857738D01*
X96108164Y-125674785D01*
X96244173Y-125466607D01*
X96344063Y-125238881D01*
X96405108Y-124997821D01*
X96417181Y-124852127D01*
X96425643Y-124750005D01*
X96425643Y-124749994D01*
X96407771Y-124534312D01*
X96405108Y-124502179D01*
X96394515Y-124460353D01*
X96393104Y-124405724D01*
X96400501Y-124368540D01*
X96400501Y-124171459D01*
X96400501Y-124166349D01*
X96400500Y-124166323D01*
X96400500Y-123702135D01*
X103579500Y-123702135D01*
X103579500Y-125797870D01*
X103579501Y-125797876D01*
X103585908Y-125857483D01*
X103636202Y-125992328D01*
X103636206Y-125992335D01*
X103722452Y-126107544D01*
X103722455Y-126107547D01*
X103837664Y-126193793D01*
X103837671Y-126193797D01*
X103972517Y-126244091D01*
X103972516Y-126244091D01*
X103979444Y-126244835D01*
X104032127Y-126250500D01*
X106127872Y-126250499D01*
X106187483Y-126244091D01*
X106322331Y-126193796D01*
X106437546Y-126107546D01*
X106523796Y-125992331D01*
X106574091Y-125857483D01*
X106580500Y-125797873D01*
X106580499Y-124715780D01*
X106600184Y-124648742D01*
X106616813Y-124628105D01*
X106887778Y-124357141D01*
X106887782Y-124357139D01*
X107027139Y-124217782D01*
X107136632Y-124053914D01*
X107212051Y-123871835D01*
X107221325Y-123825215D01*
X107250500Y-123678540D01*
X107250500Y-123481460D01*
X107250500Y-110489997D01*
X107534341Y-110489997D01*
X107534341Y-110490002D01*
X107539028Y-110543576D01*
X107539500Y-110554383D01*
X107539500Y-111387870D01*
X107539501Y-111387876D01*
X107545908Y-111447483D01*
X107596202Y-111582328D01*
X107596203Y-111582330D01*
X107673578Y-111685689D01*
X107697995Y-111751153D01*
X107683144Y-111819426D01*
X107673578Y-111834311D01*
X107596203Y-111937669D01*
X107596202Y-111937671D01*
X107545908Y-112072517D01*
X107543778Y-112092335D01*
X107539501Y-112132123D01*
X107539500Y-112132135D01*
X107539500Y-112965616D01*
X107539028Y-112976423D01*
X107534341Y-113029997D01*
X107534341Y-113030002D01*
X107539028Y-113083576D01*
X107539500Y-113094383D01*
X107539500Y-113927870D01*
X107539501Y-113927876D01*
X107545908Y-113987483D01*
X107596202Y-114122328D01*
X107596203Y-114122330D01*
X107673578Y-114225689D01*
X107697995Y-114291153D01*
X107683144Y-114359426D01*
X107673578Y-114374311D01*
X107596203Y-114477669D01*
X107596202Y-114477671D01*
X107545908Y-114612517D01*
X107539501Y-114672116D01*
X107539501Y-114672123D01*
X107539500Y-114672135D01*
X107539500Y-115505616D01*
X107539028Y-115516423D01*
X107534341Y-115569997D01*
X107534341Y-115570002D01*
X107539028Y-115623576D01*
X107539500Y-115634383D01*
X107539500Y-116467870D01*
X107539501Y-116467876D01*
X107545908Y-116527483D01*
X107596202Y-116662328D01*
X107596203Y-116662330D01*
X107673578Y-116765689D01*
X107697995Y-116831153D01*
X107683144Y-116899426D01*
X107673578Y-116914311D01*
X107596203Y-117017669D01*
X107596202Y-117017671D01*
X107545908Y-117152517D01*
X107539501Y-117212116D01*
X107539501Y-117212123D01*
X107539500Y-117212135D01*
X107539500Y-118045616D01*
X107539028Y-118056423D01*
X107534341Y-118109997D01*
X107534341Y-118110002D01*
X107539028Y-118163576D01*
X107539500Y-118174383D01*
X107539500Y-119007870D01*
X107539501Y-119007876D01*
X107545908Y-119067483D01*
X107596202Y-119202328D01*
X107596206Y-119202335D01*
X107682452Y-119317544D01*
X107682455Y-119317547D01*
X107797664Y-119403793D01*
X107797671Y-119403797D01*
X107932517Y-119454091D01*
X107932516Y-119454091D01*
X107939444Y-119454835D01*
X107992127Y-119460500D01*
X108825616Y-119460499D01*
X108836425Y-119460971D01*
X108890000Y-119465659D01*
X108943575Y-119460971D01*
X108954384Y-119460499D01*
X111587871Y-119460499D01*
X111587872Y-119460499D01*
X111647483Y-119454091D01*
X111782331Y-119403796D01*
X111897546Y-119317546D01*
X111983796Y-119202331D01*
X112034091Y-119067483D01*
X112040500Y-119007873D01*
X112040499Y-117212128D01*
X112034091Y-117152517D01*
X112023673Y-117124586D01*
X111983797Y-117017671D01*
X111983795Y-117017668D01*
X111906421Y-116914309D01*
X111882004Y-116848848D01*
X111896855Y-116780575D01*
X111906416Y-116765696D01*
X111983796Y-116662331D01*
X112034091Y-116527483D01*
X112040500Y-116467873D01*
X112040499Y-114672128D01*
X112034091Y-114612517D01*
X111983796Y-114477669D01*
X111906421Y-114374309D01*
X111882004Y-114308848D01*
X111896855Y-114240575D01*
X111906416Y-114225696D01*
X111983796Y-114122331D01*
X112034091Y-113987483D01*
X112040500Y-113927873D01*
X112040499Y-112132128D01*
X112034091Y-112072517D01*
X111983796Y-111937669D01*
X111906421Y-111834309D01*
X111882004Y-111768848D01*
X111896855Y-111700575D01*
X111906416Y-111685696D01*
X111983796Y-111582331D01*
X112034091Y-111447483D01*
X112040500Y-111387873D01*
X112040499Y-109592128D01*
X112034091Y-109532517D01*
X112031914Y-109526681D01*
X111983797Y-109397671D01*
X111983793Y-109397664D01*
X111897547Y-109282455D01*
X111897544Y-109282452D01*
X111782335Y-109196206D01*
X111782328Y-109196202D01*
X111647482Y-109145908D01*
X111647483Y-109145908D01*
X111587883Y-109139501D01*
X111587881Y-109139500D01*
X111587873Y-109139500D01*
X111587865Y-109139500D01*
X108954385Y-109139500D01*
X108943578Y-109139028D01*
X108890001Y-109134341D01*
X108889997Y-109134341D01*
X108836419Y-109139028D01*
X108825613Y-109139500D01*
X107992129Y-109139500D01*
X107992123Y-109139501D01*
X107932516Y-109145908D01*
X107797671Y-109196202D01*
X107797664Y-109196206D01*
X107682455Y-109282452D01*
X107682452Y-109282455D01*
X107596206Y-109397664D01*
X107596202Y-109397671D01*
X107545908Y-109532517D01*
X107539734Y-109589951D01*
X107539501Y-109592123D01*
X107539500Y-109592135D01*
X107539500Y-110425616D01*
X107539028Y-110436423D01*
X107534341Y-110489997D01*
X107250500Y-110489997D01*
X107250500Y-107715781D01*
X107270185Y-107648742D01*
X107286815Y-107628104D01*
X108118101Y-106796817D01*
X108179424Y-106763333D01*
X108205782Y-106760499D01*
X108825616Y-106760499D01*
X108836425Y-106760971D01*
X108890000Y-106765659D01*
X108943575Y-106760971D01*
X108954384Y-106760499D01*
X111587871Y-106760499D01*
X111587872Y-106760499D01*
X111647483Y-106754091D01*
X111782331Y-106703796D01*
X111897546Y-106617546D01*
X111983796Y-106502331D01*
X112034091Y-106367483D01*
X112040500Y-106307873D01*
X112040499Y-104512128D01*
X112034091Y-104452517D01*
X112010559Y-104389425D01*
X111983797Y-104317671D01*
X111983795Y-104317668D01*
X111965925Y-104293797D01*
X111906421Y-104214309D01*
X111882004Y-104148848D01*
X111896855Y-104080575D01*
X111906416Y-104065696D01*
X111983796Y-103962331D01*
X112034091Y-103827483D01*
X112040500Y-103767873D01*
X112040499Y-101972128D01*
X112034091Y-101912517D01*
X111989310Y-101792454D01*
X111983797Y-101777671D01*
X111983793Y-101777664D01*
X111897547Y-101662455D01*
X111897544Y-101662452D01*
X111782335Y-101576206D01*
X111782328Y-101576202D01*
X111647482Y-101525908D01*
X111647483Y-101525908D01*
X111587883Y-101519501D01*
X111587881Y-101519500D01*
X111587873Y-101519500D01*
X111587865Y-101519500D01*
X108954385Y-101519500D01*
X108943578Y-101519028D01*
X108890001Y-101514341D01*
X108889997Y-101514341D01*
X108836419Y-101519028D01*
X108825613Y-101519500D01*
X107992129Y-101519500D01*
X107992123Y-101519501D01*
X107932516Y-101525908D01*
X107797671Y-101576202D01*
X107797664Y-101576206D01*
X107682455Y-101662452D01*
X107682452Y-101662455D01*
X107596206Y-101777664D01*
X107596202Y-101777671D01*
X107545908Y-101912517D01*
X107539501Y-101972116D01*
X107539501Y-101972123D01*
X107539500Y-101972135D01*
X107539500Y-102805616D01*
X107539028Y-102816423D01*
X107534341Y-102869997D01*
X107534341Y-102870002D01*
X107539028Y-102923576D01*
X107539500Y-102934383D01*
X107539500Y-103767870D01*
X107539501Y-103767876D01*
X107545908Y-103827483D01*
X107596202Y-103962328D01*
X107596203Y-103962330D01*
X107673578Y-104065689D01*
X107697995Y-104131153D01*
X107683144Y-104199426D01*
X107673578Y-104214311D01*
X107596203Y-104317669D01*
X107596202Y-104317671D01*
X107545908Y-104452517D01*
X107539499Y-104512132D01*
X107539351Y-104514893D01*
X107516099Y-104580780D01*
X107484421Y-104611343D01*
X107452219Y-104632859D01*
X107396740Y-104688339D01*
X107312861Y-104772218D01*
X107312858Y-104772221D01*
X105612221Y-106472858D01*
X105612218Y-106472861D01*
X105542538Y-106542540D01*
X105472859Y-106612219D01*
X105363371Y-106776079D01*
X105363364Y-106776092D01*
X105287950Y-106958160D01*
X105287947Y-106958170D01*
X105249500Y-107151456D01*
X105249500Y-123114216D01*
X105229815Y-123181255D01*
X105213181Y-123201897D01*
X105201897Y-123213181D01*
X105140574Y-123246666D01*
X105114216Y-123249500D01*
X104032129Y-123249500D01*
X104032123Y-123249501D01*
X103972516Y-123255908D01*
X103837671Y-123306202D01*
X103837664Y-123306206D01*
X103722455Y-123392452D01*
X103722452Y-123392455D01*
X103636206Y-123507664D01*
X103636202Y-123507671D01*
X103585908Y-123642517D01*
X103579501Y-123702116D01*
X103579500Y-123702135D01*
X96400500Y-123702135D01*
X96400500Y-120860758D01*
X96420185Y-120793719D01*
X96436819Y-120773077D01*
X96438495Y-120771401D01*
X96574035Y-120577830D01*
X96673903Y-120363663D01*
X96735063Y-120135408D01*
X96755659Y-119900000D01*
X96735063Y-119664592D01*
X96673903Y-119436337D01*
X96574035Y-119222171D01*
X96530527Y-119160034D01*
X96438494Y-119028597D01*
X96436819Y-119026922D01*
X96436315Y-119026000D01*
X96435014Y-119024449D01*
X96435325Y-119024187D01*
X96403334Y-118965599D01*
X96400500Y-118939241D01*
X96400500Y-118320758D01*
X96420185Y-118253719D01*
X96436819Y-118233077D01*
X96438495Y-118231401D01*
X96574035Y-118037830D01*
X96673903Y-117823663D01*
X96735063Y-117595408D01*
X96755659Y-117360000D01*
X96735063Y-117124592D01*
X96688626Y-116951285D01*
X96673905Y-116896344D01*
X96673904Y-116896343D01*
X96673903Y-116896337D01*
X96574035Y-116682171D01*
X96560143Y-116662330D01*
X96438494Y-116488597D01*
X96271402Y-116321506D01*
X96271395Y-116321501D01*
X96077834Y-116185967D01*
X96077830Y-116185965D01*
X96013375Y-116155909D01*
X95863663Y-116086097D01*
X95863659Y-116086096D01*
X95863655Y-116086094D01*
X95635413Y-116024938D01*
X95635403Y-116024936D01*
X95400001Y-116004341D01*
X95399999Y-116004341D01*
X95164596Y-116024936D01*
X95164586Y-116024938D01*
X94936344Y-116086094D01*
X94936335Y-116086098D01*
X94722171Y-116185964D01*
X94722169Y-116185965D01*
X94528597Y-116321505D01*
X94361505Y-116488597D01*
X94225965Y-116682169D01*
X94225964Y-116682171D01*
X94126098Y-116896335D01*
X94126094Y-116896344D01*
X94064938Y-117124586D01*
X94064936Y-117124596D01*
X94044341Y-117359999D01*
X94044341Y-117360000D01*
X94064936Y-117595403D01*
X94064938Y-117595413D01*
X94126094Y-117823655D01*
X94126096Y-117823659D01*
X94126097Y-117823663D01*
X94225965Y-118037830D01*
X94225967Y-118037834D01*
X94361501Y-118231395D01*
X94361506Y-118231402D01*
X94363181Y-118233077D01*
X94363682Y-118233995D01*
X94364982Y-118235544D01*
X94364670Y-118235805D01*
X94396666Y-118294400D01*
X94399500Y-118320758D01*
X94399500Y-118939241D01*
X94379815Y-119006280D01*
X94363181Y-119026922D01*
X94361505Y-119028597D01*
X94225965Y-119222169D01*
X94225964Y-119222171D01*
X94126098Y-119436335D01*
X94126094Y-119436344D01*
X94064938Y-119664586D01*
X94064936Y-119664596D01*
X94044341Y-119899999D01*
X94044341Y-119900000D01*
X94064936Y-120135403D01*
X94064938Y-120135413D01*
X94126094Y-120363655D01*
X94126096Y-120363659D01*
X94126097Y-120363663D01*
X94160061Y-120436499D01*
X94225965Y-120577830D01*
X94225967Y-120577834D01*
X94361501Y-120771395D01*
X94361506Y-120771402D01*
X94363181Y-120773077D01*
X94363682Y-120773995D01*
X94364982Y-120775544D01*
X94364670Y-120775805D01*
X94396666Y-120834400D01*
X94399500Y-120860758D01*
X94399500Y-123253693D01*
X94379815Y-123320732D01*
X94327011Y-123366487D01*
X94315781Y-123370968D01*
X94315204Y-123371166D01*
X94315188Y-123371172D01*
X94096493Y-123489524D01*
X93900257Y-123642261D01*
X93731836Y-123825215D01*
X93595826Y-124033393D01*
X93495936Y-124261118D01*
X93434892Y-124502175D01*
X93434890Y-124502187D01*
X93414357Y-124749994D01*
X92445690Y-124749994D01*
X92403797Y-124637671D01*
X92403795Y-124637668D01*
X92326421Y-124534309D01*
X92302004Y-124468848D01*
X92316855Y-124400575D01*
X92326416Y-124385696D01*
X92403796Y-124282331D01*
X92454091Y-124147483D01*
X92460500Y-124087873D01*
X92460499Y-123254383D01*
X92460971Y-123243576D01*
X92465659Y-123190000D01*
X92465659Y-123189999D01*
X92460971Y-123136421D01*
X92460499Y-123125613D01*
X92460499Y-122292129D01*
X92460498Y-122292123D01*
X92460497Y-122292116D01*
X92454091Y-122232517D01*
X92403796Y-122097669D01*
X92403795Y-122097668D01*
X92403793Y-122097664D01*
X92317547Y-121982455D01*
X92317544Y-121982452D01*
X92202335Y-121896206D01*
X92202328Y-121896202D01*
X92067482Y-121845908D01*
X92067483Y-121845908D01*
X92007883Y-121839501D01*
X92007881Y-121839500D01*
X92007873Y-121839500D01*
X92007865Y-121839500D01*
X91174380Y-121839500D01*
X91163573Y-121839028D01*
X91136575Y-121836666D01*
X91110001Y-121834341D01*
X91109998Y-121834341D01*
X91056424Y-121839028D01*
X91045617Y-121839500D01*
X88412129Y-121839500D01*
X88412123Y-121839501D01*
X88352516Y-121845908D01*
X88217671Y-121896202D01*
X88217664Y-121896206D01*
X88102455Y-121982452D01*
X88102452Y-121982455D01*
X88016206Y-122097664D01*
X88016202Y-122097671D01*
X87965908Y-122232517D01*
X87959501Y-122292116D01*
X87959501Y-122292123D01*
X87959500Y-122292135D01*
X87959500Y-122315500D01*
X87939815Y-122382539D01*
X87887011Y-122428294D01*
X87835500Y-122439500D01*
X85802230Y-122439500D01*
X85735191Y-122419815D01*
X85714549Y-122403181D01*
X85136818Y-121825450D01*
X85103333Y-121764127D01*
X85100499Y-121737769D01*
X85100499Y-120602129D01*
X85100498Y-120602123D01*
X85094091Y-120542516D01*
X85043797Y-120407671D01*
X85043793Y-120407664D01*
X84957547Y-120292455D01*
X84957544Y-120292452D01*
X84842335Y-120206206D01*
X84842328Y-120206202D01*
X84707482Y-120155908D01*
X84707483Y-120155908D01*
X84647883Y-120149501D01*
X84647881Y-120149500D01*
X84647873Y-120149500D01*
X84647864Y-120149500D01*
X82852129Y-120149500D01*
X82852118Y-120149501D01*
X82847751Y-120149971D01*
X82778992Y-120137563D01*
X82727856Y-120089951D01*
X82710500Y-120026681D01*
X82710500Y-118973319D01*
X82730185Y-118906280D01*
X82782989Y-118860525D01*
X82847756Y-118850030D01*
X82852127Y-118850500D01*
X84647872Y-118850499D01*
X84707483Y-118844091D01*
X84842331Y-118793796D01*
X84957546Y-118707546D01*
X85043796Y-118592331D01*
X85094091Y-118457483D01*
X85100500Y-118397873D01*
X85100500Y-118374500D01*
X85120185Y-118307461D01*
X85172989Y-118261706D01*
X85224500Y-118250500D01*
X87167770Y-118250500D01*
X87234809Y-118270185D01*
X87255451Y-118286819D01*
X87557049Y-118588416D01*
X87616503Y-118647870D01*
X87661585Y-118692952D01*
X87784498Y-118775080D01*
X87784511Y-118775087D01*
X87882952Y-118815862D01*
X87937356Y-118859702D01*
X87959421Y-118925996D01*
X87959500Y-118930421D01*
X87959500Y-119007869D01*
X87959501Y-119007876D01*
X87965908Y-119067483D01*
X88016202Y-119202328D01*
X88016206Y-119202335D01*
X88102452Y-119317544D01*
X88102455Y-119317547D01*
X88217664Y-119403793D01*
X88217671Y-119403797D01*
X88352517Y-119454091D01*
X88352516Y-119454091D01*
X88359444Y-119454835D01*
X88412127Y-119460500D01*
X91045611Y-119460499D01*
X91056419Y-119460971D01*
X91109999Y-119465659D01*
X91110000Y-119465659D01*
X91110001Y-119465659D01*
X91163580Y-119460971D01*
X91174388Y-119460499D01*
X92007871Y-119460499D01*
X92007872Y-119460499D01*
X92067483Y-119454091D01*
X92202331Y-119403796D01*
X92317546Y-119317546D01*
X92403796Y-119202331D01*
X92454091Y-119067483D01*
X92460500Y-119007873D01*
X92460499Y-118174383D01*
X92460971Y-118163576D01*
X92465659Y-118110000D01*
X92465659Y-118109999D01*
X92460971Y-118056421D01*
X92460499Y-118045613D01*
X92460499Y-117212129D01*
X92460498Y-117212123D01*
X92460497Y-117212116D01*
X92454091Y-117152517D01*
X92443673Y-117124586D01*
X92403797Y-117017671D01*
X92403795Y-117017668D01*
X92326421Y-116914309D01*
X92302004Y-116848848D01*
X92316855Y-116780575D01*
X92326416Y-116765696D01*
X92403796Y-116662331D01*
X92454091Y-116527483D01*
X92460500Y-116467873D01*
X92460499Y-115634383D01*
X92460971Y-115623576D01*
X92465659Y-115570000D01*
X92465659Y-115569999D01*
X92460971Y-115516421D01*
X92460499Y-115505613D01*
X92460499Y-114672129D01*
X92460498Y-114672123D01*
X92460497Y-114672116D01*
X92454091Y-114612517D01*
X92403796Y-114477669D01*
X92326421Y-114374309D01*
X92302004Y-114308848D01*
X92316855Y-114240575D01*
X92326416Y-114225696D01*
X92403796Y-114122331D01*
X92454091Y-113987483D01*
X92460500Y-113927873D01*
X92460499Y-113094383D01*
X92460971Y-113083576D01*
X92465659Y-113030000D01*
X92465659Y-113029999D01*
X92460971Y-112976421D01*
X92460499Y-112965613D01*
X92460499Y-112132129D01*
X92460498Y-112132123D01*
X92460497Y-112132116D01*
X92454091Y-112072517D01*
X92403796Y-111937669D01*
X92326421Y-111834309D01*
X92302004Y-111768848D01*
X92316855Y-111700575D01*
X92326416Y-111685696D01*
X92403796Y-111582331D01*
X92454091Y-111447483D01*
X92460500Y-111387873D01*
X92460499Y-110554383D01*
X92460971Y-110543576D01*
X92465659Y-110490000D01*
X92465659Y-110489999D01*
X92460971Y-110436421D01*
X92460499Y-110425613D01*
X92460499Y-109592129D01*
X92460498Y-109592123D01*
X92460497Y-109592116D01*
X92454091Y-109532517D01*
X92451914Y-109526681D01*
X92403797Y-109397671D01*
X92403793Y-109397664D01*
X92317547Y-109282455D01*
X92317544Y-109282452D01*
X92202335Y-109196206D01*
X92202328Y-109196202D01*
X92067482Y-109145908D01*
X92067483Y-109145908D01*
X92007883Y-109139501D01*
X92007881Y-109139500D01*
X92007873Y-109139500D01*
X92007865Y-109139500D01*
X91174380Y-109139500D01*
X91163573Y-109139028D01*
X91137024Y-109136705D01*
X91110001Y-109134341D01*
X91109998Y-109134341D01*
X91056424Y-109139028D01*
X91045617Y-109139500D01*
X88412129Y-109139500D01*
X88412123Y-109139501D01*
X88352516Y-109145908D01*
X88217671Y-109196202D01*
X88217664Y-109196206D01*
X88102455Y-109282452D01*
X88102452Y-109282455D01*
X88016206Y-109397664D01*
X88016202Y-109397671D01*
X87965908Y-109532517D01*
X87959734Y-109589951D01*
X87959501Y-109592123D01*
X87959500Y-109592135D01*
X87959500Y-109615500D01*
X87939815Y-109682539D01*
X87887011Y-109728294D01*
X87835500Y-109739500D01*
X84928081Y-109739500D01*
X84861042Y-109719815D01*
X84853771Y-109714767D01*
X84842335Y-109706206D01*
X84842328Y-109706202D01*
X84707482Y-109655908D01*
X84707483Y-109655908D01*
X84647883Y-109649501D01*
X84647881Y-109649500D01*
X84647873Y-109649500D01*
X84647864Y-109649500D01*
X82852129Y-109649500D01*
X82852118Y-109649501D01*
X82847751Y-109649971D01*
X82778992Y-109637563D01*
X82727856Y-109589951D01*
X82710500Y-109526681D01*
X82710500Y-108473319D01*
X82730185Y-108406280D01*
X82782989Y-108360525D01*
X82847756Y-108350030D01*
X82852127Y-108350500D01*
X84647872Y-108350499D01*
X84707483Y-108344091D01*
X84842331Y-108293796D01*
X84957546Y-108207546D01*
X85043796Y-108092331D01*
X85094091Y-107957483D01*
X85100500Y-107897873D01*
X85100499Y-106762228D01*
X85120184Y-106695190D01*
X85136813Y-106674553D01*
X85614548Y-106196819D01*
X85675871Y-106163334D01*
X85702229Y-106160500D01*
X87835501Y-106160500D01*
X87902540Y-106180185D01*
X87948295Y-106232989D01*
X87959501Y-106284500D01*
X87959501Y-106307876D01*
X87965908Y-106367483D01*
X88016202Y-106502328D01*
X88016206Y-106502335D01*
X88102452Y-106617544D01*
X88102455Y-106617547D01*
X88217664Y-106703793D01*
X88217671Y-106703797D01*
X88352517Y-106754091D01*
X88352516Y-106754091D01*
X88359444Y-106754835D01*
X88412127Y-106760500D01*
X91045611Y-106760499D01*
X91056419Y-106760971D01*
X91109999Y-106765659D01*
X91110000Y-106765659D01*
X91110001Y-106765659D01*
X91163580Y-106760971D01*
X91174388Y-106760499D01*
X92007871Y-106760499D01*
X92007872Y-106760499D01*
X92067483Y-106754091D01*
X92202331Y-106703796D01*
X92317546Y-106617546D01*
X92403796Y-106502331D01*
X92454091Y-106367483D01*
X92460500Y-106307873D01*
X92460499Y-105474384D01*
X92460971Y-105463576D01*
X92465659Y-105410000D01*
X92465659Y-105409999D01*
X92460971Y-105356421D01*
X92460499Y-105345613D01*
X92460499Y-104512129D01*
X92460498Y-104512123D01*
X92460497Y-104512116D01*
X92454091Y-104452517D01*
X92430559Y-104389425D01*
X92403797Y-104317671D01*
X92403795Y-104317668D01*
X92385925Y-104293797D01*
X92326421Y-104214309D01*
X92302004Y-104148848D01*
X92316855Y-104080575D01*
X92326416Y-104065696D01*
X92403796Y-103962331D01*
X92454091Y-103827483D01*
X92460500Y-103767873D01*
X92460499Y-102934383D01*
X92460971Y-102923576D01*
X92465659Y-102870000D01*
X92465659Y-102869999D01*
X92460971Y-102816421D01*
X92460499Y-102805613D01*
X92460499Y-101972129D01*
X92460498Y-101972123D01*
X92460497Y-101972116D01*
X92454091Y-101912517D01*
X92409310Y-101792454D01*
X92403797Y-101777671D01*
X92403793Y-101777664D01*
X92317547Y-101662455D01*
X92317544Y-101662452D01*
X92202335Y-101576206D01*
X92202328Y-101576202D01*
X92067482Y-101525908D01*
X92067483Y-101525908D01*
X92007883Y-101519501D01*
X92007881Y-101519500D01*
X92007873Y-101519500D01*
X92007865Y-101519500D01*
X91174380Y-101519500D01*
X91163573Y-101519028D01*
X91137024Y-101516705D01*
X91110001Y-101514341D01*
X91109998Y-101514341D01*
X91056424Y-101519028D01*
X91045617Y-101519500D01*
X88412129Y-101519500D01*
X88412123Y-101519501D01*
X88352516Y-101525908D01*
X88217671Y-101576202D01*
X88217664Y-101576206D01*
X88102455Y-101662452D01*
X88102452Y-101662455D01*
X88016206Y-101777664D01*
X88016202Y-101777671D01*
X87965908Y-101912517D01*
X87959501Y-101972116D01*
X87959501Y-101972123D01*
X87959500Y-101972135D01*
X87959500Y-101995500D01*
X87939815Y-102062539D01*
X87887011Y-102108294D01*
X87835500Y-102119500D01*
X85208899Y-102119500D01*
X85141860Y-102099815D01*
X85096105Y-102047011D01*
X85092717Y-102038833D01*
X85043797Y-101907671D01*
X85043793Y-101907664D01*
X84957547Y-101792455D01*
X84957544Y-101792452D01*
X84842335Y-101706206D01*
X84842328Y-101706202D01*
X84707482Y-101655908D01*
X84707483Y-101655908D01*
X84647883Y-101649501D01*
X84647881Y-101649500D01*
X84647873Y-101649500D01*
X84647864Y-101649500D01*
X82852129Y-101649500D01*
X82852118Y-101649501D01*
X82847751Y-101649971D01*
X82778992Y-101637563D01*
X82727856Y-101589951D01*
X82710500Y-101526681D01*
X82710500Y-99551902D01*
X82673553Y-99318631D01*
X82600566Y-99094003D01*
X82546006Y-98986924D01*
X82493343Y-98883567D01*
X82467344Y-98847782D01*
X82354518Y-98692490D01*
X81286819Y-97624791D01*
X81253334Y-97563468D01*
X81250500Y-97537110D01*
X81250500Y-95551902D01*
X81213553Y-95318631D01*
X81140566Y-95094003D01*
X81033342Y-94883566D01*
X80894517Y-94692490D01*
X80727510Y-94525483D01*
X80536433Y-94386657D01*
X80325996Y-94279433D01*
X80101368Y-94206446D01*
X79868097Y-94169500D01*
X79868092Y-94169500D01*
X79631908Y-94169500D01*
X79631903Y-94169500D01*
X79398631Y-94206446D01*
X79174003Y-94279433D01*
X78963566Y-94386657D01*
X78854550Y-94465862D01*
X78772490Y-94525483D01*
X78772488Y-94525485D01*
X78772487Y-94525485D01*
X78605485Y-94692487D01*
X78605485Y-94692488D01*
X78605483Y-94692490D01*
X78545862Y-94774550D01*
X78466657Y-94883566D01*
X78359433Y-95094003D01*
X78286446Y-95318631D01*
X78249500Y-95551902D01*
X76500500Y-95551902D01*
X76500500Y-58091902D01*
X78249500Y-58091902D01*
X78249500Y-60868097D01*
X78286447Y-61101369D01*
X78286447Y-61101372D01*
X78359430Y-61325988D01*
X78359430Y-61325989D01*
X78385985Y-61378106D01*
X78399500Y-61434399D01*
X78399500Y-61647869D01*
X78399501Y-61647876D01*
X78405908Y-61707483D01*
X78456202Y-61842328D01*
X78456206Y-61842335D01*
X78542452Y-61957544D01*
X78542455Y-61957547D01*
X78657664Y-62043793D01*
X78657671Y-62043797D01*
X78702618Y-62060561D01*
X78792517Y-62094091D01*
X78852127Y-62100500D01*
X79065598Y-62100499D01*
X79121893Y-62114014D01*
X79174008Y-62140568D01*
X79355059Y-62199395D01*
X79398631Y-62213553D01*
X79631903Y-62250500D01*
X79631908Y-62250500D01*
X79868097Y-62250500D01*
X80101368Y-62213553D01*
X80325992Y-62140568D01*
X80378107Y-62114014D01*
X80434401Y-62100499D01*
X80647871Y-62100499D01*
X80647872Y-62100499D01*
X80707483Y-62094091D01*
X80842331Y-62043796D01*
X80957546Y-61957546D01*
X81043796Y-61842331D01*
X81094091Y-61707483D01*
X81100500Y-61647873D01*
X81100499Y-61434399D01*
X81114014Y-61378105D01*
X81140568Y-61325992D01*
X81213553Y-61101368D01*
X81250500Y-60868097D01*
X81250500Y-59834500D01*
X81270185Y-59767461D01*
X81322989Y-59721706D01*
X81374500Y-59710500D01*
X90658097Y-59710500D01*
X90891368Y-59673553D01*
X91115992Y-59600568D01*
X91326434Y-59493343D01*
X91517510Y-59354517D01*
X97912319Y-52959708D01*
X97973642Y-52926223D01*
X98043334Y-52931207D01*
X98087681Y-52959708D01*
X101713181Y-56585208D01*
X101746666Y-56646531D01*
X101749500Y-56672889D01*
X101749500Y-60784217D01*
X101729815Y-60851256D01*
X101713181Y-60871898D01*
X93112221Y-69472858D01*
X93112218Y-69472861D01*
X93042538Y-69542540D01*
X92972859Y-69612219D01*
X92863371Y-69776079D01*
X92863364Y-69776092D01*
X92787950Y-69958160D01*
X92787947Y-69958170D01*
X92749500Y-70151456D01*
X92749500Y-102748543D01*
X92767792Y-102840499D01*
X92767792Y-102840500D01*
X92787947Y-102941829D01*
X92787950Y-102941840D01*
X92799417Y-102969520D01*
X92799418Y-102969526D01*
X92799419Y-102969526D01*
X92863368Y-103123914D01*
X92863369Y-103123917D01*
X92972859Y-103287780D01*
X92972860Y-103287781D01*
X92972861Y-103287782D01*
X93112218Y-103427139D01*
X93112219Y-103427139D01*
X93119286Y-103434206D01*
X93119285Y-103434206D01*
X93119289Y-103434209D01*
X94013181Y-104328102D01*
X94046666Y-104389425D01*
X94049500Y-104415783D01*
X94049500Y-105197870D01*
X94049501Y-105197876D01*
X94055908Y-105257483D01*
X94106202Y-105392328D01*
X94106203Y-105392330D01*
X94183578Y-105495689D01*
X94207995Y-105561153D01*
X94193144Y-105629426D01*
X94183578Y-105644309D01*
X94181815Y-105646666D01*
X94106203Y-105747669D01*
X94106202Y-105747671D01*
X94055908Y-105882517D01*
X94051225Y-105926079D01*
X94049501Y-105942123D01*
X94049500Y-105942135D01*
X94049500Y-107737870D01*
X94049501Y-107737876D01*
X94055908Y-107797483D01*
X94106202Y-107932328D01*
X94106206Y-107932335D01*
X94192452Y-108047544D01*
X94192455Y-108047547D01*
X94307664Y-108133793D01*
X94307671Y-108133797D01*
X94442517Y-108184091D01*
X94442516Y-108184091D01*
X94449444Y-108184835D01*
X94502127Y-108190500D01*
X96297872Y-108190499D01*
X96357483Y-108184091D01*
X96492331Y-108133796D01*
X96607546Y-108047546D01*
X96693796Y-107932331D01*
X96744091Y-107797483D01*
X96750500Y-107737873D01*
X96750499Y-105942128D01*
X96744091Y-105882517D01*
X96706258Y-105781082D01*
X96693797Y-105747671D01*
X96693795Y-105747668D01*
X96616421Y-105644309D01*
X96592004Y-105578848D01*
X96606855Y-105510575D01*
X96616416Y-105495696D01*
X96693796Y-105392331D01*
X96744091Y-105257483D01*
X96750500Y-105197873D01*
X96750499Y-103402128D01*
X96744091Y-103342517D01*
X96723676Y-103287782D01*
X96693797Y-103207671D01*
X96693793Y-103207664D01*
X96607547Y-103092455D01*
X96607544Y-103092452D01*
X96492335Y-103006206D01*
X96492328Y-103006202D01*
X96357482Y-102955908D01*
X96357483Y-102955908D01*
X96297883Y-102949501D01*
X96297881Y-102949500D01*
X96297873Y-102949500D01*
X96297865Y-102949500D01*
X95515783Y-102949500D01*
X95448744Y-102929815D01*
X95428102Y-102913181D01*
X94786819Y-102271898D01*
X94753334Y-102210575D01*
X94750500Y-102184217D01*
X94750500Y-95551902D01*
X101749500Y-95551902D01*
X101749500Y-98328097D01*
X101786446Y-98561368D01*
X101859433Y-98785996D01*
X101909150Y-98883570D01*
X101966657Y-98996433D01*
X102105483Y-99187510D01*
X102272490Y-99354517D01*
X102463567Y-99493343D01*
X102562991Y-99544002D01*
X102674003Y-99600566D01*
X102674005Y-99600566D01*
X102674008Y-99600568D01*
X102794412Y-99639689D01*
X102898631Y-99673553D01*
X103131903Y-99710500D01*
X103131908Y-99710500D01*
X103368092Y-99710500D01*
X114987111Y-99710500D01*
X115054150Y-99730185D01*
X115074792Y-99746819D01*
X116765792Y-101437819D01*
X116799277Y-101499142D01*
X116794293Y-101568834D01*
X116752421Y-101624767D01*
X116686957Y-101649184D01*
X116678111Y-101649500D01*
X115352129Y-101649500D01*
X115352123Y-101649501D01*
X115292516Y-101655908D01*
X115157671Y-101706202D01*
X115157664Y-101706206D01*
X115042455Y-101792452D01*
X115042452Y-101792455D01*
X114956206Y-101907664D01*
X114956202Y-101907671D01*
X114905908Y-102042517D01*
X114899501Y-102102116D01*
X114899500Y-102102135D01*
X114899500Y-103237770D01*
X114879815Y-103304809D01*
X114863181Y-103325451D01*
X112667048Y-105521583D01*
X112650599Y-105546203D01*
X112650598Y-105546204D01*
X112584913Y-105644508D01*
X112528343Y-105781082D01*
X112528340Y-105781092D01*
X112499500Y-105926079D01*
X112499500Y-120887770D01*
X112479815Y-120954809D01*
X112463181Y-120975451D01*
X111635451Y-121803181D01*
X111574128Y-121836666D01*
X111547770Y-121839500D01*
X108954385Y-121839500D01*
X108943578Y-121839028D01*
X108890001Y-121834341D01*
X108889997Y-121834341D01*
X108836419Y-121839028D01*
X108825613Y-121839500D01*
X107992129Y-121839500D01*
X107992123Y-121839501D01*
X107932516Y-121845908D01*
X107797671Y-121896202D01*
X107797664Y-121896206D01*
X107682455Y-121982452D01*
X107682452Y-121982455D01*
X107596206Y-122097664D01*
X107596202Y-122097671D01*
X107545908Y-122232517D01*
X107539501Y-122292116D01*
X107539501Y-122292123D01*
X107539500Y-122292135D01*
X107539500Y-123125616D01*
X107539028Y-123136423D01*
X107534341Y-123189997D01*
X107534341Y-123190002D01*
X107539028Y-123243576D01*
X107539500Y-123254383D01*
X107539500Y-124087870D01*
X107539501Y-124087876D01*
X107545908Y-124147483D01*
X107596202Y-124282328D01*
X107596203Y-124282330D01*
X107673578Y-124385689D01*
X107697995Y-124451153D01*
X107683144Y-124519426D01*
X107673578Y-124534309D01*
X107667482Y-124542454D01*
X107596203Y-124637669D01*
X107596202Y-124637671D01*
X107545908Y-124772517D01*
X107539501Y-124832116D01*
X107539501Y-124832123D01*
X107539500Y-124832135D01*
X107539500Y-125665616D01*
X107539028Y-125676423D01*
X107534341Y-125729997D01*
X107534341Y-125730002D01*
X107539028Y-125783576D01*
X107539500Y-125794383D01*
X107539500Y-126627870D01*
X107539501Y-126627876D01*
X107545908Y-126687483D01*
X107596202Y-126822328D01*
X107596203Y-126822330D01*
X107673578Y-126925689D01*
X107697995Y-126991153D01*
X107683144Y-127059426D01*
X107673578Y-127074311D01*
X107596203Y-127177669D01*
X107596202Y-127177671D01*
X107545908Y-127312517D01*
X107539501Y-127372116D01*
X107539501Y-127372123D01*
X107539500Y-127372135D01*
X107539500Y-128205616D01*
X107539028Y-128216423D01*
X107534341Y-128269997D01*
X107534341Y-128270002D01*
X107539028Y-128323576D01*
X107539500Y-128334383D01*
X107539500Y-129167870D01*
X107539501Y-129167876D01*
X107545908Y-129227483D01*
X107596202Y-129362328D01*
X107596203Y-129362330D01*
X107673578Y-129465689D01*
X107697995Y-129531153D01*
X107683144Y-129599426D01*
X107673578Y-129614311D01*
X107596203Y-129717669D01*
X107596202Y-129717671D01*
X107545908Y-129852517D01*
X107539501Y-129912116D01*
X107539501Y-129912123D01*
X107539500Y-129912135D01*
X107539500Y-130745616D01*
X107539028Y-130756423D01*
X107534341Y-130809997D01*
X107534341Y-130810002D01*
X107539028Y-130863576D01*
X107539500Y-130874383D01*
X107539500Y-131707870D01*
X107539501Y-131707876D01*
X107545908Y-131767483D01*
X107596202Y-131902328D01*
X107596206Y-131902335D01*
X107682452Y-132017544D01*
X107682455Y-132017547D01*
X107797664Y-132103793D01*
X107797671Y-132103797D01*
X107932517Y-132154091D01*
X107932516Y-132154091D01*
X107939444Y-132154835D01*
X107992127Y-132160500D01*
X108825616Y-132160499D01*
X108836425Y-132160971D01*
X108890000Y-132165659D01*
X108943575Y-132160971D01*
X108954384Y-132160499D01*
X111587871Y-132160499D01*
X111587872Y-132160499D01*
X111647483Y-132154091D01*
X111782331Y-132103796D01*
X111801188Y-132089679D01*
X111866651Y-132065261D01*
X111934924Y-132080111D01*
X111984331Y-132129515D01*
X111999500Y-132188945D01*
X111999500Y-134511054D01*
X111979815Y-134578093D01*
X111927011Y-134623848D01*
X111857853Y-134633792D01*
X111801189Y-134610321D01*
X111782331Y-134596204D01*
X111782328Y-134596202D01*
X111647482Y-134545908D01*
X111647483Y-134545908D01*
X111587883Y-134539501D01*
X111587881Y-134539500D01*
X111587873Y-134539500D01*
X111587865Y-134539500D01*
X108954385Y-134539500D01*
X108943578Y-134539028D01*
X108890001Y-134534341D01*
X108889997Y-134534341D01*
X108836419Y-134539028D01*
X108825613Y-134539500D01*
X107992129Y-134539500D01*
X107992123Y-134539501D01*
X107932516Y-134545908D01*
X107797671Y-134596202D01*
X107797664Y-134596206D01*
X107682455Y-134682452D01*
X107682452Y-134682455D01*
X107596206Y-134797664D01*
X107596202Y-134797671D01*
X107545908Y-134932517D01*
X107539501Y-134992116D01*
X107539501Y-134992123D01*
X107539500Y-134992135D01*
X107539500Y-135825616D01*
X107539028Y-135836423D01*
X107534341Y-135889997D01*
X107534341Y-135890002D01*
X107539028Y-135943576D01*
X107539500Y-135954383D01*
X107539500Y-136787870D01*
X107539501Y-136787876D01*
X107545908Y-136847483D01*
X107596202Y-136982328D01*
X107596203Y-136982330D01*
X107673578Y-137085689D01*
X107697995Y-137151153D01*
X107683144Y-137219426D01*
X107673578Y-137234311D01*
X107596203Y-137337669D01*
X107596202Y-137337671D01*
X107545908Y-137472517D01*
X107541972Y-137509132D01*
X107539501Y-137532123D01*
X107539500Y-137532135D01*
X107539500Y-138365616D01*
X107539028Y-138376423D01*
X107534341Y-138429997D01*
X107534341Y-138430002D01*
X107539028Y-138483576D01*
X107539500Y-138494383D01*
X107539500Y-139327870D01*
X107539501Y-139327876D01*
X107545908Y-139387483D01*
X107596202Y-139522328D01*
X107596203Y-139522330D01*
X107673578Y-139625689D01*
X107697995Y-139691153D01*
X107683144Y-139759426D01*
X107673578Y-139774311D01*
X107596203Y-139877669D01*
X107596202Y-139877671D01*
X107545908Y-140012517D01*
X107539501Y-140072116D01*
X107539501Y-140072123D01*
X107539500Y-140072135D01*
X107539500Y-140905616D01*
X107539028Y-140916423D01*
X107534341Y-140969997D01*
X107534341Y-140970002D01*
X107539028Y-141023576D01*
X107539500Y-141034383D01*
X107539500Y-141867870D01*
X107539501Y-141867876D01*
X107545908Y-141927483D01*
X107596202Y-142062328D01*
X107596203Y-142062330D01*
X107673578Y-142165689D01*
X107697995Y-142231153D01*
X107683144Y-142299426D01*
X107673578Y-142314311D01*
X107596203Y-142417669D01*
X107596202Y-142417671D01*
X107545908Y-142552517D01*
X107539501Y-142612116D01*
X107539501Y-142612123D01*
X107539500Y-142612135D01*
X107539500Y-143445616D01*
X107539028Y-143456423D01*
X107534341Y-143509997D01*
X107534341Y-143510002D01*
X107539028Y-143563576D01*
X107539500Y-143574383D01*
X107539500Y-144407870D01*
X107539501Y-144407876D01*
X107545908Y-144467483D01*
X107596202Y-144602328D01*
X107596206Y-144602335D01*
X107682452Y-144717544D01*
X107682455Y-144717547D01*
X107797664Y-144803793D01*
X107797671Y-144803797D01*
X107932517Y-144854091D01*
X107932516Y-144854091D01*
X107939444Y-144854835D01*
X107992127Y-144860500D01*
X108825616Y-144860499D01*
X108836425Y-144860971D01*
X108890000Y-144865659D01*
X108943575Y-144860971D01*
X108954384Y-144860499D01*
X111587871Y-144860499D01*
X111587872Y-144860499D01*
X111647483Y-144854091D01*
X111782331Y-144803796D01*
X111897546Y-144717546D01*
X111983796Y-144602331D01*
X112034091Y-144467483D01*
X112040500Y-144407873D01*
X112040499Y-142612128D01*
X112034091Y-142552517D01*
X111983796Y-142417669D01*
X111906421Y-142314309D01*
X111882004Y-142248848D01*
X111896855Y-142180575D01*
X111906416Y-142165696D01*
X111983796Y-142062331D01*
X112034091Y-141927483D01*
X112040500Y-141867873D01*
X112040499Y-140892228D01*
X112060183Y-140825190D01*
X112076813Y-140804553D01*
X114582952Y-138298416D01*
X114632186Y-138224729D01*
X114665084Y-138175495D01*
X114706915Y-138074506D01*
X114721659Y-138038912D01*
X114750500Y-137893917D01*
X114750500Y-137746082D01*
X114750500Y-137190102D01*
X114770185Y-137123063D01*
X114822989Y-137077308D01*
X114892147Y-137067364D01*
X114955703Y-137096389D01*
X114973762Y-137115786D01*
X115042454Y-137207546D01*
X115078209Y-137234312D01*
X115157664Y-137293793D01*
X115157671Y-137293797D01*
X115292517Y-137344091D01*
X115292516Y-137344091D01*
X115299444Y-137344835D01*
X115352127Y-137350500D01*
X117147872Y-137350499D01*
X117152233Y-137350030D01*
X117220994Y-137362429D01*
X117272136Y-137410034D01*
X117289500Y-137473318D01*
X117289500Y-138526680D01*
X117269815Y-138593719D01*
X117217011Y-138639474D01*
X117152260Y-138649971D01*
X117147883Y-138649501D01*
X117147881Y-138649500D01*
X117147873Y-138649500D01*
X117147864Y-138649500D01*
X115352129Y-138649500D01*
X115352123Y-138649501D01*
X115292516Y-138655908D01*
X115157671Y-138706202D01*
X115157664Y-138706206D01*
X115042455Y-138792452D01*
X115042452Y-138792455D01*
X114956206Y-138907664D01*
X114956202Y-138907671D01*
X114905908Y-139042517D01*
X114899501Y-139102116D01*
X114899501Y-139102123D01*
X114899500Y-139102135D01*
X114899500Y-140897870D01*
X114899501Y-140897876D01*
X114905908Y-140957483D01*
X114956202Y-141092328D01*
X114956206Y-141092335D01*
X115042452Y-141207544D01*
X115042455Y-141207547D01*
X115157664Y-141293793D01*
X115157671Y-141293797D01*
X115202618Y-141310561D01*
X115292517Y-141344091D01*
X115352127Y-141350500D01*
X115375497Y-141350499D01*
X115442536Y-141370181D01*
X115488292Y-141422983D01*
X115499500Y-141474499D01*
X115499500Y-145367769D01*
X115479815Y-145434808D01*
X115463181Y-145455450D01*
X112252180Y-148666451D01*
X112190857Y-148699936D01*
X112121165Y-148694952D01*
X112065232Y-148653080D01*
X112040815Y-148587616D01*
X112040499Y-148578770D01*
X112040499Y-147692129D01*
X112040498Y-147692123D01*
X112040497Y-147692116D01*
X112034091Y-147632517D01*
X111983796Y-147497669D01*
X111983795Y-147497668D01*
X111983793Y-147497664D01*
X111897547Y-147382455D01*
X111897544Y-147382452D01*
X111782335Y-147296206D01*
X111782328Y-147296202D01*
X111647482Y-147245908D01*
X111647483Y-147245908D01*
X111587883Y-147239501D01*
X111587881Y-147239500D01*
X111587873Y-147239500D01*
X111587865Y-147239500D01*
X108954385Y-147239500D01*
X108943578Y-147239028D01*
X108890001Y-147234341D01*
X108889997Y-147234341D01*
X108836419Y-147239028D01*
X108825613Y-147239500D01*
X107992129Y-147239500D01*
X107992123Y-147239501D01*
X107932516Y-147245908D01*
X107797671Y-147296202D01*
X107797664Y-147296206D01*
X107682455Y-147382452D01*
X107682452Y-147382455D01*
X107596206Y-147497664D01*
X107596202Y-147497671D01*
X107545908Y-147632517D01*
X107539501Y-147692116D01*
X107539501Y-147692123D01*
X107539500Y-147692135D01*
X107539500Y-148525616D01*
X107539028Y-148536423D01*
X107534341Y-148589997D01*
X107534341Y-148590002D01*
X107539028Y-148643576D01*
X107539500Y-148654383D01*
X107539500Y-149487870D01*
X107539501Y-149487876D01*
X107545908Y-149547483D01*
X107596202Y-149682328D01*
X107596203Y-149682330D01*
X107673578Y-149785689D01*
X107697995Y-149851153D01*
X107683144Y-149919426D01*
X107673578Y-149934311D01*
X107596203Y-150037669D01*
X107596202Y-150037671D01*
X107545908Y-150172517D01*
X107539501Y-150232116D01*
X107539501Y-150232123D01*
X107539500Y-150232135D01*
X107539500Y-151065616D01*
X107539028Y-151076423D01*
X107534341Y-151129997D01*
X107534341Y-151130002D01*
X107539028Y-151183576D01*
X107539500Y-151194383D01*
X107539500Y-152027870D01*
X107539501Y-152027876D01*
X107545908Y-152087483D01*
X107596202Y-152222328D01*
X107596206Y-152222335D01*
X107682452Y-152337544D01*
X107682455Y-152337547D01*
X107797664Y-152423793D01*
X107797671Y-152423797D01*
X107932517Y-152474091D01*
X107932516Y-152474091D01*
X107939444Y-152474835D01*
X107992127Y-152480500D01*
X108825616Y-152480499D01*
X108836425Y-152480971D01*
X108890000Y-152485659D01*
X108943575Y-152480971D01*
X108954384Y-152480499D01*
X111587871Y-152480499D01*
X111587872Y-152480499D01*
X111647483Y-152474091D01*
X111782331Y-152423796D01*
X111897546Y-152337546D01*
X111983796Y-152222331D01*
X112034091Y-152087483D01*
X112040500Y-152027873D01*
X112040499Y-151052228D01*
X112060183Y-150985190D01*
X112076813Y-150964553D01*
X116832951Y-146208416D01*
X116915084Y-146085495D01*
X116971658Y-145948913D01*
X117000500Y-145803918D01*
X117000500Y-145656083D01*
X117000500Y-141474499D01*
X117020185Y-141407460D01*
X117072989Y-141361705D01*
X117124500Y-141350499D01*
X117147871Y-141350499D01*
X117147872Y-141350499D01*
X117207483Y-141344091D01*
X117342331Y-141293796D01*
X117457546Y-141207546D01*
X117504732Y-141144514D01*
X117549112Y-141085231D01*
X117551521Y-141087034D01*
X117590269Y-141048276D01*
X117658540Y-141033415D01*
X117724008Y-141057823D01*
X117737392Y-141069419D01*
X117812490Y-141144517D01*
X118003567Y-141283343D01*
X118102991Y-141334002D01*
X118214003Y-141390566D01*
X118214005Y-141390566D01*
X118214008Y-141390568D01*
X118313771Y-141422983D01*
X118438631Y-141463553D01*
X118671903Y-141500500D01*
X118671908Y-141500500D01*
X118908097Y-141500500D01*
X119141368Y-141463553D01*
X119365992Y-141390568D01*
X119576433Y-141283343D01*
X119767510Y-141144517D01*
X119934517Y-140977510D01*
X120073343Y-140786433D01*
X120180568Y-140575992D01*
X120253553Y-140351368D01*
X120257658Y-140325450D01*
X120290500Y-140118097D01*
X120290500Y-101221902D01*
X120253553Y-100988631D01*
X120182075Y-100768647D01*
X120181012Y-100764880D01*
X120180568Y-100764008D01*
X120180568Y-100764007D01*
X120073343Y-100553566D01*
X119934517Y-100362490D01*
X116637510Y-97065483D01*
X116446434Y-96926657D01*
X116235996Y-96819433D01*
X116011368Y-96746446D01*
X115778097Y-96709500D01*
X115778092Y-96709500D01*
X104874500Y-96709500D01*
X104807461Y-96689815D01*
X104761706Y-96637011D01*
X104750500Y-96585500D01*
X104750500Y-95551902D01*
X104713553Y-95318631D01*
X104640566Y-95094003D01*
X104533342Y-94883566D01*
X104394517Y-94692490D01*
X104227510Y-94525483D01*
X104036433Y-94386657D01*
X103825996Y-94279433D01*
X103601368Y-94206446D01*
X103368097Y-94169500D01*
X103368092Y-94169500D01*
X103131908Y-94169500D01*
X103131903Y-94169500D01*
X102898631Y-94206446D01*
X102674003Y-94279433D01*
X102463566Y-94386657D01*
X102354550Y-94465862D01*
X102272490Y-94525483D01*
X102272488Y-94525485D01*
X102272487Y-94525485D01*
X102105485Y-94692487D01*
X102105485Y-94692488D01*
X102105483Y-94692490D01*
X102045862Y-94774550D01*
X101966657Y-94883566D01*
X101859433Y-95094003D01*
X101786446Y-95318631D01*
X101749500Y-95551902D01*
X94750500Y-95551902D01*
X94750500Y-70715782D01*
X94770185Y-70648743D01*
X94786819Y-70628101D01*
X103128101Y-62286819D01*
X103189424Y-62253334D01*
X103215782Y-62250500D01*
X103368097Y-62250500D01*
X103601368Y-62213553D01*
X103825992Y-62140568D01*
X103878107Y-62114014D01*
X103934401Y-62100499D01*
X104147871Y-62100499D01*
X104147872Y-62100499D01*
X104207483Y-62094091D01*
X104342331Y-62043796D01*
X104457546Y-61957546D01*
X104543796Y-61842331D01*
X104594091Y-61707483D01*
X104600500Y-61647873D01*
X104600499Y-61434399D01*
X104614014Y-61378105D01*
X104640568Y-61325992D01*
X104713553Y-61101368D01*
X104750500Y-60868097D01*
X104750500Y-55881902D01*
X104713553Y-55648631D01*
X104640566Y-55424003D01*
X104533342Y-55213565D01*
X104394517Y-55022490D01*
X99936818Y-50564791D01*
X99903333Y-50503468D01*
X99900499Y-50477110D01*
X99900499Y-49302129D01*
X99900498Y-49302123D01*
X99900497Y-49302116D01*
X99894091Y-49242517D01*
X99843796Y-49107669D01*
X99843795Y-49107668D01*
X99843793Y-49107664D01*
X99757547Y-48992455D01*
X99757544Y-48992452D01*
X99642335Y-48906206D01*
X99642328Y-48906202D01*
X99507482Y-48855908D01*
X99507483Y-48855908D01*
X99447883Y-48849501D01*
X99447881Y-48849500D01*
X99447873Y-48849500D01*
X99447864Y-48849500D01*
X96552129Y-48849500D01*
X96552123Y-48849501D01*
X96492516Y-48855908D01*
X96357671Y-48906202D01*
X96357664Y-48906206D01*
X96242455Y-48992452D01*
X96242452Y-48992455D01*
X96156206Y-49107664D01*
X96156202Y-49107671D01*
X96105908Y-49242517D01*
X96099501Y-49302116D01*
X96099501Y-49302123D01*
X96099500Y-49302135D01*
X96099500Y-50477110D01*
X96079815Y-50544149D01*
X96063181Y-50564791D01*
X89954792Y-56673181D01*
X89893469Y-56706666D01*
X89867111Y-56709500D01*
X79631903Y-56709500D01*
X79398630Y-56746447D01*
X79398627Y-56746447D01*
X79174009Y-56819431D01*
X79174008Y-56819431D01*
X79121893Y-56845985D01*
X79065600Y-56859500D01*
X78852130Y-56859500D01*
X78852123Y-56859501D01*
X78792516Y-56865908D01*
X78657671Y-56916202D01*
X78657664Y-56916206D01*
X78542455Y-57002452D01*
X78542452Y-57002455D01*
X78456206Y-57117664D01*
X78456202Y-57117671D01*
X78405908Y-57252517D01*
X78399501Y-57312116D01*
X78399500Y-57312135D01*
X78399500Y-57525599D01*
X78385985Y-57581893D01*
X78359430Y-57634009D01*
X78359430Y-57634011D01*
X78286447Y-57858627D01*
X78286447Y-57858630D01*
X78249500Y-58091902D01*
X76500500Y-58091902D01*
X76500500Y-48003750D01*
X76500726Y-47996263D01*
X76518271Y-47706205D01*
X76520076Y-47691340D01*
X76571780Y-47409201D01*
X76575364Y-47394663D01*
X76652096Y-47148422D01*
X76660696Y-47120822D01*
X76665998Y-47106841D01*
X76783731Y-46845249D01*
X76790676Y-46832016D01*
X76939080Y-46586526D01*
X76947567Y-46574230D01*
X77124480Y-46348417D01*
X77134395Y-46337226D01*
X77337226Y-46134395D01*
X77348417Y-46124480D01*
X77574230Y-45947567D01*
X77586526Y-45939080D01*
X77832016Y-45790676D01*
X77845249Y-45783731D01*
X78106841Y-45665998D01*
X78120822Y-45660696D01*
X78394668Y-45575362D01*
X78409197Y-45571780D01*
X78691344Y-45520075D01*
X78706201Y-45518271D01*
X78996264Y-45500726D01*
X79003751Y-45500500D01*
X79065892Y-45500500D01*
X120934108Y-45500500D01*
X120996249Y-45500500D01*
X121003736Y-45500726D01*
G37*
%TD.AperFunction*%
%TD*%
M02*
