%TF.GenerationSoftware,KiCad,Pcbnew,8.0.7*%
%TF.CreationDate,2025-01-04T20:58:12-05:00*%
%TF.ProjectId,hexapod,68657861-706f-4642-9e6b-696361645f70,rev?*%
%TF.SameCoordinates,Original*%
%TF.FileFunction,Legend,Top*%
%TF.FilePolarity,Positive*%
%FSLAX46Y46*%
G04 Gerber Fmt 4.6, Leading zero omitted, Abs format (unit mm)*
G04 Created by KiCad (PCBNEW 8.0.7) date 2025-01-04 20:58:12*
%MOMM*%
%LPD*%
G01*
G04 APERTURE LIST*
%ADD10C,0.100000*%
%ADD11C,0.150000*%
%ADD12C,0.120000*%
%ADD13C,1.000000*%
%ADD14C,0.500000*%
G04 APERTURE END LIST*
D10*
X106827693Y-48920038D02*
X106732455Y-48872419D01*
X106732455Y-48872419D02*
X106589598Y-48872419D01*
X106589598Y-48872419D02*
X106446741Y-48920038D01*
X106446741Y-48920038D02*
X106351503Y-49015276D01*
X106351503Y-49015276D02*
X106303884Y-49110514D01*
X106303884Y-49110514D02*
X106256265Y-49300990D01*
X106256265Y-49300990D02*
X106256265Y-49443847D01*
X106256265Y-49443847D02*
X106303884Y-49634323D01*
X106303884Y-49634323D02*
X106351503Y-49729561D01*
X106351503Y-49729561D02*
X106446741Y-49824800D01*
X106446741Y-49824800D02*
X106589598Y-49872419D01*
X106589598Y-49872419D02*
X106684836Y-49872419D01*
X106684836Y-49872419D02*
X106827693Y-49824800D01*
X106827693Y-49824800D02*
X106875312Y-49777180D01*
X106875312Y-49777180D02*
X106875312Y-49443847D01*
X106875312Y-49443847D02*
X106684836Y-49443847D01*
X107303884Y-49872419D02*
X107303884Y-48872419D01*
X107303884Y-48872419D02*
X107875312Y-49872419D01*
X107875312Y-49872419D02*
X107875312Y-48872419D01*
X108351503Y-49872419D02*
X108351503Y-48872419D01*
X108351503Y-48872419D02*
X108589598Y-48872419D01*
X108589598Y-48872419D02*
X108732455Y-48920038D01*
X108732455Y-48920038D02*
X108827693Y-49015276D01*
X108827693Y-49015276D02*
X108875312Y-49110514D01*
X108875312Y-49110514D02*
X108922931Y-49300990D01*
X108922931Y-49300990D02*
X108922931Y-49443847D01*
X108922931Y-49443847D02*
X108875312Y-49634323D01*
X108875312Y-49634323D02*
X108827693Y-49729561D01*
X108827693Y-49729561D02*
X108732455Y-49824800D01*
X108732455Y-49824800D02*
X108589598Y-49872419D01*
X108589598Y-49872419D02*
X108351503Y-49872419D01*
X87303884Y-49491466D02*
X88065789Y-49491466D01*
X87684836Y-49872419D02*
X87684836Y-49110514D01*
X88875312Y-49348609D02*
X89018169Y-49396228D01*
X89018169Y-49396228D02*
X89065788Y-49443847D01*
X89065788Y-49443847D02*
X89113407Y-49539085D01*
X89113407Y-49539085D02*
X89113407Y-49681942D01*
X89113407Y-49681942D02*
X89065788Y-49777180D01*
X89065788Y-49777180D02*
X89018169Y-49824800D01*
X89018169Y-49824800D02*
X88922931Y-49872419D01*
X88922931Y-49872419D02*
X88541979Y-49872419D01*
X88541979Y-49872419D02*
X88541979Y-48872419D01*
X88541979Y-48872419D02*
X88875312Y-48872419D01*
X88875312Y-48872419D02*
X88970550Y-48920038D01*
X88970550Y-48920038D02*
X89018169Y-48967657D01*
X89018169Y-48967657D02*
X89065788Y-49062895D01*
X89065788Y-49062895D02*
X89065788Y-49158133D01*
X89065788Y-49158133D02*
X89018169Y-49253371D01*
X89018169Y-49253371D02*
X88970550Y-49300990D01*
X88970550Y-49300990D02*
X88875312Y-49348609D01*
X88875312Y-49348609D02*
X88541979Y-49348609D01*
X89494360Y-49586704D02*
X89970550Y-49586704D01*
X89399122Y-49872419D02*
X89732455Y-48872419D01*
X89732455Y-48872419D02*
X90065788Y-49872419D01*
X90256265Y-48872419D02*
X90827693Y-48872419D01*
X90541979Y-49872419D02*
X90541979Y-48872419D01*
X91018170Y-48872419D02*
X91589598Y-48872419D01*
X91303884Y-49872419D02*
X91303884Y-48872419D01*
X91922932Y-49348609D02*
X92256265Y-49348609D01*
X92399122Y-49872419D02*
X91922932Y-49872419D01*
X91922932Y-49872419D02*
X91922932Y-48872419D01*
X91922932Y-48872419D02*
X92399122Y-48872419D01*
X93399122Y-49872419D02*
X93065789Y-49396228D01*
X92827694Y-49872419D02*
X92827694Y-48872419D01*
X92827694Y-48872419D02*
X93208646Y-48872419D01*
X93208646Y-48872419D02*
X93303884Y-48920038D01*
X93303884Y-48920038D02*
X93351503Y-48967657D01*
X93351503Y-48967657D02*
X93399122Y-49062895D01*
X93399122Y-49062895D02*
X93399122Y-49205752D01*
X93399122Y-49205752D02*
X93351503Y-49300990D01*
X93351503Y-49300990D02*
X93303884Y-49348609D01*
X93303884Y-49348609D02*
X93208646Y-49396228D01*
X93208646Y-49396228D02*
X92827694Y-49396228D01*
X94018170Y-49396228D02*
X94018170Y-49872419D01*
X93684837Y-48872419D02*
X94018170Y-49396228D01*
X94018170Y-49396228D02*
X94351503Y-48872419D01*
D11*
X99440476Y-47204819D02*
X99440476Y-47919104D01*
X99440476Y-47919104D02*
X99392857Y-48061961D01*
X99392857Y-48061961D02*
X99297619Y-48157200D01*
X99297619Y-48157200D02*
X99154762Y-48204819D01*
X99154762Y-48204819D02*
X99059524Y-48204819D01*
X100440476Y-48204819D02*
X99869048Y-48204819D01*
X100154762Y-48204819D02*
X100154762Y-47204819D01*
X100154762Y-47204819D02*
X100059524Y-47347676D01*
X100059524Y-47347676D02*
X99964286Y-47442914D01*
X99964286Y-47442914D02*
X99869048Y-47490533D01*
X100916667Y-48204819D02*
X101107143Y-48204819D01*
X101107143Y-48204819D02*
X101202381Y-48157200D01*
X101202381Y-48157200D02*
X101250000Y-48109580D01*
X101250000Y-48109580D02*
X101345238Y-47966723D01*
X101345238Y-47966723D02*
X101392857Y-47776247D01*
X101392857Y-47776247D02*
X101392857Y-47395295D01*
X101392857Y-47395295D02*
X101345238Y-47300057D01*
X101345238Y-47300057D02*
X101297619Y-47252438D01*
X101297619Y-47252438D02*
X101202381Y-47204819D01*
X101202381Y-47204819D02*
X101011905Y-47204819D01*
X101011905Y-47204819D02*
X100916667Y-47252438D01*
X100916667Y-47252438D02*
X100869048Y-47300057D01*
X100869048Y-47300057D02*
X100821429Y-47395295D01*
X100821429Y-47395295D02*
X100821429Y-47633390D01*
X100821429Y-47633390D02*
X100869048Y-47728628D01*
X100869048Y-47728628D02*
X100916667Y-47776247D01*
X100916667Y-47776247D02*
X101011905Y-47823866D01*
X101011905Y-47823866D02*
X101202381Y-47823866D01*
X101202381Y-47823866D02*
X101297619Y-47776247D01*
X101297619Y-47776247D02*
X101345238Y-47728628D01*
X101345238Y-47728628D02*
X101392857Y-47633390D01*
X92738095Y-150704819D02*
X92738095Y-151514342D01*
X92738095Y-151514342D02*
X92785714Y-151609580D01*
X92785714Y-151609580D02*
X92833333Y-151657200D01*
X92833333Y-151657200D02*
X92928571Y-151704819D01*
X92928571Y-151704819D02*
X93119047Y-151704819D01*
X93119047Y-151704819D02*
X93214285Y-151657200D01*
X93214285Y-151657200D02*
X93261904Y-151609580D01*
X93261904Y-151609580D02*
X93309523Y-151514342D01*
X93309523Y-151514342D02*
X93309523Y-150704819D01*
X94309523Y-151704819D02*
X93738095Y-151704819D01*
X94023809Y-151704819D02*
X94023809Y-150704819D01*
X94023809Y-150704819D02*
X93928571Y-150847676D01*
X93928571Y-150847676D02*
X93833333Y-150942914D01*
X93833333Y-150942914D02*
X93738095Y-150990533D01*
X85843998Y-138820868D02*
X85763185Y-138847805D01*
X85763185Y-138847805D02*
X85682373Y-138928618D01*
X85682373Y-138928618D02*
X85628498Y-139036367D01*
X85628498Y-139036367D02*
X85628498Y-139144117D01*
X85628498Y-139144117D02*
X85655436Y-139224929D01*
X85655436Y-139224929D02*
X85736248Y-139359616D01*
X85736248Y-139359616D02*
X85817060Y-139440428D01*
X85817060Y-139440428D02*
X85951747Y-139521241D01*
X85951747Y-139521241D02*
X86032560Y-139548178D01*
X86032560Y-139548178D02*
X86140309Y-139548178D01*
X86140309Y-139548178D02*
X86248059Y-139494303D01*
X86248059Y-139494303D02*
X86301934Y-139440428D01*
X86301934Y-139440428D02*
X86355808Y-139332679D01*
X86355808Y-139332679D02*
X86355808Y-139278804D01*
X86355808Y-139278804D02*
X86167247Y-139090242D01*
X86167247Y-139090242D02*
X86059497Y-139197992D01*
X86652120Y-139090242D02*
X86086434Y-138524557D01*
X86086434Y-138524557D02*
X86301934Y-138309057D01*
X86301934Y-138309057D02*
X86382746Y-138282120D01*
X86382746Y-138282120D02*
X86436621Y-138282120D01*
X86436621Y-138282120D02*
X86517433Y-138309057D01*
X86517433Y-138309057D02*
X86598245Y-138389870D01*
X86598245Y-138389870D02*
X86625182Y-138470682D01*
X86625182Y-138470682D02*
X86625182Y-138524557D01*
X86625182Y-138524557D02*
X86598245Y-138605369D01*
X86598245Y-138605369D02*
X86382746Y-138820868D01*
X87514117Y-138228245D02*
X87190868Y-138551494D01*
X87352492Y-138389870D02*
X86786807Y-137824184D01*
X86786807Y-137824184D02*
X86813744Y-137958871D01*
X86813744Y-137958871D02*
X86813744Y-138066621D01*
X86813744Y-138066621D02*
X86786807Y-138147433D01*
X88052865Y-137689497D02*
X87729616Y-138012746D01*
X87891240Y-137851121D02*
X87325555Y-137285436D01*
X87325555Y-137285436D02*
X87352492Y-137420123D01*
X87352492Y-137420123D02*
X87352492Y-137527873D01*
X87352492Y-137527873D02*
X87325555Y-137608685D01*
X112151873Y-121741240D02*
X112421247Y-121471866D01*
X112259623Y-121956739D02*
X111882499Y-121202492D01*
X111882499Y-121202492D02*
X112636746Y-121579615D01*
X112582871Y-120555994D02*
X112502059Y-120582932D01*
X112502059Y-120582932D02*
X112421247Y-120663744D01*
X112421247Y-120663744D02*
X112367372Y-120771494D01*
X112367372Y-120771494D02*
X112367372Y-120879243D01*
X112367372Y-120879243D02*
X112394310Y-120960055D01*
X112394310Y-120960055D02*
X112475122Y-121094742D01*
X112475122Y-121094742D02*
X112555934Y-121175555D01*
X112555934Y-121175555D02*
X112690621Y-121256367D01*
X112690621Y-121256367D02*
X112771433Y-121283304D01*
X112771433Y-121283304D02*
X112879183Y-121283304D01*
X112879183Y-121283304D02*
X112986932Y-121229429D01*
X112986932Y-121229429D02*
X113040807Y-121175555D01*
X113040807Y-121175555D02*
X113094682Y-121067805D01*
X113094682Y-121067805D02*
X113094682Y-121013930D01*
X113094682Y-121013930D02*
X112906120Y-120825368D01*
X112906120Y-120825368D02*
X112798371Y-120933118D01*
X113390993Y-120825368D02*
X112825308Y-120259683D01*
X112825308Y-120259683D02*
X113714242Y-120502120D01*
X113714242Y-120502120D02*
X113148557Y-119936434D01*
X113983616Y-120232746D02*
X113417931Y-119667060D01*
X113417931Y-119667060D02*
X113552618Y-119532373D01*
X113552618Y-119532373D02*
X113660367Y-119478498D01*
X113660367Y-119478498D02*
X113768117Y-119478498D01*
X113768117Y-119478498D02*
X113848929Y-119505436D01*
X113848929Y-119505436D02*
X113983616Y-119586248D01*
X113983616Y-119586248D02*
X114064428Y-119667060D01*
X114064428Y-119667060D02*
X114145241Y-119801747D01*
X114145241Y-119801747D02*
X114172178Y-119882560D01*
X114172178Y-119882560D02*
X114172178Y-119990309D01*
X114172178Y-119990309D02*
X114118303Y-120098059D01*
X114118303Y-120098059D02*
X113983616Y-120232746D01*
X112086435Y-146198431D02*
X112005623Y-146225368D01*
X112005623Y-146225368D02*
X111924811Y-146306180D01*
X111924811Y-146306180D02*
X111870936Y-146413930D01*
X111870936Y-146413930D02*
X111870936Y-146521680D01*
X111870936Y-146521680D02*
X111897873Y-146602492D01*
X111897873Y-146602492D02*
X111978685Y-146737179D01*
X111978685Y-146737179D02*
X112059498Y-146817991D01*
X112059498Y-146817991D02*
X112194185Y-146898803D01*
X112194185Y-146898803D02*
X112274997Y-146925741D01*
X112274997Y-146925741D02*
X112382746Y-146925741D01*
X112382746Y-146925741D02*
X112490496Y-146871866D01*
X112490496Y-146871866D02*
X112544371Y-146817991D01*
X112544371Y-146817991D02*
X112598246Y-146710241D01*
X112598246Y-146710241D02*
X112598246Y-146656367D01*
X112598246Y-146656367D02*
X112409684Y-146467805D01*
X112409684Y-146467805D02*
X112301934Y-146575554D01*
X112894557Y-146467805D02*
X112328872Y-145902119D01*
X112328872Y-145902119D02*
X113217806Y-146144556D01*
X113217806Y-146144556D02*
X112652120Y-145578871D01*
X113487180Y-145875182D02*
X112921494Y-145309497D01*
X112921494Y-145309497D02*
X113056181Y-145174810D01*
X113056181Y-145174810D02*
X113163931Y-145120935D01*
X113163931Y-145120935D02*
X113271680Y-145120935D01*
X113271680Y-145120935D02*
X113352493Y-145147872D01*
X113352493Y-145147872D02*
X113487180Y-145228685D01*
X113487180Y-145228685D02*
X113567992Y-145309497D01*
X113567992Y-145309497D02*
X113648804Y-145444184D01*
X113648804Y-145444184D02*
X113675741Y-145524996D01*
X113675741Y-145524996D02*
X113675741Y-145632746D01*
X113675741Y-145632746D02*
X113621867Y-145740495D01*
X113621867Y-145740495D02*
X113487180Y-145875182D01*
X111953406Y-103527585D02*
X112707653Y-103904709D01*
X112707653Y-103904709D02*
X112330529Y-103150462D01*
X112977027Y-103042712D02*
X113084776Y-102988838D01*
X113084776Y-102988838D02*
X113138651Y-102988838D01*
X113138651Y-102988838D02*
X113219463Y-103015775D01*
X113219463Y-103015775D02*
X113300276Y-103096587D01*
X113300276Y-103096587D02*
X113327213Y-103177399D01*
X113327213Y-103177399D02*
X113327213Y-103231274D01*
X113327213Y-103231274D02*
X113300276Y-103312086D01*
X113300276Y-103312086D02*
X113084776Y-103527586D01*
X113084776Y-103527586D02*
X112519091Y-102961900D01*
X112519091Y-102961900D02*
X112707653Y-102773338D01*
X112707653Y-102773338D02*
X112788465Y-102746401D01*
X112788465Y-102746401D02*
X112842340Y-102746401D01*
X112842340Y-102746401D02*
X112923152Y-102773338D01*
X112923152Y-102773338D02*
X112977027Y-102827213D01*
X112977027Y-102827213D02*
X113003964Y-102908025D01*
X113003964Y-102908025D02*
X113003964Y-102961900D01*
X113003964Y-102961900D02*
X112977027Y-103042712D01*
X112977027Y-103042712D02*
X112788465Y-103231274D01*
X113084776Y-102396215D02*
X113542712Y-102854151D01*
X113542712Y-102854151D02*
X113623524Y-102881088D01*
X113623524Y-102881088D02*
X113677399Y-102881088D01*
X113677399Y-102881088D02*
X113758211Y-102854151D01*
X113758211Y-102854151D02*
X113865961Y-102746401D01*
X113865961Y-102746401D02*
X113892898Y-102665589D01*
X113892898Y-102665589D02*
X113892898Y-102611714D01*
X113892898Y-102611714D02*
X113865961Y-102530902D01*
X113865961Y-102530902D02*
X113408025Y-102072966D01*
X114189210Y-102369277D02*
X114296959Y-102315403D01*
X114296959Y-102315403D02*
X114431646Y-102180716D01*
X114431646Y-102180716D02*
X114458584Y-102099903D01*
X114458584Y-102099903D02*
X114458584Y-102046029D01*
X114458584Y-102046029D02*
X114431646Y-101965216D01*
X114431646Y-101965216D02*
X114377771Y-101911342D01*
X114377771Y-101911342D02*
X114296959Y-101884404D01*
X114296959Y-101884404D02*
X114243084Y-101884404D01*
X114243084Y-101884404D02*
X114162272Y-101911342D01*
X114162272Y-101911342D02*
X114027585Y-101992154D01*
X114027585Y-101992154D02*
X113946773Y-102019091D01*
X113946773Y-102019091D02*
X113892898Y-102019091D01*
X113892898Y-102019091D02*
X113812086Y-101992154D01*
X113812086Y-101992154D02*
X113758211Y-101938279D01*
X113758211Y-101938279D02*
X113731274Y-101857467D01*
X113731274Y-101857467D02*
X113731274Y-101803592D01*
X113731274Y-101803592D02*
X113758211Y-101722780D01*
X113758211Y-101722780D02*
X113892898Y-101588093D01*
X113892898Y-101588093D02*
X114000648Y-101534218D01*
X112086435Y-108098431D02*
X112005623Y-108125368D01*
X112005623Y-108125368D02*
X111924811Y-108206180D01*
X111924811Y-108206180D02*
X111870936Y-108313930D01*
X111870936Y-108313930D02*
X111870936Y-108421680D01*
X111870936Y-108421680D02*
X111897873Y-108502492D01*
X111897873Y-108502492D02*
X111978685Y-108637179D01*
X111978685Y-108637179D02*
X112059498Y-108717991D01*
X112059498Y-108717991D02*
X112194185Y-108798803D01*
X112194185Y-108798803D02*
X112274997Y-108825741D01*
X112274997Y-108825741D02*
X112382746Y-108825741D01*
X112382746Y-108825741D02*
X112490496Y-108771866D01*
X112490496Y-108771866D02*
X112544371Y-108717991D01*
X112544371Y-108717991D02*
X112598246Y-108610241D01*
X112598246Y-108610241D02*
X112598246Y-108556367D01*
X112598246Y-108556367D02*
X112409684Y-108367805D01*
X112409684Y-108367805D02*
X112301934Y-108475554D01*
X112894557Y-108367805D02*
X112328872Y-107802119D01*
X112328872Y-107802119D02*
X113217806Y-108044556D01*
X113217806Y-108044556D02*
X112652120Y-107478871D01*
X113487180Y-107775182D02*
X112921494Y-107209497D01*
X112921494Y-107209497D02*
X113056181Y-107074810D01*
X113056181Y-107074810D02*
X113163931Y-107020935D01*
X113163931Y-107020935D02*
X113271680Y-107020935D01*
X113271680Y-107020935D02*
X113352493Y-107047872D01*
X113352493Y-107047872D02*
X113487180Y-107128685D01*
X113487180Y-107128685D02*
X113567992Y-107209497D01*
X113567992Y-107209497D02*
X113648804Y-107344184D01*
X113648804Y-107344184D02*
X113675741Y-107424996D01*
X113675741Y-107424996D02*
X113675741Y-107532746D01*
X113675741Y-107532746D02*
X113621867Y-107640495D01*
X113621867Y-107640495D02*
X113487180Y-107775182D01*
X85989998Y-143900868D02*
X85909185Y-143927805D01*
X85909185Y-143927805D02*
X85828373Y-144008618D01*
X85828373Y-144008618D02*
X85774498Y-144116367D01*
X85774498Y-144116367D02*
X85774498Y-144224117D01*
X85774498Y-144224117D02*
X85801436Y-144304929D01*
X85801436Y-144304929D02*
X85882248Y-144439616D01*
X85882248Y-144439616D02*
X85963060Y-144520428D01*
X85963060Y-144520428D02*
X86097747Y-144601241D01*
X86097747Y-144601241D02*
X86178560Y-144628178D01*
X86178560Y-144628178D02*
X86286309Y-144628178D01*
X86286309Y-144628178D02*
X86394059Y-144574303D01*
X86394059Y-144574303D02*
X86447934Y-144520428D01*
X86447934Y-144520428D02*
X86501808Y-144412679D01*
X86501808Y-144412679D02*
X86501808Y-144358804D01*
X86501808Y-144358804D02*
X86313247Y-144170242D01*
X86313247Y-144170242D02*
X86205497Y-144277992D01*
X86798120Y-144170242D02*
X86232434Y-143604557D01*
X86232434Y-143604557D02*
X86447934Y-143389057D01*
X86447934Y-143389057D02*
X86528746Y-143362120D01*
X86528746Y-143362120D02*
X86582621Y-143362120D01*
X86582621Y-143362120D02*
X86663433Y-143389057D01*
X86663433Y-143389057D02*
X86744245Y-143469870D01*
X86744245Y-143469870D02*
X86771182Y-143550682D01*
X86771182Y-143550682D02*
X86771182Y-143604557D01*
X86771182Y-143604557D02*
X86744245Y-143685369D01*
X86744245Y-143685369D02*
X86528746Y-143900868D01*
X87660117Y-143308245D02*
X87336868Y-143631494D01*
X87498492Y-143469870D02*
X86932807Y-142904184D01*
X86932807Y-142904184D02*
X86959744Y-143038871D01*
X86959744Y-143038871D02*
X86959744Y-143146621D01*
X86959744Y-143146621D02*
X86932807Y-143227433D01*
X87282993Y-142553998D02*
X87633179Y-142203812D01*
X87633179Y-142203812D02*
X87660117Y-142607873D01*
X87660117Y-142607873D02*
X87740929Y-142527060D01*
X87740929Y-142527060D02*
X87821741Y-142500123D01*
X87821741Y-142500123D02*
X87875616Y-142500123D01*
X87875616Y-142500123D02*
X87956428Y-142527060D01*
X87956428Y-142527060D02*
X88091115Y-142661747D01*
X88091115Y-142661747D02*
X88118053Y-142742560D01*
X88118053Y-142742560D02*
X88118053Y-142796434D01*
X88118053Y-142796434D02*
X88091115Y-142877247D01*
X88091115Y-142877247D02*
X87929491Y-143038871D01*
X87929491Y-143038871D02*
X87848679Y-143065808D01*
X87848679Y-143065808D02*
X87794804Y-143065808D01*
X112155064Y-117034049D02*
X112424438Y-116764675D01*
X112262813Y-117249549D02*
X111885690Y-116495301D01*
X111885690Y-116495301D02*
X112639937Y-116872425D01*
X112828499Y-116683863D02*
X112262813Y-116118178D01*
X112262813Y-116118178D02*
X112397500Y-115983491D01*
X112397500Y-115983491D02*
X112505250Y-115929616D01*
X112505250Y-115929616D02*
X112612999Y-115929616D01*
X112612999Y-115929616D02*
X112693812Y-115956553D01*
X112693812Y-115956553D02*
X112828499Y-116037366D01*
X112828499Y-116037366D02*
X112909311Y-116118178D01*
X112909311Y-116118178D02*
X112990123Y-116252865D01*
X112990123Y-116252865D02*
X113017060Y-116333677D01*
X113017060Y-116333677D02*
X113017060Y-116441427D01*
X113017060Y-116441427D02*
X112963186Y-116549176D01*
X112963186Y-116549176D02*
X112828499Y-116683863D01*
X113663558Y-115741054D02*
X113663558Y-115794929D01*
X113663558Y-115794929D02*
X113609683Y-115902679D01*
X113609683Y-115902679D02*
X113555808Y-115956553D01*
X113555808Y-115956553D02*
X113448059Y-116010428D01*
X113448059Y-116010428D02*
X113340309Y-116010428D01*
X113340309Y-116010428D02*
X113259497Y-115983491D01*
X113259497Y-115983491D02*
X113124810Y-115902679D01*
X113124810Y-115902679D02*
X113043998Y-115821866D01*
X113043998Y-115821866D02*
X112963186Y-115687179D01*
X112963186Y-115687179D02*
X112936248Y-115606367D01*
X112936248Y-115606367D02*
X112936248Y-115498618D01*
X112936248Y-115498618D02*
X112990123Y-115390868D01*
X112990123Y-115390868D02*
X113043998Y-115336993D01*
X113043998Y-115336993D02*
X113151747Y-115283118D01*
X113151747Y-115283118D02*
X113205622Y-115283118D01*
X113879057Y-115741054D02*
X114310056Y-115310056D01*
X113744370Y-114636621D02*
X114498618Y-115013744D01*
X114498618Y-115013744D02*
X114121494Y-114259497D01*
X115198990Y-114313372D02*
X114741054Y-114232560D01*
X114875741Y-114636621D02*
X114310056Y-114070935D01*
X114310056Y-114070935D02*
X114525555Y-113855436D01*
X114525555Y-113855436D02*
X114606367Y-113828499D01*
X114606367Y-113828499D02*
X114660242Y-113828499D01*
X114660242Y-113828499D02*
X114741054Y-113855436D01*
X114741054Y-113855436D02*
X114821866Y-113936248D01*
X114821866Y-113936248D02*
X114848804Y-114017061D01*
X114848804Y-114017061D02*
X114848804Y-114070935D01*
X114848804Y-114070935D02*
X114821866Y-114151748D01*
X114821866Y-114151748D02*
X114606367Y-114367247D01*
X115145115Y-113774624D02*
X115333677Y-113586062D01*
X115710800Y-113801561D02*
X115441426Y-114070935D01*
X115441426Y-114070935D02*
X114875741Y-113505250D01*
X114875741Y-113505250D02*
X115145115Y-113235876D01*
X115845488Y-113074251D02*
X115656926Y-113262813D01*
X115953237Y-113559125D02*
X115387552Y-112993439D01*
X115387552Y-112993439D02*
X115656926Y-112724065D01*
X86513372Y-115691494D02*
X86432560Y-115718431D01*
X86432560Y-115718431D02*
X86351748Y-115799243D01*
X86351748Y-115799243D02*
X86297873Y-115906993D01*
X86297873Y-115906993D02*
X86297873Y-116014742D01*
X86297873Y-116014742D02*
X86324810Y-116095555D01*
X86324810Y-116095555D02*
X86405623Y-116230242D01*
X86405623Y-116230242D02*
X86486435Y-116311054D01*
X86486435Y-116311054D02*
X86621122Y-116391866D01*
X86621122Y-116391866D02*
X86701934Y-116418803D01*
X86701934Y-116418803D02*
X86809684Y-116418803D01*
X86809684Y-116418803D02*
X86917433Y-116364929D01*
X86917433Y-116364929D02*
X86971308Y-116311054D01*
X86971308Y-116311054D02*
X87025183Y-116203304D01*
X87025183Y-116203304D02*
X87025183Y-116149429D01*
X87025183Y-116149429D02*
X86836621Y-115960868D01*
X86836621Y-115960868D02*
X86728871Y-116068617D01*
X87321494Y-115960868D02*
X86755809Y-115395182D01*
X86755809Y-115395182D02*
X86971308Y-115179683D01*
X86971308Y-115179683D02*
X87052120Y-115152746D01*
X87052120Y-115152746D02*
X87105995Y-115152746D01*
X87105995Y-115152746D02*
X87186807Y-115179683D01*
X87186807Y-115179683D02*
X87267619Y-115260495D01*
X87267619Y-115260495D02*
X87294557Y-115341307D01*
X87294557Y-115341307D02*
X87294557Y-115395182D01*
X87294557Y-115395182D02*
X87267619Y-115475994D01*
X87267619Y-115475994D02*
X87052120Y-115691494D01*
X87752493Y-114775622D02*
X88129616Y-115152746D01*
X87402306Y-114694810D02*
X87671680Y-115233558D01*
X87671680Y-115233558D02*
X88021867Y-114883372D01*
X86613372Y-125821494D02*
X86532560Y-125848431D01*
X86532560Y-125848431D02*
X86451748Y-125929243D01*
X86451748Y-125929243D02*
X86397873Y-126036993D01*
X86397873Y-126036993D02*
X86397873Y-126144742D01*
X86397873Y-126144742D02*
X86424810Y-126225555D01*
X86424810Y-126225555D02*
X86505623Y-126360242D01*
X86505623Y-126360242D02*
X86586435Y-126441054D01*
X86586435Y-126441054D02*
X86721122Y-126521866D01*
X86721122Y-126521866D02*
X86801934Y-126548803D01*
X86801934Y-126548803D02*
X86909684Y-126548803D01*
X86909684Y-126548803D02*
X87017433Y-126494929D01*
X87017433Y-126494929D02*
X87071308Y-126441054D01*
X87071308Y-126441054D02*
X87125183Y-126333304D01*
X87125183Y-126333304D02*
X87125183Y-126279429D01*
X87125183Y-126279429D02*
X86936621Y-126090868D01*
X86936621Y-126090868D02*
X86828871Y-126198617D01*
X87421494Y-126090868D02*
X86855809Y-125525182D01*
X86855809Y-125525182D02*
X87071308Y-125309683D01*
X87071308Y-125309683D02*
X87152120Y-125282746D01*
X87152120Y-125282746D02*
X87205995Y-125282746D01*
X87205995Y-125282746D02*
X87286807Y-125309683D01*
X87286807Y-125309683D02*
X87367619Y-125390495D01*
X87367619Y-125390495D02*
X87394557Y-125471307D01*
X87394557Y-125471307D02*
X87394557Y-125525182D01*
X87394557Y-125525182D02*
X87367619Y-125605994D01*
X87367619Y-125605994D02*
X87152120Y-125821494D01*
X87367619Y-125013372D02*
X87744743Y-124636248D01*
X87744743Y-124636248D02*
X88067992Y-125444370D01*
X85989998Y-151520868D02*
X85909185Y-151547805D01*
X85909185Y-151547805D02*
X85828373Y-151628618D01*
X85828373Y-151628618D02*
X85774498Y-151736367D01*
X85774498Y-151736367D02*
X85774498Y-151844117D01*
X85774498Y-151844117D02*
X85801436Y-151924929D01*
X85801436Y-151924929D02*
X85882248Y-152059616D01*
X85882248Y-152059616D02*
X85963060Y-152140428D01*
X85963060Y-152140428D02*
X86097747Y-152221241D01*
X86097747Y-152221241D02*
X86178560Y-152248178D01*
X86178560Y-152248178D02*
X86286309Y-152248178D01*
X86286309Y-152248178D02*
X86394059Y-152194303D01*
X86394059Y-152194303D02*
X86447934Y-152140428D01*
X86447934Y-152140428D02*
X86501808Y-152032679D01*
X86501808Y-152032679D02*
X86501808Y-151978804D01*
X86501808Y-151978804D02*
X86313247Y-151790242D01*
X86313247Y-151790242D02*
X86205497Y-151897992D01*
X86798120Y-151790242D02*
X86232434Y-151224557D01*
X86232434Y-151224557D02*
X86447934Y-151009057D01*
X86447934Y-151009057D02*
X86528746Y-150982120D01*
X86528746Y-150982120D02*
X86582621Y-150982120D01*
X86582621Y-150982120D02*
X86663433Y-151009057D01*
X86663433Y-151009057D02*
X86744245Y-151089870D01*
X86744245Y-151089870D02*
X86771182Y-151170682D01*
X86771182Y-151170682D02*
X86771182Y-151224557D01*
X86771182Y-151224557D02*
X86744245Y-151305369D01*
X86744245Y-151305369D02*
X86528746Y-151520868D01*
X87660117Y-150928245D02*
X87336868Y-151251494D01*
X87498492Y-151089870D02*
X86932807Y-150524184D01*
X86932807Y-150524184D02*
X86959744Y-150658871D01*
X86959744Y-150658871D02*
X86959744Y-150766621D01*
X86959744Y-150766621D02*
X86932807Y-150847433D01*
X87606242Y-149850749D02*
X87336868Y-150120123D01*
X87336868Y-150120123D02*
X87579305Y-150416434D01*
X87579305Y-150416434D02*
X87579305Y-150362560D01*
X87579305Y-150362560D02*
X87606242Y-150281747D01*
X87606242Y-150281747D02*
X87740929Y-150147060D01*
X87740929Y-150147060D02*
X87821741Y-150120123D01*
X87821741Y-150120123D02*
X87875616Y-150120123D01*
X87875616Y-150120123D02*
X87956428Y-150147060D01*
X87956428Y-150147060D02*
X88091115Y-150281747D01*
X88091115Y-150281747D02*
X88118053Y-150362560D01*
X88118053Y-150362560D02*
X88118053Y-150416434D01*
X88118053Y-150416434D02*
X88091115Y-150497247D01*
X88091115Y-150497247D02*
X87956428Y-150631934D01*
X87956428Y-150631934D02*
X87875616Y-150658871D01*
X87875616Y-150658871D02*
X87821741Y-150658871D01*
X112097998Y-148980868D02*
X112017185Y-149007805D01*
X112017185Y-149007805D02*
X111936373Y-149088618D01*
X111936373Y-149088618D02*
X111882498Y-149196367D01*
X111882498Y-149196367D02*
X111882498Y-149304117D01*
X111882498Y-149304117D02*
X111909436Y-149384929D01*
X111909436Y-149384929D02*
X111990248Y-149519616D01*
X111990248Y-149519616D02*
X112071060Y-149600428D01*
X112071060Y-149600428D02*
X112205747Y-149681241D01*
X112205747Y-149681241D02*
X112286560Y-149708178D01*
X112286560Y-149708178D02*
X112394309Y-149708178D01*
X112394309Y-149708178D02*
X112502059Y-149654303D01*
X112502059Y-149654303D02*
X112555934Y-149600428D01*
X112555934Y-149600428D02*
X112609808Y-149492679D01*
X112609808Y-149492679D02*
X112609808Y-149438804D01*
X112609808Y-149438804D02*
X112421247Y-149250242D01*
X112421247Y-149250242D02*
X112313497Y-149357992D01*
X112906120Y-149250242D02*
X112340434Y-148684557D01*
X112340434Y-148684557D02*
X112555934Y-148469057D01*
X112555934Y-148469057D02*
X112636746Y-148442120D01*
X112636746Y-148442120D02*
X112690621Y-148442120D01*
X112690621Y-148442120D02*
X112771433Y-148469057D01*
X112771433Y-148469057D02*
X112852245Y-148549870D01*
X112852245Y-148549870D02*
X112879182Y-148630682D01*
X112879182Y-148630682D02*
X112879182Y-148684557D01*
X112879182Y-148684557D02*
X112852245Y-148765369D01*
X112852245Y-148765369D02*
X112636746Y-148980868D01*
X113768117Y-148388245D02*
X113444868Y-148711494D01*
X113606492Y-148549870D02*
X113040807Y-147984184D01*
X113040807Y-147984184D02*
X113067744Y-148118871D01*
X113067744Y-148118871D02*
X113067744Y-148226621D01*
X113067744Y-148226621D02*
X113040807Y-148307433D01*
X113390993Y-147633998D02*
X113768117Y-147256874D01*
X113768117Y-147256874D02*
X114091366Y-148064996D01*
X112097998Y-126120868D02*
X112017185Y-126147805D01*
X112017185Y-126147805D02*
X111936373Y-126228618D01*
X111936373Y-126228618D02*
X111882498Y-126336367D01*
X111882498Y-126336367D02*
X111882498Y-126444117D01*
X111882498Y-126444117D02*
X111909436Y-126524929D01*
X111909436Y-126524929D02*
X111990248Y-126659616D01*
X111990248Y-126659616D02*
X112071060Y-126740428D01*
X112071060Y-126740428D02*
X112205747Y-126821241D01*
X112205747Y-126821241D02*
X112286560Y-126848178D01*
X112286560Y-126848178D02*
X112394309Y-126848178D01*
X112394309Y-126848178D02*
X112502059Y-126794303D01*
X112502059Y-126794303D02*
X112555934Y-126740428D01*
X112555934Y-126740428D02*
X112609808Y-126632679D01*
X112609808Y-126632679D02*
X112609808Y-126578804D01*
X112609808Y-126578804D02*
X112421247Y-126390242D01*
X112421247Y-126390242D02*
X112313497Y-126497992D01*
X112906120Y-126390242D02*
X112340434Y-125824557D01*
X112340434Y-125824557D02*
X112555934Y-125609057D01*
X112555934Y-125609057D02*
X112636746Y-125582120D01*
X112636746Y-125582120D02*
X112690621Y-125582120D01*
X112690621Y-125582120D02*
X112771433Y-125609057D01*
X112771433Y-125609057D02*
X112852245Y-125689870D01*
X112852245Y-125689870D02*
X112879182Y-125770682D01*
X112879182Y-125770682D02*
X112879182Y-125824557D01*
X112879182Y-125824557D02*
X112852245Y-125905369D01*
X112852245Y-125905369D02*
X112636746Y-126120868D01*
X112933057Y-125339683D02*
X112933057Y-125285809D01*
X112933057Y-125285809D02*
X112959995Y-125204996D01*
X112959995Y-125204996D02*
X113094682Y-125070309D01*
X113094682Y-125070309D02*
X113175494Y-125043372D01*
X113175494Y-125043372D02*
X113229369Y-125043372D01*
X113229369Y-125043372D02*
X113310181Y-125070309D01*
X113310181Y-125070309D02*
X113364056Y-125124184D01*
X113364056Y-125124184D02*
X113417930Y-125231934D01*
X113417930Y-125231934D02*
X113417930Y-125878431D01*
X113417930Y-125878431D02*
X113768117Y-125528245D01*
X113687305Y-124477686D02*
X113579555Y-124585436D01*
X113579555Y-124585436D02*
X113552618Y-124666248D01*
X113552618Y-124666248D02*
X113552618Y-124720123D01*
X113552618Y-124720123D02*
X113579555Y-124854810D01*
X113579555Y-124854810D02*
X113660367Y-124989497D01*
X113660367Y-124989497D02*
X113875866Y-125204996D01*
X113875866Y-125204996D02*
X113956679Y-125231934D01*
X113956679Y-125231934D02*
X114010553Y-125231934D01*
X114010553Y-125231934D02*
X114091366Y-125204996D01*
X114091366Y-125204996D02*
X114199115Y-125097247D01*
X114199115Y-125097247D02*
X114226053Y-125016434D01*
X114226053Y-125016434D02*
X114226053Y-124962560D01*
X114226053Y-124962560D02*
X114199115Y-124881747D01*
X114199115Y-124881747D02*
X114064428Y-124747060D01*
X114064428Y-124747060D02*
X113983616Y-124720123D01*
X113983616Y-124720123D02*
X113929741Y-124720123D01*
X113929741Y-124720123D02*
X113848929Y-124747060D01*
X113848929Y-124747060D02*
X113741179Y-124854810D01*
X113741179Y-124854810D02*
X113714242Y-124935622D01*
X113714242Y-124935622D02*
X113714242Y-124989497D01*
X113714242Y-124989497D02*
X113741179Y-125070309D01*
X111922407Y-111408584D02*
X112272593Y-111058398D01*
X112272593Y-111058398D02*
X112299531Y-111462459D01*
X112299531Y-111462459D02*
X112380343Y-111381646D01*
X112380343Y-111381646D02*
X112461155Y-111354709D01*
X112461155Y-111354709D02*
X112515030Y-111354709D01*
X112515030Y-111354709D02*
X112595842Y-111381646D01*
X112595842Y-111381646D02*
X112730529Y-111516333D01*
X112730529Y-111516333D02*
X112757467Y-111597146D01*
X112757467Y-111597146D02*
X112757467Y-111651020D01*
X112757467Y-111651020D02*
X112730529Y-111731833D01*
X112730529Y-111731833D02*
X112568905Y-111893457D01*
X112568905Y-111893457D02*
X112488093Y-111920394D01*
X112488093Y-111920394D02*
X112434218Y-111920394D01*
X112434218Y-110896773D02*
X113188465Y-111273897D01*
X113188465Y-111273897D02*
X112811342Y-110519649D01*
X112946028Y-110384963D02*
X113296215Y-110034776D01*
X113296215Y-110034776D02*
X113323152Y-110438837D01*
X113323152Y-110438837D02*
X113403964Y-110358025D01*
X113403964Y-110358025D02*
X113484776Y-110331088D01*
X113484776Y-110331088D02*
X113538651Y-110331088D01*
X113538651Y-110331088D02*
X113619464Y-110358025D01*
X113619464Y-110358025D02*
X113754151Y-110492712D01*
X113754151Y-110492712D02*
X113781088Y-110573524D01*
X113781088Y-110573524D02*
X113781088Y-110627399D01*
X113781088Y-110627399D02*
X113754151Y-110708211D01*
X113754151Y-110708211D02*
X113592526Y-110869836D01*
X113592526Y-110869836D02*
X113511714Y-110896773D01*
X113511714Y-110896773D02*
X113457839Y-110896773D01*
X114023525Y-110546587D02*
X114454523Y-110115588D01*
X114239024Y-109630715D02*
X114427586Y-109442153D01*
X114804709Y-109657652D02*
X114535335Y-109927026D01*
X114535335Y-109927026D02*
X113969650Y-109361341D01*
X113969650Y-109361341D02*
X114239024Y-109091967D01*
X115047146Y-109415215D02*
X114481461Y-108849530D01*
X114481461Y-108849530D02*
X115370395Y-109091967D01*
X115370395Y-109091967D02*
X114804710Y-108526281D01*
X111890123Y-113490868D02*
X112240309Y-113140682D01*
X112240309Y-113140682D02*
X112267247Y-113544743D01*
X112267247Y-113544743D02*
X112348059Y-113463931D01*
X112348059Y-113463931D02*
X112428871Y-113436993D01*
X112428871Y-113436993D02*
X112482746Y-113436993D01*
X112482746Y-113436993D02*
X112563558Y-113463931D01*
X112563558Y-113463931D02*
X112698245Y-113598618D01*
X112698245Y-113598618D02*
X112725182Y-113679430D01*
X112725182Y-113679430D02*
X112725182Y-113733305D01*
X112725182Y-113733305D02*
X112698245Y-113814117D01*
X112698245Y-113814117D02*
X112536621Y-113975741D01*
X112536621Y-113975741D02*
X112455808Y-114002679D01*
X112455808Y-114002679D02*
X112401934Y-114002679D01*
X112401934Y-112979057D02*
X113156181Y-113356181D01*
X113156181Y-113356181D02*
X112779057Y-112601934D01*
X112913744Y-112467247D02*
X113263930Y-112117061D01*
X113263930Y-112117061D02*
X113290868Y-112521122D01*
X113290868Y-112521122D02*
X113371680Y-112440309D01*
X113371680Y-112440309D02*
X113452492Y-112413372D01*
X113452492Y-112413372D02*
X113506367Y-112413372D01*
X113506367Y-112413372D02*
X113587179Y-112440309D01*
X113587179Y-112440309D02*
X113721866Y-112574996D01*
X113721866Y-112574996D02*
X113748804Y-112655809D01*
X113748804Y-112655809D02*
X113748804Y-112709683D01*
X113748804Y-112709683D02*
X113721866Y-112790496D01*
X113721866Y-112790496D02*
X113560242Y-112952120D01*
X113560242Y-112952120D02*
X113479430Y-112979057D01*
X113479430Y-112979057D02*
X113425555Y-112979057D01*
X86513372Y-128391494D02*
X86432560Y-128418431D01*
X86432560Y-128418431D02*
X86351748Y-128499243D01*
X86351748Y-128499243D02*
X86297873Y-128606993D01*
X86297873Y-128606993D02*
X86297873Y-128714742D01*
X86297873Y-128714742D02*
X86324810Y-128795555D01*
X86324810Y-128795555D02*
X86405623Y-128930242D01*
X86405623Y-128930242D02*
X86486435Y-129011054D01*
X86486435Y-129011054D02*
X86621122Y-129091866D01*
X86621122Y-129091866D02*
X86701934Y-129118803D01*
X86701934Y-129118803D02*
X86809684Y-129118803D01*
X86809684Y-129118803D02*
X86917433Y-129064929D01*
X86917433Y-129064929D02*
X86971308Y-129011054D01*
X86971308Y-129011054D02*
X87025183Y-128903304D01*
X87025183Y-128903304D02*
X87025183Y-128849429D01*
X87025183Y-128849429D02*
X86836621Y-128660868D01*
X86836621Y-128660868D02*
X86728871Y-128768617D01*
X87321494Y-128660868D02*
X86755809Y-128095182D01*
X86755809Y-128095182D02*
X86971308Y-127879683D01*
X86971308Y-127879683D02*
X87052120Y-127852746D01*
X87052120Y-127852746D02*
X87105995Y-127852746D01*
X87105995Y-127852746D02*
X87186807Y-127879683D01*
X87186807Y-127879683D02*
X87267619Y-127960495D01*
X87267619Y-127960495D02*
X87294557Y-128041307D01*
X87294557Y-128041307D02*
X87294557Y-128095182D01*
X87294557Y-128095182D02*
X87267619Y-128175994D01*
X87267619Y-128175994D02*
X87052120Y-128391494D01*
X87644743Y-127691121D02*
X87563931Y-127718059D01*
X87563931Y-127718059D02*
X87510056Y-127718059D01*
X87510056Y-127718059D02*
X87429244Y-127691121D01*
X87429244Y-127691121D02*
X87402306Y-127664184D01*
X87402306Y-127664184D02*
X87375369Y-127583372D01*
X87375369Y-127583372D02*
X87375369Y-127529497D01*
X87375369Y-127529497D02*
X87402306Y-127448685D01*
X87402306Y-127448685D02*
X87510056Y-127340935D01*
X87510056Y-127340935D02*
X87590868Y-127313998D01*
X87590868Y-127313998D02*
X87644743Y-127313998D01*
X87644743Y-127313998D02*
X87725555Y-127340935D01*
X87725555Y-127340935D02*
X87752493Y-127367872D01*
X87752493Y-127367872D02*
X87779430Y-127448685D01*
X87779430Y-127448685D02*
X87779430Y-127502559D01*
X87779430Y-127502559D02*
X87752493Y-127583372D01*
X87752493Y-127583372D02*
X87644743Y-127691121D01*
X87644743Y-127691121D02*
X87617806Y-127771933D01*
X87617806Y-127771933D02*
X87617806Y-127825808D01*
X87617806Y-127825808D02*
X87644743Y-127906620D01*
X87644743Y-127906620D02*
X87752493Y-128014370D01*
X87752493Y-128014370D02*
X87833305Y-128041307D01*
X87833305Y-128041307D02*
X87887180Y-128041307D01*
X87887180Y-128041307D02*
X87967992Y-128014370D01*
X87967992Y-128014370D02*
X88075741Y-127906620D01*
X88075741Y-127906620D02*
X88102679Y-127825808D01*
X88102679Y-127825808D02*
X88102679Y-127771933D01*
X88102679Y-127771933D02*
X88075741Y-127691121D01*
X88075741Y-127691121D02*
X87967992Y-127583372D01*
X87967992Y-127583372D02*
X87887180Y-127556434D01*
X87887180Y-127556434D02*
X87833305Y-127556434D01*
X87833305Y-127556434D02*
X87752493Y-127583372D01*
X112097998Y-151520868D02*
X112017185Y-151547805D01*
X112017185Y-151547805D02*
X111936373Y-151628618D01*
X111936373Y-151628618D02*
X111882498Y-151736367D01*
X111882498Y-151736367D02*
X111882498Y-151844117D01*
X111882498Y-151844117D02*
X111909436Y-151924929D01*
X111909436Y-151924929D02*
X111990248Y-152059616D01*
X111990248Y-152059616D02*
X112071060Y-152140428D01*
X112071060Y-152140428D02*
X112205747Y-152221241D01*
X112205747Y-152221241D02*
X112286560Y-152248178D01*
X112286560Y-152248178D02*
X112394309Y-152248178D01*
X112394309Y-152248178D02*
X112502059Y-152194303D01*
X112502059Y-152194303D02*
X112555934Y-152140428D01*
X112555934Y-152140428D02*
X112609808Y-152032679D01*
X112609808Y-152032679D02*
X112609808Y-151978804D01*
X112609808Y-151978804D02*
X112421247Y-151790242D01*
X112421247Y-151790242D02*
X112313497Y-151897992D01*
X112906120Y-151790242D02*
X112340434Y-151224557D01*
X112340434Y-151224557D02*
X112555934Y-151009057D01*
X112555934Y-151009057D02*
X112636746Y-150982120D01*
X112636746Y-150982120D02*
X112690621Y-150982120D01*
X112690621Y-150982120D02*
X112771433Y-151009057D01*
X112771433Y-151009057D02*
X112852245Y-151089870D01*
X112852245Y-151089870D02*
X112879182Y-151170682D01*
X112879182Y-151170682D02*
X112879182Y-151224557D01*
X112879182Y-151224557D02*
X112852245Y-151305369D01*
X112852245Y-151305369D02*
X112636746Y-151520868D01*
X113768117Y-150928245D02*
X113444868Y-151251494D01*
X113606492Y-151089870D02*
X113040807Y-150524184D01*
X113040807Y-150524184D02*
X113067744Y-150658871D01*
X113067744Y-150658871D02*
X113067744Y-150766621D01*
X113067744Y-150766621D02*
X113040807Y-150847433D01*
X113687305Y-149877686D02*
X113579555Y-149985436D01*
X113579555Y-149985436D02*
X113552618Y-150066248D01*
X113552618Y-150066248D02*
X113552618Y-150120123D01*
X113552618Y-150120123D02*
X113579555Y-150254810D01*
X113579555Y-150254810D02*
X113660367Y-150389497D01*
X113660367Y-150389497D02*
X113875866Y-150604996D01*
X113875866Y-150604996D02*
X113956679Y-150631934D01*
X113956679Y-150631934D02*
X114010553Y-150631934D01*
X114010553Y-150631934D02*
X114091366Y-150604996D01*
X114091366Y-150604996D02*
X114199115Y-150497247D01*
X114199115Y-150497247D02*
X114226053Y-150416434D01*
X114226053Y-150416434D02*
X114226053Y-150362560D01*
X114226053Y-150362560D02*
X114199115Y-150281747D01*
X114199115Y-150281747D02*
X114064428Y-150147060D01*
X114064428Y-150147060D02*
X113983616Y-150120123D01*
X113983616Y-150120123D02*
X113929741Y-150120123D01*
X113929741Y-150120123D02*
X113848929Y-150147060D01*
X113848929Y-150147060D02*
X113741179Y-150254810D01*
X113741179Y-150254810D02*
X113714242Y-150335622D01*
X113714242Y-150335622D02*
X113714242Y-150389497D01*
X113714242Y-150389497D02*
X113741179Y-150470309D01*
X112086435Y-133498431D02*
X112005623Y-133525368D01*
X112005623Y-133525368D02*
X111924811Y-133606180D01*
X111924811Y-133606180D02*
X111870936Y-133713930D01*
X111870936Y-133713930D02*
X111870936Y-133821680D01*
X111870936Y-133821680D02*
X111897873Y-133902492D01*
X111897873Y-133902492D02*
X111978685Y-134037179D01*
X111978685Y-134037179D02*
X112059498Y-134117991D01*
X112059498Y-134117991D02*
X112194185Y-134198803D01*
X112194185Y-134198803D02*
X112274997Y-134225741D01*
X112274997Y-134225741D02*
X112382746Y-134225741D01*
X112382746Y-134225741D02*
X112490496Y-134171866D01*
X112490496Y-134171866D02*
X112544371Y-134117991D01*
X112544371Y-134117991D02*
X112598246Y-134010241D01*
X112598246Y-134010241D02*
X112598246Y-133956367D01*
X112598246Y-133956367D02*
X112409684Y-133767805D01*
X112409684Y-133767805D02*
X112301934Y-133875554D01*
X112894557Y-133767805D02*
X112328872Y-133202119D01*
X112328872Y-133202119D02*
X113217806Y-133444556D01*
X113217806Y-133444556D02*
X112652120Y-132878871D01*
X113487180Y-133175182D02*
X112921494Y-132609497D01*
X112921494Y-132609497D02*
X113056181Y-132474810D01*
X113056181Y-132474810D02*
X113163931Y-132420935D01*
X113163931Y-132420935D02*
X113271680Y-132420935D01*
X113271680Y-132420935D02*
X113352493Y-132447872D01*
X113352493Y-132447872D02*
X113487180Y-132528685D01*
X113487180Y-132528685D02*
X113567992Y-132609497D01*
X113567992Y-132609497D02*
X113648804Y-132744184D01*
X113648804Y-132744184D02*
X113675741Y-132824996D01*
X113675741Y-132824996D02*
X113675741Y-132932746D01*
X113675741Y-132932746D02*
X113621867Y-133040495D01*
X113621867Y-133040495D02*
X113487180Y-133175182D01*
X86486435Y-120798431D02*
X86405623Y-120825368D01*
X86405623Y-120825368D02*
X86324811Y-120906180D01*
X86324811Y-120906180D02*
X86270936Y-121013930D01*
X86270936Y-121013930D02*
X86270936Y-121121680D01*
X86270936Y-121121680D02*
X86297873Y-121202492D01*
X86297873Y-121202492D02*
X86378685Y-121337179D01*
X86378685Y-121337179D02*
X86459498Y-121417991D01*
X86459498Y-121417991D02*
X86594185Y-121498803D01*
X86594185Y-121498803D02*
X86674997Y-121525741D01*
X86674997Y-121525741D02*
X86782746Y-121525741D01*
X86782746Y-121525741D02*
X86890496Y-121471866D01*
X86890496Y-121471866D02*
X86944371Y-121417991D01*
X86944371Y-121417991D02*
X86998246Y-121310241D01*
X86998246Y-121310241D02*
X86998246Y-121256367D01*
X86998246Y-121256367D02*
X86809684Y-121067805D01*
X86809684Y-121067805D02*
X86701934Y-121175554D01*
X87294557Y-121067805D02*
X86728872Y-120502119D01*
X86728872Y-120502119D02*
X87617806Y-120744556D01*
X87617806Y-120744556D02*
X87052120Y-120178871D01*
X87887180Y-120475182D02*
X87321494Y-119909497D01*
X87321494Y-119909497D02*
X87456181Y-119774810D01*
X87456181Y-119774810D02*
X87563931Y-119720935D01*
X87563931Y-119720935D02*
X87671680Y-119720935D01*
X87671680Y-119720935D02*
X87752493Y-119747872D01*
X87752493Y-119747872D02*
X87887180Y-119828685D01*
X87887180Y-119828685D02*
X87967992Y-119909497D01*
X87967992Y-119909497D02*
X88048804Y-120044184D01*
X88048804Y-120044184D02*
X88075741Y-120124996D01*
X88075741Y-120124996D02*
X88075741Y-120232746D01*
X88075741Y-120232746D02*
X88021867Y-120340495D01*
X88021867Y-120340495D02*
X87887180Y-120475182D01*
X112097998Y-118246868D02*
X112017185Y-118273805D01*
X112017185Y-118273805D02*
X111936373Y-118354618D01*
X111936373Y-118354618D02*
X111882498Y-118462367D01*
X111882498Y-118462367D02*
X111882498Y-118570117D01*
X111882498Y-118570117D02*
X111909436Y-118650929D01*
X111909436Y-118650929D02*
X111990248Y-118785616D01*
X111990248Y-118785616D02*
X112071060Y-118866428D01*
X112071060Y-118866428D02*
X112205747Y-118947241D01*
X112205747Y-118947241D02*
X112286560Y-118974178D01*
X112286560Y-118974178D02*
X112394309Y-118974178D01*
X112394309Y-118974178D02*
X112502059Y-118920303D01*
X112502059Y-118920303D02*
X112555934Y-118866428D01*
X112555934Y-118866428D02*
X112609808Y-118758679D01*
X112609808Y-118758679D02*
X112609808Y-118704804D01*
X112609808Y-118704804D02*
X112421247Y-118516242D01*
X112421247Y-118516242D02*
X112313497Y-118623992D01*
X112906120Y-118516242D02*
X112340434Y-117950557D01*
X112340434Y-117950557D02*
X112555934Y-117735057D01*
X112555934Y-117735057D02*
X112636746Y-117708120D01*
X112636746Y-117708120D02*
X112690621Y-117708120D01*
X112690621Y-117708120D02*
X112771433Y-117735057D01*
X112771433Y-117735057D02*
X112852245Y-117815870D01*
X112852245Y-117815870D02*
X112879182Y-117896682D01*
X112879182Y-117896682D02*
X112879182Y-117950557D01*
X112879182Y-117950557D02*
X112852245Y-118031369D01*
X112852245Y-118031369D02*
X112636746Y-118246868D01*
X112933057Y-117465683D02*
X112933057Y-117411809D01*
X112933057Y-117411809D02*
X112959995Y-117330996D01*
X112959995Y-117330996D02*
X113094682Y-117196309D01*
X113094682Y-117196309D02*
X113175494Y-117169372D01*
X113175494Y-117169372D02*
X113229369Y-117169372D01*
X113229369Y-117169372D02*
X113310181Y-117196309D01*
X113310181Y-117196309D02*
X113364056Y-117250184D01*
X113364056Y-117250184D02*
X113417930Y-117357934D01*
X113417930Y-117357934D02*
X113417930Y-118004431D01*
X113417930Y-118004431D02*
X113768117Y-117654245D01*
X113768117Y-117007747D02*
X113687305Y-117034685D01*
X113687305Y-117034685D02*
X113633430Y-117034685D01*
X113633430Y-117034685D02*
X113552618Y-117007747D01*
X113552618Y-117007747D02*
X113525680Y-116980810D01*
X113525680Y-116980810D02*
X113498743Y-116899998D01*
X113498743Y-116899998D02*
X113498743Y-116846123D01*
X113498743Y-116846123D02*
X113525680Y-116765311D01*
X113525680Y-116765311D02*
X113633430Y-116657561D01*
X113633430Y-116657561D02*
X113714242Y-116630624D01*
X113714242Y-116630624D02*
X113768117Y-116630624D01*
X113768117Y-116630624D02*
X113848929Y-116657561D01*
X113848929Y-116657561D02*
X113875866Y-116684499D01*
X113875866Y-116684499D02*
X113902804Y-116765311D01*
X113902804Y-116765311D02*
X113902804Y-116819186D01*
X113902804Y-116819186D02*
X113875866Y-116899998D01*
X113875866Y-116899998D02*
X113768117Y-117007747D01*
X113768117Y-117007747D02*
X113741179Y-117088560D01*
X113741179Y-117088560D02*
X113741179Y-117142434D01*
X113741179Y-117142434D02*
X113768117Y-117223247D01*
X113768117Y-117223247D02*
X113875866Y-117330996D01*
X113875866Y-117330996D02*
X113956679Y-117357934D01*
X113956679Y-117357934D02*
X114010553Y-117357934D01*
X114010553Y-117357934D02*
X114091366Y-117330996D01*
X114091366Y-117330996D02*
X114199115Y-117223247D01*
X114199115Y-117223247D02*
X114226053Y-117142434D01*
X114226053Y-117142434D02*
X114226053Y-117088560D01*
X114226053Y-117088560D02*
X114199115Y-117007747D01*
X114199115Y-117007747D02*
X114091366Y-116899998D01*
X114091366Y-116899998D02*
X114010553Y-116873060D01*
X114010553Y-116873060D02*
X113956679Y-116873060D01*
X113956679Y-116873060D02*
X113875866Y-116899998D01*
X86513372Y-130931494D02*
X86432560Y-130958431D01*
X86432560Y-130958431D02*
X86351748Y-131039243D01*
X86351748Y-131039243D02*
X86297873Y-131146993D01*
X86297873Y-131146993D02*
X86297873Y-131254742D01*
X86297873Y-131254742D02*
X86324810Y-131335555D01*
X86324810Y-131335555D02*
X86405623Y-131470242D01*
X86405623Y-131470242D02*
X86486435Y-131551054D01*
X86486435Y-131551054D02*
X86621122Y-131631866D01*
X86621122Y-131631866D02*
X86701934Y-131658803D01*
X86701934Y-131658803D02*
X86809684Y-131658803D01*
X86809684Y-131658803D02*
X86917433Y-131604929D01*
X86917433Y-131604929D02*
X86971308Y-131551054D01*
X86971308Y-131551054D02*
X87025183Y-131443304D01*
X87025183Y-131443304D02*
X87025183Y-131389429D01*
X87025183Y-131389429D02*
X86836621Y-131200868D01*
X86836621Y-131200868D02*
X86728871Y-131308617D01*
X87321494Y-131200868D02*
X86755809Y-130635182D01*
X86755809Y-130635182D02*
X86971308Y-130419683D01*
X86971308Y-130419683D02*
X87052120Y-130392746D01*
X87052120Y-130392746D02*
X87105995Y-130392746D01*
X87105995Y-130392746D02*
X87186807Y-130419683D01*
X87186807Y-130419683D02*
X87267619Y-130500495D01*
X87267619Y-130500495D02*
X87294557Y-130581307D01*
X87294557Y-130581307D02*
X87294557Y-130635182D01*
X87294557Y-130635182D02*
X87267619Y-130715994D01*
X87267619Y-130715994D02*
X87052120Y-130931494D01*
X87914117Y-130608245D02*
X88021867Y-130500495D01*
X88021867Y-130500495D02*
X88048804Y-130419683D01*
X88048804Y-130419683D02*
X88048804Y-130365808D01*
X88048804Y-130365808D02*
X88021867Y-130231121D01*
X88021867Y-130231121D02*
X87941054Y-130096434D01*
X87941054Y-130096434D02*
X87725555Y-129880935D01*
X87725555Y-129880935D02*
X87644743Y-129853998D01*
X87644743Y-129853998D02*
X87590868Y-129853998D01*
X87590868Y-129853998D02*
X87510056Y-129880935D01*
X87510056Y-129880935D02*
X87402306Y-129988685D01*
X87402306Y-129988685D02*
X87375369Y-130069497D01*
X87375369Y-130069497D02*
X87375369Y-130123372D01*
X87375369Y-130123372D02*
X87402306Y-130204184D01*
X87402306Y-130204184D02*
X87536993Y-130338871D01*
X87536993Y-130338871D02*
X87617806Y-130365808D01*
X87617806Y-130365808D02*
X87671680Y-130365808D01*
X87671680Y-130365808D02*
X87752493Y-130338871D01*
X87752493Y-130338871D02*
X87860242Y-130231121D01*
X87860242Y-130231121D02*
X87887180Y-130150309D01*
X87887180Y-130150309D02*
X87887180Y-130096434D01*
X87887180Y-130096434D02*
X87860242Y-130015622D01*
X86513372Y-118231494D02*
X86432560Y-118258431D01*
X86432560Y-118258431D02*
X86351748Y-118339243D01*
X86351748Y-118339243D02*
X86297873Y-118446993D01*
X86297873Y-118446993D02*
X86297873Y-118554742D01*
X86297873Y-118554742D02*
X86324810Y-118635555D01*
X86324810Y-118635555D02*
X86405623Y-118770242D01*
X86405623Y-118770242D02*
X86486435Y-118851054D01*
X86486435Y-118851054D02*
X86621122Y-118931866D01*
X86621122Y-118931866D02*
X86701934Y-118958803D01*
X86701934Y-118958803D02*
X86809684Y-118958803D01*
X86809684Y-118958803D02*
X86917433Y-118904929D01*
X86917433Y-118904929D02*
X86971308Y-118851054D01*
X86971308Y-118851054D02*
X87025183Y-118743304D01*
X87025183Y-118743304D02*
X87025183Y-118689429D01*
X87025183Y-118689429D02*
X86836621Y-118500868D01*
X86836621Y-118500868D02*
X86728871Y-118608617D01*
X87321494Y-118500868D02*
X86755809Y-117935182D01*
X86755809Y-117935182D02*
X86971308Y-117719683D01*
X86971308Y-117719683D02*
X87052120Y-117692746D01*
X87052120Y-117692746D02*
X87105995Y-117692746D01*
X87105995Y-117692746D02*
X87186807Y-117719683D01*
X87186807Y-117719683D02*
X87267619Y-117800495D01*
X87267619Y-117800495D02*
X87294557Y-117881307D01*
X87294557Y-117881307D02*
X87294557Y-117935182D01*
X87294557Y-117935182D02*
X87267619Y-118015994D01*
X87267619Y-118015994D02*
X87052120Y-118231494D01*
X87590868Y-117100123D02*
X87321494Y-117369497D01*
X87321494Y-117369497D02*
X87563931Y-117665808D01*
X87563931Y-117665808D02*
X87563931Y-117611933D01*
X87563931Y-117611933D02*
X87590868Y-117531121D01*
X87590868Y-117531121D02*
X87725555Y-117396434D01*
X87725555Y-117396434D02*
X87806367Y-117369497D01*
X87806367Y-117369497D02*
X87860242Y-117369497D01*
X87860242Y-117369497D02*
X87941054Y-117396434D01*
X87941054Y-117396434D02*
X88075741Y-117531121D01*
X88075741Y-117531121D02*
X88102679Y-117611933D01*
X88102679Y-117611933D02*
X88102679Y-117665808D01*
X88102679Y-117665808D02*
X88075741Y-117746620D01*
X88075741Y-117746620D02*
X87941054Y-117881307D01*
X87941054Y-117881307D02*
X87860242Y-117908245D01*
X87860242Y-117908245D02*
X87806367Y-117908245D01*
X86513372Y-102991494D02*
X86432560Y-103018431D01*
X86432560Y-103018431D02*
X86351748Y-103099243D01*
X86351748Y-103099243D02*
X86297873Y-103206993D01*
X86297873Y-103206993D02*
X86297873Y-103314742D01*
X86297873Y-103314742D02*
X86324810Y-103395555D01*
X86324810Y-103395555D02*
X86405623Y-103530242D01*
X86405623Y-103530242D02*
X86486435Y-103611054D01*
X86486435Y-103611054D02*
X86621122Y-103691866D01*
X86621122Y-103691866D02*
X86701934Y-103718803D01*
X86701934Y-103718803D02*
X86809684Y-103718803D01*
X86809684Y-103718803D02*
X86917433Y-103664929D01*
X86917433Y-103664929D02*
X86971308Y-103611054D01*
X86971308Y-103611054D02*
X87025183Y-103503304D01*
X87025183Y-103503304D02*
X87025183Y-103449429D01*
X87025183Y-103449429D02*
X86836621Y-103260868D01*
X86836621Y-103260868D02*
X86728871Y-103368617D01*
X87321494Y-103260868D02*
X86755809Y-102695182D01*
X86755809Y-102695182D02*
X86971308Y-102479683D01*
X86971308Y-102479683D02*
X87052120Y-102452746D01*
X87052120Y-102452746D02*
X87105995Y-102452746D01*
X87105995Y-102452746D02*
X87186807Y-102479683D01*
X87186807Y-102479683D02*
X87267619Y-102560495D01*
X87267619Y-102560495D02*
X87294557Y-102641307D01*
X87294557Y-102641307D02*
X87294557Y-102695182D01*
X87294557Y-102695182D02*
X87267619Y-102775994D01*
X87267619Y-102775994D02*
X87052120Y-102991494D01*
X87429244Y-102021747D02*
X87483119Y-101967872D01*
X87483119Y-101967872D02*
X87563931Y-101940935D01*
X87563931Y-101940935D02*
X87617806Y-101940935D01*
X87617806Y-101940935D02*
X87698618Y-101967872D01*
X87698618Y-101967872D02*
X87833305Y-102048685D01*
X87833305Y-102048685D02*
X87967992Y-102183372D01*
X87967992Y-102183372D02*
X88048804Y-102318059D01*
X88048804Y-102318059D02*
X88075741Y-102398871D01*
X88075741Y-102398871D02*
X88075741Y-102452746D01*
X88075741Y-102452746D02*
X88048804Y-102533558D01*
X88048804Y-102533558D02*
X87994929Y-102587433D01*
X87994929Y-102587433D02*
X87914117Y-102614370D01*
X87914117Y-102614370D02*
X87860242Y-102614370D01*
X87860242Y-102614370D02*
X87779430Y-102587433D01*
X87779430Y-102587433D02*
X87644743Y-102506620D01*
X87644743Y-102506620D02*
X87510056Y-102371933D01*
X87510056Y-102371933D02*
X87429244Y-102237246D01*
X87429244Y-102237246D02*
X87402306Y-102156434D01*
X87402306Y-102156434D02*
X87402306Y-102102559D01*
X87402306Y-102102559D02*
X87429244Y-102021747D01*
X86513372Y-113151494D02*
X86432560Y-113178431D01*
X86432560Y-113178431D02*
X86351748Y-113259243D01*
X86351748Y-113259243D02*
X86297873Y-113366993D01*
X86297873Y-113366993D02*
X86297873Y-113474742D01*
X86297873Y-113474742D02*
X86324810Y-113555555D01*
X86324810Y-113555555D02*
X86405623Y-113690242D01*
X86405623Y-113690242D02*
X86486435Y-113771054D01*
X86486435Y-113771054D02*
X86621122Y-113851866D01*
X86621122Y-113851866D02*
X86701934Y-113878803D01*
X86701934Y-113878803D02*
X86809684Y-113878803D01*
X86809684Y-113878803D02*
X86917433Y-113824929D01*
X86917433Y-113824929D02*
X86971308Y-113771054D01*
X86971308Y-113771054D02*
X87025183Y-113663304D01*
X87025183Y-113663304D02*
X87025183Y-113609429D01*
X87025183Y-113609429D02*
X86836621Y-113420868D01*
X86836621Y-113420868D02*
X86728871Y-113528617D01*
X87321494Y-113420868D02*
X86755809Y-112855182D01*
X86755809Y-112855182D02*
X86971308Y-112639683D01*
X86971308Y-112639683D02*
X87052120Y-112612746D01*
X87052120Y-112612746D02*
X87105995Y-112612746D01*
X87105995Y-112612746D02*
X87186807Y-112639683D01*
X87186807Y-112639683D02*
X87267619Y-112720495D01*
X87267619Y-112720495D02*
X87294557Y-112801307D01*
X87294557Y-112801307D02*
X87294557Y-112855182D01*
X87294557Y-112855182D02*
X87267619Y-112935994D01*
X87267619Y-112935994D02*
X87052120Y-113151494D01*
X87267619Y-112343372D02*
X87617806Y-111993185D01*
X87617806Y-111993185D02*
X87644743Y-112397246D01*
X87644743Y-112397246D02*
X87725555Y-112316434D01*
X87725555Y-112316434D02*
X87806367Y-112289497D01*
X87806367Y-112289497D02*
X87860242Y-112289497D01*
X87860242Y-112289497D02*
X87941054Y-112316434D01*
X87941054Y-112316434D02*
X88075741Y-112451121D01*
X88075741Y-112451121D02*
X88102679Y-112531933D01*
X88102679Y-112531933D02*
X88102679Y-112585808D01*
X88102679Y-112585808D02*
X88075741Y-112666620D01*
X88075741Y-112666620D02*
X87914117Y-112828245D01*
X87914117Y-112828245D02*
X87833305Y-112855182D01*
X87833305Y-112855182D02*
X87779430Y-112855182D01*
X86486435Y-146198431D02*
X86405623Y-146225368D01*
X86405623Y-146225368D02*
X86324811Y-146306180D01*
X86324811Y-146306180D02*
X86270936Y-146413930D01*
X86270936Y-146413930D02*
X86270936Y-146521680D01*
X86270936Y-146521680D02*
X86297873Y-146602492D01*
X86297873Y-146602492D02*
X86378685Y-146737179D01*
X86378685Y-146737179D02*
X86459498Y-146817991D01*
X86459498Y-146817991D02*
X86594185Y-146898803D01*
X86594185Y-146898803D02*
X86674997Y-146925741D01*
X86674997Y-146925741D02*
X86782746Y-146925741D01*
X86782746Y-146925741D02*
X86890496Y-146871866D01*
X86890496Y-146871866D02*
X86944371Y-146817991D01*
X86944371Y-146817991D02*
X86998246Y-146710241D01*
X86998246Y-146710241D02*
X86998246Y-146656367D01*
X86998246Y-146656367D02*
X86809684Y-146467805D01*
X86809684Y-146467805D02*
X86701934Y-146575554D01*
X87294557Y-146467805D02*
X86728872Y-145902119D01*
X86728872Y-145902119D02*
X87617806Y-146144556D01*
X87617806Y-146144556D02*
X87052120Y-145578871D01*
X87887180Y-145875182D02*
X87321494Y-145309497D01*
X87321494Y-145309497D02*
X87456181Y-145174810D01*
X87456181Y-145174810D02*
X87563931Y-145120935D01*
X87563931Y-145120935D02*
X87671680Y-145120935D01*
X87671680Y-145120935D02*
X87752493Y-145147872D01*
X87752493Y-145147872D02*
X87887180Y-145228685D01*
X87887180Y-145228685D02*
X87967992Y-145309497D01*
X87967992Y-145309497D02*
X88048804Y-145444184D01*
X88048804Y-145444184D02*
X88075741Y-145524996D01*
X88075741Y-145524996D02*
X88075741Y-145632746D01*
X88075741Y-145632746D02*
X88021867Y-145740495D01*
X88021867Y-145740495D02*
X87887180Y-145875182D01*
X86486435Y-108098431D02*
X86405623Y-108125368D01*
X86405623Y-108125368D02*
X86324811Y-108206180D01*
X86324811Y-108206180D02*
X86270936Y-108313930D01*
X86270936Y-108313930D02*
X86270936Y-108421680D01*
X86270936Y-108421680D02*
X86297873Y-108502492D01*
X86297873Y-108502492D02*
X86378685Y-108637179D01*
X86378685Y-108637179D02*
X86459498Y-108717991D01*
X86459498Y-108717991D02*
X86594185Y-108798803D01*
X86594185Y-108798803D02*
X86674997Y-108825741D01*
X86674997Y-108825741D02*
X86782746Y-108825741D01*
X86782746Y-108825741D02*
X86890496Y-108771866D01*
X86890496Y-108771866D02*
X86944371Y-108717991D01*
X86944371Y-108717991D02*
X86998246Y-108610241D01*
X86998246Y-108610241D02*
X86998246Y-108556367D01*
X86998246Y-108556367D02*
X86809684Y-108367805D01*
X86809684Y-108367805D02*
X86701934Y-108475554D01*
X87294557Y-108367805D02*
X86728872Y-107802119D01*
X86728872Y-107802119D02*
X87617806Y-108044556D01*
X87617806Y-108044556D02*
X87052120Y-107478871D01*
X87887180Y-107775182D02*
X87321494Y-107209497D01*
X87321494Y-107209497D02*
X87456181Y-107074810D01*
X87456181Y-107074810D02*
X87563931Y-107020935D01*
X87563931Y-107020935D02*
X87671680Y-107020935D01*
X87671680Y-107020935D02*
X87752493Y-107047872D01*
X87752493Y-107047872D02*
X87887180Y-107128685D01*
X87887180Y-107128685D02*
X87967992Y-107209497D01*
X87967992Y-107209497D02*
X88048804Y-107344184D01*
X88048804Y-107344184D02*
X88075741Y-107424996D01*
X88075741Y-107424996D02*
X88075741Y-107532746D01*
X88075741Y-107532746D02*
X88021867Y-107640495D01*
X88021867Y-107640495D02*
X87887180Y-107775182D01*
X112097998Y-138820868D02*
X112017185Y-138847805D01*
X112017185Y-138847805D02*
X111936373Y-138928618D01*
X111936373Y-138928618D02*
X111882498Y-139036367D01*
X111882498Y-139036367D02*
X111882498Y-139144117D01*
X111882498Y-139144117D02*
X111909436Y-139224929D01*
X111909436Y-139224929D02*
X111990248Y-139359616D01*
X111990248Y-139359616D02*
X112071060Y-139440428D01*
X112071060Y-139440428D02*
X112205747Y-139521241D01*
X112205747Y-139521241D02*
X112286560Y-139548178D01*
X112286560Y-139548178D02*
X112394309Y-139548178D01*
X112394309Y-139548178D02*
X112502059Y-139494303D01*
X112502059Y-139494303D02*
X112555934Y-139440428D01*
X112555934Y-139440428D02*
X112609808Y-139332679D01*
X112609808Y-139332679D02*
X112609808Y-139278804D01*
X112609808Y-139278804D02*
X112421247Y-139090242D01*
X112421247Y-139090242D02*
X112313497Y-139197992D01*
X112906120Y-139090242D02*
X112340434Y-138524557D01*
X112340434Y-138524557D02*
X112555934Y-138309057D01*
X112555934Y-138309057D02*
X112636746Y-138282120D01*
X112636746Y-138282120D02*
X112690621Y-138282120D01*
X112690621Y-138282120D02*
X112771433Y-138309057D01*
X112771433Y-138309057D02*
X112852245Y-138389870D01*
X112852245Y-138389870D02*
X112879182Y-138470682D01*
X112879182Y-138470682D02*
X112879182Y-138524557D01*
X112879182Y-138524557D02*
X112852245Y-138605369D01*
X112852245Y-138605369D02*
X112636746Y-138820868D01*
X112933057Y-138039683D02*
X112933057Y-137985809D01*
X112933057Y-137985809D02*
X112959995Y-137904996D01*
X112959995Y-137904996D02*
X113094682Y-137770309D01*
X113094682Y-137770309D02*
X113175494Y-137743372D01*
X113175494Y-137743372D02*
X113229369Y-137743372D01*
X113229369Y-137743372D02*
X113310181Y-137770309D01*
X113310181Y-137770309D02*
X113364056Y-137824184D01*
X113364056Y-137824184D02*
X113417930Y-137931934D01*
X113417930Y-137931934D02*
X113417930Y-138578431D01*
X113417930Y-138578431D02*
X113768117Y-138228245D01*
X113552618Y-137312373D02*
X113606492Y-137258499D01*
X113606492Y-137258499D02*
X113687305Y-137231561D01*
X113687305Y-137231561D02*
X113741179Y-137231561D01*
X113741179Y-137231561D02*
X113821992Y-137258499D01*
X113821992Y-137258499D02*
X113956679Y-137339311D01*
X113956679Y-137339311D02*
X114091366Y-137473998D01*
X114091366Y-137473998D02*
X114172178Y-137608685D01*
X114172178Y-137608685D02*
X114199115Y-137689497D01*
X114199115Y-137689497D02*
X114199115Y-137743372D01*
X114199115Y-137743372D02*
X114172178Y-137824184D01*
X114172178Y-137824184D02*
X114118303Y-137878059D01*
X114118303Y-137878059D02*
X114037491Y-137904996D01*
X114037491Y-137904996D02*
X113983616Y-137904996D01*
X113983616Y-137904996D02*
X113902804Y-137878059D01*
X113902804Y-137878059D02*
X113768117Y-137797247D01*
X113768117Y-137797247D02*
X113633430Y-137662560D01*
X113633430Y-137662560D02*
X113552618Y-137527873D01*
X113552618Y-137527873D02*
X113525680Y-137447060D01*
X113525680Y-137447060D02*
X113525680Y-137393186D01*
X113525680Y-137393186D02*
X113552618Y-137312373D01*
X112097998Y-141360868D02*
X112017185Y-141387805D01*
X112017185Y-141387805D02*
X111936373Y-141468618D01*
X111936373Y-141468618D02*
X111882498Y-141576367D01*
X111882498Y-141576367D02*
X111882498Y-141684117D01*
X111882498Y-141684117D02*
X111909436Y-141764929D01*
X111909436Y-141764929D02*
X111990248Y-141899616D01*
X111990248Y-141899616D02*
X112071060Y-141980428D01*
X112071060Y-141980428D02*
X112205747Y-142061241D01*
X112205747Y-142061241D02*
X112286560Y-142088178D01*
X112286560Y-142088178D02*
X112394309Y-142088178D01*
X112394309Y-142088178D02*
X112502059Y-142034303D01*
X112502059Y-142034303D02*
X112555934Y-141980428D01*
X112555934Y-141980428D02*
X112609808Y-141872679D01*
X112609808Y-141872679D02*
X112609808Y-141818804D01*
X112609808Y-141818804D02*
X112421247Y-141630242D01*
X112421247Y-141630242D02*
X112313497Y-141737992D01*
X112906120Y-141630242D02*
X112340434Y-141064557D01*
X112340434Y-141064557D02*
X112555934Y-140849057D01*
X112555934Y-140849057D02*
X112636746Y-140822120D01*
X112636746Y-140822120D02*
X112690621Y-140822120D01*
X112690621Y-140822120D02*
X112771433Y-140849057D01*
X112771433Y-140849057D02*
X112852245Y-140929870D01*
X112852245Y-140929870D02*
X112879182Y-141010682D01*
X112879182Y-141010682D02*
X112879182Y-141064557D01*
X112879182Y-141064557D02*
X112852245Y-141145369D01*
X112852245Y-141145369D02*
X112636746Y-141360868D01*
X113768117Y-140768245D02*
X113444868Y-141091494D01*
X113606492Y-140929870D02*
X113040807Y-140364184D01*
X113040807Y-140364184D02*
X113067744Y-140498871D01*
X113067744Y-140498871D02*
X113067744Y-140606621D01*
X113067744Y-140606621D02*
X113040807Y-140687433D01*
X114037491Y-140498871D02*
X114145240Y-140391121D01*
X114145240Y-140391121D02*
X114172178Y-140310309D01*
X114172178Y-140310309D02*
X114172178Y-140256434D01*
X114172178Y-140256434D02*
X114145240Y-140121747D01*
X114145240Y-140121747D02*
X114064428Y-139987060D01*
X114064428Y-139987060D02*
X113848929Y-139771561D01*
X113848929Y-139771561D02*
X113768117Y-139744624D01*
X113768117Y-139744624D02*
X113714242Y-139744624D01*
X113714242Y-139744624D02*
X113633430Y-139771561D01*
X113633430Y-139771561D02*
X113525680Y-139879311D01*
X113525680Y-139879311D02*
X113498743Y-139960123D01*
X113498743Y-139960123D02*
X113498743Y-140013998D01*
X113498743Y-140013998D02*
X113525680Y-140094810D01*
X113525680Y-140094810D02*
X113660367Y-140229497D01*
X113660367Y-140229497D02*
X113741179Y-140256434D01*
X113741179Y-140256434D02*
X113795054Y-140256434D01*
X113795054Y-140256434D02*
X113875866Y-140229497D01*
X113875866Y-140229497D02*
X113983616Y-140121747D01*
X113983616Y-140121747D02*
X114010553Y-140040935D01*
X114010553Y-140040935D02*
X114010553Y-139987060D01*
X114010553Y-139987060D02*
X113983616Y-139906248D01*
X86413372Y-110611494D02*
X86332560Y-110638431D01*
X86332560Y-110638431D02*
X86251748Y-110719243D01*
X86251748Y-110719243D02*
X86197873Y-110826993D01*
X86197873Y-110826993D02*
X86197873Y-110934742D01*
X86197873Y-110934742D02*
X86224810Y-111015555D01*
X86224810Y-111015555D02*
X86305623Y-111150242D01*
X86305623Y-111150242D02*
X86386435Y-111231054D01*
X86386435Y-111231054D02*
X86521122Y-111311866D01*
X86521122Y-111311866D02*
X86601934Y-111338803D01*
X86601934Y-111338803D02*
X86709684Y-111338803D01*
X86709684Y-111338803D02*
X86817433Y-111284929D01*
X86817433Y-111284929D02*
X86871308Y-111231054D01*
X86871308Y-111231054D02*
X86925183Y-111123304D01*
X86925183Y-111123304D02*
X86925183Y-111069429D01*
X86925183Y-111069429D02*
X86736621Y-110880868D01*
X86736621Y-110880868D02*
X86628871Y-110988617D01*
X87221494Y-110880868D02*
X86655809Y-110315182D01*
X86655809Y-110315182D02*
X86871308Y-110099683D01*
X86871308Y-110099683D02*
X86952120Y-110072746D01*
X86952120Y-110072746D02*
X87005995Y-110072746D01*
X87005995Y-110072746D02*
X87086807Y-110099683D01*
X87086807Y-110099683D02*
X87167619Y-110180495D01*
X87167619Y-110180495D02*
X87194557Y-110261307D01*
X87194557Y-110261307D02*
X87194557Y-110315182D01*
X87194557Y-110315182D02*
X87167619Y-110395994D01*
X87167619Y-110395994D02*
X86952120Y-110611494D01*
X87248432Y-109830309D02*
X87248432Y-109776434D01*
X87248432Y-109776434D02*
X87275369Y-109695622D01*
X87275369Y-109695622D02*
X87410056Y-109560935D01*
X87410056Y-109560935D02*
X87490868Y-109533998D01*
X87490868Y-109533998D02*
X87544743Y-109533998D01*
X87544743Y-109533998D02*
X87625555Y-109560935D01*
X87625555Y-109560935D02*
X87679430Y-109614810D01*
X87679430Y-109614810D02*
X87733305Y-109722559D01*
X87733305Y-109722559D02*
X87733305Y-110369057D01*
X87733305Y-110369057D02*
X88083491Y-110018871D01*
X112097998Y-143900868D02*
X112017185Y-143927805D01*
X112017185Y-143927805D02*
X111936373Y-144008618D01*
X111936373Y-144008618D02*
X111882498Y-144116367D01*
X111882498Y-144116367D02*
X111882498Y-144224117D01*
X111882498Y-144224117D02*
X111909436Y-144304929D01*
X111909436Y-144304929D02*
X111990248Y-144439616D01*
X111990248Y-144439616D02*
X112071060Y-144520428D01*
X112071060Y-144520428D02*
X112205747Y-144601241D01*
X112205747Y-144601241D02*
X112286560Y-144628178D01*
X112286560Y-144628178D02*
X112394309Y-144628178D01*
X112394309Y-144628178D02*
X112502059Y-144574303D01*
X112502059Y-144574303D02*
X112555934Y-144520428D01*
X112555934Y-144520428D02*
X112609808Y-144412679D01*
X112609808Y-144412679D02*
X112609808Y-144358804D01*
X112609808Y-144358804D02*
X112421247Y-144170242D01*
X112421247Y-144170242D02*
X112313497Y-144277992D01*
X112906120Y-144170242D02*
X112340434Y-143604557D01*
X112340434Y-143604557D02*
X112555934Y-143389057D01*
X112555934Y-143389057D02*
X112636746Y-143362120D01*
X112636746Y-143362120D02*
X112690621Y-143362120D01*
X112690621Y-143362120D02*
X112771433Y-143389057D01*
X112771433Y-143389057D02*
X112852245Y-143469870D01*
X112852245Y-143469870D02*
X112879182Y-143550682D01*
X112879182Y-143550682D02*
X112879182Y-143604557D01*
X112879182Y-143604557D02*
X112852245Y-143685369D01*
X112852245Y-143685369D02*
X112636746Y-143900868D01*
X113768117Y-143308245D02*
X113444868Y-143631494D01*
X113606492Y-143469870D02*
X113040807Y-142904184D01*
X113040807Y-142904184D02*
X113067744Y-143038871D01*
X113067744Y-143038871D02*
X113067744Y-143146621D01*
X113067744Y-143146621D02*
X113040807Y-143227433D01*
X113768117Y-142661747D02*
X113687305Y-142688685D01*
X113687305Y-142688685D02*
X113633430Y-142688685D01*
X113633430Y-142688685D02*
X113552618Y-142661747D01*
X113552618Y-142661747D02*
X113525680Y-142634810D01*
X113525680Y-142634810D02*
X113498743Y-142553998D01*
X113498743Y-142553998D02*
X113498743Y-142500123D01*
X113498743Y-142500123D02*
X113525680Y-142419311D01*
X113525680Y-142419311D02*
X113633430Y-142311561D01*
X113633430Y-142311561D02*
X113714242Y-142284624D01*
X113714242Y-142284624D02*
X113768117Y-142284624D01*
X113768117Y-142284624D02*
X113848929Y-142311561D01*
X113848929Y-142311561D02*
X113875866Y-142338499D01*
X113875866Y-142338499D02*
X113902804Y-142419311D01*
X113902804Y-142419311D02*
X113902804Y-142473186D01*
X113902804Y-142473186D02*
X113875866Y-142553998D01*
X113875866Y-142553998D02*
X113768117Y-142661747D01*
X113768117Y-142661747D02*
X113741179Y-142742560D01*
X113741179Y-142742560D02*
X113741179Y-142796434D01*
X113741179Y-142796434D02*
X113768117Y-142877247D01*
X113768117Y-142877247D02*
X113875866Y-142984996D01*
X113875866Y-142984996D02*
X113956679Y-143011934D01*
X113956679Y-143011934D02*
X114010553Y-143011934D01*
X114010553Y-143011934D02*
X114091366Y-142984996D01*
X114091366Y-142984996D02*
X114199115Y-142877247D01*
X114199115Y-142877247D02*
X114226053Y-142796434D01*
X114226053Y-142796434D02*
X114226053Y-142742560D01*
X114226053Y-142742560D02*
X114199115Y-142661747D01*
X114199115Y-142661747D02*
X114091366Y-142553998D01*
X114091366Y-142553998D02*
X114010553Y-142527060D01*
X114010553Y-142527060D02*
X113956679Y-142527060D01*
X113956679Y-142527060D02*
X113875866Y-142553998D01*
X86513372Y-123311494D02*
X86432560Y-123338431D01*
X86432560Y-123338431D02*
X86351748Y-123419243D01*
X86351748Y-123419243D02*
X86297873Y-123526993D01*
X86297873Y-123526993D02*
X86297873Y-123634742D01*
X86297873Y-123634742D02*
X86324810Y-123715555D01*
X86324810Y-123715555D02*
X86405623Y-123850242D01*
X86405623Y-123850242D02*
X86486435Y-123931054D01*
X86486435Y-123931054D02*
X86621122Y-124011866D01*
X86621122Y-124011866D02*
X86701934Y-124038803D01*
X86701934Y-124038803D02*
X86809684Y-124038803D01*
X86809684Y-124038803D02*
X86917433Y-123984929D01*
X86917433Y-123984929D02*
X86971308Y-123931054D01*
X86971308Y-123931054D02*
X87025183Y-123823304D01*
X87025183Y-123823304D02*
X87025183Y-123769429D01*
X87025183Y-123769429D02*
X86836621Y-123580868D01*
X86836621Y-123580868D02*
X86728871Y-123688617D01*
X87321494Y-123580868D02*
X86755809Y-123015182D01*
X86755809Y-123015182D02*
X86971308Y-122799683D01*
X86971308Y-122799683D02*
X87052120Y-122772746D01*
X87052120Y-122772746D02*
X87105995Y-122772746D01*
X87105995Y-122772746D02*
X87186807Y-122799683D01*
X87186807Y-122799683D02*
X87267619Y-122880495D01*
X87267619Y-122880495D02*
X87294557Y-122961307D01*
X87294557Y-122961307D02*
X87294557Y-123015182D01*
X87294557Y-123015182D02*
X87267619Y-123095994D01*
X87267619Y-123095994D02*
X87052120Y-123311494D01*
X87563931Y-122207060D02*
X87456181Y-122314810D01*
X87456181Y-122314810D02*
X87429244Y-122395622D01*
X87429244Y-122395622D02*
X87429244Y-122449497D01*
X87429244Y-122449497D02*
X87456181Y-122584184D01*
X87456181Y-122584184D02*
X87536993Y-122718871D01*
X87536993Y-122718871D02*
X87752493Y-122934370D01*
X87752493Y-122934370D02*
X87833305Y-122961307D01*
X87833305Y-122961307D02*
X87887180Y-122961307D01*
X87887180Y-122961307D02*
X87967992Y-122934370D01*
X87967992Y-122934370D02*
X88075741Y-122826620D01*
X88075741Y-122826620D02*
X88102679Y-122745808D01*
X88102679Y-122745808D02*
X88102679Y-122691933D01*
X88102679Y-122691933D02*
X88075741Y-122611121D01*
X88075741Y-122611121D02*
X87941054Y-122476434D01*
X87941054Y-122476434D02*
X87860242Y-122449497D01*
X87860242Y-122449497D02*
X87806367Y-122449497D01*
X87806367Y-122449497D02*
X87725555Y-122476434D01*
X87725555Y-122476434D02*
X87617806Y-122584184D01*
X87617806Y-122584184D02*
X87590868Y-122664996D01*
X87590868Y-122664996D02*
X87590868Y-122718871D01*
X87590868Y-122718871D02*
X87617806Y-122799683D01*
X112097998Y-136290868D02*
X112017185Y-136317805D01*
X112017185Y-136317805D02*
X111936373Y-136398618D01*
X111936373Y-136398618D02*
X111882498Y-136506367D01*
X111882498Y-136506367D02*
X111882498Y-136614117D01*
X111882498Y-136614117D02*
X111909436Y-136694929D01*
X111909436Y-136694929D02*
X111990248Y-136829616D01*
X111990248Y-136829616D02*
X112071060Y-136910428D01*
X112071060Y-136910428D02*
X112205747Y-136991241D01*
X112205747Y-136991241D02*
X112286560Y-137018178D01*
X112286560Y-137018178D02*
X112394309Y-137018178D01*
X112394309Y-137018178D02*
X112502059Y-136964303D01*
X112502059Y-136964303D02*
X112555934Y-136910428D01*
X112555934Y-136910428D02*
X112609808Y-136802679D01*
X112609808Y-136802679D02*
X112609808Y-136748804D01*
X112609808Y-136748804D02*
X112421247Y-136560242D01*
X112421247Y-136560242D02*
X112313497Y-136667992D01*
X112906120Y-136560242D02*
X112340434Y-135994557D01*
X112340434Y-135994557D02*
X112555934Y-135779057D01*
X112555934Y-135779057D02*
X112636746Y-135752120D01*
X112636746Y-135752120D02*
X112690621Y-135752120D01*
X112690621Y-135752120D02*
X112771433Y-135779057D01*
X112771433Y-135779057D02*
X112852245Y-135859870D01*
X112852245Y-135859870D02*
X112879182Y-135940682D01*
X112879182Y-135940682D02*
X112879182Y-135994557D01*
X112879182Y-135994557D02*
X112852245Y-136075369D01*
X112852245Y-136075369D02*
X112636746Y-136290868D01*
X112933057Y-135509683D02*
X112933057Y-135455809D01*
X112933057Y-135455809D02*
X112959995Y-135374996D01*
X112959995Y-135374996D02*
X113094682Y-135240309D01*
X113094682Y-135240309D02*
X113175494Y-135213372D01*
X113175494Y-135213372D02*
X113229369Y-135213372D01*
X113229369Y-135213372D02*
X113310181Y-135240309D01*
X113310181Y-135240309D02*
X113364056Y-135294184D01*
X113364056Y-135294184D02*
X113417930Y-135401934D01*
X113417930Y-135401934D02*
X113417930Y-136048431D01*
X113417930Y-136048431D02*
X113768117Y-135698245D01*
X114306865Y-135159497D02*
X113983616Y-135482746D01*
X114145240Y-135321121D02*
X113579555Y-134755436D01*
X113579555Y-134755436D02*
X113606492Y-134890123D01*
X113606492Y-134890123D02*
X113606492Y-134997873D01*
X113606492Y-134997873D02*
X113579555Y-135078685D01*
X112097998Y-131200868D02*
X112017185Y-131227805D01*
X112017185Y-131227805D02*
X111936373Y-131308618D01*
X111936373Y-131308618D02*
X111882498Y-131416367D01*
X111882498Y-131416367D02*
X111882498Y-131524117D01*
X111882498Y-131524117D02*
X111909436Y-131604929D01*
X111909436Y-131604929D02*
X111990248Y-131739616D01*
X111990248Y-131739616D02*
X112071060Y-131820428D01*
X112071060Y-131820428D02*
X112205747Y-131901241D01*
X112205747Y-131901241D02*
X112286560Y-131928178D01*
X112286560Y-131928178D02*
X112394309Y-131928178D01*
X112394309Y-131928178D02*
X112502059Y-131874303D01*
X112502059Y-131874303D02*
X112555934Y-131820428D01*
X112555934Y-131820428D02*
X112609808Y-131712679D01*
X112609808Y-131712679D02*
X112609808Y-131658804D01*
X112609808Y-131658804D02*
X112421247Y-131470242D01*
X112421247Y-131470242D02*
X112313497Y-131577992D01*
X112906120Y-131470242D02*
X112340434Y-130904557D01*
X112340434Y-130904557D02*
X112555934Y-130689057D01*
X112555934Y-130689057D02*
X112636746Y-130662120D01*
X112636746Y-130662120D02*
X112690621Y-130662120D01*
X112690621Y-130662120D02*
X112771433Y-130689057D01*
X112771433Y-130689057D02*
X112852245Y-130769870D01*
X112852245Y-130769870D02*
X112879182Y-130850682D01*
X112879182Y-130850682D02*
X112879182Y-130904557D01*
X112879182Y-130904557D02*
X112852245Y-130985369D01*
X112852245Y-130985369D02*
X112636746Y-131200868D01*
X112933057Y-130419683D02*
X112933057Y-130365809D01*
X112933057Y-130365809D02*
X112959995Y-130284996D01*
X112959995Y-130284996D02*
X113094682Y-130150309D01*
X113094682Y-130150309D02*
X113175494Y-130123372D01*
X113175494Y-130123372D02*
X113229369Y-130123372D01*
X113229369Y-130123372D02*
X113310181Y-130150309D01*
X113310181Y-130150309D02*
X113364056Y-130204184D01*
X113364056Y-130204184D02*
X113417930Y-130311934D01*
X113417930Y-130311934D02*
X113417930Y-130958431D01*
X113417930Y-130958431D02*
X113768117Y-130608245D01*
X113471805Y-129880935D02*
X113471805Y-129827060D01*
X113471805Y-129827060D02*
X113498743Y-129746248D01*
X113498743Y-129746248D02*
X113633430Y-129611561D01*
X113633430Y-129611561D02*
X113714242Y-129584624D01*
X113714242Y-129584624D02*
X113768117Y-129584624D01*
X113768117Y-129584624D02*
X113848929Y-129611561D01*
X113848929Y-129611561D02*
X113902804Y-129665436D01*
X113902804Y-129665436D02*
X113956679Y-129773186D01*
X113956679Y-129773186D02*
X113956679Y-130419683D01*
X113956679Y-130419683D02*
X114306865Y-130069497D01*
X86486435Y-133498431D02*
X86405623Y-133525368D01*
X86405623Y-133525368D02*
X86324811Y-133606180D01*
X86324811Y-133606180D02*
X86270936Y-133713930D01*
X86270936Y-133713930D02*
X86270936Y-133821680D01*
X86270936Y-133821680D02*
X86297873Y-133902492D01*
X86297873Y-133902492D02*
X86378685Y-134037179D01*
X86378685Y-134037179D02*
X86459498Y-134117991D01*
X86459498Y-134117991D02*
X86594185Y-134198803D01*
X86594185Y-134198803D02*
X86674997Y-134225741D01*
X86674997Y-134225741D02*
X86782746Y-134225741D01*
X86782746Y-134225741D02*
X86890496Y-134171866D01*
X86890496Y-134171866D02*
X86944371Y-134117991D01*
X86944371Y-134117991D02*
X86998246Y-134010241D01*
X86998246Y-134010241D02*
X86998246Y-133956367D01*
X86998246Y-133956367D02*
X86809684Y-133767805D01*
X86809684Y-133767805D02*
X86701934Y-133875554D01*
X87294557Y-133767805D02*
X86728872Y-133202119D01*
X86728872Y-133202119D02*
X87617806Y-133444556D01*
X87617806Y-133444556D02*
X87052120Y-132878871D01*
X87887180Y-133175182D02*
X87321494Y-132609497D01*
X87321494Y-132609497D02*
X87456181Y-132474810D01*
X87456181Y-132474810D02*
X87563931Y-132420935D01*
X87563931Y-132420935D02*
X87671680Y-132420935D01*
X87671680Y-132420935D02*
X87752493Y-132447872D01*
X87752493Y-132447872D02*
X87887180Y-132528685D01*
X87887180Y-132528685D02*
X87967992Y-132609497D01*
X87967992Y-132609497D02*
X88048804Y-132744184D01*
X88048804Y-132744184D02*
X88075741Y-132824996D01*
X88075741Y-132824996D02*
X88075741Y-132932746D01*
X88075741Y-132932746D02*
X88021867Y-133040495D01*
X88021867Y-133040495D02*
X87887180Y-133175182D01*
X85943998Y-148980868D02*
X85863185Y-149007805D01*
X85863185Y-149007805D02*
X85782373Y-149088618D01*
X85782373Y-149088618D02*
X85728498Y-149196367D01*
X85728498Y-149196367D02*
X85728498Y-149304117D01*
X85728498Y-149304117D02*
X85755436Y-149384929D01*
X85755436Y-149384929D02*
X85836248Y-149519616D01*
X85836248Y-149519616D02*
X85917060Y-149600428D01*
X85917060Y-149600428D02*
X86051747Y-149681241D01*
X86051747Y-149681241D02*
X86132560Y-149708178D01*
X86132560Y-149708178D02*
X86240309Y-149708178D01*
X86240309Y-149708178D02*
X86348059Y-149654303D01*
X86348059Y-149654303D02*
X86401934Y-149600428D01*
X86401934Y-149600428D02*
X86455808Y-149492679D01*
X86455808Y-149492679D02*
X86455808Y-149438804D01*
X86455808Y-149438804D02*
X86267247Y-149250242D01*
X86267247Y-149250242D02*
X86159497Y-149357992D01*
X86752120Y-149250242D02*
X86186434Y-148684557D01*
X86186434Y-148684557D02*
X86401934Y-148469057D01*
X86401934Y-148469057D02*
X86482746Y-148442120D01*
X86482746Y-148442120D02*
X86536621Y-148442120D01*
X86536621Y-148442120D02*
X86617433Y-148469057D01*
X86617433Y-148469057D02*
X86698245Y-148549870D01*
X86698245Y-148549870D02*
X86725182Y-148630682D01*
X86725182Y-148630682D02*
X86725182Y-148684557D01*
X86725182Y-148684557D02*
X86698245Y-148765369D01*
X86698245Y-148765369D02*
X86482746Y-148980868D01*
X87614117Y-148388245D02*
X87290868Y-148711494D01*
X87452492Y-148549870D02*
X86886807Y-147984184D01*
X86886807Y-147984184D02*
X86913744Y-148118871D01*
X86913744Y-148118871D02*
X86913744Y-148226621D01*
X86913744Y-148226621D02*
X86886807Y-148307433D01*
X87721866Y-147526248D02*
X88098990Y-147903372D01*
X87371680Y-147445436D02*
X87641054Y-147984184D01*
X87641054Y-147984184D02*
X87991240Y-147633998D01*
X111920749Y-106070242D02*
X112674996Y-106447366D01*
X112674996Y-106447366D02*
X112297873Y-105693118D01*
X112998245Y-106070242D02*
X113105995Y-106016367D01*
X113105995Y-106016367D02*
X113240682Y-105881680D01*
X113240682Y-105881680D02*
X113267619Y-105800868D01*
X113267619Y-105800868D02*
X113267619Y-105746993D01*
X113267619Y-105746993D02*
X113240682Y-105666181D01*
X113240682Y-105666181D02*
X113186807Y-105612306D01*
X113186807Y-105612306D02*
X113105995Y-105585369D01*
X113105995Y-105585369D02*
X113052120Y-105585369D01*
X113052120Y-105585369D02*
X112971308Y-105612306D01*
X112971308Y-105612306D02*
X112836621Y-105693118D01*
X112836621Y-105693118D02*
X112755808Y-105720056D01*
X112755808Y-105720056D02*
X112701934Y-105720056D01*
X112701934Y-105720056D02*
X112621121Y-105693118D01*
X112621121Y-105693118D02*
X112567247Y-105639244D01*
X112567247Y-105639244D02*
X112540309Y-105558431D01*
X112540309Y-105558431D02*
X112540309Y-105504557D01*
X112540309Y-105504557D02*
X112567247Y-105423744D01*
X112567247Y-105423744D02*
X112701934Y-105289057D01*
X112701934Y-105289057D02*
X112809683Y-105235183D01*
X113429244Y-105154370D02*
X113698618Y-105423744D01*
X112944370Y-105046621D02*
X113429244Y-105154370D01*
X113429244Y-105154370D02*
X113321494Y-104669497D01*
X114021866Y-105046621D02*
X114129616Y-104992746D01*
X114129616Y-104992746D02*
X114264303Y-104858059D01*
X114264303Y-104858059D02*
X114291240Y-104777247D01*
X114291240Y-104777247D02*
X114291240Y-104723372D01*
X114291240Y-104723372D02*
X114264303Y-104642560D01*
X114264303Y-104642560D02*
X114210428Y-104588685D01*
X114210428Y-104588685D02*
X114129616Y-104561748D01*
X114129616Y-104561748D02*
X114075741Y-104561748D01*
X114075741Y-104561748D02*
X113994929Y-104588685D01*
X113994929Y-104588685D02*
X113860242Y-104669497D01*
X113860242Y-104669497D02*
X113779430Y-104696435D01*
X113779430Y-104696435D02*
X113725555Y-104696435D01*
X113725555Y-104696435D02*
X113644743Y-104669497D01*
X113644743Y-104669497D02*
X113590868Y-104615622D01*
X113590868Y-104615622D02*
X113563930Y-104534810D01*
X113563930Y-104534810D02*
X113563930Y-104480935D01*
X113563930Y-104480935D02*
X113590868Y-104400123D01*
X113590868Y-104400123D02*
X113725555Y-104265436D01*
X113725555Y-104265436D02*
X113833304Y-104211561D01*
X85843998Y-141360868D02*
X85763185Y-141387805D01*
X85763185Y-141387805D02*
X85682373Y-141468618D01*
X85682373Y-141468618D02*
X85628498Y-141576367D01*
X85628498Y-141576367D02*
X85628498Y-141684117D01*
X85628498Y-141684117D02*
X85655436Y-141764929D01*
X85655436Y-141764929D02*
X85736248Y-141899616D01*
X85736248Y-141899616D02*
X85817060Y-141980428D01*
X85817060Y-141980428D02*
X85951747Y-142061241D01*
X85951747Y-142061241D02*
X86032560Y-142088178D01*
X86032560Y-142088178D02*
X86140309Y-142088178D01*
X86140309Y-142088178D02*
X86248059Y-142034303D01*
X86248059Y-142034303D02*
X86301934Y-141980428D01*
X86301934Y-141980428D02*
X86355808Y-141872679D01*
X86355808Y-141872679D02*
X86355808Y-141818804D01*
X86355808Y-141818804D02*
X86167247Y-141630242D01*
X86167247Y-141630242D02*
X86059497Y-141737992D01*
X86652120Y-141630242D02*
X86086434Y-141064557D01*
X86086434Y-141064557D02*
X86301934Y-140849057D01*
X86301934Y-140849057D02*
X86382746Y-140822120D01*
X86382746Y-140822120D02*
X86436621Y-140822120D01*
X86436621Y-140822120D02*
X86517433Y-140849057D01*
X86517433Y-140849057D02*
X86598245Y-140929870D01*
X86598245Y-140929870D02*
X86625182Y-141010682D01*
X86625182Y-141010682D02*
X86625182Y-141064557D01*
X86625182Y-141064557D02*
X86598245Y-141145369D01*
X86598245Y-141145369D02*
X86382746Y-141360868D01*
X87514117Y-140768245D02*
X87190868Y-141091494D01*
X87352492Y-140929870D02*
X86786807Y-140364184D01*
X86786807Y-140364184D02*
X86813744Y-140498871D01*
X86813744Y-140498871D02*
X86813744Y-140606621D01*
X86813744Y-140606621D02*
X86786807Y-140687433D01*
X87217805Y-140040935D02*
X87217805Y-139987060D01*
X87217805Y-139987060D02*
X87244743Y-139906248D01*
X87244743Y-139906248D02*
X87379430Y-139771561D01*
X87379430Y-139771561D02*
X87460242Y-139744624D01*
X87460242Y-139744624D02*
X87514117Y-139744624D01*
X87514117Y-139744624D02*
X87594929Y-139771561D01*
X87594929Y-139771561D02*
X87648804Y-139825436D01*
X87648804Y-139825436D02*
X87702679Y-139933186D01*
X87702679Y-139933186D02*
X87702679Y-140579683D01*
X87702679Y-140579683D02*
X88052865Y-140229497D01*
X86413372Y-105521494D02*
X86332560Y-105548431D01*
X86332560Y-105548431D02*
X86251748Y-105629243D01*
X86251748Y-105629243D02*
X86197873Y-105736993D01*
X86197873Y-105736993D02*
X86197873Y-105844742D01*
X86197873Y-105844742D02*
X86224810Y-105925555D01*
X86224810Y-105925555D02*
X86305623Y-106060242D01*
X86305623Y-106060242D02*
X86386435Y-106141054D01*
X86386435Y-106141054D02*
X86521122Y-106221866D01*
X86521122Y-106221866D02*
X86601934Y-106248803D01*
X86601934Y-106248803D02*
X86709684Y-106248803D01*
X86709684Y-106248803D02*
X86817433Y-106194929D01*
X86817433Y-106194929D02*
X86871308Y-106141054D01*
X86871308Y-106141054D02*
X86925183Y-106033304D01*
X86925183Y-106033304D02*
X86925183Y-105979429D01*
X86925183Y-105979429D02*
X86736621Y-105790868D01*
X86736621Y-105790868D02*
X86628871Y-105898617D01*
X87221494Y-105790868D02*
X86655809Y-105225182D01*
X86655809Y-105225182D02*
X86871308Y-105009683D01*
X86871308Y-105009683D02*
X86952120Y-104982746D01*
X86952120Y-104982746D02*
X87005995Y-104982746D01*
X87005995Y-104982746D02*
X87086807Y-105009683D01*
X87086807Y-105009683D02*
X87167619Y-105090495D01*
X87167619Y-105090495D02*
X87194557Y-105171307D01*
X87194557Y-105171307D02*
X87194557Y-105225182D01*
X87194557Y-105225182D02*
X87167619Y-105305994D01*
X87167619Y-105305994D02*
X86952120Y-105521494D01*
X88083491Y-104928871D02*
X87760242Y-105252120D01*
X87921867Y-105090495D02*
X87356181Y-104524810D01*
X87356181Y-104524810D02*
X87383119Y-104659497D01*
X87383119Y-104659497D02*
X87383119Y-104767246D01*
X87383119Y-104767246D02*
X87356181Y-104848059D01*
X85989998Y-136280868D02*
X85909185Y-136307805D01*
X85909185Y-136307805D02*
X85828373Y-136388618D01*
X85828373Y-136388618D02*
X85774498Y-136496367D01*
X85774498Y-136496367D02*
X85774498Y-136604117D01*
X85774498Y-136604117D02*
X85801436Y-136684929D01*
X85801436Y-136684929D02*
X85882248Y-136819616D01*
X85882248Y-136819616D02*
X85963060Y-136900428D01*
X85963060Y-136900428D02*
X86097747Y-136981241D01*
X86097747Y-136981241D02*
X86178560Y-137008178D01*
X86178560Y-137008178D02*
X86286309Y-137008178D01*
X86286309Y-137008178D02*
X86394059Y-136954303D01*
X86394059Y-136954303D02*
X86447934Y-136900428D01*
X86447934Y-136900428D02*
X86501808Y-136792679D01*
X86501808Y-136792679D02*
X86501808Y-136738804D01*
X86501808Y-136738804D02*
X86313247Y-136550242D01*
X86313247Y-136550242D02*
X86205497Y-136657992D01*
X86798120Y-136550242D02*
X86232434Y-135984557D01*
X86232434Y-135984557D02*
X86447934Y-135769057D01*
X86447934Y-135769057D02*
X86528746Y-135742120D01*
X86528746Y-135742120D02*
X86582621Y-135742120D01*
X86582621Y-135742120D02*
X86663433Y-135769057D01*
X86663433Y-135769057D02*
X86744245Y-135849870D01*
X86744245Y-135849870D02*
X86771182Y-135930682D01*
X86771182Y-135930682D02*
X86771182Y-135984557D01*
X86771182Y-135984557D02*
X86744245Y-136065369D01*
X86744245Y-136065369D02*
X86528746Y-136280868D01*
X87660117Y-135688245D02*
X87336868Y-136011494D01*
X87498492Y-135849870D02*
X86932807Y-135284184D01*
X86932807Y-135284184D02*
X86959744Y-135418871D01*
X86959744Y-135418871D02*
X86959744Y-135526621D01*
X86959744Y-135526621D02*
X86932807Y-135607433D01*
X87444618Y-134772373D02*
X87498492Y-134718499D01*
X87498492Y-134718499D02*
X87579305Y-134691561D01*
X87579305Y-134691561D02*
X87633179Y-134691561D01*
X87633179Y-134691561D02*
X87713992Y-134718499D01*
X87713992Y-134718499D02*
X87848679Y-134799311D01*
X87848679Y-134799311D02*
X87983366Y-134933998D01*
X87983366Y-134933998D02*
X88064178Y-135068685D01*
X88064178Y-135068685D02*
X88091115Y-135149497D01*
X88091115Y-135149497D02*
X88091115Y-135203372D01*
X88091115Y-135203372D02*
X88064178Y-135284184D01*
X88064178Y-135284184D02*
X88010303Y-135338059D01*
X88010303Y-135338059D02*
X87929491Y-135364996D01*
X87929491Y-135364996D02*
X87875616Y-135364996D01*
X87875616Y-135364996D02*
X87794804Y-135338059D01*
X87794804Y-135338059D02*
X87660117Y-135257247D01*
X87660117Y-135257247D02*
X87525430Y-135122560D01*
X87525430Y-135122560D02*
X87444618Y-134987873D01*
X87444618Y-134987873D02*
X87417680Y-134907060D01*
X87417680Y-134907060D02*
X87417680Y-134853186D01*
X87417680Y-134853186D02*
X87444618Y-134772373D01*
X112838651Y-128943710D02*
X112380716Y-128862898D01*
X112515403Y-129266959D02*
X111949717Y-128701274D01*
X111949717Y-128701274D02*
X112165216Y-128485775D01*
X112165216Y-128485775D02*
X112246029Y-128458837D01*
X112246029Y-128458837D02*
X112299903Y-128458837D01*
X112299903Y-128458837D02*
X112380716Y-128485775D01*
X112380716Y-128485775D02*
X112461528Y-128566587D01*
X112461528Y-128566587D02*
X112488465Y-128647399D01*
X112488465Y-128647399D02*
X112488465Y-128701274D01*
X112488465Y-128701274D02*
X112461528Y-128782086D01*
X112461528Y-128782086D02*
X112246029Y-128997585D01*
X112515403Y-128135588D02*
X112973338Y-128593524D01*
X112973338Y-128593524D02*
X113054151Y-128620462D01*
X113054151Y-128620462D02*
X113108025Y-128620462D01*
X113108025Y-128620462D02*
X113188838Y-128593524D01*
X113188838Y-128593524D02*
X113296587Y-128485775D01*
X113296587Y-128485775D02*
X113323525Y-128404962D01*
X113323525Y-128404962D02*
X113323525Y-128351088D01*
X113323525Y-128351088D02*
X113296587Y-128270275D01*
X113296587Y-128270275D02*
X112838651Y-127812340D01*
X113673711Y-128108651D02*
X113108025Y-127542966D01*
X113108025Y-127542966D02*
X113996959Y-127785402D01*
X113996959Y-127785402D02*
X113431274Y-127219717D01*
X112097998Y-123590868D02*
X112017185Y-123617805D01*
X112017185Y-123617805D02*
X111936373Y-123698618D01*
X111936373Y-123698618D02*
X111882498Y-123806367D01*
X111882498Y-123806367D02*
X111882498Y-123914117D01*
X111882498Y-123914117D02*
X111909436Y-123994929D01*
X111909436Y-123994929D02*
X111990248Y-124129616D01*
X111990248Y-124129616D02*
X112071060Y-124210428D01*
X112071060Y-124210428D02*
X112205747Y-124291241D01*
X112205747Y-124291241D02*
X112286560Y-124318178D01*
X112286560Y-124318178D02*
X112394309Y-124318178D01*
X112394309Y-124318178D02*
X112502059Y-124264303D01*
X112502059Y-124264303D02*
X112555934Y-124210428D01*
X112555934Y-124210428D02*
X112609808Y-124102679D01*
X112609808Y-124102679D02*
X112609808Y-124048804D01*
X112609808Y-124048804D02*
X112421247Y-123860242D01*
X112421247Y-123860242D02*
X112313497Y-123967992D01*
X112906120Y-123860242D02*
X112340434Y-123294557D01*
X112340434Y-123294557D02*
X112555934Y-123079057D01*
X112555934Y-123079057D02*
X112636746Y-123052120D01*
X112636746Y-123052120D02*
X112690621Y-123052120D01*
X112690621Y-123052120D02*
X112771433Y-123079057D01*
X112771433Y-123079057D02*
X112852245Y-123159870D01*
X112852245Y-123159870D02*
X112879182Y-123240682D01*
X112879182Y-123240682D02*
X112879182Y-123294557D01*
X112879182Y-123294557D02*
X112852245Y-123375369D01*
X112852245Y-123375369D02*
X112636746Y-123590868D01*
X112933057Y-122809683D02*
X112933057Y-122755809D01*
X112933057Y-122755809D02*
X112959995Y-122674996D01*
X112959995Y-122674996D02*
X113094682Y-122540309D01*
X113094682Y-122540309D02*
X113175494Y-122513372D01*
X113175494Y-122513372D02*
X113229369Y-122513372D01*
X113229369Y-122513372D02*
X113310181Y-122540309D01*
X113310181Y-122540309D02*
X113364056Y-122594184D01*
X113364056Y-122594184D02*
X113417930Y-122701934D01*
X113417930Y-122701934D02*
X113417930Y-123348431D01*
X113417930Y-123348431D02*
X113768117Y-122998245D01*
X113390993Y-122243998D02*
X113768117Y-121866874D01*
X113768117Y-121866874D02*
X114091366Y-122674996D01*
D10*
X111238095Y-54667419D02*
X111238095Y-55476942D01*
X111238095Y-55476942D02*
X111285714Y-55572180D01*
X111285714Y-55572180D02*
X111333333Y-55619800D01*
X111333333Y-55619800D02*
X111428571Y-55667419D01*
X111428571Y-55667419D02*
X111619047Y-55667419D01*
X111619047Y-55667419D02*
X111714285Y-55619800D01*
X111714285Y-55619800D02*
X111761904Y-55572180D01*
X111761904Y-55572180D02*
X111809523Y-55476942D01*
X111809523Y-55476942D02*
X111809523Y-54667419D01*
X112761904Y-54667419D02*
X112285714Y-54667419D01*
X112285714Y-54667419D02*
X112238095Y-55143609D01*
X112238095Y-55143609D02*
X112285714Y-55095990D01*
X112285714Y-55095990D02*
X112380952Y-55048371D01*
X112380952Y-55048371D02*
X112619047Y-55048371D01*
X112619047Y-55048371D02*
X112714285Y-55095990D01*
X112714285Y-55095990D02*
X112761904Y-55143609D01*
X112761904Y-55143609D02*
X112809523Y-55238847D01*
X112809523Y-55238847D02*
X112809523Y-55476942D01*
X112809523Y-55476942D02*
X112761904Y-55572180D01*
X112761904Y-55572180D02*
X112714285Y-55619800D01*
X112714285Y-55619800D02*
X112619047Y-55667419D01*
X112619047Y-55667419D02*
X112380952Y-55667419D01*
X112380952Y-55667419D02*
X112285714Y-55619800D01*
X112285714Y-55619800D02*
X112238095Y-55572180D01*
X106758533Y-58803884D02*
X106758533Y-59565789D01*
X106377580Y-59184836D02*
X107139485Y-59184836D01*
X106377580Y-60041979D02*
X107044247Y-60041979D01*
X107377580Y-60041979D02*
X107329961Y-59994360D01*
X107329961Y-59994360D02*
X107282342Y-60041979D01*
X107282342Y-60041979D02*
X107329961Y-60089598D01*
X107329961Y-60089598D02*
X107377580Y-60041979D01*
X107377580Y-60041979D02*
X107282342Y-60041979D01*
X107044247Y-60518169D02*
X106377580Y-60518169D01*
X106949009Y-60518169D02*
X106996628Y-60565788D01*
X106996628Y-60565788D02*
X107044247Y-60661026D01*
X107044247Y-60661026D02*
X107044247Y-60803883D01*
X107044247Y-60803883D02*
X106996628Y-60899121D01*
X106996628Y-60899121D02*
X106901390Y-60946740D01*
X106901390Y-60946740D02*
X106377580Y-60946740D01*
X118258533Y-58303884D02*
X118258533Y-59065789D01*
X117877580Y-59541979D02*
X118544247Y-59541979D01*
X118877580Y-59541979D02*
X118829961Y-59494360D01*
X118829961Y-59494360D02*
X118782342Y-59541979D01*
X118782342Y-59541979D02*
X118829961Y-59589598D01*
X118829961Y-59589598D02*
X118877580Y-59541979D01*
X118877580Y-59541979D02*
X118782342Y-59541979D01*
X118544247Y-60018169D02*
X117877580Y-60018169D01*
X118449009Y-60018169D02*
X118496628Y-60065788D01*
X118496628Y-60065788D02*
X118544247Y-60161026D01*
X118544247Y-60161026D02*
X118544247Y-60303883D01*
X118544247Y-60303883D02*
X118496628Y-60399121D01*
X118496628Y-60399121D02*
X118401390Y-60446740D01*
X118401390Y-60446740D02*
X117877580Y-60446740D01*
X118258533Y-95553884D02*
X118258533Y-96315789D01*
X117877580Y-96934836D02*
X117925200Y-96839598D01*
X117925200Y-96839598D02*
X117972819Y-96791979D01*
X117972819Y-96791979D02*
X118068057Y-96744360D01*
X118068057Y-96744360D02*
X118353771Y-96744360D01*
X118353771Y-96744360D02*
X118449009Y-96791979D01*
X118449009Y-96791979D02*
X118496628Y-96839598D01*
X118496628Y-96839598D02*
X118544247Y-96934836D01*
X118544247Y-96934836D02*
X118544247Y-97077693D01*
X118544247Y-97077693D02*
X118496628Y-97172931D01*
X118496628Y-97172931D02*
X118449009Y-97220550D01*
X118449009Y-97220550D02*
X118353771Y-97268169D01*
X118353771Y-97268169D02*
X118068057Y-97268169D01*
X118068057Y-97268169D02*
X117972819Y-97220550D01*
X117972819Y-97220550D02*
X117925200Y-97172931D01*
X117925200Y-97172931D02*
X117877580Y-97077693D01*
X117877580Y-97077693D02*
X117877580Y-96934836D01*
X118544247Y-98125312D02*
X117877580Y-98125312D01*
X118544247Y-97696741D02*
X118020438Y-97696741D01*
X118020438Y-97696741D02*
X117925200Y-97744360D01*
X117925200Y-97744360D02*
X117877580Y-97839598D01*
X117877580Y-97839598D02*
X117877580Y-97982455D01*
X117877580Y-97982455D02*
X117925200Y-98077693D01*
X117925200Y-98077693D02*
X117972819Y-98125312D01*
X118544247Y-98458646D02*
X118544247Y-98839598D01*
X118877580Y-98601503D02*
X118020438Y-98601503D01*
X118020438Y-98601503D02*
X117925200Y-98649122D01*
X117925200Y-98649122D02*
X117877580Y-98744360D01*
X117877580Y-98744360D02*
X117877580Y-98839598D01*
X106508533Y-95303884D02*
X106508533Y-96065789D01*
X106127580Y-95684836D02*
X106889485Y-95684836D01*
X106127580Y-96684836D02*
X106175200Y-96589598D01*
X106175200Y-96589598D02*
X106222819Y-96541979D01*
X106222819Y-96541979D02*
X106318057Y-96494360D01*
X106318057Y-96494360D02*
X106603771Y-96494360D01*
X106603771Y-96494360D02*
X106699009Y-96541979D01*
X106699009Y-96541979D02*
X106746628Y-96589598D01*
X106746628Y-96589598D02*
X106794247Y-96684836D01*
X106794247Y-96684836D02*
X106794247Y-96827693D01*
X106794247Y-96827693D02*
X106746628Y-96922931D01*
X106746628Y-96922931D02*
X106699009Y-96970550D01*
X106699009Y-96970550D02*
X106603771Y-97018169D01*
X106603771Y-97018169D02*
X106318057Y-97018169D01*
X106318057Y-97018169D02*
X106222819Y-96970550D01*
X106222819Y-96970550D02*
X106175200Y-96922931D01*
X106175200Y-96922931D02*
X106127580Y-96827693D01*
X106127580Y-96827693D02*
X106127580Y-96684836D01*
X106794247Y-97875312D02*
X106127580Y-97875312D01*
X106794247Y-97446741D02*
X106270438Y-97446741D01*
X106270438Y-97446741D02*
X106175200Y-97494360D01*
X106175200Y-97494360D02*
X106127580Y-97589598D01*
X106127580Y-97589598D02*
X106127580Y-97732455D01*
X106127580Y-97732455D02*
X106175200Y-97827693D01*
X106175200Y-97827693D02*
X106222819Y-97875312D01*
X106794247Y-98208646D02*
X106794247Y-98589598D01*
X107127580Y-98351503D02*
X106270438Y-98351503D01*
X106270438Y-98351503D02*
X106175200Y-98399122D01*
X106175200Y-98399122D02*
X106127580Y-98494360D01*
X106127580Y-98494360D02*
X106127580Y-98589598D01*
X88238095Y-54457419D02*
X88238095Y-55266942D01*
X88238095Y-55266942D02*
X88285714Y-55362180D01*
X88285714Y-55362180D02*
X88333333Y-55409800D01*
X88333333Y-55409800D02*
X88428571Y-55457419D01*
X88428571Y-55457419D02*
X88619047Y-55457419D01*
X88619047Y-55457419D02*
X88714285Y-55409800D01*
X88714285Y-55409800D02*
X88761904Y-55362180D01*
X88761904Y-55362180D02*
X88809523Y-55266942D01*
X88809523Y-55266942D02*
X88809523Y-54457419D01*
X89238095Y-54552657D02*
X89285714Y-54505038D01*
X89285714Y-54505038D02*
X89380952Y-54457419D01*
X89380952Y-54457419D02*
X89619047Y-54457419D01*
X89619047Y-54457419D02*
X89714285Y-54505038D01*
X89714285Y-54505038D02*
X89761904Y-54552657D01*
X89761904Y-54552657D02*
X89809523Y-54647895D01*
X89809523Y-54647895D02*
X89809523Y-54743133D01*
X89809523Y-54743133D02*
X89761904Y-54885990D01*
X89761904Y-54885990D02*
X89190476Y-55457419D01*
X89190476Y-55457419D02*
X89809523Y-55457419D01*
X83008533Y-58803884D02*
X83008533Y-59565789D01*
X82627580Y-59184836D02*
X83389485Y-59184836D01*
X82627580Y-60041979D02*
X83294247Y-60041979D01*
X83627580Y-60041979D02*
X83579961Y-59994360D01*
X83579961Y-59994360D02*
X83532342Y-60041979D01*
X83532342Y-60041979D02*
X83579961Y-60089598D01*
X83579961Y-60089598D02*
X83627580Y-60041979D01*
X83627580Y-60041979D02*
X83532342Y-60041979D01*
X83294247Y-60518169D02*
X82627580Y-60518169D01*
X83199009Y-60518169D02*
X83246628Y-60565788D01*
X83246628Y-60565788D02*
X83294247Y-60661026D01*
X83294247Y-60661026D02*
X83294247Y-60803883D01*
X83294247Y-60803883D02*
X83246628Y-60899121D01*
X83246628Y-60899121D02*
X83151390Y-60946740D01*
X83151390Y-60946740D02*
X82627580Y-60946740D01*
X94758533Y-58803884D02*
X94758533Y-59565789D01*
X94377580Y-60041979D02*
X95044247Y-60041979D01*
X95377580Y-60041979D02*
X95329961Y-59994360D01*
X95329961Y-59994360D02*
X95282342Y-60041979D01*
X95282342Y-60041979D02*
X95329961Y-60089598D01*
X95329961Y-60089598D02*
X95377580Y-60041979D01*
X95377580Y-60041979D02*
X95282342Y-60041979D01*
X95044247Y-60518169D02*
X94377580Y-60518169D01*
X94949009Y-60518169D02*
X94996628Y-60565788D01*
X94996628Y-60565788D02*
X95044247Y-60661026D01*
X95044247Y-60661026D02*
X95044247Y-60803883D01*
X95044247Y-60803883D02*
X94996628Y-60899121D01*
X94996628Y-60899121D02*
X94901390Y-60946740D01*
X94901390Y-60946740D02*
X94377580Y-60946740D01*
X94758533Y-95803884D02*
X94758533Y-96565789D01*
X94377580Y-97184836D02*
X94425200Y-97089598D01*
X94425200Y-97089598D02*
X94472819Y-97041979D01*
X94472819Y-97041979D02*
X94568057Y-96994360D01*
X94568057Y-96994360D02*
X94853771Y-96994360D01*
X94853771Y-96994360D02*
X94949009Y-97041979D01*
X94949009Y-97041979D02*
X94996628Y-97089598D01*
X94996628Y-97089598D02*
X95044247Y-97184836D01*
X95044247Y-97184836D02*
X95044247Y-97327693D01*
X95044247Y-97327693D02*
X94996628Y-97422931D01*
X94996628Y-97422931D02*
X94949009Y-97470550D01*
X94949009Y-97470550D02*
X94853771Y-97518169D01*
X94853771Y-97518169D02*
X94568057Y-97518169D01*
X94568057Y-97518169D02*
X94472819Y-97470550D01*
X94472819Y-97470550D02*
X94425200Y-97422931D01*
X94425200Y-97422931D02*
X94377580Y-97327693D01*
X94377580Y-97327693D02*
X94377580Y-97184836D01*
X95044247Y-98375312D02*
X94377580Y-98375312D01*
X95044247Y-97946741D02*
X94520438Y-97946741D01*
X94520438Y-97946741D02*
X94425200Y-97994360D01*
X94425200Y-97994360D02*
X94377580Y-98089598D01*
X94377580Y-98089598D02*
X94377580Y-98232455D01*
X94377580Y-98232455D02*
X94425200Y-98327693D01*
X94425200Y-98327693D02*
X94472819Y-98375312D01*
X95044247Y-98708646D02*
X95044247Y-99089598D01*
X95377580Y-98851503D02*
X94520438Y-98851503D01*
X94520438Y-98851503D02*
X94425200Y-98899122D01*
X94425200Y-98899122D02*
X94377580Y-98994360D01*
X94377580Y-98994360D02*
X94377580Y-99089598D01*
X83258533Y-95553884D02*
X83258533Y-96315789D01*
X82877580Y-95934836D02*
X83639485Y-95934836D01*
X82877580Y-96934836D02*
X82925200Y-96839598D01*
X82925200Y-96839598D02*
X82972819Y-96791979D01*
X82972819Y-96791979D02*
X83068057Y-96744360D01*
X83068057Y-96744360D02*
X83353771Y-96744360D01*
X83353771Y-96744360D02*
X83449009Y-96791979D01*
X83449009Y-96791979D02*
X83496628Y-96839598D01*
X83496628Y-96839598D02*
X83544247Y-96934836D01*
X83544247Y-96934836D02*
X83544247Y-97077693D01*
X83544247Y-97077693D02*
X83496628Y-97172931D01*
X83496628Y-97172931D02*
X83449009Y-97220550D01*
X83449009Y-97220550D02*
X83353771Y-97268169D01*
X83353771Y-97268169D02*
X83068057Y-97268169D01*
X83068057Y-97268169D02*
X82972819Y-97220550D01*
X82972819Y-97220550D02*
X82925200Y-97172931D01*
X82925200Y-97172931D02*
X82877580Y-97077693D01*
X82877580Y-97077693D02*
X82877580Y-96934836D01*
X83544247Y-98125312D02*
X82877580Y-98125312D01*
X83544247Y-97696741D02*
X83020438Y-97696741D01*
X83020438Y-97696741D02*
X82925200Y-97744360D01*
X82925200Y-97744360D02*
X82877580Y-97839598D01*
X82877580Y-97839598D02*
X82877580Y-97982455D01*
X82877580Y-97982455D02*
X82925200Y-98077693D01*
X82925200Y-98077693D02*
X82972819Y-98125312D01*
X83544247Y-98458646D02*
X83544247Y-98839598D01*
X83877580Y-98601503D02*
X83020438Y-98601503D01*
X83020438Y-98601503D02*
X82925200Y-98649122D01*
X82925200Y-98649122D02*
X82877580Y-98744360D01*
X82877580Y-98744360D02*
X82877580Y-98839598D01*
D11*
X115190476Y-129704819D02*
X115190476Y-130419104D01*
X115190476Y-130419104D02*
X115142857Y-130561961D01*
X115142857Y-130561961D02*
X115047619Y-130657200D01*
X115047619Y-130657200D02*
X114904762Y-130704819D01*
X114904762Y-130704819D02*
X114809524Y-130704819D01*
X116190476Y-130704819D02*
X115619048Y-130704819D01*
X115904762Y-130704819D02*
X115904762Y-129704819D01*
X115904762Y-129704819D02*
X115809524Y-129847676D01*
X115809524Y-129847676D02*
X115714286Y-129942914D01*
X115714286Y-129942914D02*
X115619048Y-129990533D01*
X117047619Y-129704819D02*
X116857143Y-129704819D01*
X116857143Y-129704819D02*
X116761905Y-129752438D01*
X116761905Y-129752438D02*
X116714286Y-129800057D01*
X116714286Y-129800057D02*
X116619048Y-129942914D01*
X116619048Y-129942914D02*
X116571429Y-130133390D01*
X116571429Y-130133390D02*
X116571429Y-130514342D01*
X116571429Y-130514342D02*
X116619048Y-130609580D01*
X116619048Y-130609580D02*
X116666667Y-130657200D01*
X116666667Y-130657200D02*
X116761905Y-130704819D01*
X116761905Y-130704819D02*
X116952381Y-130704819D01*
X116952381Y-130704819D02*
X117047619Y-130657200D01*
X117047619Y-130657200D02*
X117095238Y-130609580D01*
X117095238Y-130609580D02*
X117142857Y-130514342D01*
X117142857Y-130514342D02*
X117142857Y-130276247D01*
X117142857Y-130276247D02*
X117095238Y-130181009D01*
X117095238Y-130181009D02*
X117047619Y-130133390D01*
X117047619Y-130133390D02*
X116952381Y-130085771D01*
X116952381Y-130085771D02*
X116761905Y-130085771D01*
X116761905Y-130085771D02*
X116666667Y-130133390D01*
X116666667Y-130133390D02*
X116619048Y-130181009D01*
X116619048Y-130181009D02*
X116571429Y-130276247D01*
X115190476Y-137704819D02*
X115190476Y-138419104D01*
X115190476Y-138419104D02*
X115142857Y-138561961D01*
X115142857Y-138561961D02*
X115047619Y-138657200D01*
X115047619Y-138657200D02*
X114904762Y-138704819D01*
X114904762Y-138704819D02*
X114809524Y-138704819D01*
X116190476Y-138704819D02*
X115619048Y-138704819D01*
X115904762Y-138704819D02*
X115904762Y-137704819D01*
X115904762Y-137704819D02*
X115809524Y-137847676D01*
X115809524Y-137847676D02*
X115714286Y-137942914D01*
X115714286Y-137942914D02*
X115619048Y-137990533D01*
X116761905Y-138133390D02*
X116666667Y-138085771D01*
X116666667Y-138085771D02*
X116619048Y-138038152D01*
X116619048Y-138038152D02*
X116571429Y-137942914D01*
X116571429Y-137942914D02*
X116571429Y-137895295D01*
X116571429Y-137895295D02*
X116619048Y-137800057D01*
X116619048Y-137800057D02*
X116666667Y-137752438D01*
X116666667Y-137752438D02*
X116761905Y-137704819D01*
X116761905Y-137704819D02*
X116952381Y-137704819D01*
X116952381Y-137704819D02*
X117047619Y-137752438D01*
X117047619Y-137752438D02*
X117095238Y-137800057D01*
X117095238Y-137800057D02*
X117142857Y-137895295D01*
X117142857Y-137895295D02*
X117142857Y-137942914D01*
X117142857Y-137942914D02*
X117095238Y-138038152D01*
X117095238Y-138038152D02*
X117047619Y-138085771D01*
X117047619Y-138085771D02*
X116952381Y-138133390D01*
X116952381Y-138133390D02*
X116761905Y-138133390D01*
X116761905Y-138133390D02*
X116666667Y-138181009D01*
X116666667Y-138181009D02*
X116619048Y-138228628D01*
X116619048Y-138228628D02*
X116571429Y-138323866D01*
X116571429Y-138323866D02*
X116571429Y-138514342D01*
X116571429Y-138514342D02*
X116619048Y-138609580D01*
X116619048Y-138609580D02*
X116666667Y-138657200D01*
X116666667Y-138657200D02*
X116761905Y-138704819D01*
X116761905Y-138704819D02*
X116952381Y-138704819D01*
X116952381Y-138704819D02*
X117047619Y-138657200D01*
X117047619Y-138657200D02*
X117095238Y-138609580D01*
X117095238Y-138609580D02*
X117142857Y-138514342D01*
X117142857Y-138514342D02*
X117142857Y-138323866D01*
X117142857Y-138323866D02*
X117095238Y-138228628D01*
X117095238Y-138228628D02*
X117047619Y-138181009D01*
X117047619Y-138181009D02*
X116952381Y-138133390D01*
X99261905Y-122954819D02*
X99261905Y-121954819D01*
X99261905Y-121954819D02*
X99500000Y-121954819D01*
X99500000Y-121954819D02*
X99642857Y-122002438D01*
X99642857Y-122002438D02*
X99738095Y-122097676D01*
X99738095Y-122097676D02*
X99785714Y-122192914D01*
X99785714Y-122192914D02*
X99833333Y-122383390D01*
X99833333Y-122383390D02*
X99833333Y-122526247D01*
X99833333Y-122526247D02*
X99785714Y-122716723D01*
X99785714Y-122716723D02*
X99738095Y-122811961D01*
X99738095Y-122811961D02*
X99642857Y-122907200D01*
X99642857Y-122907200D02*
X99500000Y-122954819D01*
X99500000Y-122954819D02*
X99261905Y-122954819D01*
X100785714Y-122954819D02*
X100214286Y-122954819D01*
X100500000Y-122954819D02*
X100500000Y-121954819D01*
X100500000Y-121954819D02*
X100404762Y-122097676D01*
X100404762Y-122097676D02*
X100309524Y-122192914D01*
X100309524Y-122192914D02*
X100214286Y-122240533D01*
X104818095Y-127204819D02*
X104818095Y-126204819D01*
X105389523Y-127204819D02*
X104960952Y-126633390D01*
X105389523Y-126204819D02*
X104818095Y-126776247D01*
X115190476Y-100704819D02*
X115190476Y-101419104D01*
X115190476Y-101419104D02*
X115142857Y-101561961D01*
X115142857Y-101561961D02*
X115047619Y-101657200D01*
X115047619Y-101657200D02*
X114904762Y-101704819D01*
X114904762Y-101704819D02*
X114809524Y-101704819D01*
X116190476Y-101704819D02*
X115619048Y-101704819D01*
X115904762Y-101704819D02*
X115904762Y-100704819D01*
X115904762Y-100704819D02*
X115809524Y-100847676D01*
X115809524Y-100847676D02*
X115714286Y-100942914D01*
X115714286Y-100942914D02*
X115619048Y-100990533D01*
X116809524Y-100704819D02*
X116904762Y-100704819D01*
X116904762Y-100704819D02*
X117000000Y-100752438D01*
X117000000Y-100752438D02*
X117047619Y-100800057D01*
X117047619Y-100800057D02*
X117095238Y-100895295D01*
X117095238Y-100895295D02*
X117142857Y-101085771D01*
X117142857Y-101085771D02*
X117142857Y-101323866D01*
X117142857Y-101323866D02*
X117095238Y-101514342D01*
X117095238Y-101514342D02*
X117047619Y-101609580D01*
X117047619Y-101609580D02*
X117000000Y-101657200D01*
X117000000Y-101657200D02*
X116904762Y-101704819D01*
X116904762Y-101704819D02*
X116809524Y-101704819D01*
X116809524Y-101704819D02*
X116714286Y-101657200D01*
X116714286Y-101657200D02*
X116666667Y-101609580D01*
X116666667Y-101609580D02*
X116619048Y-101514342D01*
X116619048Y-101514342D02*
X116571429Y-101323866D01*
X116571429Y-101323866D02*
X116571429Y-101085771D01*
X116571429Y-101085771D02*
X116619048Y-100895295D01*
X116619048Y-100895295D02*
X116666667Y-100800057D01*
X116666667Y-100800057D02*
X116714286Y-100752438D01*
X116714286Y-100752438D02*
X116809524Y-100704819D01*
X84916666Y-108454819D02*
X84916666Y-109169104D01*
X84916666Y-109169104D02*
X84869047Y-109311961D01*
X84869047Y-109311961D02*
X84773809Y-109407200D01*
X84773809Y-109407200D02*
X84630952Y-109454819D01*
X84630952Y-109454819D02*
X84535714Y-109454819D01*
X85297619Y-108454819D02*
X85916666Y-108454819D01*
X85916666Y-108454819D02*
X85583333Y-108835771D01*
X85583333Y-108835771D02*
X85726190Y-108835771D01*
X85726190Y-108835771D02*
X85821428Y-108883390D01*
X85821428Y-108883390D02*
X85869047Y-108931009D01*
X85869047Y-108931009D02*
X85916666Y-109026247D01*
X85916666Y-109026247D02*
X85916666Y-109264342D01*
X85916666Y-109264342D02*
X85869047Y-109359580D01*
X85869047Y-109359580D02*
X85821428Y-109407200D01*
X85821428Y-109407200D02*
X85726190Y-109454819D01*
X85726190Y-109454819D02*
X85440476Y-109454819D01*
X85440476Y-109454819D02*
X85345238Y-109407200D01*
X85345238Y-109407200D02*
X85297619Y-109359580D01*
X115190476Y-115454819D02*
X115190476Y-116169104D01*
X115190476Y-116169104D02*
X115142857Y-116311961D01*
X115142857Y-116311961D02*
X115047619Y-116407200D01*
X115047619Y-116407200D02*
X114904762Y-116454819D01*
X114904762Y-116454819D02*
X114809524Y-116454819D01*
X116190476Y-116454819D02*
X115619048Y-116454819D01*
X115904762Y-116454819D02*
X115904762Y-115454819D01*
X115904762Y-115454819D02*
X115809524Y-115597676D01*
X115809524Y-115597676D02*
X115714286Y-115692914D01*
X115714286Y-115692914D02*
X115619048Y-115740533D01*
X116523810Y-115454819D02*
X117142857Y-115454819D01*
X117142857Y-115454819D02*
X116809524Y-115835771D01*
X116809524Y-115835771D02*
X116952381Y-115835771D01*
X116952381Y-115835771D02*
X117047619Y-115883390D01*
X117047619Y-115883390D02*
X117095238Y-115931009D01*
X117095238Y-115931009D02*
X117142857Y-116026247D01*
X117142857Y-116026247D02*
X117142857Y-116264342D01*
X117142857Y-116264342D02*
X117095238Y-116359580D01*
X117095238Y-116359580D02*
X117047619Y-116407200D01*
X117047619Y-116407200D02*
X116952381Y-116454819D01*
X116952381Y-116454819D02*
X116666667Y-116454819D01*
X116666667Y-116454819D02*
X116571429Y-116407200D01*
X116571429Y-116407200D02*
X116523810Y-116359580D01*
X85666666Y-100704819D02*
X85666666Y-101419104D01*
X85666666Y-101419104D02*
X85619047Y-101561961D01*
X85619047Y-101561961D02*
X85523809Y-101657200D01*
X85523809Y-101657200D02*
X85380952Y-101704819D01*
X85380952Y-101704819D02*
X85285714Y-101704819D01*
X86666666Y-101704819D02*
X86095238Y-101704819D01*
X86380952Y-101704819D02*
X86380952Y-100704819D01*
X86380952Y-100704819D02*
X86285714Y-100847676D01*
X86285714Y-100847676D02*
X86190476Y-100942914D01*
X86190476Y-100942914D02*
X86095238Y-100990533D01*
X114940476Y-104704819D02*
X114940476Y-105419104D01*
X114940476Y-105419104D02*
X114892857Y-105561961D01*
X114892857Y-105561961D02*
X114797619Y-105657200D01*
X114797619Y-105657200D02*
X114654762Y-105704819D01*
X114654762Y-105704819D02*
X114559524Y-105704819D01*
X115940476Y-105704819D02*
X115369048Y-105704819D01*
X115654762Y-105704819D02*
X115654762Y-104704819D01*
X115654762Y-104704819D02*
X115559524Y-104847676D01*
X115559524Y-104847676D02*
X115464286Y-104942914D01*
X115464286Y-104942914D02*
X115369048Y-104990533D01*
X116892857Y-105704819D02*
X116321429Y-105704819D01*
X116607143Y-105704819D02*
X116607143Y-104704819D01*
X116607143Y-104704819D02*
X116511905Y-104847676D01*
X116511905Y-104847676D02*
X116416667Y-104942914D01*
X116416667Y-104942914D02*
X116321429Y-104990533D01*
X84916666Y-114954819D02*
X84916666Y-115669104D01*
X84916666Y-115669104D02*
X84869047Y-115811961D01*
X84869047Y-115811961D02*
X84773809Y-115907200D01*
X84773809Y-115907200D02*
X84630952Y-115954819D01*
X84630952Y-115954819D02*
X84535714Y-115954819D01*
X85821428Y-115288152D02*
X85821428Y-115954819D01*
X85583333Y-114907200D02*
X85345238Y-115621485D01*
X85345238Y-115621485D02*
X85964285Y-115621485D01*
D10*
X99238095Y-103707419D02*
X99238095Y-104516942D01*
X99238095Y-104516942D02*
X99285714Y-104612180D01*
X99285714Y-104612180D02*
X99333333Y-104659800D01*
X99333333Y-104659800D02*
X99428571Y-104707419D01*
X99428571Y-104707419D02*
X99619047Y-104707419D01*
X99619047Y-104707419D02*
X99714285Y-104659800D01*
X99714285Y-104659800D02*
X99761904Y-104612180D01*
X99761904Y-104612180D02*
X99809523Y-104516942D01*
X99809523Y-104516942D02*
X99809523Y-103707419D01*
X100428571Y-104135990D02*
X100333333Y-104088371D01*
X100333333Y-104088371D02*
X100285714Y-104040752D01*
X100285714Y-104040752D02*
X100238095Y-103945514D01*
X100238095Y-103945514D02*
X100238095Y-103897895D01*
X100238095Y-103897895D02*
X100285714Y-103802657D01*
X100285714Y-103802657D02*
X100333333Y-103755038D01*
X100333333Y-103755038D02*
X100428571Y-103707419D01*
X100428571Y-103707419D02*
X100619047Y-103707419D01*
X100619047Y-103707419D02*
X100714285Y-103755038D01*
X100714285Y-103755038D02*
X100761904Y-103802657D01*
X100761904Y-103802657D02*
X100809523Y-103897895D01*
X100809523Y-103897895D02*
X100809523Y-103945514D01*
X100809523Y-103945514D02*
X100761904Y-104040752D01*
X100761904Y-104040752D02*
X100714285Y-104088371D01*
X100714285Y-104088371D02*
X100619047Y-104135990D01*
X100619047Y-104135990D02*
X100428571Y-104135990D01*
X100428571Y-104135990D02*
X100333333Y-104183609D01*
X100333333Y-104183609D02*
X100285714Y-104231228D01*
X100285714Y-104231228D02*
X100238095Y-104326466D01*
X100238095Y-104326466D02*
X100238095Y-104516942D01*
X100238095Y-104516942D02*
X100285714Y-104612180D01*
X100285714Y-104612180D02*
X100333333Y-104659800D01*
X100333333Y-104659800D02*
X100428571Y-104707419D01*
X100428571Y-104707419D02*
X100619047Y-104707419D01*
X100619047Y-104707419D02*
X100714285Y-104659800D01*
X100714285Y-104659800D02*
X100761904Y-104612180D01*
X100761904Y-104612180D02*
X100809523Y-104516942D01*
X100809523Y-104516942D02*
X100809523Y-104326466D01*
X100809523Y-104326466D02*
X100761904Y-104231228D01*
X100761904Y-104231228D02*
X100714285Y-104183609D01*
X100714285Y-104183609D02*
X100619047Y-104135990D01*
X94053884Y-121991466D02*
X94815789Y-121991466D01*
X94434836Y-122372419D02*
X94434836Y-121610514D01*
X95434836Y-122372419D02*
X95339598Y-122324800D01*
X95339598Y-122324800D02*
X95291979Y-122277180D01*
X95291979Y-122277180D02*
X95244360Y-122181942D01*
X95244360Y-122181942D02*
X95244360Y-121896228D01*
X95244360Y-121896228D02*
X95291979Y-121800990D01*
X95291979Y-121800990D02*
X95339598Y-121753371D01*
X95339598Y-121753371D02*
X95434836Y-121705752D01*
X95434836Y-121705752D02*
X95577693Y-121705752D01*
X95577693Y-121705752D02*
X95672931Y-121753371D01*
X95672931Y-121753371D02*
X95720550Y-121800990D01*
X95720550Y-121800990D02*
X95768169Y-121896228D01*
X95768169Y-121896228D02*
X95768169Y-122181942D01*
X95768169Y-122181942D02*
X95720550Y-122277180D01*
X95720550Y-122277180D02*
X95672931Y-122324800D01*
X95672931Y-122324800D02*
X95577693Y-122372419D01*
X95577693Y-122372419D02*
X95434836Y-122372419D01*
X96625312Y-121705752D02*
X96625312Y-122372419D01*
X96196741Y-121705752D02*
X96196741Y-122229561D01*
X96196741Y-122229561D02*
X96244360Y-122324800D01*
X96244360Y-122324800D02*
X96339598Y-122372419D01*
X96339598Y-122372419D02*
X96482455Y-122372419D01*
X96482455Y-122372419D02*
X96577693Y-122324800D01*
X96577693Y-122324800D02*
X96625312Y-122277180D01*
X96958646Y-121705752D02*
X97339598Y-121705752D01*
X97101503Y-121372419D02*
X97101503Y-122229561D01*
X97101503Y-122229561D02*
X97149122Y-122324800D01*
X97149122Y-122324800D02*
X97244360Y-122372419D01*
X97244360Y-122372419D02*
X97339598Y-122372419D01*
X102303884Y-121991466D02*
X103065789Y-121991466D01*
X103684836Y-122372419D02*
X103589598Y-122324800D01*
X103589598Y-122324800D02*
X103541979Y-122277180D01*
X103541979Y-122277180D02*
X103494360Y-122181942D01*
X103494360Y-122181942D02*
X103494360Y-121896228D01*
X103494360Y-121896228D02*
X103541979Y-121800990D01*
X103541979Y-121800990D02*
X103589598Y-121753371D01*
X103589598Y-121753371D02*
X103684836Y-121705752D01*
X103684836Y-121705752D02*
X103827693Y-121705752D01*
X103827693Y-121705752D02*
X103922931Y-121753371D01*
X103922931Y-121753371D02*
X103970550Y-121800990D01*
X103970550Y-121800990D02*
X104018169Y-121896228D01*
X104018169Y-121896228D02*
X104018169Y-122181942D01*
X104018169Y-122181942D02*
X103970550Y-122277180D01*
X103970550Y-122277180D02*
X103922931Y-122324800D01*
X103922931Y-122324800D02*
X103827693Y-122372419D01*
X103827693Y-122372419D02*
X103684836Y-122372419D01*
X104875312Y-121705752D02*
X104875312Y-122372419D01*
X104446741Y-121705752D02*
X104446741Y-122229561D01*
X104446741Y-122229561D02*
X104494360Y-122324800D01*
X104494360Y-122324800D02*
X104589598Y-122372419D01*
X104589598Y-122372419D02*
X104732455Y-122372419D01*
X104732455Y-122372419D02*
X104827693Y-122324800D01*
X104827693Y-122324800D02*
X104875312Y-122277180D01*
X105208646Y-121705752D02*
X105589598Y-121705752D01*
X105351503Y-121372419D02*
X105351503Y-122229561D01*
X105351503Y-122229561D02*
X105399122Y-122324800D01*
X105399122Y-122324800D02*
X105494360Y-122372419D01*
X105494360Y-122372419D02*
X105589598Y-122372419D01*
X94203884Y-102241466D02*
X94965789Y-102241466D01*
X94584836Y-102622419D02*
X94584836Y-101860514D01*
X95441979Y-102622419D02*
X95441979Y-101955752D01*
X95441979Y-101622419D02*
X95394360Y-101670038D01*
X95394360Y-101670038D02*
X95441979Y-101717657D01*
X95441979Y-101717657D02*
X95489598Y-101670038D01*
X95489598Y-101670038D02*
X95441979Y-101622419D01*
X95441979Y-101622419D02*
X95441979Y-101717657D01*
X95918169Y-101955752D02*
X95918169Y-102622419D01*
X95918169Y-102050990D02*
X95965788Y-102003371D01*
X95965788Y-102003371D02*
X96061026Y-101955752D01*
X96061026Y-101955752D02*
X96203883Y-101955752D01*
X96203883Y-101955752D02*
X96299121Y-102003371D01*
X96299121Y-102003371D02*
X96346740Y-102098609D01*
X96346740Y-102098609D02*
X96346740Y-102622419D01*
X103303884Y-102491466D02*
X104065789Y-102491466D01*
X104541979Y-102872419D02*
X104541979Y-102205752D01*
X104541979Y-101872419D02*
X104494360Y-101920038D01*
X104494360Y-101920038D02*
X104541979Y-101967657D01*
X104541979Y-101967657D02*
X104589598Y-101920038D01*
X104589598Y-101920038D02*
X104541979Y-101872419D01*
X104541979Y-101872419D02*
X104541979Y-101967657D01*
X105018169Y-102205752D02*
X105018169Y-102872419D01*
X105018169Y-102300990D02*
X105065788Y-102253371D01*
X105065788Y-102253371D02*
X105161026Y-102205752D01*
X105161026Y-102205752D02*
X105303883Y-102205752D01*
X105303883Y-102205752D02*
X105399121Y-102253371D01*
X105399121Y-102253371D02*
X105446740Y-102348609D01*
X105446740Y-102348609D02*
X105446740Y-102872419D01*
D11*
X84916666Y-122954819D02*
X84916666Y-123669104D01*
X84916666Y-123669104D02*
X84869047Y-123811961D01*
X84869047Y-123811961D02*
X84773809Y-123907200D01*
X84773809Y-123907200D02*
X84630952Y-123954819D01*
X84630952Y-123954819D02*
X84535714Y-123954819D01*
X85821428Y-122954819D02*
X85630952Y-122954819D01*
X85630952Y-122954819D02*
X85535714Y-123002438D01*
X85535714Y-123002438D02*
X85488095Y-123050057D01*
X85488095Y-123050057D02*
X85392857Y-123192914D01*
X85392857Y-123192914D02*
X85345238Y-123383390D01*
X85345238Y-123383390D02*
X85345238Y-123764342D01*
X85345238Y-123764342D02*
X85392857Y-123859580D01*
X85392857Y-123859580D02*
X85440476Y-123907200D01*
X85440476Y-123907200D02*
X85535714Y-123954819D01*
X85535714Y-123954819D02*
X85726190Y-123954819D01*
X85726190Y-123954819D02*
X85821428Y-123907200D01*
X85821428Y-123907200D02*
X85869047Y-123859580D01*
X85869047Y-123859580D02*
X85916666Y-123764342D01*
X85916666Y-123764342D02*
X85916666Y-123526247D01*
X85916666Y-123526247D02*
X85869047Y-123431009D01*
X85869047Y-123431009D02*
X85821428Y-123383390D01*
X85821428Y-123383390D02*
X85726190Y-123335771D01*
X85726190Y-123335771D02*
X85535714Y-123335771D01*
X85535714Y-123335771D02*
X85440476Y-123383390D01*
X85440476Y-123383390D02*
X85392857Y-123431009D01*
X85392857Y-123431009D02*
X85345238Y-123526247D01*
X84916666Y-137454819D02*
X84916666Y-138169104D01*
X84916666Y-138169104D02*
X84869047Y-138311961D01*
X84869047Y-138311961D02*
X84773809Y-138407200D01*
X84773809Y-138407200D02*
X84630952Y-138454819D01*
X84630952Y-138454819D02*
X84535714Y-138454819D01*
X85440476Y-138454819D02*
X85630952Y-138454819D01*
X85630952Y-138454819D02*
X85726190Y-138407200D01*
X85726190Y-138407200D02*
X85773809Y-138359580D01*
X85773809Y-138359580D02*
X85869047Y-138216723D01*
X85869047Y-138216723D02*
X85916666Y-138026247D01*
X85916666Y-138026247D02*
X85916666Y-137645295D01*
X85916666Y-137645295D02*
X85869047Y-137550057D01*
X85869047Y-137550057D02*
X85821428Y-137502438D01*
X85821428Y-137502438D02*
X85726190Y-137454819D01*
X85726190Y-137454819D02*
X85535714Y-137454819D01*
X85535714Y-137454819D02*
X85440476Y-137502438D01*
X85440476Y-137502438D02*
X85392857Y-137550057D01*
X85392857Y-137550057D02*
X85345238Y-137645295D01*
X85345238Y-137645295D02*
X85345238Y-137883390D01*
X85345238Y-137883390D02*
X85392857Y-137978628D01*
X85392857Y-137978628D02*
X85440476Y-138026247D01*
X85440476Y-138026247D02*
X85535714Y-138073866D01*
X85535714Y-138073866D02*
X85726190Y-138073866D01*
X85726190Y-138073866D02*
X85821428Y-138026247D01*
X85821428Y-138026247D02*
X85869047Y-137978628D01*
X85869047Y-137978628D02*
X85916666Y-137883390D01*
X84916666Y-133454819D02*
X84916666Y-134169104D01*
X84916666Y-134169104D02*
X84869047Y-134311961D01*
X84869047Y-134311961D02*
X84773809Y-134407200D01*
X84773809Y-134407200D02*
X84630952Y-134454819D01*
X84630952Y-134454819D02*
X84535714Y-134454819D01*
X85535714Y-133883390D02*
X85440476Y-133835771D01*
X85440476Y-133835771D02*
X85392857Y-133788152D01*
X85392857Y-133788152D02*
X85345238Y-133692914D01*
X85345238Y-133692914D02*
X85345238Y-133645295D01*
X85345238Y-133645295D02*
X85392857Y-133550057D01*
X85392857Y-133550057D02*
X85440476Y-133502438D01*
X85440476Y-133502438D02*
X85535714Y-133454819D01*
X85535714Y-133454819D02*
X85726190Y-133454819D01*
X85726190Y-133454819D02*
X85821428Y-133502438D01*
X85821428Y-133502438D02*
X85869047Y-133550057D01*
X85869047Y-133550057D02*
X85916666Y-133645295D01*
X85916666Y-133645295D02*
X85916666Y-133692914D01*
X85916666Y-133692914D02*
X85869047Y-133788152D01*
X85869047Y-133788152D02*
X85821428Y-133835771D01*
X85821428Y-133835771D02*
X85726190Y-133883390D01*
X85726190Y-133883390D02*
X85535714Y-133883390D01*
X85535714Y-133883390D02*
X85440476Y-133931009D01*
X85440476Y-133931009D02*
X85392857Y-133978628D01*
X85392857Y-133978628D02*
X85345238Y-134073866D01*
X85345238Y-134073866D02*
X85345238Y-134264342D01*
X85345238Y-134264342D02*
X85392857Y-134359580D01*
X85392857Y-134359580D02*
X85440476Y-134407200D01*
X85440476Y-134407200D02*
X85535714Y-134454819D01*
X85535714Y-134454819D02*
X85726190Y-134454819D01*
X85726190Y-134454819D02*
X85821428Y-134407200D01*
X85821428Y-134407200D02*
X85869047Y-134359580D01*
X85869047Y-134359580D02*
X85916666Y-134264342D01*
X85916666Y-134264342D02*
X85916666Y-134073866D01*
X85916666Y-134073866D02*
X85869047Y-133978628D01*
X85869047Y-133978628D02*
X85821428Y-133931009D01*
X85821428Y-133931009D02*
X85726190Y-133883390D01*
X84916666Y-104454819D02*
X84916666Y-105169104D01*
X84916666Y-105169104D02*
X84869047Y-105311961D01*
X84869047Y-105311961D02*
X84773809Y-105407200D01*
X84773809Y-105407200D02*
X84630952Y-105454819D01*
X84630952Y-105454819D02*
X84535714Y-105454819D01*
X85345238Y-104550057D02*
X85392857Y-104502438D01*
X85392857Y-104502438D02*
X85488095Y-104454819D01*
X85488095Y-104454819D02*
X85726190Y-104454819D01*
X85726190Y-104454819D02*
X85821428Y-104502438D01*
X85821428Y-104502438D02*
X85869047Y-104550057D01*
X85869047Y-104550057D02*
X85916666Y-104645295D01*
X85916666Y-104645295D02*
X85916666Y-104740533D01*
X85916666Y-104740533D02*
X85869047Y-104883390D01*
X85869047Y-104883390D02*
X85297619Y-105454819D01*
X85297619Y-105454819D02*
X85916666Y-105454819D01*
X85166666Y-118954819D02*
X85166666Y-119669104D01*
X85166666Y-119669104D02*
X85119047Y-119811961D01*
X85119047Y-119811961D02*
X85023809Y-119907200D01*
X85023809Y-119907200D02*
X84880952Y-119954819D01*
X84880952Y-119954819D02*
X84785714Y-119954819D01*
X86119047Y-118954819D02*
X85642857Y-118954819D01*
X85642857Y-118954819D02*
X85595238Y-119431009D01*
X85595238Y-119431009D02*
X85642857Y-119383390D01*
X85642857Y-119383390D02*
X85738095Y-119335771D01*
X85738095Y-119335771D02*
X85976190Y-119335771D01*
X85976190Y-119335771D02*
X86071428Y-119383390D01*
X86071428Y-119383390D02*
X86119047Y-119431009D01*
X86119047Y-119431009D02*
X86166666Y-119526247D01*
X86166666Y-119526247D02*
X86166666Y-119764342D01*
X86166666Y-119764342D02*
X86119047Y-119859580D01*
X86119047Y-119859580D02*
X86071428Y-119907200D01*
X86071428Y-119907200D02*
X85976190Y-119954819D01*
X85976190Y-119954819D02*
X85738095Y-119954819D01*
X85738095Y-119954819D02*
X85642857Y-119907200D01*
X85642857Y-119907200D02*
X85595238Y-119859580D01*
X116690476Y-112704819D02*
X116690476Y-113419104D01*
X116690476Y-113419104D02*
X116642857Y-113561961D01*
X116642857Y-113561961D02*
X116547619Y-113657200D01*
X116547619Y-113657200D02*
X116404762Y-113704819D01*
X116404762Y-113704819D02*
X116309524Y-113704819D01*
X117690476Y-113704819D02*
X117119048Y-113704819D01*
X117404762Y-113704819D02*
X117404762Y-112704819D01*
X117404762Y-112704819D02*
X117309524Y-112847676D01*
X117309524Y-112847676D02*
X117214286Y-112942914D01*
X117214286Y-112942914D02*
X117119048Y-112990533D01*
X118071429Y-112800057D02*
X118119048Y-112752438D01*
X118119048Y-112752438D02*
X118214286Y-112704819D01*
X118214286Y-112704819D02*
X118452381Y-112704819D01*
X118452381Y-112704819D02*
X118547619Y-112752438D01*
X118547619Y-112752438D02*
X118595238Y-112800057D01*
X118595238Y-112800057D02*
X118642857Y-112895295D01*
X118642857Y-112895295D02*
X118642857Y-112990533D01*
X118642857Y-112990533D02*
X118595238Y-113133390D01*
X118595238Y-113133390D02*
X118023810Y-113704819D01*
X118023810Y-113704819D02*
X118642857Y-113704819D01*
X115190476Y-123454819D02*
X115190476Y-124169104D01*
X115190476Y-124169104D02*
X115142857Y-124311961D01*
X115142857Y-124311961D02*
X115047619Y-124407200D01*
X115047619Y-124407200D02*
X114904762Y-124454819D01*
X114904762Y-124454819D02*
X114809524Y-124454819D01*
X116190476Y-124454819D02*
X115619048Y-124454819D01*
X115904762Y-124454819D02*
X115904762Y-123454819D01*
X115904762Y-123454819D02*
X115809524Y-123597676D01*
X115809524Y-123597676D02*
X115714286Y-123692914D01*
X115714286Y-123692914D02*
X115619048Y-123740533D01*
X117095238Y-123454819D02*
X116619048Y-123454819D01*
X116619048Y-123454819D02*
X116571429Y-123931009D01*
X116571429Y-123931009D02*
X116619048Y-123883390D01*
X116619048Y-123883390D02*
X116714286Y-123835771D01*
X116714286Y-123835771D02*
X116952381Y-123835771D01*
X116952381Y-123835771D02*
X117047619Y-123883390D01*
X117047619Y-123883390D02*
X117095238Y-123931009D01*
X117095238Y-123931009D02*
X117142857Y-124026247D01*
X117142857Y-124026247D02*
X117142857Y-124264342D01*
X117142857Y-124264342D02*
X117095238Y-124359580D01*
X117095238Y-124359580D02*
X117047619Y-124407200D01*
X117047619Y-124407200D02*
X116952381Y-124454819D01*
X116952381Y-124454819D02*
X116714286Y-124454819D01*
X116714286Y-124454819D02*
X116619048Y-124407200D01*
X116619048Y-124407200D02*
X116571429Y-124359580D01*
X84916666Y-129454819D02*
X84916666Y-130169104D01*
X84916666Y-130169104D02*
X84869047Y-130311961D01*
X84869047Y-130311961D02*
X84773809Y-130407200D01*
X84773809Y-130407200D02*
X84630952Y-130454819D01*
X84630952Y-130454819D02*
X84535714Y-130454819D01*
X85297619Y-129454819D02*
X85964285Y-129454819D01*
X85964285Y-129454819D02*
X85535714Y-130454819D01*
X115190476Y-133704819D02*
X115190476Y-134419104D01*
X115190476Y-134419104D02*
X115142857Y-134561961D01*
X115142857Y-134561961D02*
X115047619Y-134657200D01*
X115047619Y-134657200D02*
X114904762Y-134704819D01*
X114904762Y-134704819D02*
X114809524Y-134704819D01*
X116190476Y-134704819D02*
X115619048Y-134704819D01*
X115904762Y-134704819D02*
X115904762Y-133704819D01*
X115904762Y-133704819D02*
X115809524Y-133847676D01*
X115809524Y-133847676D02*
X115714286Y-133942914D01*
X115714286Y-133942914D02*
X115619048Y-133990533D01*
X116523810Y-133704819D02*
X117190476Y-133704819D01*
X117190476Y-133704819D02*
X116761905Y-134704819D01*
X115190476Y-119454819D02*
X115190476Y-120169104D01*
X115190476Y-120169104D02*
X115142857Y-120311961D01*
X115142857Y-120311961D02*
X115047619Y-120407200D01*
X115047619Y-120407200D02*
X114904762Y-120454819D01*
X114904762Y-120454819D02*
X114809524Y-120454819D01*
X116190476Y-120454819D02*
X115619048Y-120454819D01*
X115904762Y-120454819D02*
X115904762Y-119454819D01*
X115904762Y-119454819D02*
X115809524Y-119597676D01*
X115809524Y-119597676D02*
X115714286Y-119692914D01*
X115714286Y-119692914D02*
X115619048Y-119740533D01*
X117047619Y-119788152D02*
X117047619Y-120454819D01*
X116809524Y-119407200D02*
X116571429Y-120121485D01*
X116571429Y-120121485D02*
X117190476Y-120121485D01*
D12*
%TO.C,J19*%
X94640000Y-52720000D02*
X94640000Y-54910000D01*
X94640000Y-54910000D02*
X96590000Y-54910000D01*
X94880000Y-46630000D02*
X94880000Y-54670000D01*
X94880000Y-46630000D02*
X105620000Y-46630000D01*
X94880000Y-50250000D02*
X96120000Y-50250000D01*
X94880000Y-51250000D02*
X96120000Y-51250000D01*
X94880000Y-52550000D02*
X96120000Y-52550000D01*
X94880000Y-54670000D02*
X105620000Y-54670000D01*
X99880000Y-50250000D02*
X101165000Y-50250000D01*
X99880000Y-51250000D02*
X101165000Y-51250000D01*
X99880000Y-52550000D02*
X102331000Y-52550000D01*
X101514000Y-51998000D02*
X101514000Y-51998000D01*
X103670000Y-52550000D02*
X105620000Y-52550000D01*
X104487000Y-49502000D02*
X104487000Y-49502000D01*
X104836000Y-50250000D02*
X105620000Y-50250000D01*
X104836000Y-51250000D02*
X105620000Y-51250000D01*
X105620000Y-46630000D02*
X105620000Y-54670000D01*
X96124578Y-51322619D02*
G75*
G02*
X96125000Y-50176000I1875415J572619D01*
G01*
X98033500Y-52710607D02*
G75*
G02*
X97426000Y-52625000I-33500J1960607D01*
G01*
X98573049Y-52624357D02*
G75*
G02*
X98000000Y-52710000I-573051J1874363D01*
G01*
X97427381Y-48874578D02*
G75*
G02*
X98574000Y-48875000I572619J-1875422D01*
G01*
X99875422Y-50177381D02*
G75*
G02*
X99875000Y-51324000I-1875422J-572619D01*
G01*
X101434339Y-51929122D02*
G75*
G02*
X101435000Y-49570000I1565661J1179122D01*
G01*
X101521125Y-52036294D02*
G75*
G02*
X101435001Y-51929999I1478775J1286194D01*
G01*
X101434826Y-49569305D02*
G75*
G02*
X101521000Y-49463000I1564674J-1180295D01*
G01*
X101638710Y-52160010D02*
G75*
G02*
X101520999Y-52036000I1361390J1410110D01*
G01*
X101521202Y-49462988D02*
G75*
G02*
X101639000Y-49339000I1478698J-1286912D01*
G01*
X101767069Y-52273253D02*
G75*
G02*
X101639000Y-52160000I1232831J1523153D01*
G01*
X101638867Y-49339262D02*
G75*
G02*
X101767000Y-49225999I1361233J-1410838D01*
G01*
X101904517Y-52375664D02*
G75*
G02*
X101767000Y-52274000I1095483J1625664D01*
G01*
X101767452Y-49225623D02*
G75*
G02*
X101905000Y-49124000I1232548J-1524377D01*
G01*
X102080344Y-52480739D02*
G75*
G02*
X101932999Y-52394001I919756J1730939D01*
G01*
X101933630Y-49105683D02*
G75*
G02*
X102081002Y-49019003I1066670J-1644917D01*
G01*
X102362283Y-52603815D02*
G75*
G02*
X102172000Y-52527000I637717J1853815D01*
G01*
X102172694Y-48972741D02*
G75*
G02*
X102363000Y-48896000I827306J-1777259D01*
G01*
X103000479Y-52710685D02*
G75*
G02*
X102492999Y-52644004I-479J1960785D01*
G01*
X103507285Y-52643215D02*
G75*
G02*
X103000000Y-52710000I-507285J1893215D01*
G01*
X102493681Y-48856527D02*
G75*
G02*
X103001000Y-48790001I506319J-1893473D01*
G01*
X103000487Y-48789056D02*
G75*
G02*
X103508000Y-48856000I-487J-1960944D01*
G01*
X103829295Y-52527050D02*
G75*
G02*
X103638999Y-52603998I-829395J1777350D01*
G01*
X103638712Y-48896080D02*
G75*
G02*
X103829001Y-48972998I-638812J-1854220D01*
G01*
X104068362Y-52394143D02*
G75*
G02*
X103921000Y-52481000I-1068362J1644143D01*
G01*
X103920652Y-49019174D02*
G75*
G02*
X104067999Y-49106001I-920552J-1730626D01*
G01*
X104233457Y-52273294D02*
G75*
G02*
X104096002Y-52375003I-1233357J1523094D01*
G01*
X104096479Y-49124249D02*
G75*
G02*
X104233999Y-49226001I-1096279J-1625451D01*
G01*
X104362130Y-52160651D02*
G75*
G02*
X104233999Y-52273999I-1362630J1411251D01*
G01*
X104233928Y-49226659D02*
G75*
G02*
X104362000Y-49340000I-1234028J-1523441D01*
G01*
X104479707Y-52035928D02*
G75*
G02*
X104361999Y-52159999I-1479907J1286128D01*
G01*
X104362286Y-49339903D02*
G75*
G02*
X104480000Y-49464000I-1362086J-1409897D01*
G01*
X104566102Y-51929628D02*
G75*
G02*
X104479999Y-52035999I-1566802J1180228D01*
G01*
X104479873Y-49463636D02*
G75*
G02*
X104566000Y-49570000I-1479373J-1285964D01*
G01*
X104565937Y-49569916D02*
G75*
G02*
X104566000Y-51930000I-1565937J-1180084D01*
G01*
%TO.C,U1*%
X89500000Y-101500000D02*
X89500000Y-101800000D01*
X89500000Y-101500000D02*
X110500000Y-101500000D01*
X89500000Y-103900000D02*
X89500000Y-104300000D01*
X89500000Y-104167000D02*
X92507000Y-104167000D01*
X89500000Y-106500000D02*
X89500000Y-106900000D01*
X89500000Y-109000000D02*
X89500000Y-109400000D01*
X89500000Y-111600000D02*
X89500000Y-112000000D01*
X89500000Y-114100000D02*
X89500000Y-114500000D01*
X89500000Y-116600000D02*
X89500000Y-117000000D01*
X89500000Y-119200000D02*
X89500000Y-119600000D01*
X89500000Y-121700000D02*
X89500000Y-122100000D01*
X89500000Y-124300000D02*
X89500000Y-124700000D01*
X89500000Y-126800000D02*
X89500000Y-127200000D01*
X89500000Y-129300000D02*
X89500000Y-129700000D01*
X89500000Y-131900000D02*
X89500000Y-132300000D01*
X89500000Y-134400000D02*
X89500000Y-134800000D01*
X89500000Y-137000000D02*
X89500000Y-137400000D01*
X89500000Y-139500000D02*
X89500000Y-139900000D01*
X89500000Y-142100000D02*
X89500000Y-142500000D01*
X89500000Y-144600000D02*
X89500000Y-145000000D01*
X89500000Y-147100000D02*
X89500000Y-147500000D01*
X89500000Y-149700000D02*
X89500000Y-150100000D01*
X92507000Y-104167000D02*
X92507000Y-101500000D01*
X96300000Y-152500000D02*
X89500000Y-152500000D01*
X98500000Y-152500000D02*
X98900000Y-152500000D01*
X101100000Y-152500000D02*
X101500000Y-152500000D01*
X110500000Y-101500000D02*
X110500000Y-101800000D01*
X110500000Y-103900000D02*
X110500000Y-104300000D01*
X110500000Y-106500000D02*
X110500000Y-106900000D01*
X110500000Y-109000000D02*
X110500000Y-109400000D01*
X110500000Y-111600000D02*
X110500000Y-112000000D01*
X110500000Y-114100000D02*
X110500000Y-114500000D01*
X110500000Y-116600000D02*
X110500000Y-117000000D01*
X110500000Y-119200000D02*
X110500000Y-119600000D01*
X110500000Y-121700000D02*
X110500000Y-122100000D01*
X110500000Y-124300000D02*
X110500000Y-124700000D01*
X110500000Y-126800000D02*
X110500000Y-127200000D01*
X110500000Y-129300000D02*
X110500000Y-129700000D01*
X110500000Y-131900000D02*
X110500000Y-132300000D01*
X110500000Y-134400000D02*
X110500000Y-134800000D01*
X110500000Y-137000000D02*
X110500000Y-137400000D01*
X110500000Y-139500000D02*
X110500000Y-139900000D01*
X110500000Y-142100000D02*
X110500000Y-142500000D01*
X110500000Y-144600000D02*
X110500000Y-145000000D01*
X110500000Y-147100000D02*
X110500000Y-147500000D01*
X110500000Y-149700000D02*
X110500000Y-150100000D01*
X110500000Y-152500000D02*
X103700000Y-152500000D01*
D13*
%TO.C,U5*%
X111750000Y-63710000D02*
X111750000Y-90710000D01*
X108000000Y-87210000D02*
X111500000Y-90710000D01*
X111750000Y-90710000D02*
X115250000Y-87210000D01*
D14*
X122250000Y-56210000D02*
X101250000Y-56210000D01*
X101250000Y-100210000D01*
X122250000Y-100210000D01*
X122250000Y-56210000D01*
X105250000Y-56210000D02*
X101250000Y-56210000D01*
X101250000Y-62710000D01*
X105250000Y-62710000D01*
X105250000Y-56210000D01*
X105250000Y-93710000D02*
X101250000Y-93710000D01*
X101250000Y-100210000D01*
X105250000Y-100210000D01*
X105250000Y-93710000D01*
D13*
%TO.C,U2*%
X88250000Y-63710000D02*
X88250000Y-90710000D01*
X84500000Y-87210000D02*
X88000000Y-90710000D01*
X88250000Y-90710000D02*
X91750000Y-87210000D01*
D14*
X98750000Y-56210000D02*
X77750000Y-56210000D01*
X77750000Y-100210000D01*
X98750000Y-100210000D01*
X98750000Y-56210000D01*
X81750000Y-56210000D02*
X77750000Y-56210000D01*
X77750000Y-62710000D01*
X81750000Y-62710000D01*
X81750000Y-56210000D01*
X81750000Y-93710000D02*
X77750000Y-93710000D01*
X77750000Y-100210000D01*
X81750000Y-100210000D01*
X81750000Y-93710000D01*
D12*
%TO.C,J16*%
X114920000Y-133330000D02*
X114920000Y-132000000D01*
X116250000Y-133330000D02*
X114920000Y-133330000D01*
X117520000Y-130670000D02*
X122660000Y-130670000D01*
X117520000Y-133330000D02*
X117520000Y-130670000D01*
X117520000Y-133330000D02*
X122660000Y-133330000D01*
X122660000Y-133330000D02*
X122660000Y-130670000D01*
%TO.C,J18*%
X114920000Y-141330000D02*
X114920000Y-140000000D01*
X116250000Y-141330000D02*
X114920000Y-141330000D01*
X117520000Y-138670000D02*
X122660000Y-138670000D01*
X117520000Y-141330000D02*
X117520000Y-138670000D01*
X117520000Y-141330000D02*
X122660000Y-141330000D01*
X122660000Y-141330000D02*
X122660000Y-138670000D01*
%TO.C,D1*%
X96160000Y-124750000D02*
X98280000Y-124750000D01*
X98280000Y-123330000D02*
X98280000Y-126170000D01*
X98280000Y-126170000D02*
X101720000Y-126170000D01*
X101000000Y-126170000D02*
X101000000Y-123330000D01*
X101120000Y-126170000D02*
X101120000Y-123330000D01*
X101240000Y-126170000D02*
X101240000Y-123330000D01*
X101720000Y-123330000D02*
X98280000Y-123330000D01*
X101720000Y-126170000D02*
X101720000Y-123330000D01*
X103840000Y-124750000D02*
X101720000Y-124750000D01*
%TO.C,J10*%
X114920000Y-104330000D02*
X114920000Y-103000000D01*
X116250000Y-104330000D02*
X114920000Y-104330000D01*
X117520000Y-101670000D02*
X122660000Y-101670000D01*
X117520000Y-104330000D02*
X117520000Y-101670000D01*
X117520000Y-104330000D02*
X122660000Y-104330000D01*
X122660000Y-104330000D02*
X122660000Y-101670000D01*
%TO.C,J3*%
X77340000Y-109670000D02*
X77340000Y-112330000D01*
X82480000Y-109670000D02*
X77340000Y-109670000D01*
X82480000Y-109670000D02*
X82480000Y-112330000D01*
X82480000Y-112330000D02*
X77340000Y-112330000D01*
X83750000Y-109670000D02*
X85080000Y-109670000D01*
X85080000Y-109670000D02*
X85080000Y-111000000D01*
%TO.C,J13*%
X114920000Y-119080000D02*
X114920000Y-117750000D01*
X116250000Y-119080000D02*
X114920000Y-119080000D01*
X117520000Y-116420000D02*
X122660000Y-116420000D01*
X117520000Y-119080000D02*
X117520000Y-116420000D01*
X117520000Y-119080000D02*
X122660000Y-119080000D01*
X122660000Y-119080000D02*
X122660000Y-116420000D01*
%TO.C,J1*%
X85080000Y-101670000D02*
X85080000Y-103000000D01*
X83750000Y-101670000D02*
X85080000Y-101670000D01*
X82480000Y-104330000D02*
X77340000Y-104330000D01*
X82480000Y-101670000D02*
X82480000Y-104330000D01*
X82480000Y-101670000D02*
X77340000Y-101670000D01*
X77340000Y-101670000D02*
X77340000Y-104330000D01*
%TO.C,J11*%
X114920000Y-108330000D02*
X114920000Y-107000000D01*
X116250000Y-108330000D02*
X114920000Y-108330000D01*
X117520000Y-105670000D02*
X122660000Y-105670000D01*
X117520000Y-108330000D02*
X117520000Y-105670000D01*
X117520000Y-108330000D02*
X122660000Y-108330000D01*
X122660000Y-108330000D02*
X122660000Y-105670000D01*
%TO.C,J4*%
X85080000Y-116170000D02*
X85080000Y-117500000D01*
X83750000Y-116170000D02*
X85080000Y-116170000D01*
X82480000Y-118830000D02*
X77340000Y-118830000D01*
X82480000Y-116170000D02*
X82480000Y-118830000D01*
X82480000Y-116170000D02*
X77340000Y-116170000D01*
X77340000Y-116170000D02*
X77340000Y-118830000D01*
D10*
%TO.C,U8*%
X96900000Y-105600000D02*
X93900000Y-105600000D01*
X96900000Y-103100000D02*
X96900000Y-105600000D01*
X105900000Y-103100000D02*
X93900000Y-103100000D01*
X93900000Y-121100000D01*
X105900000Y-121100000D01*
X105900000Y-103100000D01*
D12*
%TO.C,J6*%
X77340000Y-124170000D02*
X77340000Y-126830000D01*
X82480000Y-124170000D02*
X77340000Y-124170000D01*
X82480000Y-124170000D02*
X82480000Y-126830000D01*
X82480000Y-126830000D02*
X77340000Y-126830000D01*
X83750000Y-124170000D02*
X85080000Y-124170000D01*
X85080000Y-124170000D02*
X85080000Y-125500000D01*
%TO.C,J9*%
X77340000Y-138670000D02*
X77340000Y-141330000D01*
X82480000Y-138670000D02*
X77340000Y-138670000D01*
X82480000Y-138670000D02*
X82480000Y-141330000D01*
X82480000Y-141330000D02*
X77340000Y-141330000D01*
X83750000Y-138670000D02*
X85080000Y-138670000D01*
X85080000Y-138670000D02*
X85080000Y-140000000D01*
%TO.C,J8*%
X77340000Y-134670000D02*
X77340000Y-137330000D01*
X82480000Y-134670000D02*
X77340000Y-134670000D01*
X82480000Y-134670000D02*
X82480000Y-137330000D01*
X82480000Y-137330000D02*
X77340000Y-137330000D01*
X83750000Y-134670000D02*
X85080000Y-134670000D01*
X85080000Y-134670000D02*
X85080000Y-136000000D01*
%TO.C,J2*%
X77340000Y-105670000D02*
X77340000Y-108330000D01*
X82480000Y-105670000D02*
X77340000Y-105670000D01*
X82480000Y-105670000D02*
X82480000Y-108330000D01*
X82480000Y-108330000D02*
X77340000Y-108330000D01*
X83750000Y-105670000D02*
X85080000Y-105670000D01*
X85080000Y-105670000D02*
X85080000Y-107000000D01*
%TO.C,J5*%
X77340000Y-120170000D02*
X77340000Y-122830000D01*
X82480000Y-120170000D02*
X77340000Y-120170000D01*
X82480000Y-120170000D02*
X82480000Y-122830000D01*
X82480000Y-122830000D02*
X77340000Y-122830000D01*
X83750000Y-120170000D02*
X85080000Y-120170000D01*
X85080000Y-120170000D02*
X85080000Y-121500000D01*
%TO.C,J12*%
X114920000Y-112330000D02*
X114920000Y-111000000D01*
X116250000Y-112330000D02*
X114920000Y-112330000D01*
X117520000Y-109670000D02*
X122660000Y-109670000D01*
X117520000Y-112330000D02*
X117520000Y-109670000D01*
X117520000Y-112330000D02*
X122660000Y-112330000D01*
X122660000Y-112330000D02*
X122660000Y-109670000D01*
%TO.C,J15*%
X114920000Y-127080000D02*
X114920000Y-125750000D01*
X116250000Y-127080000D02*
X114920000Y-127080000D01*
X117520000Y-124420000D02*
X122660000Y-124420000D01*
X117520000Y-127080000D02*
X117520000Y-124420000D01*
X117520000Y-127080000D02*
X122660000Y-127080000D01*
X122660000Y-127080000D02*
X122660000Y-124420000D01*
%TO.C,J7*%
X77340000Y-130670000D02*
X77340000Y-133330000D01*
X82480000Y-130670000D02*
X77340000Y-130670000D01*
X82480000Y-130670000D02*
X82480000Y-133330000D01*
X82480000Y-133330000D02*
X77340000Y-133330000D01*
X83750000Y-130670000D02*
X85080000Y-130670000D01*
X85080000Y-130670000D02*
X85080000Y-132000000D01*
%TO.C,J17*%
X114920000Y-137330000D02*
X114920000Y-136000000D01*
X116250000Y-137330000D02*
X114920000Y-137330000D01*
X117520000Y-134670000D02*
X122660000Y-134670000D01*
X117520000Y-137330000D02*
X117520000Y-134670000D01*
X117520000Y-137330000D02*
X122660000Y-137330000D01*
X122660000Y-137330000D02*
X122660000Y-134670000D01*
%TO.C,J14*%
X114920000Y-123080000D02*
X114920000Y-121750000D01*
X116250000Y-123080000D02*
X114920000Y-123080000D01*
X117520000Y-120420000D02*
X122660000Y-120420000D01*
X117520000Y-123080000D02*
X117520000Y-120420000D01*
X117520000Y-123080000D02*
X122660000Y-123080000D01*
X122660000Y-123080000D02*
X122660000Y-120420000D01*
%TD*%
M02*
