%TF.GenerationSoftware,KiCad,Pcbnew,8.0.7*%
%TF.CreationDate,2025-01-04T20:58:12-05:00*%
%TF.ProjectId,hexapod,68657861-706f-4642-9e6b-696361645f70,rev?*%
%TF.SameCoordinates,Original*%
%TF.FileFunction,Soldermask,Top*%
%TF.FilePolarity,Negative*%
%FSLAX46Y46*%
G04 Gerber Fmt 4.6, Leading zero omitted, Abs format (unit mm)*
G04 Created by KiCad (PCBNEW 8.0.7) date 2025-01-04 20:58:12*
%MOMM*%
%LPD*%
G01*
G04 APERTURE LIST*
%ADD10R,2.800000X2.800000*%
%ADD11C,2.800000*%
%ADD12O,1.700000X1.700000*%
%ADD13R,3.500000X1.700000*%
%ADD14R,1.700000X1.700000*%
%ADD15C,1.700000*%
%ADD16R,2.000000X2.000000*%
%ADD17O,2.000000X2.000000*%
G04 APERTURE END LIST*
D10*
%TO.C,J19*%
X98000000Y-50750000D03*
D11*
X103000000Y-50750000D03*
%TD*%
D12*
%TO.C,U1*%
X91110000Y-102870000D03*
D13*
X90210000Y-102870000D03*
D12*
X91110000Y-105410000D03*
D13*
X90210000Y-105410000D03*
D14*
X91110000Y-107950000D03*
D13*
X90210000Y-107950000D03*
D12*
X91110000Y-110490000D03*
D13*
X90210000Y-110490000D03*
D12*
X91110000Y-113030000D03*
D13*
X90210000Y-113030000D03*
D12*
X91110000Y-115570000D03*
D13*
X90210000Y-115570000D03*
D12*
X91110000Y-118110000D03*
D13*
X90210000Y-118110000D03*
D14*
X91110000Y-120650000D03*
D13*
X90210000Y-120650000D03*
D12*
X91110000Y-123190000D03*
D13*
X90210000Y-123190000D03*
D12*
X91110000Y-125730000D03*
D13*
X90210000Y-125730000D03*
D12*
X91110000Y-128270000D03*
D13*
X90210000Y-128270000D03*
D12*
X91110000Y-130810000D03*
D13*
X90210000Y-130810000D03*
D14*
X91110000Y-133350000D03*
D13*
X90210000Y-133350000D03*
D12*
X91110000Y-135890000D03*
D13*
X90210000Y-135890000D03*
D12*
X91110000Y-138430000D03*
D13*
X90210000Y-138430000D03*
D12*
X91110000Y-140970000D03*
D13*
X90210000Y-140970000D03*
D12*
X91110000Y-143510000D03*
D13*
X90210000Y-143510000D03*
D14*
X91110000Y-146050000D03*
D13*
X90210000Y-146050000D03*
D12*
X91110000Y-148590000D03*
D13*
X90210000Y-148590000D03*
D12*
X91110000Y-151130000D03*
D13*
X90210000Y-151130000D03*
D12*
X108890000Y-151130000D03*
D13*
X109790000Y-151130000D03*
D12*
X108890000Y-148590000D03*
D13*
X109790000Y-148590000D03*
D14*
X108890000Y-146050000D03*
D13*
X109790000Y-146050000D03*
D12*
X108890000Y-143510000D03*
D13*
X109790000Y-143510000D03*
D12*
X108890000Y-140970000D03*
D13*
X109790000Y-140970000D03*
D12*
X108890000Y-138430000D03*
D13*
X109790000Y-138430000D03*
D12*
X108890000Y-135890000D03*
D13*
X109790000Y-135890000D03*
D14*
X108890000Y-133350000D03*
D13*
X109790000Y-133350000D03*
D12*
X108890000Y-130810000D03*
D13*
X109790000Y-130810000D03*
D12*
X108890000Y-128270000D03*
D13*
X109790000Y-128270000D03*
D12*
X108890000Y-125730000D03*
D13*
X109790000Y-125730000D03*
D12*
X108890000Y-123190000D03*
D13*
X109790000Y-123190000D03*
D14*
X108890000Y-120650000D03*
D13*
X109790000Y-120650000D03*
D12*
X108890000Y-118110000D03*
D13*
X109790000Y-118110000D03*
D12*
X108890000Y-115570000D03*
D13*
X109790000Y-115570000D03*
D12*
X108890000Y-113030000D03*
D13*
X109790000Y-113030000D03*
D12*
X108890000Y-110490000D03*
D13*
X109790000Y-110490000D03*
D14*
X108890000Y-107950000D03*
D13*
X109790000Y-107950000D03*
D12*
X108890000Y-105410000D03*
D13*
X109790000Y-105410000D03*
D12*
X108890000Y-102870000D03*
D13*
X109790000Y-102870000D03*
%TD*%
D14*
%TO.C,U5*%
X103250000Y-58210000D03*
X103250000Y-60750000D03*
D15*
X120250000Y-58210000D03*
X120250000Y-60750000D03*
X103250000Y-95670000D03*
X103250000Y-98210000D03*
X120250000Y-95670000D03*
X120250000Y-98210000D03*
%TD*%
D14*
%TO.C,U2*%
X79750000Y-58210000D03*
X79750000Y-60750000D03*
D15*
X96750000Y-58210000D03*
X96750000Y-60750000D03*
X79750000Y-95670000D03*
X79750000Y-98210000D03*
X96750000Y-95670000D03*
X96750000Y-98210000D03*
%TD*%
D14*
%TO.C,J16*%
X116250000Y-132000000D03*
D12*
X118790000Y-132000000D03*
X121330000Y-132000000D03*
%TD*%
D14*
%TO.C,J18*%
X116250000Y-140000000D03*
D12*
X118790000Y-140000000D03*
X121330000Y-140000000D03*
%TD*%
D16*
%TO.C,D1*%
X105080000Y-124750000D03*
D17*
X94920000Y-124750000D03*
%TD*%
D14*
%TO.C,J10*%
X116250000Y-103000000D03*
D12*
X118790000Y-103000000D03*
X121330000Y-103000000D03*
%TD*%
D14*
%TO.C,J3*%
X83750000Y-111000000D03*
D12*
X81210000Y-111000000D03*
X78670000Y-111000000D03*
%TD*%
D14*
%TO.C,J13*%
X116250000Y-117750000D03*
D12*
X118790000Y-117750000D03*
X121330000Y-117750000D03*
%TD*%
%TO.C,J1*%
X78670000Y-103000000D03*
X81210000Y-103000000D03*
D14*
X83750000Y-103000000D03*
%TD*%
%TO.C,J11*%
X116250000Y-107000000D03*
D12*
X118790000Y-107000000D03*
X121330000Y-107000000D03*
%TD*%
%TO.C,J4*%
X78670000Y-117500000D03*
X81210000Y-117500000D03*
D14*
X83750000Y-117500000D03*
%TD*%
%TO.C,U8*%
X95400000Y-104300000D03*
X95400000Y-106840000D03*
D15*
X104400000Y-104300000D03*
X104400000Y-106840000D03*
X95400000Y-117360000D03*
X95400000Y-119900000D03*
X104400000Y-117360000D03*
X104400000Y-119900000D03*
%TD*%
D14*
%TO.C,J6*%
X83750000Y-125500000D03*
D12*
X81210000Y-125500000D03*
X78670000Y-125500000D03*
%TD*%
D14*
%TO.C,J9*%
X83750000Y-140000000D03*
D12*
X81210000Y-140000000D03*
X78670000Y-140000000D03*
%TD*%
D14*
%TO.C,J8*%
X83750000Y-136000000D03*
D12*
X81210000Y-136000000D03*
X78670000Y-136000000D03*
%TD*%
D14*
%TO.C,J2*%
X83750000Y-107000000D03*
D12*
X81210000Y-107000000D03*
X78670000Y-107000000D03*
%TD*%
D14*
%TO.C,J5*%
X83750000Y-121500000D03*
D12*
X81210000Y-121500000D03*
X78670000Y-121500000D03*
%TD*%
D14*
%TO.C,J12*%
X116250000Y-111000000D03*
D12*
X118790000Y-111000000D03*
X121330000Y-111000000D03*
%TD*%
D14*
%TO.C,J15*%
X116250000Y-125750000D03*
D12*
X118790000Y-125750000D03*
X121330000Y-125750000D03*
%TD*%
D14*
%TO.C,J7*%
X83750000Y-132000000D03*
D12*
X81210000Y-132000000D03*
X78670000Y-132000000D03*
%TD*%
D14*
%TO.C,J17*%
X116250000Y-136000000D03*
D12*
X118790000Y-136000000D03*
X121330000Y-136000000D03*
%TD*%
D14*
%TO.C,J14*%
X116250000Y-121750000D03*
D12*
X118790000Y-121750000D03*
X121330000Y-121750000D03*
%TD*%
M02*
