M48
; DRILL file {KiCad 8.0.6} date 2024-12-18T16:54:18-0500
; FORMAT={-:-/ absolute / inch / decimal}
; #@! TF.CreationDate,2024-12-18T16:54:18-05:00
; #@! TF.GenerationSoftware,Kicad,Pcbnew,8.0.6
; #@! TF.FileFunction,Plated,1,2,PTH
FMAT,2
INCH
; #@! TA.AperFunction,Plated,PTH,ComponentDrill
T1C0.0394
; #@! TA.AperFunction,Plated,PTH,ComponentDrill
T2C0.0402
; #@! TA.AperFunction,Plated,PTH,ComponentDrill
T3C0.0512
; #@! TA.AperFunction,Plated,PTH,ViaDrill
T4C0.0906
%
G90
G05
T1
X3.0906Y-2.1614
X3.0906Y-2.7756
X3.0906Y-5.128
X3.0906Y-5.7421
X3.0972Y-2.9921
X3.0972Y-3.1496
X3.0972Y-3.3071
X3.0972Y-3.7795
X3.0972Y-3.937
X3.0972Y-4.0945
X3.0972Y-4.6063
X3.0972Y-4.7638
X3.0972Y-4.9213
X3.1972Y-2.9921
X3.1972Y-3.1496
X3.1972Y-3.3071
X3.1972Y-3.7795
X3.1972Y-3.937
X3.1972Y-4.0945
X3.1972Y-4.6063
X3.1972Y-4.7638
X3.1972Y-4.9213
X3.2972Y-2.9921
X3.2972Y-3.1496
X3.2972Y-3.3071
X3.2972Y-3.7795
X3.2972Y-3.937
X3.2972Y-4.0945
X3.2972Y-4.6063
X3.2972Y-4.7638
X3.2972Y-4.9213
X3.4449Y-2.1614
X3.4449Y-2.7756
X3.4449Y-5.128
X3.4449Y-5.7421
X3.624Y-5.624
X3.624Y-5.9783
X3.628Y-2.2638
X3.628Y-2.6181
X3.628Y-5.1181
X3.628Y-5.4724
X3.7339Y-2.7756
X4.1339Y-2.7756
X4.2382Y-5.624
X4.2382Y-5.9783
X4.2421Y-2.2638
X4.2421Y-2.6181
X4.2421Y-5.1181
X4.2421Y-5.4724
X4.4291Y-2.1614
X4.4291Y-2.7756
X4.4291Y-5.128
X4.4291Y-5.7421
X4.5768Y-2.9724
X4.5768Y-3.1299
X4.5768Y-3.2874
X4.5768Y-3.7795
X4.5768Y-3.937
X4.5768Y-4.0945
X4.5768Y-4.6063
X4.5768Y-4.7638
X4.5768Y-4.9213
X4.6768Y-2.9724
X4.6768Y-3.1299
X4.6768Y-3.2874
X4.6768Y-3.7795
X4.6768Y-3.937
X4.6768Y-4.0945
X4.6768Y-4.6063
X4.6768Y-4.7638
X4.6768Y-4.9213
X4.7768Y-2.9724
X4.7768Y-3.1299
X4.7768Y-3.2874
X4.7768Y-3.7795
X4.7768Y-3.937
X4.7768Y-4.0945
X4.7768Y-4.6063
X4.7768Y-4.7638
X4.7768Y-4.9213
X4.7835Y-2.1614
X4.7835Y-2.7756
X4.7835Y-5.128
X4.7835Y-5.7421
T2
X3.587Y-2.987
X3.587Y-3.087
X3.587Y-3.187
X3.587Y-3.287
X3.587Y-3.387
X3.587Y-3.487
X3.587Y-3.587
X3.587Y-3.687
X3.587Y-3.787
X3.587Y-3.887
X3.587Y-3.987
X3.587Y-4.087
X3.587Y-4.187
X3.587Y-4.287
X3.587Y-4.387
X3.587Y-4.487
X3.587Y-4.587
X3.587Y-4.687
X3.587Y-4.787
X3.587Y-4.887
X3.837Y-4.878
X3.937Y-4.878
X4.037Y-4.878
X4.287Y-2.987
X4.287Y-3.087
X4.287Y-3.187
X4.287Y-3.287
X4.287Y-3.387
X4.287Y-3.487
X4.287Y-3.587
X4.287Y-3.687
X4.287Y-3.787
X4.287Y-3.887
X4.287Y-3.987
X4.287Y-4.087
X4.287Y-4.187
X4.287Y-4.287
X4.287Y-4.387
X4.287Y-4.487
X4.287Y-4.587
X4.287Y-4.687
X4.287Y-4.787
X4.287Y-4.887
T3
X3.8583Y-1.998
X4.0551Y-1.998
T4
X3.3268Y-1.9488
X3.3268Y-5.9252
X4.5472Y-1.9488
X4.5472Y-5.9252
M30
