%TF.GenerationSoftware,KiCad,Pcbnew,8.0.7*%
%TF.CreationDate,2025-01-04T20:58:18-05:00*%
%TF.ProjectId,hexapod,68657861-706f-4642-9e6b-696361645f70,rev?*%
%TF.SameCoordinates,Original*%
%TF.FileFunction,Drillmap*%
%TF.FilePolarity,Positive*%
%FSLAX45Y45*%
G04 Gerber Fmt 4.5, Leading zero omitted, Abs format (unit mm)*
G04 Created by KiCad (PCBNEW 8.0.7) date 2025-01-04 20:58:18*
%MOMM*%
%LPD*%
G01*
G04 APERTURE LIST*
%ADD10C,0.050000*%
%ADD11C,0.200000*%
G04 APERTURE END LIST*
D10*
X12400000Y-15200000D02*
G75*
G02*
X12100000Y-15500000I-300000J0D01*
G01*
X7900000Y-4500000D02*
X12100000Y-4500000D01*
X12400000Y-4800000D02*
X12400000Y-15200000D01*
X12100000Y-4500000D02*
G75*
G02*
X12400000Y-4800000I0J-300000D01*
G01*
X7900000Y-15500000D02*
G75*
G02*
X7600000Y-15200000I0J300000D01*
G01*
X7600000Y-4800000D02*
G75*
G02*
X7900000Y-4500000I300000J0D01*
G01*
X7600000Y-15200000D02*
X7600000Y-4800000D01*
X12100000Y-15500000D02*
X7900000Y-15500000D01*
D11*
X7858277Y-15813984D02*
X7858277Y-15613984D01*
X7858277Y-15613984D02*
X7905896Y-15613984D01*
X7905896Y-15613984D02*
X7934467Y-15623508D01*
X7934467Y-15623508D02*
X7953515Y-15642555D01*
X7953515Y-15642555D02*
X7963039Y-15661603D01*
X7963039Y-15661603D02*
X7972562Y-15699698D01*
X7972562Y-15699698D02*
X7972562Y-15728269D01*
X7972562Y-15728269D02*
X7963039Y-15766365D01*
X7963039Y-15766365D02*
X7953515Y-15785412D01*
X7953515Y-15785412D02*
X7934467Y-15804460D01*
X7934467Y-15804460D02*
X7905896Y-15813984D01*
X7905896Y-15813984D02*
X7858277Y-15813984D01*
X8058277Y-15813984D02*
X8058277Y-15680650D01*
X8058277Y-15718746D02*
X8067801Y-15699698D01*
X8067801Y-15699698D02*
X8077324Y-15690174D01*
X8077324Y-15690174D02*
X8096372Y-15680650D01*
X8096372Y-15680650D02*
X8115420Y-15680650D01*
X8182086Y-15813984D02*
X8182086Y-15680650D01*
X8182086Y-15613984D02*
X8172562Y-15623508D01*
X8172562Y-15623508D02*
X8182086Y-15633031D01*
X8182086Y-15633031D02*
X8191610Y-15623508D01*
X8191610Y-15623508D02*
X8182086Y-15613984D01*
X8182086Y-15613984D02*
X8182086Y-15633031D01*
X8305896Y-15813984D02*
X8286848Y-15804460D01*
X8286848Y-15804460D02*
X8277324Y-15785412D01*
X8277324Y-15785412D02*
X8277324Y-15613984D01*
X8410658Y-15813984D02*
X8391610Y-15804460D01*
X8391610Y-15804460D02*
X8382086Y-15785412D01*
X8382086Y-15785412D02*
X8382086Y-15613984D01*
X8639229Y-15813984D02*
X8639229Y-15613984D01*
X8639229Y-15613984D02*
X8705896Y-15756841D01*
X8705896Y-15756841D02*
X8772563Y-15613984D01*
X8772563Y-15613984D02*
X8772563Y-15813984D01*
X8953515Y-15813984D02*
X8953515Y-15709222D01*
X8953515Y-15709222D02*
X8943991Y-15690174D01*
X8943991Y-15690174D02*
X8924944Y-15680650D01*
X8924944Y-15680650D02*
X8886848Y-15680650D01*
X8886848Y-15680650D02*
X8867801Y-15690174D01*
X8953515Y-15804460D02*
X8934467Y-15813984D01*
X8934467Y-15813984D02*
X8886848Y-15813984D01*
X8886848Y-15813984D02*
X8867801Y-15804460D01*
X8867801Y-15804460D02*
X8858277Y-15785412D01*
X8858277Y-15785412D02*
X8858277Y-15766365D01*
X8858277Y-15766365D02*
X8867801Y-15747317D01*
X8867801Y-15747317D02*
X8886848Y-15737793D01*
X8886848Y-15737793D02*
X8934467Y-15737793D01*
X8934467Y-15737793D02*
X8953515Y-15728269D01*
X9048753Y-15680650D02*
X9048753Y-15880650D01*
X9048753Y-15690174D02*
X9067801Y-15680650D01*
X9067801Y-15680650D02*
X9105896Y-15680650D01*
X9105896Y-15680650D02*
X9124944Y-15690174D01*
X9124944Y-15690174D02*
X9134467Y-15699698D01*
X9134467Y-15699698D02*
X9143991Y-15718746D01*
X9143991Y-15718746D02*
X9143991Y-15775888D01*
X9143991Y-15775888D02*
X9134467Y-15794936D01*
X9134467Y-15794936D02*
X9124944Y-15804460D01*
X9124944Y-15804460D02*
X9105896Y-15813984D01*
X9105896Y-15813984D02*
X9067801Y-15813984D01*
X9067801Y-15813984D02*
X9048753Y-15804460D01*
X9229705Y-15794936D02*
X9239229Y-15804460D01*
X9239229Y-15804460D02*
X9229705Y-15813984D01*
X9229705Y-15813984D02*
X9220182Y-15804460D01*
X9220182Y-15804460D02*
X9229705Y-15794936D01*
X9229705Y-15794936D02*
X9229705Y-15813984D01*
X9229705Y-15690174D02*
X9239229Y-15699698D01*
X9239229Y-15699698D02*
X9229705Y-15709222D01*
X9229705Y-15709222D02*
X9220182Y-15699698D01*
X9220182Y-15699698D02*
X9229705Y-15690174D01*
X9229705Y-15690174D02*
X9229705Y-15709222D01*
M02*
