%TF.GenerationSoftware,KiCad,Pcbnew,8.0.6*%
%TF.CreationDate,2024-12-18T16:53:39-05:00*%
%TF.ProjectId,hexapod,68657861-706f-4642-9e6b-696361645f70,rev?*%
%TF.SameCoordinates,Original*%
%TF.FileFunction,Copper,L1,Top*%
%TF.FilePolarity,Positive*%
%FSLAX46Y46*%
G04 Gerber Fmt 4.6, Leading zero omitted, Abs format (unit mm)*
G04 Created by KiCad (PCBNEW 8.0.6) date 2024-12-18 16:53:39*
%MOMM*%
%LPD*%
G01*
G04 APERTURE LIST*
%TA.AperFunction,ComponentPad*%
%ADD10R,2.800000X2.800000*%
%TD*%
%TA.AperFunction,ComponentPad*%
%ADD11C,2.800000*%
%TD*%
%TA.AperFunction,ComponentPad*%
%ADD12R,1.700000X1.700000*%
%TD*%
%TA.AperFunction,ComponentPad*%
%ADD13O,1.700000X1.700000*%
%TD*%
%TA.AperFunction,ComponentPad*%
%ADD14R,2.000000X2.000000*%
%TD*%
%TA.AperFunction,ComponentPad*%
%ADD15O,2.000000X2.000000*%
%TD*%
%TA.AperFunction,ComponentPad*%
%ADD16C,1.700000*%
%TD*%
%TA.AperFunction,SMDPad,CuDef*%
%ADD17R,3.500000X1.700000*%
%TD*%
%TA.AperFunction,SMDPad,CuDef*%
%ADD18R,1.700000X3.500000*%
%TD*%
%TA.AperFunction,ViaPad*%
%ADD19C,3.500000*%
%TD*%
%TA.AperFunction,Conductor*%
%ADD20C,0.500000*%
%TD*%
%TA.AperFunction,Conductor*%
%ADD21C,1.000000*%
%TD*%
%TA.AperFunction,Conductor*%
%ADD22C,2.000000*%
%TD*%
G04 APERTURE END LIST*
D10*
%TO.P,J19,1,Pin_1*%
%TO.N,/power*%
X98000000Y-50750000D03*
D11*
%TO.P,J19,2,Pin_2*%
%TO.N,GND*%
X103000000Y-50750000D03*
%TD*%
D12*
%TO.P,J16,1,Pin_1*%
%TO.N,/r3_j1*%
X116250000Y-117000000D03*
D13*
%TO.P,J16,2,Pin_2*%
%TO.N,/power_r3*%
X118790000Y-117000000D03*
%TO.P,J16,3,Pin_3*%
%TO.N,GND*%
X121330000Y-117000000D03*
%TD*%
D12*
%TO.P,J18,1,Pin_1*%
%TO.N,/r3_j3*%
X116250000Y-125000000D03*
D13*
%TO.P,J18,2,Pin_2*%
%TO.N,/power_r3*%
X118790000Y-125000000D03*
%TO.P,J18,3,Pin_3*%
%TO.N,GND*%
X121330000Y-125000000D03*
%TD*%
D14*
%TO.P,D1,1,K*%
%TO.N,Net-(D1-K)*%
X105000000Y-70500000D03*
D15*
%TO.P,D1,2,A*%
%TO.N,Net-(D1-A)*%
X94840000Y-70500000D03*
%TD*%
D12*
%TO.P,U4,1,+input*%
%TO.N,/power*%
X87500000Y-145850000D03*
D16*
%TO.P,U4,2,-input*%
%TO.N,GND*%
X78500000Y-145850000D03*
%TO.P,U4,3,+output*%
%TO.N,/power_l3*%
X87500000Y-130250000D03*
%TO.P,U4,4,-output*%
%TO.N,GND*%
X78500000Y-130250000D03*
%TD*%
D12*
%TO.P,U7,1,+input*%
%TO.N,/power*%
X121500000Y-145850000D03*
D16*
%TO.P,U7,2,-input*%
%TO.N,GND*%
X112500000Y-145850000D03*
%TO.P,U7,3,+output*%
%TO.N,/power_r3*%
X121500000Y-130250000D03*
%TO.P,U7,4,-output*%
%TO.N,GND*%
X112500000Y-130250000D03*
%TD*%
D12*
%TO.P,J10,1,Pin_1*%
%TO.N,/r1_j1*%
X116250000Y-75500000D03*
D13*
%TO.P,J10,2,Pin_2*%
%TO.N,/power_r1*%
X118790000Y-75500000D03*
%TO.P,J10,3,Pin_3*%
%TO.N,GND*%
X121330000Y-75500000D03*
%TD*%
D12*
%TO.P,J3,1,Pin_1*%
%TO.N,/l1_j3*%
X83750000Y-84000000D03*
D13*
%TO.P,J3,2,Pin_2*%
%TO.N,/power_l1*%
X81210000Y-84000000D03*
%TO.P,J3,3,Pin_3*%
%TO.N,GND*%
X78670000Y-84000000D03*
%TD*%
D12*
%TO.P,U5,1,+input*%
%TO.N,/power*%
X112500000Y-54900000D03*
D16*
%TO.P,U5,2,-input*%
%TO.N,GND*%
X121500000Y-54900000D03*
%TO.P,U5,3,+output*%
%TO.N,/power_r1*%
X112500000Y-70500000D03*
%TO.P,U5,4,-output*%
%TO.N,GND*%
X121500000Y-70500000D03*
%TD*%
D12*
%TO.P,J13,1,Pin_1*%
%TO.N,/r2_j1*%
X116250000Y-96000000D03*
D13*
%TO.P,J13,2,Pin_2*%
%TO.N,/power_r2*%
X118790000Y-96000000D03*
%TO.P,J13,3,Pin_3*%
%TO.N,GND*%
X121330000Y-96000000D03*
%TD*%
D12*
%TO.P,J1,1,Pin_1*%
%TO.N,/l1_j1*%
X83750000Y-76000000D03*
D13*
%TO.P,J1,2,Pin_2*%
%TO.N,/power_l1*%
X81210000Y-76000000D03*
%TO.P,J1,3,Pin_3*%
%TO.N,GND*%
X78670000Y-76000000D03*
%TD*%
D12*
%TO.P,U2,1,+input*%
%TO.N,/power*%
X78500000Y-54900000D03*
D16*
%TO.P,U2,2,-input*%
%TO.N,GND*%
X87500000Y-54900000D03*
%TO.P,U2,3,+output*%
%TO.N,/power_l1*%
X78500000Y-70500000D03*
%TO.P,U2,4,-output*%
%TO.N,GND*%
X87500000Y-70500000D03*
%TD*%
D12*
%TO.P,J11,1,Pin_1*%
%TO.N,/r1_j2*%
X116250000Y-79500000D03*
D13*
%TO.P,J11,2,Pin_2*%
%TO.N,/power_r1*%
X118790000Y-79500000D03*
%TO.P,J11,3,Pin_3*%
%TO.N,GND*%
X121330000Y-79500000D03*
%TD*%
D12*
%TO.P,U3,1,+input*%
%TO.N,/power*%
X107750000Y-130000000D03*
D16*
%TO.P,U3,2,-input*%
%TO.N,GND*%
X107750000Y-139000000D03*
%TO.P,U3,3,+output*%
%TO.N,/power_l2*%
X92150000Y-130000000D03*
%TO.P,U3,4,-output*%
%TO.N,GND*%
X92150000Y-139000000D03*
%TD*%
D12*
%TO.P,J4,1,Pin_1*%
%TO.N,/l2_j1*%
X83750000Y-96000000D03*
D13*
%TO.P,J4,2,Pin_2*%
%TO.N,/power_l2*%
X81210000Y-96000000D03*
%TO.P,J4,3,Pin_3*%
%TO.N,GND*%
X78670000Y-96000000D03*
%TD*%
D12*
%TO.P,U8,1,+input*%
%TO.N,/power*%
X107750000Y-57500000D03*
D16*
%TO.P,U8,2,-input*%
%TO.N,GND*%
X107750000Y-66500000D03*
%TO.P,U8,3,+output*%
%TO.N,Net-(D1-A)*%
X92150000Y-57500000D03*
%TO.P,U8,4,-output*%
%TO.N,GND*%
X92150000Y-66500000D03*
%TD*%
D12*
%TO.P,J6,1,Pin_1*%
%TO.N,/l2_j3*%
X83750000Y-104000000D03*
D13*
%TO.P,J6,2,Pin_2*%
%TO.N,/power_l2*%
X81210000Y-104000000D03*
%TO.P,J6,3,Pin_3*%
%TO.N,GND*%
X78670000Y-104000000D03*
%TD*%
D12*
%TO.P,U6,1,+input*%
%TO.N,/power*%
X92050000Y-151850000D03*
D16*
%TO.P,U6,2,-input*%
%TO.N,GND*%
X92050000Y-142850000D03*
%TO.P,U6,3,+output*%
%TO.N,/power_r2*%
X107650000Y-151850000D03*
%TO.P,U6,4,-output*%
%TO.N,GND*%
X107650000Y-142850000D03*
%TD*%
D12*
%TO.P,J9,1,Pin_1*%
%TO.N,/l3_j3*%
X83750000Y-125000000D03*
D13*
%TO.P,J9,2,Pin_2*%
%TO.N,/power_l3*%
X81210000Y-125000000D03*
%TO.P,J9,3,Pin_3*%
%TO.N,GND*%
X78670000Y-125000000D03*
%TD*%
D12*
%TO.P,J8,1,Pin_1*%
%TO.N,/l3_j2*%
X83750000Y-121000000D03*
D13*
%TO.P,J8,2,Pin_2*%
%TO.N,/power_l3*%
X81210000Y-121000000D03*
%TO.P,J8,3,Pin_3*%
%TO.N,GND*%
X78670000Y-121000000D03*
%TD*%
D12*
%TO.P,J2,1,Pin_1*%
%TO.N,/l1_j2*%
X83750000Y-80000000D03*
D13*
%TO.P,J2,2,Pin_2*%
%TO.N,/power_l1*%
X81210000Y-80000000D03*
%TO.P,J2,3,Pin_3*%
%TO.N,GND*%
X78670000Y-80000000D03*
%TD*%
%TO.P,U1,1,GPIO0*%
%TO.N,/l1_j1*%
X91110000Y-75870000D03*
D17*
X90210000Y-75870000D03*
D13*
%TO.P,U1,2,GPIO1*%
%TO.N,/l1_j2*%
X91110000Y-78410000D03*
D17*
X90210000Y-78410000D03*
D12*
%TO.P,U1,3,GND*%
%TO.N,GND*%
X91110000Y-80950000D03*
D17*
X90210000Y-80950000D03*
D13*
%TO.P,U1,4,GPIO2*%
%TO.N,/l1_j3*%
X91110000Y-83490000D03*
D17*
X90210000Y-83490000D03*
D13*
%TO.P,U1,5,GPIO3*%
%TO.N,unconnected-(U1-GPIO3-Pad5)*%
X91110000Y-86030000D03*
D17*
X90210000Y-86030000D03*
D13*
%TO.P,U1,6,GPIO4*%
%TO.N,unconnected-(U1-GPIO4-Pad6)*%
X91110000Y-88570000D03*
D17*
X90210000Y-88570000D03*
D13*
%TO.P,U1,7,GPIO5*%
%TO.N,unconnected-(U1-GPIO5-Pad7)*%
X91110000Y-91110000D03*
D17*
X90210000Y-91110000D03*
D12*
%TO.P,U1,8,GND*%
%TO.N,GND*%
X91110000Y-93650000D03*
D17*
X90210000Y-93650000D03*
D13*
%TO.P,U1,9,GPIO6*%
%TO.N,/l2_j1*%
X91110000Y-96190000D03*
D17*
X90210000Y-96190000D03*
D13*
%TO.P,U1,10,GPIO7*%
%TO.N,/l2_j2*%
X91110000Y-98730000D03*
D17*
X90210000Y-98730000D03*
D13*
%TO.P,U1,11,GPIO8*%
%TO.N,/l2_j3*%
X91110000Y-101270000D03*
D17*
X90210000Y-101270000D03*
D13*
%TO.P,U1,12,GPIO9*%
%TO.N,unconnected-(U1-GPIO9-Pad12)*%
X91110000Y-103810000D03*
D17*
X90210000Y-103810000D03*
D12*
%TO.P,U1,13,GND*%
%TO.N,GND*%
X91110000Y-106350000D03*
D17*
X90210000Y-106350000D03*
D13*
%TO.P,U1,14,GPIO10*%
%TO.N,unconnected-(U1-GPIO10-Pad14)*%
X91110000Y-108890000D03*
D17*
X90210000Y-108890000D03*
D13*
%TO.P,U1,15,GPIO11*%
%TO.N,unconnected-(U1-GPIO11-Pad15)*%
X91110000Y-111430000D03*
D17*
X90210000Y-111430000D03*
D13*
%TO.P,U1,16,GPIO12*%
%TO.N,unconnected-(U1-GPIO12-Pad16)*%
X91110000Y-113970000D03*
D17*
X90210000Y-113970000D03*
D13*
%TO.P,U1,17,GPIO13*%
%TO.N,/l3_j1*%
X91110000Y-116510000D03*
D17*
X90210000Y-116510000D03*
D12*
%TO.P,U1,18,GND*%
%TO.N,GND*%
X91110000Y-119050000D03*
D17*
X90210000Y-119050000D03*
D13*
%TO.P,U1,19,GPIO14*%
%TO.N,/l3_j2*%
X91110000Y-121590000D03*
D17*
X90210000Y-121590000D03*
D13*
%TO.P,U1,20,GPIO15*%
%TO.N,/l3_j3*%
X91110000Y-124130000D03*
D17*
X90210000Y-124130000D03*
D13*
%TO.P,U1,21,GPIO16*%
%TO.N,/r3_j3*%
X108890000Y-124130000D03*
D17*
X109790000Y-124130000D03*
D13*
%TO.P,U1,22,GPIO17*%
%TO.N,/r3_j2*%
X108890000Y-121590000D03*
D17*
X109790000Y-121590000D03*
D12*
%TO.P,U1,23,GND*%
%TO.N,GND*%
X108890000Y-119050000D03*
D17*
X109790000Y-119050000D03*
D13*
%TO.P,U1,24,GPIO18*%
%TO.N,/r3_j1*%
X108890000Y-116510000D03*
D17*
X109790000Y-116510000D03*
D13*
%TO.P,U1,25,GPIO19*%
%TO.N,/r2_j3*%
X108890000Y-113970000D03*
D17*
X109790000Y-113970000D03*
D13*
%TO.P,U1,26,GPIO20*%
%TO.N,/r2_j2*%
X108890000Y-111430000D03*
D17*
X109790000Y-111430000D03*
D13*
%TO.P,U1,27,GPIO21*%
%TO.N,/r2_j1*%
X108890000Y-108890000D03*
D17*
X109790000Y-108890000D03*
D12*
%TO.P,U1,28,GND*%
%TO.N,GND*%
X108890000Y-106350000D03*
D17*
X109790000Y-106350000D03*
D13*
%TO.P,U1,29,GPIO22*%
%TO.N,/r1_j3*%
X108890000Y-103810000D03*
D17*
X109790000Y-103810000D03*
D13*
%TO.P,U1,30,RUN*%
%TO.N,unconnected-(U1-RUN-Pad30)*%
X108890000Y-101270000D03*
D17*
X109790000Y-101270000D03*
D13*
%TO.P,U1,31,GPIO26_ADC0*%
%TO.N,/r1_j2*%
X108890000Y-98730000D03*
D17*
X109790000Y-98730000D03*
D13*
%TO.P,U1,32,GPIO27_ADC1*%
%TO.N,/r1_j1*%
X108890000Y-96190000D03*
D17*
X109790000Y-96190000D03*
D12*
%TO.P,U1,33,AGND*%
%TO.N,GND*%
X108890000Y-93650000D03*
D17*
X109790000Y-93650000D03*
D13*
%TO.P,U1,34,GPIO28_ADC2*%
%TO.N,unconnected-(U1-GPIO28_ADC2-Pad34)*%
X108890000Y-91110000D03*
D17*
X109790000Y-91110000D03*
D13*
%TO.P,U1,35,ADC_VREF*%
%TO.N,unconnected-(U1-ADC_VREF-Pad35)*%
X108890000Y-88570000D03*
D17*
X109790000Y-88570000D03*
D13*
%TO.P,U1,36,3V3*%
%TO.N,unconnected-(U1-3V3-Pad36)*%
X108890000Y-86030000D03*
D17*
X109790000Y-86030000D03*
D13*
%TO.P,U1,37,3V3_EN*%
%TO.N,unconnected-(U1-3V3_EN-Pad37)*%
X108890000Y-83490000D03*
D17*
X109790000Y-83490000D03*
D12*
%TO.P,U1,38,GND*%
%TO.N,GND*%
X108890000Y-80950000D03*
D17*
X109790000Y-80950000D03*
D13*
%TO.P,U1,39,VSYS*%
%TO.N,Net-(D1-K)*%
X108890000Y-78410000D03*
D17*
X109790000Y-78410000D03*
D13*
%TO.P,U1,40,VBUS*%
%TO.N,unconnected-(U1-VBUS-Pad40)*%
X108890000Y-75870000D03*
D17*
X109790000Y-75870000D03*
D13*
%TO.P,U1,41,SWCLK*%
%TO.N,unconnected-(U1-SWCLK-Pad41)*%
X97460000Y-123900000D03*
D18*
X97460000Y-124800000D03*
D12*
%TO.P,U1,42,GND*%
%TO.N,unconnected-(U1-GND-Pad42)*%
X100000000Y-123900000D03*
D18*
X100000000Y-124800000D03*
D13*
%TO.P,U1,43,SWDIO*%
%TO.N,unconnected-(U1-SWDIO-Pad43)*%
X102540000Y-123900000D03*
D18*
X102540000Y-124800000D03*
%TD*%
D12*
%TO.P,J5,1,Pin_1*%
%TO.N,/l2_j2*%
X83750000Y-100000000D03*
D13*
%TO.P,J5,2,Pin_2*%
%TO.N,/power_l2*%
X81210000Y-100000000D03*
%TO.P,J5,3,Pin_3*%
%TO.N,GND*%
X78670000Y-100000000D03*
%TD*%
D12*
%TO.P,J12,1,Pin_1*%
%TO.N,/r1_j3*%
X116250000Y-83500000D03*
D13*
%TO.P,J12,2,Pin_2*%
%TO.N,/power_r1*%
X118790000Y-83500000D03*
%TO.P,J12,3,Pin_3*%
%TO.N,GND*%
X121330000Y-83500000D03*
%TD*%
D12*
%TO.P,J15,1,Pin_1*%
%TO.N,/r2_j3*%
X116250000Y-104000000D03*
D13*
%TO.P,J15,2,Pin_2*%
%TO.N,/power_r2*%
X118790000Y-104000000D03*
%TO.P,J15,3,Pin_3*%
%TO.N,GND*%
X121330000Y-104000000D03*
%TD*%
D12*
%TO.P,J7,1,Pin_1*%
%TO.N,/l3_j1*%
X83750000Y-117000000D03*
D13*
%TO.P,J7,2,Pin_2*%
%TO.N,/power_l3*%
X81210000Y-117000000D03*
%TO.P,J7,3,Pin_3*%
%TO.N,GND*%
X78670000Y-117000000D03*
%TD*%
D12*
%TO.P,J17,1,Pin_1*%
%TO.N,/r3_j2*%
X116250000Y-121000000D03*
D13*
%TO.P,J17,2,Pin_2*%
%TO.N,/power_r3*%
X118790000Y-121000000D03*
%TO.P,J17,3,Pin_3*%
%TO.N,GND*%
X121330000Y-121000000D03*
%TD*%
D12*
%TO.P,J14,1,Pin_1*%
%TO.N,/r2_j2*%
X116250000Y-100000000D03*
D13*
%TO.P,J14,2,Pin_2*%
%TO.N,/power_r2*%
X118790000Y-100000000D03*
%TO.P,J14,3,Pin_3*%
%TO.N,GND*%
X121330000Y-100000000D03*
%TD*%
D19*
%TO.N,GND*%
X115500000Y-150500000D03*
X84500000Y-49500000D03*
X115500000Y-49500000D03*
X84500000Y-150500000D03*
%TD*%
D20*
%TO.N,/l1_j1*%
X88000000Y-76000000D02*
X83750000Y-76000000D01*
X91110000Y-75870000D02*
X88130000Y-75870000D01*
X88130000Y-75870000D02*
X88000000Y-76000000D01*
%TO.N,/l1_j2*%
X86500000Y-80000000D02*
X83750000Y-80000000D01*
X91110000Y-78410000D02*
X88090000Y-78410000D01*
X88090000Y-78410000D02*
X86500000Y-80000000D01*
%TO.N,/l1_j3*%
X90010000Y-83490000D02*
X89500000Y-84000000D01*
X91110000Y-83490000D02*
X90010000Y-83490000D01*
X89500000Y-84000000D02*
X83750000Y-84000000D01*
%TO.N,/l3_j1*%
X91110000Y-116510000D02*
X84240000Y-116510000D01*
X84240000Y-116510000D02*
X83750000Y-117000000D01*
%TO.N,/l2_j3*%
X91110000Y-101270000D02*
X88480000Y-101270000D01*
X88480000Y-101270000D02*
X85750000Y-104000000D01*
X85750000Y-104000000D02*
X83750000Y-104000000D01*
%TO.N,/l2_j1*%
X87500000Y-96000000D02*
X83750000Y-96000000D01*
X91110000Y-96190000D02*
X87690000Y-96190000D01*
X87690000Y-96190000D02*
X87500000Y-96000000D01*
%TO.N,/l3_j3*%
X91110000Y-124130000D02*
X89880000Y-124130000D01*
X89010000Y-125000000D02*
X83750000Y-125000000D01*
X89880000Y-124130000D02*
X89010000Y-125000000D01*
%TO.N,/l2_j2*%
X85020000Y-98730000D02*
X83750000Y-100000000D01*
X91110000Y-98730000D02*
X85020000Y-98730000D01*
%TO.N,/l3_j2*%
X87840000Y-121590000D02*
X87250000Y-121000000D01*
X91110000Y-121590000D02*
X87840000Y-121590000D01*
X87250000Y-121000000D02*
X83750000Y-121000000D01*
%TO.N,/r2_j1*%
X115250000Y-96000000D02*
X116250000Y-96000000D01*
X111360000Y-108890000D02*
X113500000Y-106750000D01*
X108890000Y-108890000D02*
X111360000Y-108890000D01*
X113500000Y-97750000D02*
X115250000Y-96000000D01*
X113500000Y-106750000D02*
X113500000Y-97750000D01*
%TO.N,/r2_j2*%
X108890000Y-111430000D02*
X111570000Y-111430000D01*
X114500000Y-108500000D02*
X114500000Y-101750000D01*
X111570000Y-111430000D02*
X114500000Y-108500000D01*
X114500000Y-101750000D02*
X116250000Y-100000000D01*
%TO.N,/r2_j3*%
X115500000Y-104750000D02*
X116250000Y-104000000D01*
X112030000Y-113970000D02*
X115500000Y-110500000D01*
X108890000Y-113970000D02*
X112030000Y-113970000D01*
X115500000Y-110500000D02*
X115500000Y-104750000D01*
%TO.N,/r3_j1*%
X115760000Y-116510000D02*
X116250000Y-117000000D01*
X108890000Y-116510000D02*
X115760000Y-116510000D01*
%TO.N,/r3_j2*%
X108890000Y-121590000D02*
X115660000Y-121590000D01*
X115660000Y-121590000D02*
X116250000Y-121000000D01*
%TO.N,/r3_j3*%
X108890000Y-124130000D02*
X109760000Y-125000000D01*
X109760000Y-125000000D02*
X116250000Y-125000000D01*
D21*
%TO.N,/power_r1*%
X118790000Y-79500000D02*
X118790000Y-75500000D01*
X118790000Y-83500000D02*
X118790000Y-79500000D01*
X112500000Y-70500000D02*
X116250000Y-70500000D01*
X118790000Y-73040000D02*
X118790000Y-75500000D01*
X116250000Y-70500000D02*
X118790000Y-73040000D01*
%TO.N,/power_r3*%
X118790000Y-127540000D02*
X118790000Y-125000000D01*
X118790000Y-121000000D02*
X118790000Y-125000000D01*
X121500000Y-130250000D02*
X118790000Y-127540000D01*
X118790000Y-121000000D02*
X118790000Y-117000000D01*
D22*
%TO.N,/power*%
X92050000Y-150400000D02*
X87500000Y-145850000D01*
X94250000Y-127500000D02*
X94250000Y-75750000D01*
X107750000Y-133300000D02*
X107750000Y-130000000D01*
X107750000Y-62250000D02*
X107750000Y-57500000D01*
X98000000Y-57500000D02*
X97750000Y-57250000D01*
X98000000Y-57000000D02*
X98000000Y-50750000D01*
X92050000Y-149000000D02*
X107750000Y-133300000D01*
X94700000Y-60300000D02*
X97750000Y-57250000D01*
X109900000Y-57500000D02*
X112500000Y-54900000D01*
X92050000Y-151850000D02*
X92050000Y-149000000D01*
X107750000Y-57500000D02*
X98000000Y-57500000D01*
X107750000Y-57500000D02*
X109900000Y-57500000D01*
X121500000Y-145850000D02*
X120300000Y-145850000D01*
X120300000Y-145850000D02*
X107750000Y-133300000D01*
X94250000Y-75750000D02*
X107750000Y-62250000D01*
X107750000Y-130000000D02*
X96750000Y-130000000D01*
X83900000Y-60300000D02*
X94700000Y-60300000D01*
X97750000Y-57250000D02*
X98000000Y-57000000D01*
X78500000Y-54900000D02*
X83900000Y-60300000D01*
X96750000Y-130000000D02*
X94250000Y-127500000D01*
X92050000Y-151850000D02*
X92050000Y-150400000D01*
D21*
%TO.N,/power_l1*%
X81210000Y-84000000D02*
X81210000Y-80000000D01*
X81210000Y-73210000D02*
X81210000Y-76000000D01*
X81210000Y-76000000D02*
X81210000Y-80000000D01*
X78500000Y-70500000D02*
X81210000Y-73210000D01*
%TO.N,/power_l3*%
X81210000Y-121000000D02*
X81210000Y-125000000D01*
X83250000Y-130250000D02*
X87500000Y-130250000D01*
X81210000Y-128210000D02*
X83250000Y-130250000D01*
X81210000Y-128210000D02*
X81210000Y-125000000D01*
X81210000Y-117000000D02*
X81210000Y-121000000D01*
%TD*%
%TA.AperFunction,Conductor*%
%TO.N,GND*%
G36*
X121003736Y-45500726D02*
G01*
X121293796Y-45518271D01*
X121308659Y-45520076D01*
X121590798Y-45571780D01*
X121605335Y-45575363D01*
X121879172Y-45660695D01*
X121893163Y-45666000D01*
X122154743Y-45783727D01*
X122167989Y-45790680D01*
X122413465Y-45939075D01*
X122425776Y-45947573D01*
X122651573Y-46124473D01*
X122662781Y-46134403D01*
X122865596Y-46337218D01*
X122875526Y-46348426D01*
X122995481Y-46501538D01*
X123052422Y-46574217D01*
X123060928Y-46586540D01*
X123209316Y-46832004D01*
X123216275Y-46845263D01*
X123333997Y-47106831D01*
X123339306Y-47120832D01*
X123424635Y-47394663D01*
X123428219Y-47409201D01*
X123479923Y-47691340D01*
X123481728Y-47706205D01*
X123499274Y-47996263D01*
X123499500Y-48003750D01*
X123499500Y-151996249D01*
X123499274Y-152003736D01*
X123481728Y-152293794D01*
X123479923Y-152308659D01*
X123428219Y-152590798D01*
X123424635Y-152605336D01*
X123339306Y-152879167D01*
X123333997Y-152893168D01*
X123216275Y-153154736D01*
X123209316Y-153167995D01*
X123060928Y-153413459D01*
X123052422Y-153425782D01*
X122875526Y-153651573D01*
X122865596Y-153662781D01*
X122662781Y-153865596D01*
X122651573Y-153875526D01*
X122425782Y-154052422D01*
X122413459Y-154060928D01*
X122167995Y-154209316D01*
X122154736Y-154216275D01*
X121893168Y-154333997D01*
X121879167Y-154339306D01*
X121605336Y-154424635D01*
X121590798Y-154428219D01*
X121308659Y-154479923D01*
X121293794Y-154481728D01*
X121003736Y-154499274D01*
X120996249Y-154499500D01*
X79003751Y-154499500D01*
X78996264Y-154499274D01*
X78706205Y-154481728D01*
X78691340Y-154479923D01*
X78409201Y-154428219D01*
X78394663Y-154424635D01*
X78120832Y-154339306D01*
X78106831Y-154333997D01*
X77845263Y-154216275D01*
X77832004Y-154209316D01*
X77586540Y-154060928D01*
X77574217Y-154052422D01*
X77348426Y-153875526D01*
X77337218Y-153865596D01*
X77134403Y-153662781D01*
X77124473Y-153651573D01*
X76947573Y-153425776D01*
X76939075Y-153413465D01*
X76790680Y-153167989D01*
X76783727Y-153154743D01*
X76666000Y-152893163D01*
X76660693Y-152879167D01*
X76638356Y-152807486D01*
X76575363Y-152605335D01*
X76571780Y-152590798D01*
X76561445Y-152534400D01*
X76520075Y-152308657D01*
X76518271Y-152293794D01*
X76500726Y-152003736D01*
X76500500Y-151996249D01*
X76500500Y-116999999D01*
X79854341Y-116999999D01*
X79854341Y-117000000D01*
X79874936Y-117235403D01*
X79874938Y-117235413D01*
X79936094Y-117463655D01*
X79936096Y-117463659D01*
X79936097Y-117463663D01*
X80000758Y-117602328D01*
X80035965Y-117677830D01*
X80035967Y-117677834D01*
X80063774Y-117717546D01*
X80167484Y-117865659D01*
X80171501Y-117871395D01*
X80171506Y-117871402D01*
X80173181Y-117873077D01*
X80173682Y-117873995D01*
X80174982Y-117875544D01*
X80174670Y-117875805D01*
X80206666Y-117934400D01*
X80209500Y-117960758D01*
X80209500Y-120039241D01*
X80189815Y-120106280D01*
X80173181Y-120126922D01*
X80171505Y-120128597D01*
X80035965Y-120322169D01*
X80035964Y-120322171D01*
X79936098Y-120536335D01*
X79936094Y-120536344D01*
X79874938Y-120764586D01*
X79874936Y-120764596D01*
X79854341Y-120999999D01*
X79854341Y-121000000D01*
X79874936Y-121235403D01*
X79874938Y-121235413D01*
X79936094Y-121463655D01*
X79936096Y-121463659D01*
X79936097Y-121463663D01*
X80025032Y-121654385D01*
X80035965Y-121677830D01*
X80035967Y-121677834D01*
X80171501Y-121871395D01*
X80171506Y-121871402D01*
X80173181Y-121873077D01*
X80173682Y-121873995D01*
X80174982Y-121875544D01*
X80174670Y-121875805D01*
X80206666Y-121934400D01*
X80209500Y-121960758D01*
X80209500Y-124039241D01*
X80189815Y-124106280D01*
X80173181Y-124126922D01*
X80171505Y-124128597D01*
X80035965Y-124322169D01*
X80035964Y-124322171D01*
X79936098Y-124536335D01*
X79936094Y-124536344D01*
X79874938Y-124764586D01*
X79874936Y-124764596D01*
X79854341Y-124999999D01*
X79854341Y-125000000D01*
X79874936Y-125235403D01*
X79874938Y-125235413D01*
X79936094Y-125463655D01*
X79936096Y-125463659D01*
X79936097Y-125463663D01*
X80014681Y-125632186D01*
X80035965Y-125677830D01*
X80035967Y-125677834D01*
X80171501Y-125871395D01*
X80171506Y-125871402D01*
X80173181Y-125873077D01*
X80173682Y-125873995D01*
X80174982Y-125875544D01*
X80174670Y-125875805D01*
X80206666Y-125934400D01*
X80209500Y-125960758D01*
X80209500Y-128308544D01*
X80247481Y-128499488D01*
X80247948Y-128501834D01*
X80247948Y-128501836D01*
X80323364Y-128683907D01*
X80323371Y-128683920D01*
X80432859Y-128847780D01*
X80432860Y-128847781D01*
X80432861Y-128847782D01*
X80572218Y-128987139D01*
X80572219Y-128987139D01*
X80579286Y-128994206D01*
X80579285Y-128994206D01*
X80579289Y-128994209D01*
X82612215Y-131027137D01*
X82612219Y-131027140D01*
X82776079Y-131136628D01*
X82776088Y-131136633D01*
X82795122Y-131144517D01*
X82958165Y-131212052D01*
X83119389Y-131244121D01*
X83151457Y-131250499D01*
X83151458Y-131250500D01*
X83151459Y-131250500D01*
X83151460Y-131250500D01*
X83348541Y-131250500D01*
X86539242Y-131250500D01*
X86606281Y-131270185D01*
X86626923Y-131286819D01*
X86628599Y-131288495D01*
X86695102Y-131335061D01*
X86822165Y-131424032D01*
X86822167Y-131424033D01*
X86822170Y-131424035D01*
X87036337Y-131523903D01*
X87264592Y-131585063D01*
X87452918Y-131601539D01*
X87499999Y-131605659D01*
X87500000Y-131605659D01*
X87500001Y-131605659D01*
X87539234Y-131602226D01*
X87735408Y-131585063D01*
X87963663Y-131523903D01*
X88177830Y-131424035D01*
X88371401Y-131288495D01*
X88538495Y-131121401D01*
X88674035Y-130927830D01*
X88773903Y-130713663D01*
X88835063Y-130485408D01*
X88855659Y-130250000D01*
X88835063Y-130014592D01*
X88831153Y-129999999D01*
X90794341Y-129999999D01*
X90794341Y-130000000D01*
X90814936Y-130235403D01*
X90814938Y-130235413D01*
X90876094Y-130463655D01*
X90876096Y-130463659D01*
X90876097Y-130463663D01*
X90975965Y-130677830D01*
X90975967Y-130677834D01*
X91001056Y-130713664D01*
X91111505Y-130871401D01*
X91278599Y-131038495D01*
X91375384Y-131106265D01*
X91472165Y-131174032D01*
X91472167Y-131174033D01*
X91472170Y-131174035D01*
X91686337Y-131273903D01*
X91914592Y-131335063D01*
X92102918Y-131351539D01*
X92149999Y-131355659D01*
X92150000Y-131355659D01*
X92150001Y-131355659D01*
X92189234Y-131352226D01*
X92385408Y-131335063D01*
X92613663Y-131273903D01*
X92827830Y-131174035D01*
X93021401Y-131038495D01*
X93188495Y-130871401D01*
X93324035Y-130677830D01*
X93423903Y-130463663D01*
X93485063Y-130235408D01*
X93505659Y-130000000D01*
X93485063Y-129764592D01*
X93423903Y-129536337D01*
X93324035Y-129322171D01*
X93273151Y-129249500D01*
X93188494Y-129128597D01*
X93021402Y-128961506D01*
X93021395Y-128961501D01*
X92827834Y-128825967D01*
X92827830Y-128825965D01*
X92827828Y-128825964D01*
X92613663Y-128726097D01*
X92613659Y-128726096D01*
X92613655Y-128726094D01*
X92385413Y-128664938D01*
X92385403Y-128664936D01*
X92150001Y-128644341D01*
X92149999Y-128644341D01*
X91914596Y-128664936D01*
X91914586Y-128664938D01*
X91686344Y-128726094D01*
X91686335Y-128726098D01*
X91472171Y-128825964D01*
X91472169Y-128825965D01*
X91278597Y-128961505D01*
X91111505Y-129128597D01*
X90975965Y-129322169D01*
X90975964Y-129322171D01*
X90876098Y-129536335D01*
X90876094Y-129536344D01*
X90814938Y-129764586D01*
X90814936Y-129764596D01*
X90794341Y-129999999D01*
X88831153Y-129999999D01*
X88773903Y-129786337D01*
X88674035Y-129572171D01*
X88648943Y-129536335D01*
X88538494Y-129378597D01*
X88371402Y-129211506D01*
X88371395Y-129211501D01*
X88177834Y-129075967D01*
X88177830Y-129075965D01*
X88177828Y-129075964D01*
X87963663Y-128976097D01*
X87963659Y-128976096D01*
X87963655Y-128976094D01*
X87735413Y-128914938D01*
X87735403Y-128914936D01*
X87500001Y-128894341D01*
X87499999Y-128894341D01*
X87264596Y-128914936D01*
X87264586Y-128914938D01*
X87036344Y-128976094D01*
X87036335Y-128976098D01*
X86822171Y-129075964D01*
X86822169Y-129075965D01*
X86628597Y-129211505D01*
X86626922Y-129213181D01*
X86626000Y-129213684D01*
X86624449Y-129214986D01*
X86624187Y-129214674D01*
X86565599Y-129246666D01*
X86539241Y-129249500D01*
X83715783Y-129249500D01*
X83648744Y-129229815D01*
X83628102Y-129213181D01*
X82246819Y-127831898D01*
X82213334Y-127770575D01*
X82210500Y-127744217D01*
X82210500Y-126120859D01*
X82230185Y-126053820D01*
X82282989Y-126008065D01*
X82352147Y-125998121D01*
X82415703Y-126027146D01*
X82450681Y-126077525D01*
X82453921Y-126086211D01*
X82456204Y-126092332D01*
X82456206Y-126092335D01*
X82542452Y-126207544D01*
X82542455Y-126207547D01*
X82657664Y-126293793D01*
X82657671Y-126293797D01*
X82792517Y-126344091D01*
X82792516Y-126344091D01*
X82799444Y-126344835D01*
X82852127Y-126350500D01*
X84647872Y-126350499D01*
X84707483Y-126344091D01*
X84842331Y-126293796D01*
X84957546Y-126207546D01*
X85043796Y-126092331D01*
X85094091Y-125957483D01*
X85100500Y-125897873D01*
X85100500Y-125874500D01*
X85120185Y-125807461D01*
X85172989Y-125761706D01*
X85224500Y-125750500D01*
X89083920Y-125750500D01*
X89181462Y-125731096D01*
X89228913Y-125721658D01*
X89365495Y-125665084D01*
X89414729Y-125632186D01*
X89414734Y-125632183D01*
X89439181Y-125615848D01*
X89488416Y-125582952D01*
X89554549Y-125516817D01*
X89615872Y-125483333D01*
X89642231Y-125480499D01*
X91045612Y-125480499D01*
X91056420Y-125480971D01*
X91109999Y-125485659D01*
X91110000Y-125485659D01*
X91110001Y-125485659D01*
X91163580Y-125480971D01*
X91174388Y-125480499D01*
X92007871Y-125480499D01*
X92007872Y-125480499D01*
X92067483Y-125474091D01*
X92202331Y-125423796D01*
X92317546Y-125337546D01*
X92403796Y-125222331D01*
X92454091Y-125087483D01*
X92460500Y-125027873D01*
X92460499Y-124194383D01*
X92460971Y-124183576D01*
X92461546Y-124177011D01*
X92465659Y-124130000D01*
X92465536Y-124128599D01*
X92460971Y-124076421D01*
X92460499Y-124065613D01*
X92460499Y-123232129D01*
X92460498Y-123232123D01*
X92460497Y-123232116D01*
X92454091Y-123172517D01*
X92403796Y-123037669D01*
X92326421Y-122934309D01*
X92302004Y-122868848D01*
X92316855Y-122800575D01*
X92326416Y-122785696D01*
X92403796Y-122682331D01*
X92454091Y-122547483D01*
X92460500Y-122487873D01*
X92460499Y-121654383D01*
X92460971Y-121643576D01*
X92465659Y-121590000D01*
X92465659Y-121589999D01*
X92460971Y-121536421D01*
X92460499Y-121525613D01*
X92460499Y-120692129D01*
X92460498Y-120692123D01*
X92460497Y-120692116D01*
X92454091Y-120632517D01*
X92422732Y-120548440D01*
X92403797Y-120497671D01*
X92403793Y-120497664D01*
X92317547Y-120382455D01*
X92317544Y-120382452D01*
X92202335Y-120296206D01*
X92202328Y-120296202D01*
X92067482Y-120245908D01*
X92067483Y-120245908D01*
X92007883Y-120239501D01*
X92007881Y-120239500D01*
X92007873Y-120239500D01*
X92007865Y-120239500D01*
X91174380Y-120239500D01*
X91163573Y-120239028D01*
X91137024Y-120236705D01*
X91110001Y-120234341D01*
X91109998Y-120234341D01*
X91056424Y-120239028D01*
X91045617Y-120239500D01*
X88412129Y-120239500D01*
X88412123Y-120239501D01*
X88352516Y-120245908D01*
X88217671Y-120296202D01*
X88217664Y-120296206D01*
X88102455Y-120382452D01*
X88013270Y-120501586D01*
X87957336Y-120543457D01*
X87887644Y-120548440D01*
X87826323Y-120514955D01*
X87728413Y-120417045D01*
X87676638Y-120382452D01*
X87646355Y-120362218D01*
X87605495Y-120334916D01*
X87605494Y-120334915D01*
X87605492Y-120334914D01*
X87605490Y-120334913D01*
X87468917Y-120278343D01*
X87468907Y-120278340D01*
X87323920Y-120249500D01*
X87323918Y-120249500D01*
X85224499Y-120249500D01*
X85157460Y-120229815D01*
X85111705Y-120177011D01*
X85100499Y-120125500D01*
X85100499Y-120102129D01*
X85100498Y-120102123D01*
X85100497Y-120102116D01*
X85094091Y-120042517D01*
X85092869Y-120039241D01*
X85043797Y-119907671D01*
X85043793Y-119907664D01*
X84957547Y-119792455D01*
X84957544Y-119792452D01*
X84842335Y-119706206D01*
X84842328Y-119706202D01*
X84707482Y-119655908D01*
X84707483Y-119655908D01*
X84647883Y-119649501D01*
X84647881Y-119649500D01*
X84647873Y-119649500D01*
X84647864Y-119649500D01*
X82852129Y-119649500D01*
X82852123Y-119649501D01*
X82792516Y-119655908D01*
X82657671Y-119706202D01*
X82657664Y-119706206D01*
X82542455Y-119792452D01*
X82542452Y-119792455D01*
X82456206Y-119907664D01*
X82456202Y-119907671D01*
X82450682Y-119922473D01*
X82408811Y-119978407D01*
X82343346Y-120002824D01*
X82275073Y-119987972D01*
X82225668Y-119938567D01*
X82210500Y-119879140D01*
X82210500Y-118120859D01*
X82230185Y-118053820D01*
X82282989Y-118008065D01*
X82352147Y-117998121D01*
X82415703Y-118027146D01*
X82450681Y-118077525D01*
X82453921Y-118086211D01*
X82456204Y-118092332D01*
X82456206Y-118092335D01*
X82542452Y-118207544D01*
X82542455Y-118207547D01*
X82657664Y-118293793D01*
X82657671Y-118293797D01*
X82792517Y-118344091D01*
X82792516Y-118344091D01*
X82799444Y-118344835D01*
X82852127Y-118350500D01*
X84647872Y-118350499D01*
X84707483Y-118344091D01*
X84842331Y-118293796D01*
X84957546Y-118207546D01*
X85043796Y-118092331D01*
X85094091Y-117957483D01*
X85100500Y-117897873D01*
X85100500Y-117384500D01*
X85120185Y-117317461D01*
X85172989Y-117271706D01*
X85224500Y-117260500D01*
X87835501Y-117260500D01*
X87902540Y-117280185D01*
X87948295Y-117332989D01*
X87959501Y-117384500D01*
X87959501Y-117407876D01*
X87965908Y-117467483D01*
X88016202Y-117602328D01*
X88016206Y-117602335D01*
X88102452Y-117717544D01*
X88102455Y-117717547D01*
X88217664Y-117803793D01*
X88217671Y-117803797D01*
X88352517Y-117854091D01*
X88352516Y-117854091D01*
X88359444Y-117854835D01*
X88412127Y-117860500D01*
X91045611Y-117860499D01*
X91056419Y-117860971D01*
X91109999Y-117865659D01*
X91110000Y-117865659D01*
X91110001Y-117865659D01*
X91163580Y-117860971D01*
X91174388Y-117860499D01*
X92007871Y-117860499D01*
X92007872Y-117860499D01*
X92067483Y-117854091D01*
X92202331Y-117803796D01*
X92317546Y-117717546D01*
X92403796Y-117602331D01*
X92454091Y-117467483D01*
X92460500Y-117407873D01*
X92460499Y-116574383D01*
X92460971Y-116563576D01*
X92465659Y-116510000D01*
X92465659Y-116509999D01*
X92460971Y-116456421D01*
X92460499Y-116445613D01*
X92460499Y-115612129D01*
X92460498Y-115612123D01*
X92460497Y-115612116D01*
X92454091Y-115552517D01*
X92403796Y-115417669D01*
X92326421Y-115314309D01*
X92302004Y-115248848D01*
X92316855Y-115180575D01*
X92326416Y-115165696D01*
X92403796Y-115062331D01*
X92454091Y-114927483D01*
X92460500Y-114867873D01*
X92460499Y-114034383D01*
X92460971Y-114023576D01*
X92465659Y-113970000D01*
X92465659Y-113969999D01*
X92460971Y-113916421D01*
X92460499Y-113905613D01*
X92460499Y-113072129D01*
X92460498Y-113072123D01*
X92460497Y-113072116D01*
X92454091Y-113012517D01*
X92403796Y-112877669D01*
X92326421Y-112774309D01*
X92302004Y-112708848D01*
X92316855Y-112640575D01*
X92326416Y-112625696D01*
X92403796Y-112522331D01*
X92454091Y-112387483D01*
X92460500Y-112327873D01*
X92460499Y-111494383D01*
X92460971Y-111483576D01*
X92465659Y-111430000D01*
X92465659Y-111429999D01*
X92460971Y-111376421D01*
X92460499Y-111365613D01*
X92460499Y-110532129D01*
X92460498Y-110532123D01*
X92460497Y-110532116D01*
X92454091Y-110472517D01*
X92403796Y-110337669D01*
X92326421Y-110234309D01*
X92302004Y-110168848D01*
X92316855Y-110100575D01*
X92326416Y-110085696D01*
X92403796Y-109982331D01*
X92454091Y-109847483D01*
X92460500Y-109787873D01*
X92460499Y-108954383D01*
X92460971Y-108943576D01*
X92465659Y-108890000D01*
X92465659Y-108889999D01*
X92460971Y-108836421D01*
X92460499Y-108825613D01*
X92460499Y-107992129D01*
X92460498Y-107992123D01*
X92460497Y-107992116D01*
X92454091Y-107932517D01*
X92427502Y-107861229D01*
X92403797Y-107797671D01*
X92403793Y-107797664D01*
X92317547Y-107682455D01*
X92317544Y-107682452D01*
X92202335Y-107596206D01*
X92202328Y-107596202D01*
X92067482Y-107545908D01*
X92067483Y-107545908D01*
X92007883Y-107539501D01*
X92007881Y-107539500D01*
X92007873Y-107539500D01*
X92007865Y-107539500D01*
X91174380Y-107539500D01*
X91163573Y-107539028D01*
X91137024Y-107536705D01*
X91110001Y-107534341D01*
X91109998Y-107534341D01*
X91056424Y-107539028D01*
X91045617Y-107539500D01*
X88412129Y-107539500D01*
X88412123Y-107539501D01*
X88352516Y-107545908D01*
X88217671Y-107596202D01*
X88217664Y-107596206D01*
X88102455Y-107682452D01*
X88102452Y-107682455D01*
X88016206Y-107797664D01*
X88016202Y-107797671D01*
X87965908Y-107932517D01*
X87959501Y-107992116D01*
X87959501Y-107992123D01*
X87959500Y-107992135D01*
X87959500Y-109787870D01*
X87959501Y-109787876D01*
X87965908Y-109847483D01*
X88016202Y-109982328D01*
X88016203Y-109982330D01*
X88093578Y-110085689D01*
X88117995Y-110151153D01*
X88103144Y-110219426D01*
X88093578Y-110234311D01*
X88016203Y-110337669D01*
X88016202Y-110337671D01*
X87965908Y-110472517D01*
X87959501Y-110532116D01*
X87959501Y-110532123D01*
X87959500Y-110532135D01*
X87959500Y-112327870D01*
X87959501Y-112327876D01*
X87965908Y-112387483D01*
X88016202Y-112522328D01*
X88016203Y-112522330D01*
X88093578Y-112625689D01*
X88117995Y-112691153D01*
X88103144Y-112759426D01*
X88093578Y-112774311D01*
X88016203Y-112877669D01*
X88016202Y-112877671D01*
X87965908Y-113012517D01*
X87959501Y-113072116D01*
X87959501Y-113072123D01*
X87959500Y-113072135D01*
X87959500Y-114867870D01*
X87959501Y-114867876D01*
X87965908Y-114927483D01*
X88016202Y-115062328D01*
X88016203Y-115062330D01*
X88093578Y-115165689D01*
X88117995Y-115231153D01*
X88103144Y-115299426D01*
X88093578Y-115314311D01*
X88016203Y-115417669D01*
X88016202Y-115417671D01*
X87965908Y-115552517D01*
X87959501Y-115612116D01*
X87959501Y-115612123D01*
X87959500Y-115612135D01*
X87959500Y-115635500D01*
X87939815Y-115702539D01*
X87887011Y-115748294D01*
X87835500Y-115759500D01*
X84954797Y-115759500D01*
X84887758Y-115739815D01*
X84880486Y-115734767D01*
X84842330Y-115706203D01*
X84842328Y-115706202D01*
X84707482Y-115655908D01*
X84707483Y-115655908D01*
X84647883Y-115649501D01*
X84647881Y-115649500D01*
X84647873Y-115649500D01*
X84647864Y-115649500D01*
X82852129Y-115649500D01*
X82852123Y-115649501D01*
X82792516Y-115655908D01*
X82657671Y-115706202D01*
X82657664Y-115706206D01*
X82542455Y-115792452D01*
X82542452Y-115792455D01*
X82456206Y-115907664D01*
X82456203Y-115907669D01*
X82407189Y-116039083D01*
X82365317Y-116095016D01*
X82299853Y-116119433D01*
X82231580Y-116104581D01*
X82203326Y-116083430D01*
X82081402Y-115961506D01*
X82081395Y-115961501D01*
X81887834Y-115825967D01*
X81887830Y-115825965D01*
X81887828Y-115825964D01*
X81673663Y-115726097D01*
X81673659Y-115726096D01*
X81673655Y-115726094D01*
X81445413Y-115664938D01*
X81445403Y-115664936D01*
X81210001Y-115644341D01*
X81209999Y-115644341D01*
X80974596Y-115664936D01*
X80974586Y-115664938D01*
X80746344Y-115726094D01*
X80746335Y-115726098D01*
X80532171Y-115825964D01*
X80532169Y-115825965D01*
X80338597Y-115961505D01*
X80171505Y-116128597D01*
X80035965Y-116322169D01*
X80035964Y-116322171D01*
X79936098Y-116536335D01*
X79936094Y-116536344D01*
X79874938Y-116764586D01*
X79874936Y-116764596D01*
X79854341Y-116999999D01*
X76500500Y-116999999D01*
X76500500Y-95999999D01*
X79854341Y-95999999D01*
X79854341Y-96000000D01*
X79874936Y-96235403D01*
X79874938Y-96235413D01*
X79936094Y-96463655D01*
X79936096Y-96463659D01*
X79936097Y-96463663D01*
X80020499Y-96644663D01*
X80035965Y-96677830D01*
X80035967Y-96677834D01*
X80101482Y-96771398D01*
X80171505Y-96871401D01*
X80338599Y-97038495D01*
X80435384Y-97106265D01*
X80532165Y-97174032D01*
X80532167Y-97174033D01*
X80532170Y-97174035D01*
X80746337Y-97273903D01*
X80974592Y-97335063D01*
X81151034Y-97350500D01*
X81209999Y-97355659D01*
X81210000Y-97355659D01*
X81210001Y-97355659D01*
X81268966Y-97350500D01*
X81445408Y-97335063D01*
X81673663Y-97273903D01*
X81887830Y-97174035D01*
X82081401Y-97038495D01*
X82203329Y-96916566D01*
X82264648Y-96883084D01*
X82334340Y-96888068D01*
X82390274Y-96929939D01*
X82407189Y-96960917D01*
X82456202Y-97092328D01*
X82456206Y-97092335D01*
X82542452Y-97207544D01*
X82542455Y-97207547D01*
X82657664Y-97293793D01*
X82657671Y-97293797D01*
X82792517Y-97344091D01*
X82792516Y-97344091D01*
X82799444Y-97344835D01*
X82852127Y-97350500D01*
X84647872Y-97350499D01*
X84707483Y-97344091D01*
X84842331Y-97293796D01*
X84957546Y-97207546D01*
X85043796Y-97092331D01*
X85094091Y-96957483D01*
X85100500Y-96897873D01*
X85100500Y-96874500D01*
X85120185Y-96807461D01*
X85172989Y-96761706D01*
X85224500Y-96750500D01*
X87140369Y-96750500D01*
X87207408Y-96770185D01*
X87209260Y-96771398D01*
X87211583Y-96772950D01*
X87211585Y-96772952D01*
X87235635Y-96789021D01*
X87252374Y-96800206D01*
X87334501Y-96855082D01*
X87334503Y-96855083D01*
X87334505Y-96855084D01*
X87365275Y-96867829D01*
X87365276Y-96867830D01*
X87365277Y-96867830D01*
X87471088Y-96911659D01*
X87587241Y-96934763D01*
X87606468Y-96938587D01*
X87616081Y-96940500D01*
X87616082Y-96940500D01*
X87616083Y-96940500D01*
X87763918Y-96940500D01*
X87835501Y-96940500D01*
X87902540Y-96960185D01*
X87948295Y-97012989D01*
X87959501Y-97064500D01*
X87959501Y-97087876D01*
X87965908Y-97147483D01*
X88016202Y-97282328D01*
X88016203Y-97282330D01*
X88093578Y-97385689D01*
X88117995Y-97451153D01*
X88103144Y-97519426D01*
X88093578Y-97534311D01*
X88016203Y-97637669D01*
X88016202Y-97637671D01*
X87965908Y-97772517D01*
X87959501Y-97832116D01*
X87959501Y-97832123D01*
X87959500Y-97832135D01*
X87959500Y-97855500D01*
X87939815Y-97922539D01*
X87887011Y-97968294D01*
X87835500Y-97979500D01*
X84946080Y-97979500D01*
X84801092Y-98008340D01*
X84801082Y-98008343D01*
X84664511Y-98064912D01*
X84664498Y-98064919D01*
X84541584Y-98147048D01*
X84541580Y-98147051D01*
X84075450Y-98613181D01*
X84014127Y-98646666D01*
X83987769Y-98649500D01*
X82852129Y-98649500D01*
X82852123Y-98649501D01*
X82792516Y-98655908D01*
X82657671Y-98706202D01*
X82657664Y-98706206D01*
X82542455Y-98792452D01*
X82542452Y-98792455D01*
X82456206Y-98907664D01*
X82456203Y-98907669D01*
X82407189Y-99039083D01*
X82365317Y-99095016D01*
X82299853Y-99119433D01*
X82231580Y-99104581D01*
X82203326Y-99083430D01*
X82081402Y-98961506D01*
X82081395Y-98961501D01*
X81887834Y-98825967D01*
X81887830Y-98825965D01*
X81887828Y-98825964D01*
X81673663Y-98726097D01*
X81673659Y-98726096D01*
X81673655Y-98726094D01*
X81445413Y-98664938D01*
X81445403Y-98664936D01*
X81210001Y-98644341D01*
X81209999Y-98644341D01*
X80974596Y-98664936D01*
X80974586Y-98664938D01*
X80746344Y-98726094D01*
X80746337Y-98726096D01*
X80746337Y-98726097D01*
X80737969Y-98729999D01*
X80532171Y-98825964D01*
X80532169Y-98825965D01*
X80338597Y-98961505D01*
X80171505Y-99128597D01*
X80035965Y-99322169D01*
X80035964Y-99322171D01*
X79936098Y-99536335D01*
X79936094Y-99536344D01*
X79874938Y-99764586D01*
X79874936Y-99764596D01*
X79854341Y-99999999D01*
X79854341Y-100000000D01*
X79874936Y-100235403D01*
X79874938Y-100235413D01*
X79936094Y-100463655D01*
X79936096Y-100463659D01*
X79936097Y-100463663D01*
X80035937Y-100677769D01*
X80035965Y-100677830D01*
X80035967Y-100677834D01*
X80097317Y-100765450D01*
X80171505Y-100871401D01*
X80338599Y-101038495D01*
X80435384Y-101106265D01*
X80532165Y-101174032D01*
X80532167Y-101174033D01*
X80532170Y-101174035D01*
X80746337Y-101273903D01*
X80974592Y-101335063D01*
X81151034Y-101350500D01*
X81209999Y-101355659D01*
X81210000Y-101355659D01*
X81210001Y-101355659D01*
X81268966Y-101350500D01*
X81445408Y-101335063D01*
X81673663Y-101273903D01*
X81887830Y-101174035D01*
X82081401Y-101038495D01*
X82203329Y-100916566D01*
X82264648Y-100883084D01*
X82334340Y-100888068D01*
X82390274Y-100929939D01*
X82407189Y-100960917D01*
X82456202Y-101092328D01*
X82456206Y-101092335D01*
X82542452Y-101207544D01*
X82542455Y-101207547D01*
X82657664Y-101293793D01*
X82657671Y-101293797D01*
X82792517Y-101344091D01*
X82792516Y-101344091D01*
X82799444Y-101344835D01*
X82852127Y-101350500D01*
X84647872Y-101350499D01*
X84707483Y-101344091D01*
X84842331Y-101293796D01*
X84957546Y-101207546D01*
X85043796Y-101092331D01*
X85094091Y-100957483D01*
X85100500Y-100897873D01*
X85100499Y-99762228D01*
X85120184Y-99695190D01*
X85136809Y-99674557D01*
X85294550Y-99516816D01*
X85355871Y-99483334D01*
X85382229Y-99480500D01*
X87835501Y-99480500D01*
X87902540Y-99500185D01*
X87948295Y-99552989D01*
X87959501Y-99604500D01*
X87959501Y-99627876D01*
X87965908Y-99687483D01*
X88016202Y-99822328D01*
X88016203Y-99822330D01*
X88093578Y-99925689D01*
X88117995Y-99991153D01*
X88103144Y-100059426D01*
X88093578Y-100074311D01*
X88016203Y-100177669D01*
X88016202Y-100177671D01*
X87965908Y-100312517D01*
X87959501Y-100372116D01*
X87959501Y-100372123D01*
X87959500Y-100372135D01*
X87959500Y-100677769D01*
X87939815Y-100744808D01*
X87923181Y-100765450D01*
X85475451Y-103213181D01*
X85414128Y-103246666D01*
X85387770Y-103249500D01*
X85224499Y-103249500D01*
X85157460Y-103229815D01*
X85111705Y-103177011D01*
X85100499Y-103125500D01*
X85100499Y-103102129D01*
X85100498Y-103102123D01*
X85097051Y-103070058D01*
X85094091Y-103042517D01*
X85092810Y-103039083D01*
X85043797Y-102907671D01*
X85043793Y-102907664D01*
X84957547Y-102792455D01*
X84957544Y-102792452D01*
X84842335Y-102706206D01*
X84842328Y-102706202D01*
X84707482Y-102655908D01*
X84707483Y-102655908D01*
X84647883Y-102649501D01*
X84647881Y-102649500D01*
X84647873Y-102649500D01*
X84647864Y-102649500D01*
X82852129Y-102649500D01*
X82852123Y-102649501D01*
X82792516Y-102655908D01*
X82657671Y-102706202D01*
X82657664Y-102706206D01*
X82542455Y-102792452D01*
X82542452Y-102792455D01*
X82456206Y-102907664D01*
X82456203Y-102907669D01*
X82407189Y-103039083D01*
X82365317Y-103095016D01*
X82299853Y-103119433D01*
X82231580Y-103104581D01*
X82203326Y-103083430D01*
X82081402Y-102961506D01*
X82081395Y-102961501D01*
X81887834Y-102825967D01*
X81887830Y-102825965D01*
X81887828Y-102825964D01*
X81673663Y-102726097D01*
X81673659Y-102726096D01*
X81673655Y-102726094D01*
X81445413Y-102664938D01*
X81445403Y-102664936D01*
X81210001Y-102644341D01*
X81209999Y-102644341D01*
X80974596Y-102664936D01*
X80974586Y-102664938D01*
X80746344Y-102726094D01*
X80746335Y-102726098D01*
X80532171Y-102825964D01*
X80532169Y-102825965D01*
X80338597Y-102961505D01*
X80171505Y-103128597D01*
X80035965Y-103322169D01*
X80035964Y-103322171D01*
X79936098Y-103536335D01*
X79936094Y-103536344D01*
X79874938Y-103764586D01*
X79874936Y-103764596D01*
X79854341Y-103999999D01*
X79854341Y-104000000D01*
X79874936Y-104235403D01*
X79874938Y-104235413D01*
X79936094Y-104463655D01*
X79936096Y-104463659D01*
X79936097Y-104463663D01*
X80014681Y-104632186D01*
X80035965Y-104677830D01*
X80035967Y-104677834D01*
X80126734Y-104807461D01*
X80171505Y-104871401D01*
X80338599Y-105038495D01*
X80431854Y-105103793D01*
X80532165Y-105174032D01*
X80532167Y-105174033D01*
X80532170Y-105174035D01*
X80746337Y-105273903D01*
X80974592Y-105335063D01*
X81151034Y-105350500D01*
X81209999Y-105355659D01*
X81210000Y-105355659D01*
X81210001Y-105355659D01*
X81268966Y-105350500D01*
X81445408Y-105335063D01*
X81673663Y-105273903D01*
X81887830Y-105174035D01*
X82081401Y-105038495D01*
X82203329Y-104916566D01*
X82264648Y-104883084D01*
X82334340Y-104888068D01*
X82390274Y-104929939D01*
X82407189Y-104960917D01*
X82456202Y-105092328D01*
X82456206Y-105092335D01*
X82542452Y-105207544D01*
X82542455Y-105207547D01*
X82657664Y-105293793D01*
X82657671Y-105293797D01*
X82792517Y-105344091D01*
X82792516Y-105344091D01*
X82799444Y-105344835D01*
X82852127Y-105350500D01*
X84647872Y-105350499D01*
X84707483Y-105344091D01*
X84842331Y-105293796D01*
X84957546Y-105207546D01*
X85043796Y-105092331D01*
X85094091Y-104957483D01*
X85100500Y-104897873D01*
X85100500Y-104874500D01*
X85120185Y-104807461D01*
X85172989Y-104761706D01*
X85224500Y-104750500D01*
X85823920Y-104750500D01*
X85921462Y-104731096D01*
X85968913Y-104721658D01*
X86105495Y-104665084D01*
X86154729Y-104632186D01*
X86228416Y-104582952D01*
X87747821Y-103063545D01*
X87809142Y-103030062D01*
X87878833Y-103035046D01*
X87934767Y-103076918D01*
X87959184Y-103142382D01*
X87959500Y-103151228D01*
X87959500Y-104707870D01*
X87959501Y-104707876D01*
X87965908Y-104767483D01*
X88016202Y-104902328D01*
X88016206Y-104902335D01*
X88102452Y-105017544D01*
X88102455Y-105017547D01*
X88217664Y-105103793D01*
X88217671Y-105103797D01*
X88352517Y-105154091D01*
X88352516Y-105154091D01*
X88359444Y-105154835D01*
X88412127Y-105160500D01*
X91045611Y-105160499D01*
X91056419Y-105160971D01*
X91109999Y-105165659D01*
X91110000Y-105165659D01*
X91110001Y-105165659D01*
X91163580Y-105160971D01*
X91174388Y-105160499D01*
X92007871Y-105160499D01*
X92007872Y-105160499D01*
X92067483Y-105154091D01*
X92202331Y-105103796D01*
X92317546Y-105017546D01*
X92403796Y-104902331D01*
X92454091Y-104767483D01*
X92460500Y-104707873D01*
X92460499Y-103874383D01*
X92460971Y-103863576D01*
X92465659Y-103810000D01*
X92465659Y-103809999D01*
X92460971Y-103756421D01*
X92460499Y-103745613D01*
X92460499Y-102912129D01*
X92460498Y-102912123D01*
X92460497Y-102912116D01*
X92454091Y-102852517D01*
X92449892Y-102841260D01*
X92403797Y-102717671D01*
X92403795Y-102717668D01*
X92326421Y-102614309D01*
X92302004Y-102548848D01*
X92316855Y-102480575D01*
X92326416Y-102465696D01*
X92403796Y-102362331D01*
X92454091Y-102227483D01*
X92460500Y-102167873D01*
X92460499Y-101334383D01*
X92460971Y-101323576D01*
X92465659Y-101270000D01*
X92465659Y-101269999D01*
X92460971Y-101216421D01*
X92460499Y-101205613D01*
X92460499Y-100372129D01*
X92460498Y-100372123D01*
X92460497Y-100372116D01*
X92454091Y-100312517D01*
X92425331Y-100235408D01*
X92403797Y-100177671D01*
X92403795Y-100177668D01*
X92326421Y-100074309D01*
X92302004Y-100008848D01*
X92316855Y-99940575D01*
X92326416Y-99925696D01*
X92403796Y-99822331D01*
X92454091Y-99687483D01*
X92460500Y-99627873D01*
X92460499Y-98794383D01*
X92460971Y-98783576D01*
X92465659Y-98730000D01*
X92465659Y-98729999D01*
X92460971Y-98676421D01*
X92460499Y-98665613D01*
X92460499Y-97832129D01*
X92460498Y-97832123D01*
X92460497Y-97832116D01*
X92454091Y-97772517D01*
X92403796Y-97637669D01*
X92326421Y-97534309D01*
X92302004Y-97468848D01*
X92316855Y-97400575D01*
X92326416Y-97385696D01*
X92403796Y-97282331D01*
X92454091Y-97147483D01*
X92460500Y-97087873D01*
X92460499Y-96254383D01*
X92460971Y-96243576D01*
X92465659Y-96190000D01*
X92465659Y-96189999D01*
X92460971Y-96136421D01*
X92460499Y-96125613D01*
X92460499Y-95292129D01*
X92460498Y-95292123D01*
X92460497Y-95292116D01*
X92454091Y-95232517D01*
X92453083Y-95229815D01*
X92403797Y-95097671D01*
X92403793Y-95097664D01*
X92317547Y-94982455D01*
X92317544Y-94982452D01*
X92202335Y-94896206D01*
X92202328Y-94896202D01*
X92067482Y-94845908D01*
X92067483Y-94845908D01*
X92007883Y-94839501D01*
X92007881Y-94839500D01*
X92007873Y-94839500D01*
X92007865Y-94839500D01*
X91174380Y-94839500D01*
X91163573Y-94839028D01*
X91137024Y-94836705D01*
X91110001Y-94834341D01*
X91109998Y-94834341D01*
X91056424Y-94839028D01*
X91045617Y-94839500D01*
X88412129Y-94839500D01*
X88412123Y-94839501D01*
X88352516Y-94845908D01*
X88217671Y-94896202D01*
X88217664Y-94896206D01*
X88102455Y-94982452D01*
X88102452Y-94982455D01*
X88016206Y-95097664D01*
X88016202Y-95097671D01*
X87963198Y-95239785D01*
X87960153Y-95238649D01*
X87932844Y-95286464D01*
X87870891Y-95318769D01*
X87801308Y-95312452D01*
X87799405Y-95311682D01*
X87718917Y-95278343D01*
X87718907Y-95278340D01*
X87573920Y-95249500D01*
X87573918Y-95249500D01*
X85224499Y-95249500D01*
X85157460Y-95229815D01*
X85111705Y-95177011D01*
X85100499Y-95125500D01*
X85100499Y-95102129D01*
X85100498Y-95102123D01*
X85100497Y-95102116D01*
X85094091Y-95042517D01*
X85092810Y-95039083D01*
X85043797Y-94907671D01*
X85043793Y-94907664D01*
X84957547Y-94792455D01*
X84957544Y-94792452D01*
X84842335Y-94706206D01*
X84842328Y-94706202D01*
X84707482Y-94655908D01*
X84707483Y-94655908D01*
X84647883Y-94649501D01*
X84647881Y-94649500D01*
X84647873Y-94649500D01*
X84647864Y-94649500D01*
X82852129Y-94649500D01*
X82852123Y-94649501D01*
X82792516Y-94655908D01*
X82657671Y-94706202D01*
X82657664Y-94706206D01*
X82542455Y-94792452D01*
X82542452Y-94792455D01*
X82456206Y-94907664D01*
X82456203Y-94907669D01*
X82407189Y-95039083D01*
X82365317Y-95095016D01*
X82299853Y-95119433D01*
X82231580Y-95104581D01*
X82203326Y-95083430D01*
X82081402Y-94961506D01*
X82081395Y-94961501D01*
X81887834Y-94825967D01*
X81887830Y-94825965D01*
X81887828Y-94825964D01*
X81673663Y-94726097D01*
X81673659Y-94726096D01*
X81673655Y-94726094D01*
X81445413Y-94664938D01*
X81445403Y-94664936D01*
X81210001Y-94644341D01*
X81209999Y-94644341D01*
X80974596Y-94664936D01*
X80974586Y-94664938D01*
X80746344Y-94726094D01*
X80746335Y-94726098D01*
X80532171Y-94825964D01*
X80532169Y-94825965D01*
X80338597Y-94961505D01*
X80171505Y-95128597D01*
X80035965Y-95322169D01*
X80035964Y-95322171D01*
X79936098Y-95536335D01*
X79936094Y-95536344D01*
X79874938Y-95764586D01*
X79874936Y-95764596D01*
X79854341Y-95999999D01*
X76500500Y-95999999D01*
X76500500Y-70499999D01*
X77144341Y-70499999D01*
X77144341Y-70500000D01*
X77164936Y-70735403D01*
X77164938Y-70735413D01*
X77226094Y-70963655D01*
X77226096Y-70963659D01*
X77226097Y-70963663D01*
X77325965Y-71177830D01*
X77325967Y-71177834D01*
X77434281Y-71332521D01*
X77461505Y-71371401D01*
X77628599Y-71538495D01*
X77725384Y-71606265D01*
X77822165Y-71674032D01*
X77822167Y-71674033D01*
X77822170Y-71674035D01*
X78036337Y-71773903D01*
X78264592Y-71835063D01*
X78390096Y-71846043D01*
X78455164Y-71871495D01*
X78466969Y-71881890D01*
X79321171Y-72736092D01*
X80173181Y-73588101D01*
X80206666Y-73649424D01*
X80209500Y-73675782D01*
X80209500Y-75039241D01*
X80189815Y-75106280D01*
X80173181Y-75126922D01*
X80171505Y-75128597D01*
X80035965Y-75322169D01*
X80035964Y-75322171D01*
X79936098Y-75536335D01*
X79936094Y-75536344D01*
X79874938Y-75764586D01*
X79874936Y-75764596D01*
X79854341Y-75999999D01*
X79854341Y-76000000D01*
X79874936Y-76235403D01*
X79874938Y-76235413D01*
X79936094Y-76463655D01*
X79936096Y-76463659D01*
X79936097Y-76463663D01*
X79981687Y-76561430D01*
X80035965Y-76677830D01*
X80035967Y-76677834D01*
X80140753Y-76827482D01*
X80165725Y-76863147D01*
X80171501Y-76871395D01*
X80171506Y-76871402D01*
X80173181Y-76873077D01*
X80173682Y-76873995D01*
X80174982Y-76875544D01*
X80174670Y-76875805D01*
X80206666Y-76934400D01*
X80209500Y-76960758D01*
X80209500Y-79039241D01*
X80189815Y-79106280D01*
X80173181Y-79126922D01*
X80171505Y-79128597D01*
X80035965Y-79322169D01*
X80035964Y-79322171D01*
X79936098Y-79536335D01*
X79936094Y-79536344D01*
X79874938Y-79764586D01*
X79874936Y-79764596D01*
X79854341Y-79999999D01*
X79854341Y-80000000D01*
X79874936Y-80235403D01*
X79874938Y-80235413D01*
X79936094Y-80463655D01*
X79936096Y-80463659D01*
X79936097Y-80463663D01*
X79996095Y-80592328D01*
X80035965Y-80677830D01*
X80035967Y-80677834D01*
X80171501Y-80871395D01*
X80171506Y-80871402D01*
X80173181Y-80873077D01*
X80173682Y-80873995D01*
X80174982Y-80875544D01*
X80174670Y-80875805D01*
X80206666Y-80934400D01*
X80209500Y-80960758D01*
X80209500Y-83039241D01*
X80189815Y-83106280D01*
X80173181Y-83126922D01*
X80171505Y-83128597D01*
X80035965Y-83322169D01*
X80035964Y-83322171D01*
X79936098Y-83536335D01*
X79936094Y-83536344D01*
X79874938Y-83764586D01*
X79874936Y-83764596D01*
X79854341Y-83999999D01*
X79854341Y-84000000D01*
X79874936Y-84235403D01*
X79874938Y-84235413D01*
X79936094Y-84463655D01*
X79936096Y-84463659D01*
X79936097Y-84463663D01*
X79991433Y-84582331D01*
X80035965Y-84677830D01*
X80035967Y-84677834D01*
X80144281Y-84832521D01*
X80171505Y-84871401D01*
X80338599Y-85038495D01*
X80435384Y-85106265D01*
X80532165Y-85174032D01*
X80532167Y-85174033D01*
X80532170Y-85174035D01*
X80746337Y-85273903D01*
X80974592Y-85335063D01*
X81151034Y-85350500D01*
X81209999Y-85355659D01*
X81210000Y-85355659D01*
X81210001Y-85355659D01*
X81268966Y-85350500D01*
X81445408Y-85335063D01*
X81673663Y-85273903D01*
X81887830Y-85174035D01*
X82081401Y-85038495D01*
X82203329Y-84916566D01*
X82264648Y-84883084D01*
X82334340Y-84888068D01*
X82390274Y-84929939D01*
X82407189Y-84960917D01*
X82456202Y-85092328D01*
X82456206Y-85092335D01*
X82542452Y-85207544D01*
X82542455Y-85207547D01*
X82657664Y-85293793D01*
X82657671Y-85293797D01*
X82792517Y-85344091D01*
X82792516Y-85344091D01*
X82799444Y-85344835D01*
X82852127Y-85350500D01*
X84647872Y-85350499D01*
X84707483Y-85344091D01*
X84842331Y-85293796D01*
X84957546Y-85207546D01*
X85043796Y-85092331D01*
X85094091Y-84957483D01*
X85100500Y-84897873D01*
X85100500Y-84874500D01*
X85120185Y-84807461D01*
X85172989Y-84761706D01*
X85224500Y-84750500D01*
X87909415Y-84750500D01*
X87976454Y-84770185D01*
X88022209Y-84822989D01*
X88032153Y-84892147D01*
X88018246Y-84933929D01*
X88016203Y-84937669D01*
X87965908Y-85072517D01*
X87963778Y-85092335D01*
X87959501Y-85132123D01*
X87959500Y-85132135D01*
X87959500Y-86927870D01*
X87959501Y-86927876D01*
X87965908Y-86987483D01*
X88016202Y-87122328D01*
X88016203Y-87122330D01*
X88093578Y-87225689D01*
X88117995Y-87291153D01*
X88103144Y-87359426D01*
X88093578Y-87374311D01*
X88016203Y-87477669D01*
X88016202Y-87477671D01*
X87965908Y-87612517D01*
X87959501Y-87672116D01*
X87959501Y-87672123D01*
X87959500Y-87672135D01*
X87959500Y-89467870D01*
X87959501Y-89467876D01*
X87965908Y-89527483D01*
X88016202Y-89662328D01*
X88016203Y-89662330D01*
X88093578Y-89765689D01*
X88117995Y-89831153D01*
X88103144Y-89899426D01*
X88093578Y-89914311D01*
X88016203Y-90017669D01*
X88016202Y-90017671D01*
X87965908Y-90152517D01*
X87959501Y-90212116D01*
X87959501Y-90212123D01*
X87959500Y-90212135D01*
X87959500Y-92007870D01*
X87959501Y-92007876D01*
X87965908Y-92067483D01*
X88016202Y-92202328D01*
X88016206Y-92202335D01*
X88102452Y-92317544D01*
X88102455Y-92317547D01*
X88217664Y-92403793D01*
X88217671Y-92403797D01*
X88352517Y-92454091D01*
X88352516Y-92454091D01*
X88359444Y-92454835D01*
X88412127Y-92460500D01*
X91045611Y-92460499D01*
X91056419Y-92460971D01*
X91109999Y-92465659D01*
X91110000Y-92465659D01*
X91110001Y-92465659D01*
X91163580Y-92460971D01*
X91174388Y-92460499D01*
X92007871Y-92460499D01*
X92007872Y-92460499D01*
X92067483Y-92454091D01*
X92202331Y-92403796D01*
X92317546Y-92317546D01*
X92403796Y-92202331D01*
X92454091Y-92067483D01*
X92460500Y-92007873D01*
X92460499Y-91174383D01*
X92460971Y-91163576D01*
X92465659Y-91110000D01*
X92465659Y-91109999D01*
X92460971Y-91056421D01*
X92460499Y-91045613D01*
X92460499Y-90212129D01*
X92460498Y-90212123D01*
X92460497Y-90212116D01*
X92454091Y-90152517D01*
X92403796Y-90017669D01*
X92326421Y-89914309D01*
X92302004Y-89848848D01*
X92316855Y-89780575D01*
X92326416Y-89765696D01*
X92403796Y-89662331D01*
X92454091Y-89527483D01*
X92460500Y-89467873D01*
X92460499Y-88634383D01*
X92460971Y-88623576D01*
X92465659Y-88570000D01*
X92465659Y-88569999D01*
X92460971Y-88516421D01*
X92460499Y-88505613D01*
X92460499Y-87672129D01*
X92460498Y-87672123D01*
X92460497Y-87672116D01*
X92454091Y-87612517D01*
X92403796Y-87477669D01*
X92326421Y-87374309D01*
X92302004Y-87308848D01*
X92316855Y-87240575D01*
X92326416Y-87225696D01*
X92403796Y-87122331D01*
X92454091Y-86987483D01*
X92460500Y-86927873D01*
X92460499Y-86094383D01*
X92460971Y-86083576D01*
X92465659Y-86030000D01*
X92465659Y-86029999D01*
X92460971Y-85976421D01*
X92460499Y-85965613D01*
X92460499Y-85132129D01*
X92460498Y-85132123D01*
X92460497Y-85132116D01*
X92454091Y-85072517D01*
X92403796Y-84937669D01*
X92326421Y-84834309D01*
X92302004Y-84768848D01*
X92316855Y-84700575D01*
X92326416Y-84685696D01*
X92403796Y-84582331D01*
X92454091Y-84447483D01*
X92460500Y-84387873D01*
X92460499Y-83554383D01*
X92460971Y-83543576D01*
X92465659Y-83490000D01*
X92465659Y-83489999D01*
X92460971Y-83436421D01*
X92460499Y-83425613D01*
X92460499Y-82592129D01*
X92460498Y-82592123D01*
X92460497Y-82592116D01*
X92454091Y-82532517D01*
X92442663Y-82501878D01*
X92403797Y-82397671D01*
X92403793Y-82397664D01*
X92317547Y-82282455D01*
X92317544Y-82282452D01*
X92202335Y-82196206D01*
X92202328Y-82196202D01*
X92067482Y-82145908D01*
X92067483Y-82145908D01*
X92007883Y-82139501D01*
X92007881Y-82139500D01*
X92007873Y-82139500D01*
X92007865Y-82139500D01*
X91174380Y-82139500D01*
X91163573Y-82139028D01*
X91137024Y-82136705D01*
X91110001Y-82134341D01*
X91109998Y-82134341D01*
X91056424Y-82139028D01*
X91045617Y-82139500D01*
X88412129Y-82139500D01*
X88412123Y-82139501D01*
X88352516Y-82145908D01*
X88217671Y-82196202D01*
X88217664Y-82196206D01*
X88102455Y-82282452D01*
X88102452Y-82282455D01*
X88016206Y-82397664D01*
X88016202Y-82397671D01*
X87965908Y-82532517D01*
X87962352Y-82565599D01*
X87959501Y-82592123D01*
X87959500Y-82592135D01*
X87959500Y-83125500D01*
X87939815Y-83192539D01*
X87887011Y-83238294D01*
X87835500Y-83249500D01*
X85224499Y-83249500D01*
X85157460Y-83229815D01*
X85111705Y-83177011D01*
X85100499Y-83125500D01*
X85100499Y-83102129D01*
X85100498Y-83102123D01*
X85094091Y-83042516D01*
X85043797Y-82907671D01*
X85043793Y-82907664D01*
X84957547Y-82792455D01*
X84957544Y-82792452D01*
X84842335Y-82706206D01*
X84842328Y-82706202D01*
X84707482Y-82655908D01*
X84707483Y-82655908D01*
X84647883Y-82649501D01*
X84647881Y-82649500D01*
X84647873Y-82649500D01*
X84647864Y-82649500D01*
X82852129Y-82649500D01*
X82852123Y-82649501D01*
X82792516Y-82655908D01*
X82657671Y-82706202D01*
X82657664Y-82706206D01*
X82542455Y-82792452D01*
X82542452Y-82792455D01*
X82456206Y-82907664D01*
X82456202Y-82907671D01*
X82450682Y-82922473D01*
X82408811Y-82978407D01*
X82343346Y-83002824D01*
X82275073Y-82987972D01*
X82225668Y-82938567D01*
X82210500Y-82879140D01*
X82210500Y-81120859D01*
X82230185Y-81053820D01*
X82282989Y-81008065D01*
X82352147Y-80998121D01*
X82415703Y-81027146D01*
X82450681Y-81077525D01*
X82453921Y-81086211D01*
X82456204Y-81092332D01*
X82456206Y-81092335D01*
X82542452Y-81207544D01*
X82542455Y-81207547D01*
X82657664Y-81293793D01*
X82657671Y-81293797D01*
X82792517Y-81344091D01*
X82792516Y-81344091D01*
X82799444Y-81344835D01*
X82852127Y-81350500D01*
X84647872Y-81350499D01*
X84707483Y-81344091D01*
X84842331Y-81293796D01*
X84957546Y-81207546D01*
X85043796Y-81092331D01*
X85094091Y-80957483D01*
X85100500Y-80897873D01*
X85100500Y-80874500D01*
X85120185Y-80807461D01*
X85172989Y-80761706D01*
X85224500Y-80750500D01*
X86573920Y-80750500D01*
X86671462Y-80731096D01*
X86718913Y-80721658D01*
X86855495Y-80665084D01*
X86904729Y-80632186D01*
X86978416Y-80582952D01*
X87935759Y-79625607D01*
X87997080Y-79592124D01*
X88066771Y-79597108D01*
X88097749Y-79614024D01*
X88217664Y-79703793D01*
X88217671Y-79703797D01*
X88352517Y-79754091D01*
X88352516Y-79754091D01*
X88359444Y-79754835D01*
X88412127Y-79760500D01*
X91045611Y-79760499D01*
X91056419Y-79760971D01*
X91109999Y-79765659D01*
X91110000Y-79765659D01*
X91110001Y-79765659D01*
X91163580Y-79760971D01*
X91174388Y-79760499D01*
X92007871Y-79760499D01*
X92007872Y-79760499D01*
X92067483Y-79754091D01*
X92202331Y-79703796D01*
X92317546Y-79617546D01*
X92403796Y-79502331D01*
X92454091Y-79367483D01*
X92460500Y-79307873D01*
X92460499Y-78474383D01*
X92460971Y-78463576D01*
X92465659Y-78410000D01*
X92465659Y-78409999D01*
X92460971Y-78356421D01*
X92460499Y-78345613D01*
X92460499Y-77512129D01*
X92460498Y-77512123D01*
X92460497Y-77512116D01*
X92454091Y-77452517D01*
X92416040Y-77350498D01*
X92403797Y-77317671D01*
X92403795Y-77317668D01*
X92385925Y-77293797D01*
X92326421Y-77214309D01*
X92302004Y-77148848D01*
X92316855Y-77080575D01*
X92326416Y-77065696D01*
X92403796Y-76962331D01*
X92454091Y-76827483D01*
X92460500Y-76767873D01*
X92460499Y-75934383D01*
X92460971Y-75923576D01*
X92465659Y-75870000D01*
X92465659Y-75869999D01*
X92460971Y-75816421D01*
X92460499Y-75805613D01*
X92460499Y-74972129D01*
X92460498Y-74972123D01*
X92460497Y-74972116D01*
X92454091Y-74912517D01*
X92441642Y-74879140D01*
X92403797Y-74777671D01*
X92403793Y-74777664D01*
X92317547Y-74662455D01*
X92317544Y-74662452D01*
X92202335Y-74576206D01*
X92202328Y-74576202D01*
X92067482Y-74525908D01*
X92067483Y-74525908D01*
X92007883Y-74519501D01*
X92007881Y-74519500D01*
X92007873Y-74519500D01*
X92007865Y-74519500D01*
X91174380Y-74519500D01*
X91163573Y-74519028D01*
X91137024Y-74516705D01*
X91110001Y-74514341D01*
X91109998Y-74514341D01*
X91056424Y-74519028D01*
X91045617Y-74519500D01*
X88412129Y-74519500D01*
X88412123Y-74519501D01*
X88352516Y-74525908D01*
X88217671Y-74576202D01*
X88217664Y-74576206D01*
X88102455Y-74662452D01*
X88102452Y-74662455D01*
X88016206Y-74777664D01*
X88016202Y-74777671D01*
X87965908Y-74912517D01*
X87960149Y-74966087D01*
X87959501Y-74972123D01*
X87959500Y-74972135D01*
X87959500Y-75045434D01*
X87939815Y-75112473D01*
X87887011Y-75158228D01*
X87882953Y-75159995D01*
X87774508Y-75204914D01*
X87774496Y-75204920D01*
X87743190Y-75225838D01*
X87743191Y-75225839D01*
X87739064Y-75228597D01*
X87672388Y-75249480D01*
X87670166Y-75249500D01*
X85224499Y-75249500D01*
X85157460Y-75229815D01*
X85111705Y-75177011D01*
X85100499Y-75125500D01*
X85100499Y-75102129D01*
X85100498Y-75102123D01*
X85094091Y-75042516D01*
X85043797Y-74907671D01*
X85043793Y-74907664D01*
X84957547Y-74792455D01*
X84957544Y-74792452D01*
X84842335Y-74706206D01*
X84842328Y-74706202D01*
X84707482Y-74655908D01*
X84707483Y-74655908D01*
X84647883Y-74649501D01*
X84647881Y-74649500D01*
X84647873Y-74649500D01*
X84647864Y-74649500D01*
X82852129Y-74649500D01*
X82852123Y-74649501D01*
X82792516Y-74655908D01*
X82657671Y-74706202D01*
X82657664Y-74706206D01*
X82542455Y-74792452D01*
X82542452Y-74792455D01*
X82456206Y-74907664D01*
X82456202Y-74907671D01*
X82450682Y-74922473D01*
X82408811Y-74978407D01*
X82343346Y-75002824D01*
X82275073Y-74987972D01*
X82225668Y-74938567D01*
X82210500Y-74879140D01*
X82210500Y-73111456D01*
X82172052Y-72918170D01*
X82172051Y-72918169D01*
X82172051Y-72918165D01*
X82101635Y-72748164D01*
X82096635Y-72736092D01*
X82096628Y-72736079D01*
X81987140Y-72572219D01*
X81981005Y-72566084D01*
X81847782Y-72432861D01*
X81847781Y-72432860D01*
X79914915Y-70499994D01*
X93334357Y-70499994D01*
X93334357Y-70500005D01*
X93354890Y-70747812D01*
X93354892Y-70747824D01*
X93415936Y-70988881D01*
X93515826Y-71216606D01*
X93651833Y-71424782D01*
X93651836Y-71424785D01*
X93820256Y-71607738D01*
X94016491Y-71760474D01*
X94235190Y-71878828D01*
X94470386Y-71959571D01*
X94715665Y-72000500D01*
X94964335Y-72000500D01*
X95209614Y-71959571D01*
X95444810Y-71878828D01*
X95663509Y-71760474D01*
X95859744Y-71607738D01*
X96028164Y-71424785D01*
X96164173Y-71216607D01*
X96264063Y-70988881D01*
X96325108Y-70747821D01*
X96345643Y-70500000D01*
X96325108Y-70252179D01*
X96264063Y-70011119D01*
X96164173Y-69783393D01*
X96124626Y-69722861D01*
X96028166Y-69575217D01*
X95925029Y-69463181D01*
X95859744Y-69392262D01*
X95663509Y-69239526D01*
X95663507Y-69239525D01*
X95663506Y-69239524D01*
X95444811Y-69121172D01*
X95444802Y-69121169D01*
X95209616Y-69040429D01*
X94964335Y-68999500D01*
X94715665Y-68999500D01*
X94470383Y-69040429D01*
X94235197Y-69121169D01*
X94235188Y-69121172D01*
X94016493Y-69239524D01*
X93820257Y-69392261D01*
X93651833Y-69575217D01*
X93515826Y-69783393D01*
X93415936Y-70011118D01*
X93354892Y-70252175D01*
X93354890Y-70252187D01*
X93334357Y-70499994D01*
X79914915Y-70499994D01*
X79881890Y-70466969D01*
X79848405Y-70405646D01*
X79846043Y-70390095D01*
X79835063Y-70264597D01*
X79835063Y-70264596D01*
X79835063Y-70264592D01*
X79773903Y-70036337D01*
X79674035Y-69822171D01*
X79646883Y-69783393D01*
X79538494Y-69628597D01*
X79371402Y-69461506D01*
X79371395Y-69461501D01*
X79177834Y-69325967D01*
X79177830Y-69325965D01*
X79031373Y-69257671D01*
X78963663Y-69226097D01*
X78963659Y-69226096D01*
X78963655Y-69226094D01*
X78735413Y-69164938D01*
X78735403Y-69164936D01*
X78500001Y-69144341D01*
X78499999Y-69144341D01*
X78264596Y-69164936D01*
X78264586Y-69164938D01*
X78036344Y-69226094D01*
X78036335Y-69226098D01*
X77822171Y-69325964D01*
X77822169Y-69325965D01*
X77628597Y-69461505D01*
X77461505Y-69628597D01*
X77325965Y-69822169D01*
X77325964Y-69822171D01*
X77226098Y-70036335D01*
X77226094Y-70036344D01*
X77164938Y-70264586D01*
X77164936Y-70264596D01*
X77144341Y-70499999D01*
X76500500Y-70499999D01*
X76500500Y-54781902D01*
X76999500Y-54781902D01*
X76999500Y-55018097D01*
X77036447Y-55251369D01*
X77036447Y-55251372D01*
X77109430Y-55475988D01*
X77109430Y-55475989D01*
X77135985Y-55528106D01*
X77149500Y-55584399D01*
X77149500Y-55797869D01*
X77149501Y-55797876D01*
X77155908Y-55857483D01*
X77206202Y-55992328D01*
X77206206Y-55992335D01*
X77292452Y-56107544D01*
X77292455Y-56107547D01*
X77407664Y-56193793D01*
X77407671Y-56193797D01*
X77542516Y-56244091D01*
X77568419Y-56246875D01*
X77602127Y-56250500D01*
X77677109Y-56250499D01*
X77744148Y-56270183D01*
X77764791Y-56286818D01*
X82922490Y-61444517D01*
X83113566Y-61583343D01*
X83291507Y-61674008D01*
X83324003Y-61690566D01*
X83324005Y-61690566D01*
X83324008Y-61690568D01*
X83444412Y-61729689D01*
X83548631Y-61763553D01*
X83781903Y-61800500D01*
X83781908Y-61800500D01*
X94818097Y-61800500D01*
X95051368Y-61763553D01*
X95275992Y-61690568D01*
X95486434Y-61583343D01*
X95677510Y-61444517D01*
X98085208Y-59036819D01*
X98146531Y-59003334D01*
X98172889Y-59000500D01*
X106125500Y-59000500D01*
X106192539Y-59020185D01*
X106238294Y-59072989D01*
X106249500Y-59124500D01*
X106249500Y-61577111D01*
X106229815Y-61644150D01*
X106213181Y-61664792D01*
X93105485Y-74772487D01*
X93105484Y-74772488D01*
X92966657Y-74963565D01*
X92887205Y-75119500D01*
X92859433Y-75174003D01*
X92786446Y-75398631D01*
X92749500Y-75631902D01*
X92749500Y-127618097D01*
X92786446Y-127851368D01*
X92859433Y-128075996D01*
X92911295Y-128177780D01*
X92966657Y-128286434D01*
X93105483Y-128477510D01*
X95772490Y-131144517D01*
X95963567Y-131283343D01*
X96062991Y-131334002D01*
X96174003Y-131390566D01*
X96174005Y-131390566D01*
X96174008Y-131390568D01*
X96294412Y-131429689D01*
X96398631Y-131463553D01*
X96631903Y-131500500D01*
X96631908Y-131500500D01*
X96868092Y-131500500D01*
X106125500Y-131500500D01*
X106192539Y-131520185D01*
X106238294Y-131572989D01*
X106249500Y-131624500D01*
X106249500Y-132627110D01*
X106229815Y-132694149D01*
X106213181Y-132714791D01*
X91437681Y-147490291D01*
X91376358Y-147523776D01*
X91306666Y-147518792D01*
X91262319Y-147490291D01*
X88886818Y-145114790D01*
X88853333Y-145053467D01*
X88850499Y-145027109D01*
X88850499Y-144952129D01*
X88850498Y-144952123D01*
X88850497Y-144952116D01*
X88844091Y-144892517D01*
X88793796Y-144757669D01*
X88793795Y-144757668D01*
X88793793Y-144757664D01*
X88707547Y-144642455D01*
X88707544Y-144642452D01*
X88592335Y-144556206D01*
X88592328Y-144556202D01*
X88457482Y-144505908D01*
X88457483Y-144505908D01*
X88397883Y-144499501D01*
X88397881Y-144499500D01*
X88397873Y-144499500D01*
X88397865Y-144499500D01*
X88184400Y-144499500D01*
X88128105Y-144485985D01*
X88075996Y-144459433D01*
X87851368Y-144386446D01*
X87618097Y-144349500D01*
X87618092Y-144349500D01*
X87381908Y-144349500D01*
X87381903Y-144349500D01*
X87148630Y-144386447D01*
X87148627Y-144386447D01*
X86924009Y-144459431D01*
X86924008Y-144459431D01*
X86871893Y-144485985D01*
X86815600Y-144499500D01*
X86602130Y-144499500D01*
X86602123Y-144499501D01*
X86542516Y-144505908D01*
X86407671Y-144556202D01*
X86407664Y-144556206D01*
X86292455Y-144642452D01*
X86292452Y-144642455D01*
X86206206Y-144757664D01*
X86206202Y-144757671D01*
X86155908Y-144892517D01*
X86149501Y-144952116D01*
X86149501Y-144952123D01*
X86149500Y-144952135D01*
X86149500Y-145165599D01*
X86135985Y-145221893D01*
X86109430Y-145274009D01*
X86109430Y-145274011D01*
X86036447Y-145498627D01*
X86036447Y-145498630D01*
X85999500Y-145731902D01*
X85999500Y-145968097D01*
X86036447Y-146201369D01*
X86036447Y-146201372D01*
X86109430Y-146425988D01*
X86109430Y-146425989D01*
X86135985Y-146478106D01*
X86149500Y-146534399D01*
X86149500Y-146747869D01*
X86149501Y-146747876D01*
X86155908Y-146807483D01*
X86206202Y-146942328D01*
X86206206Y-146942335D01*
X86292452Y-147057544D01*
X86292455Y-147057547D01*
X86407664Y-147143793D01*
X86407671Y-147143797D01*
X86542516Y-147194091D01*
X86568419Y-147196875D01*
X86602127Y-147200500D01*
X86677109Y-147200499D01*
X86744148Y-147220183D01*
X86764791Y-147236818D01*
X90513181Y-150985208D01*
X90546666Y-151046531D01*
X90549500Y-151072889D01*
X90549500Y-151968097D01*
X90586447Y-152201369D01*
X90586447Y-152201372D01*
X90659430Y-152425988D01*
X90659430Y-152425989D01*
X90685985Y-152478106D01*
X90699500Y-152534399D01*
X90699500Y-152747869D01*
X90699501Y-152747876D01*
X90705908Y-152807483D01*
X90756202Y-152942328D01*
X90756206Y-152942335D01*
X90842452Y-153057544D01*
X90842455Y-153057547D01*
X90957664Y-153143793D01*
X90957671Y-153143797D01*
X91002618Y-153160561D01*
X91092517Y-153194091D01*
X91152127Y-153200500D01*
X91365598Y-153200499D01*
X91421893Y-153214014D01*
X91474008Y-153240568D01*
X91655059Y-153299395D01*
X91698631Y-153313553D01*
X91931903Y-153350500D01*
X91931908Y-153350500D01*
X92168097Y-153350500D01*
X92401368Y-153313553D01*
X92625992Y-153240568D01*
X92678107Y-153214014D01*
X92734401Y-153200499D01*
X92947871Y-153200499D01*
X92947872Y-153200499D01*
X93007483Y-153194091D01*
X93142331Y-153143796D01*
X93257546Y-153057546D01*
X93343796Y-152942331D01*
X93394091Y-152807483D01*
X93400500Y-152747873D01*
X93400499Y-152534399D01*
X93414014Y-152478105D01*
X93440568Y-152425992D01*
X93513553Y-152201368D01*
X93518209Y-152171969D01*
X93550500Y-151968097D01*
X93550500Y-151849999D01*
X106294341Y-151849999D01*
X106294341Y-151850000D01*
X106314936Y-152085403D01*
X106314938Y-152085413D01*
X106376094Y-152313655D01*
X106376096Y-152313659D01*
X106376097Y-152313663D01*
X106452778Y-152478106D01*
X106475965Y-152527830D01*
X106475967Y-152527834D01*
X106530235Y-152605336D01*
X106611505Y-152721401D01*
X106778599Y-152888495D01*
X106875384Y-152956265D01*
X106972165Y-153024032D01*
X106972167Y-153024033D01*
X106972170Y-153024035D01*
X107186337Y-153123903D01*
X107414592Y-153185063D01*
X107591034Y-153200500D01*
X107649999Y-153205659D01*
X107650000Y-153205659D01*
X107650001Y-153205659D01*
X107708966Y-153200500D01*
X107885408Y-153185063D01*
X108113663Y-153123903D01*
X108327830Y-153024035D01*
X108521401Y-152888495D01*
X108688495Y-152721401D01*
X108824035Y-152527830D01*
X108923903Y-152313663D01*
X108985063Y-152085408D01*
X109005659Y-151850000D01*
X108985063Y-151614592D01*
X108923903Y-151386337D01*
X108824035Y-151172171D01*
X108754518Y-151072889D01*
X108688494Y-150978597D01*
X108521402Y-150811506D01*
X108521395Y-150811501D01*
X108327834Y-150675967D01*
X108327830Y-150675965D01*
X108327828Y-150675964D01*
X108113663Y-150576097D01*
X108113659Y-150576096D01*
X108113655Y-150576094D01*
X107885413Y-150514938D01*
X107885403Y-150514936D01*
X107650001Y-150494341D01*
X107649999Y-150494341D01*
X107414596Y-150514936D01*
X107414586Y-150514938D01*
X107186344Y-150576094D01*
X107186335Y-150576098D01*
X106972171Y-150675964D01*
X106972169Y-150675965D01*
X106778597Y-150811505D01*
X106611505Y-150978597D01*
X106475965Y-151172169D01*
X106475964Y-151172171D01*
X106376098Y-151386335D01*
X106376094Y-151386344D01*
X106314938Y-151614586D01*
X106314936Y-151614596D01*
X106294341Y-151849999D01*
X93550500Y-151849999D01*
X93550500Y-149672889D01*
X93570185Y-149605850D01*
X93586819Y-149585208D01*
X107662319Y-135509708D01*
X107723642Y-135476223D01*
X107793334Y-135481207D01*
X107837681Y-135509708D01*
X119322490Y-146994517D01*
X119513566Y-147133343D01*
X119632792Y-147194091D01*
X119645368Y-147200499D01*
X119724003Y-147240566D01*
X119724005Y-147240566D01*
X119724008Y-147240568D01*
X119844412Y-147279689D01*
X119948631Y-147313553D01*
X120181903Y-147350500D01*
X120181908Y-147350500D01*
X121618097Y-147350500D01*
X121851368Y-147313553D01*
X122075992Y-147240568D01*
X122128107Y-147214014D01*
X122184401Y-147200499D01*
X122397871Y-147200499D01*
X122397872Y-147200499D01*
X122457483Y-147194091D01*
X122592331Y-147143796D01*
X122707546Y-147057546D01*
X122793796Y-146942331D01*
X122844091Y-146807483D01*
X122850500Y-146747873D01*
X122850499Y-146534399D01*
X122864014Y-146478105D01*
X122890568Y-146425992D01*
X122963553Y-146201368D01*
X123000500Y-145968097D01*
X123000500Y-145731902D01*
X122963553Y-145498631D01*
X122890565Y-145274000D01*
X122864014Y-145221891D01*
X122850499Y-145165597D01*
X122850499Y-144952129D01*
X122850498Y-144952123D01*
X122850497Y-144952116D01*
X122844091Y-144892517D01*
X122793796Y-144757669D01*
X122793795Y-144757668D01*
X122793793Y-144757664D01*
X122707547Y-144642455D01*
X122707544Y-144642452D01*
X122592335Y-144556206D01*
X122592328Y-144556202D01*
X122457482Y-144505908D01*
X122457483Y-144505908D01*
X122397883Y-144499501D01*
X122397881Y-144499500D01*
X122397873Y-144499500D01*
X122397865Y-144499500D01*
X122184400Y-144499500D01*
X122128105Y-144485985D01*
X122075996Y-144459433D01*
X121851368Y-144386446D01*
X121618097Y-144349500D01*
X121618092Y-144349500D01*
X120972889Y-144349500D01*
X120905850Y-144329815D01*
X120885208Y-144313181D01*
X109286819Y-132714792D01*
X109253334Y-132653469D01*
X109250500Y-132627111D01*
X109250500Y-129881902D01*
X109213553Y-129648631D01*
X109140565Y-129424000D01*
X109114014Y-129371891D01*
X109100499Y-129315597D01*
X109100499Y-129102129D01*
X109100498Y-129102123D01*
X109097686Y-129075965D01*
X109094091Y-129042517D01*
X109076073Y-128994209D01*
X109043797Y-128907671D01*
X109043793Y-128907664D01*
X108957547Y-128792455D01*
X108957544Y-128792452D01*
X108842335Y-128706206D01*
X108842328Y-128706202D01*
X108707482Y-128655908D01*
X108707483Y-128655908D01*
X108647883Y-128649501D01*
X108647881Y-128649500D01*
X108647873Y-128649500D01*
X108647865Y-128649500D01*
X108434400Y-128649500D01*
X108378105Y-128635985D01*
X108325996Y-128609433D01*
X108101368Y-128536446D01*
X107868097Y-128499500D01*
X107868092Y-128499500D01*
X97422889Y-128499500D01*
X97355850Y-128479815D01*
X97335208Y-128463181D01*
X95786819Y-126914792D01*
X95753334Y-126853469D01*
X95750500Y-126827111D01*
X95750500Y-123899997D01*
X96104341Y-123899997D01*
X96104341Y-123900001D01*
X96109028Y-123953574D01*
X96109500Y-123964381D01*
X96109500Y-126597870D01*
X96109501Y-126597876D01*
X96115908Y-126657483D01*
X96166202Y-126792328D01*
X96166206Y-126792335D01*
X96252452Y-126907544D01*
X96252455Y-126907547D01*
X96367664Y-126993793D01*
X96367671Y-126993797D01*
X96502517Y-127044091D01*
X96502516Y-127044091D01*
X96509444Y-127044835D01*
X96562127Y-127050500D01*
X98357872Y-127050499D01*
X98417483Y-127044091D01*
X98552331Y-126993796D01*
X98655690Y-126916421D01*
X98721152Y-126892004D01*
X98789425Y-126906855D01*
X98804303Y-126916416D01*
X98907665Y-126993793D01*
X98907668Y-126993795D01*
X98907671Y-126993797D01*
X99042517Y-127044091D01*
X99042516Y-127044091D01*
X99049444Y-127044835D01*
X99102127Y-127050500D01*
X100897872Y-127050499D01*
X100957483Y-127044091D01*
X101092331Y-126993796D01*
X101195690Y-126916421D01*
X101261152Y-126892004D01*
X101329425Y-126906855D01*
X101344303Y-126916416D01*
X101447665Y-126993793D01*
X101447668Y-126993795D01*
X101447671Y-126993797D01*
X101582517Y-127044091D01*
X101582516Y-127044091D01*
X101589444Y-127044835D01*
X101642127Y-127050500D01*
X103437872Y-127050499D01*
X103497483Y-127044091D01*
X103632331Y-126993796D01*
X103747546Y-126907546D01*
X103833796Y-126792331D01*
X103884091Y-126657483D01*
X103890500Y-126597873D01*
X103890499Y-123964381D01*
X103890971Y-123953578D01*
X103891619Y-123946179D01*
X103895659Y-123900000D01*
X103890971Y-123846418D01*
X103890499Y-123835610D01*
X103890499Y-123002129D01*
X103890498Y-123002123D01*
X103890497Y-123002116D01*
X103884091Y-122942517D01*
X103881030Y-122934311D01*
X103833797Y-122807671D01*
X103833793Y-122807664D01*
X103747547Y-122692455D01*
X103747544Y-122692452D01*
X103632335Y-122606206D01*
X103632328Y-122606202D01*
X103497482Y-122555908D01*
X103497483Y-122555908D01*
X103437883Y-122549501D01*
X103437881Y-122549500D01*
X103437873Y-122549500D01*
X103437865Y-122549500D01*
X102604383Y-122549500D01*
X102593576Y-122549028D01*
X102540002Y-122544341D01*
X102539999Y-122544341D01*
X102504865Y-122547414D01*
X102486421Y-122549028D01*
X102475616Y-122549500D01*
X101642129Y-122549500D01*
X101642123Y-122549501D01*
X101582516Y-122555908D01*
X101447671Y-122606202D01*
X101447669Y-122606203D01*
X101344311Y-122683578D01*
X101278847Y-122707995D01*
X101210574Y-122693144D01*
X101195689Y-122683578D01*
X101092330Y-122606203D01*
X101092328Y-122606202D01*
X100957482Y-122555908D01*
X100957483Y-122555908D01*
X100897883Y-122549501D01*
X100897881Y-122549500D01*
X100897873Y-122549500D01*
X100897864Y-122549500D01*
X99102129Y-122549500D01*
X99102123Y-122549501D01*
X99042516Y-122555908D01*
X98907671Y-122606202D01*
X98907669Y-122606203D01*
X98804311Y-122683578D01*
X98738847Y-122707995D01*
X98670574Y-122693144D01*
X98655689Y-122683578D01*
X98552330Y-122606203D01*
X98552328Y-122606202D01*
X98417482Y-122555908D01*
X98417483Y-122555908D01*
X98357883Y-122549501D01*
X98357881Y-122549500D01*
X98357873Y-122549500D01*
X98357865Y-122549500D01*
X97524383Y-122549500D01*
X97513576Y-122549028D01*
X97460002Y-122544341D01*
X97459999Y-122544341D01*
X97424865Y-122547414D01*
X97406421Y-122549028D01*
X97395616Y-122549500D01*
X96562129Y-122549500D01*
X96562123Y-122549501D01*
X96502516Y-122555908D01*
X96367671Y-122606202D01*
X96367664Y-122606206D01*
X96252455Y-122692452D01*
X96252452Y-122692455D01*
X96166206Y-122807664D01*
X96166202Y-122807671D01*
X96115908Y-122942517D01*
X96109501Y-123002116D01*
X96109501Y-123002123D01*
X96109500Y-123002135D01*
X96109500Y-123835618D01*
X96109028Y-123846425D01*
X96104341Y-123899997D01*
X95750500Y-123899997D01*
X95750500Y-108889997D01*
X107534341Y-108889997D01*
X107534341Y-108890002D01*
X107539028Y-108943576D01*
X107539500Y-108954383D01*
X107539500Y-109787870D01*
X107539501Y-109787876D01*
X107545908Y-109847483D01*
X107596202Y-109982328D01*
X107596203Y-109982330D01*
X107673578Y-110085689D01*
X107697995Y-110151153D01*
X107683144Y-110219426D01*
X107673578Y-110234311D01*
X107596203Y-110337669D01*
X107596202Y-110337671D01*
X107545908Y-110472517D01*
X107539501Y-110532116D01*
X107539501Y-110532123D01*
X107539500Y-110532135D01*
X107539500Y-111365616D01*
X107539028Y-111376423D01*
X107534341Y-111429997D01*
X107534341Y-111430002D01*
X107539028Y-111483576D01*
X107539500Y-111494383D01*
X107539500Y-112327870D01*
X107539501Y-112327876D01*
X107545908Y-112387483D01*
X107596202Y-112522328D01*
X107596203Y-112522330D01*
X107673578Y-112625689D01*
X107697995Y-112691153D01*
X107683144Y-112759426D01*
X107673578Y-112774311D01*
X107596203Y-112877669D01*
X107596202Y-112877671D01*
X107545908Y-113012517D01*
X107539501Y-113072116D01*
X107539501Y-113072123D01*
X107539500Y-113072135D01*
X107539500Y-113905616D01*
X107539028Y-113916423D01*
X107534341Y-113969997D01*
X107534341Y-113970002D01*
X107539028Y-114023576D01*
X107539500Y-114034383D01*
X107539500Y-114867870D01*
X107539501Y-114867876D01*
X107545908Y-114927483D01*
X107596202Y-115062328D01*
X107596203Y-115062330D01*
X107673578Y-115165689D01*
X107697995Y-115231153D01*
X107683144Y-115299426D01*
X107673578Y-115314311D01*
X107596203Y-115417669D01*
X107596202Y-115417671D01*
X107545908Y-115552517D01*
X107539501Y-115612116D01*
X107539501Y-115612123D01*
X107539500Y-115612135D01*
X107539500Y-116445616D01*
X107539028Y-116456423D01*
X107534341Y-116509997D01*
X107534341Y-116510002D01*
X107539028Y-116563576D01*
X107539500Y-116574383D01*
X107539500Y-117407870D01*
X107539501Y-117407876D01*
X107545908Y-117467483D01*
X107596202Y-117602328D01*
X107596206Y-117602335D01*
X107682452Y-117717544D01*
X107682455Y-117717547D01*
X107797664Y-117803793D01*
X107797671Y-117803797D01*
X107932517Y-117854091D01*
X107932516Y-117854091D01*
X107939444Y-117854835D01*
X107992127Y-117860500D01*
X108825616Y-117860499D01*
X108836425Y-117860971D01*
X108890000Y-117865659D01*
X108943575Y-117860971D01*
X108954384Y-117860499D01*
X111587871Y-117860499D01*
X111587872Y-117860499D01*
X111647483Y-117854091D01*
X111782331Y-117803796D01*
X111897546Y-117717546D01*
X111983796Y-117602331D01*
X112034091Y-117467483D01*
X112040500Y-117407873D01*
X112040500Y-117384500D01*
X112060185Y-117317461D01*
X112112989Y-117271706D01*
X112164500Y-117260500D01*
X114775501Y-117260500D01*
X114842540Y-117280185D01*
X114888295Y-117332989D01*
X114899501Y-117384500D01*
X114899501Y-117897876D01*
X114905908Y-117957483D01*
X114956202Y-118092328D01*
X114956206Y-118092335D01*
X115042452Y-118207544D01*
X115042455Y-118207547D01*
X115157664Y-118293793D01*
X115157671Y-118293797D01*
X115292517Y-118344091D01*
X115292516Y-118344091D01*
X115299444Y-118344835D01*
X115352127Y-118350500D01*
X117147872Y-118350499D01*
X117207483Y-118344091D01*
X117342331Y-118293796D01*
X117457546Y-118207546D01*
X117543796Y-118092331D01*
X117549318Y-118077525D01*
X117591188Y-118021593D01*
X117656652Y-117997175D01*
X117724925Y-118012026D01*
X117774331Y-118061430D01*
X117789500Y-118120859D01*
X117789500Y-119879140D01*
X117769815Y-119946179D01*
X117717011Y-119991934D01*
X117647853Y-120001878D01*
X117584297Y-119972853D01*
X117549318Y-119922473D01*
X117543797Y-119907671D01*
X117543793Y-119907664D01*
X117457547Y-119792455D01*
X117457544Y-119792452D01*
X117342335Y-119706206D01*
X117342328Y-119706202D01*
X117207482Y-119655908D01*
X117207483Y-119655908D01*
X117147883Y-119649501D01*
X117147881Y-119649500D01*
X117147873Y-119649500D01*
X117147864Y-119649500D01*
X115352129Y-119649500D01*
X115352123Y-119649501D01*
X115292516Y-119655908D01*
X115157671Y-119706202D01*
X115157664Y-119706206D01*
X115042455Y-119792452D01*
X115042452Y-119792455D01*
X114956206Y-119907664D01*
X114956202Y-119907671D01*
X114905908Y-120042517D01*
X114903427Y-120065599D01*
X114899501Y-120102123D01*
X114899500Y-120102135D01*
X114899500Y-120715500D01*
X114879815Y-120782539D01*
X114827011Y-120828294D01*
X114775500Y-120839500D01*
X112164499Y-120839500D01*
X112097460Y-120819815D01*
X112051705Y-120767011D01*
X112040499Y-120715500D01*
X112040499Y-120692129D01*
X112040498Y-120692123D01*
X112040497Y-120692116D01*
X112034091Y-120632517D01*
X112002732Y-120548440D01*
X111983797Y-120497671D01*
X111983793Y-120497664D01*
X111897547Y-120382455D01*
X111897544Y-120382452D01*
X111782335Y-120296206D01*
X111782328Y-120296202D01*
X111647482Y-120245908D01*
X111647483Y-120245908D01*
X111587883Y-120239501D01*
X111587881Y-120239500D01*
X111587873Y-120239500D01*
X111587865Y-120239500D01*
X108954385Y-120239500D01*
X108943578Y-120239028D01*
X108890001Y-120234341D01*
X108889997Y-120234341D01*
X108836419Y-120239028D01*
X108825613Y-120239500D01*
X107992129Y-120239500D01*
X107992123Y-120239501D01*
X107932516Y-120245908D01*
X107797671Y-120296202D01*
X107797664Y-120296206D01*
X107682455Y-120382452D01*
X107682452Y-120382455D01*
X107596206Y-120497664D01*
X107596202Y-120497671D01*
X107545908Y-120632517D01*
X107539501Y-120692116D01*
X107539501Y-120692123D01*
X107539500Y-120692135D01*
X107539500Y-121525616D01*
X107539028Y-121536423D01*
X107534341Y-121589997D01*
X107534341Y-121590002D01*
X107539028Y-121643576D01*
X107539500Y-121654383D01*
X107539500Y-122487870D01*
X107539501Y-122487876D01*
X107545908Y-122547483D01*
X107596202Y-122682328D01*
X107596203Y-122682330D01*
X107673578Y-122785689D01*
X107697995Y-122851153D01*
X107683144Y-122919426D01*
X107673578Y-122934311D01*
X107596203Y-123037669D01*
X107596202Y-123037671D01*
X107545908Y-123172517D01*
X107539501Y-123232116D01*
X107539501Y-123232123D01*
X107539500Y-123232135D01*
X107539500Y-124065616D01*
X107539028Y-124076423D01*
X107534341Y-124129997D01*
X107534341Y-124130002D01*
X107539028Y-124183576D01*
X107539500Y-124194383D01*
X107539500Y-125027870D01*
X107539501Y-125027876D01*
X107545908Y-125087483D01*
X107596202Y-125222328D01*
X107596206Y-125222335D01*
X107682452Y-125337544D01*
X107682455Y-125337547D01*
X107797664Y-125423793D01*
X107797671Y-125423797D01*
X107932517Y-125474091D01*
X107932516Y-125474091D01*
X107939444Y-125474835D01*
X107992127Y-125480500D01*
X108825616Y-125480499D01*
X108836425Y-125480971D01*
X108890000Y-125485659D01*
X108943575Y-125480971D01*
X108954384Y-125480499D01*
X109127769Y-125480499D01*
X109194808Y-125500184D01*
X109215450Y-125516818D01*
X109281586Y-125582954D01*
X109311058Y-125602645D01*
X109355270Y-125632186D01*
X109404505Y-125665084D01*
X109404506Y-125665084D01*
X109404507Y-125665085D01*
X109404509Y-125665086D01*
X109435286Y-125677834D01*
X109541087Y-125721658D01*
X109541091Y-125721658D01*
X109541092Y-125721659D01*
X109686079Y-125750500D01*
X109686082Y-125750500D01*
X109686083Y-125750500D01*
X109833918Y-125750500D01*
X114775501Y-125750500D01*
X114842540Y-125770185D01*
X114888295Y-125822989D01*
X114899501Y-125874500D01*
X114899501Y-125897876D01*
X114905908Y-125957483D01*
X114956202Y-126092328D01*
X114956206Y-126092335D01*
X115042452Y-126207544D01*
X115042455Y-126207547D01*
X115157664Y-126293793D01*
X115157671Y-126293797D01*
X115292517Y-126344091D01*
X115292516Y-126344091D01*
X115299444Y-126344835D01*
X115352127Y-126350500D01*
X117147872Y-126350499D01*
X117207483Y-126344091D01*
X117342331Y-126293796D01*
X117457546Y-126207546D01*
X117543796Y-126092331D01*
X117549318Y-126077525D01*
X117591188Y-126021593D01*
X117656652Y-125997175D01*
X117724925Y-126012026D01*
X117774331Y-126061430D01*
X117789500Y-126120859D01*
X117789500Y-127638541D01*
X117789500Y-127638543D01*
X117789499Y-127638543D01*
X117827947Y-127831829D01*
X117827950Y-127831839D01*
X117903364Y-128013907D01*
X117903371Y-128013920D01*
X118012859Y-128177780D01*
X118012860Y-128177781D01*
X118012861Y-128177782D01*
X118152218Y-128317139D01*
X118152219Y-128317139D01*
X118159286Y-128324206D01*
X118159285Y-128324206D01*
X118159289Y-128324209D01*
X120118108Y-130283029D01*
X120151593Y-130344352D01*
X120153955Y-130359901D01*
X120164936Y-130485403D01*
X120164938Y-130485413D01*
X120226094Y-130713655D01*
X120226096Y-130713659D01*
X120226097Y-130713663D01*
X120299649Y-130871395D01*
X120325965Y-130927830D01*
X120325967Y-130927834D01*
X120434281Y-131082521D01*
X120461505Y-131121401D01*
X120628599Y-131288495D01*
X120695102Y-131335061D01*
X120822165Y-131424032D01*
X120822167Y-131424033D01*
X120822170Y-131424035D01*
X121036337Y-131523903D01*
X121264592Y-131585063D01*
X121452918Y-131601539D01*
X121499999Y-131605659D01*
X121500000Y-131605659D01*
X121500001Y-131605659D01*
X121539234Y-131602226D01*
X121735408Y-131585063D01*
X121963663Y-131523903D01*
X122177830Y-131424035D01*
X122371401Y-131288495D01*
X122538495Y-131121401D01*
X122674035Y-130927830D01*
X122773903Y-130713663D01*
X122835063Y-130485408D01*
X122855659Y-130250000D01*
X122835063Y-130014592D01*
X122773903Y-129786337D01*
X122674035Y-129572171D01*
X122648943Y-129536335D01*
X122538494Y-129378597D01*
X122371402Y-129211506D01*
X122371395Y-129211501D01*
X122177834Y-129075967D01*
X122177830Y-129075965D01*
X122177828Y-129075964D01*
X121963663Y-128976097D01*
X121963659Y-128976096D01*
X121963655Y-128976094D01*
X121735413Y-128914938D01*
X121735403Y-128914936D01*
X121609901Y-128903955D01*
X121544833Y-128878502D01*
X121533029Y-128868108D01*
X119826819Y-127161898D01*
X119793334Y-127100575D01*
X119790500Y-127074217D01*
X119790500Y-125960758D01*
X119810185Y-125893719D01*
X119826819Y-125873077D01*
X119828495Y-125871401D01*
X119964035Y-125677830D01*
X120063903Y-125463663D01*
X120125063Y-125235408D01*
X120145659Y-125000000D01*
X120125063Y-124764592D01*
X120063903Y-124536337D01*
X119964035Y-124322171D01*
X119913151Y-124249500D01*
X119828494Y-124128597D01*
X119826819Y-124126922D01*
X119826315Y-124126000D01*
X119825014Y-124124449D01*
X119825325Y-124124187D01*
X119793334Y-124065599D01*
X119790500Y-124039241D01*
X119790500Y-121960758D01*
X119810185Y-121893719D01*
X119826819Y-121873077D01*
X119828495Y-121871401D01*
X119964035Y-121677830D01*
X120063903Y-121463663D01*
X120125063Y-121235408D01*
X120145659Y-121000000D01*
X120125063Y-120764592D01*
X120063903Y-120536337D01*
X119964035Y-120322171D01*
X119945855Y-120296206D01*
X119828494Y-120128597D01*
X119826819Y-120126922D01*
X119826315Y-120126000D01*
X119825014Y-120124449D01*
X119825325Y-120124187D01*
X119793334Y-120065599D01*
X119790500Y-120039241D01*
X119790500Y-117960758D01*
X119810185Y-117893719D01*
X119826819Y-117873077D01*
X119828495Y-117871401D01*
X119964035Y-117677830D01*
X120063903Y-117463663D01*
X120125063Y-117235408D01*
X120145659Y-117000000D01*
X120125063Y-116764592D01*
X120063903Y-116536337D01*
X119964035Y-116322171D01*
X119828495Y-116128599D01*
X119828494Y-116128597D01*
X119661402Y-115961506D01*
X119661395Y-115961501D01*
X119467834Y-115825967D01*
X119467830Y-115825965D01*
X119467828Y-115825964D01*
X119253663Y-115726097D01*
X119253659Y-115726096D01*
X119253655Y-115726094D01*
X119025413Y-115664938D01*
X119025403Y-115664936D01*
X118790001Y-115644341D01*
X118789999Y-115644341D01*
X118554596Y-115664936D01*
X118554586Y-115664938D01*
X118326344Y-115726094D01*
X118326335Y-115726098D01*
X118112171Y-115825964D01*
X118112169Y-115825965D01*
X117918600Y-115961503D01*
X117796673Y-116083430D01*
X117735350Y-116116914D01*
X117665658Y-116111930D01*
X117609725Y-116070058D01*
X117592810Y-116039081D01*
X117543797Y-115907671D01*
X117543793Y-115907664D01*
X117457547Y-115792455D01*
X117457544Y-115792452D01*
X117342335Y-115706206D01*
X117342328Y-115706202D01*
X117207482Y-115655908D01*
X117207483Y-115655908D01*
X117147883Y-115649501D01*
X117147881Y-115649500D01*
X117147873Y-115649500D01*
X117147864Y-115649500D01*
X115352129Y-115649500D01*
X115352123Y-115649501D01*
X115292516Y-115655908D01*
X115157671Y-115706202D01*
X115157669Y-115706203D01*
X115119514Y-115734767D01*
X115054050Y-115759184D01*
X115045203Y-115759500D01*
X112164499Y-115759500D01*
X112097460Y-115739815D01*
X112051705Y-115687011D01*
X112040499Y-115635500D01*
X112040499Y-115612129D01*
X112040498Y-115612123D01*
X112040497Y-115612116D01*
X112034091Y-115552517D01*
X111983796Y-115417669D01*
X111906421Y-115314309D01*
X111882004Y-115248848D01*
X111896855Y-115180575D01*
X111906416Y-115165696D01*
X111983796Y-115062331D01*
X112034091Y-114927483D01*
X112040500Y-114867873D01*
X112040500Y-114834878D01*
X112060185Y-114767839D01*
X112112989Y-114722084D01*
X112140307Y-114713261D01*
X112248913Y-114691658D01*
X112385495Y-114635084D01*
X112434729Y-114602186D01*
X112508416Y-114552952D01*
X116082952Y-110978416D01*
X116132186Y-110904729D01*
X116165084Y-110855495D01*
X116221658Y-110718913D01*
X116250500Y-110573918D01*
X116250500Y-105474499D01*
X116270185Y-105407460D01*
X116322989Y-105361705D01*
X116374500Y-105350499D01*
X117147871Y-105350499D01*
X117147872Y-105350499D01*
X117207483Y-105344091D01*
X117342331Y-105293796D01*
X117457546Y-105207546D01*
X117543796Y-105092331D01*
X117592810Y-104960916D01*
X117634681Y-104904984D01*
X117700145Y-104880566D01*
X117768418Y-104895417D01*
X117796673Y-104916569D01*
X117918599Y-105038495D01*
X118011854Y-105103793D01*
X118112165Y-105174032D01*
X118112167Y-105174033D01*
X118112170Y-105174035D01*
X118326337Y-105273903D01*
X118554592Y-105335063D01*
X118731034Y-105350500D01*
X118789999Y-105355659D01*
X118790000Y-105355659D01*
X118790001Y-105355659D01*
X118848966Y-105350500D01*
X119025408Y-105335063D01*
X119253663Y-105273903D01*
X119467830Y-105174035D01*
X119661401Y-105038495D01*
X119828495Y-104871401D01*
X119964035Y-104677830D01*
X120063903Y-104463663D01*
X120125063Y-104235408D01*
X120145659Y-104000000D01*
X120125063Y-103764592D01*
X120063903Y-103536337D01*
X119964035Y-103322171D01*
X119913151Y-103249500D01*
X119828494Y-103128597D01*
X119661402Y-102961506D01*
X119661395Y-102961501D01*
X119467834Y-102825967D01*
X119467830Y-102825965D01*
X119467828Y-102825964D01*
X119253663Y-102726097D01*
X119253659Y-102726096D01*
X119253655Y-102726094D01*
X119025413Y-102664938D01*
X119025403Y-102664936D01*
X118790001Y-102644341D01*
X118789999Y-102644341D01*
X118554596Y-102664936D01*
X118554586Y-102664938D01*
X118326344Y-102726094D01*
X118326335Y-102726098D01*
X118112171Y-102825964D01*
X118112169Y-102825965D01*
X117918600Y-102961503D01*
X117796673Y-103083430D01*
X117735350Y-103116914D01*
X117665658Y-103111930D01*
X117609725Y-103070058D01*
X117592810Y-103039081D01*
X117543797Y-102907671D01*
X117543793Y-102907664D01*
X117457547Y-102792455D01*
X117457544Y-102792452D01*
X117342335Y-102706206D01*
X117342328Y-102706202D01*
X117207482Y-102655908D01*
X117207483Y-102655908D01*
X117147883Y-102649501D01*
X117147881Y-102649500D01*
X117147873Y-102649500D01*
X117147865Y-102649500D01*
X115374500Y-102649500D01*
X115307461Y-102629815D01*
X115261706Y-102577011D01*
X115250500Y-102525500D01*
X115250500Y-102112229D01*
X115270185Y-102045190D01*
X115286815Y-102024552D01*
X115924549Y-101386817D01*
X115985872Y-101353333D01*
X116012230Y-101350499D01*
X117147871Y-101350499D01*
X117147872Y-101350499D01*
X117207483Y-101344091D01*
X117342331Y-101293796D01*
X117457546Y-101207546D01*
X117543796Y-101092331D01*
X117592810Y-100960916D01*
X117634681Y-100904984D01*
X117700145Y-100880566D01*
X117768418Y-100895417D01*
X117796673Y-100916569D01*
X117918599Y-101038495D01*
X118015384Y-101106265D01*
X118112165Y-101174032D01*
X118112167Y-101174033D01*
X118112170Y-101174035D01*
X118326337Y-101273903D01*
X118554592Y-101335063D01*
X118731034Y-101350500D01*
X118789999Y-101355659D01*
X118790000Y-101355659D01*
X118790001Y-101355659D01*
X118848966Y-101350500D01*
X119025408Y-101335063D01*
X119253663Y-101273903D01*
X119467830Y-101174035D01*
X119661401Y-101038495D01*
X119828495Y-100871401D01*
X119964035Y-100677830D01*
X120063903Y-100463663D01*
X120125063Y-100235408D01*
X120145659Y-100000000D01*
X120125063Y-99764592D01*
X120063903Y-99536337D01*
X119964035Y-99322171D01*
X119828495Y-99128599D01*
X119828494Y-99128597D01*
X119661402Y-98961506D01*
X119661395Y-98961501D01*
X119467834Y-98825967D01*
X119467830Y-98825965D01*
X119467828Y-98825964D01*
X119253663Y-98726097D01*
X119253659Y-98726096D01*
X119253655Y-98726094D01*
X119025413Y-98664938D01*
X119025403Y-98664936D01*
X118790001Y-98644341D01*
X118789999Y-98644341D01*
X118554596Y-98664936D01*
X118554586Y-98664938D01*
X118326344Y-98726094D01*
X118326337Y-98726096D01*
X118326337Y-98726097D01*
X118317969Y-98729999D01*
X118112171Y-98825964D01*
X118112169Y-98825965D01*
X117918600Y-98961503D01*
X117796673Y-99083430D01*
X117735350Y-99116914D01*
X117665658Y-99111930D01*
X117609725Y-99070058D01*
X117592810Y-99039081D01*
X117543797Y-98907671D01*
X117543793Y-98907664D01*
X117457547Y-98792455D01*
X117457544Y-98792452D01*
X117342335Y-98706206D01*
X117342328Y-98706202D01*
X117207482Y-98655908D01*
X117207483Y-98655908D01*
X117147883Y-98649501D01*
X117147881Y-98649500D01*
X117147873Y-98649500D01*
X117147864Y-98649500D01*
X115352129Y-98649500D01*
X115352123Y-98649501D01*
X115292516Y-98655908D01*
X115157671Y-98706202D01*
X115157664Y-98706206D01*
X115042455Y-98792452D01*
X115042452Y-98792455D01*
X114956206Y-98907664D01*
X114956202Y-98907671D01*
X114905908Y-99042517D01*
X114899501Y-99102116D01*
X114899500Y-99102135D01*
X114899500Y-100237769D01*
X114879815Y-100304808D01*
X114863181Y-100325450D01*
X114462181Y-100726450D01*
X114400858Y-100759935D01*
X114331166Y-100754951D01*
X114275233Y-100713079D01*
X114250816Y-100647615D01*
X114250500Y-100638769D01*
X114250500Y-98112229D01*
X114270185Y-98045190D01*
X114286815Y-98024552D01*
X115001572Y-97309794D01*
X115062895Y-97276310D01*
X115132587Y-97281294D01*
X115149383Y-97290465D01*
X115149886Y-97289546D01*
X115157671Y-97293797D01*
X115292517Y-97344091D01*
X115292516Y-97344091D01*
X115299444Y-97344835D01*
X115352127Y-97350500D01*
X117147872Y-97350499D01*
X117207483Y-97344091D01*
X117342331Y-97293796D01*
X117457546Y-97207546D01*
X117543796Y-97092331D01*
X117592810Y-96960916D01*
X117634681Y-96904984D01*
X117700145Y-96880566D01*
X117768418Y-96895417D01*
X117796673Y-96916569D01*
X117918599Y-97038495D01*
X118015384Y-97106265D01*
X118112165Y-97174032D01*
X118112167Y-97174033D01*
X118112170Y-97174035D01*
X118326337Y-97273903D01*
X118554592Y-97335063D01*
X118731034Y-97350500D01*
X118789999Y-97355659D01*
X118790000Y-97355659D01*
X118790001Y-97355659D01*
X118848966Y-97350500D01*
X119025408Y-97335063D01*
X119253663Y-97273903D01*
X119467830Y-97174035D01*
X119661401Y-97038495D01*
X119828495Y-96871401D01*
X119964035Y-96677830D01*
X120063903Y-96463663D01*
X120125063Y-96235408D01*
X120145659Y-96000000D01*
X120125063Y-95764592D01*
X120063903Y-95536337D01*
X119964035Y-95322171D01*
X119943000Y-95292129D01*
X119828494Y-95128597D01*
X119661402Y-94961506D01*
X119661395Y-94961501D01*
X119467834Y-94825967D01*
X119467830Y-94825965D01*
X119467828Y-94825964D01*
X119253663Y-94726097D01*
X119253659Y-94726096D01*
X119253655Y-94726094D01*
X119025413Y-94664938D01*
X119025403Y-94664936D01*
X118790001Y-94644341D01*
X118789999Y-94644341D01*
X118554596Y-94664936D01*
X118554586Y-94664938D01*
X118326344Y-94726094D01*
X118326335Y-94726098D01*
X118112171Y-94825964D01*
X118112169Y-94825965D01*
X117918600Y-94961503D01*
X117796673Y-95083430D01*
X117735350Y-95116914D01*
X117665658Y-95111930D01*
X117609725Y-95070058D01*
X117592810Y-95039081D01*
X117543797Y-94907671D01*
X117543793Y-94907664D01*
X117457547Y-94792455D01*
X117457544Y-94792452D01*
X117342335Y-94706206D01*
X117342328Y-94706202D01*
X117207482Y-94655908D01*
X117207483Y-94655908D01*
X117147883Y-94649501D01*
X117147881Y-94649500D01*
X117147873Y-94649500D01*
X117147864Y-94649500D01*
X115352129Y-94649500D01*
X115352123Y-94649501D01*
X115292516Y-94655908D01*
X115157671Y-94706202D01*
X115157664Y-94706206D01*
X115042455Y-94792452D01*
X115042452Y-94792455D01*
X114956206Y-94907664D01*
X114956202Y-94907671D01*
X114905908Y-95042517D01*
X114899980Y-95097664D01*
X114899501Y-95102123D01*
X114899500Y-95102135D01*
X114899500Y-95265299D01*
X114879815Y-95332338D01*
X114844389Y-95368402D01*
X114771589Y-95417043D01*
X114771584Y-95417047D01*
X112917049Y-97271582D01*
X112902207Y-97293796D01*
X112834913Y-97394508D01*
X112778343Y-97531082D01*
X112778340Y-97531092D01*
X112749500Y-97676079D01*
X112749500Y-106387769D01*
X112729815Y-106454808D01*
X112713181Y-106475450D01*
X111685115Y-107503515D01*
X111623792Y-107537000D01*
X111590806Y-107539657D01*
X111587873Y-107539500D01*
X108954385Y-107539500D01*
X108943578Y-107539028D01*
X108890001Y-107534341D01*
X108889997Y-107534341D01*
X108836419Y-107539028D01*
X108825613Y-107539500D01*
X107992129Y-107539500D01*
X107992123Y-107539501D01*
X107932516Y-107545908D01*
X107797671Y-107596202D01*
X107797664Y-107596206D01*
X107682455Y-107682452D01*
X107682452Y-107682455D01*
X107596206Y-107797664D01*
X107596202Y-107797671D01*
X107545908Y-107932517D01*
X107539501Y-107992116D01*
X107539501Y-107992123D01*
X107539500Y-107992135D01*
X107539500Y-108825616D01*
X107539028Y-108836423D01*
X107534341Y-108889997D01*
X95750500Y-108889997D01*
X95750500Y-96189997D01*
X107534341Y-96189997D01*
X107534341Y-96190002D01*
X107539028Y-96243576D01*
X107539500Y-96254383D01*
X107539500Y-97087870D01*
X107539501Y-97087876D01*
X107545908Y-97147483D01*
X107596202Y-97282328D01*
X107596203Y-97282330D01*
X107673578Y-97385689D01*
X107697995Y-97451153D01*
X107683144Y-97519426D01*
X107673578Y-97534311D01*
X107596203Y-97637669D01*
X107596202Y-97637671D01*
X107545908Y-97772517D01*
X107539501Y-97832116D01*
X107539501Y-97832123D01*
X107539500Y-97832135D01*
X107539500Y-98665616D01*
X107539028Y-98676423D01*
X107534341Y-98729997D01*
X107534341Y-98730002D01*
X107539028Y-98783576D01*
X107539500Y-98794383D01*
X107539500Y-99627870D01*
X107539501Y-99627876D01*
X107545908Y-99687483D01*
X107596202Y-99822328D01*
X107596203Y-99822330D01*
X107673578Y-99925689D01*
X107697995Y-99991153D01*
X107683144Y-100059426D01*
X107673578Y-100074311D01*
X107596203Y-100177669D01*
X107596202Y-100177671D01*
X107545908Y-100312517D01*
X107539501Y-100372116D01*
X107539501Y-100372123D01*
X107539500Y-100372135D01*
X107539500Y-101205616D01*
X107539028Y-101216423D01*
X107534341Y-101269997D01*
X107534341Y-101270002D01*
X107539028Y-101323576D01*
X107539500Y-101334383D01*
X107539500Y-102167870D01*
X107539501Y-102167876D01*
X107545908Y-102227483D01*
X107596202Y-102362328D01*
X107596203Y-102362330D01*
X107673578Y-102465689D01*
X107697995Y-102531153D01*
X107683144Y-102599426D01*
X107673578Y-102614311D01*
X107596203Y-102717669D01*
X107596202Y-102717671D01*
X107545908Y-102852517D01*
X107539980Y-102907664D01*
X107539501Y-102912123D01*
X107539500Y-102912135D01*
X107539500Y-103745616D01*
X107539028Y-103756423D01*
X107534341Y-103809997D01*
X107534341Y-103810002D01*
X107539028Y-103863576D01*
X107539500Y-103874383D01*
X107539500Y-104707870D01*
X107539501Y-104707876D01*
X107545908Y-104767483D01*
X107596202Y-104902328D01*
X107596206Y-104902335D01*
X107682452Y-105017544D01*
X107682455Y-105017547D01*
X107797664Y-105103793D01*
X107797671Y-105103797D01*
X107932517Y-105154091D01*
X107932516Y-105154091D01*
X107939444Y-105154835D01*
X107992127Y-105160500D01*
X108825616Y-105160499D01*
X108836425Y-105160971D01*
X108890000Y-105165659D01*
X108943575Y-105160971D01*
X108954384Y-105160499D01*
X111587871Y-105160499D01*
X111587872Y-105160499D01*
X111647483Y-105154091D01*
X111782331Y-105103796D01*
X111897546Y-105017546D01*
X111983796Y-104902331D01*
X112034091Y-104767483D01*
X112040500Y-104707873D01*
X112040499Y-102912128D01*
X112034091Y-102852517D01*
X112029892Y-102841260D01*
X111983797Y-102717671D01*
X111983795Y-102717668D01*
X111906421Y-102614309D01*
X111882004Y-102548848D01*
X111896855Y-102480575D01*
X111906416Y-102465696D01*
X111983796Y-102362331D01*
X112034091Y-102227483D01*
X112040500Y-102167873D01*
X112040499Y-100372128D01*
X112034091Y-100312517D01*
X112005331Y-100235408D01*
X111983797Y-100177671D01*
X111983795Y-100177668D01*
X111906421Y-100074309D01*
X111882004Y-100008848D01*
X111896855Y-99940575D01*
X111906416Y-99925696D01*
X111983796Y-99822331D01*
X112034091Y-99687483D01*
X112040500Y-99627873D01*
X112040499Y-97832128D01*
X112034091Y-97772517D01*
X111983796Y-97637669D01*
X111906421Y-97534309D01*
X111882004Y-97468848D01*
X111896855Y-97400575D01*
X111906416Y-97385696D01*
X111983796Y-97282331D01*
X112034091Y-97147483D01*
X112040500Y-97087873D01*
X112040499Y-95292128D01*
X112034091Y-95232517D01*
X112033083Y-95229815D01*
X111983797Y-95097671D01*
X111983793Y-95097664D01*
X111897547Y-94982455D01*
X111897544Y-94982452D01*
X111782335Y-94896206D01*
X111782328Y-94896202D01*
X111647482Y-94845908D01*
X111647483Y-94845908D01*
X111587883Y-94839501D01*
X111587881Y-94839500D01*
X111587873Y-94839500D01*
X111587865Y-94839500D01*
X108954385Y-94839500D01*
X108943578Y-94839028D01*
X108890001Y-94834341D01*
X108889997Y-94834341D01*
X108836419Y-94839028D01*
X108825613Y-94839500D01*
X107992129Y-94839500D01*
X107992123Y-94839501D01*
X107932516Y-94845908D01*
X107797671Y-94896202D01*
X107797664Y-94896206D01*
X107682455Y-94982452D01*
X107682452Y-94982455D01*
X107596206Y-95097664D01*
X107596202Y-95097671D01*
X107545908Y-95232517D01*
X107542384Y-95265299D01*
X107539501Y-95292123D01*
X107539500Y-95292135D01*
X107539500Y-96125616D01*
X107539028Y-96136423D01*
X107534341Y-96189997D01*
X95750500Y-96189997D01*
X95750500Y-83490000D01*
X107534341Y-83490000D01*
X107538394Y-83536335D01*
X107539028Y-83543576D01*
X107539500Y-83554383D01*
X107539500Y-84387870D01*
X107539501Y-84387876D01*
X107545908Y-84447483D01*
X107596202Y-84582328D01*
X107596203Y-84582330D01*
X107596204Y-84582331D01*
X107664851Y-84674032D01*
X107673578Y-84685689D01*
X107697995Y-84751153D01*
X107683144Y-84819426D01*
X107673578Y-84834309D01*
X107673015Y-84835063D01*
X107596203Y-84937669D01*
X107596202Y-84937671D01*
X107545908Y-85072517D01*
X107543778Y-85092335D01*
X107539501Y-85132123D01*
X107539500Y-85132135D01*
X107539500Y-85965616D01*
X107539028Y-85976423D01*
X107534341Y-86029997D01*
X107534341Y-86030002D01*
X107539028Y-86083576D01*
X107539500Y-86094383D01*
X107539500Y-86927870D01*
X107539501Y-86927876D01*
X107545908Y-86987483D01*
X107596202Y-87122328D01*
X107596203Y-87122330D01*
X107673578Y-87225689D01*
X107697995Y-87291153D01*
X107683144Y-87359426D01*
X107673578Y-87374311D01*
X107596203Y-87477669D01*
X107596202Y-87477671D01*
X107545908Y-87612517D01*
X107539501Y-87672116D01*
X107539501Y-87672123D01*
X107539500Y-87672135D01*
X107539500Y-88505616D01*
X107539028Y-88516423D01*
X107534341Y-88569997D01*
X107534341Y-88570002D01*
X107539028Y-88623576D01*
X107539500Y-88634383D01*
X107539500Y-89467870D01*
X107539501Y-89467876D01*
X107545908Y-89527483D01*
X107596202Y-89662328D01*
X107596203Y-89662330D01*
X107673578Y-89765689D01*
X107697995Y-89831153D01*
X107683144Y-89899426D01*
X107673578Y-89914311D01*
X107596203Y-90017669D01*
X107596202Y-90017671D01*
X107545908Y-90152517D01*
X107539501Y-90212116D01*
X107539501Y-90212123D01*
X107539500Y-90212135D01*
X107539500Y-91045616D01*
X107539028Y-91056423D01*
X107534341Y-91109997D01*
X107534341Y-91110002D01*
X107539028Y-91163576D01*
X107539500Y-91174383D01*
X107539500Y-92007870D01*
X107539501Y-92007876D01*
X107545908Y-92067483D01*
X107596202Y-92202328D01*
X107596206Y-92202335D01*
X107682452Y-92317544D01*
X107682455Y-92317547D01*
X107797664Y-92403793D01*
X107797671Y-92403797D01*
X107932517Y-92454091D01*
X107932516Y-92454091D01*
X107939444Y-92454835D01*
X107992127Y-92460500D01*
X108825616Y-92460499D01*
X108836425Y-92460971D01*
X108890000Y-92465659D01*
X108943575Y-92460971D01*
X108954384Y-92460499D01*
X111587871Y-92460499D01*
X111587872Y-92460499D01*
X111647483Y-92454091D01*
X111782331Y-92403796D01*
X111897546Y-92317546D01*
X111983796Y-92202331D01*
X112034091Y-92067483D01*
X112040500Y-92007873D01*
X112040499Y-90212128D01*
X112034091Y-90152517D01*
X111983796Y-90017669D01*
X111906421Y-89914309D01*
X111882004Y-89848848D01*
X111896855Y-89780575D01*
X111906416Y-89765696D01*
X111983796Y-89662331D01*
X112034091Y-89527483D01*
X112040500Y-89467873D01*
X112040499Y-87672128D01*
X112034091Y-87612517D01*
X111983796Y-87477669D01*
X111906421Y-87374309D01*
X111882004Y-87308848D01*
X111896855Y-87240575D01*
X111906416Y-87225696D01*
X111983796Y-87122331D01*
X112034091Y-86987483D01*
X112040500Y-86927873D01*
X112040499Y-85132128D01*
X112034091Y-85072517D01*
X111983796Y-84937669D01*
X111906421Y-84834309D01*
X111882004Y-84768848D01*
X111896855Y-84700575D01*
X111906416Y-84685696D01*
X111983796Y-84582331D01*
X112034091Y-84447483D01*
X112040500Y-84387873D01*
X112040499Y-82592128D01*
X112034091Y-82532517D01*
X112022663Y-82501878D01*
X111983797Y-82397671D01*
X111983793Y-82397664D01*
X111897547Y-82282455D01*
X111897544Y-82282452D01*
X111782335Y-82196206D01*
X111782328Y-82196202D01*
X111647482Y-82145908D01*
X111647483Y-82145908D01*
X111587883Y-82139501D01*
X111587881Y-82139500D01*
X111587873Y-82139500D01*
X111587865Y-82139500D01*
X108954385Y-82139500D01*
X108943578Y-82139028D01*
X108890001Y-82134341D01*
X108889997Y-82134341D01*
X108836419Y-82139028D01*
X108825613Y-82139500D01*
X107992129Y-82139500D01*
X107992123Y-82139501D01*
X107932516Y-82145908D01*
X107797671Y-82196202D01*
X107797664Y-82196206D01*
X107682455Y-82282452D01*
X107682452Y-82282455D01*
X107596206Y-82397664D01*
X107596202Y-82397671D01*
X107545908Y-82532517D01*
X107542352Y-82565599D01*
X107539501Y-82592123D01*
X107539500Y-82592135D01*
X107539500Y-83425616D01*
X107539028Y-83436421D01*
X107534341Y-83490000D01*
X95750500Y-83490000D01*
X95750500Y-79030000D01*
X96319723Y-79030000D01*
X96332584Y-79177011D01*
X96338793Y-79247975D01*
X96338793Y-79247979D01*
X96395422Y-79459322D01*
X96395424Y-79459326D01*
X96395425Y-79459330D01*
X96415477Y-79502331D01*
X96487897Y-79657638D01*
X96487898Y-79657639D01*
X96613402Y-79836877D01*
X96768123Y-79991598D01*
X96947361Y-80117102D01*
X97145670Y-80209575D01*
X97357023Y-80266207D01*
X97539926Y-80282208D01*
X97574998Y-80285277D01*
X97575000Y-80285277D01*
X97575002Y-80285277D01*
X97603254Y-80282805D01*
X97792977Y-80266207D01*
X98004330Y-80209575D01*
X98202639Y-80117102D01*
X98381877Y-79991598D01*
X98536598Y-79836877D01*
X98662102Y-79657639D01*
X98754575Y-79459330D01*
X98811207Y-79247977D01*
X98830277Y-79030000D01*
X101169723Y-79030000D01*
X101182584Y-79177011D01*
X101188793Y-79247975D01*
X101188793Y-79247979D01*
X101245422Y-79459322D01*
X101245424Y-79459326D01*
X101245425Y-79459330D01*
X101265477Y-79502331D01*
X101337897Y-79657638D01*
X101337898Y-79657639D01*
X101463402Y-79836877D01*
X101618123Y-79991598D01*
X101797361Y-80117102D01*
X101995670Y-80209575D01*
X102207023Y-80266207D01*
X102389926Y-80282208D01*
X102424998Y-80285277D01*
X102425000Y-80285277D01*
X102425002Y-80285277D01*
X102453254Y-80282805D01*
X102642977Y-80266207D01*
X102854330Y-80209575D01*
X103052639Y-80117102D01*
X103231877Y-79991598D01*
X103386598Y-79836877D01*
X103512102Y-79657639D01*
X103604575Y-79459330D01*
X103661207Y-79247977D01*
X103680277Y-79030000D01*
X103677899Y-79002824D01*
X103672278Y-78938567D01*
X103661207Y-78812023D01*
X103604966Y-78602128D01*
X103604577Y-78600677D01*
X103604576Y-78600676D01*
X103604575Y-78600670D01*
X103512102Y-78402362D01*
X103512100Y-78402359D01*
X103512099Y-78402357D01*
X103386599Y-78223124D01*
X103312975Y-78149500D01*
X103231877Y-78068402D01*
X103052639Y-77942898D01*
X103052640Y-77942898D01*
X103052638Y-77942897D01*
X102953484Y-77896661D01*
X102854330Y-77850425D01*
X102854326Y-77850424D01*
X102854322Y-77850422D01*
X102642977Y-77793793D01*
X102425002Y-77774723D01*
X102424998Y-77774723D01*
X102279682Y-77787436D01*
X102207023Y-77793793D01*
X102207020Y-77793793D01*
X101995677Y-77850422D01*
X101995668Y-77850426D01*
X101797361Y-77942898D01*
X101797357Y-77942900D01*
X101618121Y-78068402D01*
X101463402Y-78223121D01*
X101337900Y-78402357D01*
X101337898Y-78402361D01*
X101245426Y-78600668D01*
X101245422Y-78600677D01*
X101188793Y-78812020D01*
X101188793Y-78812024D01*
X101172101Y-79002824D01*
X101169723Y-79030000D01*
X98830277Y-79030000D01*
X98827899Y-79002824D01*
X98822278Y-78938567D01*
X98811207Y-78812023D01*
X98754966Y-78602128D01*
X98754577Y-78600677D01*
X98754576Y-78600676D01*
X98754575Y-78600670D01*
X98662102Y-78402362D01*
X98662100Y-78402359D01*
X98662099Y-78402357D01*
X98536599Y-78223124D01*
X98462975Y-78149500D01*
X98381877Y-78068402D01*
X98202639Y-77942898D01*
X98202640Y-77942898D01*
X98202638Y-77942897D01*
X98103484Y-77896661D01*
X98004330Y-77850425D01*
X98004326Y-77850424D01*
X98004322Y-77850422D01*
X97792977Y-77793793D01*
X97575002Y-77774723D01*
X97574998Y-77774723D01*
X97429682Y-77787436D01*
X97357023Y-77793793D01*
X97357020Y-77793793D01*
X97145677Y-77850422D01*
X97145668Y-77850426D01*
X96947361Y-77942898D01*
X96947357Y-77942900D01*
X96768121Y-78068402D01*
X96613402Y-78223121D01*
X96487900Y-78402357D01*
X96487898Y-78402361D01*
X96395426Y-78600668D01*
X96395422Y-78600677D01*
X96338793Y-78812020D01*
X96338793Y-78812024D01*
X96322101Y-79002824D01*
X96319723Y-79030000D01*
X95750500Y-79030000D01*
X95750500Y-76602346D01*
X95770185Y-76535307D01*
X95822989Y-76489552D01*
X95892147Y-76479608D01*
X95955703Y-76508633D01*
X95988056Y-76552536D01*
X96039075Y-76668848D01*
X96166016Y-76863147D01*
X96166019Y-76863151D01*
X96166021Y-76863153D01*
X96323216Y-77033913D01*
X96323219Y-77033915D01*
X96323222Y-77033918D01*
X96506365Y-77176464D01*
X96506371Y-77176468D01*
X96506374Y-77176470D01*
X96710497Y-77286936D01*
X96800019Y-77317669D01*
X96930015Y-77362297D01*
X96930017Y-77362297D01*
X96930019Y-77362298D01*
X97158951Y-77400500D01*
X97158952Y-77400500D01*
X97391048Y-77400500D01*
X97391049Y-77400500D01*
X97619981Y-77362298D01*
X97839503Y-77286936D01*
X98043626Y-77176470D01*
X98226784Y-77033913D01*
X98383979Y-76863153D01*
X98510924Y-76668849D01*
X98604157Y-76456300D01*
X98661134Y-76231305D01*
X98680300Y-76000000D01*
X98680300Y-75999999D01*
X98680300Y-75999993D01*
X101319700Y-75999993D01*
X101319700Y-76000006D01*
X101338864Y-76231297D01*
X101338866Y-76231308D01*
X101395842Y-76456300D01*
X101489075Y-76668848D01*
X101616016Y-76863147D01*
X101616019Y-76863151D01*
X101616021Y-76863153D01*
X101773216Y-77033913D01*
X101773219Y-77033915D01*
X101773222Y-77033918D01*
X101956365Y-77176464D01*
X101956371Y-77176468D01*
X101956374Y-77176470D01*
X102160497Y-77286936D01*
X102250019Y-77317669D01*
X102380015Y-77362297D01*
X102380017Y-77362297D01*
X102380019Y-77362298D01*
X102608951Y-77400500D01*
X102608952Y-77400500D01*
X102841048Y-77400500D01*
X102841049Y-77400500D01*
X103069981Y-77362298D01*
X103289503Y-77286936D01*
X103493626Y-77176470D01*
X103676784Y-77033913D01*
X103833979Y-76863153D01*
X103960924Y-76668849D01*
X104054157Y-76456300D01*
X104111134Y-76231305D01*
X104130300Y-76000000D01*
X104130300Y-75999999D01*
X104130300Y-75999993D01*
X104119528Y-75869997D01*
X107534341Y-75869997D01*
X107534341Y-75870002D01*
X107539028Y-75923576D01*
X107539500Y-75934383D01*
X107539500Y-76767870D01*
X107539501Y-76767876D01*
X107545908Y-76827483D01*
X107596202Y-76962328D01*
X107596203Y-76962330D01*
X107673578Y-77065689D01*
X107697995Y-77131153D01*
X107683144Y-77199426D01*
X107673578Y-77214311D01*
X107596203Y-77317669D01*
X107596202Y-77317671D01*
X107545908Y-77452517D01*
X107539501Y-77512116D01*
X107539501Y-77512123D01*
X107539500Y-77512135D01*
X107539500Y-78345616D01*
X107539028Y-78356423D01*
X107534341Y-78409997D01*
X107534341Y-78410002D01*
X107539028Y-78463576D01*
X107539500Y-78474383D01*
X107539500Y-79307870D01*
X107539501Y-79307876D01*
X107545908Y-79367483D01*
X107596202Y-79502328D01*
X107596206Y-79502335D01*
X107682452Y-79617544D01*
X107682455Y-79617547D01*
X107797664Y-79703793D01*
X107797671Y-79703797D01*
X107932517Y-79754091D01*
X107932516Y-79754091D01*
X107939444Y-79754835D01*
X107992127Y-79760500D01*
X108825616Y-79760499D01*
X108836425Y-79760971D01*
X108890000Y-79765659D01*
X108943575Y-79760971D01*
X108954384Y-79760499D01*
X111587871Y-79760499D01*
X111587872Y-79760499D01*
X111647483Y-79754091D01*
X111782331Y-79703796D01*
X111897546Y-79617546D01*
X111983796Y-79502331D01*
X112034091Y-79367483D01*
X112040500Y-79307873D01*
X112040499Y-77512128D01*
X112034091Y-77452517D01*
X111996040Y-77350498D01*
X111983797Y-77317671D01*
X111983795Y-77317668D01*
X111965925Y-77293797D01*
X111906421Y-77214309D01*
X111882004Y-77148848D01*
X111896855Y-77080575D01*
X111906416Y-77065696D01*
X111983796Y-76962331D01*
X112034091Y-76827483D01*
X112040500Y-76767873D01*
X112040499Y-74972128D01*
X112034091Y-74912517D01*
X112021642Y-74879140D01*
X111983797Y-74777671D01*
X111983793Y-74777664D01*
X111897547Y-74662455D01*
X111897544Y-74662452D01*
X111782335Y-74576206D01*
X111782328Y-74576202D01*
X111647482Y-74525908D01*
X111647483Y-74525908D01*
X111587883Y-74519501D01*
X111587881Y-74519500D01*
X111587873Y-74519500D01*
X111587865Y-74519500D01*
X108954385Y-74519500D01*
X108943578Y-74519028D01*
X108890001Y-74514341D01*
X108889997Y-74514341D01*
X108836419Y-74519028D01*
X108825613Y-74519500D01*
X107992129Y-74519500D01*
X107992123Y-74519501D01*
X107932516Y-74525908D01*
X107797671Y-74576202D01*
X107797664Y-74576206D01*
X107682455Y-74662452D01*
X107682452Y-74662455D01*
X107596206Y-74777664D01*
X107596202Y-74777671D01*
X107545908Y-74912517D01*
X107540149Y-74966087D01*
X107539501Y-74972123D01*
X107539500Y-74972135D01*
X107539500Y-75805616D01*
X107539028Y-75816423D01*
X107534341Y-75869997D01*
X104119528Y-75869997D01*
X104111135Y-75768702D01*
X104111133Y-75768691D01*
X104054157Y-75543699D01*
X103960924Y-75331151D01*
X103833983Y-75136852D01*
X103833980Y-75136849D01*
X103833979Y-75136847D01*
X103676784Y-74966087D01*
X103676779Y-74966083D01*
X103676777Y-74966081D01*
X103493634Y-74823535D01*
X103493628Y-74823531D01*
X103289504Y-74713064D01*
X103289495Y-74713061D01*
X103069984Y-74637702D01*
X102898282Y-74609050D01*
X102841049Y-74599500D01*
X102608951Y-74599500D01*
X102563164Y-74607140D01*
X102380015Y-74637702D01*
X102160504Y-74713061D01*
X102160495Y-74713064D01*
X101956371Y-74823531D01*
X101956365Y-74823535D01*
X101773222Y-74966081D01*
X101773219Y-74966084D01*
X101773216Y-74966086D01*
X101773216Y-74966087D01*
X101761875Y-74978407D01*
X101616016Y-75136852D01*
X101489075Y-75331151D01*
X101395842Y-75543699D01*
X101338866Y-75768691D01*
X101338864Y-75768702D01*
X101319700Y-75999993D01*
X98680300Y-75999993D01*
X98661135Y-75768702D01*
X98661133Y-75768691D01*
X98604157Y-75543699D01*
X98510924Y-75331151D01*
X98383983Y-75136852D01*
X98383980Y-75136849D01*
X98383979Y-75136847D01*
X98226784Y-74966087D01*
X98226779Y-74966083D01*
X98226777Y-74966081D01*
X98043634Y-74823535D01*
X98043628Y-74823531D01*
X97839504Y-74713064D01*
X97839498Y-74713062D01*
X97706873Y-74667531D01*
X97649858Y-74627145D01*
X97623728Y-74562345D01*
X97636780Y-74493705D01*
X97659453Y-74462572D01*
X102669891Y-69452135D01*
X103499500Y-69452135D01*
X103499500Y-71547870D01*
X103499501Y-71547876D01*
X103505908Y-71607483D01*
X103556202Y-71742328D01*
X103556206Y-71742335D01*
X103642452Y-71857544D01*
X103642455Y-71857547D01*
X103757664Y-71943793D01*
X103757671Y-71943797D01*
X103892517Y-71994091D01*
X103892516Y-71994091D01*
X103899444Y-71994835D01*
X103952127Y-72000500D01*
X106047872Y-72000499D01*
X106107483Y-71994091D01*
X106242331Y-71943796D01*
X106357546Y-71857546D01*
X106443796Y-71742331D01*
X106494091Y-71607483D01*
X106500500Y-71547873D01*
X106500499Y-70499999D01*
X111144341Y-70499999D01*
X111144341Y-70500000D01*
X111164936Y-70735403D01*
X111164938Y-70735413D01*
X111226094Y-70963655D01*
X111226096Y-70963659D01*
X111226097Y-70963663D01*
X111325965Y-71177830D01*
X111325967Y-71177834D01*
X111434281Y-71332521D01*
X111461505Y-71371401D01*
X111628599Y-71538495D01*
X111725384Y-71606265D01*
X111822165Y-71674032D01*
X111822167Y-71674033D01*
X111822170Y-71674035D01*
X112036337Y-71773903D01*
X112264592Y-71835063D01*
X112435056Y-71849977D01*
X112499999Y-71855659D01*
X112500000Y-71855659D01*
X112500001Y-71855659D01*
X112539234Y-71852226D01*
X112735408Y-71835063D01*
X112963663Y-71773903D01*
X113177830Y-71674035D01*
X113371401Y-71538495D01*
X113373077Y-71536819D01*
X113373995Y-71536317D01*
X113375544Y-71535018D01*
X113375805Y-71535329D01*
X113434400Y-71503334D01*
X113460758Y-71500500D01*
X115784218Y-71500500D01*
X115851257Y-71520185D01*
X115871899Y-71536819D01*
X117753181Y-73418101D01*
X117786666Y-73479424D01*
X117789500Y-73505782D01*
X117789500Y-74379140D01*
X117769815Y-74446179D01*
X117717011Y-74491934D01*
X117647853Y-74501878D01*
X117584297Y-74472853D01*
X117549318Y-74422473D01*
X117543797Y-74407671D01*
X117543793Y-74407664D01*
X117457547Y-74292455D01*
X117457544Y-74292452D01*
X117342335Y-74206206D01*
X117342328Y-74206202D01*
X117207482Y-74155908D01*
X117207483Y-74155908D01*
X117147883Y-74149501D01*
X117147881Y-74149500D01*
X117147873Y-74149500D01*
X117147864Y-74149500D01*
X115352129Y-74149500D01*
X115352123Y-74149501D01*
X115292516Y-74155908D01*
X115157671Y-74206202D01*
X115157664Y-74206206D01*
X115042455Y-74292452D01*
X115042452Y-74292455D01*
X114956206Y-74407664D01*
X114956202Y-74407671D01*
X114905908Y-74542517D01*
X114899501Y-74602116D01*
X114899500Y-74602135D01*
X114899500Y-76397870D01*
X114899501Y-76397876D01*
X114905908Y-76457483D01*
X114956202Y-76592328D01*
X114956206Y-76592335D01*
X115042452Y-76707544D01*
X115042455Y-76707547D01*
X115157664Y-76793793D01*
X115157671Y-76793797D01*
X115292517Y-76844091D01*
X115292516Y-76844091D01*
X115299444Y-76844835D01*
X115352127Y-76850500D01*
X117147872Y-76850499D01*
X117207483Y-76844091D01*
X117342331Y-76793796D01*
X117457546Y-76707546D01*
X117543796Y-76592331D01*
X117549318Y-76577525D01*
X117591188Y-76521593D01*
X117656652Y-76497175D01*
X117724925Y-76512026D01*
X117774331Y-76561430D01*
X117789500Y-76620859D01*
X117789500Y-78379140D01*
X117769815Y-78446179D01*
X117717011Y-78491934D01*
X117647853Y-78501878D01*
X117584297Y-78472853D01*
X117549318Y-78422473D01*
X117543797Y-78407671D01*
X117543793Y-78407664D01*
X117457547Y-78292455D01*
X117457544Y-78292452D01*
X117342335Y-78206206D01*
X117342328Y-78206202D01*
X117207482Y-78155908D01*
X117207483Y-78155908D01*
X117147883Y-78149501D01*
X117147881Y-78149500D01*
X117147873Y-78149500D01*
X117147864Y-78149500D01*
X115352129Y-78149500D01*
X115352123Y-78149501D01*
X115292516Y-78155908D01*
X115157671Y-78206202D01*
X115157664Y-78206206D01*
X115042455Y-78292452D01*
X115042452Y-78292455D01*
X114956206Y-78407664D01*
X114956202Y-78407671D01*
X114905908Y-78542517D01*
X114899501Y-78602116D01*
X114899500Y-78602135D01*
X114899500Y-80397870D01*
X114899501Y-80397876D01*
X114905908Y-80457483D01*
X114956202Y-80592328D01*
X114956206Y-80592335D01*
X115042452Y-80707544D01*
X115042455Y-80707547D01*
X115157664Y-80793793D01*
X115157671Y-80793797D01*
X115292517Y-80844091D01*
X115292516Y-80844091D01*
X115299444Y-80844835D01*
X115352127Y-80850500D01*
X117147872Y-80850499D01*
X117207483Y-80844091D01*
X117342331Y-80793796D01*
X117457546Y-80707546D01*
X117543796Y-80592331D01*
X117549318Y-80577525D01*
X117591188Y-80521593D01*
X117656652Y-80497175D01*
X117724925Y-80512026D01*
X117774331Y-80561430D01*
X117789500Y-80620859D01*
X117789500Y-82379140D01*
X117769815Y-82446179D01*
X117717011Y-82491934D01*
X117647853Y-82501878D01*
X117584297Y-82472853D01*
X117549318Y-82422473D01*
X117543797Y-82407671D01*
X117543793Y-82407664D01*
X117457547Y-82292455D01*
X117457544Y-82292452D01*
X117342335Y-82206206D01*
X117342328Y-82206202D01*
X117207482Y-82155908D01*
X117207483Y-82155908D01*
X117147883Y-82149501D01*
X117147881Y-82149500D01*
X117147873Y-82149500D01*
X117147864Y-82149500D01*
X115352129Y-82149500D01*
X115352123Y-82149501D01*
X115292516Y-82155908D01*
X115157671Y-82206202D01*
X115157664Y-82206206D01*
X115042455Y-82292452D01*
X115042452Y-82292455D01*
X114956206Y-82407664D01*
X114956202Y-82407671D01*
X114905908Y-82542517D01*
X114899501Y-82602116D01*
X114899500Y-82602135D01*
X114899500Y-84397870D01*
X114899501Y-84397876D01*
X114905908Y-84457483D01*
X114956202Y-84592328D01*
X114956206Y-84592335D01*
X115042452Y-84707544D01*
X115042455Y-84707547D01*
X115157664Y-84793793D01*
X115157671Y-84793797D01*
X115292517Y-84844091D01*
X115292516Y-84844091D01*
X115299444Y-84844835D01*
X115352127Y-84850500D01*
X117147872Y-84850499D01*
X117207483Y-84844091D01*
X117342331Y-84793796D01*
X117457546Y-84707546D01*
X117543796Y-84592331D01*
X117592810Y-84460916D01*
X117634681Y-84404984D01*
X117700145Y-84380566D01*
X117768418Y-84395417D01*
X117796673Y-84416569D01*
X117918599Y-84538495D01*
X118015384Y-84606265D01*
X118112165Y-84674032D01*
X118112167Y-84674033D01*
X118112170Y-84674035D01*
X118326337Y-84773903D01*
X118554592Y-84835063D01*
X118731034Y-84850500D01*
X118789999Y-84855659D01*
X118790000Y-84855659D01*
X118790001Y-84855659D01*
X118848966Y-84850500D01*
X119025408Y-84835063D01*
X119253663Y-84773903D01*
X119467830Y-84674035D01*
X119661401Y-84538495D01*
X119828495Y-84371401D01*
X119964035Y-84177830D01*
X120063903Y-83963663D01*
X120125063Y-83735408D01*
X120145659Y-83500000D01*
X120125063Y-83264592D01*
X120063903Y-83036337D01*
X119964035Y-82822171D01*
X119882835Y-82706204D01*
X119828494Y-82628597D01*
X119826819Y-82626922D01*
X119826315Y-82626000D01*
X119825014Y-82624449D01*
X119825325Y-82624187D01*
X119793334Y-82565599D01*
X119790500Y-82539241D01*
X119790500Y-80460758D01*
X119810185Y-80393719D01*
X119826819Y-80373077D01*
X119828495Y-80371401D01*
X119964035Y-80177830D01*
X120063903Y-79963663D01*
X120125063Y-79735408D01*
X120145659Y-79500000D01*
X120125063Y-79264592D01*
X120063903Y-79036337D01*
X119964035Y-78822171D01*
X119956930Y-78812023D01*
X119828494Y-78628597D01*
X119826819Y-78626922D01*
X119826315Y-78626000D01*
X119825014Y-78624449D01*
X119825325Y-78624187D01*
X119793334Y-78565599D01*
X119790500Y-78539241D01*
X119790500Y-76460758D01*
X119810185Y-76393719D01*
X119826819Y-76373077D01*
X119828495Y-76371401D01*
X119964035Y-76177830D01*
X120063903Y-75963663D01*
X120125063Y-75735408D01*
X120145659Y-75500000D01*
X120125063Y-75264592D01*
X120063903Y-75036337D01*
X119964035Y-74822171D01*
X119932875Y-74777669D01*
X119828494Y-74628597D01*
X119826819Y-74626922D01*
X119826315Y-74626000D01*
X119825014Y-74624449D01*
X119825325Y-74624187D01*
X119793334Y-74565599D01*
X119790500Y-74539241D01*
X119790500Y-72941456D01*
X119790499Y-72941454D01*
X119752051Y-72748164D01*
X119679172Y-72572219D01*
X119676632Y-72566086D01*
X119676632Y-72566085D01*
X119676631Y-72566084D01*
X119567140Y-72402219D01*
X119567139Y-72402218D01*
X119427782Y-72262861D01*
X119427781Y-72262860D01*
X117034208Y-69869288D01*
X117034206Y-69869285D01*
X117034206Y-69869286D01*
X117027139Y-69862219D01*
X117027139Y-69862218D01*
X116887782Y-69722861D01*
X116887781Y-69722860D01*
X116887780Y-69722859D01*
X116723920Y-69613371D01*
X116723911Y-69613366D01*
X116631805Y-69575215D01*
X116595165Y-69560038D01*
X116541836Y-69537949D01*
X116541832Y-69537948D01*
X116541828Y-69537946D01*
X116445188Y-69518724D01*
X116348544Y-69499500D01*
X116348541Y-69499500D01*
X113460758Y-69499500D01*
X113393719Y-69479815D01*
X113373077Y-69463181D01*
X113371402Y-69461506D01*
X113371395Y-69461501D01*
X113177834Y-69325967D01*
X113177830Y-69325965D01*
X113031373Y-69257671D01*
X112963663Y-69226097D01*
X112963659Y-69226096D01*
X112963655Y-69226094D01*
X112735413Y-69164938D01*
X112735403Y-69164936D01*
X112500001Y-69144341D01*
X112499999Y-69144341D01*
X112264596Y-69164936D01*
X112264586Y-69164938D01*
X112036344Y-69226094D01*
X112036335Y-69226098D01*
X111822171Y-69325964D01*
X111822169Y-69325965D01*
X111628597Y-69461505D01*
X111461505Y-69628597D01*
X111325965Y-69822169D01*
X111325964Y-69822171D01*
X111226098Y-70036335D01*
X111226094Y-70036344D01*
X111164938Y-70264586D01*
X111164936Y-70264596D01*
X111144341Y-70499999D01*
X106500499Y-70499999D01*
X106500499Y-69452128D01*
X106494091Y-69392517D01*
X106469269Y-69325967D01*
X106443797Y-69257671D01*
X106443793Y-69257664D01*
X106357547Y-69142455D01*
X106357544Y-69142452D01*
X106242335Y-69056206D01*
X106242328Y-69056202D01*
X106107482Y-69005908D01*
X106107483Y-69005908D01*
X106047883Y-68999501D01*
X106047881Y-68999500D01*
X106047873Y-68999500D01*
X106047864Y-68999500D01*
X103952129Y-68999500D01*
X103952123Y-68999501D01*
X103892516Y-69005908D01*
X103757671Y-69056202D01*
X103757664Y-69056206D01*
X103642455Y-69142452D01*
X103642452Y-69142455D01*
X103556206Y-69257664D01*
X103556202Y-69257671D01*
X103505908Y-69392517D01*
X103499501Y-69452116D01*
X103499501Y-69452123D01*
X103499500Y-69452135D01*
X102669891Y-69452135D01*
X108894517Y-63227510D01*
X109033343Y-63036434D01*
X109140568Y-62825992D01*
X109213553Y-62601368D01*
X109250500Y-62368097D01*
X109250500Y-59124500D01*
X109270185Y-59057461D01*
X109322989Y-59011706D01*
X109374500Y-59000500D01*
X110018097Y-59000500D01*
X110251368Y-58963553D01*
X110475992Y-58890568D01*
X110686434Y-58783343D01*
X110877510Y-58644517D01*
X113235208Y-56286817D01*
X113296531Y-56253333D01*
X113322889Y-56250499D01*
X113397871Y-56250499D01*
X113397872Y-56250499D01*
X113457483Y-56244091D01*
X113592331Y-56193796D01*
X113707546Y-56107546D01*
X113793796Y-55992331D01*
X113844091Y-55857483D01*
X113850500Y-55797873D01*
X113850499Y-55584399D01*
X113864014Y-55528105D01*
X113890568Y-55475992D01*
X113963552Y-55251369D01*
X113982587Y-55131184D01*
X114000499Y-55018097D01*
X114000499Y-54781902D01*
X113979004Y-54646197D01*
X113963552Y-54548632D01*
X113890568Y-54324009D01*
X113890565Y-54324002D01*
X113864014Y-54271891D01*
X113850499Y-54215597D01*
X113850499Y-54002129D01*
X113850498Y-54002123D01*
X113850497Y-54002116D01*
X113844091Y-53942517D01*
X113793796Y-53807669D01*
X113793795Y-53807668D01*
X113793793Y-53807664D01*
X113707547Y-53692455D01*
X113707544Y-53692452D01*
X113592335Y-53606206D01*
X113592328Y-53606202D01*
X113457482Y-53555908D01*
X113457483Y-53555908D01*
X113397883Y-53549501D01*
X113397881Y-53549500D01*
X113397873Y-53549500D01*
X113397865Y-53549500D01*
X113184400Y-53549500D01*
X113128105Y-53535985D01*
X113075992Y-53509431D01*
X113075989Y-53509430D01*
X112851369Y-53436448D01*
X112618097Y-53399501D01*
X112618092Y-53399501D01*
X112381908Y-53399501D01*
X112381903Y-53399501D01*
X112148629Y-53436448D01*
X111924008Y-53509431D01*
X111871893Y-53535985D01*
X111815600Y-53549500D01*
X111602130Y-53549500D01*
X111602123Y-53549501D01*
X111542516Y-53555908D01*
X111407671Y-53606202D01*
X111407664Y-53606206D01*
X111292455Y-53692452D01*
X111292452Y-53692455D01*
X111206206Y-53807664D01*
X111206202Y-53807671D01*
X111155908Y-53942517D01*
X111149501Y-54002116D01*
X111149501Y-54002123D01*
X111149500Y-54002135D01*
X111149500Y-54077110D01*
X111129815Y-54144149D01*
X111113181Y-54164791D01*
X109314792Y-55963181D01*
X109253469Y-55996666D01*
X109227111Y-55999500D01*
X99624500Y-55999500D01*
X99557461Y-55979815D01*
X99511706Y-55927011D01*
X99500500Y-55875500D01*
X99500500Y-52732790D01*
X99520185Y-52665751D01*
X99572989Y-52619996D01*
X99581146Y-52616616D01*
X99642331Y-52593796D01*
X99757546Y-52507546D01*
X99843796Y-52392331D01*
X99894091Y-52257483D01*
X99900500Y-52197873D01*
X99900499Y-49302128D01*
X99894091Y-49242517D01*
X99843796Y-49107669D01*
X99843795Y-49107668D01*
X99843793Y-49107664D01*
X99757547Y-48992455D01*
X99757544Y-48992452D01*
X99642335Y-48906206D01*
X99642328Y-48906202D01*
X99507482Y-48855908D01*
X99507483Y-48855908D01*
X99447883Y-48849501D01*
X99447881Y-48849500D01*
X99447873Y-48849500D01*
X99447864Y-48849500D01*
X96552129Y-48849500D01*
X96552123Y-48849501D01*
X96492516Y-48855908D01*
X96357671Y-48906202D01*
X96357664Y-48906206D01*
X96242455Y-48992452D01*
X96242452Y-48992455D01*
X96156206Y-49107664D01*
X96156202Y-49107671D01*
X96105908Y-49242517D01*
X96099501Y-49302116D01*
X96099501Y-49302123D01*
X96099500Y-49302135D01*
X96099500Y-52197870D01*
X96099501Y-52197876D01*
X96105908Y-52257483D01*
X96156202Y-52392328D01*
X96156206Y-52392335D01*
X96242452Y-52507544D01*
X96242455Y-52507547D01*
X96357664Y-52593793D01*
X96357669Y-52593796D01*
X96418833Y-52616608D01*
X96474766Y-52658478D01*
X96499184Y-52723942D01*
X96499500Y-52732790D01*
X96499500Y-56327111D01*
X96479815Y-56394150D01*
X96463181Y-56414792D01*
X94114792Y-58763181D01*
X94053469Y-58796666D01*
X94027111Y-58799500D01*
X93041925Y-58799500D01*
X92974886Y-58779815D01*
X92929131Y-58727011D01*
X92919187Y-58657853D01*
X92948212Y-58594297D01*
X92970802Y-58573925D01*
X92983374Y-58565121D01*
X93021401Y-58538495D01*
X93188495Y-58371401D01*
X93324035Y-58177830D01*
X93423903Y-57963663D01*
X93485063Y-57735408D01*
X93505659Y-57500000D01*
X93485063Y-57264592D01*
X93423903Y-57036337D01*
X93324035Y-56822171D01*
X93188495Y-56628599D01*
X93188494Y-56628597D01*
X93021402Y-56461506D01*
X93021395Y-56461501D01*
X92827834Y-56325967D01*
X92827830Y-56325965D01*
X92708205Y-56270183D01*
X92613663Y-56226097D01*
X92613659Y-56226096D01*
X92613655Y-56226094D01*
X92385413Y-56164938D01*
X92385403Y-56164936D01*
X92150001Y-56144341D01*
X92149999Y-56144341D01*
X91914596Y-56164936D01*
X91914586Y-56164938D01*
X91686344Y-56226094D01*
X91686335Y-56226098D01*
X91472171Y-56325964D01*
X91472169Y-56325965D01*
X91278597Y-56461505D01*
X91111505Y-56628597D01*
X90975965Y-56822169D01*
X90975964Y-56822171D01*
X90876098Y-57036335D01*
X90876094Y-57036344D01*
X90814938Y-57264586D01*
X90814936Y-57264596D01*
X90794341Y-57499999D01*
X90794341Y-57500000D01*
X90814936Y-57735403D01*
X90814938Y-57735413D01*
X90876094Y-57963655D01*
X90876096Y-57963659D01*
X90876097Y-57963663D01*
X90975965Y-58177830D01*
X90975967Y-58177834D01*
X91111501Y-58371395D01*
X91111506Y-58371402D01*
X91278597Y-58538493D01*
X91278603Y-58538498D01*
X91329198Y-58573925D01*
X91372823Y-58628502D01*
X91380017Y-58698000D01*
X91348494Y-58760355D01*
X91288265Y-58795769D01*
X91258075Y-58799500D01*
X84572889Y-58799500D01*
X84505850Y-58779815D01*
X84485208Y-58763181D01*
X79886818Y-54164791D01*
X79853333Y-54103468D01*
X79850499Y-54077110D01*
X79850499Y-54002129D01*
X79850498Y-54002123D01*
X79850497Y-54002116D01*
X79844091Y-53942517D01*
X79793796Y-53807669D01*
X79793795Y-53807668D01*
X79793793Y-53807664D01*
X79707547Y-53692455D01*
X79707544Y-53692452D01*
X79592335Y-53606206D01*
X79592328Y-53606202D01*
X79457482Y-53555908D01*
X79457483Y-53555908D01*
X79397883Y-53549501D01*
X79397881Y-53549500D01*
X79397873Y-53549500D01*
X79397865Y-53549500D01*
X79184400Y-53549500D01*
X79128105Y-53535985D01*
X79075996Y-53509433D01*
X78851368Y-53436446D01*
X78618097Y-53399500D01*
X78618092Y-53399500D01*
X78381908Y-53399500D01*
X78381903Y-53399500D01*
X78148630Y-53436447D01*
X78148627Y-53436447D01*
X77924009Y-53509431D01*
X77924008Y-53509431D01*
X77871893Y-53535985D01*
X77815600Y-53549500D01*
X77602130Y-53549500D01*
X77602123Y-53549501D01*
X77542516Y-53555908D01*
X77407671Y-53606202D01*
X77407664Y-53606206D01*
X77292455Y-53692452D01*
X77292452Y-53692455D01*
X77206206Y-53807664D01*
X77206202Y-53807671D01*
X77155908Y-53942517D01*
X77149501Y-54002116D01*
X77149501Y-54002123D01*
X77149500Y-54002135D01*
X77149500Y-54215599D01*
X77135985Y-54271893D01*
X77109430Y-54324009D01*
X77109430Y-54324011D01*
X77036447Y-54548627D01*
X77036447Y-54548630D01*
X76999500Y-54781902D01*
X76500500Y-54781902D01*
X76500500Y-48003750D01*
X76500726Y-47996263D01*
X76518271Y-47706205D01*
X76520076Y-47691340D01*
X76571780Y-47409201D01*
X76575364Y-47394663D01*
X76652096Y-47148422D01*
X76660696Y-47120822D01*
X76665998Y-47106841D01*
X76783731Y-46845249D01*
X76790676Y-46832016D01*
X76939080Y-46586526D01*
X76947567Y-46574230D01*
X77124480Y-46348417D01*
X77134395Y-46337226D01*
X77337226Y-46134395D01*
X77348417Y-46124480D01*
X77574230Y-45947567D01*
X77586526Y-45939080D01*
X77832016Y-45790676D01*
X77845249Y-45783731D01*
X78106841Y-45665998D01*
X78120822Y-45660696D01*
X78394668Y-45575362D01*
X78409197Y-45571780D01*
X78691344Y-45520075D01*
X78706201Y-45518271D01*
X78996264Y-45500726D01*
X79003751Y-45500500D01*
X79065892Y-45500500D01*
X120934108Y-45500500D01*
X120996249Y-45500500D01*
X121003736Y-45500726D01*
G37*
%TD.AperFunction*%
%TD*%
M02*
