M48
; DRILL file {KiCad 8.0.7} date 2025-01-04T20:58:16-0500
; FORMAT={-:-/ absolute / inch / decimal}
; #@! TF.CreationDate,2025-01-04T20:58:16-05:00
; #@! TF.GenerationSoftware,Kicad,Pcbnew,8.0.7
; #@! TF.FileFunction,Plated,1,2,PTH
FMAT,2
INCH
; #@! TA.AperFunction,Plated,PTH,ComponentDrill
T1C0.0394
; #@! TA.AperFunction,Plated,PTH,ComponentDrill
T2C0.0402
; #@! TA.AperFunction,Plated,PTH,ComponentDrill
T3C0.0512
; #@! TA.AperFunction,Plated,PTH,ViaDrill
T4C0.0906
%
G90
G05
T1
X3.0972Y-4.0551
X3.0972Y-4.2126
X3.0972Y-4.3701
X3.0972Y-4.626
X3.0972Y-4.7835
X3.0972Y-4.9409
X3.0972Y-5.1969
X3.0972Y-5.3543
X3.0972Y-5.5118
X3.1398Y-2.2917
X3.1398Y-2.3917
X3.1398Y-3.7665
X3.1398Y-3.8665
X3.1972Y-4.0551
X3.1972Y-4.2126
X3.1972Y-4.3701
X3.1972Y-4.626
X3.1972Y-4.7835
X3.1972Y-4.9409
X3.1972Y-5.1969
X3.1972Y-5.3543
X3.1972Y-5.5118
X3.2972Y-4.0551
X3.2972Y-4.2126
X3.2972Y-4.3701
X3.2972Y-4.626
X3.2972Y-4.7835
X3.2972Y-4.9409
X3.2972Y-5.1969
X3.2972Y-5.3543
X3.2972Y-5.5118
X3.737Y-4.9114
X3.7559Y-4.1063
X3.7559Y-4.2063
X3.7559Y-4.6205
X3.7559Y-4.7205
X3.8091Y-2.2917
X3.8091Y-2.3917
X3.8091Y-3.7665
X3.8091Y-3.8665
X4.065Y-2.2917
X4.065Y-2.3917
X4.065Y-3.7665
X4.065Y-3.8665
X4.1102Y-4.1063
X4.1102Y-4.2063
X4.1102Y-4.6205
X4.1102Y-4.7205
X4.137Y-4.9114
X4.5768Y-4.0551
X4.5768Y-4.2126
X4.5768Y-4.3701
X4.5768Y-4.6358
X4.5768Y-4.7933
X4.5768Y-4.9508
X4.5768Y-5.1969
X4.5768Y-5.3543
X4.5768Y-5.5118
X4.6768Y-4.0551
X4.6768Y-4.2126
X4.6768Y-4.3701
X4.6768Y-4.6358
X4.6768Y-4.7933
X4.6768Y-4.9508
X4.6768Y-5.1969
X4.6768Y-5.3543
X4.6768Y-5.5118
X4.7343Y-2.2917
X4.7343Y-2.3917
X4.7343Y-3.7665
X4.7343Y-3.8665
X4.7768Y-4.0551
X4.7768Y-4.2126
X4.7768Y-4.3701
X4.7768Y-4.6358
X4.7768Y-4.7933
X4.7768Y-4.9508
X4.7768Y-5.1969
X4.7768Y-5.3543
X4.7768Y-5.5118
T2
X3.587Y-4.05
X3.587Y-4.15
X3.587Y-4.25
X3.587Y-4.35
X3.587Y-4.45
X3.587Y-4.55
X3.587Y-4.65
X3.587Y-4.75
X3.587Y-4.85
X3.587Y-4.95
X3.587Y-5.05
X3.587Y-5.15
X3.587Y-5.25
X3.587Y-5.35
X3.587Y-5.45
X3.587Y-5.55
X3.587Y-5.65
X3.587Y-5.75
X3.587Y-5.85
X3.587Y-5.95
X4.287Y-4.05
X4.287Y-4.15
X4.287Y-4.25
X4.287Y-4.35
X4.287Y-4.45
X4.287Y-4.55
X4.287Y-4.65
X4.287Y-4.75
X4.287Y-4.85
X4.287Y-4.95
X4.287Y-5.05
X4.287Y-5.15
X4.287Y-5.25
X4.287Y-5.35
X4.287Y-5.45
X4.287Y-5.55
X4.287Y-5.65
X4.287Y-5.75
X4.287Y-5.85
X4.287Y-5.95
T3
X3.8583Y-1.998
X4.0551Y-1.998
T4
X3.3268Y-1.9488
X3.3268Y-5.9252
X4.5472Y-1.9488
X4.5472Y-5.9252
M30
