%TF.GenerationSoftware,KiCad,Pcbnew,8.0.6*%
%TF.CreationDate,2024-12-18T16:54:21-05:00*%
%TF.ProjectId,hexapod,68657861-706f-4642-9e6b-696361645f70,rev?*%
%TF.SameCoordinates,Original*%
%TF.FileFunction,Drillmap*%
%TF.FilePolarity,Positive*%
%FSLAX45Y45*%
G04 Gerber Fmt 4.5, Leading zero omitted, Abs format (unit mm)*
G04 Created by KiCad (PCBNEW 8.0.6) date 2024-12-18 16:54:21*
%MOMM*%
%LPD*%
G01*
G04 APERTURE LIST*
%ADD10C,0.050000*%
%ADD11C,0.200000*%
%ADD12C,0.150000*%
%ADD13C,0.180000*%
G04 APERTURE END LIST*
D10*
X12400000Y-15200000D02*
G75*
G02*
X12100000Y-15500000I-300000J0D01*
G01*
X7900000Y-4500000D02*
X12100000Y-4500000D01*
X12400000Y-4800000D02*
X12400000Y-15200000D01*
X12100000Y-4500000D02*
G75*
G02*
X12400000Y-4800000I0J-300000D01*
G01*
X7900000Y-15500000D02*
G75*
G02*
X7600000Y-15200000I0J300000D01*
G01*
X7600000Y-4800000D02*
G75*
G02*
X7900000Y-4500000I300000J0D01*
G01*
X7600000Y-15200000D02*
X7600000Y-4800000D01*
X12100000Y-15500000D02*
X7900000Y-15500000D01*
D11*
D12*
X9682500Y-7828000D02*
X9832500Y-7978000D01*
X9832500Y-7828000D02*
X9682500Y-7978000D01*
X10167500Y-7828000D02*
X10317500Y-7978000D01*
X10317500Y-7828000D02*
X10167500Y-7978000D01*
D13*
X9817500Y-7600000D02*
G75*
G02*
X9637500Y-7600000I-90000J0D01*
G01*
X9637500Y-7600000D02*
G75*
G02*
X9817500Y-7600000I90000J0D01*
G01*
X10362500Y-7600000D02*
G75*
G02*
X10182500Y-7600000I-90000J0D01*
G01*
X10182500Y-7600000D02*
G75*
G02*
X10362500Y-7600000I90000J0D01*
G01*
D11*
X7858277Y-15813984D02*
X7858277Y-15613984D01*
X7858277Y-15613984D02*
X7905896Y-15613984D01*
X7905896Y-15613984D02*
X7934467Y-15623508D01*
X7934467Y-15623508D02*
X7953515Y-15642555D01*
X7953515Y-15642555D02*
X7963039Y-15661603D01*
X7963039Y-15661603D02*
X7972562Y-15699698D01*
X7972562Y-15699698D02*
X7972562Y-15728269D01*
X7972562Y-15728269D02*
X7963039Y-15766365D01*
X7963039Y-15766365D02*
X7953515Y-15785412D01*
X7953515Y-15785412D02*
X7934467Y-15804460D01*
X7934467Y-15804460D02*
X7905896Y-15813984D01*
X7905896Y-15813984D02*
X7858277Y-15813984D01*
X8058277Y-15813984D02*
X8058277Y-15680650D01*
X8058277Y-15718746D02*
X8067801Y-15699698D01*
X8067801Y-15699698D02*
X8077324Y-15690174D01*
X8077324Y-15690174D02*
X8096372Y-15680650D01*
X8096372Y-15680650D02*
X8115420Y-15680650D01*
X8182086Y-15813984D02*
X8182086Y-15680650D01*
X8182086Y-15613984D02*
X8172562Y-15623508D01*
X8172562Y-15623508D02*
X8182086Y-15633031D01*
X8182086Y-15633031D02*
X8191610Y-15623508D01*
X8191610Y-15623508D02*
X8182086Y-15613984D01*
X8182086Y-15613984D02*
X8182086Y-15633031D01*
X8305896Y-15813984D02*
X8286848Y-15804460D01*
X8286848Y-15804460D02*
X8277324Y-15785412D01*
X8277324Y-15785412D02*
X8277324Y-15613984D01*
X8410658Y-15813984D02*
X8391610Y-15804460D01*
X8391610Y-15804460D02*
X8382086Y-15785412D01*
X8382086Y-15785412D02*
X8382086Y-15613984D01*
X8639229Y-15813984D02*
X8639229Y-15613984D01*
X8639229Y-15613984D02*
X8705896Y-15756841D01*
X8705896Y-15756841D02*
X8772563Y-15613984D01*
X8772563Y-15613984D02*
X8772563Y-15813984D01*
X8953515Y-15813984D02*
X8953515Y-15709222D01*
X8953515Y-15709222D02*
X8943991Y-15690174D01*
X8943991Y-15690174D02*
X8924944Y-15680650D01*
X8924944Y-15680650D02*
X8886848Y-15680650D01*
X8886848Y-15680650D02*
X8867801Y-15690174D01*
X8953515Y-15804460D02*
X8934467Y-15813984D01*
X8934467Y-15813984D02*
X8886848Y-15813984D01*
X8886848Y-15813984D02*
X8867801Y-15804460D01*
X8867801Y-15804460D02*
X8858277Y-15785412D01*
X8858277Y-15785412D02*
X8858277Y-15766365D01*
X8858277Y-15766365D02*
X8867801Y-15747317D01*
X8867801Y-15747317D02*
X8886848Y-15737793D01*
X8886848Y-15737793D02*
X8934467Y-15737793D01*
X8934467Y-15737793D02*
X8953515Y-15728269D01*
X9048753Y-15680650D02*
X9048753Y-15880650D01*
X9048753Y-15690174D02*
X9067801Y-15680650D01*
X9067801Y-15680650D02*
X9105896Y-15680650D01*
X9105896Y-15680650D02*
X9124944Y-15690174D01*
X9124944Y-15690174D02*
X9134467Y-15699698D01*
X9134467Y-15699698D02*
X9143991Y-15718746D01*
X9143991Y-15718746D02*
X9143991Y-15775888D01*
X9143991Y-15775888D02*
X9134467Y-15794936D01*
X9134467Y-15794936D02*
X9124944Y-15804460D01*
X9124944Y-15804460D02*
X9105896Y-15813984D01*
X9105896Y-15813984D02*
X9067801Y-15813984D01*
X9067801Y-15813984D02*
X9048753Y-15804460D01*
X9229705Y-15794936D02*
X9239229Y-15804460D01*
X9239229Y-15804460D02*
X9229705Y-15813984D01*
X9229705Y-15813984D02*
X9220182Y-15804460D01*
X9220182Y-15804460D02*
X9229705Y-15794936D01*
X9229705Y-15794936D02*
X9229705Y-15813984D01*
X9229705Y-15690174D02*
X9239229Y-15699698D01*
X9239229Y-15699698D02*
X9229705Y-15709222D01*
X9229705Y-15709222D02*
X9220182Y-15699698D01*
X9220182Y-15699698D02*
X9229705Y-15690174D01*
X9229705Y-15690174D02*
X9229705Y-15709222D01*
D12*
X7447500Y-16067500D02*
X7597500Y-16217500D01*
X7597500Y-16067500D02*
X7447500Y-16217500D01*
D11*
X7963039Y-16233984D02*
X7848753Y-16233984D01*
X7905896Y-16233984D02*
X7905896Y-16033984D01*
X7905896Y-16033984D02*
X7886848Y-16062555D01*
X7886848Y-16062555D02*
X7867801Y-16081603D01*
X7867801Y-16081603D02*
X7848753Y-16091127D01*
X8048753Y-16214936D02*
X8058277Y-16224460D01*
X8058277Y-16224460D02*
X8048753Y-16233984D01*
X8048753Y-16233984D02*
X8039229Y-16224460D01*
X8039229Y-16224460D02*
X8048753Y-16214936D01*
X8048753Y-16214936D02*
X8048753Y-16233984D01*
X8239229Y-16033984D02*
X8143991Y-16033984D01*
X8143991Y-16033984D02*
X8134467Y-16129222D01*
X8134467Y-16129222D02*
X8143991Y-16119698D01*
X8143991Y-16119698D02*
X8163039Y-16110174D01*
X8163039Y-16110174D02*
X8210658Y-16110174D01*
X8210658Y-16110174D02*
X8229705Y-16119698D01*
X8229705Y-16119698D02*
X8239229Y-16129222D01*
X8239229Y-16129222D02*
X8248753Y-16148269D01*
X8248753Y-16148269D02*
X8248753Y-16195888D01*
X8248753Y-16195888D02*
X8239229Y-16214936D01*
X8239229Y-16214936D02*
X8229705Y-16224460D01*
X8229705Y-16224460D02*
X8210658Y-16233984D01*
X8210658Y-16233984D02*
X8163039Y-16233984D01*
X8163039Y-16233984D02*
X8143991Y-16224460D01*
X8143991Y-16224460D02*
X8134467Y-16214936D01*
X8372562Y-16033984D02*
X8391610Y-16033984D01*
X8391610Y-16033984D02*
X8410658Y-16043508D01*
X8410658Y-16043508D02*
X8420182Y-16053031D01*
X8420182Y-16053031D02*
X8429705Y-16072079D01*
X8429705Y-16072079D02*
X8439229Y-16110174D01*
X8439229Y-16110174D02*
X8439229Y-16157793D01*
X8439229Y-16157793D02*
X8429705Y-16195888D01*
X8429705Y-16195888D02*
X8420182Y-16214936D01*
X8420182Y-16214936D02*
X8410658Y-16224460D01*
X8410658Y-16224460D02*
X8391610Y-16233984D01*
X8391610Y-16233984D02*
X8372562Y-16233984D01*
X8372562Y-16233984D02*
X8353515Y-16224460D01*
X8353515Y-16224460D02*
X8343991Y-16214936D01*
X8343991Y-16214936D02*
X8334467Y-16195888D01*
X8334467Y-16195888D02*
X8324943Y-16157793D01*
X8324943Y-16157793D02*
X8324943Y-16110174D01*
X8324943Y-16110174D02*
X8334467Y-16072079D01*
X8334467Y-16072079D02*
X8343991Y-16053031D01*
X8343991Y-16053031D02*
X8353515Y-16043508D01*
X8353515Y-16043508D02*
X8372562Y-16033984D01*
X8563039Y-16033984D02*
X8582086Y-16033984D01*
X8582086Y-16033984D02*
X8601134Y-16043508D01*
X8601134Y-16043508D02*
X8610658Y-16053031D01*
X8610658Y-16053031D02*
X8620182Y-16072079D01*
X8620182Y-16072079D02*
X8629705Y-16110174D01*
X8629705Y-16110174D02*
X8629705Y-16157793D01*
X8629705Y-16157793D02*
X8620182Y-16195888D01*
X8620182Y-16195888D02*
X8610658Y-16214936D01*
X8610658Y-16214936D02*
X8601134Y-16224460D01*
X8601134Y-16224460D02*
X8582086Y-16233984D01*
X8582086Y-16233984D02*
X8563039Y-16233984D01*
X8563039Y-16233984D02*
X8543991Y-16224460D01*
X8543991Y-16224460D02*
X8534467Y-16214936D01*
X8534467Y-16214936D02*
X8524944Y-16195888D01*
X8524944Y-16195888D02*
X8515420Y-16157793D01*
X8515420Y-16157793D02*
X8515420Y-16110174D01*
X8515420Y-16110174D02*
X8524944Y-16072079D01*
X8524944Y-16072079D02*
X8534467Y-16053031D01*
X8534467Y-16053031D02*
X8543991Y-16043508D01*
X8543991Y-16043508D02*
X8563039Y-16033984D01*
X8715420Y-16233984D02*
X8715420Y-16100650D01*
X8715420Y-16119698D02*
X8724944Y-16110174D01*
X8724944Y-16110174D02*
X8743991Y-16100650D01*
X8743991Y-16100650D02*
X8772563Y-16100650D01*
X8772563Y-16100650D02*
X8791610Y-16110174D01*
X8791610Y-16110174D02*
X8801134Y-16129222D01*
X8801134Y-16129222D02*
X8801134Y-16233984D01*
X8801134Y-16129222D02*
X8810658Y-16110174D01*
X8810658Y-16110174D02*
X8829705Y-16100650D01*
X8829705Y-16100650D02*
X8858277Y-16100650D01*
X8858277Y-16100650D02*
X8877325Y-16110174D01*
X8877325Y-16110174D02*
X8886848Y-16129222D01*
X8886848Y-16129222D02*
X8886848Y-16233984D01*
X8982086Y-16233984D02*
X8982086Y-16100650D01*
X8982086Y-16119698D02*
X8991610Y-16110174D01*
X8991610Y-16110174D02*
X9010658Y-16100650D01*
X9010658Y-16100650D02*
X9039229Y-16100650D01*
X9039229Y-16100650D02*
X9058277Y-16110174D01*
X9058277Y-16110174D02*
X9067801Y-16129222D01*
X9067801Y-16129222D02*
X9067801Y-16233984D01*
X9067801Y-16129222D02*
X9077325Y-16110174D01*
X9077325Y-16110174D02*
X9096372Y-16100650D01*
X9096372Y-16100650D02*
X9124944Y-16100650D01*
X9124944Y-16100650D02*
X9143991Y-16110174D01*
X9143991Y-16110174D02*
X9153515Y-16129222D01*
X9153515Y-16129222D02*
X9153515Y-16233984D01*
X9543991Y-16024460D02*
X9372563Y-16281603D01*
X9801134Y-16033984D02*
X9820182Y-16033984D01*
X9820182Y-16033984D02*
X9839229Y-16043508D01*
X9839229Y-16043508D02*
X9848753Y-16053031D01*
X9848753Y-16053031D02*
X9858277Y-16072079D01*
X9858277Y-16072079D02*
X9867801Y-16110174D01*
X9867801Y-16110174D02*
X9867801Y-16157793D01*
X9867801Y-16157793D02*
X9858277Y-16195888D01*
X9858277Y-16195888D02*
X9848753Y-16214936D01*
X9848753Y-16214936D02*
X9839229Y-16224460D01*
X9839229Y-16224460D02*
X9820182Y-16233984D01*
X9820182Y-16233984D02*
X9801134Y-16233984D01*
X9801134Y-16233984D02*
X9782087Y-16224460D01*
X9782087Y-16224460D02*
X9772563Y-16214936D01*
X9772563Y-16214936D02*
X9763039Y-16195888D01*
X9763039Y-16195888D02*
X9753515Y-16157793D01*
X9753515Y-16157793D02*
X9753515Y-16110174D01*
X9753515Y-16110174D02*
X9763039Y-16072079D01*
X9763039Y-16072079D02*
X9772563Y-16053031D01*
X9772563Y-16053031D02*
X9782087Y-16043508D01*
X9782087Y-16043508D02*
X9801134Y-16033984D01*
X9953515Y-16214936D02*
X9963039Y-16224460D01*
X9963039Y-16224460D02*
X9953515Y-16233984D01*
X9953515Y-16233984D02*
X9943991Y-16224460D01*
X9943991Y-16224460D02*
X9953515Y-16214936D01*
X9953515Y-16214936D02*
X9953515Y-16233984D01*
X10086848Y-16033984D02*
X10105896Y-16033984D01*
X10105896Y-16033984D02*
X10124944Y-16043508D01*
X10124944Y-16043508D02*
X10134468Y-16053031D01*
X10134468Y-16053031D02*
X10143991Y-16072079D01*
X10143991Y-16072079D02*
X10153515Y-16110174D01*
X10153515Y-16110174D02*
X10153515Y-16157793D01*
X10153515Y-16157793D02*
X10143991Y-16195888D01*
X10143991Y-16195888D02*
X10134468Y-16214936D01*
X10134468Y-16214936D02*
X10124944Y-16224460D01*
X10124944Y-16224460D02*
X10105896Y-16233984D01*
X10105896Y-16233984D02*
X10086848Y-16233984D01*
X10086848Y-16233984D02*
X10067801Y-16224460D01*
X10067801Y-16224460D02*
X10058277Y-16214936D01*
X10058277Y-16214936D02*
X10048753Y-16195888D01*
X10048753Y-16195888D02*
X10039229Y-16157793D01*
X10039229Y-16157793D02*
X10039229Y-16110174D01*
X10039229Y-16110174D02*
X10048753Y-16072079D01*
X10048753Y-16072079D02*
X10058277Y-16053031D01*
X10058277Y-16053031D02*
X10067801Y-16043508D01*
X10067801Y-16043508D02*
X10086848Y-16033984D01*
X10334468Y-16033984D02*
X10239229Y-16033984D01*
X10239229Y-16033984D02*
X10229706Y-16129222D01*
X10229706Y-16129222D02*
X10239229Y-16119698D01*
X10239229Y-16119698D02*
X10258277Y-16110174D01*
X10258277Y-16110174D02*
X10305896Y-16110174D01*
X10305896Y-16110174D02*
X10324944Y-16119698D01*
X10324944Y-16119698D02*
X10334468Y-16129222D01*
X10334468Y-16129222D02*
X10343991Y-16148269D01*
X10343991Y-16148269D02*
X10343991Y-16195888D01*
X10343991Y-16195888D02*
X10334468Y-16214936D01*
X10334468Y-16214936D02*
X10324944Y-16224460D01*
X10324944Y-16224460D02*
X10305896Y-16233984D01*
X10305896Y-16233984D02*
X10258277Y-16233984D01*
X10258277Y-16233984D02*
X10239229Y-16224460D01*
X10239229Y-16224460D02*
X10229706Y-16214936D01*
X10439229Y-16233984D02*
X10477325Y-16233984D01*
X10477325Y-16233984D02*
X10496372Y-16224460D01*
X10496372Y-16224460D02*
X10505896Y-16214936D01*
X10505896Y-16214936D02*
X10524944Y-16186365D01*
X10524944Y-16186365D02*
X10534468Y-16148269D01*
X10534468Y-16148269D02*
X10534468Y-16072079D01*
X10534468Y-16072079D02*
X10524944Y-16053031D01*
X10524944Y-16053031D02*
X10515420Y-16043508D01*
X10515420Y-16043508D02*
X10496372Y-16033984D01*
X10496372Y-16033984D02*
X10458277Y-16033984D01*
X10458277Y-16033984D02*
X10439229Y-16043508D01*
X10439229Y-16043508D02*
X10429706Y-16053031D01*
X10429706Y-16053031D02*
X10420182Y-16072079D01*
X10420182Y-16072079D02*
X10420182Y-16119698D01*
X10420182Y-16119698D02*
X10429706Y-16138746D01*
X10429706Y-16138746D02*
X10439229Y-16148269D01*
X10439229Y-16148269D02*
X10458277Y-16157793D01*
X10458277Y-16157793D02*
X10496372Y-16157793D01*
X10496372Y-16157793D02*
X10515420Y-16148269D01*
X10515420Y-16148269D02*
X10524944Y-16138746D01*
X10524944Y-16138746D02*
X10534468Y-16119698D01*
X10724944Y-16233984D02*
X10610658Y-16233984D01*
X10667801Y-16233984D02*
X10667801Y-16033984D01*
X10667801Y-16033984D02*
X10648753Y-16062555D01*
X10648753Y-16062555D02*
X10629706Y-16081603D01*
X10629706Y-16081603D02*
X10610658Y-16091127D01*
X10801134Y-16033984D02*
X10801134Y-16072079D01*
X10877325Y-16033984D02*
X10877325Y-16072079D01*
X11172563Y-16310174D02*
X11163039Y-16300650D01*
X11163039Y-16300650D02*
X11143991Y-16272079D01*
X11143991Y-16272079D02*
X11134468Y-16253031D01*
X11134468Y-16253031D02*
X11124944Y-16224460D01*
X11124944Y-16224460D02*
X11115420Y-16176841D01*
X11115420Y-16176841D02*
X11115420Y-16138746D01*
X11115420Y-16138746D02*
X11124944Y-16091127D01*
X11124944Y-16091127D02*
X11134468Y-16062555D01*
X11134468Y-16062555D02*
X11143991Y-16043508D01*
X11143991Y-16043508D02*
X11163039Y-16014936D01*
X11163039Y-16014936D02*
X11172563Y-16005412D01*
X11239229Y-16053031D02*
X11248753Y-16043508D01*
X11248753Y-16043508D02*
X11267801Y-16033984D01*
X11267801Y-16033984D02*
X11315420Y-16033984D01*
X11315420Y-16033984D02*
X11334468Y-16043508D01*
X11334468Y-16043508D02*
X11343991Y-16053031D01*
X11343991Y-16053031D02*
X11353515Y-16072079D01*
X11353515Y-16072079D02*
X11353515Y-16091127D01*
X11353515Y-16091127D02*
X11343991Y-16119698D01*
X11343991Y-16119698D02*
X11229706Y-16233984D01*
X11229706Y-16233984D02*
X11353515Y-16233984D01*
X11591610Y-16233984D02*
X11591610Y-16033984D01*
X11677325Y-16233984D02*
X11677325Y-16129222D01*
X11677325Y-16129222D02*
X11667801Y-16110174D01*
X11667801Y-16110174D02*
X11648753Y-16100650D01*
X11648753Y-16100650D02*
X11620182Y-16100650D01*
X11620182Y-16100650D02*
X11601134Y-16110174D01*
X11601134Y-16110174D02*
X11591610Y-16119698D01*
X11801134Y-16233984D02*
X11782087Y-16224460D01*
X11782087Y-16224460D02*
X11772563Y-16214936D01*
X11772563Y-16214936D02*
X11763039Y-16195888D01*
X11763039Y-16195888D02*
X11763039Y-16138746D01*
X11763039Y-16138746D02*
X11772563Y-16119698D01*
X11772563Y-16119698D02*
X11782087Y-16110174D01*
X11782087Y-16110174D02*
X11801134Y-16100650D01*
X11801134Y-16100650D02*
X11829706Y-16100650D01*
X11829706Y-16100650D02*
X11848753Y-16110174D01*
X11848753Y-16110174D02*
X11858277Y-16119698D01*
X11858277Y-16119698D02*
X11867801Y-16138746D01*
X11867801Y-16138746D02*
X11867801Y-16195888D01*
X11867801Y-16195888D02*
X11858277Y-16214936D01*
X11858277Y-16214936D02*
X11848753Y-16224460D01*
X11848753Y-16224460D02*
X11829706Y-16233984D01*
X11829706Y-16233984D02*
X11801134Y-16233984D01*
X11982087Y-16233984D02*
X11963039Y-16224460D01*
X11963039Y-16224460D02*
X11953515Y-16205412D01*
X11953515Y-16205412D02*
X11953515Y-16033984D01*
X12134468Y-16224460D02*
X12115420Y-16233984D01*
X12115420Y-16233984D02*
X12077325Y-16233984D01*
X12077325Y-16233984D02*
X12058277Y-16224460D01*
X12058277Y-16224460D02*
X12048753Y-16205412D01*
X12048753Y-16205412D02*
X12048753Y-16129222D01*
X12048753Y-16129222D02*
X12058277Y-16110174D01*
X12058277Y-16110174D02*
X12077325Y-16100650D01*
X12077325Y-16100650D02*
X12115420Y-16100650D01*
X12115420Y-16100650D02*
X12134468Y-16110174D01*
X12134468Y-16110174D02*
X12143991Y-16129222D01*
X12143991Y-16129222D02*
X12143991Y-16148269D01*
X12143991Y-16148269D02*
X12048753Y-16167317D01*
X12220182Y-16224460D02*
X12239230Y-16233984D01*
X12239230Y-16233984D02*
X12277325Y-16233984D01*
X12277325Y-16233984D02*
X12296372Y-16224460D01*
X12296372Y-16224460D02*
X12305896Y-16205412D01*
X12305896Y-16205412D02*
X12305896Y-16195888D01*
X12305896Y-16195888D02*
X12296372Y-16176841D01*
X12296372Y-16176841D02*
X12277325Y-16167317D01*
X12277325Y-16167317D02*
X12248753Y-16167317D01*
X12248753Y-16167317D02*
X12229706Y-16157793D01*
X12229706Y-16157793D02*
X12220182Y-16138746D01*
X12220182Y-16138746D02*
X12220182Y-16129222D01*
X12220182Y-16129222D02*
X12229706Y-16110174D01*
X12229706Y-16110174D02*
X12248753Y-16100650D01*
X12248753Y-16100650D02*
X12277325Y-16100650D01*
X12277325Y-16100650D02*
X12296372Y-16110174D01*
X12372563Y-16310174D02*
X12382087Y-16300650D01*
X12382087Y-16300650D02*
X12401134Y-16272079D01*
X12401134Y-16272079D02*
X12410658Y-16253031D01*
X12410658Y-16253031D02*
X12420182Y-16224460D01*
X12420182Y-16224460D02*
X12429706Y-16176841D01*
X12429706Y-16176841D02*
X12429706Y-16138746D01*
X12429706Y-16138746D02*
X12420182Y-16091127D01*
X12420182Y-16091127D02*
X12410658Y-16062555D01*
X12410658Y-16062555D02*
X12401134Y-16043508D01*
X12401134Y-16043508D02*
X12382087Y-16014936D01*
X12382087Y-16014936D02*
X12372563Y-16005412D01*
X12734468Y-16310174D02*
X12724944Y-16300650D01*
X12724944Y-16300650D02*
X12705896Y-16272079D01*
X12705896Y-16272079D02*
X12696372Y-16253031D01*
X12696372Y-16253031D02*
X12686849Y-16224460D01*
X12686849Y-16224460D02*
X12677325Y-16176841D01*
X12677325Y-16176841D02*
X12677325Y-16138746D01*
X12677325Y-16138746D02*
X12686849Y-16091127D01*
X12686849Y-16091127D02*
X12696372Y-16062555D01*
X12696372Y-16062555D02*
X12705896Y-16043508D01*
X12705896Y-16043508D02*
X12724944Y-16014936D01*
X12724944Y-16014936D02*
X12734468Y-16005412D01*
X12810658Y-16100650D02*
X12810658Y-16233984D01*
X12810658Y-16119698D02*
X12820182Y-16110174D01*
X12820182Y-16110174D02*
X12839230Y-16100650D01*
X12839230Y-16100650D02*
X12867801Y-16100650D01*
X12867801Y-16100650D02*
X12886849Y-16110174D01*
X12886849Y-16110174D02*
X12896372Y-16129222D01*
X12896372Y-16129222D02*
X12896372Y-16233984D01*
X13020182Y-16233984D02*
X13001134Y-16224460D01*
X13001134Y-16224460D02*
X12991611Y-16214936D01*
X12991611Y-16214936D02*
X12982087Y-16195888D01*
X12982087Y-16195888D02*
X12982087Y-16138746D01*
X12982087Y-16138746D02*
X12991611Y-16119698D01*
X12991611Y-16119698D02*
X13001134Y-16110174D01*
X13001134Y-16110174D02*
X13020182Y-16100650D01*
X13020182Y-16100650D02*
X13048753Y-16100650D01*
X13048753Y-16100650D02*
X13067801Y-16110174D01*
X13067801Y-16110174D02*
X13077325Y-16119698D01*
X13077325Y-16119698D02*
X13086849Y-16138746D01*
X13086849Y-16138746D02*
X13086849Y-16195888D01*
X13086849Y-16195888D02*
X13077325Y-16214936D01*
X13077325Y-16214936D02*
X13067801Y-16224460D01*
X13067801Y-16224460D02*
X13048753Y-16233984D01*
X13048753Y-16233984D02*
X13020182Y-16233984D01*
X13143992Y-16100650D02*
X13220182Y-16100650D01*
X13172563Y-16033984D02*
X13172563Y-16205412D01*
X13172563Y-16205412D02*
X13182087Y-16224460D01*
X13182087Y-16224460D02*
X13201134Y-16233984D01*
X13201134Y-16233984D02*
X13220182Y-16233984D01*
X13439230Y-16100650D02*
X13439230Y-16300650D01*
X13439230Y-16110174D02*
X13458277Y-16100650D01*
X13458277Y-16100650D02*
X13496373Y-16100650D01*
X13496373Y-16100650D02*
X13515420Y-16110174D01*
X13515420Y-16110174D02*
X13524944Y-16119698D01*
X13524944Y-16119698D02*
X13534468Y-16138746D01*
X13534468Y-16138746D02*
X13534468Y-16195888D01*
X13534468Y-16195888D02*
X13524944Y-16214936D01*
X13524944Y-16214936D02*
X13515420Y-16224460D01*
X13515420Y-16224460D02*
X13496373Y-16233984D01*
X13496373Y-16233984D02*
X13458277Y-16233984D01*
X13458277Y-16233984D02*
X13439230Y-16224460D01*
X13648753Y-16233984D02*
X13629706Y-16224460D01*
X13629706Y-16224460D02*
X13620182Y-16205412D01*
X13620182Y-16205412D02*
X13620182Y-16033984D01*
X13810658Y-16233984D02*
X13810658Y-16129222D01*
X13810658Y-16129222D02*
X13801134Y-16110174D01*
X13801134Y-16110174D02*
X13782087Y-16100650D01*
X13782087Y-16100650D02*
X13743992Y-16100650D01*
X13743992Y-16100650D02*
X13724944Y-16110174D01*
X13810658Y-16224460D02*
X13791611Y-16233984D01*
X13791611Y-16233984D02*
X13743992Y-16233984D01*
X13743992Y-16233984D02*
X13724944Y-16224460D01*
X13724944Y-16224460D02*
X13715420Y-16205412D01*
X13715420Y-16205412D02*
X13715420Y-16186365D01*
X13715420Y-16186365D02*
X13724944Y-16167317D01*
X13724944Y-16167317D02*
X13743992Y-16157793D01*
X13743992Y-16157793D02*
X13791611Y-16157793D01*
X13791611Y-16157793D02*
X13810658Y-16148269D01*
X13877325Y-16100650D02*
X13953515Y-16100650D01*
X13905896Y-16033984D02*
X13905896Y-16205412D01*
X13905896Y-16205412D02*
X13915420Y-16224460D01*
X13915420Y-16224460D02*
X13934468Y-16233984D01*
X13934468Y-16233984D02*
X13953515Y-16233984D01*
X14096373Y-16224460D02*
X14077325Y-16233984D01*
X14077325Y-16233984D02*
X14039230Y-16233984D01*
X14039230Y-16233984D02*
X14020182Y-16224460D01*
X14020182Y-16224460D02*
X14010658Y-16205412D01*
X14010658Y-16205412D02*
X14010658Y-16129222D01*
X14010658Y-16129222D02*
X14020182Y-16110174D01*
X14020182Y-16110174D02*
X14039230Y-16100650D01*
X14039230Y-16100650D02*
X14077325Y-16100650D01*
X14077325Y-16100650D02*
X14096373Y-16110174D01*
X14096373Y-16110174D02*
X14105896Y-16129222D01*
X14105896Y-16129222D02*
X14105896Y-16148269D01*
X14105896Y-16148269D02*
X14010658Y-16167317D01*
X14277325Y-16233984D02*
X14277325Y-16033984D01*
X14277325Y-16224460D02*
X14258277Y-16233984D01*
X14258277Y-16233984D02*
X14220182Y-16233984D01*
X14220182Y-16233984D02*
X14201134Y-16224460D01*
X14201134Y-16224460D02*
X14191611Y-16214936D01*
X14191611Y-16214936D02*
X14182087Y-16195888D01*
X14182087Y-16195888D02*
X14182087Y-16138746D01*
X14182087Y-16138746D02*
X14191611Y-16119698D01*
X14191611Y-16119698D02*
X14201134Y-16110174D01*
X14201134Y-16110174D02*
X14220182Y-16100650D01*
X14220182Y-16100650D02*
X14258277Y-16100650D01*
X14258277Y-16100650D02*
X14277325Y-16110174D01*
X14353515Y-16310174D02*
X14363039Y-16300650D01*
X14363039Y-16300650D02*
X14382087Y-16272079D01*
X14382087Y-16272079D02*
X14391611Y-16253031D01*
X14391611Y-16253031D02*
X14401134Y-16224460D01*
X14401134Y-16224460D02*
X14410658Y-16176841D01*
X14410658Y-16176841D02*
X14410658Y-16138746D01*
X14410658Y-16138746D02*
X14401134Y-16091127D01*
X14401134Y-16091127D02*
X14391611Y-16062555D01*
X14391611Y-16062555D02*
X14382087Y-16043508D01*
X14382087Y-16043508D02*
X14363039Y-16014936D01*
X14363039Y-16014936D02*
X14353515Y-16005412D01*
D13*
X7597500Y-16412500D02*
G75*
G02*
X7417500Y-16412500I-90000J0D01*
G01*
X7417500Y-16412500D02*
G75*
G02*
X7597500Y-16412500I90000J0D01*
G01*
D11*
X7963039Y-16503984D02*
X7848753Y-16503984D01*
X7905896Y-16503984D02*
X7905896Y-16303984D01*
X7905896Y-16303984D02*
X7886848Y-16332555D01*
X7886848Y-16332555D02*
X7867801Y-16351603D01*
X7867801Y-16351603D02*
X7848753Y-16361127D01*
X8048753Y-16484936D02*
X8058277Y-16494460D01*
X8058277Y-16494460D02*
X8048753Y-16503984D01*
X8048753Y-16503984D02*
X8039229Y-16494460D01*
X8039229Y-16494460D02*
X8048753Y-16484936D01*
X8048753Y-16484936D02*
X8048753Y-16503984D01*
X8172562Y-16389698D02*
X8153515Y-16380174D01*
X8153515Y-16380174D02*
X8143991Y-16370650D01*
X8143991Y-16370650D02*
X8134467Y-16351603D01*
X8134467Y-16351603D02*
X8134467Y-16342079D01*
X8134467Y-16342079D02*
X8143991Y-16323031D01*
X8143991Y-16323031D02*
X8153515Y-16313508D01*
X8153515Y-16313508D02*
X8172562Y-16303984D01*
X8172562Y-16303984D02*
X8210658Y-16303984D01*
X8210658Y-16303984D02*
X8229705Y-16313508D01*
X8229705Y-16313508D02*
X8239229Y-16323031D01*
X8239229Y-16323031D02*
X8248753Y-16342079D01*
X8248753Y-16342079D02*
X8248753Y-16351603D01*
X8248753Y-16351603D02*
X8239229Y-16370650D01*
X8239229Y-16370650D02*
X8229705Y-16380174D01*
X8229705Y-16380174D02*
X8210658Y-16389698D01*
X8210658Y-16389698D02*
X8172562Y-16389698D01*
X8172562Y-16389698D02*
X8153515Y-16399222D01*
X8153515Y-16399222D02*
X8143991Y-16408746D01*
X8143991Y-16408746D02*
X8134467Y-16427793D01*
X8134467Y-16427793D02*
X8134467Y-16465888D01*
X8134467Y-16465888D02*
X8143991Y-16484936D01*
X8143991Y-16484936D02*
X8153515Y-16494460D01*
X8153515Y-16494460D02*
X8172562Y-16503984D01*
X8172562Y-16503984D02*
X8210658Y-16503984D01*
X8210658Y-16503984D02*
X8229705Y-16494460D01*
X8229705Y-16494460D02*
X8239229Y-16484936D01*
X8239229Y-16484936D02*
X8248753Y-16465888D01*
X8248753Y-16465888D02*
X8248753Y-16427793D01*
X8248753Y-16427793D02*
X8239229Y-16408746D01*
X8239229Y-16408746D02*
X8229705Y-16399222D01*
X8229705Y-16399222D02*
X8210658Y-16389698D01*
X8372562Y-16303984D02*
X8391610Y-16303984D01*
X8391610Y-16303984D02*
X8410658Y-16313508D01*
X8410658Y-16313508D02*
X8420182Y-16323031D01*
X8420182Y-16323031D02*
X8429705Y-16342079D01*
X8429705Y-16342079D02*
X8439229Y-16380174D01*
X8439229Y-16380174D02*
X8439229Y-16427793D01*
X8439229Y-16427793D02*
X8429705Y-16465888D01*
X8429705Y-16465888D02*
X8420182Y-16484936D01*
X8420182Y-16484936D02*
X8410658Y-16494460D01*
X8410658Y-16494460D02*
X8391610Y-16503984D01*
X8391610Y-16503984D02*
X8372562Y-16503984D01*
X8372562Y-16503984D02*
X8353515Y-16494460D01*
X8353515Y-16494460D02*
X8343991Y-16484936D01*
X8343991Y-16484936D02*
X8334467Y-16465888D01*
X8334467Y-16465888D02*
X8324943Y-16427793D01*
X8324943Y-16427793D02*
X8324943Y-16380174D01*
X8324943Y-16380174D02*
X8334467Y-16342079D01*
X8334467Y-16342079D02*
X8343991Y-16323031D01*
X8343991Y-16323031D02*
X8353515Y-16313508D01*
X8353515Y-16313508D02*
X8372562Y-16303984D01*
X8563039Y-16303984D02*
X8582086Y-16303984D01*
X8582086Y-16303984D02*
X8601134Y-16313508D01*
X8601134Y-16313508D02*
X8610658Y-16323031D01*
X8610658Y-16323031D02*
X8620182Y-16342079D01*
X8620182Y-16342079D02*
X8629705Y-16380174D01*
X8629705Y-16380174D02*
X8629705Y-16427793D01*
X8629705Y-16427793D02*
X8620182Y-16465888D01*
X8620182Y-16465888D02*
X8610658Y-16484936D01*
X8610658Y-16484936D02*
X8601134Y-16494460D01*
X8601134Y-16494460D02*
X8582086Y-16503984D01*
X8582086Y-16503984D02*
X8563039Y-16503984D01*
X8563039Y-16503984D02*
X8543991Y-16494460D01*
X8543991Y-16494460D02*
X8534467Y-16484936D01*
X8534467Y-16484936D02*
X8524944Y-16465888D01*
X8524944Y-16465888D02*
X8515420Y-16427793D01*
X8515420Y-16427793D02*
X8515420Y-16380174D01*
X8515420Y-16380174D02*
X8524944Y-16342079D01*
X8524944Y-16342079D02*
X8534467Y-16323031D01*
X8534467Y-16323031D02*
X8543991Y-16313508D01*
X8543991Y-16313508D02*
X8563039Y-16303984D01*
X8715420Y-16503984D02*
X8715420Y-16370650D01*
X8715420Y-16389698D02*
X8724944Y-16380174D01*
X8724944Y-16380174D02*
X8743991Y-16370650D01*
X8743991Y-16370650D02*
X8772563Y-16370650D01*
X8772563Y-16370650D02*
X8791610Y-16380174D01*
X8791610Y-16380174D02*
X8801134Y-16399222D01*
X8801134Y-16399222D02*
X8801134Y-16503984D01*
X8801134Y-16399222D02*
X8810658Y-16380174D01*
X8810658Y-16380174D02*
X8829705Y-16370650D01*
X8829705Y-16370650D02*
X8858277Y-16370650D01*
X8858277Y-16370650D02*
X8877325Y-16380174D01*
X8877325Y-16380174D02*
X8886848Y-16399222D01*
X8886848Y-16399222D02*
X8886848Y-16503984D01*
X8982086Y-16503984D02*
X8982086Y-16370650D01*
X8982086Y-16389698D02*
X8991610Y-16380174D01*
X8991610Y-16380174D02*
X9010658Y-16370650D01*
X9010658Y-16370650D02*
X9039229Y-16370650D01*
X9039229Y-16370650D02*
X9058277Y-16380174D01*
X9058277Y-16380174D02*
X9067801Y-16399222D01*
X9067801Y-16399222D02*
X9067801Y-16503984D01*
X9067801Y-16399222D02*
X9077325Y-16380174D01*
X9077325Y-16380174D02*
X9096372Y-16370650D01*
X9096372Y-16370650D02*
X9124944Y-16370650D01*
X9124944Y-16370650D02*
X9143991Y-16380174D01*
X9143991Y-16380174D02*
X9153515Y-16399222D01*
X9153515Y-16399222D02*
X9153515Y-16503984D01*
X9543991Y-16294460D02*
X9372563Y-16551603D01*
X9801134Y-16303984D02*
X9820182Y-16303984D01*
X9820182Y-16303984D02*
X9839229Y-16313508D01*
X9839229Y-16313508D02*
X9848753Y-16323031D01*
X9848753Y-16323031D02*
X9858277Y-16342079D01*
X9858277Y-16342079D02*
X9867801Y-16380174D01*
X9867801Y-16380174D02*
X9867801Y-16427793D01*
X9867801Y-16427793D02*
X9858277Y-16465888D01*
X9858277Y-16465888D02*
X9848753Y-16484936D01*
X9848753Y-16484936D02*
X9839229Y-16494460D01*
X9839229Y-16494460D02*
X9820182Y-16503984D01*
X9820182Y-16503984D02*
X9801134Y-16503984D01*
X9801134Y-16503984D02*
X9782087Y-16494460D01*
X9782087Y-16494460D02*
X9772563Y-16484936D01*
X9772563Y-16484936D02*
X9763039Y-16465888D01*
X9763039Y-16465888D02*
X9753515Y-16427793D01*
X9753515Y-16427793D02*
X9753515Y-16380174D01*
X9753515Y-16380174D02*
X9763039Y-16342079D01*
X9763039Y-16342079D02*
X9772563Y-16323031D01*
X9772563Y-16323031D02*
X9782087Y-16313508D01*
X9782087Y-16313508D02*
X9801134Y-16303984D01*
X9953515Y-16484936D02*
X9963039Y-16494460D01*
X9963039Y-16494460D02*
X9953515Y-16503984D01*
X9953515Y-16503984D02*
X9943991Y-16494460D01*
X9943991Y-16494460D02*
X9953515Y-16484936D01*
X9953515Y-16484936D02*
X9953515Y-16503984D01*
X10086848Y-16303984D02*
X10105896Y-16303984D01*
X10105896Y-16303984D02*
X10124944Y-16313508D01*
X10124944Y-16313508D02*
X10134468Y-16323031D01*
X10134468Y-16323031D02*
X10143991Y-16342079D01*
X10143991Y-16342079D02*
X10153515Y-16380174D01*
X10153515Y-16380174D02*
X10153515Y-16427793D01*
X10153515Y-16427793D02*
X10143991Y-16465888D01*
X10143991Y-16465888D02*
X10134468Y-16484936D01*
X10134468Y-16484936D02*
X10124944Y-16494460D01*
X10124944Y-16494460D02*
X10105896Y-16503984D01*
X10105896Y-16503984D02*
X10086848Y-16503984D01*
X10086848Y-16503984D02*
X10067801Y-16494460D01*
X10067801Y-16494460D02*
X10058277Y-16484936D01*
X10058277Y-16484936D02*
X10048753Y-16465888D01*
X10048753Y-16465888D02*
X10039229Y-16427793D01*
X10039229Y-16427793D02*
X10039229Y-16380174D01*
X10039229Y-16380174D02*
X10048753Y-16342079D01*
X10048753Y-16342079D02*
X10058277Y-16323031D01*
X10058277Y-16323031D02*
X10067801Y-16313508D01*
X10067801Y-16313508D02*
X10086848Y-16303984D01*
X10220182Y-16303984D02*
X10353515Y-16303984D01*
X10353515Y-16303984D02*
X10267801Y-16503984D01*
X10467801Y-16303984D02*
X10486849Y-16303984D01*
X10486849Y-16303984D02*
X10505896Y-16313508D01*
X10505896Y-16313508D02*
X10515420Y-16323031D01*
X10515420Y-16323031D02*
X10524944Y-16342079D01*
X10524944Y-16342079D02*
X10534468Y-16380174D01*
X10534468Y-16380174D02*
X10534468Y-16427793D01*
X10534468Y-16427793D02*
X10524944Y-16465888D01*
X10524944Y-16465888D02*
X10515420Y-16484936D01*
X10515420Y-16484936D02*
X10505896Y-16494460D01*
X10505896Y-16494460D02*
X10486849Y-16503984D01*
X10486849Y-16503984D02*
X10467801Y-16503984D01*
X10467801Y-16503984D02*
X10448753Y-16494460D01*
X10448753Y-16494460D02*
X10439229Y-16484936D01*
X10439229Y-16484936D02*
X10429706Y-16465888D01*
X10429706Y-16465888D02*
X10420182Y-16427793D01*
X10420182Y-16427793D02*
X10420182Y-16380174D01*
X10420182Y-16380174D02*
X10429706Y-16342079D01*
X10429706Y-16342079D02*
X10439229Y-16323031D01*
X10439229Y-16323031D02*
X10448753Y-16313508D01*
X10448753Y-16313508D02*
X10467801Y-16303984D01*
X10629706Y-16503984D02*
X10667801Y-16503984D01*
X10667801Y-16503984D02*
X10686849Y-16494460D01*
X10686849Y-16494460D02*
X10696372Y-16484936D01*
X10696372Y-16484936D02*
X10715420Y-16456365D01*
X10715420Y-16456365D02*
X10724944Y-16418269D01*
X10724944Y-16418269D02*
X10724944Y-16342079D01*
X10724944Y-16342079D02*
X10715420Y-16323031D01*
X10715420Y-16323031D02*
X10705896Y-16313508D01*
X10705896Y-16313508D02*
X10686849Y-16303984D01*
X10686849Y-16303984D02*
X10648753Y-16303984D01*
X10648753Y-16303984D02*
X10629706Y-16313508D01*
X10629706Y-16313508D02*
X10620182Y-16323031D01*
X10620182Y-16323031D02*
X10610658Y-16342079D01*
X10610658Y-16342079D02*
X10610658Y-16389698D01*
X10610658Y-16389698D02*
X10620182Y-16408746D01*
X10620182Y-16408746D02*
X10629706Y-16418269D01*
X10629706Y-16418269D02*
X10648753Y-16427793D01*
X10648753Y-16427793D02*
X10686849Y-16427793D01*
X10686849Y-16427793D02*
X10705896Y-16418269D01*
X10705896Y-16418269D02*
X10715420Y-16408746D01*
X10715420Y-16408746D02*
X10724944Y-16389698D01*
X10801134Y-16303984D02*
X10801134Y-16342079D01*
X10877325Y-16303984D02*
X10877325Y-16342079D01*
X11172563Y-16580174D02*
X11163039Y-16570650D01*
X11163039Y-16570650D02*
X11143991Y-16542079D01*
X11143991Y-16542079D02*
X11134468Y-16523031D01*
X11134468Y-16523031D02*
X11124944Y-16494460D01*
X11124944Y-16494460D02*
X11115420Y-16446841D01*
X11115420Y-16446841D02*
X11115420Y-16408746D01*
X11115420Y-16408746D02*
X11124944Y-16361127D01*
X11124944Y-16361127D02*
X11134468Y-16332555D01*
X11134468Y-16332555D02*
X11143991Y-16313508D01*
X11143991Y-16313508D02*
X11163039Y-16284936D01*
X11163039Y-16284936D02*
X11172563Y-16275412D01*
X11239229Y-16323031D02*
X11248753Y-16313508D01*
X11248753Y-16313508D02*
X11267801Y-16303984D01*
X11267801Y-16303984D02*
X11315420Y-16303984D01*
X11315420Y-16303984D02*
X11334468Y-16313508D01*
X11334468Y-16313508D02*
X11343991Y-16323031D01*
X11343991Y-16323031D02*
X11353515Y-16342079D01*
X11353515Y-16342079D02*
X11353515Y-16361127D01*
X11353515Y-16361127D02*
X11343991Y-16389698D01*
X11343991Y-16389698D02*
X11229706Y-16503984D01*
X11229706Y-16503984D02*
X11353515Y-16503984D01*
X11591610Y-16503984D02*
X11591610Y-16303984D01*
X11677325Y-16503984D02*
X11677325Y-16399222D01*
X11677325Y-16399222D02*
X11667801Y-16380174D01*
X11667801Y-16380174D02*
X11648753Y-16370650D01*
X11648753Y-16370650D02*
X11620182Y-16370650D01*
X11620182Y-16370650D02*
X11601134Y-16380174D01*
X11601134Y-16380174D02*
X11591610Y-16389698D01*
X11801134Y-16503984D02*
X11782087Y-16494460D01*
X11782087Y-16494460D02*
X11772563Y-16484936D01*
X11772563Y-16484936D02*
X11763039Y-16465888D01*
X11763039Y-16465888D02*
X11763039Y-16408746D01*
X11763039Y-16408746D02*
X11772563Y-16389698D01*
X11772563Y-16389698D02*
X11782087Y-16380174D01*
X11782087Y-16380174D02*
X11801134Y-16370650D01*
X11801134Y-16370650D02*
X11829706Y-16370650D01*
X11829706Y-16370650D02*
X11848753Y-16380174D01*
X11848753Y-16380174D02*
X11858277Y-16389698D01*
X11858277Y-16389698D02*
X11867801Y-16408746D01*
X11867801Y-16408746D02*
X11867801Y-16465888D01*
X11867801Y-16465888D02*
X11858277Y-16484936D01*
X11858277Y-16484936D02*
X11848753Y-16494460D01*
X11848753Y-16494460D02*
X11829706Y-16503984D01*
X11829706Y-16503984D02*
X11801134Y-16503984D01*
X11982087Y-16503984D02*
X11963039Y-16494460D01*
X11963039Y-16494460D02*
X11953515Y-16475412D01*
X11953515Y-16475412D02*
X11953515Y-16303984D01*
X12134468Y-16494460D02*
X12115420Y-16503984D01*
X12115420Y-16503984D02*
X12077325Y-16503984D01*
X12077325Y-16503984D02*
X12058277Y-16494460D01*
X12058277Y-16494460D02*
X12048753Y-16475412D01*
X12048753Y-16475412D02*
X12048753Y-16399222D01*
X12048753Y-16399222D02*
X12058277Y-16380174D01*
X12058277Y-16380174D02*
X12077325Y-16370650D01*
X12077325Y-16370650D02*
X12115420Y-16370650D01*
X12115420Y-16370650D02*
X12134468Y-16380174D01*
X12134468Y-16380174D02*
X12143991Y-16399222D01*
X12143991Y-16399222D02*
X12143991Y-16418269D01*
X12143991Y-16418269D02*
X12048753Y-16437317D01*
X12220182Y-16494460D02*
X12239230Y-16503984D01*
X12239230Y-16503984D02*
X12277325Y-16503984D01*
X12277325Y-16503984D02*
X12296372Y-16494460D01*
X12296372Y-16494460D02*
X12305896Y-16475412D01*
X12305896Y-16475412D02*
X12305896Y-16465888D01*
X12305896Y-16465888D02*
X12296372Y-16446841D01*
X12296372Y-16446841D02*
X12277325Y-16437317D01*
X12277325Y-16437317D02*
X12248753Y-16437317D01*
X12248753Y-16437317D02*
X12229706Y-16427793D01*
X12229706Y-16427793D02*
X12220182Y-16408746D01*
X12220182Y-16408746D02*
X12220182Y-16399222D01*
X12220182Y-16399222D02*
X12229706Y-16380174D01*
X12229706Y-16380174D02*
X12248753Y-16370650D01*
X12248753Y-16370650D02*
X12277325Y-16370650D01*
X12277325Y-16370650D02*
X12296372Y-16380174D01*
X12372563Y-16580174D02*
X12382087Y-16570650D01*
X12382087Y-16570650D02*
X12401134Y-16542079D01*
X12401134Y-16542079D02*
X12410658Y-16523031D01*
X12410658Y-16523031D02*
X12420182Y-16494460D01*
X12420182Y-16494460D02*
X12429706Y-16446841D01*
X12429706Y-16446841D02*
X12429706Y-16408746D01*
X12429706Y-16408746D02*
X12420182Y-16361127D01*
X12420182Y-16361127D02*
X12410658Y-16332555D01*
X12410658Y-16332555D02*
X12401134Y-16313508D01*
X12401134Y-16313508D02*
X12382087Y-16284936D01*
X12382087Y-16284936D02*
X12372563Y-16275412D01*
X12734468Y-16580174D02*
X12724944Y-16570650D01*
X12724944Y-16570650D02*
X12705896Y-16542079D01*
X12705896Y-16542079D02*
X12696372Y-16523031D01*
X12696372Y-16523031D02*
X12686849Y-16494460D01*
X12686849Y-16494460D02*
X12677325Y-16446841D01*
X12677325Y-16446841D02*
X12677325Y-16408746D01*
X12677325Y-16408746D02*
X12686849Y-16361127D01*
X12686849Y-16361127D02*
X12696372Y-16332555D01*
X12696372Y-16332555D02*
X12705896Y-16313508D01*
X12705896Y-16313508D02*
X12724944Y-16284936D01*
X12724944Y-16284936D02*
X12734468Y-16275412D01*
X12810658Y-16370650D02*
X12810658Y-16503984D01*
X12810658Y-16389698D02*
X12820182Y-16380174D01*
X12820182Y-16380174D02*
X12839230Y-16370650D01*
X12839230Y-16370650D02*
X12867801Y-16370650D01*
X12867801Y-16370650D02*
X12886849Y-16380174D01*
X12886849Y-16380174D02*
X12896372Y-16399222D01*
X12896372Y-16399222D02*
X12896372Y-16503984D01*
X13020182Y-16503984D02*
X13001134Y-16494460D01*
X13001134Y-16494460D02*
X12991611Y-16484936D01*
X12991611Y-16484936D02*
X12982087Y-16465888D01*
X12982087Y-16465888D02*
X12982087Y-16408746D01*
X12982087Y-16408746D02*
X12991611Y-16389698D01*
X12991611Y-16389698D02*
X13001134Y-16380174D01*
X13001134Y-16380174D02*
X13020182Y-16370650D01*
X13020182Y-16370650D02*
X13048753Y-16370650D01*
X13048753Y-16370650D02*
X13067801Y-16380174D01*
X13067801Y-16380174D02*
X13077325Y-16389698D01*
X13077325Y-16389698D02*
X13086849Y-16408746D01*
X13086849Y-16408746D02*
X13086849Y-16465888D01*
X13086849Y-16465888D02*
X13077325Y-16484936D01*
X13077325Y-16484936D02*
X13067801Y-16494460D01*
X13067801Y-16494460D02*
X13048753Y-16503984D01*
X13048753Y-16503984D02*
X13020182Y-16503984D01*
X13143992Y-16370650D02*
X13220182Y-16370650D01*
X13172563Y-16303984D02*
X13172563Y-16475412D01*
X13172563Y-16475412D02*
X13182087Y-16494460D01*
X13182087Y-16494460D02*
X13201134Y-16503984D01*
X13201134Y-16503984D02*
X13220182Y-16503984D01*
X13439230Y-16370650D02*
X13439230Y-16570650D01*
X13439230Y-16380174D02*
X13458277Y-16370650D01*
X13458277Y-16370650D02*
X13496373Y-16370650D01*
X13496373Y-16370650D02*
X13515420Y-16380174D01*
X13515420Y-16380174D02*
X13524944Y-16389698D01*
X13524944Y-16389698D02*
X13534468Y-16408746D01*
X13534468Y-16408746D02*
X13534468Y-16465888D01*
X13534468Y-16465888D02*
X13524944Y-16484936D01*
X13524944Y-16484936D02*
X13515420Y-16494460D01*
X13515420Y-16494460D02*
X13496373Y-16503984D01*
X13496373Y-16503984D02*
X13458277Y-16503984D01*
X13458277Y-16503984D02*
X13439230Y-16494460D01*
X13648753Y-16503984D02*
X13629706Y-16494460D01*
X13629706Y-16494460D02*
X13620182Y-16475412D01*
X13620182Y-16475412D02*
X13620182Y-16303984D01*
X13810658Y-16503984D02*
X13810658Y-16399222D01*
X13810658Y-16399222D02*
X13801134Y-16380174D01*
X13801134Y-16380174D02*
X13782087Y-16370650D01*
X13782087Y-16370650D02*
X13743992Y-16370650D01*
X13743992Y-16370650D02*
X13724944Y-16380174D01*
X13810658Y-16494460D02*
X13791611Y-16503984D01*
X13791611Y-16503984D02*
X13743992Y-16503984D01*
X13743992Y-16503984D02*
X13724944Y-16494460D01*
X13724944Y-16494460D02*
X13715420Y-16475412D01*
X13715420Y-16475412D02*
X13715420Y-16456365D01*
X13715420Y-16456365D02*
X13724944Y-16437317D01*
X13724944Y-16437317D02*
X13743992Y-16427793D01*
X13743992Y-16427793D02*
X13791611Y-16427793D01*
X13791611Y-16427793D02*
X13810658Y-16418269D01*
X13877325Y-16370650D02*
X13953515Y-16370650D01*
X13905896Y-16303984D02*
X13905896Y-16475412D01*
X13905896Y-16475412D02*
X13915420Y-16494460D01*
X13915420Y-16494460D02*
X13934468Y-16503984D01*
X13934468Y-16503984D02*
X13953515Y-16503984D01*
X14096373Y-16494460D02*
X14077325Y-16503984D01*
X14077325Y-16503984D02*
X14039230Y-16503984D01*
X14039230Y-16503984D02*
X14020182Y-16494460D01*
X14020182Y-16494460D02*
X14010658Y-16475412D01*
X14010658Y-16475412D02*
X14010658Y-16399222D01*
X14010658Y-16399222D02*
X14020182Y-16380174D01*
X14020182Y-16380174D02*
X14039230Y-16370650D01*
X14039230Y-16370650D02*
X14077325Y-16370650D01*
X14077325Y-16370650D02*
X14096373Y-16380174D01*
X14096373Y-16380174D02*
X14105896Y-16399222D01*
X14105896Y-16399222D02*
X14105896Y-16418269D01*
X14105896Y-16418269D02*
X14010658Y-16437317D01*
X14277325Y-16503984D02*
X14277325Y-16303984D01*
X14277325Y-16494460D02*
X14258277Y-16503984D01*
X14258277Y-16503984D02*
X14220182Y-16503984D01*
X14220182Y-16503984D02*
X14201134Y-16494460D01*
X14201134Y-16494460D02*
X14191611Y-16484936D01*
X14191611Y-16484936D02*
X14182087Y-16465888D01*
X14182087Y-16465888D02*
X14182087Y-16408746D01*
X14182087Y-16408746D02*
X14191611Y-16389698D01*
X14191611Y-16389698D02*
X14201134Y-16380174D01*
X14201134Y-16380174D02*
X14220182Y-16370650D01*
X14220182Y-16370650D02*
X14258277Y-16370650D01*
X14258277Y-16370650D02*
X14277325Y-16380174D01*
X14353515Y-16580174D02*
X14363039Y-16570650D01*
X14363039Y-16570650D02*
X14382087Y-16542079D01*
X14382087Y-16542079D02*
X14391611Y-16523031D01*
X14391611Y-16523031D02*
X14401134Y-16494460D01*
X14401134Y-16494460D02*
X14410658Y-16446841D01*
X14410658Y-16446841D02*
X14410658Y-16408746D01*
X14410658Y-16408746D02*
X14401134Y-16361127D01*
X14401134Y-16361127D02*
X14391611Y-16332555D01*
X14391611Y-16332555D02*
X14382087Y-16313508D01*
X14382087Y-16313508D02*
X14363039Y-16284936D01*
X14363039Y-16284936D02*
X14353515Y-16275412D01*
M02*
