%TF.GenerationSoftware,KiCad,Pcbnew,8.0.7*%
%TF.CreationDate,2025-01-04T20:58:12-05:00*%
%TF.ProjectId,hexapod,68657861-706f-4642-9e6b-696361645f70,rev?*%
%TF.SameCoordinates,Original*%
%TF.FileFunction,Legend,Bot*%
%TF.FilePolarity,Positive*%
%FSLAX46Y46*%
G04 Gerber Fmt 4.6, Leading zero omitted, Abs format (unit mm)*
G04 Created by KiCad (PCBNEW 8.0.7) date 2025-01-04 20:58:12*
%MOMM*%
%LPD*%
G01*
G04 APERTURE LIST*
%ADD10C,0.100000*%
G04 APERTURE END LIST*
D10*
X101597468Y-145946115D02*
X102597468Y-145946115D01*
X102121278Y-145946115D02*
X102121278Y-145374687D01*
X101597468Y-145374687D02*
X102597468Y-145374687D01*
X101645088Y-144517544D02*
X101597468Y-144612782D01*
X101597468Y-144612782D02*
X101597468Y-144803258D01*
X101597468Y-144803258D02*
X101645088Y-144898496D01*
X101645088Y-144898496D02*
X101740326Y-144946115D01*
X101740326Y-144946115D02*
X102121278Y-144946115D01*
X102121278Y-144946115D02*
X102216516Y-144898496D01*
X102216516Y-144898496D02*
X102264135Y-144803258D01*
X102264135Y-144803258D02*
X102264135Y-144612782D01*
X102264135Y-144612782D02*
X102216516Y-144517544D01*
X102216516Y-144517544D02*
X102121278Y-144469925D01*
X102121278Y-144469925D02*
X102026040Y-144469925D01*
X102026040Y-144469925D02*
X101930802Y-144946115D01*
X101597468Y-144136591D02*
X102264135Y-143612782D01*
X102264135Y-144136591D02*
X101597468Y-143612782D01*
X101597468Y-142803258D02*
X102121278Y-142803258D01*
X102121278Y-142803258D02*
X102216516Y-142850877D01*
X102216516Y-142850877D02*
X102264135Y-142946115D01*
X102264135Y-142946115D02*
X102264135Y-143136591D01*
X102264135Y-143136591D02*
X102216516Y-143231829D01*
X101645088Y-142803258D02*
X101597468Y-142898496D01*
X101597468Y-142898496D02*
X101597468Y-143136591D01*
X101597468Y-143136591D02*
X101645088Y-143231829D01*
X101645088Y-143231829D02*
X101740326Y-143279448D01*
X101740326Y-143279448D02*
X101835564Y-143279448D01*
X101835564Y-143279448D02*
X101930802Y-143231829D01*
X101930802Y-143231829D02*
X101978421Y-143136591D01*
X101978421Y-143136591D02*
X101978421Y-142898496D01*
X101978421Y-142898496D02*
X102026040Y-142803258D01*
X102264135Y-142327067D02*
X101264135Y-142327067D01*
X102216516Y-142327067D02*
X102264135Y-142231829D01*
X102264135Y-142231829D02*
X102264135Y-142041353D01*
X102264135Y-142041353D02*
X102216516Y-141946115D01*
X102216516Y-141946115D02*
X102168897Y-141898496D01*
X102168897Y-141898496D02*
X102073659Y-141850877D01*
X102073659Y-141850877D02*
X101787945Y-141850877D01*
X101787945Y-141850877D02*
X101692707Y-141898496D01*
X101692707Y-141898496D02*
X101645088Y-141946115D01*
X101645088Y-141946115D02*
X101597468Y-142041353D01*
X101597468Y-142041353D02*
X101597468Y-142231829D01*
X101597468Y-142231829D02*
X101645088Y-142327067D01*
X101597468Y-141279448D02*
X101645088Y-141374686D01*
X101645088Y-141374686D02*
X101692707Y-141422305D01*
X101692707Y-141422305D02*
X101787945Y-141469924D01*
X101787945Y-141469924D02*
X102073659Y-141469924D01*
X102073659Y-141469924D02*
X102168897Y-141422305D01*
X102168897Y-141422305D02*
X102216516Y-141374686D01*
X102216516Y-141374686D02*
X102264135Y-141279448D01*
X102264135Y-141279448D02*
X102264135Y-141136591D01*
X102264135Y-141136591D02*
X102216516Y-141041353D01*
X102216516Y-141041353D02*
X102168897Y-140993734D01*
X102168897Y-140993734D02*
X102073659Y-140946115D01*
X102073659Y-140946115D02*
X101787945Y-140946115D01*
X101787945Y-140946115D02*
X101692707Y-140993734D01*
X101692707Y-140993734D02*
X101645088Y-141041353D01*
X101645088Y-141041353D02*
X101597468Y-141136591D01*
X101597468Y-141136591D02*
X101597468Y-141279448D01*
X101597468Y-140088972D02*
X102597468Y-140088972D01*
X101645088Y-140088972D02*
X101597468Y-140184210D01*
X101597468Y-140184210D02*
X101597468Y-140374686D01*
X101597468Y-140374686D02*
X101645088Y-140469924D01*
X101645088Y-140469924D02*
X101692707Y-140517543D01*
X101692707Y-140517543D02*
X101787945Y-140565162D01*
X101787945Y-140565162D02*
X102073659Y-140565162D01*
X102073659Y-140565162D02*
X102168897Y-140517543D01*
X102168897Y-140517543D02*
X102216516Y-140469924D01*
X102216516Y-140469924D02*
X102264135Y-140374686D01*
X102264135Y-140374686D02*
X102264135Y-140184210D01*
X102264135Y-140184210D02*
X102216516Y-140088972D01*
X102264135Y-138946114D02*
X101597468Y-138708019D01*
X101597468Y-138708019D02*
X102264135Y-138469924D01*
X102502230Y-138136590D02*
X102549849Y-138088971D01*
X102549849Y-138088971D02*
X102597468Y-137993733D01*
X102597468Y-137993733D02*
X102597468Y-137755638D01*
X102597468Y-137755638D02*
X102549849Y-137660400D01*
X102549849Y-137660400D02*
X102502230Y-137612781D01*
X102502230Y-137612781D02*
X102406992Y-137565162D01*
X102406992Y-137565162D02*
X102311754Y-137565162D01*
X102311754Y-137565162D02*
X102168897Y-137612781D01*
X102168897Y-137612781D02*
X101597468Y-138184209D01*
X101597468Y-138184209D02*
X101597468Y-137565162D01*
X101692707Y-137136590D02*
X101645088Y-137088971D01*
X101645088Y-137088971D02*
X101597468Y-137136590D01*
X101597468Y-137136590D02*
X101645088Y-137184209D01*
X101645088Y-137184209D02*
X101692707Y-137136590D01*
X101692707Y-137136590D02*
X101597468Y-137136590D01*
X102597468Y-136469924D02*
X102597468Y-136374686D01*
X102597468Y-136374686D02*
X102549849Y-136279448D01*
X102549849Y-136279448D02*
X102502230Y-136231829D01*
X102502230Y-136231829D02*
X102406992Y-136184210D01*
X102406992Y-136184210D02*
X102216516Y-136136591D01*
X102216516Y-136136591D02*
X101978421Y-136136591D01*
X101978421Y-136136591D02*
X101787945Y-136184210D01*
X101787945Y-136184210D02*
X101692707Y-136231829D01*
X101692707Y-136231829D02*
X101645088Y-136279448D01*
X101645088Y-136279448D02*
X101597468Y-136374686D01*
X101597468Y-136374686D02*
X101597468Y-136469924D01*
X101597468Y-136469924D02*
X101645088Y-136565162D01*
X101645088Y-136565162D02*
X101692707Y-136612781D01*
X101692707Y-136612781D02*
X101787945Y-136660400D01*
X101787945Y-136660400D02*
X101978421Y-136708019D01*
X101978421Y-136708019D02*
X102216516Y-136708019D01*
X102216516Y-136708019D02*
X102406992Y-136660400D01*
X102406992Y-136660400D02*
X102502230Y-136612781D01*
X102502230Y-136612781D02*
X102549849Y-136565162D01*
X102549849Y-136565162D02*
X102597468Y-136469924D01*
X99606572Y-145660401D02*
X99654191Y-145708020D01*
X99654191Y-145708020D02*
X99797048Y-145803258D01*
X99797048Y-145803258D02*
X99892286Y-145850877D01*
X99892286Y-145850877D02*
X100035144Y-145898496D01*
X100035144Y-145898496D02*
X100273239Y-145946115D01*
X100273239Y-145946115D02*
X100463715Y-145946115D01*
X100463715Y-145946115D02*
X100701810Y-145898496D01*
X100701810Y-145898496D02*
X100844667Y-145850877D01*
X100844667Y-145850877D02*
X100939905Y-145803258D01*
X100939905Y-145803258D02*
X101082763Y-145708020D01*
X101082763Y-145708020D02*
X101130382Y-145660401D01*
X100035144Y-144850877D02*
X99987524Y-144946115D01*
X99987524Y-144946115D02*
X99987524Y-145136591D01*
X99987524Y-145136591D02*
X100035144Y-145231829D01*
X100035144Y-145231829D02*
X100082763Y-145279448D01*
X100082763Y-145279448D02*
X100178001Y-145327067D01*
X100178001Y-145327067D02*
X100463715Y-145327067D01*
X100463715Y-145327067D02*
X100558953Y-145279448D01*
X100558953Y-145279448D02*
X100606572Y-145231829D01*
X100606572Y-145231829D02*
X100654191Y-145136591D01*
X100654191Y-145136591D02*
X100654191Y-144946115D01*
X100654191Y-144946115D02*
X100606572Y-144850877D01*
X99606572Y-144517543D02*
X99654191Y-144469924D01*
X99654191Y-144469924D02*
X99797048Y-144374686D01*
X99797048Y-144374686D02*
X99892286Y-144327067D01*
X99892286Y-144327067D02*
X100035144Y-144279448D01*
X100035144Y-144279448D02*
X100273239Y-144231829D01*
X100273239Y-144231829D02*
X100463715Y-144231829D01*
X100463715Y-144231829D02*
X100701810Y-144279448D01*
X100701810Y-144279448D02*
X100844667Y-144327067D01*
X100844667Y-144327067D02*
X100939905Y-144374686D01*
X100939905Y-144374686D02*
X101082763Y-144469924D01*
X101082763Y-144469924D02*
X101130382Y-144517543D01*
X99987524Y-142993733D02*
X100654191Y-142993733D01*
X100463715Y-142993733D02*
X100558953Y-142946114D01*
X100558953Y-142946114D02*
X100606572Y-142898495D01*
X100606572Y-142898495D02*
X100654191Y-142803257D01*
X100654191Y-142803257D02*
X100654191Y-142708019D01*
X99987524Y-142231828D02*
X100035144Y-142327066D01*
X100035144Y-142327066D02*
X100082763Y-142374685D01*
X100082763Y-142374685D02*
X100178001Y-142422304D01*
X100178001Y-142422304D02*
X100463715Y-142422304D01*
X100463715Y-142422304D02*
X100558953Y-142374685D01*
X100558953Y-142374685D02*
X100606572Y-142327066D01*
X100606572Y-142327066D02*
X100654191Y-142231828D01*
X100654191Y-142231828D02*
X100654191Y-142088971D01*
X100654191Y-142088971D02*
X100606572Y-141993733D01*
X100606572Y-141993733D02*
X100558953Y-141946114D01*
X100558953Y-141946114D02*
X100463715Y-141898495D01*
X100463715Y-141898495D02*
X100178001Y-141898495D01*
X100178001Y-141898495D02*
X100082763Y-141946114D01*
X100082763Y-141946114D02*
X100035144Y-141993733D01*
X100035144Y-141993733D02*
X99987524Y-142088971D01*
X99987524Y-142088971D02*
X99987524Y-142231828D01*
X99987524Y-141327066D02*
X100035144Y-141422304D01*
X100035144Y-141422304D02*
X100082763Y-141469923D01*
X100082763Y-141469923D02*
X100178001Y-141517542D01*
X100178001Y-141517542D02*
X100463715Y-141517542D01*
X100463715Y-141517542D02*
X100558953Y-141469923D01*
X100558953Y-141469923D02*
X100606572Y-141422304D01*
X100606572Y-141422304D02*
X100654191Y-141327066D01*
X100654191Y-141327066D02*
X100654191Y-141184209D01*
X100654191Y-141184209D02*
X100606572Y-141088971D01*
X100606572Y-141088971D02*
X100558953Y-141041352D01*
X100558953Y-141041352D02*
X100463715Y-140993733D01*
X100463715Y-140993733D02*
X100178001Y-140993733D01*
X100178001Y-140993733D02*
X100082763Y-141041352D01*
X100082763Y-141041352D02*
X100035144Y-141088971D01*
X100035144Y-141088971D02*
X99987524Y-141184209D01*
X99987524Y-141184209D02*
X99987524Y-141327066D01*
X99987524Y-140565161D02*
X100987524Y-140565161D01*
X100368477Y-140469923D02*
X99987524Y-140184209D01*
X100654191Y-140184209D02*
X100273239Y-140565161D01*
X99987524Y-139755637D02*
X100654191Y-139755637D01*
X100987524Y-139755637D02*
X100939905Y-139803256D01*
X100939905Y-139803256D02*
X100892286Y-139755637D01*
X100892286Y-139755637D02*
X100939905Y-139708018D01*
X100939905Y-139708018D02*
X100987524Y-139755637D01*
X100987524Y-139755637D02*
X100892286Y-139755637D01*
X99987524Y-138850876D02*
X100987524Y-138850876D01*
X100035144Y-138850876D02*
X99987524Y-138946114D01*
X99987524Y-138946114D02*
X99987524Y-139136590D01*
X99987524Y-139136590D02*
X100035144Y-139231828D01*
X100035144Y-139231828D02*
X100082763Y-139279447D01*
X100082763Y-139279447D02*
X100178001Y-139327066D01*
X100178001Y-139327066D02*
X100463715Y-139327066D01*
X100463715Y-139327066D02*
X100558953Y-139279447D01*
X100558953Y-139279447D02*
X100606572Y-139231828D01*
X100606572Y-139231828D02*
X100654191Y-139136590D01*
X100654191Y-139136590D02*
X100654191Y-138946114D01*
X100654191Y-138946114D02*
X100606572Y-138850876D01*
X99987524Y-138374685D02*
X100654191Y-138374685D01*
X100463715Y-138374685D02*
X100558953Y-138327066D01*
X100558953Y-138327066D02*
X100606572Y-138279447D01*
X100606572Y-138279447D02*
X100654191Y-138184209D01*
X100654191Y-138184209D02*
X100654191Y-138088971D01*
X99987524Y-137612780D02*
X100035144Y-137708018D01*
X100035144Y-137708018D02*
X100082763Y-137755637D01*
X100082763Y-137755637D02*
X100178001Y-137803256D01*
X100178001Y-137803256D02*
X100463715Y-137803256D01*
X100463715Y-137803256D02*
X100558953Y-137755637D01*
X100558953Y-137755637D02*
X100606572Y-137708018D01*
X100606572Y-137708018D02*
X100654191Y-137612780D01*
X100654191Y-137612780D02*
X100654191Y-137469923D01*
X100654191Y-137469923D02*
X100606572Y-137374685D01*
X100606572Y-137374685D02*
X100558953Y-137327066D01*
X100558953Y-137327066D02*
X100463715Y-137279447D01*
X100463715Y-137279447D02*
X100178001Y-137279447D01*
X100178001Y-137279447D02*
X100082763Y-137327066D01*
X100082763Y-137327066D02*
X100035144Y-137374685D01*
X100035144Y-137374685D02*
X99987524Y-137469923D01*
X99987524Y-137469923D02*
X99987524Y-137612780D01*
X99987524Y-136850875D02*
X100654191Y-136850875D01*
X100987524Y-136850875D02*
X100939905Y-136898494D01*
X100939905Y-136898494D02*
X100892286Y-136850875D01*
X100892286Y-136850875D02*
X100939905Y-136803256D01*
X100939905Y-136803256D02*
X100987524Y-136850875D01*
X100987524Y-136850875D02*
X100892286Y-136850875D01*
X99987524Y-135946114D02*
X100987524Y-135946114D01*
X100035144Y-135946114D02*
X99987524Y-136041352D01*
X99987524Y-136041352D02*
X99987524Y-136231828D01*
X99987524Y-136231828D02*
X100035144Y-136327066D01*
X100035144Y-136327066D02*
X100082763Y-136374685D01*
X100082763Y-136374685D02*
X100178001Y-136422304D01*
X100178001Y-136422304D02*
X100463715Y-136422304D01*
X100463715Y-136422304D02*
X100558953Y-136374685D01*
X100558953Y-136374685D02*
X100606572Y-136327066D01*
X100606572Y-136327066D02*
X100654191Y-136231828D01*
X100654191Y-136231828D02*
X100654191Y-136041352D01*
X100654191Y-136041352D02*
X100606572Y-135946114D01*
X100082763Y-135469923D02*
X100035144Y-135422304D01*
X100035144Y-135422304D02*
X99987524Y-135469923D01*
X99987524Y-135469923D02*
X100035144Y-135517542D01*
X100035144Y-135517542D02*
X100082763Y-135469923D01*
X100082763Y-135469923D02*
X99987524Y-135469923D01*
X100035144Y-134565162D02*
X99987524Y-134660400D01*
X99987524Y-134660400D02*
X99987524Y-134850876D01*
X99987524Y-134850876D02*
X100035144Y-134946114D01*
X100035144Y-134946114D02*
X100082763Y-134993733D01*
X100082763Y-134993733D02*
X100178001Y-135041352D01*
X100178001Y-135041352D02*
X100463715Y-135041352D01*
X100463715Y-135041352D02*
X100558953Y-134993733D01*
X100558953Y-134993733D02*
X100606572Y-134946114D01*
X100606572Y-134946114D02*
X100654191Y-134850876D01*
X100654191Y-134850876D02*
X100654191Y-134660400D01*
X100654191Y-134660400D02*
X100606572Y-134565162D01*
X99987524Y-133993733D02*
X100035144Y-134088971D01*
X100035144Y-134088971D02*
X100082763Y-134136590D01*
X100082763Y-134136590D02*
X100178001Y-134184209D01*
X100178001Y-134184209D02*
X100463715Y-134184209D01*
X100463715Y-134184209D02*
X100558953Y-134136590D01*
X100558953Y-134136590D02*
X100606572Y-134088971D01*
X100606572Y-134088971D02*
X100654191Y-133993733D01*
X100654191Y-133993733D02*
X100654191Y-133850876D01*
X100654191Y-133850876D02*
X100606572Y-133755638D01*
X100606572Y-133755638D02*
X100558953Y-133708019D01*
X100558953Y-133708019D02*
X100463715Y-133660400D01*
X100463715Y-133660400D02*
X100178001Y-133660400D01*
X100178001Y-133660400D02*
X100082763Y-133708019D01*
X100082763Y-133708019D02*
X100035144Y-133755638D01*
X100035144Y-133755638D02*
X99987524Y-133850876D01*
X99987524Y-133850876D02*
X99987524Y-133993733D01*
X99987524Y-133231828D02*
X100654191Y-133231828D01*
X100558953Y-133231828D02*
X100606572Y-133184209D01*
X100606572Y-133184209D02*
X100654191Y-133088971D01*
X100654191Y-133088971D02*
X100654191Y-132946114D01*
X100654191Y-132946114D02*
X100606572Y-132850876D01*
X100606572Y-132850876D02*
X100511334Y-132803257D01*
X100511334Y-132803257D02*
X99987524Y-132803257D01*
X100511334Y-132803257D02*
X100606572Y-132755638D01*
X100606572Y-132755638D02*
X100654191Y-132660400D01*
X100654191Y-132660400D02*
X100654191Y-132517543D01*
X100654191Y-132517543D02*
X100606572Y-132422304D01*
X100606572Y-132422304D02*
X100511334Y-132374685D01*
X100511334Y-132374685D02*
X99987524Y-132374685D01*
X98377580Y-145946115D02*
X99377580Y-145946115D01*
X99377580Y-145946115D02*
X98663295Y-145612782D01*
X98663295Y-145612782D02*
X99377580Y-145279449D01*
X99377580Y-145279449D02*
X98377580Y-145279449D01*
X98377580Y-144374687D02*
X98901390Y-144374687D01*
X98901390Y-144374687D02*
X98996628Y-144422306D01*
X98996628Y-144422306D02*
X99044247Y-144517544D01*
X99044247Y-144517544D02*
X99044247Y-144708020D01*
X99044247Y-144708020D02*
X98996628Y-144803258D01*
X98425200Y-144374687D02*
X98377580Y-144469925D01*
X98377580Y-144469925D02*
X98377580Y-144708020D01*
X98377580Y-144708020D02*
X98425200Y-144803258D01*
X98425200Y-144803258D02*
X98520438Y-144850877D01*
X98520438Y-144850877D02*
X98615676Y-144850877D01*
X98615676Y-144850877D02*
X98710914Y-144803258D01*
X98710914Y-144803258D02*
X98758533Y-144708020D01*
X98758533Y-144708020D02*
X98758533Y-144469925D01*
X98758533Y-144469925D02*
X98806152Y-144374687D01*
X98377580Y-143898496D02*
X99377580Y-143898496D01*
X98758533Y-143803258D02*
X98377580Y-143517544D01*
X99044247Y-143517544D02*
X98663295Y-143898496D01*
X98425200Y-142708020D02*
X98377580Y-142803258D01*
X98377580Y-142803258D02*
X98377580Y-142993734D01*
X98377580Y-142993734D02*
X98425200Y-143088972D01*
X98425200Y-143088972D02*
X98520438Y-143136591D01*
X98520438Y-143136591D02*
X98901390Y-143136591D01*
X98901390Y-143136591D02*
X98996628Y-143088972D01*
X98996628Y-143088972D02*
X99044247Y-142993734D01*
X99044247Y-142993734D02*
X99044247Y-142803258D01*
X99044247Y-142803258D02*
X98996628Y-142708020D01*
X98996628Y-142708020D02*
X98901390Y-142660401D01*
X98901390Y-142660401D02*
X98806152Y-142660401D01*
X98806152Y-142660401D02*
X98710914Y-143136591D01*
X98377580Y-140898496D02*
X98853771Y-141231829D01*
X98377580Y-141469924D02*
X99377580Y-141469924D01*
X99377580Y-141469924D02*
X99377580Y-141088972D01*
X99377580Y-141088972D02*
X99329961Y-140993734D01*
X99329961Y-140993734D02*
X99282342Y-140946115D01*
X99282342Y-140946115D02*
X99187104Y-140898496D01*
X99187104Y-140898496D02*
X99044247Y-140898496D01*
X99044247Y-140898496D02*
X98949009Y-140946115D01*
X98949009Y-140946115D02*
X98901390Y-140993734D01*
X98901390Y-140993734D02*
X98853771Y-141088972D01*
X98853771Y-141088972D02*
X98853771Y-141469924D01*
X98377580Y-140327067D02*
X98425200Y-140422305D01*
X98425200Y-140422305D02*
X98472819Y-140469924D01*
X98472819Y-140469924D02*
X98568057Y-140517543D01*
X98568057Y-140517543D02*
X98853771Y-140517543D01*
X98853771Y-140517543D02*
X98949009Y-140469924D01*
X98949009Y-140469924D02*
X98996628Y-140422305D01*
X98996628Y-140422305D02*
X99044247Y-140327067D01*
X99044247Y-140327067D02*
X99044247Y-140184210D01*
X99044247Y-140184210D02*
X98996628Y-140088972D01*
X98996628Y-140088972D02*
X98949009Y-140041353D01*
X98949009Y-140041353D02*
X98853771Y-139993734D01*
X98853771Y-139993734D02*
X98568057Y-139993734D01*
X98568057Y-139993734D02*
X98472819Y-140041353D01*
X98472819Y-140041353D02*
X98425200Y-140088972D01*
X98425200Y-140088972D02*
X98377580Y-140184210D01*
X98377580Y-140184210D02*
X98377580Y-140327067D01*
X98377580Y-139565162D02*
X99377580Y-139565162D01*
X98996628Y-139565162D02*
X99044247Y-139469924D01*
X99044247Y-139469924D02*
X99044247Y-139279448D01*
X99044247Y-139279448D02*
X98996628Y-139184210D01*
X98996628Y-139184210D02*
X98949009Y-139136591D01*
X98949009Y-139136591D02*
X98853771Y-139088972D01*
X98853771Y-139088972D02*
X98568057Y-139088972D01*
X98568057Y-139088972D02*
X98472819Y-139136591D01*
X98472819Y-139136591D02*
X98425200Y-139184210D01*
X98425200Y-139184210D02*
X98377580Y-139279448D01*
X98377580Y-139279448D02*
X98377580Y-139469924D01*
X98377580Y-139469924D02*
X98425200Y-139565162D01*
X98377580Y-138517543D02*
X98425200Y-138612781D01*
X98425200Y-138612781D02*
X98472819Y-138660400D01*
X98472819Y-138660400D02*
X98568057Y-138708019D01*
X98568057Y-138708019D02*
X98853771Y-138708019D01*
X98853771Y-138708019D02*
X98949009Y-138660400D01*
X98949009Y-138660400D02*
X98996628Y-138612781D01*
X98996628Y-138612781D02*
X99044247Y-138517543D01*
X99044247Y-138517543D02*
X99044247Y-138374686D01*
X99044247Y-138374686D02*
X98996628Y-138279448D01*
X98996628Y-138279448D02*
X98949009Y-138231829D01*
X98949009Y-138231829D02*
X98853771Y-138184210D01*
X98853771Y-138184210D02*
X98568057Y-138184210D01*
X98568057Y-138184210D02*
X98472819Y-138231829D01*
X98472819Y-138231829D02*
X98425200Y-138279448D01*
X98425200Y-138279448D02*
X98377580Y-138374686D01*
X98377580Y-138374686D02*
X98377580Y-138517543D01*
X99044247Y-137898495D02*
X99044247Y-137517543D01*
X99377580Y-137755638D02*
X98520438Y-137755638D01*
X98520438Y-137755638D02*
X98425200Y-137708019D01*
X98425200Y-137708019D02*
X98377580Y-137612781D01*
X98377580Y-137612781D02*
X98377580Y-137517543D01*
X98377580Y-137184209D02*
X99044247Y-137184209D01*
X99377580Y-137184209D02*
X99329961Y-137231828D01*
X99329961Y-137231828D02*
X99282342Y-137184209D01*
X99282342Y-137184209D02*
X99329961Y-137136590D01*
X99329961Y-137136590D02*
X99377580Y-137184209D01*
X99377580Y-137184209D02*
X99282342Y-137184209D01*
X98425200Y-136279448D02*
X98377580Y-136374686D01*
X98377580Y-136374686D02*
X98377580Y-136565162D01*
X98377580Y-136565162D02*
X98425200Y-136660400D01*
X98425200Y-136660400D02*
X98472819Y-136708019D01*
X98472819Y-136708019D02*
X98568057Y-136755638D01*
X98568057Y-136755638D02*
X98853771Y-136755638D01*
X98853771Y-136755638D02*
X98949009Y-136708019D01*
X98949009Y-136708019D02*
X98996628Y-136660400D01*
X98996628Y-136660400D02*
X99044247Y-136565162D01*
X99044247Y-136565162D02*
X99044247Y-136374686D01*
X99044247Y-136374686D02*
X98996628Y-136279448D01*
X98425200Y-135898495D02*
X98377580Y-135803257D01*
X98377580Y-135803257D02*
X98377580Y-135612781D01*
X98377580Y-135612781D02*
X98425200Y-135517543D01*
X98425200Y-135517543D02*
X98520438Y-135469924D01*
X98520438Y-135469924D02*
X98568057Y-135469924D01*
X98568057Y-135469924D02*
X98663295Y-135517543D01*
X98663295Y-135517543D02*
X98710914Y-135612781D01*
X98710914Y-135612781D02*
X98710914Y-135755638D01*
X98710914Y-135755638D02*
X98758533Y-135850876D01*
X98758533Y-135850876D02*
X98853771Y-135898495D01*
X98853771Y-135898495D02*
X98901390Y-135898495D01*
X98901390Y-135898495D02*
X98996628Y-135850876D01*
X98996628Y-135850876D02*
X99044247Y-135755638D01*
X99044247Y-135755638D02*
X99044247Y-135612781D01*
X99044247Y-135612781D02*
X98996628Y-135517543D01*
X98663295Y-134327066D02*
X98663295Y-133850876D01*
X98377580Y-134422304D02*
X99377580Y-134088971D01*
X99377580Y-134088971D02*
X98377580Y-133755638D01*
X98425200Y-132993733D02*
X98377580Y-133088971D01*
X98377580Y-133088971D02*
X98377580Y-133279447D01*
X98377580Y-133279447D02*
X98425200Y-133374685D01*
X98425200Y-133374685D02*
X98472819Y-133422304D01*
X98472819Y-133422304D02*
X98568057Y-133469923D01*
X98568057Y-133469923D02*
X98853771Y-133469923D01*
X98853771Y-133469923D02*
X98949009Y-133422304D01*
X98949009Y-133422304D02*
X98996628Y-133374685D01*
X98996628Y-133374685D02*
X99044247Y-133279447D01*
X99044247Y-133279447D02*
X99044247Y-133088971D01*
X99044247Y-133088971D02*
X98996628Y-132993733D01*
X98425200Y-132136590D02*
X98377580Y-132231828D01*
X98377580Y-132231828D02*
X98377580Y-132422304D01*
X98377580Y-132422304D02*
X98425200Y-132517542D01*
X98425200Y-132517542D02*
X98472819Y-132565161D01*
X98472819Y-132565161D02*
X98568057Y-132612780D01*
X98568057Y-132612780D02*
X98853771Y-132612780D01*
X98853771Y-132612780D02*
X98949009Y-132565161D01*
X98949009Y-132565161D02*
X98996628Y-132517542D01*
X98996628Y-132517542D02*
X99044247Y-132422304D01*
X99044247Y-132422304D02*
X99044247Y-132231828D01*
X99044247Y-132231828D02*
X98996628Y-132136590D01*
X98425200Y-131327066D02*
X98377580Y-131422304D01*
X98377580Y-131422304D02*
X98377580Y-131612780D01*
X98377580Y-131612780D02*
X98425200Y-131708018D01*
X98425200Y-131708018D02*
X98520438Y-131755637D01*
X98520438Y-131755637D02*
X98901390Y-131755637D01*
X98901390Y-131755637D02*
X98996628Y-131708018D01*
X98996628Y-131708018D02*
X99044247Y-131612780D01*
X99044247Y-131612780D02*
X99044247Y-131422304D01*
X99044247Y-131422304D02*
X98996628Y-131327066D01*
X98996628Y-131327066D02*
X98901390Y-131279447D01*
X98901390Y-131279447D02*
X98806152Y-131279447D01*
X98806152Y-131279447D02*
X98710914Y-131755637D01*
X98425200Y-130898494D02*
X98377580Y-130803256D01*
X98377580Y-130803256D02*
X98377580Y-130612780D01*
X98377580Y-130612780D02*
X98425200Y-130517542D01*
X98425200Y-130517542D02*
X98520438Y-130469923D01*
X98520438Y-130469923D02*
X98568057Y-130469923D01*
X98568057Y-130469923D02*
X98663295Y-130517542D01*
X98663295Y-130517542D02*
X98710914Y-130612780D01*
X98710914Y-130612780D02*
X98710914Y-130755637D01*
X98710914Y-130755637D02*
X98758533Y-130850875D01*
X98758533Y-130850875D02*
X98853771Y-130898494D01*
X98853771Y-130898494D02*
X98901390Y-130898494D01*
X98901390Y-130898494D02*
X98996628Y-130850875D01*
X98996628Y-130850875D02*
X99044247Y-130755637D01*
X99044247Y-130755637D02*
X99044247Y-130612780D01*
X99044247Y-130612780D02*
X98996628Y-130517542D01*
X98425200Y-130088970D02*
X98377580Y-129993732D01*
X98377580Y-129993732D02*
X98377580Y-129803256D01*
X98377580Y-129803256D02*
X98425200Y-129708018D01*
X98425200Y-129708018D02*
X98520438Y-129660399D01*
X98520438Y-129660399D02*
X98568057Y-129660399D01*
X98568057Y-129660399D02*
X98663295Y-129708018D01*
X98663295Y-129708018D02*
X98710914Y-129803256D01*
X98710914Y-129803256D02*
X98710914Y-129946113D01*
X98710914Y-129946113D02*
X98758533Y-130041351D01*
X98758533Y-130041351D02*
X98853771Y-130088970D01*
X98853771Y-130088970D02*
X98901390Y-130088970D01*
X98901390Y-130088970D02*
X98996628Y-130041351D01*
X98996628Y-130041351D02*
X99044247Y-129946113D01*
X99044247Y-129946113D02*
X99044247Y-129803256D01*
X99044247Y-129803256D02*
X98996628Y-129708018D01*
X98377580Y-129231827D02*
X99044247Y-129231827D01*
X99377580Y-129231827D02*
X99329961Y-129279446D01*
X99329961Y-129279446D02*
X99282342Y-129231827D01*
X99282342Y-129231827D02*
X99329961Y-129184208D01*
X99329961Y-129184208D02*
X99377580Y-129231827D01*
X99377580Y-129231827D02*
X99282342Y-129231827D01*
X98377580Y-128755637D02*
X99377580Y-128755637D01*
X98996628Y-128755637D02*
X99044247Y-128660399D01*
X99044247Y-128660399D02*
X99044247Y-128469923D01*
X99044247Y-128469923D02*
X98996628Y-128374685D01*
X98996628Y-128374685D02*
X98949009Y-128327066D01*
X98949009Y-128327066D02*
X98853771Y-128279447D01*
X98853771Y-128279447D02*
X98568057Y-128279447D01*
X98568057Y-128279447D02*
X98472819Y-128327066D01*
X98472819Y-128327066D02*
X98425200Y-128374685D01*
X98425200Y-128374685D02*
X98377580Y-128469923D01*
X98377580Y-128469923D02*
X98377580Y-128660399D01*
X98377580Y-128660399D02*
X98425200Y-128755637D01*
X98377580Y-127708018D02*
X98425200Y-127803256D01*
X98425200Y-127803256D02*
X98520438Y-127850875D01*
X98520438Y-127850875D02*
X99377580Y-127850875D01*
X98425200Y-126946113D02*
X98377580Y-127041351D01*
X98377580Y-127041351D02*
X98377580Y-127231827D01*
X98377580Y-127231827D02*
X98425200Y-127327065D01*
X98425200Y-127327065D02*
X98520438Y-127374684D01*
X98520438Y-127374684D02*
X98901390Y-127374684D01*
X98901390Y-127374684D02*
X98996628Y-127327065D01*
X98996628Y-127327065D02*
X99044247Y-127231827D01*
X99044247Y-127231827D02*
X99044247Y-127041351D01*
X99044247Y-127041351D02*
X98996628Y-126946113D01*
X98996628Y-126946113D02*
X98901390Y-126898494D01*
X98901390Y-126898494D02*
X98806152Y-126898494D01*
X98806152Y-126898494D02*
X98710914Y-127374684D01*
X98377580Y-125279446D02*
X98901390Y-125279446D01*
X98901390Y-125279446D02*
X98996628Y-125327065D01*
X98996628Y-125327065D02*
X99044247Y-125422303D01*
X99044247Y-125422303D02*
X99044247Y-125612779D01*
X99044247Y-125612779D02*
X98996628Y-125708017D01*
X98425200Y-125279446D02*
X98377580Y-125374684D01*
X98377580Y-125374684D02*
X98377580Y-125612779D01*
X98377580Y-125612779D02*
X98425200Y-125708017D01*
X98425200Y-125708017D02*
X98520438Y-125755636D01*
X98520438Y-125755636D02*
X98615676Y-125755636D01*
X98615676Y-125755636D02*
X98710914Y-125708017D01*
X98710914Y-125708017D02*
X98758533Y-125612779D01*
X98758533Y-125612779D02*
X98758533Y-125374684D01*
X98758533Y-125374684D02*
X98806152Y-125279446D01*
X99044247Y-124803255D02*
X98377580Y-124803255D01*
X98949009Y-124803255D02*
X98996628Y-124755636D01*
X98996628Y-124755636D02*
X99044247Y-124660398D01*
X99044247Y-124660398D02*
X99044247Y-124517541D01*
X99044247Y-124517541D02*
X98996628Y-124422303D01*
X98996628Y-124422303D02*
X98901390Y-124374684D01*
X98901390Y-124374684D02*
X98377580Y-124374684D01*
X98377580Y-123469922D02*
X99377580Y-123469922D01*
X98425200Y-123469922D02*
X98377580Y-123565160D01*
X98377580Y-123565160D02*
X98377580Y-123755636D01*
X98377580Y-123755636D02*
X98425200Y-123850874D01*
X98425200Y-123850874D02*
X98472819Y-123898493D01*
X98472819Y-123898493D02*
X98568057Y-123946112D01*
X98568057Y-123946112D02*
X98853771Y-123946112D01*
X98853771Y-123946112D02*
X98949009Y-123898493D01*
X98949009Y-123898493D02*
X98996628Y-123850874D01*
X98996628Y-123850874D02*
X99044247Y-123755636D01*
X99044247Y-123755636D02*
X99044247Y-123565160D01*
X99044247Y-123565160D02*
X98996628Y-123469922D01*
X98901390Y-121898493D02*
X98901390Y-122231826D01*
X98377580Y-122231826D02*
X99377580Y-122231826D01*
X99377580Y-122231826D02*
X99377580Y-121755636D01*
X99044247Y-120946112D02*
X98377580Y-120946112D01*
X99044247Y-121374683D02*
X98520438Y-121374683D01*
X98520438Y-121374683D02*
X98425200Y-121327064D01*
X98425200Y-121327064D02*
X98377580Y-121231826D01*
X98377580Y-121231826D02*
X98377580Y-121088969D01*
X98377580Y-121088969D02*
X98425200Y-120993731D01*
X98425200Y-120993731D02*
X98472819Y-120946112D01*
X99044247Y-120469921D02*
X98377580Y-120469921D01*
X98949009Y-120469921D02*
X98996628Y-120422302D01*
X98996628Y-120422302D02*
X99044247Y-120327064D01*
X99044247Y-120327064D02*
X99044247Y-120184207D01*
X99044247Y-120184207D02*
X98996628Y-120088969D01*
X98996628Y-120088969D02*
X98901390Y-120041350D01*
X98901390Y-120041350D02*
X98377580Y-120041350D01*
X99044247Y-118946111D02*
X99044247Y-118565159D01*
X98377580Y-118803254D02*
X99234723Y-118803254D01*
X99234723Y-118803254D02*
X99329961Y-118755635D01*
X99329961Y-118755635D02*
X99377580Y-118660397D01*
X99377580Y-118660397D02*
X99377580Y-118565159D01*
X98377580Y-118088968D02*
X98425200Y-118184206D01*
X98425200Y-118184206D02*
X98472819Y-118231825D01*
X98472819Y-118231825D02*
X98568057Y-118279444D01*
X98568057Y-118279444D02*
X98853771Y-118279444D01*
X98853771Y-118279444D02*
X98949009Y-118231825D01*
X98949009Y-118231825D02*
X98996628Y-118184206D01*
X98996628Y-118184206D02*
X99044247Y-118088968D01*
X99044247Y-118088968D02*
X99044247Y-117946111D01*
X99044247Y-117946111D02*
X98996628Y-117850873D01*
X98996628Y-117850873D02*
X98949009Y-117803254D01*
X98949009Y-117803254D02*
X98853771Y-117755635D01*
X98853771Y-117755635D02*
X98568057Y-117755635D01*
X98568057Y-117755635D02*
X98472819Y-117803254D01*
X98472819Y-117803254D02*
X98425200Y-117850873D01*
X98425200Y-117850873D02*
X98377580Y-117946111D01*
X98377580Y-117946111D02*
X98377580Y-118088968D01*
X98377580Y-117327063D02*
X99044247Y-117327063D01*
X98853771Y-117327063D02*
X98949009Y-117279444D01*
X98949009Y-117279444D02*
X98996628Y-117231825D01*
X98996628Y-117231825D02*
X99044247Y-117136587D01*
X99044247Y-117136587D02*
X99044247Y-117041349D01*
X98901390Y-115946110D02*
X98901390Y-115612777D01*
X98377580Y-115469920D02*
X98377580Y-115946110D01*
X98377580Y-115946110D02*
X99377580Y-115946110D01*
X99377580Y-115946110D02*
X99377580Y-115469920D01*
X99044247Y-115136586D02*
X98377580Y-114898491D01*
X98377580Y-114898491D02*
X99044247Y-114660396D01*
X98425200Y-113898491D02*
X98377580Y-113993729D01*
X98377580Y-113993729D02*
X98377580Y-114184205D01*
X98377580Y-114184205D02*
X98425200Y-114279443D01*
X98425200Y-114279443D02*
X98520438Y-114327062D01*
X98520438Y-114327062D02*
X98901390Y-114327062D01*
X98901390Y-114327062D02*
X98996628Y-114279443D01*
X98996628Y-114279443D02*
X99044247Y-114184205D01*
X99044247Y-114184205D02*
X99044247Y-113993729D01*
X99044247Y-113993729D02*
X98996628Y-113898491D01*
X98996628Y-113898491D02*
X98901390Y-113850872D01*
X98901390Y-113850872D02*
X98806152Y-113850872D01*
X98806152Y-113850872D02*
X98710914Y-114327062D01*
X98377580Y-113422300D02*
X99044247Y-113422300D01*
X98853771Y-113422300D02*
X98949009Y-113374681D01*
X98949009Y-113374681D02*
X98996628Y-113327062D01*
X98996628Y-113327062D02*
X99044247Y-113231824D01*
X99044247Y-113231824D02*
X99044247Y-113136586D01*
X99044247Y-112898490D02*
X98377580Y-112660395D01*
X99044247Y-112422300D02*
X98377580Y-112660395D01*
X98377580Y-112660395D02*
X98139485Y-112755633D01*
X98139485Y-112755633D02*
X98091866Y-112803252D01*
X98091866Y-112803252D02*
X98044247Y-112898490D01*
X98377580Y-111898490D02*
X98425200Y-111993728D01*
X98425200Y-111993728D02*
X98472819Y-112041347D01*
X98472819Y-112041347D02*
X98568057Y-112088966D01*
X98568057Y-112088966D02*
X98853771Y-112088966D01*
X98853771Y-112088966D02*
X98949009Y-112041347D01*
X98949009Y-112041347D02*
X98996628Y-111993728D01*
X98996628Y-111993728D02*
X99044247Y-111898490D01*
X99044247Y-111898490D02*
X99044247Y-111755633D01*
X99044247Y-111755633D02*
X98996628Y-111660395D01*
X98996628Y-111660395D02*
X98949009Y-111612776D01*
X98949009Y-111612776D02*
X98853771Y-111565157D01*
X98853771Y-111565157D02*
X98568057Y-111565157D01*
X98568057Y-111565157D02*
X98472819Y-111612776D01*
X98472819Y-111612776D02*
X98425200Y-111660395D01*
X98425200Y-111660395D02*
X98377580Y-111755633D01*
X98377580Y-111755633D02*
X98377580Y-111898490D01*
X99044247Y-111136585D02*
X98377580Y-111136585D01*
X98949009Y-111136585D02*
X98996628Y-111088966D01*
X98996628Y-111088966D02*
X99044247Y-110993728D01*
X99044247Y-110993728D02*
X99044247Y-110850871D01*
X99044247Y-110850871D02*
X98996628Y-110755633D01*
X98996628Y-110755633D02*
X98901390Y-110708014D01*
X98901390Y-110708014D02*
X98377580Y-110708014D01*
X98425200Y-109850871D02*
X98377580Y-109946109D01*
X98377580Y-109946109D02*
X98377580Y-110136585D01*
X98377580Y-110136585D02*
X98425200Y-110231823D01*
X98425200Y-110231823D02*
X98520438Y-110279442D01*
X98520438Y-110279442D02*
X98901390Y-110279442D01*
X98901390Y-110279442D02*
X98996628Y-110231823D01*
X98996628Y-110231823D02*
X99044247Y-110136585D01*
X99044247Y-110136585D02*
X99044247Y-109946109D01*
X99044247Y-109946109D02*
X98996628Y-109850871D01*
X98996628Y-109850871D02*
X98901390Y-109803252D01*
X98901390Y-109803252D02*
X98806152Y-109803252D01*
X98806152Y-109803252D02*
X98710914Y-110279442D01*
X114124687Y-122372419D02*
X114458020Y-121896228D01*
X114696115Y-122372419D02*
X114696115Y-121372419D01*
X114696115Y-121372419D02*
X114315163Y-121372419D01*
X114315163Y-121372419D02*
X114219925Y-121420038D01*
X114219925Y-121420038D02*
X114172306Y-121467657D01*
X114172306Y-121467657D02*
X114124687Y-121562895D01*
X114124687Y-121562895D02*
X114124687Y-121705752D01*
X114124687Y-121705752D02*
X114172306Y-121800990D01*
X114172306Y-121800990D02*
X114219925Y-121848609D01*
X114219925Y-121848609D02*
X114315163Y-121896228D01*
X114315163Y-121896228D02*
X114696115Y-121896228D01*
X113743734Y-121467657D02*
X113696115Y-121420038D01*
X113696115Y-121420038D02*
X113600877Y-121372419D01*
X113600877Y-121372419D02*
X113362782Y-121372419D01*
X113362782Y-121372419D02*
X113267544Y-121420038D01*
X113267544Y-121420038D02*
X113219925Y-121467657D01*
X113219925Y-121467657D02*
X113172306Y-121562895D01*
X113172306Y-121562895D02*
X113172306Y-121658133D01*
X113172306Y-121658133D02*
X113219925Y-121800990D01*
X113219925Y-121800990D02*
X113791353Y-122372419D01*
X113791353Y-122372419D02*
X113172306Y-122372419D01*
X112981830Y-122467657D02*
X112219925Y-122467657D01*
X111696115Y-121372419D02*
X111696115Y-122086704D01*
X111696115Y-122086704D02*
X111743734Y-122229561D01*
X111743734Y-122229561D02*
X111838972Y-122324800D01*
X111838972Y-122324800D02*
X111981829Y-122372419D01*
X111981829Y-122372419D02*
X112077067Y-122372419D01*
X111267543Y-121467657D02*
X111219924Y-121420038D01*
X111219924Y-121420038D02*
X111124686Y-121372419D01*
X111124686Y-121372419D02*
X110886591Y-121372419D01*
X110886591Y-121372419D02*
X110791353Y-121420038D01*
X110791353Y-121420038D02*
X110743734Y-121467657D01*
X110743734Y-121467657D02*
X110696115Y-121562895D01*
X110696115Y-121562895D02*
X110696115Y-121658133D01*
X110696115Y-121658133D02*
X110743734Y-121800990D01*
X110743734Y-121800990D02*
X111315162Y-122372419D01*
X111315162Y-122372419D02*
X110696115Y-122372419D01*
X88469925Y-136372419D02*
X88946115Y-136372419D01*
X88946115Y-136372419D02*
X88946115Y-135372419D01*
X88231829Y-135372419D02*
X87612782Y-135372419D01*
X87612782Y-135372419D02*
X87946115Y-135753371D01*
X87946115Y-135753371D02*
X87803258Y-135753371D01*
X87803258Y-135753371D02*
X87708020Y-135800990D01*
X87708020Y-135800990D02*
X87660401Y-135848609D01*
X87660401Y-135848609D02*
X87612782Y-135943847D01*
X87612782Y-135943847D02*
X87612782Y-136181942D01*
X87612782Y-136181942D02*
X87660401Y-136277180D01*
X87660401Y-136277180D02*
X87708020Y-136324800D01*
X87708020Y-136324800D02*
X87803258Y-136372419D01*
X87803258Y-136372419D02*
X88088972Y-136372419D01*
X88088972Y-136372419D02*
X88184210Y-136324800D01*
X88184210Y-136324800D02*
X88231829Y-136277180D01*
X87422306Y-136467657D02*
X86660401Y-136467657D01*
X86136591Y-135372419D02*
X86136591Y-136086704D01*
X86136591Y-136086704D02*
X86184210Y-136229561D01*
X86184210Y-136229561D02*
X86279448Y-136324800D01*
X86279448Y-136324800D02*
X86422305Y-136372419D01*
X86422305Y-136372419D02*
X86517543Y-136372419D01*
X85708019Y-135467657D02*
X85660400Y-135420038D01*
X85660400Y-135420038D02*
X85565162Y-135372419D01*
X85565162Y-135372419D02*
X85327067Y-135372419D01*
X85327067Y-135372419D02*
X85231829Y-135420038D01*
X85231829Y-135420038D02*
X85184210Y-135467657D01*
X85184210Y-135467657D02*
X85136591Y-135562895D01*
X85136591Y-135562895D02*
X85136591Y-135658133D01*
X85136591Y-135658133D02*
X85184210Y-135800990D01*
X85184210Y-135800990D02*
X85755638Y-136372419D01*
X85755638Y-136372419D02*
X85136591Y-136372419D01*
X88469925Y-125872419D02*
X88946115Y-125872419D01*
X88946115Y-125872419D02*
X88946115Y-124872419D01*
X88184210Y-124967657D02*
X88136591Y-124920038D01*
X88136591Y-124920038D02*
X88041353Y-124872419D01*
X88041353Y-124872419D02*
X87803258Y-124872419D01*
X87803258Y-124872419D02*
X87708020Y-124920038D01*
X87708020Y-124920038D02*
X87660401Y-124967657D01*
X87660401Y-124967657D02*
X87612782Y-125062895D01*
X87612782Y-125062895D02*
X87612782Y-125158133D01*
X87612782Y-125158133D02*
X87660401Y-125300990D01*
X87660401Y-125300990D02*
X88231829Y-125872419D01*
X88231829Y-125872419D02*
X87612782Y-125872419D01*
X87422306Y-125967657D02*
X86660401Y-125967657D01*
X86136591Y-124872419D02*
X86136591Y-125586704D01*
X86136591Y-125586704D02*
X86184210Y-125729561D01*
X86184210Y-125729561D02*
X86279448Y-125824800D01*
X86279448Y-125824800D02*
X86422305Y-125872419D01*
X86422305Y-125872419D02*
X86517543Y-125872419D01*
X85755638Y-124872419D02*
X85136591Y-124872419D01*
X85136591Y-124872419D02*
X85469924Y-125253371D01*
X85469924Y-125253371D02*
X85327067Y-125253371D01*
X85327067Y-125253371D02*
X85231829Y-125300990D01*
X85231829Y-125300990D02*
X85184210Y-125348609D01*
X85184210Y-125348609D02*
X85136591Y-125443847D01*
X85136591Y-125443847D02*
X85136591Y-125681942D01*
X85136591Y-125681942D02*
X85184210Y-125777180D01*
X85184210Y-125777180D02*
X85231829Y-125824800D01*
X85231829Y-125824800D02*
X85327067Y-125872419D01*
X85327067Y-125872419D02*
X85612781Y-125872419D01*
X85612781Y-125872419D02*
X85708019Y-125824800D01*
X85708019Y-125824800D02*
X85755638Y-125777180D01*
X114124687Y-136372419D02*
X114458020Y-135896228D01*
X114696115Y-136372419D02*
X114696115Y-135372419D01*
X114696115Y-135372419D02*
X114315163Y-135372419D01*
X114315163Y-135372419D02*
X114219925Y-135420038D01*
X114219925Y-135420038D02*
X114172306Y-135467657D01*
X114172306Y-135467657D02*
X114124687Y-135562895D01*
X114124687Y-135562895D02*
X114124687Y-135705752D01*
X114124687Y-135705752D02*
X114172306Y-135800990D01*
X114172306Y-135800990D02*
X114219925Y-135848609D01*
X114219925Y-135848609D02*
X114315163Y-135896228D01*
X114315163Y-135896228D02*
X114696115Y-135896228D01*
X113791353Y-135372419D02*
X113172306Y-135372419D01*
X113172306Y-135372419D02*
X113505639Y-135753371D01*
X113505639Y-135753371D02*
X113362782Y-135753371D01*
X113362782Y-135753371D02*
X113267544Y-135800990D01*
X113267544Y-135800990D02*
X113219925Y-135848609D01*
X113219925Y-135848609D02*
X113172306Y-135943847D01*
X113172306Y-135943847D02*
X113172306Y-136181942D01*
X113172306Y-136181942D02*
X113219925Y-136277180D01*
X113219925Y-136277180D02*
X113267544Y-136324800D01*
X113267544Y-136324800D02*
X113362782Y-136372419D01*
X113362782Y-136372419D02*
X113648496Y-136372419D01*
X113648496Y-136372419D02*
X113743734Y-136324800D01*
X113743734Y-136324800D02*
X113791353Y-136277180D01*
X112981830Y-136467657D02*
X112219925Y-136467657D01*
X111696115Y-135372419D02*
X111696115Y-136086704D01*
X111696115Y-136086704D02*
X111743734Y-136229561D01*
X111743734Y-136229561D02*
X111838972Y-136324800D01*
X111838972Y-136324800D02*
X111981829Y-136372419D01*
X111981829Y-136372419D02*
X112077067Y-136372419D01*
X111267543Y-135467657D02*
X111219924Y-135420038D01*
X111219924Y-135420038D02*
X111124686Y-135372419D01*
X111124686Y-135372419D02*
X110886591Y-135372419D01*
X110886591Y-135372419D02*
X110791353Y-135420038D01*
X110791353Y-135420038D02*
X110743734Y-135467657D01*
X110743734Y-135467657D02*
X110696115Y-135562895D01*
X110696115Y-135562895D02*
X110696115Y-135658133D01*
X110696115Y-135658133D02*
X110743734Y-135800990D01*
X110743734Y-135800990D02*
X111315162Y-136372419D01*
X111315162Y-136372419D02*
X110696115Y-136372419D01*
X114124687Y-126122419D02*
X114458020Y-125646228D01*
X114696115Y-126122419D02*
X114696115Y-125122419D01*
X114696115Y-125122419D02*
X114315163Y-125122419D01*
X114315163Y-125122419D02*
X114219925Y-125170038D01*
X114219925Y-125170038D02*
X114172306Y-125217657D01*
X114172306Y-125217657D02*
X114124687Y-125312895D01*
X114124687Y-125312895D02*
X114124687Y-125455752D01*
X114124687Y-125455752D02*
X114172306Y-125550990D01*
X114172306Y-125550990D02*
X114219925Y-125598609D01*
X114219925Y-125598609D02*
X114315163Y-125646228D01*
X114315163Y-125646228D02*
X114696115Y-125646228D01*
X113743734Y-125217657D02*
X113696115Y-125170038D01*
X113696115Y-125170038D02*
X113600877Y-125122419D01*
X113600877Y-125122419D02*
X113362782Y-125122419D01*
X113362782Y-125122419D02*
X113267544Y-125170038D01*
X113267544Y-125170038D02*
X113219925Y-125217657D01*
X113219925Y-125217657D02*
X113172306Y-125312895D01*
X113172306Y-125312895D02*
X113172306Y-125408133D01*
X113172306Y-125408133D02*
X113219925Y-125550990D01*
X113219925Y-125550990D02*
X113791353Y-126122419D01*
X113791353Y-126122419D02*
X113172306Y-126122419D01*
X112981830Y-126217657D02*
X112219925Y-126217657D01*
X111696115Y-125122419D02*
X111696115Y-125836704D01*
X111696115Y-125836704D02*
X111743734Y-125979561D01*
X111743734Y-125979561D02*
X111838972Y-126074800D01*
X111838972Y-126074800D02*
X111981829Y-126122419D01*
X111981829Y-126122419D02*
X112077067Y-126122419D01*
X111315162Y-125122419D02*
X110696115Y-125122419D01*
X110696115Y-125122419D02*
X111029448Y-125503371D01*
X111029448Y-125503371D02*
X110886591Y-125503371D01*
X110886591Y-125503371D02*
X110791353Y-125550990D01*
X110791353Y-125550990D02*
X110743734Y-125598609D01*
X110743734Y-125598609D02*
X110696115Y-125693847D01*
X110696115Y-125693847D02*
X110696115Y-125931942D01*
X110696115Y-125931942D02*
X110743734Y-126027180D01*
X110743734Y-126027180D02*
X110791353Y-126074800D01*
X110791353Y-126074800D02*
X110886591Y-126122419D01*
X110886591Y-126122419D02*
X111172305Y-126122419D01*
X111172305Y-126122419D02*
X111267543Y-126074800D01*
X111267543Y-126074800D02*
X111315162Y-126027180D01*
X114124687Y-132622419D02*
X114458020Y-132146228D01*
X114696115Y-132622419D02*
X114696115Y-131622419D01*
X114696115Y-131622419D02*
X114315163Y-131622419D01*
X114315163Y-131622419D02*
X114219925Y-131670038D01*
X114219925Y-131670038D02*
X114172306Y-131717657D01*
X114172306Y-131717657D02*
X114124687Y-131812895D01*
X114124687Y-131812895D02*
X114124687Y-131955752D01*
X114124687Y-131955752D02*
X114172306Y-132050990D01*
X114172306Y-132050990D02*
X114219925Y-132098609D01*
X114219925Y-132098609D02*
X114315163Y-132146228D01*
X114315163Y-132146228D02*
X114696115Y-132146228D01*
X113791353Y-131622419D02*
X113172306Y-131622419D01*
X113172306Y-131622419D02*
X113505639Y-132003371D01*
X113505639Y-132003371D02*
X113362782Y-132003371D01*
X113362782Y-132003371D02*
X113267544Y-132050990D01*
X113267544Y-132050990D02*
X113219925Y-132098609D01*
X113219925Y-132098609D02*
X113172306Y-132193847D01*
X113172306Y-132193847D02*
X113172306Y-132431942D01*
X113172306Y-132431942D02*
X113219925Y-132527180D01*
X113219925Y-132527180D02*
X113267544Y-132574800D01*
X113267544Y-132574800D02*
X113362782Y-132622419D01*
X113362782Y-132622419D02*
X113648496Y-132622419D01*
X113648496Y-132622419D02*
X113743734Y-132574800D01*
X113743734Y-132574800D02*
X113791353Y-132527180D01*
X112981830Y-132717657D02*
X112219925Y-132717657D01*
X111696115Y-131622419D02*
X111696115Y-132336704D01*
X111696115Y-132336704D02*
X111743734Y-132479561D01*
X111743734Y-132479561D02*
X111838972Y-132574800D01*
X111838972Y-132574800D02*
X111981829Y-132622419D01*
X111981829Y-132622419D02*
X112077067Y-132622419D01*
X110696115Y-132622419D02*
X111267543Y-132622419D01*
X110981829Y-132622419D02*
X110981829Y-131622419D01*
X110981829Y-131622419D02*
X111077067Y-131765276D01*
X111077067Y-131765276D02*
X111172305Y-131860514D01*
X111172305Y-131860514D02*
X111267543Y-131908133D01*
X88469925Y-140372419D02*
X88946115Y-140372419D01*
X88946115Y-140372419D02*
X88946115Y-139372419D01*
X88231829Y-139372419D02*
X87612782Y-139372419D01*
X87612782Y-139372419D02*
X87946115Y-139753371D01*
X87946115Y-139753371D02*
X87803258Y-139753371D01*
X87803258Y-139753371D02*
X87708020Y-139800990D01*
X87708020Y-139800990D02*
X87660401Y-139848609D01*
X87660401Y-139848609D02*
X87612782Y-139943847D01*
X87612782Y-139943847D02*
X87612782Y-140181942D01*
X87612782Y-140181942D02*
X87660401Y-140277180D01*
X87660401Y-140277180D02*
X87708020Y-140324800D01*
X87708020Y-140324800D02*
X87803258Y-140372419D01*
X87803258Y-140372419D02*
X88088972Y-140372419D01*
X88088972Y-140372419D02*
X88184210Y-140324800D01*
X88184210Y-140324800D02*
X88231829Y-140277180D01*
X87422306Y-140467657D02*
X86660401Y-140467657D01*
X86136591Y-139372419D02*
X86136591Y-140086704D01*
X86136591Y-140086704D02*
X86184210Y-140229561D01*
X86184210Y-140229561D02*
X86279448Y-140324800D01*
X86279448Y-140324800D02*
X86422305Y-140372419D01*
X86422305Y-140372419D02*
X86517543Y-140372419D01*
X85755638Y-139372419D02*
X85136591Y-139372419D01*
X85136591Y-139372419D02*
X85469924Y-139753371D01*
X85469924Y-139753371D02*
X85327067Y-139753371D01*
X85327067Y-139753371D02*
X85231829Y-139800990D01*
X85231829Y-139800990D02*
X85184210Y-139848609D01*
X85184210Y-139848609D02*
X85136591Y-139943847D01*
X85136591Y-139943847D02*
X85136591Y-140181942D01*
X85136591Y-140181942D02*
X85184210Y-140277180D01*
X85184210Y-140277180D02*
X85231829Y-140324800D01*
X85231829Y-140324800D02*
X85327067Y-140372419D01*
X85327067Y-140372419D02*
X85612781Y-140372419D01*
X85612781Y-140372419D02*
X85708019Y-140324800D01*
X85708019Y-140324800D02*
X85755638Y-140277180D01*
X114124687Y-140622419D02*
X114458020Y-140146228D01*
X114696115Y-140622419D02*
X114696115Y-139622419D01*
X114696115Y-139622419D02*
X114315163Y-139622419D01*
X114315163Y-139622419D02*
X114219925Y-139670038D01*
X114219925Y-139670038D02*
X114172306Y-139717657D01*
X114172306Y-139717657D02*
X114124687Y-139812895D01*
X114124687Y-139812895D02*
X114124687Y-139955752D01*
X114124687Y-139955752D02*
X114172306Y-140050990D01*
X114172306Y-140050990D02*
X114219925Y-140098609D01*
X114219925Y-140098609D02*
X114315163Y-140146228D01*
X114315163Y-140146228D02*
X114696115Y-140146228D01*
X113791353Y-139622419D02*
X113172306Y-139622419D01*
X113172306Y-139622419D02*
X113505639Y-140003371D01*
X113505639Y-140003371D02*
X113362782Y-140003371D01*
X113362782Y-140003371D02*
X113267544Y-140050990D01*
X113267544Y-140050990D02*
X113219925Y-140098609D01*
X113219925Y-140098609D02*
X113172306Y-140193847D01*
X113172306Y-140193847D02*
X113172306Y-140431942D01*
X113172306Y-140431942D02*
X113219925Y-140527180D01*
X113219925Y-140527180D02*
X113267544Y-140574800D01*
X113267544Y-140574800D02*
X113362782Y-140622419D01*
X113362782Y-140622419D02*
X113648496Y-140622419D01*
X113648496Y-140622419D02*
X113743734Y-140574800D01*
X113743734Y-140574800D02*
X113791353Y-140527180D01*
X112981830Y-140717657D02*
X112219925Y-140717657D01*
X111696115Y-139622419D02*
X111696115Y-140336704D01*
X111696115Y-140336704D02*
X111743734Y-140479561D01*
X111743734Y-140479561D02*
X111838972Y-140574800D01*
X111838972Y-140574800D02*
X111981829Y-140622419D01*
X111981829Y-140622419D02*
X112077067Y-140622419D01*
X111315162Y-139622419D02*
X110696115Y-139622419D01*
X110696115Y-139622419D02*
X111029448Y-140003371D01*
X111029448Y-140003371D02*
X110886591Y-140003371D01*
X110886591Y-140003371D02*
X110791353Y-140050990D01*
X110791353Y-140050990D02*
X110743734Y-140098609D01*
X110743734Y-140098609D02*
X110696115Y-140193847D01*
X110696115Y-140193847D02*
X110696115Y-140431942D01*
X110696115Y-140431942D02*
X110743734Y-140527180D01*
X110743734Y-140527180D02*
X110791353Y-140574800D01*
X110791353Y-140574800D02*
X110886591Y-140622419D01*
X110886591Y-140622419D02*
X111172305Y-140622419D01*
X111172305Y-140622419D02*
X111267543Y-140574800D01*
X111267543Y-140574800D02*
X111315162Y-140527180D01*
X88469925Y-132372419D02*
X88946115Y-132372419D01*
X88946115Y-132372419D02*
X88946115Y-131372419D01*
X88231829Y-131372419D02*
X87612782Y-131372419D01*
X87612782Y-131372419D02*
X87946115Y-131753371D01*
X87946115Y-131753371D02*
X87803258Y-131753371D01*
X87803258Y-131753371D02*
X87708020Y-131800990D01*
X87708020Y-131800990D02*
X87660401Y-131848609D01*
X87660401Y-131848609D02*
X87612782Y-131943847D01*
X87612782Y-131943847D02*
X87612782Y-132181942D01*
X87612782Y-132181942D02*
X87660401Y-132277180D01*
X87660401Y-132277180D02*
X87708020Y-132324800D01*
X87708020Y-132324800D02*
X87803258Y-132372419D01*
X87803258Y-132372419D02*
X88088972Y-132372419D01*
X88088972Y-132372419D02*
X88184210Y-132324800D01*
X88184210Y-132324800D02*
X88231829Y-132277180D01*
X87422306Y-132467657D02*
X86660401Y-132467657D01*
X86136591Y-131372419D02*
X86136591Y-132086704D01*
X86136591Y-132086704D02*
X86184210Y-132229561D01*
X86184210Y-132229561D02*
X86279448Y-132324800D01*
X86279448Y-132324800D02*
X86422305Y-132372419D01*
X86422305Y-132372419D02*
X86517543Y-132372419D01*
X85136591Y-132372419D02*
X85708019Y-132372419D01*
X85422305Y-132372419D02*
X85422305Y-131372419D01*
X85422305Y-131372419D02*
X85517543Y-131515276D01*
X85517543Y-131515276D02*
X85612781Y-131610514D01*
X85612781Y-131610514D02*
X85708019Y-131658133D01*
X88469925Y-117872419D02*
X88946115Y-117872419D01*
X88946115Y-117872419D02*
X88946115Y-116872419D01*
X88184210Y-116967657D02*
X88136591Y-116920038D01*
X88136591Y-116920038D02*
X88041353Y-116872419D01*
X88041353Y-116872419D02*
X87803258Y-116872419D01*
X87803258Y-116872419D02*
X87708020Y-116920038D01*
X87708020Y-116920038D02*
X87660401Y-116967657D01*
X87660401Y-116967657D02*
X87612782Y-117062895D01*
X87612782Y-117062895D02*
X87612782Y-117158133D01*
X87612782Y-117158133D02*
X87660401Y-117300990D01*
X87660401Y-117300990D02*
X88231829Y-117872419D01*
X88231829Y-117872419D02*
X87612782Y-117872419D01*
X87422306Y-117967657D02*
X86660401Y-117967657D01*
X86136591Y-116872419D02*
X86136591Y-117586704D01*
X86136591Y-117586704D02*
X86184210Y-117729561D01*
X86184210Y-117729561D02*
X86279448Y-117824800D01*
X86279448Y-117824800D02*
X86422305Y-117872419D01*
X86422305Y-117872419D02*
X86517543Y-117872419D01*
X85136591Y-117872419D02*
X85708019Y-117872419D01*
X85422305Y-117872419D02*
X85422305Y-116872419D01*
X85422305Y-116872419D02*
X85517543Y-117015276D01*
X85517543Y-117015276D02*
X85612781Y-117110514D01*
X85612781Y-117110514D02*
X85708019Y-117158133D01*
X114124687Y-118122419D02*
X114458020Y-117646228D01*
X114696115Y-118122419D02*
X114696115Y-117122419D01*
X114696115Y-117122419D02*
X114315163Y-117122419D01*
X114315163Y-117122419D02*
X114219925Y-117170038D01*
X114219925Y-117170038D02*
X114172306Y-117217657D01*
X114172306Y-117217657D02*
X114124687Y-117312895D01*
X114124687Y-117312895D02*
X114124687Y-117455752D01*
X114124687Y-117455752D02*
X114172306Y-117550990D01*
X114172306Y-117550990D02*
X114219925Y-117598609D01*
X114219925Y-117598609D02*
X114315163Y-117646228D01*
X114315163Y-117646228D02*
X114696115Y-117646228D01*
X113743734Y-117217657D02*
X113696115Y-117170038D01*
X113696115Y-117170038D02*
X113600877Y-117122419D01*
X113600877Y-117122419D02*
X113362782Y-117122419D01*
X113362782Y-117122419D02*
X113267544Y-117170038D01*
X113267544Y-117170038D02*
X113219925Y-117217657D01*
X113219925Y-117217657D02*
X113172306Y-117312895D01*
X113172306Y-117312895D02*
X113172306Y-117408133D01*
X113172306Y-117408133D02*
X113219925Y-117550990D01*
X113219925Y-117550990D02*
X113791353Y-118122419D01*
X113791353Y-118122419D02*
X113172306Y-118122419D01*
X112981830Y-118217657D02*
X112219925Y-118217657D01*
X111696115Y-117122419D02*
X111696115Y-117836704D01*
X111696115Y-117836704D02*
X111743734Y-117979561D01*
X111743734Y-117979561D02*
X111838972Y-118074800D01*
X111838972Y-118074800D02*
X111981829Y-118122419D01*
X111981829Y-118122419D02*
X112077067Y-118122419D01*
X110696115Y-118122419D02*
X111267543Y-118122419D01*
X110981829Y-118122419D02*
X110981829Y-117122419D01*
X110981829Y-117122419D02*
X111077067Y-117265276D01*
X111077067Y-117265276D02*
X111172305Y-117360514D01*
X111172305Y-117360514D02*
X111267543Y-117408133D01*
X114124687Y-103622419D02*
X114458020Y-103146228D01*
X114696115Y-103622419D02*
X114696115Y-102622419D01*
X114696115Y-102622419D02*
X114315163Y-102622419D01*
X114315163Y-102622419D02*
X114219925Y-102670038D01*
X114219925Y-102670038D02*
X114172306Y-102717657D01*
X114172306Y-102717657D02*
X114124687Y-102812895D01*
X114124687Y-102812895D02*
X114124687Y-102955752D01*
X114124687Y-102955752D02*
X114172306Y-103050990D01*
X114172306Y-103050990D02*
X114219925Y-103098609D01*
X114219925Y-103098609D02*
X114315163Y-103146228D01*
X114315163Y-103146228D02*
X114696115Y-103146228D01*
X113172306Y-103622419D02*
X113743734Y-103622419D01*
X113458020Y-103622419D02*
X113458020Y-102622419D01*
X113458020Y-102622419D02*
X113553258Y-102765276D01*
X113553258Y-102765276D02*
X113648496Y-102860514D01*
X113648496Y-102860514D02*
X113743734Y-102908133D01*
X112981830Y-103717657D02*
X112219925Y-103717657D01*
X111696115Y-102622419D02*
X111696115Y-103336704D01*
X111696115Y-103336704D02*
X111743734Y-103479561D01*
X111743734Y-103479561D02*
X111838972Y-103574800D01*
X111838972Y-103574800D02*
X111981829Y-103622419D01*
X111981829Y-103622419D02*
X112077067Y-103622419D01*
X110696115Y-103622419D02*
X111267543Y-103622419D01*
X110981829Y-103622419D02*
X110981829Y-102622419D01*
X110981829Y-102622419D02*
X111077067Y-102765276D01*
X111077067Y-102765276D02*
X111172305Y-102860514D01*
X111172305Y-102860514D02*
X111267543Y-102908133D01*
X88469925Y-103622419D02*
X88946115Y-103622419D01*
X88946115Y-103622419D02*
X88946115Y-102622419D01*
X87612782Y-103622419D02*
X88184210Y-103622419D01*
X87898496Y-103622419D02*
X87898496Y-102622419D01*
X87898496Y-102622419D02*
X87993734Y-102765276D01*
X87993734Y-102765276D02*
X88088972Y-102860514D01*
X88088972Y-102860514D02*
X88184210Y-102908133D01*
X87422306Y-103717657D02*
X86660401Y-103717657D01*
X86136591Y-102622419D02*
X86136591Y-103336704D01*
X86136591Y-103336704D02*
X86184210Y-103479561D01*
X86184210Y-103479561D02*
X86279448Y-103574800D01*
X86279448Y-103574800D02*
X86422305Y-103622419D01*
X86422305Y-103622419D02*
X86517543Y-103622419D01*
X85136591Y-103622419D02*
X85708019Y-103622419D01*
X85422305Y-103622419D02*
X85422305Y-102622419D01*
X85422305Y-102622419D02*
X85517543Y-102765276D01*
X85517543Y-102765276D02*
X85612781Y-102860514D01*
X85612781Y-102860514D02*
X85708019Y-102908133D01*
X88469925Y-111372419D02*
X88946115Y-111372419D01*
X88946115Y-111372419D02*
X88946115Y-110372419D01*
X87612782Y-111372419D02*
X88184210Y-111372419D01*
X87898496Y-111372419D02*
X87898496Y-110372419D01*
X87898496Y-110372419D02*
X87993734Y-110515276D01*
X87993734Y-110515276D02*
X88088972Y-110610514D01*
X88088972Y-110610514D02*
X88184210Y-110658133D01*
X87422306Y-111467657D02*
X86660401Y-111467657D01*
X86136591Y-110372419D02*
X86136591Y-111086704D01*
X86136591Y-111086704D02*
X86184210Y-111229561D01*
X86184210Y-111229561D02*
X86279448Y-111324800D01*
X86279448Y-111324800D02*
X86422305Y-111372419D01*
X86422305Y-111372419D02*
X86517543Y-111372419D01*
X85755638Y-110372419D02*
X85136591Y-110372419D01*
X85136591Y-110372419D02*
X85469924Y-110753371D01*
X85469924Y-110753371D02*
X85327067Y-110753371D01*
X85327067Y-110753371D02*
X85231829Y-110800990D01*
X85231829Y-110800990D02*
X85184210Y-110848609D01*
X85184210Y-110848609D02*
X85136591Y-110943847D01*
X85136591Y-110943847D02*
X85136591Y-111181942D01*
X85136591Y-111181942D02*
X85184210Y-111277180D01*
X85184210Y-111277180D02*
X85231829Y-111324800D01*
X85231829Y-111324800D02*
X85327067Y-111372419D01*
X85327067Y-111372419D02*
X85612781Y-111372419D01*
X85612781Y-111372419D02*
X85708019Y-111324800D01*
X85708019Y-111324800D02*
X85755638Y-111277180D01*
X114124687Y-107372419D02*
X114458020Y-106896228D01*
X114696115Y-107372419D02*
X114696115Y-106372419D01*
X114696115Y-106372419D02*
X114315163Y-106372419D01*
X114315163Y-106372419D02*
X114219925Y-106420038D01*
X114219925Y-106420038D02*
X114172306Y-106467657D01*
X114172306Y-106467657D02*
X114124687Y-106562895D01*
X114124687Y-106562895D02*
X114124687Y-106705752D01*
X114124687Y-106705752D02*
X114172306Y-106800990D01*
X114172306Y-106800990D02*
X114219925Y-106848609D01*
X114219925Y-106848609D02*
X114315163Y-106896228D01*
X114315163Y-106896228D02*
X114696115Y-106896228D01*
X113172306Y-107372419D02*
X113743734Y-107372419D01*
X113458020Y-107372419D02*
X113458020Y-106372419D01*
X113458020Y-106372419D02*
X113553258Y-106515276D01*
X113553258Y-106515276D02*
X113648496Y-106610514D01*
X113648496Y-106610514D02*
X113743734Y-106658133D01*
X112981830Y-107467657D02*
X112219925Y-107467657D01*
X111696115Y-106372419D02*
X111696115Y-107086704D01*
X111696115Y-107086704D02*
X111743734Y-107229561D01*
X111743734Y-107229561D02*
X111838972Y-107324800D01*
X111838972Y-107324800D02*
X111981829Y-107372419D01*
X111981829Y-107372419D02*
X112077067Y-107372419D01*
X111267543Y-106467657D02*
X111219924Y-106420038D01*
X111219924Y-106420038D02*
X111124686Y-106372419D01*
X111124686Y-106372419D02*
X110886591Y-106372419D01*
X110886591Y-106372419D02*
X110791353Y-106420038D01*
X110791353Y-106420038D02*
X110743734Y-106467657D01*
X110743734Y-106467657D02*
X110696115Y-106562895D01*
X110696115Y-106562895D02*
X110696115Y-106658133D01*
X110696115Y-106658133D02*
X110743734Y-106800990D01*
X110743734Y-106800990D02*
X111315162Y-107372419D01*
X111315162Y-107372419D02*
X110696115Y-107372419D01*
X88469925Y-107372419D02*
X88946115Y-107372419D01*
X88946115Y-107372419D02*
X88946115Y-106372419D01*
X87612782Y-107372419D02*
X88184210Y-107372419D01*
X87898496Y-107372419D02*
X87898496Y-106372419D01*
X87898496Y-106372419D02*
X87993734Y-106515276D01*
X87993734Y-106515276D02*
X88088972Y-106610514D01*
X88088972Y-106610514D02*
X88184210Y-106658133D01*
X87422306Y-107467657D02*
X86660401Y-107467657D01*
X86136591Y-106372419D02*
X86136591Y-107086704D01*
X86136591Y-107086704D02*
X86184210Y-107229561D01*
X86184210Y-107229561D02*
X86279448Y-107324800D01*
X86279448Y-107324800D02*
X86422305Y-107372419D01*
X86422305Y-107372419D02*
X86517543Y-107372419D01*
X85708019Y-106467657D02*
X85660400Y-106420038D01*
X85660400Y-106420038D02*
X85565162Y-106372419D01*
X85565162Y-106372419D02*
X85327067Y-106372419D01*
X85327067Y-106372419D02*
X85231829Y-106420038D01*
X85231829Y-106420038D02*
X85184210Y-106467657D01*
X85184210Y-106467657D02*
X85136591Y-106562895D01*
X85136591Y-106562895D02*
X85136591Y-106658133D01*
X85136591Y-106658133D02*
X85184210Y-106800990D01*
X85184210Y-106800990D02*
X85755638Y-107372419D01*
X85755638Y-107372419D02*
X85136591Y-107372419D01*
X114124687Y-111372419D02*
X114458020Y-110896228D01*
X114696115Y-111372419D02*
X114696115Y-110372419D01*
X114696115Y-110372419D02*
X114315163Y-110372419D01*
X114315163Y-110372419D02*
X114219925Y-110420038D01*
X114219925Y-110420038D02*
X114172306Y-110467657D01*
X114172306Y-110467657D02*
X114124687Y-110562895D01*
X114124687Y-110562895D02*
X114124687Y-110705752D01*
X114124687Y-110705752D02*
X114172306Y-110800990D01*
X114172306Y-110800990D02*
X114219925Y-110848609D01*
X114219925Y-110848609D02*
X114315163Y-110896228D01*
X114315163Y-110896228D02*
X114696115Y-110896228D01*
X113172306Y-111372419D02*
X113743734Y-111372419D01*
X113458020Y-111372419D02*
X113458020Y-110372419D01*
X113458020Y-110372419D02*
X113553258Y-110515276D01*
X113553258Y-110515276D02*
X113648496Y-110610514D01*
X113648496Y-110610514D02*
X113743734Y-110658133D01*
X112981830Y-111467657D02*
X112219925Y-111467657D01*
X111696115Y-110372419D02*
X111696115Y-111086704D01*
X111696115Y-111086704D02*
X111743734Y-111229561D01*
X111743734Y-111229561D02*
X111838972Y-111324800D01*
X111838972Y-111324800D02*
X111981829Y-111372419D01*
X111981829Y-111372419D02*
X112077067Y-111372419D01*
X111315162Y-110372419D02*
X110696115Y-110372419D01*
X110696115Y-110372419D02*
X111029448Y-110753371D01*
X111029448Y-110753371D02*
X110886591Y-110753371D01*
X110886591Y-110753371D02*
X110791353Y-110800990D01*
X110791353Y-110800990D02*
X110743734Y-110848609D01*
X110743734Y-110848609D02*
X110696115Y-110943847D01*
X110696115Y-110943847D02*
X110696115Y-111181942D01*
X110696115Y-111181942D02*
X110743734Y-111277180D01*
X110743734Y-111277180D02*
X110791353Y-111324800D01*
X110791353Y-111324800D02*
X110886591Y-111372419D01*
X110886591Y-111372419D02*
X111172305Y-111372419D01*
X111172305Y-111372419D02*
X111267543Y-111324800D01*
X111267543Y-111324800D02*
X111315162Y-111277180D01*
X88469925Y-121872419D02*
X88946115Y-121872419D01*
X88946115Y-121872419D02*
X88946115Y-120872419D01*
X88184210Y-120967657D02*
X88136591Y-120920038D01*
X88136591Y-120920038D02*
X88041353Y-120872419D01*
X88041353Y-120872419D02*
X87803258Y-120872419D01*
X87803258Y-120872419D02*
X87708020Y-120920038D01*
X87708020Y-120920038D02*
X87660401Y-120967657D01*
X87660401Y-120967657D02*
X87612782Y-121062895D01*
X87612782Y-121062895D02*
X87612782Y-121158133D01*
X87612782Y-121158133D02*
X87660401Y-121300990D01*
X87660401Y-121300990D02*
X88231829Y-121872419D01*
X88231829Y-121872419D02*
X87612782Y-121872419D01*
X87422306Y-121967657D02*
X86660401Y-121967657D01*
X86136591Y-120872419D02*
X86136591Y-121586704D01*
X86136591Y-121586704D02*
X86184210Y-121729561D01*
X86184210Y-121729561D02*
X86279448Y-121824800D01*
X86279448Y-121824800D02*
X86422305Y-121872419D01*
X86422305Y-121872419D02*
X86517543Y-121872419D01*
X85708019Y-120967657D02*
X85660400Y-120920038D01*
X85660400Y-120920038D02*
X85565162Y-120872419D01*
X85565162Y-120872419D02*
X85327067Y-120872419D01*
X85327067Y-120872419D02*
X85231829Y-120920038D01*
X85231829Y-120920038D02*
X85184210Y-120967657D01*
X85184210Y-120967657D02*
X85136591Y-121062895D01*
X85136591Y-121062895D02*
X85136591Y-121158133D01*
X85136591Y-121158133D02*
X85184210Y-121300990D01*
X85184210Y-121300990D02*
X85755638Y-121872419D01*
X85755638Y-121872419D02*
X85136591Y-121872419D01*
M02*
