%TF.GenerationSoftware,KiCad,Pcbnew,8.0.7*%
%TF.CreationDate,2025-01-04T20:58:12-05:00*%
%TF.ProjectId,hexapod,68657861-706f-4642-9e6b-696361645f70,rev?*%
%TF.SameCoordinates,Original*%
%TF.FileFunction,Copper,L2,Bot*%
%TF.FilePolarity,Positive*%
%FSLAX46Y46*%
G04 Gerber Fmt 4.6, Leading zero omitted, Abs format (unit mm)*
G04 Created by KiCad (PCBNEW 8.0.7) date 2025-01-04 20:58:12*
%MOMM*%
%LPD*%
G01*
G04 APERTURE LIST*
%TA.AperFunction,ComponentPad*%
%ADD10R,2.800000X2.800000*%
%TD*%
%TA.AperFunction,ComponentPad*%
%ADD11C,2.800000*%
%TD*%
%TA.AperFunction,ComponentPad*%
%ADD12O,1.700000X1.700000*%
%TD*%
%TA.AperFunction,ComponentPad*%
%ADD13R,1.700000X1.700000*%
%TD*%
%TA.AperFunction,ComponentPad*%
%ADD14C,1.700000*%
%TD*%
%TA.AperFunction,ComponentPad*%
%ADD15R,2.000000X2.000000*%
%TD*%
%TA.AperFunction,ComponentPad*%
%ADD16O,2.000000X2.000000*%
%TD*%
%TA.AperFunction,ViaPad*%
%ADD17C,3.500000*%
%TD*%
%TA.AperFunction,Conductor*%
%ADD18C,0.500000*%
%TD*%
G04 APERTURE END LIST*
D10*
%TO.P,J19,1,Pin_1*%
%TO.N,/power*%
X98000000Y-50750000D03*
D11*
%TO.P,J19,2,Pin_2*%
%TO.N,GND*%
X103000000Y-50750000D03*
%TD*%
D12*
%TO.P,U1,1,GPIO0*%
%TO.N,/l1_j1*%
X91110000Y-102870000D03*
%TO.P,U1,2,GPIO1*%
%TO.N,/l1_j2*%
X91110000Y-105410000D03*
D13*
%TO.P,U1,3,GND*%
%TO.N,GND*%
X91110000Y-107950000D03*
D12*
%TO.P,U1,4,GPIO2*%
%TO.N,/l1_j3*%
X91110000Y-110490000D03*
%TO.P,U1,5,GPIO3*%
%TO.N,unconnected-(U1-GPIO3-Pad5)*%
X91110000Y-113030000D03*
%TO.P,U1,6,GPIO4*%
%TO.N,unconnected-(U1-GPIO4-Pad6)*%
X91110000Y-115570000D03*
%TO.P,U1,7,GPIO5*%
%TO.N,/l2_j1*%
X91110000Y-118110000D03*
D13*
%TO.P,U1,8,GND*%
%TO.N,GND*%
X91110000Y-120650000D03*
D12*
%TO.P,U1,9,GPIO6*%
%TO.N,/l2_j2*%
X91110000Y-123190000D03*
%TO.P,U1,10,GPIO7*%
%TO.N,/l2_j3*%
X91110000Y-125730000D03*
%TO.P,U1,11,GPIO8*%
%TO.N,unconnected-(U1-GPIO8-Pad11)*%
X91110000Y-128270000D03*
%TO.P,U1,12,GPIO9*%
%TO.N,/l3_j1*%
X91110000Y-130810000D03*
D13*
%TO.P,U1,13,GND*%
%TO.N,GND*%
X91110000Y-133350000D03*
D12*
%TO.P,U1,14,GPIO10*%
%TO.N,unconnected-(U1-GPIO10-Pad14)*%
X91110000Y-135890000D03*
%TO.P,U1,15,GPIO11*%
%TO.N,unconnected-(U1-GPIO11-Pad15)*%
X91110000Y-138430000D03*
%TO.P,U1,16,GPIO12*%
%TO.N,/l3_j2*%
X91110000Y-140970000D03*
%TO.P,U1,17,GPIO13*%
%TO.N,/l3_j3*%
X91110000Y-143510000D03*
D13*
%TO.P,U1,18,GND*%
%TO.N,GND*%
X91110000Y-146050000D03*
D12*
%TO.P,U1,19,GPIO14*%
%TO.N,unconnected-(U1-GPIO14-Pad19)*%
X91110000Y-148590000D03*
%TO.P,U1,20,GPIO15*%
%TO.N,unconnected-(U1-GPIO15-Pad20)*%
X91110000Y-151130000D03*
%TO.P,U1,21,GPIO16*%
%TO.N,/r3_j3*%
X108890000Y-151130000D03*
%TO.P,U1,22,GPIO17*%
%TO.N,/r3_j2*%
X108890000Y-148590000D03*
D13*
%TO.P,U1,23,GND*%
%TO.N,GND*%
X108890000Y-146050000D03*
D12*
%TO.P,U1,24,GPIO18*%
%TO.N,/r3_j1*%
X108890000Y-143510000D03*
%TO.P,U1,25,GPIO19*%
%TO.N,/r2_j3*%
X108890000Y-140970000D03*
%TO.P,U1,26,GPIO20*%
%TO.N,/r2_j2*%
X108890000Y-138430000D03*
%TO.P,U1,27,GPIO21*%
%TO.N,/r2_j1*%
X108890000Y-135890000D03*
D13*
%TO.P,U1,28,GND*%
%TO.N,GND*%
X108890000Y-133350000D03*
D12*
%TO.P,U1,29,GPIO22*%
%TO.N,/r1_j3*%
X108890000Y-130810000D03*
%TO.P,U1,30,RUN*%
%TO.N,unconnected-(U1-RUN-Pad30)*%
X108890000Y-128270000D03*
%TO.P,U1,31,GPIO26_ADC0*%
%TO.N,/r1_j2*%
X108890000Y-125730000D03*
%TO.P,U1,32,GPIO27_ADC1*%
%TO.N,/r1_j1*%
X108890000Y-123190000D03*
D13*
%TO.P,U1,33,AGND*%
%TO.N,GND*%
X108890000Y-120650000D03*
D12*
%TO.P,U1,34,GPIO28_ADC2*%
%TO.N,unconnected-(U1-GPIO28_ADC2-Pad34)*%
X108890000Y-118110000D03*
%TO.P,U1,35,ADC_VREF*%
%TO.N,unconnected-(U1-ADC_VREF-Pad35)*%
X108890000Y-115570000D03*
%TO.P,U1,36,3V3*%
%TO.N,unconnected-(U1-3V3-Pad36)*%
X108890000Y-113030000D03*
%TO.P,U1,37,3V3_EN*%
%TO.N,unconnected-(U1-3V3_EN-Pad37)*%
X108890000Y-110490000D03*
D13*
%TO.P,U1,38,GND*%
%TO.N,GND*%
X108890000Y-107950000D03*
D12*
%TO.P,U1,39,VSYS*%
%TO.N,Net-(D1-K)*%
X108890000Y-105410000D03*
%TO.P,U1,40,VBUS*%
%TO.N,unconnected-(U1-VBUS-Pad40)*%
X108890000Y-102870000D03*
%TD*%
D13*
%TO.P,U5,1,+input*%
%TO.N,/power*%
X103250000Y-58210000D03*
X103250000Y-60750000D03*
D14*
%TO.P,U5,2,-input*%
%TO.N,GND*%
X120250000Y-58210000D03*
X120250000Y-60750000D03*
%TO.P,U5,3,+output*%
%TO.N,/power_r1*%
X103250000Y-95670000D03*
X103250000Y-98210000D03*
%TO.P,U5,4,-output*%
%TO.N,GND*%
X120250000Y-95670000D03*
X120250000Y-98210000D03*
%TD*%
D13*
%TO.P,U2,1,+input*%
%TO.N,/power*%
X79750000Y-58210000D03*
X79750000Y-60750000D03*
D14*
%TO.P,U2,2,-input*%
%TO.N,GND*%
X96750000Y-58210000D03*
X96750000Y-60750000D03*
%TO.P,U2,3,+output*%
%TO.N,/power_l1*%
X79750000Y-95670000D03*
X79750000Y-98210000D03*
%TO.P,U2,4,-output*%
%TO.N,GND*%
X96750000Y-95670000D03*
X96750000Y-98210000D03*
%TD*%
D13*
%TO.P,J16,1,Pin_1*%
%TO.N,/r3_j1*%
X116250000Y-132000000D03*
D12*
%TO.P,J16,2,Pin_2*%
%TO.N,/power_r1*%
X118790000Y-132000000D03*
%TO.P,J16,3,Pin_3*%
%TO.N,GND*%
X121330000Y-132000000D03*
%TD*%
D13*
%TO.P,J18,1,Pin_1*%
%TO.N,/r3_j3*%
X116250000Y-140000000D03*
D12*
%TO.P,J18,2,Pin_2*%
%TO.N,/power_r1*%
X118790000Y-140000000D03*
%TO.P,J18,3,Pin_3*%
%TO.N,GND*%
X121330000Y-140000000D03*
%TD*%
D15*
%TO.P,D1,1,K*%
%TO.N,Net-(D1-K)*%
X105080000Y-124750000D03*
D16*
%TO.P,D1,2,A*%
%TO.N,Net-(D1-A)*%
X94920000Y-124750000D03*
%TD*%
D13*
%TO.P,J10,1,Pin_1*%
%TO.N,/r1_j1*%
X116250000Y-103000000D03*
D12*
%TO.P,J10,2,Pin_2*%
%TO.N,/power_r1*%
X118790000Y-103000000D03*
%TO.P,J10,3,Pin_3*%
%TO.N,GND*%
X121330000Y-103000000D03*
%TD*%
D13*
%TO.P,J3,1,Pin_1*%
%TO.N,/l1_j3*%
X83750000Y-111000000D03*
D12*
%TO.P,J3,2,Pin_2*%
%TO.N,/power_l1*%
X81210000Y-111000000D03*
%TO.P,J3,3,Pin_3*%
%TO.N,GND*%
X78670000Y-111000000D03*
%TD*%
D13*
%TO.P,J13,1,Pin_1*%
%TO.N,/r2_j1*%
X116250000Y-117750000D03*
D12*
%TO.P,J13,2,Pin_2*%
%TO.N,/power_r1*%
X118790000Y-117750000D03*
%TO.P,J13,3,Pin_3*%
%TO.N,GND*%
X121330000Y-117750000D03*
%TD*%
%TO.P,J1,3,Pin_3*%
%TO.N,GND*%
X78670000Y-103000000D03*
%TO.P,J1,2,Pin_2*%
%TO.N,/power_l1*%
X81210000Y-103000000D03*
D13*
%TO.P,J1,1,Pin_1*%
%TO.N,/l1_j1*%
X83750000Y-103000000D03*
%TD*%
%TO.P,J11,1,Pin_1*%
%TO.N,/r1_j2*%
X116250000Y-107000000D03*
D12*
%TO.P,J11,2,Pin_2*%
%TO.N,/power_r1*%
X118790000Y-107000000D03*
%TO.P,J11,3,Pin_3*%
%TO.N,GND*%
X121330000Y-107000000D03*
%TD*%
%TO.P,J4,3,Pin_3*%
%TO.N,GND*%
X78670000Y-117500000D03*
%TO.P,J4,2,Pin_2*%
%TO.N,/power_l1*%
X81210000Y-117500000D03*
D13*
%TO.P,J4,1,Pin_1*%
%TO.N,/l2_j1*%
X83750000Y-117500000D03*
%TD*%
%TO.P,U8,1,+input*%
%TO.N,/power*%
X95400000Y-104300000D03*
X95400000Y-106840000D03*
D14*
%TO.P,U8,2,-input*%
%TO.N,GND*%
X104400000Y-104300000D03*
X104400000Y-106840000D03*
%TO.P,U8,3,+output*%
%TO.N,Net-(D1-A)*%
X95400000Y-117360000D03*
X95400000Y-119900000D03*
%TO.P,U8,4,-output*%
%TO.N,GND*%
X104400000Y-117360000D03*
X104400000Y-119900000D03*
%TD*%
D13*
%TO.P,J6,1,Pin_1*%
%TO.N,/l2_j3*%
X83750000Y-125500000D03*
D12*
%TO.P,J6,2,Pin_2*%
%TO.N,/power_l1*%
X81210000Y-125500000D03*
%TO.P,J6,3,Pin_3*%
%TO.N,GND*%
X78670000Y-125500000D03*
%TD*%
D13*
%TO.P,J9,1,Pin_1*%
%TO.N,/l3_j3*%
X83750000Y-140000000D03*
D12*
%TO.P,J9,2,Pin_2*%
%TO.N,/power_l1*%
X81210000Y-140000000D03*
%TO.P,J9,3,Pin_3*%
%TO.N,GND*%
X78670000Y-140000000D03*
%TD*%
D13*
%TO.P,J8,1,Pin_1*%
%TO.N,/l3_j2*%
X83750000Y-136000000D03*
D12*
%TO.P,J8,2,Pin_2*%
%TO.N,/power_l1*%
X81210000Y-136000000D03*
%TO.P,J8,3,Pin_3*%
%TO.N,GND*%
X78670000Y-136000000D03*
%TD*%
D13*
%TO.P,J2,1,Pin_1*%
%TO.N,/l1_j2*%
X83750000Y-107000000D03*
D12*
%TO.P,J2,2,Pin_2*%
%TO.N,/power_l1*%
X81210000Y-107000000D03*
%TO.P,J2,3,Pin_3*%
%TO.N,GND*%
X78670000Y-107000000D03*
%TD*%
D13*
%TO.P,J5,1,Pin_1*%
%TO.N,/l2_j2*%
X83750000Y-121500000D03*
D12*
%TO.P,J5,2,Pin_2*%
%TO.N,/power_l1*%
X81210000Y-121500000D03*
%TO.P,J5,3,Pin_3*%
%TO.N,GND*%
X78670000Y-121500000D03*
%TD*%
D13*
%TO.P,J12,1,Pin_1*%
%TO.N,/r1_j3*%
X116250000Y-111000000D03*
D12*
%TO.P,J12,2,Pin_2*%
%TO.N,/power_r1*%
X118790000Y-111000000D03*
%TO.P,J12,3,Pin_3*%
%TO.N,GND*%
X121330000Y-111000000D03*
%TD*%
D13*
%TO.P,J15,1,Pin_1*%
%TO.N,/r2_j3*%
X116250000Y-125750000D03*
D12*
%TO.P,J15,2,Pin_2*%
%TO.N,/power_r1*%
X118790000Y-125750000D03*
%TO.P,J15,3,Pin_3*%
%TO.N,GND*%
X121330000Y-125750000D03*
%TD*%
D13*
%TO.P,J7,1,Pin_1*%
%TO.N,/l3_j1*%
X83750000Y-132000000D03*
D12*
%TO.P,J7,2,Pin_2*%
%TO.N,/power_l1*%
X81210000Y-132000000D03*
%TO.P,J7,3,Pin_3*%
%TO.N,GND*%
X78670000Y-132000000D03*
%TD*%
D13*
%TO.P,J17,1,Pin_1*%
%TO.N,/r3_j2*%
X116250000Y-136000000D03*
D12*
%TO.P,J17,2,Pin_2*%
%TO.N,/power_r1*%
X118790000Y-136000000D03*
%TO.P,J17,3,Pin_3*%
%TO.N,GND*%
X121330000Y-136000000D03*
%TD*%
D13*
%TO.P,J14,1,Pin_1*%
%TO.N,/r2_j2*%
X116250000Y-121750000D03*
D12*
%TO.P,J14,2,Pin_2*%
%TO.N,/power_r1*%
X118790000Y-121750000D03*
%TO.P,J14,3,Pin_3*%
%TO.N,GND*%
X121330000Y-121750000D03*
%TD*%
D17*
%TO.N,GND*%
X115500000Y-150500000D03*
X84500000Y-49500000D03*
X115500000Y-49500000D03*
X84500000Y-150500000D03*
%TD*%
D18*
%TO.N,/r3_j2*%
X114250000Y-138000000D02*
X116250000Y-136000000D01*
X114250000Y-143230000D02*
X114250000Y-138000000D01*
X108890000Y-148590000D02*
X114250000Y-143230000D01*
%TO.N,/r3_j1*%
X113000000Y-135250000D02*
X116250000Y-132000000D01*
X113000000Y-139400000D02*
X113000000Y-135250000D01*
X108890000Y-143510000D02*
X113000000Y-139400000D01*
%TO.N,/r1_j2*%
X112250000Y-111000000D02*
X116250000Y-107000000D01*
X112250000Y-122370000D02*
X112250000Y-111000000D01*
X108890000Y-125730000D02*
X112250000Y-122370000D01*
%TO.N,/r1_j3*%
X113250000Y-126450000D02*
X113250000Y-114000000D01*
X108890000Y-130810000D02*
X113250000Y-126450000D01*
X113250000Y-114000000D02*
X116250000Y-111000000D01*
%TO.N,/r2_j1*%
X114250000Y-119750000D02*
X116250000Y-117750000D01*
X114250000Y-130530000D02*
X114250000Y-119750000D01*
X108890000Y-135890000D02*
X114250000Y-130530000D01*
%TD*%
%TA.AperFunction,Conductor*%
%TO.N,GND*%
G36*
X121003736Y-45500726D02*
G01*
X121293796Y-45518271D01*
X121308659Y-45520076D01*
X121590798Y-45571780D01*
X121605335Y-45575363D01*
X121879172Y-45660695D01*
X121893163Y-45666000D01*
X122154743Y-45783727D01*
X122167989Y-45790680D01*
X122413465Y-45939075D01*
X122425776Y-45947573D01*
X122651573Y-46124473D01*
X122662781Y-46134403D01*
X122865596Y-46337218D01*
X122875526Y-46348426D01*
X122995481Y-46501538D01*
X123052422Y-46574217D01*
X123060928Y-46586540D01*
X123209316Y-46832004D01*
X123216275Y-46845263D01*
X123333997Y-47106831D01*
X123339306Y-47120832D01*
X123424635Y-47394663D01*
X123428219Y-47409201D01*
X123479923Y-47691340D01*
X123481728Y-47706205D01*
X123499274Y-47996263D01*
X123499500Y-48003750D01*
X123499500Y-151996249D01*
X123499274Y-152003736D01*
X123481728Y-152293794D01*
X123479923Y-152308659D01*
X123428219Y-152590798D01*
X123424635Y-152605336D01*
X123339306Y-152879167D01*
X123333997Y-152893168D01*
X123216275Y-153154736D01*
X123209316Y-153167995D01*
X123060928Y-153413459D01*
X123052422Y-153425782D01*
X122875526Y-153651573D01*
X122865596Y-153662781D01*
X122662781Y-153865596D01*
X122651573Y-153875526D01*
X122425782Y-154052422D01*
X122413459Y-154060928D01*
X122167995Y-154209316D01*
X122154736Y-154216275D01*
X121893168Y-154333997D01*
X121879167Y-154339306D01*
X121605336Y-154424635D01*
X121590798Y-154428219D01*
X121308659Y-154479923D01*
X121293794Y-154481728D01*
X121003736Y-154499274D01*
X120996249Y-154499500D01*
X79003751Y-154499500D01*
X78996264Y-154499274D01*
X78706205Y-154481728D01*
X78691340Y-154479923D01*
X78409201Y-154428219D01*
X78394663Y-154424635D01*
X78120832Y-154339306D01*
X78106831Y-154333997D01*
X77845263Y-154216275D01*
X77832004Y-154209316D01*
X77586540Y-154060928D01*
X77574217Y-154052422D01*
X77348426Y-153875526D01*
X77337218Y-153865596D01*
X77134403Y-153662781D01*
X77124473Y-153651573D01*
X76947573Y-153425776D01*
X76939075Y-153413465D01*
X76790680Y-153167989D01*
X76783727Y-153154743D01*
X76666000Y-152893163D01*
X76660693Y-152879167D01*
X76575364Y-152605336D01*
X76571780Y-152590798D01*
X76520076Y-152308659D01*
X76518271Y-152293794D01*
X76500726Y-152003736D01*
X76500500Y-151996249D01*
X76500500Y-148589999D01*
X89754341Y-148589999D01*
X89754341Y-148590000D01*
X89774936Y-148825403D01*
X89774938Y-148825413D01*
X89836094Y-149053655D01*
X89836096Y-149053659D01*
X89836097Y-149053663D01*
X89935965Y-149267830D01*
X89935967Y-149267834D01*
X90071501Y-149461395D01*
X90071506Y-149461402D01*
X90238597Y-149628493D01*
X90238603Y-149628498D01*
X90424158Y-149758425D01*
X90467783Y-149813002D01*
X90474977Y-149882500D01*
X90443454Y-149944855D01*
X90424158Y-149961575D01*
X90238597Y-150091505D01*
X90071505Y-150258597D01*
X89935965Y-150452169D01*
X89935964Y-150452171D01*
X89836098Y-150666335D01*
X89836094Y-150666344D01*
X89774938Y-150894586D01*
X89774936Y-150894596D01*
X89754341Y-151129999D01*
X89754341Y-151130000D01*
X89774936Y-151365403D01*
X89774938Y-151365413D01*
X89836094Y-151593655D01*
X89836096Y-151593659D01*
X89836097Y-151593663D01*
X89935965Y-151807830D01*
X89935967Y-151807834D01*
X90024386Y-151934108D01*
X90071505Y-152001401D01*
X90238599Y-152168495D01*
X90335384Y-152236265D01*
X90432165Y-152304032D01*
X90432167Y-152304033D01*
X90432170Y-152304035D01*
X90646337Y-152403903D01*
X90874592Y-152465063D01*
X91062918Y-152481539D01*
X91109999Y-152485659D01*
X91110000Y-152485659D01*
X91110001Y-152485659D01*
X91149234Y-152482226D01*
X91345408Y-152465063D01*
X91573663Y-152403903D01*
X91787830Y-152304035D01*
X91981401Y-152168495D01*
X92148495Y-152001401D01*
X92284035Y-151807830D01*
X92383903Y-151593663D01*
X92445063Y-151365408D01*
X92465659Y-151130000D01*
X92445063Y-150894592D01*
X92383903Y-150666337D01*
X92284035Y-150452171D01*
X92148495Y-150258599D01*
X92148494Y-150258597D01*
X91981402Y-150091506D01*
X91981396Y-150091501D01*
X91795842Y-149961575D01*
X91752217Y-149906998D01*
X91745023Y-149837500D01*
X91776546Y-149775145D01*
X91795842Y-149758425D01*
X91818026Y-149742891D01*
X91981401Y-149628495D01*
X92148495Y-149461401D01*
X92284035Y-149267830D01*
X92383903Y-149053663D01*
X92445063Y-148825408D01*
X92465659Y-148590000D01*
X92445063Y-148354592D01*
X92383903Y-148126337D01*
X92284035Y-147912171D01*
X92148495Y-147718599D01*
X92148494Y-147718597D01*
X91981402Y-147551506D01*
X91981395Y-147551501D01*
X91787834Y-147415967D01*
X91787830Y-147415965D01*
X91787828Y-147415964D01*
X91573663Y-147316097D01*
X91573659Y-147316096D01*
X91573655Y-147316094D01*
X91345413Y-147254938D01*
X91345403Y-147254936D01*
X91110001Y-147234341D01*
X91109999Y-147234341D01*
X90874596Y-147254936D01*
X90874586Y-147254938D01*
X90646344Y-147316094D01*
X90646335Y-147316098D01*
X90432171Y-147415964D01*
X90432169Y-147415965D01*
X90238597Y-147551505D01*
X90071505Y-147718597D01*
X89935965Y-147912169D01*
X89935964Y-147912171D01*
X89836098Y-148126335D01*
X89836094Y-148126344D01*
X89774938Y-148354586D01*
X89774936Y-148354596D01*
X89754341Y-148589999D01*
X76500500Y-148589999D01*
X76500500Y-139999999D01*
X79854341Y-139999999D01*
X79854341Y-140000000D01*
X79874936Y-140235403D01*
X79874938Y-140235413D01*
X79936094Y-140463655D01*
X79936096Y-140463659D01*
X79936097Y-140463663D01*
X79956000Y-140506344D01*
X80035965Y-140677830D01*
X80035967Y-140677834D01*
X80134234Y-140818172D01*
X80171505Y-140871401D01*
X80338599Y-141038495D01*
X80433239Y-141104763D01*
X80532165Y-141174032D01*
X80532167Y-141174033D01*
X80532170Y-141174035D01*
X80746337Y-141273903D01*
X80974592Y-141335063D01*
X81151034Y-141350500D01*
X81209999Y-141355659D01*
X81210000Y-141355659D01*
X81210001Y-141355659D01*
X81268966Y-141350500D01*
X81445408Y-141335063D01*
X81673663Y-141273903D01*
X81887830Y-141174035D01*
X82081401Y-141038495D01*
X82203329Y-140916566D01*
X82264648Y-140883084D01*
X82334340Y-140888068D01*
X82390274Y-140929939D01*
X82407189Y-140960917D01*
X82456202Y-141092328D01*
X82456206Y-141092335D01*
X82542452Y-141207544D01*
X82542455Y-141207547D01*
X82657664Y-141293793D01*
X82657671Y-141293797D01*
X82792517Y-141344091D01*
X82792516Y-141344091D01*
X82799444Y-141344835D01*
X82852127Y-141350500D01*
X84647872Y-141350499D01*
X84707483Y-141344091D01*
X84842331Y-141293796D01*
X84957546Y-141207546D01*
X85043796Y-141092331D01*
X85094091Y-140957483D01*
X85100500Y-140897873D01*
X85100499Y-139102128D01*
X85094091Y-139042517D01*
X85092810Y-139039083D01*
X85043797Y-138907671D01*
X85043793Y-138907664D01*
X84957547Y-138792455D01*
X84957544Y-138792452D01*
X84842335Y-138706206D01*
X84842328Y-138706202D01*
X84707482Y-138655908D01*
X84707483Y-138655908D01*
X84647883Y-138649501D01*
X84647881Y-138649500D01*
X84647873Y-138649500D01*
X84647864Y-138649500D01*
X82852129Y-138649500D01*
X82852123Y-138649501D01*
X82792516Y-138655908D01*
X82657671Y-138706202D01*
X82657664Y-138706206D01*
X82542455Y-138792452D01*
X82542452Y-138792455D01*
X82456206Y-138907664D01*
X82456203Y-138907669D01*
X82407189Y-139039083D01*
X82365317Y-139095016D01*
X82299853Y-139119433D01*
X82231580Y-139104581D01*
X82203326Y-139083430D01*
X82081402Y-138961506D01*
X82081395Y-138961501D01*
X81887834Y-138825967D01*
X81887830Y-138825965D01*
X81887828Y-138825964D01*
X81673663Y-138726097D01*
X81673659Y-138726096D01*
X81673655Y-138726094D01*
X81445413Y-138664938D01*
X81445403Y-138664936D01*
X81210001Y-138644341D01*
X81209999Y-138644341D01*
X80974596Y-138664936D01*
X80974586Y-138664938D01*
X80746344Y-138726094D01*
X80746335Y-138726098D01*
X80532171Y-138825964D01*
X80532169Y-138825965D01*
X80338597Y-138961505D01*
X80171505Y-139128597D01*
X80035965Y-139322169D01*
X80035964Y-139322171D01*
X79936098Y-139536335D01*
X79936094Y-139536344D01*
X79874938Y-139764586D01*
X79874936Y-139764596D01*
X79854341Y-139999999D01*
X76500500Y-139999999D01*
X76500500Y-135999999D01*
X79854341Y-135999999D01*
X79854341Y-136000000D01*
X79874936Y-136235403D01*
X79874938Y-136235413D01*
X79936094Y-136463655D01*
X79936096Y-136463659D01*
X79936097Y-136463663D01*
X79984671Y-136567830D01*
X80035965Y-136677830D01*
X80035967Y-136677834D01*
X80144281Y-136832521D01*
X80171505Y-136871401D01*
X80338599Y-137038495D01*
X80435384Y-137106265D01*
X80532165Y-137174032D01*
X80532167Y-137174033D01*
X80532170Y-137174035D01*
X80746337Y-137273903D01*
X80974592Y-137335063D01*
X81151034Y-137350500D01*
X81209999Y-137355659D01*
X81210000Y-137355659D01*
X81210001Y-137355659D01*
X81268966Y-137350500D01*
X81445408Y-137335063D01*
X81673663Y-137273903D01*
X81887830Y-137174035D01*
X82081401Y-137038495D01*
X82203329Y-136916566D01*
X82264648Y-136883084D01*
X82334340Y-136888068D01*
X82390274Y-136929939D01*
X82407189Y-136960917D01*
X82456202Y-137092328D01*
X82456206Y-137092335D01*
X82542452Y-137207544D01*
X82542455Y-137207547D01*
X82657664Y-137293793D01*
X82657671Y-137293797D01*
X82792517Y-137344091D01*
X82792516Y-137344091D01*
X82799444Y-137344835D01*
X82852127Y-137350500D01*
X84647872Y-137350499D01*
X84707483Y-137344091D01*
X84842331Y-137293796D01*
X84957546Y-137207546D01*
X85043796Y-137092331D01*
X85094091Y-136957483D01*
X85100500Y-136897873D01*
X85100499Y-135889999D01*
X89754341Y-135889999D01*
X89754341Y-135890000D01*
X89774936Y-136125403D01*
X89774938Y-136125413D01*
X89836094Y-136353655D01*
X89836096Y-136353659D01*
X89836097Y-136353663D01*
X89935965Y-136567830D01*
X89935967Y-136567834D01*
X90071501Y-136761395D01*
X90071506Y-136761402D01*
X90238597Y-136928493D01*
X90238603Y-136928498D01*
X90424158Y-137058425D01*
X90467783Y-137113002D01*
X90474977Y-137182500D01*
X90443454Y-137244855D01*
X90424158Y-137261575D01*
X90238597Y-137391505D01*
X90071505Y-137558597D01*
X89935965Y-137752169D01*
X89935964Y-137752171D01*
X89836098Y-137966335D01*
X89836094Y-137966344D01*
X89774938Y-138194586D01*
X89774936Y-138194596D01*
X89754341Y-138429999D01*
X89754341Y-138430000D01*
X89774936Y-138665403D01*
X89774938Y-138665413D01*
X89836094Y-138893655D01*
X89836096Y-138893659D01*
X89836097Y-138893663D01*
X89905509Y-139042517D01*
X89935965Y-139107830D01*
X89935967Y-139107834D01*
X90071501Y-139301395D01*
X90071506Y-139301402D01*
X90238597Y-139468493D01*
X90238603Y-139468498D01*
X90424158Y-139598425D01*
X90467783Y-139653002D01*
X90474977Y-139722500D01*
X90443454Y-139784855D01*
X90424158Y-139801575D01*
X90238597Y-139931505D01*
X90071505Y-140098597D01*
X89935965Y-140292169D01*
X89935964Y-140292171D01*
X89836098Y-140506335D01*
X89836094Y-140506344D01*
X89774938Y-140734586D01*
X89774936Y-140734596D01*
X89754341Y-140969999D01*
X89754341Y-140970000D01*
X89774936Y-141205403D01*
X89774938Y-141205413D01*
X89836094Y-141433655D01*
X89836096Y-141433659D01*
X89836097Y-141433663D01*
X89935965Y-141647830D01*
X89935967Y-141647834D01*
X90071501Y-141841395D01*
X90071506Y-141841402D01*
X90238597Y-142008493D01*
X90238603Y-142008498D01*
X90424158Y-142138425D01*
X90467783Y-142193002D01*
X90474977Y-142262500D01*
X90443454Y-142324855D01*
X90424158Y-142341575D01*
X90238597Y-142471505D01*
X90071505Y-142638597D01*
X89935965Y-142832169D01*
X89935964Y-142832171D01*
X89836098Y-143046335D01*
X89836094Y-143046344D01*
X89774938Y-143274586D01*
X89774936Y-143274596D01*
X89754341Y-143509999D01*
X89754341Y-143510000D01*
X89774936Y-143745403D01*
X89774938Y-143745413D01*
X89836094Y-143973655D01*
X89836096Y-143973659D01*
X89836097Y-143973663D01*
X89935965Y-144187830D01*
X89935967Y-144187834D01*
X90044281Y-144342521D01*
X90071505Y-144381401D01*
X90238599Y-144548495D01*
X90335384Y-144616265D01*
X90432165Y-144684032D01*
X90432167Y-144684033D01*
X90432170Y-144684035D01*
X90646337Y-144783903D01*
X90874592Y-144845063D01*
X91062918Y-144861539D01*
X91109999Y-144865659D01*
X91110000Y-144865659D01*
X91110001Y-144865659D01*
X91149234Y-144862226D01*
X91345408Y-144845063D01*
X91573663Y-144783903D01*
X91787830Y-144684035D01*
X91981401Y-144548495D01*
X92148495Y-144381401D01*
X92284035Y-144187830D01*
X92383903Y-143973663D01*
X92445063Y-143745408D01*
X92465659Y-143510000D01*
X92445063Y-143274592D01*
X92383903Y-143046337D01*
X92284035Y-142832171D01*
X92148495Y-142638599D01*
X92148494Y-142638597D01*
X91981402Y-142471506D01*
X91981396Y-142471501D01*
X91795842Y-142341575D01*
X91752217Y-142286998D01*
X91745023Y-142217500D01*
X91776546Y-142155145D01*
X91795842Y-142138425D01*
X91818026Y-142122891D01*
X91981401Y-142008495D01*
X92148495Y-141841401D01*
X92284035Y-141647830D01*
X92383903Y-141433663D01*
X92445063Y-141205408D01*
X92465659Y-140970000D01*
X92445063Y-140734592D01*
X92383903Y-140506337D01*
X92284035Y-140292171D01*
X92262370Y-140261229D01*
X92148494Y-140098597D01*
X91981402Y-139931506D01*
X91981396Y-139931501D01*
X91795842Y-139801575D01*
X91752217Y-139746998D01*
X91745023Y-139677500D01*
X91776546Y-139615145D01*
X91795842Y-139598425D01*
X91818026Y-139582891D01*
X91981401Y-139468495D01*
X92148495Y-139301401D01*
X92284035Y-139107830D01*
X92383903Y-138893663D01*
X92445063Y-138665408D01*
X92465659Y-138430000D01*
X92445063Y-138194592D01*
X92383903Y-137966337D01*
X92284035Y-137752171D01*
X92148495Y-137558599D01*
X92148494Y-137558597D01*
X91981402Y-137391506D01*
X91981396Y-137391501D01*
X91795842Y-137261575D01*
X91752217Y-137206998D01*
X91745023Y-137137500D01*
X91776546Y-137075145D01*
X91795842Y-137058425D01*
X91824308Y-137038493D01*
X91981401Y-136928495D01*
X92148495Y-136761401D01*
X92284035Y-136567830D01*
X92383903Y-136353663D01*
X92445063Y-136125408D01*
X92465659Y-135890000D01*
X92445063Y-135654592D01*
X92383903Y-135426337D01*
X92284035Y-135212171D01*
X92258766Y-135176082D01*
X92148494Y-135018597D01*
X91981402Y-134851506D01*
X91981395Y-134851501D01*
X91787834Y-134715967D01*
X91787830Y-134715965D01*
X91766902Y-134706206D01*
X91573663Y-134616097D01*
X91573659Y-134616096D01*
X91573655Y-134616094D01*
X91345413Y-134554938D01*
X91345403Y-134554936D01*
X91110001Y-134534341D01*
X91109999Y-134534341D01*
X90874596Y-134554936D01*
X90874586Y-134554938D01*
X90646344Y-134616094D01*
X90646335Y-134616098D01*
X90432171Y-134715964D01*
X90432169Y-134715965D01*
X90238597Y-134851505D01*
X90071505Y-135018597D01*
X89935965Y-135212169D01*
X89935964Y-135212171D01*
X89836098Y-135426335D01*
X89836094Y-135426344D01*
X89774938Y-135654586D01*
X89774936Y-135654596D01*
X89754341Y-135889999D01*
X85100499Y-135889999D01*
X85100499Y-135102128D01*
X85094091Y-135042517D01*
X85092810Y-135039083D01*
X85043797Y-134907671D01*
X85043793Y-134907664D01*
X84957547Y-134792455D01*
X84957544Y-134792452D01*
X84842335Y-134706206D01*
X84842328Y-134706202D01*
X84707482Y-134655908D01*
X84707483Y-134655908D01*
X84647883Y-134649501D01*
X84647881Y-134649500D01*
X84647873Y-134649500D01*
X84647864Y-134649500D01*
X82852129Y-134649500D01*
X82852123Y-134649501D01*
X82792516Y-134655908D01*
X82657671Y-134706202D01*
X82657664Y-134706206D01*
X82542455Y-134792452D01*
X82542452Y-134792455D01*
X82456206Y-134907664D01*
X82456203Y-134907669D01*
X82407189Y-135039083D01*
X82365317Y-135095016D01*
X82299853Y-135119433D01*
X82231580Y-135104581D01*
X82203326Y-135083430D01*
X82081402Y-134961506D01*
X82081395Y-134961501D01*
X81887832Y-134825966D01*
X81887828Y-134825964D01*
X81673663Y-134726097D01*
X81673659Y-134726096D01*
X81673655Y-134726094D01*
X81445413Y-134664938D01*
X81445403Y-134664936D01*
X81210001Y-134644341D01*
X81209999Y-134644341D01*
X80974596Y-134664936D01*
X80974586Y-134664938D01*
X80746344Y-134726094D01*
X80746335Y-134726098D01*
X80532171Y-134825964D01*
X80532169Y-134825965D01*
X80338597Y-134961505D01*
X80171505Y-135128597D01*
X80035965Y-135322169D01*
X80035964Y-135322171D01*
X79936098Y-135536335D01*
X79936094Y-135536344D01*
X79874938Y-135764586D01*
X79874936Y-135764596D01*
X79854341Y-135999999D01*
X76500500Y-135999999D01*
X76500500Y-131999999D01*
X79854341Y-131999999D01*
X79854341Y-132000000D01*
X79874936Y-132235403D01*
X79874938Y-132235413D01*
X79936094Y-132463655D01*
X79936096Y-132463659D01*
X79936097Y-132463663D01*
X80020499Y-132644663D01*
X80035965Y-132677830D01*
X80035967Y-132677834D01*
X80144281Y-132832521D01*
X80171505Y-132871401D01*
X80338599Y-133038495D01*
X80435384Y-133106265D01*
X80532165Y-133174032D01*
X80532167Y-133174033D01*
X80532170Y-133174035D01*
X80746337Y-133273903D01*
X80974592Y-133335063D01*
X81151034Y-133350500D01*
X81209999Y-133355659D01*
X81210000Y-133355659D01*
X81210001Y-133355659D01*
X81268966Y-133350500D01*
X81445408Y-133335063D01*
X81673663Y-133273903D01*
X81887830Y-133174035D01*
X82081401Y-133038495D01*
X82203329Y-132916566D01*
X82264648Y-132883084D01*
X82334340Y-132888068D01*
X82390274Y-132929939D01*
X82407189Y-132960917D01*
X82456202Y-133092328D01*
X82456206Y-133092335D01*
X82542452Y-133207544D01*
X82542455Y-133207547D01*
X82657664Y-133293793D01*
X82657671Y-133293797D01*
X82792517Y-133344091D01*
X82792516Y-133344091D01*
X82799444Y-133344835D01*
X82852127Y-133350500D01*
X84647872Y-133350499D01*
X84707483Y-133344091D01*
X84842331Y-133293796D01*
X84957546Y-133207546D01*
X85043796Y-133092331D01*
X85094091Y-132957483D01*
X85100500Y-132897873D01*
X85100499Y-131102128D01*
X85094091Y-131042517D01*
X85092810Y-131039083D01*
X85043797Y-130907671D01*
X85043793Y-130907664D01*
X84957547Y-130792455D01*
X84957544Y-130792452D01*
X84842335Y-130706206D01*
X84842328Y-130706202D01*
X84707482Y-130655908D01*
X84707483Y-130655908D01*
X84647883Y-130649501D01*
X84647881Y-130649500D01*
X84647873Y-130649500D01*
X84647864Y-130649500D01*
X82852129Y-130649500D01*
X82852123Y-130649501D01*
X82792516Y-130655908D01*
X82657671Y-130706202D01*
X82657664Y-130706206D01*
X82542455Y-130792452D01*
X82542452Y-130792455D01*
X82456206Y-130907664D01*
X82456203Y-130907669D01*
X82407189Y-131039083D01*
X82365317Y-131095016D01*
X82299853Y-131119433D01*
X82231580Y-131104581D01*
X82203326Y-131083430D01*
X82081402Y-130961506D01*
X82081395Y-130961501D01*
X81887834Y-130825967D01*
X81887830Y-130825965D01*
X81853591Y-130809999D01*
X81673663Y-130726097D01*
X81673659Y-130726096D01*
X81673655Y-130726094D01*
X81445413Y-130664938D01*
X81445403Y-130664936D01*
X81210001Y-130644341D01*
X81209999Y-130644341D01*
X80974596Y-130664936D01*
X80974586Y-130664938D01*
X80746344Y-130726094D01*
X80746335Y-130726098D01*
X80532171Y-130825964D01*
X80532169Y-130825965D01*
X80338597Y-130961505D01*
X80171505Y-131128597D01*
X80035965Y-131322169D01*
X80035964Y-131322171D01*
X79936098Y-131536335D01*
X79936094Y-131536344D01*
X79874938Y-131764586D01*
X79874936Y-131764596D01*
X79854341Y-131999999D01*
X76500500Y-131999999D01*
X76500500Y-125499999D01*
X79854341Y-125499999D01*
X79854341Y-125500000D01*
X79874936Y-125735403D01*
X79874938Y-125735413D01*
X79936094Y-125963655D01*
X79936096Y-125963659D01*
X79936097Y-125963663D01*
X80013115Y-126128828D01*
X80035965Y-126177830D01*
X80035967Y-126177834D01*
X80086848Y-126250499D01*
X80171505Y-126371401D01*
X80338599Y-126538495D01*
X80428429Y-126601395D01*
X80532165Y-126674032D01*
X80532167Y-126674033D01*
X80532170Y-126674035D01*
X80746337Y-126773903D01*
X80974592Y-126835063D01*
X81151034Y-126850500D01*
X81209999Y-126855659D01*
X81210000Y-126855659D01*
X81210001Y-126855659D01*
X81268966Y-126850500D01*
X81445408Y-126835063D01*
X81673663Y-126773903D01*
X81887830Y-126674035D01*
X82081401Y-126538495D01*
X82203329Y-126416566D01*
X82264648Y-126383084D01*
X82334340Y-126388068D01*
X82390274Y-126429939D01*
X82407189Y-126460917D01*
X82456202Y-126592328D01*
X82456206Y-126592335D01*
X82542452Y-126707544D01*
X82542455Y-126707547D01*
X82657664Y-126793793D01*
X82657671Y-126793797D01*
X82792517Y-126844091D01*
X82792516Y-126844091D01*
X82799444Y-126844835D01*
X82852127Y-126850500D01*
X84647872Y-126850499D01*
X84707483Y-126844091D01*
X84842331Y-126793796D01*
X84957546Y-126707546D01*
X85043796Y-126592331D01*
X85094091Y-126457483D01*
X85100500Y-126397873D01*
X85100499Y-124602128D01*
X85094091Y-124542517D01*
X85092810Y-124539083D01*
X85043797Y-124407671D01*
X85043793Y-124407664D01*
X84957547Y-124292455D01*
X84957544Y-124292452D01*
X84842335Y-124206206D01*
X84842328Y-124206202D01*
X84707482Y-124155908D01*
X84707483Y-124155908D01*
X84647883Y-124149501D01*
X84647881Y-124149500D01*
X84647873Y-124149500D01*
X84647864Y-124149500D01*
X82852129Y-124149500D01*
X82852123Y-124149501D01*
X82792516Y-124155908D01*
X82657671Y-124206202D01*
X82657664Y-124206206D01*
X82542455Y-124292452D01*
X82542452Y-124292455D01*
X82456206Y-124407664D01*
X82456203Y-124407669D01*
X82407189Y-124539083D01*
X82365317Y-124595016D01*
X82299853Y-124619433D01*
X82231580Y-124604581D01*
X82203326Y-124583430D01*
X82081402Y-124461506D01*
X82081395Y-124461501D01*
X82079251Y-124460000D01*
X82027710Y-124423910D01*
X81887834Y-124325967D01*
X81887830Y-124325965D01*
X81887828Y-124325964D01*
X81673663Y-124226097D01*
X81673659Y-124226096D01*
X81673655Y-124226094D01*
X81445413Y-124164938D01*
X81445403Y-124164936D01*
X81210001Y-124144341D01*
X81209999Y-124144341D01*
X80974596Y-124164936D01*
X80974586Y-124164938D01*
X80746344Y-124226094D01*
X80746335Y-124226098D01*
X80532171Y-124325964D01*
X80532169Y-124325965D01*
X80338597Y-124461505D01*
X80171505Y-124628597D01*
X80035965Y-124822169D01*
X80035964Y-124822171D01*
X79936098Y-125036335D01*
X79936094Y-125036344D01*
X79874938Y-125264586D01*
X79874936Y-125264596D01*
X79854341Y-125499999D01*
X76500500Y-125499999D01*
X76500500Y-123189999D01*
X89754341Y-123189999D01*
X89754341Y-123190000D01*
X89774936Y-123425403D01*
X89774938Y-123425413D01*
X89836094Y-123653655D01*
X89836096Y-123653659D01*
X89836097Y-123653663D01*
X89858700Y-123702135D01*
X89935965Y-123867830D01*
X89935967Y-123867834D01*
X90071501Y-124061395D01*
X90071506Y-124061402D01*
X90238597Y-124228493D01*
X90238603Y-124228498D01*
X90424158Y-124358425D01*
X90467783Y-124413002D01*
X90474977Y-124482500D01*
X90443454Y-124544855D01*
X90424158Y-124561575D01*
X90238597Y-124691505D01*
X90071505Y-124858597D01*
X89935965Y-125052169D01*
X89935964Y-125052171D01*
X89836098Y-125266335D01*
X89836094Y-125266344D01*
X89774938Y-125494586D01*
X89774936Y-125494596D01*
X89754341Y-125729999D01*
X89754341Y-125730000D01*
X89774936Y-125965403D01*
X89774938Y-125965413D01*
X89836094Y-126193655D01*
X89836096Y-126193659D01*
X89836097Y-126193663D01*
X89931322Y-126397873D01*
X89935964Y-126407827D01*
X89935967Y-126407834D01*
X90071501Y-126601395D01*
X90071506Y-126601402D01*
X90238597Y-126768493D01*
X90238603Y-126768498D01*
X90424158Y-126898425D01*
X90467783Y-126953002D01*
X90474977Y-127022500D01*
X90443454Y-127084855D01*
X90424158Y-127101575D01*
X90238597Y-127231505D01*
X90071505Y-127398597D01*
X89935965Y-127592169D01*
X89935964Y-127592171D01*
X89836098Y-127806335D01*
X89836094Y-127806344D01*
X89774938Y-128034586D01*
X89774936Y-128034596D01*
X89754341Y-128269999D01*
X89754341Y-128270000D01*
X89774936Y-128505403D01*
X89774938Y-128505413D01*
X89836094Y-128733655D01*
X89836096Y-128733659D01*
X89836097Y-128733663D01*
X89935965Y-128947830D01*
X89935967Y-128947834D01*
X90071501Y-129141395D01*
X90071506Y-129141402D01*
X90238597Y-129308493D01*
X90238603Y-129308498D01*
X90424158Y-129438425D01*
X90467783Y-129493002D01*
X90474977Y-129562500D01*
X90443454Y-129624855D01*
X90424158Y-129641575D01*
X90238597Y-129771505D01*
X90071505Y-129938597D01*
X89935965Y-130132169D01*
X89935964Y-130132171D01*
X89836098Y-130346335D01*
X89836094Y-130346344D01*
X89774938Y-130574586D01*
X89774936Y-130574596D01*
X89754341Y-130809999D01*
X89754341Y-130810000D01*
X89774936Y-131045403D01*
X89774938Y-131045413D01*
X89836094Y-131273655D01*
X89836096Y-131273659D01*
X89836097Y-131273663D01*
X89935965Y-131487830D01*
X89935967Y-131487834D01*
X90044281Y-131642521D01*
X90071505Y-131681401D01*
X90238599Y-131848495D01*
X90335384Y-131916265D01*
X90432165Y-131984032D01*
X90432167Y-131984033D01*
X90432170Y-131984035D01*
X90646337Y-132083903D01*
X90874592Y-132145063D01*
X91062918Y-132161539D01*
X91109999Y-132165659D01*
X91110000Y-132165659D01*
X91110001Y-132165659D01*
X91149234Y-132162226D01*
X91345408Y-132145063D01*
X91573663Y-132083903D01*
X91787830Y-131984035D01*
X91981401Y-131848495D01*
X92148495Y-131681401D01*
X92284035Y-131487830D01*
X92383903Y-131273663D01*
X92445063Y-131045408D01*
X92465659Y-130810000D01*
X92445063Y-130574592D01*
X92383903Y-130346337D01*
X92284035Y-130132171D01*
X92148495Y-129938599D01*
X92148494Y-129938597D01*
X91981402Y-129771506D01*
X91981396Y-129771501D01*
X91795842Y-129641575D01*
X91752217Y-129586998D01*
X91745023Y-129517500D01*
X91776546Y-129455145D01*
X91795842Y-129438425D01*
X91818026Y-129422891D01*
X91981401Y-129308495D01*
X92148495Y-129141401D01*
X92284035Y-128947830D01*
X92383903Y-128733663D01*
X92445063Y-128505408D01*
X92465659Y-128270000D01*
X92445063Y-128034592D01*
X92383903Y-127806337D01*
X92284035Y-127592171D01*
X92262370Y-127561229D01*
X92148494Y-127398597D01*
X91981402Y-127231506D01*
X91981396Y-127231501D01*
X91795842Y-127101575D01*
X91752217Y-127046998D01*
X91745023Y-126977500D01*
X91776546Y-126915145D01*
X91795842Y-126898425D01*
X91864287Y-126850499D01*
X91981401Y-126768495D01*
X92148495Y-126601401D01*
X92284035Y-126407830D01*
X92383903Y-126193663D01*
X92445063Y-125965408D01*
X92465659Y-125730000D01*
X92445063Y-125494592D01*
X92383903Y-125266337D01*
X92284035Y-125052171D01*
X92154318Y-124866914D01*
X92148494Y-124858597D01*
X92039890Y-124749994D01*
X93414357Y-124749994D01*
X93414357Y-124750005D01*
X93434890Y-124997812D01*
X93434892Y-124997824D01*
X93495936Y-125238881D01*
X93595826Y-125466606D01*
X93731833Y-125674782D01*
X93731836Y-125674785D01*
X93900256Y-125857738D01*
X94096491Y-126010474D01*
X94315190Y-126128828D01*
X94550386Y-126209571D01*
X94795665Y-126250500D01*
X95044335Y-126250500D01*
X95289614Y-126209571D01*
X95524810Y-126128828D01*
X95743509Y-126010474D01*
X95939744Y-125857738D01*
X96108164Y-125674785D01*
X96244173Y-125466607D01*
X96344063Y-125238881D01*
X96405108Y-124997821D01*
X96414987Y-124878597D01*
X96425643Y-124750005D01*
X96425643Y-124749994D01*
X96405109Y-124502187D01*
X96405107Y-124502175D01*
X96344063Y-124261118D01*
X96244173Y-124033393D01*
X96108166Y-123825217D01*
X96086557Y-123801744D01*
X95994861Y-123702135D01*
X103579500Y-123702135D01*
X103579500Y-125797870D01*
X103579501Y-125797876D01*
X103585908Y-125857483D01*
X103636202Y-125992328D01*
X103636206Y-125992335D01*
X103722452Y-126107544D01*
X103722455Y-126107547D01*
X103837664Y-126193793D01*
X103837671Y-126193797D01*
X103972517Y-126244091D01*
X103972516Y-126244091D01*
X103979444Y-126244835D01*
X104032127Y-126250500D01*
X106127872Y-126250499D01*
X106187483Y-126244091D01*
X106322331Y-126193796D01*
X106437546Y-126107546D01*
X106523796Y-125992331D01*
X106574091Y-125857483D01*
X106580500Y-125797873D01*
X106580499Y-123702128D01*
X106574091Y-123642517D01*
X106523796Y-123507669D01*
X106523795Y-123507668D01*
X106523793Y-123507664D01*
X106437547Y-123392455D01*
X106437544Y-123392452D01*
X106322335Y-123306206D01*
X106322328Y-123306202D01*
X106187482Y-123255908D01*
X106187483Y-123255908D01*
X106127883Y-123249501D01*
X106127881Y-123249500D01*
X106127873Y-123249500D01*
X106127864Y-123249500D01*
X104032129Y-123249500D01*
X104032123Y-123249501D01*
X103972516Y-123255908D01*
X103837671Y-123306202D01*
X103837664Y-123306206D01*
X103722455Y-123392452D01*
X103722452Y-123392455D01*
X103636206Y-123507664D01*
X103636202Y-123507671D01*
X103585908Y-123642517D01*
X103579501Y-123702116D01*
X103579501Y-123702123D01*
X103579500Y-123702135D01*
X95994861Y-123702135D01*
X95939744Y-123642262D01*
X95743509Y-123489526D01*
X95743507Y-123489525D01*
X95743506Y-123489524D01*
X95524811Y-123371172D01*
X95524802Y-123371169D01*
X95289616Y-123290429D01*
X95044335Y-123249500D01*
X94795665Y-123249500D01*
X94550383Y-123290429D01*
X94315197Y-123371169D01*
X94315188Y-123371172D01*
X94096493Y-123489524D01*
X93900257Y-123642261D01*
X93731833Y-123825217D01*
X93595826Y-124033393D01*
X93495936Y-124261118D01*
X93434892Y-124502175D01*
X93434890Y-124502187D01*
X93414357Y-124749994D01*
X92039890Y-124749994D01*
X91981402Y-124691506D01*
X91981396Y-124691501D01*
X91795842Y-124561575D01*
X91752217Y-124506998D01*
X91745023Y-124437500D01*
X91776546Y-124375145D01*
X91795842Y-124358425D01*
X91842197Y-124325967D01*
X91981401Y-124228495D01*
X92148495Y-124061401D01*
X92284035Y-123867830D01*
X92383903Y-123653663D01*
X92445063Y-123425408D01*
X92465659Y-123190000D01*
X92465659Y-123189999D01*
X107534341Y-123189999D01*
X107534341Y-123190000D01*
X107554936Y-123425403D01*
X107554938Y-123425413D01*
X107616094Y-123653655D01*
X107616096Y-123653659D01*
X107616097Y-123653663D01*
X107638700Y-123702135D01*
X107715965Y-123867830D01*
X107715967Y-123867834D01*
X107851501Y-124061395D01*
X107851506Y-124061402D01*
X108018597Y-124228493D01*
X108018603Y-124228498D01*
X108204158Y-124358425D01*
X108247783Y-124413002D01*
X108254977Y-124482500D01*
X108223454Y-124544855D01*
X108204158Y-124561575D01*
X108018597Y-124691505D01*
X107851505Y-124858597D01*
X107715965Y-125052169D01*
X107715964Y-125052171D01*
X107616098Y-125266335D01*
X107616094Y-125266344D01*
X107554938Y-125494586D01*
X107554936Y-125494596D01*
X107534341Y-125729999D01*
X107534341Y-125730000D01*
X107554936Y-125965403D01*
X107554938Y-125965413D01*
X107616094Y-126193655D01*
X107616096Y-126193659D01*
X107616097Y-126193663D01*
X107711322Y-126397873D01*
X107715964Y-126407827D01*
X107715967Y-126407834D01*
X107851501Y-126601395D01*
X107851506Y-126601402D01*
X108018597Y-126768493D01*
X108018603Y-126768498D01*
X108204158Y-126898425D01*
X108247783Y-126953002D01*
X108254977Y-127022500D01*
X108223454Y-127084855D01*
X108204158Y-127101575D01*
X108018597Y-127231505D01*
X107851505Y-127398597D01*
X107715965Y-127592169D01*
X107715964Y-127592171D01*
X107616098Y-127806335D01*
X107616094Y-127806344D01*
X107554938Y-128034586D01*
X107554936Y-128034596D01*
X107534341Y-128269999D01*
X107534341Y-128270000D01*
X107554936Y-128505403D01*
X107554938Y-128505413D01*
X107616094Y-128733655D01*
X107616096Y-128733659D01*
X107616097Y-128733663D01*
X107715965Y-128947830D01*
X107715967Y-128947834D01*
X107851501Y-129141395D01*
X107851506Y-129141402D01*
X108018597Y-129308493D01*
X108018603Y-129308498D01*
X108204158Y-129438425D01*
X108247783Y-129493002D01*
X108254977Y-129562500D01*
X108223454Y-129624855D01*
X108204158Y-129641575D01*
X108018597Y-129771505D01*
X107851505Y-129938597D01*
X107715965Y-130132169D01*
X107715964Y-130132171D01*
X107616098Y-130346335D01*
X107616094Y-130346344D01*
X107554938Y-130574586D01*
X107554936Y-130574596D01*
X107534341Y-130809999D01*
X107534341Y-130810000D01*
X107554936Y-131045403D01*
X107554938Y-131045413D01*
X107616094Y-131273655D01*
X107616096Y-131273659D01*
X107616097Y-131273663D01*
X107715965Y-131487830D01*
X107715967Y-131487834D01*
X107824281Y-131642521D01*
X107851505Y-131681401D01*
X108018599Y-131848495D01*
X108115384Y-131916265D01*
X108212165Y-131984032D01*
X108212167Y-131984033D01*
X108212170Y-131984035D01*
X108426337Y-132083903D01*
X108654592Y-132145063D01*
X108842918Y-132161539D01*
X108889999Y-132165659D01*
X108890000Y-132165659D01*
X108890001Y-132165659D01*
X108929234Y-132162226D01*
X109125408Y-132145063D01*
X109353663Y-132083903D01*
X109567830Y-131984035D01*
X109761401Y-131848495D01*
X109928495Y-131681401D01*
X110064035Y-131487830D01*
X110163903Y-131273663D01*
X110225063Y-131045408D01*
X110245659Y-130810000D01*
X110227022Y-130596985D01*
X110240788Y-130528486D01*
X110262866Y-130498500D01*
X113287819Y-127473548D01*
X113349142Y-127440063D01*
X113418834Y-127445047D01*
X113474767Y-127486919D01*
X113499184Y-127552383D01*
X113499500Y-127561229D01*
X113499500Y-130167769D01*
X113479815Y-130234808D01*
X113463181Y-130255450D01*
X109201500Y-134517130D01*
X109140177Y-134550615D01*
X109103012Y-134552977D01*
X108890002Y-134534341D01*
X108889999Y-134534341D01*
X108654596Y-134554936D01*
X108654586Y-134554938D01*
X108426344Y-134616094D01*
X108426335Y-134616098D01*
X108212171Y-134715964D01*
X108212169Y-134715965D01*
X108018597Y-134851505D01*
X107851505Y-135018597D01*
X107715965Y-135212169D01*
X107715964Y-135212171D01*
X107616098Y-135426335D01*
X107616094Y-135426344D01*
X107554938Y-135654586D01*
X107554936Y-135654596D01*
X107534341Y-135889999D01*
X107534341Y-135890000D01*
X107554936Y-136125403D01*
X107554938Y-136125413D01*
X107616094Y-136353655D01*
X107616096Y-136353659D01*
X107616097Y-136353663D01*
X107715965Y-136567830D01*
X107715967Y-136567834D01*
X107851501Y-136761395D01*
X107851506Y-136761402D01*
X108018597Y-136928493D01*
X108018603Y-136928498D01*
X108204158Y-137058425D01*
X108247783Y-137113002D01*
X108254977Y-137182500D01*
X108223454Y-137244855D01*
X108204158Y-137261575D01*
X108018597Y-137391505D01*
X107851505Y-137558597D01*
X107715965Y-137752169D01*
X107715964Y-137752171D01*
X107616098Y-137966335D01*
X107616094Y-137966344D01*
X107554938Y-138194586D01*
X107554936Y-138194596D01*
X107534341Y-138429999D01*
X107534341Y-138430000D01*
X107554936Y-138665403D01*
X107554938Y-138665413D01*
X107616094Y-138893655D01*
X107616096Y-138893659D01*
X107616097Y-138893663D01*
X107685509Y-139042517D01*
X107715965Y-139107830D01*
X107715967Y-139107834D01*
X107851501Y-139301395D01*
X107851506Y-139301402D01*
X108018597Y-139468493D01*
X108018603Y-139468498D01*
X108204158Y-139598425D01*
X108247783Y-139653002D01*
X108254977Y-139722500D01*
X108223454Y-139784855D01*
X108204158Y-139801575D01*
X108018597Y-139931505D01*
X107851505Y-140098597D01*
X107715965Y-140292169D01*
X107715964Y-140292171D01*
X107616098Y-140506335D01*
X107616094Y-140506344D01*
X107554938Y-140734586D01*
X107554936Y-140734596D01*
X107534341Y-140969999D01*
X107534341Y-140970000D01*
X107554936Y-141205403D01*
X107554938Y-141205413D01*
X107616094Y-141433655D01*
X107616096Y-141433659D01*
X107616097Y-141433663D01*
X107715965Y-141647830D01*
X107715967Y-141647834D01*
X107851501Y-141841395D01*
X107851506Y-141841402D01*
X108018597Y-142008493D01*
X108018603Y-142008498D01*
X108204158Y-142138425D01*
X108247783Y-142193002D01*
X108254977Y-142262500D01*
X108223454Y-142324855D01*
X108204158Y-142341575D01*
X108018597Y-142471505D01*
X107851505Y-142638597D01*
X107715965Y-142832169D01*
X107715964Y-142832171D01*
X107616098Y-143046335D01*
X107616094Y-143046344D01*
X107554938Y-143274586D01*
X107554936Y-143274596D01*
X107534341Y-143509999D01*
X107534341Y-143510000D01*
X107554936Y-143745403D01*
X107554938Y-143745413D01*
X107616094Y-143973655D01*
X107616096Y-143973659D01*
X107616097Y-143973663D01*
X107715965Y-144187830D01*
X107715967Y-144187834D01*
X107824281Y-144342521D01*
X107851505Y-144381401D01*
X108018599Y-144548495D01*
X108115384Y-144616265D01*
X108212165Y-144684032D01*
X108212167Y-144684033D01*
X108212170Y-144684035D01*
X108426337Y-144783903D01*
X108654592Y-144845063D01*
X108842918Y-144861539D01*
X108889999Y-144865659D01*
X108890000Y-144865659D01*
X108890001Y-144865659D01*
X108929234Y-144862226D01*
X109125408Y-144845063D01*
X109353663Y-144783903D01*
X109567830Y-144684035D01*
X109761401Y-144548495D01*
X109928495Y-144381401D01*
X110064035Y-144187830D01*
X110163903Y-143973663D01*
X110225063Y-143745408D01*
X110245659Y-143510000D01*
X110227022Y-143296985D01*
X110240788Y-143228486D01*
X110262866Y-143198500D01*
X113287821Y-140173546D01*
X113349142Y-140140063D01*
X113418834Y-140145047D01*
X113474767Y-140186919D01*
X113499184Y-140252383D01*
X113499500Y-140261229D01*
X113499500Y-142867769D01*
X113479815Y-142934808D01*
X113463181Y-142955450D01*
X109201500Y-147217130D01*
X109140177Y-147250615D01*
X109103012Y-147252977D01*
X108890002Y-147234341D01*
X108889999Y-147234341D01*
X108654596Y-147254936D01*
X108654586Y-147254938D01*
X108426344Y-147316094D01*
X108426335Y-147316098D01*
X108212171Y-147415964D01*
X108212169Y-147415965D01*
X108018597Y-147551505D01*
X107851505Y-147718597D01*
X107715965Y-147912169D01*
X107715964Y-147912171D01*
X107616098Y-148126335D01*
X107616094Y-148126344D01*
X107554938Y-148354586D01*
X107554936Y-148354596D01*
X107534341Y-148589999D01*
X107534341Y-148590000D01*
X107554936Y-148825403D01*
X107554938Y-148825413D01*
X107616094Y-149053655D01*
X107616096Y-149053659D01*
X107616097Y-149053663D01*
X107715965Y-149267830D01*
X107715967Y-149267834D01*
X107851501Y-149461395D01*
X107851506Y-149461402D01*
X108018597Y-149628493D01*
X108018603Y-149628498D01*
X108204158Y-149758425D01*
X108247783Y-149813002D01*
X108254977Y-149882500D01*
X108223454Y-149944855D01*
X108204158Y-149961575D01*
X108018597Y-150091505D01*
X107851505Y-150258597D01*
X107715965Y-150452169D01*
X107715964Y-150452171D01*
X107616098Y-150666335D01*
X107616094Y-150666344D01*
X107554938Y-150894586D01*
X107554936Y-150894596D01*
X107534341Y-151129999D01*
X107534341Y-151130000D01*
X107554936Y-151365403D01*
X107554938Y-151365413D01*
X107616094Y-151593655D01*
X107616096Y-151593659D01*
X107616097Y-151593663D01*
X107715965Y-151807830D01*
X107715967Y-151807834D01*
X107804386Y-151934108D01*
X107851505Y-152001401D01*
X108018599Y-152168495D01*
X108115384Y-152236265D01*
X108212165Y-152304032D01*
X108212167Y-152304033D01*
X108212170Y-152304035D01*
X108426337Y-152403903D01*
X108654592Y-152465063D01*
X108842918Y-152481539D01*
X108889999Y-152485659D01*
X108890000Y-152485659D01*
X108890001Y-152485659D01*
X108929234Y-152482226D01*
X109125408Y-152465063D01*
X109353663Y-152403903D01*
X109567830Y-152304035D01*
X109761401Y-152168495D01*
X109928495Y-152001401D01*
X110064035Y-151807830D01*
X110163903Y-151593663D01*
X110225063Y-151365408D01*
X110245659Y-151130000D01*
X110225063Y-150894592D01*
X110163903Y-150666337D01*
X110064035Y-150452171D01*
X109928495Y-150258599D01*
X109928494Y-150258597D01*
X109761402Y-150091506D01*
X109761396Y-150091501D01*
X109575842Y-149961575D01*
X109532217Y-149906998D01*
X109525023Y-149837500D01*
X109556546Y-149775145D01*
X109575842Y-149758425D01*
X109598026Y-149742891D01*
X109761401Y-149628495D01*
X109928495Y-149461401D01*
X110064035Y-149267830D01*
X110163903Y-149053663D01*
X110225063Y-148825408D01*
X110245659Y-148590000D01*
X110227022Y-148376985D01*
X110240788Y-148308486D01*
X110262866Y-148278500D01*
X114832952Y-143708416D01*
X114854780Y-143675746D01*
X114899021Y-143609536D01*
X114899023Y-143609531D01*
X114899027Y-143609526D01*
X114915084Y-143585495D01*
X114946355Y-143510000D01*
X114946356Y-143509999D01*
X114953766Y-143492108D01*
X114971659Y-143448912D01*
X115000500Y-143303917D01*
X115000500Y-143156082D01*
X115000500Y-141413769D01*
X115020185Y-141346730D01*
X115072989Y-141300975D01*
X115142147Y-141291031D01*
X115167833Y-141297587D01*
X115292517Y-141344091D01*
X115292516Y-141344091D01*
X115299444Y-141344835D01*
X115352127Y-141350500D01*
X117147872Y-141350499D01*
X117207483Y-141344091D01*
X117342331Y-141293796D01*
X117457546Y-141207546D01*
X117543796Y-141092331D01*
X117592810Y-140960916D01*
X117634681Y-140904984D01*
X117700145Y-140880566D01*
X117768418Y-140895417D01*
X117796673Y-140916569D01*
X117918599Y-141038495D01*
X118013239Y-141104763D01*
X118112165Y-141174032D01*
X118112167Y-141174033D01*
X118112170Y-141174035D01*
X118326337Y-141273903D01*
X118554592Y-141335063D01*
X118731034Y-141350500D01*
X118789999Y-141355659D01*
X118790000Y-141355659D01*
X118790001Y-141355659D01*
X118848966Y-141350500D01*
X119025408Y-141335063D01*
X119253663Y-141273903D01*
X119467830Y-141174035D01*
X119661401Y-141038495D01*
X119828495Y-140871401D01*
X119964035Y-140677830D01*
X120063903Y-140463663D01*
X120125063Y-140235408D01*
X120145659Y-140000000D01*
X120125063Y-139764592D01*
X120063903Y-139536337D01*
X119964035Y-139322171D01*
X119949493Y-139301402D01*
X119828494Y-139128597D01*
X119661402Y-138961506D01*
X119661395Y-138961501D01*
X119467834Y-138825967D01*
X119467830Y-138825965D01*
X119467828Y-138825964D01*
X119253663Y-138726097D01*
X119253659Y-138726096D01*
X119253655Y-138726094D01*
X119025413Y-138664938D01*
X119025403Y-138664936D01*
X118790001Y-138644341D01*
X118789999Y-138644341D01*
X118554596Y-138664936D01*
X118554586Y-138664938D01*
X118326344Y-138726094D01*
X118326335Y-138726098D01*
X118112171Y-138825964D01*
X118112169Y-138825965D01*
X117918600Y-138961503D01*
X117796673Y-139083430D01*
X117735350Y-139116914D01*
X117665658Y-139111930D01*
X117609725Y-139070058D01*
X117592810Y-139039081D01*
X117543797Y-138907671D01*
X117543793Y-138907664D01*
X117457547Y-138792455D01*
X117457544Y-138792452D01*
X117342335Y-138706206D01*
X117342328Y-138706202D01*
X117207482Y-138655908D01*
X117207483Y-138655908D01*
X117147883Y-138649501D01*
X117147881Y-138649500D01*
X117147873Y-138649500D01*
X117147864Y-138649500D01*
X115352129Y-138649500D01*
X115352123Y-138649501D01*
X115292515Y-138655909D01*
X115167832Y-138702412D01*
X115098141Y-138707396D01*
X115036818Y-138673910D01*
X115003334Y-138612587D01*
X115000500Y-138586230D01*
X115000500Y-138362228D01*
X115020185Y-138295189D01*
X115036815Y-138274551D01*
X115924548Y-137386817D01*
X115985871Y-137353333D01*
X116012229Y-137350499D01*
X117147871Y-137350499D01*
X117147872Y-137350499D01*
X117207483Y-137344091D01*
X117342331Y-137293796D01*
X117457546Y-137207546D01*
X117543796Y-137092331D01*
X117592810Y-136960916D01*
X117634681Y-136904984D01*
X117700145Y-136880566D01*
X117768418Y-136895417D01*
X117796673Y-136916569D01*
X117918599Y-137038495D01*
X118015384Y-137106265D01*
X118112165Y-137174032D01*
X118112167Y-137174033D01*
X118112170Y-137174035D01*
X118326337Y-137273903D01*
X118554592Y-137335063D01*
X118731034Y-137350500D01*
X118789999Y-137355659D01*
X118790000Y-137355659D01*
X118790001Y-137355659D01*
X118848966Y-137350500D01*
X119025408Y-137335063D01*
X119253663Y-137273903D01*
X119467830Y-137174035D01*
X119661401Y-137038495D01*
X119828495Y-136871401D01*
X119964035Y-136677830D01*
X120063903Y-136463663D01*
X120125063Y-136235408D01*
X120145659Y-136000000D01*
X120125063Y-135764592D01*
X120063903Y-135536337D01*
X119964035Y-135322171D01*
X119887013Y-135212171D01*
X119828494Y-135128597D01*
X119661402Y-134961506D01*
X119661395Y-134961501D01*
X119467832Y-134825966D01*
X119467828Y-134825964D01*
X119253663Y-134726097D01*
X119253659Y-134726096D01*
X119253655Y-134726094D01*
X119025413Y-134664938D01*
X119025403Y-134664936D01*
X118790001Y-134644341D01*
X118789999Y-134644341D01*
X118554596Y-134664936D01*
X118554586Y-134664938D01*
X118326344Y-134726094D01*
X118326335Y-134726098D01*
X118112171Y-134825964D01*
X118112169Y-134825965D01*
X117918600Y-134961503D01*
X117796673Y-135083430D01*
X117735350Y-135116914D01*
X117665658Y-135111930D01*
X117609725Y-135070058D01*
X117592810Y-135039081D01*
X117543797Y-134907671D01*
X117543793Y-134907664D01*
X117457547Y-134792455D01*
X117457544Y-134792452D01*
X117342335Y-134706206D01*
X117342328Y-134706202D01*
X117207482Y-134655908D01*
X117207483Y-134655908D01*
X117147883Y-134649501D01*
X117147881Y-134649500D01*
X117147873Y-134649500D01*
X117147864Y-134649500D01*
X115352129Y-134649500D01*
X115352123Y-134649501D01*
X115292516Y-134655908D01*
X115157671Y-134706202D01*
X115157664Y-134706206D01*
X115042455Y-134792452D01*
X115042452Y-134792455D01*
X114956206Y-134907664D01*
X114956202Y-134907671D01*
X114905908Y-135042517D01*
X114899501Y-135102116D01*
X114899501Y-135102123D01*
X114899500Y-135102135D01*
X114899500Y-136237769D01*
X114879815Y-136304808D01*
X114863181Y-136325450D01*
X113962181Y-137226450D01*
X113900858Y-137259935D01*
X113831166Y-137254951D01*
X113775233Y-137213079D01*
X113750816Y-137147615D01*
X113750500Y-137138769D01*
X113750500Y-135612229D01*
X113770185Y-135545190D01*
X113786814Y-135524553D01*
X115924549Y-133386817D01*
X115985872Y-133353333D01*
X116012230Y-133350499D01*
X117147871Y-133350499D01*
X117147872Y-133350499D01*
X117207483Y-133344091D01*
X117342331Y-133293796D01*
X117457546Y-133207546D01*
X117543796Y-133092331D01*
X117592810Y-132960916D01*
X117634681Y-132904984D01*
X117700145Y-132880566D01*
X117768418Y-132895417D01*
X117796673Y-132916569D01*
X117918599Y-133038495D01*
X118015384Y-133106265D01*
X118112165Y-133174032D01*
X118112167Y-133174033D01*
X118112170Y-133174035D01*
X118326337Y-133273903D01*
X118554592Y-133335063D01*
X118731034Y-133350500D01*
X118789999Y-133355659D01*
X118790000Y-133355659D01*
X118790001Y-133355659D01*
X118848966Y-133350500D01*
X119025408Y-133335063D01*
X119253663Y-133273903D01*
X119467830Y-133174035D01*
X119661401Y-133038495D01*
X119828495Y-132871401D01*
X119964035Y-132677830D01*
X120063903Y-132463663D01*
X120125063Y-132235408D01*
X120145659Y-132000000D01*
X120125063Y-131764592D01*
X120063903Y-131536337D01*
X119964035Y-131322171D01*
X119930071Y-131273664D01*
X119828494Y-131128597D01*
X119661402Y-130961506D01*
X119661395Y-130961501D01*
X119467834Y-130825967D01*
X119467830Y-130825965D01*
X119433591Y-130809999D01*
X119253663Y-130726097D01*
X119253659Y-130726096D01*
X119253655Y-130726094D01*
X119025413Y-130664938D01*
X119025403Y-130664936D01*
X118790001Y-130644341D01*
X118789999Y-130644341D01*
X118554596Y-130664936D01*
X118554586Y-130664938D01*
X118326344Y-130726094D01*
X118326335Y-130726098D01*
X118112171Y-130825964D01*
X118112169Y-130825965D01*
X117918600Y-130961503D01*
X117796673Y-131083430D01*
X117735350Y-131116914D01*
X117665658Y-131111930D01*
X117609725Y-131070058D01*
X117592810Y-131039081D01*
X117543797Y-130907671D01*
X117543793Y-130907664D01*
X117457547Y-130792455D01*
X117457544Y-130792452D01*
X117342335Y-130706206D01*
X117342328Y-130706202D01*
X117207482Y-130655908D01*
X117207483Y-130655908D01*
X117147883Y-130649501D01*
X117147881Y-130649500D01*
X117147873Y-130649500D01*
X117147864Y-130649500D01*
X115352129Y-130649500D01*
X115352123Y-130649501D01*
X115292515Y-130655909D01*
X115167832Y-130702412D01*
X115098141Y-130707396D01*
X115036818Y-130673910D01*
X115003334Y-130612587D01*
X115000500Y-130586230D01*
X115000500Y-127163769D01*
X115020185Y-127096730D01*
X115072989Y-127050975D01*
X115142147Y-127041031D01*
X115167833Y-127047587D01*
X115292517Y-127094091D01*
X115292516Y-127094091D01*
X115299444Y-127094835D01*
X115352127Y-127100500D01*
X117147872Y-127100499D01*
X117207483Y-127094091D01*
X117342331Y-127043796D01*
X117457546Y-126957546D01*
X117543796Y-126842331D01*
X117592810Y-126710916D01*
X117634681Y-126654984D01*
X117700145Y-126630566D01*
X117768418Y-126645417D01*
X117796673Y-126666569D01*
X117918599Y-126788495D01*
X117997998Y-126844091D01*
X118112165Y-126924032D01*
X118112167Y-126924033D01*
X118112170Y-126924035D01*
X118326337Y-127023903D01*
X118554592Y-127085063D01*
X118731034Y-127100500D01*
X118789999Y-127105659D01*
X118790000Y-127105659D01*
X118790001Y-127105659D01*
X118848966Y-127100500D01*
X119025408Y-127085063D01*
X119253663Y-127023903D01*
X119467830Y-126924035D01*
X119661401Y-126788495D01*
X119828495Y-126621401D01*
X119964035Y-126427830D01*
X120063903Y-126213663D01*
X120125063Y-125985408D01*
X120145659Y-125750000D01*
X120125063Y-125514592D01*
X120063903Y-125286337D01*
X119964035Y-125072171D01*
X119938943Y-125036335D01*
X119828494Y-124878597D01*
X119661402Y-124711506D01*
X119661395Y-124711501D01*
X119467834Y-124575967D01*
X119467830Y-124575965D01*
X119467828Y-124575964D01*
X119253663Y-124476097D01*
X119253659Y-124476096D01*
X119253655Y-124476094D01*
X119025413Y-124414938D01*
X119025403Y-124414936D01*
X118790001Y-124394341D01*
X118789999Y-124394341D01*
X118554596Y-124414936D01*
X118554586Y-124414938D01*
X118326344Y-124476094D01*
X118326335Y-124476098D01*
X118112171Y-124575964D01*
X118112169Y-124575965D01*
X117918600Y-124711503D01*
X117796673Y-124833430D01*
X117735350Y-124866914D01*
X117665658Y-124861930D01*
X117609725Y-124820058D01*
X117592810Y-124789081D01*
X117543797Y-124657671D01*
X117543793Y-124657664D01*
X117457547Y-124542455D01*
X117457544Y-124542452D01*
X117342335Y-124456206D01*
X117342328Y-124456202D01*
X117207482Y-124405908D01*
X117207483Y-124405908D01*
X117147883Y-124399501D01*
X117147881Y-124399500D01*
X117147873Y-124399500D01*
X117147864Y-124399500D01*
X115352129Y-124399500D01*
X115352123Y-124399501D01*
X115292515Y-124405909D01*
X115167832Y-124452412D01*
X115098141Y-124457396D01*
X115036818Y-124423910D01*
X115003334Y-124362587D01*
X115000500Y-124336230D01*
X115000500Y-123163769D01*
X115020185Y-123096730D01*
X115072989Y-123050975D01*
X115142147Y-123041031D01*
X115167833Y-123047587D01*
X115292517Y-123094091D01*
X115292516Y-123094091D01*
X115299444Y-123094835D01*
X115352127Y-123100500D01*
X117147872Y-123100499D01*
X117207483Y-123094091D01*
X117342331Y-123043796D01*
X117457546Y-122957546D01*
X117543796Y-122842331D01*
X117592810Y-122710916D01*
X117634681Y-122654984D01*
X117700145Y-122630566D01*
X117768418Y-122645417D01*
X117796673Y-122666569D01*
X117918599Y-122788495D01*
X117997998Y-122844091D01*
X118112165Y-122924032D01*
X118112167Y-122924033D01*
X118112170Y-122924035D01*
X118326337Y-123023903D01*
X118554592Y-123085063D01*
X118731034Y-123100500D01*
X118789999Y-123105659D01*
X118790000Y-123105659D01*
X118790001Y-123105659D01*
X118848966Y-123100500D01*
X119025408Y-123085063D01*
X119253663Y-123023903D01*
X119467830Y-122924035D01*
X119661401Y-122788495D01*
X119828495Y-122621401D01*
X119964035Y-122427830D01*
X120063903Y-122213663D01*
X120125063Y-121985408D01*
X120145659Y-121750000D01*
X120125063Y-121514592D01*
X120063903Y-121286337D01*
X119964035Y-121072171D01*
X119938943Y-121036335D01*
X119828494Y-120878597D01*
X119661402Y-120711506D01*
X119661395Y-120711501D01*
X119467834Y-120575967D01*
X119467830Y-120575965D01*
X119467828Y-120575964D01*
X119253663Y-120476097D01*
X119253659Y-120476096D01*
X119253655Y-120476094D01*
X119025413Y-120414938D01*
X119025403Y-120414936D01*
X118790001Y-120394341D01*
X118789999Y-120394341D01*
X118554596Y-120414936D01*
X118554586Y-120414938D01*
X118326344Y-120476094D01*
X118326335Y-120476098D01*
X118112171Y-120575964D01*
X118112169Y-120575965D01*
X117918600Y-120711503D01*
X117796673Y-120833430D01*
X117735350Y-120866914D01*
X117665658Y-120861930D01*
X117609725Y-120820058D01*
X117592810Y-120789081D01*
X117543797Y-120657671D01*
X117543793Y-120657664D01*
X117457547Y-120542455D01*
X117457544Y-120542452D01*
X117342335Y-120456206D01*
X117342328Y-120456202D01*
X117207482Y-120405908D01*
X117207483Y-120405908D01*
X117147883Y-120399501D01*
X117147881Y-120399500D01*
X117147873Y-120399500D01*
X117147864Y-120399500D01*
X115352129Y-120399500D01*
X115352123Y-120399501D01*
X115292515Y-120405909D01*
X115167832Y-120452412D01*
X115098141Y-120457396D01*
X115036818Y-120423910D01*
X115003334Y-120362587D01*
X115000500Y-120336230D01*
X115000500Y-120112228D01*
X115020185Y-120045189D01*
X115036815Y-120024551D01*
X115924548Y-119136817D01*
X115985871Y-119103333D01*
X116012229Y-119100499D01*
X117147871Y-119100499D01*
X117147872Y-119100499D01*
X117207483Y-119094091D01*
X117342331Y-119043796D01*
X117457546Y-118957546D01*
X117543796Y-118842331D01*
X117592810Y-118710916D01*
X117634681Y-118654984D01*
X117700145Y-118630566D01*
X117768418Y-118645417D01*
X117796673Y-118666569D01*
X117918599Y-118788495D01*
X117997998Y-118844091D01*
X118112165Y-118924032D01*
X118112167Y-118924033D01*
X118112170Y-118924035D01*
X118326337Y-119023903D01*
X118554592Y-119085063D01*
X118742918Y-119101539D01*
X118789999Y-119105659D01*
X118790000Y-119105659D01*
X118790001Y-119105659D01*
X118829234Y-119102226D01*
X119025408Y-119085063D01*
X119253663Y-119023903D01*
X119467830Y-118924035D01*
X119661401Y-118788495D01*
X119828495Y-118621401D01*
X119964035Y-118427830D01*
X120063903Y-118213663D01*
X120125063Y-117985408D01*
X120145659Y-117750000D01*
X120125063Y-117514592D01*
X120063903Y-117286337D01*
X119964035Y-117072171D01*
X119963570Y-117071506D01*
X119828494Y-116878597D01*
X119661402Y-116711506D01*
X119661395Y-116711501D01*
X119467834Y-116575967D01*
X119467830Y-116575965D01*
X119467828Y-116575964D01*
X119253663Y-116476097D01*
X119253659Y-116476096D01*
X119253655Y-116476094D01*
X119025413Y-116414938D01*
X119025403Y-116414936D01*
X118790001Y-116394341D01*
X118789999Y-116394341D01*
X118554596Y-116414936D01*
X118554586Y-116414938D01*
X118326344Y-116476094D01*
X118326335Y-116476098D01*
X118112171Y-116575964D01*
X118112169Y-116575965D01*
X117918600Y-116711503D01*
X117796673Y-116833430D01*
X117735350Y-116866914D01*
X117665658Y-116861930D01*
X117609725Y-116820058D01*
X117592810Y-116789081D01*
X117543797Y-116657671D01*
X117543793Y-116657664D01*
X117457547Y-116542455D01*
X117457544Y-116542452D01*
X117342335Y-116456206D01*
X117342328Y-116456202D01*
X117207482Y-116405908D01*
X117207483Y-116405908D01*
X117147883Y-116399501D01*
X117147881Y-116399500D01*
X117147873Y-116399500D01*
X117147864Y-116399500D01*
X115352129Y-116399500D01*
X115352123Y-116399501D01*
X115292516Y-116405908D01*
X115157671Y-116456202D01*
X115157664Y-116456206D01*
X115042455Y-116542452D01*
X115042452Y-116542455D01*
X114956206Y-116657664D01*
X114956202Y-116657671D01*
X114905908Y-116792517D01*
X114899501Y-116852116D01*
X114899500Y-116852135D01*
X114899500Y-117987769D01*
X114879815Y-118054808D01*
X114863181Y-118075450D01*
X114212181Y-118726450D01*
X114150858Y-118759935D01*
X114081166Y-118754951D01*
X114025233Y-118713079D01*
X114000816Y-118647615D01*
X114000500Y-118638769D01*
X114000500Y-114362228D01*
X114020185Y-114295189D01*
X114036814Y-114274552D01*
X115924548Y-112386817D01*
X115985871Y-112353333D01*
X116012229Y-112350499D01*
X117147871Y-112350499D01*
X117147872Y-112350499D01*
X117207483Y-112344091D01*
X117342331Y-112293796D01*
X117457546Y-112207546D01*
X117543796Y-112092331D01*
X117592810Y-111960916D01*
X117634681Y-111904984D01*
X117700145Y-111880566D01*
X117768418Y-111895417D01*
X117796673Y-111916569D01*
X117918599Y-112038495D01*
X118015384Y-112106265D01*
X118112165Y-112174032D01*
X118112167Y-112174033D01*
X118112170Y-112174035D01*
X118326337Y-112273903D01*
X118554592Y-112335063D01*
X118731034Y-112350500D01*
X118789999Y-112355659D01*
X118790000Y-112355659D01*
X118790001Y-112355659D01*
X118848966Y-112350500D01*
X119025408Y-112335063D01*
X119253663Y-112273903D01*
X119467830Y-112174035D01*
X119661401Y-112038495D01*
X119828495Y-111871401D01*
X119964035Y-111677830D01*
X120063903Y-111463663D01*
X120125063Y-111235408D01*
X120145659Y-111000000D01*
X120125063Y-110764592D01*
X120063903Y-110536337D01*
X119964035Y-110322171D01*
X119828495Y-110128599D01*
X119828494Y-110128597D01*
X119661402Y-109961506D01*
X119661395Y-109961501D01*
X119467834Y-109825967D01*
X119467830Y-109825965D01*
X119438244Y-109812169D01*
X119253663Y-109726097D01*
X119253659Y-109726096D01*
X119253655Y-109726094D01*
X119025413Y-109664938D01*
X119025403Y-109664936D01*
X118790001Y-109644341D01*
X118789999Y-109644341D01*
X118554596Y-109664936D01*
X118554586Y-109664938D01*
X118326344Y-109726094D01*
X118326335Y-109726098D01*
X118112171Y-109825964D01*
X118112169Y-109825965D01*
X117918600Y-109961503D01*
X117796673Y-110083430D01*
X117735350Y-110116914D01*
X117665658Y-110111930D01*
X117609725Y-110070058D01*
X117592810Y-110039081D01*
X117543797Y-109907671D01*
X117543793Y-109907664D01*
X117457547Y-109792455D01*
X117457544Y-109792452D01*
X117342335Y-109706206D01*
X117342328Y-109706202D01*
X117207482Y-109655908D01*
X117207483Y-109655908D01*
X117147883Y-109649501D01*
X117147881Y-109649500D01*
X117147873Y-109649500D01*
X117147864Y-109649500D01*
X115352129Y-109649500D01*
X115352123Y-109649501D01*
X115292516Y-109655908D01*
X115157671Y-109706202D01*
X115157664Y-109706206D01*
X115042455Y-109792452D01*
X115042452Y-109792455D01*
X114956206Y-109907664D01*
X114956202Y-109907671D01*
X114905908Y-110042517D01*
X114899501Y-110102116D01*
X114899501Y-110102123D01*
X114899500Y-110102135D01*
X114899500Y-111237770D01*
X114879815Y-111304809D01*
X114863181Y-111325451D01*
X113212181Y-112976451D01*
X113150858Y-113009936D01*
X113081166Y-113004952D01*
X113025233Y-112963080D01*
X113000816Y-112897616D01*
X113000500Y-112888770D01*
X113000500Y-111362228D01*
X113020185Y-111295189D01*
X113036814Y-111274552D01*
X115924548Y-108386817D01*
X115985871Y-108353333D01*
X116012229Y-108350499D01*
X117147871Y-108350499D01*
X117147872Y-108350499D01*
X117207483Y-108344091D01*
X117342331Y-108293796D01*
X117457546Y-108207546D01*
X117543796Y-108092331D01*
X117592810Y-107960916D01*
X117634681Y-107904984D01*
X117700145Y-107880566D01*
X117768418Y-107895417D01*
X117796673Y-107916569D01*
X117918599Y-108038495D01*
X118015384Y-108106265D01*
X118112165Y-108174032D01*
X118112167Y-108174033D01*
X118112170Y-108174035D01*
X118326337Y-108273903D01*
X118554592Y-108335063D01*
X118731034Y-108350500D01*
X118789999Y-108355659D01*
X118790000Y-108355659D01*
X118790001Y-108355659D01*
X118848966Y-108350500D01*
X119025408Y-108335063D01*
X119253663Y-108273903D01*
X119467830Y-108174035D01*
X119661401Y-108038495D01*
X119828495Y-107871401D01*
X119964035Y-107677830D01*
X120063903Y-107463663D01*
X120125063Y-107235408D01*
X120145659Y-107000000D01*
X120125063Y-106764592D01*
X120078626Y-106591285D01*
X120063905Y-106536344D01*
X120063904Y-106536343D01*
X120063903Y-106536337D01*
X119964035Y-106322171D01*
X119935489Y-106281402D01*
X119828494Y-106128597D01*
X119661402Y-105961506D01*
X119661395Y-105961501D01*
X119467834Y-105825967D01*
X119467830Y-105825965D01*
X119467828Y-105825964D01*
X119253663Y-105726097D01*
X119253659Y-105726096D01*
X119253655Y-105726094D01*
X119025413Y-105664938D01*
X119025403Y-105664936D01*
X118790001Y-105644341D01*
X118789999Y-105644341D01*
X118554596Y-105664936D01*
X118554586Y-105664938D01*
X118326344Y-105726094D01*
X118326335Y-105726098D01*
X118112171Y-105825964D01*
X118112169Y-105825965D01*
X117918600Y-105961503D01*
X117796673Y-106083430D01*
X117735350Y-106116914D01*
X117665658Y-106111930D01*
X117609725Y-106070058D01*
X117592810Y-106039081D01*
X117543797Y-105907671D01*
X117543793Y-105907664D01*
X117457547Y-105792455D01*
X117457544Y-105792452D01*
X117342335Y-105706206D01*
X117342328Y-105706202D01*
X117207482Y-105655908D01*
X117207483Y-105655908D01*
X117147883Y-105649501D01*
X117147881Y-105649500D01*
X117147873Y-105649500D01*
X117147864Y-105649500D01*
X115352129Y-105649500D01*
X115352123Y-105649501D01*
X115292516Y-105655908D01*
X115157671Y-105706202D01*
X115157664Y-105706206D01*
X115042455Y-105792452D01*
X115042452Y-105792455D01*
X114956206Y-105907664D01*
X114956202Y-105907671D01*
X114905908Y-106042517D01*
X114899501Y-106102116D01*
X114899501Y-106102123D01*
X114899500Y-106102135D01*
X114899500Y-107237770D01*
X114879815Y-107304809D01*
X114863181Y-107325451D01*
X111667046Y-110521585D01*
X111657193Y-110536334D01*
X111657189Y-110536339D01*
X111584916Y-110644502D01*
X111584914Y-110644506D01*
X111528343Y-110781082D01*
X111528340Y-110781092D01*
X111499500Y-110926079D01*
X111499500Y-122007770D01*
X111479815Y-122074809D01*
X111463181Y-122095451D01*
X110443584Y-123115047D01*
X110382261Y-123148532D01*
X110312569Y-123143548D01*
X110256636Y-123101676D01*
X110232375Y-123038174D01*
X110225063Y-122954592D01*
X110163903Y-122726337D01*
X110064035Y-122512171D01*
X110025743Y-122457483D01*
X109928494Y-122318597D01*
X109761402Y-122151506D01*
X109761395Y-122151501D01*
X109751629Y-122144663D01*
X109629479Y-122059132D01*
X109567834Y-122015967D01*
X109567830Y-122015965D01*
X109502300Y-121985408D01*
X109353663Y-121916097D01*
X109353659Y-121916096D01*
X109353655Y-121916094D01*
X109125413Y-121854938D01*
X109125403Y-121854936D01*
X108890001Y-121834341D01*
X108889999Y-121834341D01*
X108654596Y-121854936D01*
X108654586Y-121854938D01*
X108426344Y-121916094D01*
X108426335Y-121916098D01*
X108212171Y-122015964D01*
X108212169Y-122015965D01*
X108018597Y-122151505D01*
X107851505Y-122318597D01*
X107715965Y-122512169D01*
X107715964Y-122512171D01*
X107616098Y-122726335D01*
X107616094Y-122726344D01*
X107554938Y-122954586D01*
X107554936Y-122954596D01*
X107534341Y-123189999D01*
X92465659Y-123189999D01*
X92464947Y-123181867D01*
X92456478Y-123085061D01*
X92445063Y-122954592D01*
X92383903Y-122726337D01*
X92284035Y-122512171D01*
X92245743Y-122457483D01*
X92148494Y-122318597D01*
X91981402Y-122151506D01*
X91981395Y-122151501D01*
X91971629Y-122144663D01*
X91849479Y-122059132D01*
X91787834Y-122015967D01*
X91787830Y-122015965D01*
X91722300Y-121985408D01*
X91573663Y-121916097D01*
X91573659Y-121916096D01*
X91573655Y-121916094D01*
X91345413Y-121854938D01*
X91345403Y-121854936D01*
X91110001Y-121834341D01*
X91109999Y-121834341D01*
X90874596Y-121854936D01*
X90874586Y-121854938D01*
X90646344Y-121916094D01*
X90646335Y-121916098D01*
X90432171Y-122015964D01*
X90432169Y-122015965D01*
X90238597Y-122151505D01*
X90071505Y-122318597D01*
X89935965Y-122512169D01*
X89935964Y-122512171D01*
X89836098Y-122726335D01*
X89836094Y-122726344D01*
X89774938Y-122954586D01*
X89774936Y-122954596D01*
X89754341Y-123189999D01*
X76500500Y-123189999D01*
X76500500Y-121499999D01*
X79854341Y-121499999D01*
X79854341Y-121500000D01*
X79874936Y-121735403D01*
X79874938Y-121735413D01*
X79936094Y-121963655D01*
X79936096Y-121963659D01*
X79936097Y-121963663D01*
X79997551Y-122095451D01*
X80035965Y-122177830D01*
X80035967Y-122177834D01*
X80061056Y-122213664D01*
X80171505Y-122371401D01*
X80338599Y-122538495D01*
X80435384Y-122606265D01*
X80532165Y-122674032D01*
X80532167Y-122674033D01*
X80532170Y-122674035D01*
X80746337Y-122773903D01*
X80974592Y-122835063D01*
X81151034Y-122850500D01*
X81209999Y-122855659D01*
X81210000Y-122855659D01*
X81210001Y-122855659D01*
X81268966Y-122850500D01*
X81445408Y-122835063D01*
X81673663Y-122773903D01*
X81887830Y-122674035D01*
X82081401Y-122538495D01*
X82203329Y-122416566D01*
X82264648Y-122383084D01*
X82334340Y-122388068D01*
X82390274Y-122429939D01*
X82407189Y-122460917D01*
X82456202Y-122592328D01*
X82456206Y-122592335D01*
X82542452Y-122707544D01*
X82542455Y-122707547D01*
X82657664Y-122793793D01*
X82657671Y-122793797D01*
X82792517Y-122844091D01*
X82792516Y-122844091D01*
X82799444Y-122844835D01*
X82852127Y-122850500D01*
X84647872Y-122850499D01*
X84707483Y-122844091D01*
X84842331Y-122793796D01*
X84957546Y-122707546D01*
X85043796Y-122592331D01*
X85094091Y-122457483D01*
X85100500Y-122397873D01*
X85100499Y-120602128D01*
X85094091Y-120542517D01*
X85092810Y-120539083D01*
X85043797Y-120407671D01*
X85043793Y-120407664D01*
X84957547Y-120292455D01*
X84957544Y-120292452D01*
X84842335Y-120206206D01*
X84842328Y-120206202D01*
X84707482Y-120155908D01*
X84707483Y-120155908D01*
X84647883Y-120149501D01*
X84647881Y-120149500D01*
X84647873Y-120149500D01*
X84647864Y-120149500D01*
X82852129Y-120149500D01*
X82852123Y-120149501D01*
X82792516Y-120155908D01*
X82657671Y-120206202D01*
X82657664Y-120206206D01*
X82542455Y-120292452D01*
X82542452Y-120292455D01*
X82456206Y-120407664D01*
X82456203Y-120407669D01*
X82407189Y-120539083D01*
X82365317Y-120595016D01*
X82299853Y-120619433D01*
X82231580Y-120604581D01*
X82203326Y-120583430D01*
X82081402Y-120461506D01*
X82081395Y-120461501D01*
X82073827Y-120456202D01*
X82027710Y-120423910D01*
X81887834Y-120325967D01*
X81887830Y-120325965D01*
X81887828Y-120325964D01*
X81673663Y-120226097D01*
X81673659Y-120226096D01*
X81673655Y-120226094D01*
X81445413Y-120164938D01*
X81445403Y-120164936D01*
X81210001Y-120144341D01*
X81209999Y-120144341D01*
X80974596Y-120164936D01*
X80974586Y-120164938D01*
X80746344Y-120226094D01*
X80746335Y-120226098D01*
X80532171Y-120325964D01*
X80532169Y-120325965D01*
X80338597Y-120461505D01*
X80171505Y-120628597D01*
X80035965Y-120822169D01*
X80035964Y-120822171D01*
X79936098Y-121036335D01*
X79936094Y-121036344D01*
X79874938Y-121264586D01*
X79874936Y-121264596D01*
X79854341Y-121499999D01*
X76500500Y-121499999D01*
X76500500Y-117499999D01*
X79854341Y-117499999D01*
X79854341Y-117500000D01*
X79874936Y-117735403D01*
X79874938Y-117735413D01*
X79936094Y-117963655D01*
X79936096Y-117963659D01*
X79936097Y-117963663D01*
X80004335Y-118109999D01*
X80035965Y-118177830D01*
X80035967Y-118177834D01*
X80144281Y-118332521D01*
X80171505Y-118371401D01*
X80338599Y-118538495D01*
X80435384Y-118606265D01*
X80532165Y-118674032D01*
X80532167Y-118674033D01*
X80532170Y-118674035D01*
X80746337Y-118773903D01*
X80974592Y-118835063D01*
X81151034Y-118850500D01*
X81209999Y-118855659D01*
X81210000Y-118855659D01*
X81210001Y-118855659D01*
X81268966Y-118850500D01*
X81445408Y-118835063D01*
X81673663Y-118773903D01*
X81887830Y-118674035D01*
X82081401Y-118538495D01*
X82203329Y-118416566D01*
X82264648Y-118383084D01*
X82334340Y-118388068D01*
X82390274Y-118429939D01*
X82407189Y-118460917D01*
X82456202Y-118592328D01*
X82456206Y-118592335D01*
X82542452Y-118707544D01*
X82542455Y-118707547D01*
X82657664Y-118793793D01*
X82657671Y-118793797D01*
X82792517Y-118844091D01*
X82792516Y-118844091D01*
X82799444Y-118844835D01*
X82852127Y-118850500D01*
X84647872Y-118850499D01*
X84707483Y-118844091D01*
X84842331Y-118793796D01*
X84957546Y-118707546D01*
X85043796Y-118592331D01*
X85094091Y-118457483D01*
X85100500Y-118397873D01*
X85100499Y-116602128D01*
X85094091Y-116542517D01*
X85092810Y-116539083D01*
X85043797Y-116407671D01*
X85043793Y-116407664D01*
X84957547Y-116292455D01*
X84957544Y-116292452D01*
X84842335Y-116206206D01*
X84842328Y-116206202D01*
X84707482Y-116155908D01*
X84707483Y-116155908D01*
X84647883Y-116149501D01*
X84647881Y-116149500D01*
X84647873Y-116149500D01*
X84647864Y-116149500D01*
X82852129Y-116149500D01*
X82852123Y-116149501D01*
X82792516Y-116155908D01*
X82657671Y-116206202D01*
X82657664Y-116206206D01*
X82542455Y-116292452D01*
X82542452Y-116292455D01*
X82456206Y-116407664D01*
X82456203Y-116407669D01*
X82407189Y-116539083D01*
X82365317Y-116595016D01*
X82299853Y-116619433D01*
X82231580Y-116604581D01*
X82203326Y-116583430D01*
X82081402Y-116461506D01*
X82081395Y-116461501D01*
X82073827Y-116456202D01*
X82042521Y-116434281D01*
X81887834Y-116325967D01*
X81887830Y-116325965D01*
X81878268Y-116321506D01*
X81673663Y-116226097D01*
X81673659Y-116226096D01*
X81673655Y-116226094D01*
X81445413Y-116164938D01*
X81445403Y-116164936D01*
X81210001Y-116144341D01*
X81209999Y-116144341D01*
X80974596Y-116164936D01*
X80974586Y-116164938D01*
X80746344Y-116226094D01*
X80746335Y-116226098D01*
X80532171Y-116325964D01*
X80532169Y-116325965D01*
X80338597Y-116461505D01*
X80171505Y-116628597D01*
X80035965Y-116822169D01*
X80035964Y-116822171D01*
X79936098Y-117036335D01*
X79936094Y-117036344D01*
X79874938Y-117264586D01*
X79874936Y-117264596D01*
X79854341Y-117499999D01*
X76500500Y-117499999D01*
X76500500Y-110999999D01*
X79854341Y-110999999D01*
X79854341Y-111000000D01*
X79874936Y-111235403D01*
X79874938Y-111235413D01*
X79936094Y-111463655D01*
X79936096Y-111463659D01*
X79936097Y-111463663D01*
X80020499Y-111644663D01*
X80035965Y-111677830D01*
X80035967Y-111677834D01*
X80077746Y-111737500D01*
X80171505Y-111871401D01*
X80338599Y-112038495D01*
X80435384Y-112106265D01*
X80532165Y-112174032D01*
X80532167Y-112174033D01*
X80532170Y-112174035D01*
X80746337Y-112273903D01*
X80974592Y-112335063D01*
X81151034Y-112350500D01*
X81209999Y-112355659D01*
X81210000Y-112355659D01*
X81210001Y-112355659D01*
X81268966Y-112350500D01*
X81445408Y-112335063D01*
X81673663Y-112273903D01*
X81887830Y-112174035D01*
X82081401Y-112038495D01*
X82203329Y-111916566D01*
X82264648Y-111883084D01*
X82334340Y-111888068D01*
X82390274Y-111929939D01*
X82407189Y-111960917D01*
X82456202Y-112092328D01*
X82456206Y-112092335D01*
X82542452Y-112207544D01*
X82542455Y-112207547D01*
X82657664Y-112293793D01*
X82657671Y-112293797D01*
X82792517Y-112344091D01*
X82792516Y-112344091D01*
X82799444Y-112344835D01*
X82852127Y-112350500D01*
X84647872Y-112350499D01*
X84707483Y-112344091D01*
X84842331Y-112293796D01*
X84957546Y-112207546D01*
X85043796Y-112092331D01*
X85094091Y-111957483D01*
X85100500Y-111897873D01*
X85100499Y-110489999D01*
X89754341Y-110489999D01*
X89754341Y-110490000D01*
X89774936Y-110725403D01*
X89774938Y-110725413D01*
X89836094Y-110953655D01*
X89836096Y-110953659D01*
X89836097Y-110953663D01*
X89935965Y-111167830D01*
X89935967Y-111167834D01*
X90071501Y-111361395D01*
X90071506Y-111361402D01*
X90238597Y-111528493D01*
X90238603Y-111528498D01*
X90424158Y-111658425D01*
X90467783Y-111713002D01*
X90474977Y-111782500D01*
X90443454Y-111844855D01*
X90424158Y-111861575D01*
X90238597Y-111991505D01*
X90071505Y-112158597D01*
X89935965Y-112352169D01*
X89935964Y-112352171D01*
X89836098Y-112566335D01*
X89836094Y-112566344D01*
X89774938Y-112794586D01*
X89774936Y-112794596D01*
X89754341Y-113029999D01*
X89754341Y-113030000D01*
X89774936Y-113265403D01*
X89774938Y-113265413D01*
X89836094Y-113493655D01*
X89836096Y-113493659D01*
X89836097Y-113493663D01*
X89935965Y-113707830D01*
X89935967Y-113707834D01*
X90071501Y-113901395D01*
X90071506Y-113901402D01*
X90238597Y-114068493D01*
X90238603Y-114068498D01*
X90424158Y-114198425D01*
X90467783Y-114253002D01*
X90474977Y-114322500D01*
X90443454Y-114384855D01*
X90424158Y-114401575D01*
X90238597Y-114531505D01*
X90071505Y-114698597D01*
X89935965Y-114892169D01*
X89935964Y-114892171D01*
X89836098Y-115106335D01*
X89836094Y-115106344D01*
X89774938Y-115334586D01*
X89774936Y-115334596D01*
X89754341Y-115569999D01*
X89754341Y-115570000D01*
X89774936Y-115805403D01*
X89774938Y-115805413D01*
X89836094Y-116033655D01*
X89836096Y-116033659D01*
X89836097Y-116033663D01*
X89916555Y-116206206D01*
X89935965Y-116247830D01*
X89935967Y-116247834D01*
X90071501Y-116441395D01*
X90071506Y-116441402D01*
X90238597Y-116608493D01*
X90238603Y-116608498D01*
X90424158Y-116738425D01*
X90467783Y-116793002D01*
X90474977Y-116862500D01*
X90443454Y-116924855D01*
X90424158Y-116941575D01*
X90238597Y-117071505D01*
X90071505Y-117238597D01*
X89935965Y-117432169D01*
X89935964Y-117432171D01*
X89836098Y-117646335D01*
X89836094Y-117646344D01*
X89774938Y-117874586D01*
X89774936Y-117874596D01*
X89754341Y-118109999D01*
X89754341Y-118110000D01*
X89774936Y-118345403D01*
X89774938Y-118345413D01*
X89836094Y-118573655D01*
X89836096Y-118573659D01*
X89836097Y-118573663D01*
X89900100Y-118710917D01*
X89935965Y-118787830D01*
X89935967Y-118787834D01*
X90031335Y-118924032D01*
X90071505Y-118981401D01*
X90238599Y-119148495D01*
X90335384Y-119216265D01*
X90432165Y-119284032D01*
X90432167Y-119284033D01*
X90432170Y-119284035D01*
X90646337Y-119383903D01*
X90874592Y-119445063D01*
X91062918Y-119461539D01*
X91109999Y-119465659D01*
X91110000Y-119465659D01*
X91110001Y-119465659D01*
X91149234Y-119462226D01*
X91345408Y-119445063D01*
X91573663Y-119383903D01*
X91787830Y-119284035D01*
X91981401Y-119148495D01*
X92148495Y-118981401D01*
X92284035Y-118787830D01*
X92383903Y-118573663D01*
X92445063Y-118345408D01*
X92465659Y-118110000D01*
X92445063Y-117874592D01*
X92383903Y-117646337D01*
X92284035Y-117432171D01*
X92233500Y-117359999D01*
X94044341Y-117359999D01*
X94044341Y-117360000D01*
X94064936Y-117595403D01*
X94064938Y-117595413D01*
X94126094Y-117823655D01*
X94126096Y-117823659D01*
X94126097Y-117823663D01*
X94202621Y-117987769D01*
X94225965Y-118037830D01*
X94225967Y-118037834D01*
X94276498Y-118109999D01*
X94349085Y-118213664D01*
X94361501Y-118231395D01*
X94361506Y-118231402D01*
X94528597Y-118398493D01*
X94528603Y-118398498D01*
X94714158Y-118528425D01*
X94757783Y-118583002D01*
X94764977Y-118652500D01*
X94733454Y-118714855D01*
X94714158Y-118731575D01*
X94528597Y-118861505D01*
X94361505Y-119028597D01*
X94225965Y-119222169D01*
X94225964Y-119222171D01*
X94126098Y-119436335D01*
X94126094Y-119436344D01*
X94064938Y-119664586D01*
X94064936Y-119664596D01*
X94044341Y-119899999D01*
X94044341Y-119900000D01*
X94064936Y-120135403D01*
X94064938Y-120135413D01*
X94126094Y-120363655D01*
X94126096Y-120363659D01*
X94126097Y-120363663D01*
X94207897Y-120539083D01*
X94225965Y-120577830D01*
X94225967Y-120577834D01*
X94319564Y-120711503D01*
X94361505Y-120771401D01*
X94528599Y-120938495D01*
X94625384Y-121006265D01*
X94722165Y-121074032D01*
X94722167Y-121074033D01*
X94722170Y-121074035D01*
X94936337Y-121173903D01*
X95164592Y-121235063D01*
X95352918Y-121251539D01*
X95399999Y-121255659D01*
X95400000Y-121255659D01*
X95400001Y-121255659D01*
X95439234Y-121252226D01*
X95635408Y-121235063D01*
X95863663Y-121173903D01*
X96077830Y-121074035D01*
X96271401Y-120938495D01*
X96438495Y-120771401D01*
X96574035Y-120577830D01*
X96673903Y-120363663D01*
X96735063Y-120135408D01*
X96755659Y-119900000D01*
X96735063Y-119664592D01*
X96673903Y-119436337D01*
X96574035Y-119222171D01*
X96522446Y-119148493D01*
X96438494Y-119028597D01*
X96271402Y-118861506D01*
X96271396Y-118861501D01*
X96085842Y-118731575D01*
X96042217Y-118676998D01*
X96035023Y-118607500D01*
X96066546Y-118545145D01*
X96085842Y-118528425D01*
X96226494Y-118429939D01*
X96271401Y-118398495D01*
X96438495Y-118231401D01*
X96574035Y-118037830D01*
X96673903Y-117823663D01*
X96735063Y-117595408D01*
X96755659Y-117360000D01*
X96735063Y-117124592D01*
X96673903Y-116896337D01*
X96574035Y-116682171D01*
X96536523Y-116628597D01*
X96438494Y-116488597D01*
X96271402Y-116321506D01*
X96271395Y-116321501D01*
X96077834Y-116185967D01*
X96077830Y-116185965D01*
X96077828Y-116185964D01*
X95863663Y-116086097D01*
X95863659Y-116086096D01*
X95863655Y-116086094D01*
X95635413Y-116024938D01*
X95635403Y-116024936D01*
X95400001Y-116004341D01*
X95399999Y-116004341D01*
X95164596Y-116024936D01*
X95164586Y-116024938D01*
X94936344Y-116086094D01*
X94936335Y-116086098D01*
X94722171Y-116185964D01*
X94722169Y-116185965D01*
X94528597Y-116321505D01*
X94361505Y-116488597D01*
X94225965Y-116682169D01*
X94225964Y-116682171D01*
X94126098Y-116896335D01*
X94126094Y-116896344D01*
X94064938Y-117124586D01*
X94064936Y-117124596D01*
X94044341Y-117359999D01*
X92233500Y-117359999D01*
X92181927Y-117286344D01*
X92148494Y-117238597D01*
X91981402Y-117071506D01*
X91981396Y-117071501D01*
X91795842Y-116941575D01*
X91752217Y-116886998D01*
X91745023Y-116817500D01*
X91776546Y-116755145D01*
X91795842Y-116738425D01*
X91876181Y-116682171D01*
X91981401Y-116608495D01*
X92148495Y-116441401D01*
X92284035Y-116247830D01*
X92383903Y-116033663D01*
X92445063Y-115805408D01*
X92465659Y-115570000D01*
X92445063Y-115334592D01*
X92383903Y-115106337D01*
X92284035Y-114892171D01*
X92148495Y-114698599D01*
X92148494Y-114698597D01*
X91981402Y-114531506D01*
X91981396Y-114531501D01*
X91795842Y-114401575D01*
X91752217Y-114346998D01*
X91745023Y-114277500D01*
X91776546Y-114215145D01*
X91795842Y-114198425D01*
X91818026Y-114182891D01*
X91981401Y-114068495D01*
X92148495Y-113901401D01*
X92284035Y-113707830D01*
X92383903Y-113493663D01*
X92445063Y-113265408D01*
X92465659Y-113030000D01*
X92445063Y-112794592D01*
X92383903Y-112566337D01*
X92284035Y-112352171D01*
X92282865Y-112350499D01*
X92148494Y-112158597D01*
X91981402Y-111991506D01*
X91981396Y-111991501D01*
X91795842Y-111861575D01*
X91752217Y-111806998D01*
X91745023Y-111737500D01*
X91776546Y-111675145D01*
X91795842Y-111658425D01*
X91818026Y-111642891D01*
X91981401Y-111528495D01*
X92148495Y-111361401D01*
X92284035Y-111167830D01*
X92383903Y-110953663D01*
X92445063Y-110725408D01*
X92465659Y-110490000D01*
X92465659Y-110489999D01*
X107534341Y-110489999D01*
X107534341Y-110490000D01*
X107554936Y-110725403D01*
X107554938Y-110725413D01*
X107616094Y-110953655D01*
X107616096Y-110953659D01*
X107616097Y-110953663D01*
X107715965Y-111167830D01*
X107715967Y-111167834D01*
X107851501Y-111361395D01*
X107851506Y-111361402D01*
X108018597Y-111528493D01*
X108018603Y-111528498D01*
X108204158Y-111658425D01*
X108247783Y-111713002D01*
X108254977Y-111782500D01*
X108223454Y-111844855D01*
X108204158Y-111861575D01*
X108018597Y-111991505D01*
X107851505Y-112158597D01*
X107715965Y-112352169D01*
X107715964Y-112352171D01*
X107616098Y-112566335D01*
X107616094Y-112566344D01*
X107554938Y-112794586D01*
X107554936Y-112794596D01*
X107534341Y-113029999D01*
X107534341Y-113030000D01*
X107554936Y-113265403D01*
X107554938Y-113265413D01*
X107616094Y-113493655D01*
X107616096Y-113493659D01*
X107616097Y-113493663D01*
X107715965Y-113707830D01*
X107715967Y-113707834D01*
X107851501Y-113901395D01*
X107851506Y-113901402D01*
X108018597Y-114068493D01*
X108018603Y-114068498D01*
X108204158Y-114198425D01*
X108247783Y-114253002D01*
X108254977Y-114322500D01*
X108223454Y-114384855D01*
X108204158Y-114401575D01*
X108018597Y-114531505D01*
X107851505Y-114698597D01*
X107715965Y-114892169D01*
X107715964Y-114892171D01*
X107616098Y-115106335D01*
X107616094Y-115106344D01*
X107554938Y-115334586D01*
X107554936Y-115334596D01*
X107534341Y-115569999D01*
X107534341Y-115570000D01*
X107554936Y-115805403D01*
X107554938Y-115805413D01*
X107616094Y-116033655D01*
X107616096Y-116033659D01*
X107616097Y-116033663D01*
X107696555Y-116206206D01*
X107715965Y-116247830D01*
X107715967Y-116247834D01*
X107851501Y-116441395D01*
X107851506Y-116441402D01*
X108018597Y-116608493D01*
X108018603Y-116608498D01*
X108204158Y-116738425D01*
X108247783Y-116793002D01*
X108254977Y-116862500D01*
X108223454Y-116924855D01*
X108204158Y-116941575D01*
X108018597Y-117071505D01*
X107851505Y-117238597D01*
X107715965Y-117432169D01*
X107715964Y-117432171D01*
X107616098Y-117646335D01*
X107616094Y-117646344D01*
X107554938Y-117874586D01*
X107554936Y-117874596D01*
X107534341Y-118109999D01*
X107534341Y-118110000D01*
X107554936Y-118345403D01*
X107554938Y-118345413D01*
X107616094Y-118573655D01*
X107616096Y-118573659D01*
X107616097Y-118573663D01*
X107680100Y-118710917D01*
X107715965Y-118787830D01*
X107715967Y-118787834D01*
X107811335Y-118924032D01*
X107851505Y-118981401D01*
X108018599Y-119148495D01*
X108115384Y-119216265D01*
X108212165Y-119284032D01*
X108212167Y-119284033D01*
X108212170Y-119284035D01*
X108426337Y-119383903D01*
X108654592Y-119445063D01*
X108842918Y-119461539D01*
X108889999Y-119465659D01*
X108890000Y-119465659D01*
X108890001Y-119465659D01*
X108929234Y-119462226D01*
X109125408Y-119445063D01*
X109353663Y-119383903D01*
X109567830Y-119284035D01*
X109761401Y-119148495D01*
X109928495Y-118981401D01*
X110064035Y-118787830D01*
X110163903Y-118573663D01*
X110225063Y-118345408D01*
X110245659Y-118110000D01*
X110225063Y-117874592D01*
X110163903Y-117646337D01*
X110064035Y-117432171D01*
X109961927Y-117286344D01*
X109928494Y-117238597D01*
X109761402Y-117071506D01*
X109761396Y-117071501D01*
X109575842Y-116941575D01*
X109532217Y-116886998D01*
X109525023Y-116817500D01*
X109556546Y-116755145D01*
X109575842Y-116738425D01*
X109656181Y-116682171D01*
X109761401Y-116608495D01*
X109928495Y-116441401D01*
X110064035Y-116247830D01*
X110163903Y-116033663D01*
X110225063Y-115805408D01*
X110245659Y-115570000D01*
X110225063Y-115334592D01*
X110163903Y-115106337D01*
X110064035Y-114892171D01*
X109928495Y-114698599D01*
X109928494Y-114698597D01*
X109761402Y-114531506D01*
X109761396Y-114531501D01*
X109575842Y-114401575D01*
X109532217Y-114346998D01*
X109525023Y-114277500D01*
X109556546Y-114215145D01*
X109575842Y-114198425D01*
X109598026Y-114182891D01*
X109761401Y-114068495D01*
X109928495Y-113901401D01*
X110064035Y-113707830D01*
X110163903Y-113493663D01*
X110225063Y-113265408D01*
X110245659Y-113030000D01*
X110225063Y-112794592D01*
X110163903Y-112566337D01*
X110064035Y-112352171D01*
X110062865Y-112350499D01*
X109928494Y-112158597D01*
X109761402Y-111991506D01*
X109761396Y-111991501D01*
X109575842Y-111861575D01*
X109532217Y-111806998D01*
X109525023Y-111737500D01*
X109556546Y-111675145D01*
X109575842Y-111658425D01*
X109598026Y-111642891D01*
X109761401Y-111528495D01*
X109928495Y-111361401D01*
X110064035Y-111167830D01*
X110163903Y-110953663D01*
X110225063Y-110725408D01*
X110245659Y-110490000D01*
X110225063Y-110254592D01*
X110163903Y-110026337D01*
X110064035Y-109812171D01*
X110003767Y-109726098D01*
X109928494Y-109618597D01*
X109761402Y-109451506D01*
X109761395Y-109451501D01*
X109567834Y-109315967D01*
X109567830Y-109315965D01*
X109567828Y-109315964D01*
X109353663Y-109216097D01*
X109353659Y-109216096D01*
X109353655Y-109216094D01*
X109125413Y-109154938D01*
X109125403Y-109154936D01*
X108890001Y-109134341D01*
X108889999Y-109134341D01*
X108654596Y-109154936D01*
X108654586Y-109154938D01*
X108426344Y-109216094D01*
X108426335Y-109216098D01*
X108212171Y-109315964D01*
X108212169Y-109315965D01*
X108018597Y-109451505D01*
X107851505Y-109618597D01*
X107715965Y-109812169D01*
X107715964Y-109812171D01*
X107616098Y-110026335D01*
X107616094Y-110026344D01*
X107554938Y-110254586D01*
X107554936Y-110254596D01*
X107534341Y-110489999D01*
X92465659Y-110489999D01*
X92445063Y-110254592D01*
X92383903Y-110026337D01*
X92284035Y-109812171D01*
X92223767Y-109726098D01*
X92148494Y-109618597D01*
X91981402Y-109451506D01*
X91981395Y-109451501D01*
X91787834Y-109315967D01*
X91787830Y-109315965D01*
X91787828Y-109315964D01*
X91573663Y-109216097D01*
X91573659Y-109216096D01*
X91573655Y-109216094D01*
X91345413Y-109154938D01*
X91345403Y-109154936D01*
X91110001Y-109134341D01*
X91109999Y-109134341D01*
X90874596Y-109154936D01*
X90874586Y-109154938D01*
X90646344Y-109216094D01*
X90646335Y-109216098D01*
X90432171Y-109315964D01*
X90432169Y-109315965D01*
X90238597Y-109451505D01*
X90071505Y-109618597D01*
X89935965Y-109812169D01*
X89935964Y-109812171D01*
X89836098Y-110026335D01*
X89836094Y-110026344D01*
X89774938Y-110254586D01*
X89774936Y-110254596D01*
X89754341Y-110489999D01*
X85100499Y-110489999D01*
X85100499Y-110102128D01*
X85094091Y-110042517D01*
X85092810Y-110039083D01*
X85043797Y-109907671D01*
X85043793Y-109907664D01*
X84957547Y-109792455D01*
X84957544Y-109792452D01*
X84842335Y-109706206D01*
X84842328Y-109706202D01*
X84707482Y-109655908D01*
X84707483Y-109655908D01*
X84647883Y-109649501D01*
X84647881Y-109649500D01*
X84647873Y-109649500D01*
X84647864Y-109649500D01*
X82852129Y-109649500D01*
X82852123Y-109649501D01*
X82792516Y-109655908D01*
X82657671Y-109706202D01*
X82657664Y-109706206D01*
X82542455Y-109792452D01*
X82542452Y-109792455D01*
X82456206Y-109907664D01*
X82456203Y-109907669D01*
X82407189Y-110039083D01*
X82365317Y-110095016D01*
X82299853Y-110119433D01*
X82231580Y-110104581D01*
X82203326Y-110083430D01*
X82081402Y-109961506D01*
X82081395Y-109961501D01*
X81887834Y-109825967D01*
X81887830Y-109825965D01*
X81858244Y-109812169D01*
X81673663Y-109726097D01*
X81673659Y-109726096D01*
X81673655Y-109726094D01*
X81445413Y-109664938D01*
X81445403Y-109664936D01*
X81210001Y-109644341D01*
X81209999Y-109644341D01*
X80974596Y-109664936D01*
X80974586Y-109664938D01*
X80746344Y-109726094D01*
X80746335Y-109726098D01*
X80532171Y-109825964D01*
X80532169Y-109825965D01*
X80338597Y-109961505D01*
X80171505Y-110128597D01*
X80035965Y-110322169D01*
X80035964Y-110322171D01*
X79936098Y-110536335D01*
X79936094Y-110536344D01*
X79874938Y-110764586D01*
X79874936Y-110764596D01*
X79854341Y-110999999D01*
X76500500Y-110999999D01*
X76500500Y-106999999D01*
X79854341Y-106999999D01*
X79854341Y-107000000D01*
X79874936Y-107235403D01*
X79874938Y-107235413D01*
X79936094Y-107463655D01*
X79936096Y-107463659D01*
X79936097Y-107463663D01*
X80020499Y-107644663D01*
X80035965Y-107677830D01*
X80035967Y-107677834D01*
X80119746Y-107797482D01*
X80171505Y-107871401D01*
X80338599Y-108038495D01*
X80435384Y-108106265D01*
X80532165Y-108174032D01*
X80532167Y-108174033D01*
X80532170Y-108174035D01*
X80746337Y-108273903D01*
X80974592Y-108335063D01*
X81151034Y-108350500D01*
X81209999Y-108355659D01*
X81210000Y-108355659D01*
X81210001Y-108355659D01*
X81268966Y-108350500D01*
X81445408Y-108335063D01*
X81673663Y-108273903D01*
X81887830Y-108174035D01*
X82081401Y-108038495D01*
X82203329Y-107916566D01*
X82264648Y-107883084D01*
X82334340Y-107888068D01*
X82390274Y-107929939D01*
X82407189Y-107960917D01*
X82456202Y-108092328D01*
X82456206Y-108092335D01*
X82542452Y-108207544D01*
X82542455Y-108207547D01*
X82657664Y-108293793D01*
X82657671Y-108293797D01*
X82792517Y-108344091D01*
X82792516Y-108344091D01*
X82799444Y-108344835D01*
X82852127Y-108350500D01*
X84647872Y-108350499D01*
X84707483Y-108344091D01*
X84842331Y-108293796D01*
X84957546Y-108207546D01*
X85043796Y-108092331D01*
X85094091Y-107957483D01*
X85100500Y-107897873D01*
X85100499Y-106102128D01*
X85094091Y-106042517D01*
X85092810Y-106039083D01*
X85043797Y-105907671D01*
X85043793Y-105907664D01*
X84957547Y-105792455D01*
X84957544Y-105792452D01*
X84842335Y-105706206D01*
X84842328Y-105706202D01*
X84707482Y-105655908D01*
X84707483Y-105655908D01*
X84647883Y-105649501D01*
X84647881Y-105649500D01*
X84647873Y-105649500D01*
X84647864Y-105649500D01*
X82852129Y-105649500D01*
X82852123Y-105649501D01*
X82792516Y-105655908D01*
X82657671Y-105706202D01*
X82657664Y-105706206D01*
X82542455Y-105792452D01*
X82542452Y-105792455D01*
X82456206Y-105907664D01*
X82456203Y-105907669D01*
X82407189Y-106039083D01*
X82365317Y-106095016D01*
X82299853Y-106119433D01*
X82231580Y-106104581D01*
X82203326Y-106083430D01*
X82081402Y-105961506D01*
X82081395Y-105961501D01*
X81887834Y-105825967D01*
X81887830Y-105825965D01*
X81887828Y-105825964D01*
X81673663Y-105726097D01*
X81673659Y-105726096D01*
X81673655Y-105726094D01*
X81445413Y-105664938D01*
X81445403Y-105664936D01*
X81210001Y-105644341D01*
X81209999Y-105644341D01*
X80974596Y-105664936D01*
X80974586Y-105664938D01*
X80746344Y-105726094D01*
X80746335Y-105726098D01*
X80532171Y-105825964D01*
X80532169Y-105825965D01*
X80338597Y-105961505D01*
X80171505Y-106128597D01*
X80035965Y-106322169D01*
X80035964Y-106322171D01*
X79936098Y-106536335D01*
X79936094Y-106536344D01*
X79874938Y-106764586D01*
X79874936Y-106764596D01*
X79854341Y-106999999D01*
X76500500Y-106999999D01*
X76500500Y-102999999D01*
X79854341Y-102999999D01*
X79854341Y-103000000D01*
X79874936Y-103235403D01*
X79874938Y-103235413D01*
X79936094Y-103463655D01*
X79936096Y-103463659D01*
X79936097Y-103463663D01*
X79975345Y-103547830D01*
X80035965Y-103677830D01*
X80035967Y-103677834D01*
X80144281Y-103832521D01*
X80171505Y-103871401D01*
X80338599Y-104038495D01*
X80416443Y-104093002D01*
X80532165Y-104174032D01*
X80532167Y-104174033D01*
X80532170Y-104174035D01*
X80746337Y-104273903D01*
X80974592Y-104335063D01*
X81151034Y-104350500D01*
X81209999Y-104355659D01*
X81210000Y-104355659D01*
X81210001Y-104355659D01*
X81268966Y-104350500D01*
X81445408Y-104335063D01*
X81673663Y-104273903D01*
X81887830Y-104174035D01*
X82081401Y-104038495D01*
X82203329Y-103916566D01*
X82264648Y-103883084D01*
X82334340Y-103888068D01*
X82390274Y-103929939D01*
X82407189Y-103960917D01*
X82456202Y-104092328D01*
X82456206Y-104092335D01*
X82542452Y-104207544D01*
X82542455Y-104207547D01*
X82657664Y-104293793D01*
X82657671Y-104293797D01*
X82792517Y-104344091D01*
X82792516Y-104344091D01*
X82799444Y-104344835D01*
X82852127Y-104350500D01*
X84647872Y-104350499D01*
X84707483Y-104344091D01*
X84842331Y-104293796D01*
X84957546Y-104207546D01*
X85043796Y-104092331D01*
X85094091Y-103957483D01*
X85100500Y-103897873D01*
X85100499Y-102869999D01*
X89754341Y-102869999D01*
X89754341Y-102870000D01*
X89774936Y-103105403D01*
X89774938Y-103105413D01*
X89836094Y-103333655D01*
X89836096Y-103333659D01*
X89836097Y-103333663D01*
X89896717Y-103463663D01*
X89935965Y-103547830D01*
X89935967Y-103547834D01*
X90071501Y-103741395D01*
X90071506Y-103741402D01*
X90238597Y-103908493D01*
X90238603Y-103908498D01*
X90424158Y-104038425D01*
X90467783Y-104093002D01*
X90474977Y-104162500D01*
X90443454Y-104224855D01*
X90424158Y-104241575D01*
X90238597Y-104371505D01*
X90071505Y-104538597D01*
X89935965Y-104732169D01*
X89935964Y-104732171D01*
X89836098Y-104946335D01*
X89836094Y-104946344D01*
X89774938Y-105174586D01*
X89774936Y-105174596D01*
X89754341Y-105409999D01*
X89754341Y-105410000D01*
X89774936Y-105645403D01*
X89774938Y-105645413D01*
X89836094Y-105873655D01*
X89836096Y-105873659D01*
X89836097Y-105873663D01*
X89868026Y-105942135D01*
X89935965Y-106087830D01*
X89935967Y-106087834D01*
X90044281Y-106242521D01*
X90071505Y-106281401D01*
X90238599Y-106448495D01*
X90335384Y-106516265D01*
X90432165Y-106584032D01*
X90432167Y-106584033D01*
X90432170Y-106584035D01*
X90646337Y-106683903D01*
X90874592Y-106745063D01*
X91062918Y-106761539D01*
X91109999Y-106765659D01*
X91110000Y-106765659D01*
X91110001Y-106765659D01*
X91149234Y-106762226D01*
X91345408Y-106745063D01*
X91573663Y-106683903D01*
X91787830Y-106584035D01*
X91981401Y-106448495D01*
X92148495Y-106281401D01*
X92284035Y-106087830D01*
X92383903Y-105873663D01*
X92445063Y-105645408D01*
X92465659Y-105410000D01*
X92445063Y-105174592D01*
X92383903Y-104946337D01*
X92284035Y-104732171D01*
X92148495Y-104538599D01*
X92148494Y-104538597D01*
X91981402Y-104371506D01*
X91981396Y-104371501D01*
X91795842Y-104241575D01*
X91752217Y-104186998D01*
X91745023Y-104117500D01*
X91776546Y-104055145D01*
X91795842Y-104038425D01*
X91818026Y-104022891D01*
X91981401Y-103908495D01*
X92148495Y-103741401D01*
X92284035Y-103547830D01*
X92351974Y-103402135D01*
X94049500Y-103402135D01*
X94049500Y-105197870D01*
X94049501Y-105197876D01*
X94055908Y-105257483D01*
X94106202Y-105392328D01*
X94106203Y-105392330D01*
X94183578Y-105495689D01*
X94207995Y-105561153D01*
X94193144Y-105629426D01*
X94183578Y-105644309D01*
X94182757Y-105645408D01*
X94106203Y-105747669D01*
X94106202Y-105747671D01*
X94055908Y-105882517D01*
X94049501Y-105942116D01*
X94049501Y-105942123D01*
X94049500Y-105942135D01*
X94049500Y-107737870D01*
X94049501Y-107737876D01*
X94055908Y-107797483D01*
X94106202Y-107932328D01*
X94106206Y-107932335D01*
X94192452Y-108047544D01*
X94192455Y-108047547D01*
X94307664Y-108133793D01*
X94307671Y-108133797D01*
X94442517Y-108184091D01*
X94442516Y-108184091D01*
X94449444Y-108184835D01*
X94502127Y-108190500D01*
X96297872Y-108190499D01*
X96357483Y-108184091D01*
X96492331Y-108133796D01*
X96607546Y-108047546D01*
X96693796Y-107932331D01*
X96744091Y-107797483D01*
X96750500Y-107737873D01*
X96750499Y-105942128D01*
X96744091Y-105882517D01*
X96722999Y-105825967D01*
X96693797Y-105747671D01*
X96693795Y-105747668D01*
X96677645Y-105726094D01*
X96616421Y-105644309D01*
X96592004Y-105578848D01*
X96606855Y-105510575D01*
X96616416Y-105495696D01*
X96693796Y-105392331D01*
X96744091Y-105257483D01*
X96750500Y-105197873D01*
X96750499Y-103402128D01*
X96744091Y-103342517D01*
X96693796Y-103207669D01*
X96693795Y-103207668D01*
X96693793Y-103207664D01*
X96607547Y-103092455D01*
X96607544Y-103092452D01*
X96492335Y-103006206D01*
X96492328Y-103006202D01*
X96357482Y-102955908D01*
X96357483Y-102955908D01*
X96297883Y-102949501D01*
X96297881Y-102949500D01*
X96297873Y-102949500D01*
X96297864Y-102949500D01*
X94502129Y-102949500D01*
X94502123Y-102949501D01*
X94442516Y-102955908D01*
X94307671Y-103006202D01*
X94307664Y-103006206D01*
X94192455Y-103092452D01*
X94192452Y-103092455D01*
X94106206Y-103207664D01*
X94106202Y-103207671D01*
X94055908Y-103342517D01*
X94049501Y-103402116D01*
X94049501Y-103402123D01*
X94049500Y-103402135D01*
X92351974Y-103402135D01*
X92383903Y-103333663D01*
X92445063Y-103105408D01*
X92465659Y-102870000D01*
X92465659Y-102869999D01*
X107534341Y-102869999D01*
X107534341Y-102870000D01*
X107554936Y-103105403D01*
X107554938Y-103105413D01*
X107616094Y-103333655D01*
X107616096Y-103333659D01*
X107616097Y-103333663D01*
X107676717Y-103463663D01*
X107715965Y-103547830D01*
X107715967Y-103547834D01*
X107851501Y-103741395D01*
X107851506Y-103741402D01*
X108018597Y-103908493D01*
X108018603Y-103908498D01*
X108204158Y-104038425D01*
X108247783Y-104093002D01*
X108254977Y-104162500D01*
X108223454Y-104224855D01*
X108204158Y-104241575D01*
X108018597Y-104371505D01*
X107851505Y-104538597D01*
X107715965Y-104732169D01*
X107715964Y-104732171D01*
X107616098Y-104946335D01*
X107616094Y-104946344D01*
X107554938Y-105174586D01*
X107554936Y-105174596D01*
X107534341Y-105409999D01*
X107534341Y-105410000D01*
X107554936Y-105645403D01*
X107554938Y-105645413D01*
X107616094Y-105873655D01*
X107616096Y-105873659D01*
X107616097Y-105873663D01*
X107648026Y-105942135D01*
X107715965Y-106087830D01*
X107715967Y-106087834D01*
X107824281Y-106242521D01*
X107851505Y-106281401D01*
X108018599Y-106448495D01*
X108115384Y-106516265D01*
X108212165Y-106584032D01*
X108212167Y-106584033D01*
X108212170Y-106584035D01*
X108426337Y-106683903D01*
X108654592Y-106745063D01*
X108842918Y-106761539D01*
X108889999Y-106765659D01*
X108890000Y-106765659D01*
X108890001Y-106765659D01*
X108929234Y-106762226D01*
X109125408Y-106745063D01*
X109353663Y-106683903D01*
X109567830Y-106584035D01*
X109761401Y-106448495D01*
X109928495Y-106281401D01*
X110064035Y-106087830D01*
X110163903Y-105873663D01*
X110225063Y-105645408D01*
X110245659Y-105410000D01*
X110225063Y-105174592D01*
X110163903Y-104946337D01*
X110064035Y-104732171D01*
X109928495Y-104538599D01*
X109928494Y-104538597D01*
X109761402Y-104371506D01*
X109761396Y-104371501D01*
X109575842Y-104241575D01*
X109532217Y-104186998D01*
X109525023Y-104117500D01*
X109556546Y-104055145D01*
X109575842Y-104038425D01*
X109598026Y-104022891D01*
X109761401Y-103908495D01*
X109928495Y-103741401D01*
X110064035Y-103547830D01*
X110163903Y-103333663D01*
X110225063Y-103105408D01*
X110245659Y-102870000D01*
X110225063Y-102634592D01*
X110163903Y-102406337D01*
X110064035Y-102192171D01*
X110019521Y-102128597D01*
X110000992Y-102102135D01*
X114899500Y-102102135D01*
X114899500Y-103897870D01*
X114899501Y-103897876D01*
X114905908Y-103957483D01*
X114956202Y-104092328D01*
X114956206Y-104092335D01*
X115042452Y-104207544D01*
X115042455Y-104207547D01*
X115157664Y-104293793D01*
X115157671Y-104293797D01*
X115292517Y-104344091D01*
X115292516Y-104344091D01*
X115299444Y-104344835D01*
X115352127Y-104350500D01*
X117147872Y-104350499D01*
X117207483Y-104344091D01*
X117342331Y-104293796D01*
X117457546Y-104207546D01*
X117543796Y-104092331D01*
X117592810Y-103960916D01*
X117634681Y-103904984D01*
X117700145Y-103880566D01*
X117768418Y-103895417D01*
X117796673Y-103916569D01*
X117918599Y-104038495D01*
X117996443Y-104093002D01*
X118112165Y-104174032D01*
X118112167Y-104174033D01*
X118112170Y-104174035D01*
X118326337Y-104273903D01*
X118554592Y-104335063D01*
X118731034Y-104350500D01*
X118789999Y-104355659D01*
X118790000Y-104355659D01*
X118790001Y-104355659D01*
X118848966Y-104350500D01*
X119025408Y-104335063D01*
X119253663Y-104273903D01*
X119467830Y-104174035D01*
X119661401Y-104038495D01*
X119828495Y-103871401D01*
X119964035Y-103677830D01*
X120063903Y-103463663D01*
X120125063Y-103235408D01*
X120145659Y-103000000D01*
X120125063Y-102764592D01*
X120063903Y-102536337D01*
X119964035Y-102322171D01*
X119873009Y-102192171D01*
X119828494Y-102128597D01*
X119661402Y-101961506D01*
X119661395Y-101961501D01*
X119467834Y-101825967D01*
X119467830Y-101825965D01*
X119467828Y-101825964D01*
X119253663Y-101726097D01*
X119253659Y-101726096D01*
X119253655Y-101726094D01*
X119025413Y-101664938D01*
X119025403Y-101664936D01*
X118790001Y-101644341D01*
X118789999Y-101644341D01*
X118554596Y-101664936D01*
X118554586Y-101664938D01*
X118326344Y-101726094D01*
X118326335Y-101726098D01*
X118112171Y-101825964D01*
X118112169Y-101825965D01*
X117918600Y-101961503D01*
X117796673Y-102083430D01*
X117735350Y-102116914D01*
X117665658Y-102111930D01*
X117609725Y-102070058D01*
X117592810Y-102039081D01*
X117543797Y-101907671D01*
X117543793Y-101907664D01*
X117457547Y-101792455D01*
X117457544Y-101792452D01*
X117342335Y-101706206D01*
X117342328Y-101706202D01*
X117207482Y-101655908D01*
X117207483Y-101655908D01*
X117147883Y-101649501D01*
X117147881Y-101649500D01*
X117147873Y-101649500D01*
X117147864Y-101649500D01*
X115352129Y-101649500D01*
X115352123Y-101649501D01*
X115292516Y-101655908D01*
X115157671Y-101706202D01*
X115157664Y-101706206D01*
X115042455Y-101792452D01*
X115042452Y-101792455D01*
X114956206Y-101907664D01*
X114956202Y-101907671D01*
X114905908Y-102042517D01*
X114899501Y-102102116D01*
X114899501Y-102102123D01*
X114899500Y-102102135D01*
X110000992Y-102102135D01*
X109928494Y-101998597D01*
X109761402Y-101831506D01*
X109761395Y-101831501D01*
X109753487Y-101825964D01*
X109705632Y-101792455D01*
X109567834Y-101695967D01*
X109567830Y-101695965D01*
X109567828Y-101695964D01*
X109353663Y-101596097D01*
X109353659Y-101596096D01*
X109353655Y-101596094D01*
X109125413Y-101534938D01*
X109125403Y-101534936D01*
X108890001Y-101514341D01*
X108889999Y-101514341D01*
X108654596Y-101534936D01*
X108654586Y-101534938D01*
X108426344Y-101596094D01*
X108426335Y-101596098D01*
X108212171Y-101695964D01*
X108212169Y-101695965D01*
X108018597Y-101831505D01*
X107851505Y-101998597D01*
X107715965Y-102192169D01*
X107715964Y-102192171D01*
X107616098Y-102406335D01*
X107616094Y-102406344D01*
X107554938Y-102634586D01*
X107554936Y-102634596D01*
X107534341Y-102869999D01*
X92465659Y-102869999D01*
X92445063Y-102634592D01*
X92383903Y-102406337D01*
X92284035Y-102192171D01*
X92239521Y-102128597D01*
X92148494Y-101998597D01*
X91981402Y-101831506D01*
X91981395Y-101831501D01*
X91973487Y-101825964D01*
X91925632Y-101792455D01*
X91787834Y-101695967D01*
X91787830Y-101695965D01*
X91787828Y-101695964D01*
X91573663Y-101596097D01*
X91573659Y-101596096D01*
X91573655Y-101596094D01*
X91345413Y-101534938D01*
X91345403Y-101534936D01*
X91110001Y-101514341D01*
X91109999Y-101514341D01*
X90874596Y-101534936D01*
X90874586Y-101534938D01*
X90646344Y-101596094D01*
X90646335Y-101596098D01*
X90432171Y-101695964D01*
X90432169Y-101695965D01*
X90238597Y-101831505D01*
X90071505Y-101998597D01*
X89935965Y-102192169D01*
X89935964Y-102192171D01*
X89836098Y-102406335D01*
X89836094Y-102406344D01*
X89774938Y-102634586D01*
X89774936Y-102634596D01*
X89754341Y-102869999D01*
X85100499Y-102869999D01*
X85100499Y-102102128D01*
X85094091Y-102042517D01*
X85092810Y-102039083D01*
X85043797Y-101907671D01*
X85043793Y-101907664D01*
X84957547Y-101792455D01*
X84957544Y-101792452D01*
X84842335Y-101706206D01*
X84842328Y-101706202D01*
X84707482Y-101655908D01*
X84707483Y-101655908D01*
X84647883Y-101649501D01*
X84647881Y-101649500D01*
X84647873Y-101649500D01*
X84647864Y-101649500D01*
X82852129Y-101649500D01*
X82852123Y-101649501D01*
X82792516Y-101655908D01*
X82657671Y-101706202D01*
X82657664Y-101706206D01*
X82542455Y-101792452D01*
X82542452Y-101792455D01*
X82456206Y-101907664D01*
X82456203Y-101907669D01*
X82407189Y-102039083D01*
X82365317Y-102095016D01*
X82299853Y-102119433D01*
X82231580Y-102104581D01*
X82203326Y-102083430D01*
X82081402Y-101961506D01*
X82081395Y-101961501D01*
X81887834Y-101825967D01*
X81887830Y-101825965D01*
X81887828Y-101825964D01*
X81673663Y-101726097D01*
X81673659Y-101726096D01*
X81673655Y-101726094D01*
X81445413Y-101664938D01*
X81445403Y-101664936D01*
X81210001Y-101644341D01*
X81209999Y-101644341D01*
X80974596Y-101664936D01*
X80974586Y-101664938D01*
X80746344Y-101726094D01*
X80746335Y-101726098D01*
X80532171Y-101825964D01*
X80532169Y-101825965D01*
X80338597Y-101961505D01*
X80171505Y-102128597D01*
X80035965Y-102322169D01*
X80035964Y-102322171D01*
X79936098Y-102536335D01*
X79936094Y-102536344D01*
X79874938Y-102764586D01*
X79874936Y-102764596D01*
X79854341Y-102999999D01*
X76500500Y-102999999D01*
X76500500Y-95669999D01*
X78394341Y-95669999D01*
X78394341Y-95670000D01*
X78414936Y-95905403D01*
X78414938Y-95905413D01*
X78476094Y-96133655D01*
X78476096Y-96133659D01*
X78476097Y-96133663D01*
X78575965Y-96347830D01*
X78575967Y-96347834D01*
X78711501Y-96541395D01*
X78711506Y-96541402D01*
X78878597Y-96708493D01*
X78878603Y-96708498D01*
X79064158Y-96838425D01*
X79107783Y-96893002D01*
X79114977Y-96962500D01*
X79083454Y-97024855D01*
X79064158Y-97041575D01*
X78878597Y-97171505D01*
X78711505Y-97338597D01*
X78575965Y-97532169D01*
X78575964Y-97532171D01*
X78476098Y-97746335D01*
X78476094Y-97746344D01*
X78414938Y-97974586D01*
X78414936Y-97974596D01*
X78394341Y-98209999D01*
X78394341Y-98210000D01*
X78414936Y-98445403D01*
X78414938Y-98445413D01*
X78476094Y-98673655D01*
X78476096Y-98673659D01*
X78476097Y-98673663D01*
X78575965Y-98887830D01*
X78575967Y-98887834D01*
X78684281Y-99042521D01*
X78711505Y-99081401D01*
X78878599Y-99248495D01*
X78975384Y-99316265D01*
X79072165Y-99384032D01*
X79072167Y-99384033D01*
X79072170Y-99384035D01*
X79286337Y-99483903D01*
X79514592Y-99545063D01*
X79702918Y-99561539D01*
X79749999Y-99565659D01*
X79750000Y-99565659D01*
X79750001Y-99565659D01*
X79789234Y-99562226D01*
X79985408Y-99545063D01*
X80213663Y-99483903D01*
X80427830Y-99384035D01*
X80621401Y-99248495D01*
X80788495Y-99081401D01*
X80924035Y-98887830D01*
X81023903Y-98673663D01*
X81085063Y-98445408D01*
X81105659Y-98210000D01*
X81085063Y-97974592D01*
X81023903Y-97746337D01*
X80924035Y-97532171D01*
X80788495Y-97338599D01*
X80788494Y-97338597D01*
X80621402Y-97171506D01*
X80621396Y-97171501D01*
X80435842Y-97041575D01*
X80392217Y-96986998D01*
X80385023Y-96917500D01*
X80416546Y-96855145D01*
X80435842Y-96838425D01*
X80458026Y-96822891D01*
X80621401Y-96708495D01*
X80788495Y-96541401D01*
X80924035Y-96347830D01*
X81023903Y-96133663D01*
X81085063Y-95905408D01*
X81105659Y-95670000D01*
X81105659Y-95669999D01*
X101894341Y-95669999D01*
X101894341Y-95670000D01*
X101914936Y-95905403D01*
X101914938Y-95905413D01*
X101976094Y-96133655D01*
X101976096Y-96133659D01*
X101976097Y-96133663D01*
X102075965Y-96347830D01*
X102075967Y-96347834D01*
X102211501Y-96541395D01*
X102211506Y-96541402D01*
X102378597Y-96708493D01*
X102378603Y-96708498D01*
X102564158Y-96838425D01*
X102607783Y-96893002D01*
X102614977Y-96962500D01*
X102583454Y-97024855D01*
X102564158Y-97041575D01*
X102378597Y-97171505D01*
X102211505Y-97338597D01*
X102075965Y-97532169D01*
X102075964Y-97532171D01*
X101976098Y-97746335D01*
X101976094Y-97746344D01*
X101914938Y-97974586D01*
X101914936Y-97974596D01*
X101894341Y-98209999D01*
X101894341Y-98210000D01*
X101914936Y-98445403D01*
X101914938Y-98445413D01*
X101976094Y-98673655D01*
X101976096Y-98673659D01*
X101976097Y-98673663D01*
X102075965Y-98887830D01*
X102075967Y-98887834D01*
X102184281Y-99042521D01*
X102211505Y-99081401D01*
X102378599Y-99248495D01*
X102475384Y-99316265D01*
X102572165Y-99384032D01*
X102572167Y-99384033D01*
X102572170Y-99384035D01*
X102786337Y-99483903D01*
X103014592Y-99545063D01*
X103202918Y-99561539D01*
X103249999Y-99565659D01*
X103250000Y-99565659D01*
X103250001Y-99565659D01*
X103289234Y-99562226D01*
X103485408Y-99545063D01*
X103713663Y-99483903D01*
X103927830Y-99384035D01*
X104121401Y-99248495D01*
X104288495Y-99081401D01*
X104424035Y-98887830D01*
X104523903Y-98673663D01*
X104585063Y-98445408D01*
X104605659Y-98210000D01*
X104585063Y-97974592D01*
X104523903Y-97746337D01*
X104424035Y-97532171D01*
X104288495Y-97338599D01*
X104288494Y-97338597D01*
X104121402Y-97171506D01*
X104121396Y-97171501D01*
X103935842Y-97041575D01*
X103892217Y-96986998D01*
X103885023Y-96917500D01*
X103916546Y-96855145D01*
X103935842Y-96838425D01*
X103958026Y-96822891D01*
X104121401Y-96708495D01*
X104288495Y-96541401D01*
X104424035Y-96347830D01*
X104523903Y-96133663D01*
X104585063Y-95905408D01*
X104605659Y-95670000D01*
X104585063Y-95434592D01*
X104523903Y-95206337D01*
X104424035Y-94992171D01*
X104288495Y-94798599D01*
X104288494Y-94798597D01*
X104121402Y-94631506D01*
X104121395Y-94631501D01*
X103927834Y-94495967D01*
X103927830Y-94495965D01*
X103927828Y-94495964D01*
X103713663Y-94396097D01*
X103713659Y-94396096D01*
X103713655Y-94396094D01*
X103485413Y-94334938D01*
X103485403Y-94334936D01*
X103250001Y-94314341D01*
X103249999Y-94314341D01*
X103014596Y-94334936D01*
X103014586Y-94334938D01*
X102786344Y-94396094D01*
X102786335Y-94396098D01*
X102572171Y-94495964D01*
X102572169Y-94495965D01*
X102378597Y-94631505D01*
X102211505Y-94798597D01*
X102075965Y-94992169D01*
X102075964Y-94992171D01*
X101976098Y-95206335D01*
X101976094Y-95206344D01*
X101914938Y-95434586D01*
X101914936Y-95434596D01*
X101894341Y-95669999D01*
X81105659Y-95669999D01*
X81085063Y-95434592D01*
X81023903Y-95206337D01*
X80924035Y-94992171D01*
X80788495Y-94798599D01*
X80788494Y-94798597D01*
X80621402Y-94631506D01*
X80621395Y-94631501D01*
X80427834Y-94495967D01*
X80427830Y-94495965D01*
X80427828Y-94495964D01*
X80213663Y-94396097D01*
X80213659Y-94396096D01*
X80213655Y-94396094D01*
X79985413Y-94334938D01*
X79985403Y-94334936D01*
X79750001Y-94314341D01*
X79749999Y-94314341D01*
X79514596Y-94334936D01*
X79514586Y-94334938D01*
X79286344Y-94396094D01*
X79286335Y-94396098D01*
X79072171Y-94495964D01*
X79072169Y-94495965D01*
X78878597Y-94631505D01*
X78711505Y-94798597D01*
X78575965Y-94992169D01*
X78575964Y-94992171D01*
X78476098Y-95206335D01*
X78476094Y-95206344D01*
X78414938Y-95434586D01*
X78414936Y-95434596D01*
X78394341Y-95669999D01*
X76500500Y-95669999D01*
X76500500Y-57312135D01*
X78399500Y-57312135D01*
X78399500Y-59107870D01*
X78399501Y-59107876D01*
X78405908Y-59167483D01*
X78456202Y-59302328D01*
X78456203Y-59302330D01*
X78533578Y-59405689D01*
X78557995Y-59471153D01*
X78543144Y-59539426D01*
X78533578Y-59554311D01*
X78456203Y-59657669D01*
X78456202Y-59657671D01*
X78405908Y-59792517D01*
X78399501Y-59852116D01*
X78399501Y-59852123D01*
X78399500Y-59852135D01*
X78399500Y-61647870D01*
X78399501Y-61647876D01*
X78405908Y-61707483D01*
X78456202Y-61842328D01*
X78456206Y-61842335D01*
X78542452Y-61957544D01*
X78542455Y-61957547D01*
X78657664Y-62043793D01*
X78657671Y-62043797D01*
X78792517Y-62094091D01*
X78792516Y-62094091D01*
X78799444Y-62094835D01*
X78852127Y-62100500D01*
X80647872Y-62100499D01*
X80707483Y-62094091D01*
X80842331Y-62043796D01*
X80957546Y-61957546D01*
X81043796Y-61842331D01*
X81094091Y-61707483D01*
X81100500Y-61647873D01*
X81100499Y-59852128D01*
X81094091Y-59792517D01*
X81043796Y-59657669D01*
X80966421Y-59554309D01*
X80942004Y-59488848D01*
X80956855Y-59420575D01*
X80966416Y-59405696D01*
X81043796Y-59302331D01*
X81094091Y-59167483D01*
X81100500Y-59107873D01*
X81100499Y-57312135D01*
X101899500Y-57312135D01*
X101899500Y-59107870D01*
X101899501Y-59107876D01*
X101905908Y-59167483D01*
X101956202Y-59302328D01*
X101956203Y-59302330D01*
X102033578Y-59405689D01*
X102057995Y-59471153D01*
X102043144Y-59539426D01*
X102033578Y-59554311D01*
X101956203Y-59657669D01*
X101956202Y-59657671D01*
X101905908Y-59792517D01*
X101899501Y-59852116D01*
X101899501Y-59852123D01*
X101899500Y-59852135D01*
X101899500Y-61647870D01*
X101899501Y-61647876D01*
X101905908Y-61707483D01*
X101956202Y-61842328D01*
X101956206Y-61842335D01*
X102042452Y-61957544D01*
X102042455Y-61957547D01*
X102157664Y-62043793D01*
X102157671Y-62043797D01*
X102292517Y-62094091D01*
X102292516Y-62094091D01*
X102299444Y-62094835D01*
X102352127Y-62100500D01*
X104147872Y-62100499D01*
X104207483Y-62094091D01*
X104342331Y-62043796D01*
X104457546Y-61957546D01*
X104543796Y-61842331D01*
X104594091Y-61707483D01*
X104600500Y-61647873D01*
X104600499Y-59852128D01*
X104594091Y-59792517D01*
X104543796Y-59657669D01*
X104466421Y-59554309D01*
X104442004Y-59488848D01*
X104456855Y-59420575D01*
X104466416Y-59405696D01*
X104543796Y-59302331D01*
X104594091Y-59167483D01*
X104600500Y-59107873D01*
X104600499Y-57312128D01*
X104594091Y-57252517D01*
X104543796Y-57117669D01*
X104543795Y-57117668D01*
X104543793Y-57117664D01*
X104457547Y-57002455D01*
X104457544Y-57002452D01*
X104342335Y-56916206D01*
X104342328Y-56916202D01*
X104207482Y-56865908D01*
X104207483Y-56865908D01*
X104147883Y-56859501D01*
X104147881Y-56859500D01*
X104147873Y-56859500D01*
X104147864Y-56859500D01*
X102352129Y-56859500D01*
X102352123Y-56859501D01*
X102292516Y-56865908D01*
X102157671Y-56916202D01*
X102157664Y-56916206D01*
X102042455Y-57002452D01*
X102042452Y-57002455D01*
X101956206Y-57117664D01*
X101956202Y-57117671D01*
X101905908Y-57252517D01*
X101899501Y-57312116D01*
X101899501Y-57312123D01*
X101899500Y-57312135D01*
X81100499Y-57312135D01*
X81100499Y-57312128D01*
X81094091Y-57252517D01*
X81043796Y-57117669D01*
X81043795Y-57117668D01*
X81043793Y-57117664D01*
X80957547Y-57002455D01*
X80957544Y-57002452D01*
X80842335Y-56916206D01*
X80842328Y-56916202D01*
X80707482Y-56865908D01*
X80707483Y-56865908D01*
X80647883Y-56859501D01*
X80647881Y-56859500D01*
X80647873Y-56859500D01*
X80647864Y-56859500D01*
X78852129Y-56859500D01*
X78852123Y-56859501D01*
X78792516Y-56865908D01*
X78657671Y-56916202D01*
X78657664Y-56916206D01*
X78542455Y-57002452D01*
X78542452Y-57002455D01*
X78456206Y-57117664D01*
X78456202Y-57117671D01*
X78405908Y-57252517D01*
X78399501Y-57312116D01*
X78399501Y-57312123D01*
X78399500Y-57312135D01*
X76500500Y-57312135D01*
X76500500Y-49302135D01*
X96099500Y-49302135D01*
X96099500Y-52197870D01*
X96099501Y-52197876D01*
X96105908Y-52257483D01*
X96156202Y-52392328D01*
X96156206Y-52392335D01*
X96242452Y-52507544D01*
X96242455Y-52507547D01*
X96357664Y-52593793D01*
X96357671Y-52593797D01*
X96492517Y-52644091D01*
X96492516Y-52644091D01*
X96499444Y-52644835D01*
X96552127Y-52650500D01*
X99447872Y-52650499D01*
X99507483Y-52644091D01*
X99642331Y-52593796D01*
X99757546Y-52507546D01*
X99843796Y-52392331D01*
X99894091Y-52257483D01*
X99900500Y-52197873D01*
X99900499Y-49302128D01*
X99894091Y-49242517D01*
X99843796Y-49107669D01*
X99843795Y-49107668D01*
X99843793Y-49107664D01*
X99757547Y-48992455D01*
X99757544Y-48992452D01*
X99642335Y-48906206D01*
X99642328Y-48906202D01*
X99507482Y-48855908D01*
X99507483Y-48855908D01*
X99447883Y-48849501D01*
X99447881Y-48849500D01*
X99447873Y-48849500D01*
X99447864Y-48849500D01*
X96552129Y-48849500D01*
X96552123Y-48849501D01*
X96492516Y-48855908D01*
X96357671Y-48906202D01*
X96357664Y-48906206D01*
X96242455Y-48992452D01*
X96242452Y-48992455D01*
X96156206Y-49107664D01*
X96156202Y-49107671D01*
X96105908Y-49242517D01*
X96099501Y-49302116D01*
X96099501Y-49302123D01*
X96099500Y-49302135D01*
X76500500Y-49302135D01*
X76500500Y-48003750D01*
X76500726Y-47996263D01*
X76518271Y-47706205D01*
X76520076Y-47691340D01*
X76571780Y-47409201D01*
X76575364Y-47394663D01*
X76652096Y-47148422D01*
X76660696Y-47120822D01*
X76665998Y-47106841D01*
X76783731Y-46845249D01*
X76790676Y-46832016D01*
X76939080Y-46586526D01*
X76947567Y-46574230D01*
X77124480Y-46348417D01*
X77134395Y-46337226D01*
X77337226Y-46134395D01*
X77348417Y-46124480D01*
X77574230Y-45947567D01*
X77586526Y-45939080D01*
X77832016Y-45790676D01*
X77845249Y-45783731D01*
X78106841Y-45665998D01*
X78120822Y-45660696D01*
X78394668Y-45575362D01*
X78409197Y-45571780D01*
X78691344Y-45520075D01*
X78706201Y-45518271D01*
X78996264Y-45500726D01*
X79003751Y-45500500D01*
X79065892Y-45500500D01*
X120934108Y-45500500D01*
X120996249Y-45500500D01*
X121003736Y-45500726D01*
G37*
%TD.AperFunction*%
%TD*%
M02*
