<?xml version="1.0" encoding="UTF-8" standalone="no"?>
<!-- Created with Inkscape (http://www.inkscape.org/) -->

<svg
   width="200mm"
   height="300mm"
   viewBox="0 0 200 300"
   version="1.1"
   id="svg5"
   inkscape:version="1.1.2 (b8e25be833, 2022-02-05)"
   sodipodi:docname="control_left.svg"
   xmlns:inkscape="http://www.inkscape.org/namespaces/inkscape"
   xmlns:sodipodi="http://sodipodi.sourceforge.net/DTD/sodipodi-0.dtd"
   xmlns="http://www.w3.org/2000/svg"
   xmlns:svg="http://www.w3.org/2000/svg">
  <sodipodi:namedview
     id="namedview7"
     pagecolor="#ffffff"
     bordercolor="#666666"
     borderopacity="1.0"
     inkscape:pageshadow="2"
     inkscape:pageopacity="0.0"
     inkscape:pagecheckerboard="0"
     inkscape:document-units="mm"
     showgrid="false"
     inkscape:zoom="0.50898197"
     inkscape:cx="726.94127"
     inkscape:cy="616.91773"
     inkscape:window-width="2560"
     inkscape:window-height="1494"
     inkscape:window-x="-11"
     inkscape:window-y="-11"
     inkscape:window-maximized="1"
     inkscape:current-layer="layer1" />
  <defs
     id="defs2">
    <marker
       style="overflow:visible"
       id="TriangleOutM"
       refX="0.0"
       refY="0.0"
       orient="auto"
       inkscape:stockid="TriangleOutM"
       inkscape:isstock="true">
      <path
         transform="scale(0.4)"
         style="fill-rule:evenodd;fill:context-stroke;stroke:context-stroke;stroke-width:1.0pt"
         d="M 5.77,0.0 L -2.88,5.0 L -2.88,-5.0 L 5.77,0.0 z "
         id="path2096" />
    </marker>
    <marker
       style="overflow:visible"
       id="TriangleInS"
       refX="0.0"
       refY="0.0"
       orient="auto"
       inkscape:stockid="TriangleInS"
       inkscape:isstock="true">
      <path
         transform="scale(-0.2)"
         style="fill-rule:evenodd;fill:context-stroke;stroke:context-stroke;stroke-width:1.0pt"
         d="M 5.77,0.0 L -2.88,5.0 L -2.88,-5.0 L 5.77,0.0 z "
         id="path2090" />
    </marker>
    <marker
       style="overflow:visible"
       id="TriangleOutS"
       refX="0.0"
       refY="0.0"
       orient="auto"
       inkscape:stockid="TriangleOutS"
       inkscape:isstock="true">
      <path
         transform="scale(0.2)"
         style="fill-rule:evenodd;fill:context-stroke;stroke:context-stroke;stroke-width:1.0pt"
         d="M 5.77,0.0 L -2.88,5.0 L -2.88,-5.0 L 5.77,0.0 z "
         id="path2099" />
    </marker>
    <marker
       style="overflow:visible;"
       id="Arrow2Mend"
       refX="0.0"
       refY="0.0"
       orient="auto"
       inkscape:stockid="Arrow2Mend"
       inkscape:isstock="true">
      <path
         transform="scale(0.6) rotate(180) translate(0,0)"
         d="M 8.7185878,4.0337352 L -2.2072895,0.016013256 L 8.7185884,-4.0017078 C 6.9730900,-1.6296469 6.9831476,1.6157441 8.7185878,4.0337352 z "
         style="stroke:context-stroke;fill-rule:evenodd;fill:context-stroke;stroke-width:0.62500000;stroke-linejoin:round;"
         id="path1978" />
    </marker>
    <marker
       style="overflow:visible"
       id="Arrow1Sstart"
       refX="0.0"
       refY="0.0"
       orient="auto"
       inkscape:stockid="Arrow1Sstart"
       inkscape:isstock="true">
      <path
         transform="scale(0.2) translate(6,0)"
         style="fill-rule:evenodd;fill:context-stroke;stroke:context-stroke;stroke-width:1.0pt"
         d="M 0.0,0.0 L 5.0,-5.0 L -12.5,0.0 L 5.0,5.0 L 0.0,0.0 z "
         id="path1963" />
    </marker>
    <marker
       style="overflow:visible;"
       id="Arrow1Send"
       refX="0.0"
       refY="0.0"
       orient="auto"
       inkscape:stockid="Arrow1Send"
       inkscape:isstock="true">
      <path
         transform="scale(0.2) rotate(180) translate(6,0)"
         style="fill-rule:evenodd;fill:context-stroke;stroke:context-stroke;stroke-width:1.0pt;"
         d="M 0.0,0.0 L 5.0,-5.0 L -12.5,0.0 L 5.0,5.0 L 0.0,0.0 z "
         id="path1966" />
    </marker>
    <marker
       style="overflow:visible"
       id="TriangleInS-3"
       refX="0"
       refY="0"
       orient="auto"
       inkscape:stockid="TriangleInS"
       inkscape:isstock="true">
      <path
         transform="scale(-0.2)"
         style="fill:context-stroke;fill-rule:evenodd;stroke:context-stroke;stroke-width:1pt"
         d="M 5.77,0 -2.88,5 V -5 Z"
         id="path2090-8" />
    </marker>
    <marker
       style="overflow:visible"
       id="TriangleOutS-6"
       refX="0"
       refY="0"
       orient="auto"
       inkscape:stockid="TriangleOutS"
       inkscape:isstock="true">
      <path
         transform="scale(0.2)"
         style="fill:context-stroke;fill-rule:evenodd;stroke:context-stroke;stroke-width:1pt"
         d="M 5.77,0 -2.88,5 V -5 Z"
         id="path2099-9" />
    </marker>
    <marker
       style="overflow:visible"
       id="TriangleOutS-8"
       refX="0"
       refY="0"
       orient="auto"
       inkscape:stockid="TriangleOutS"
       inkscape:isstock="true">
      <path
         transform="scale(0.2)"
         style="fill:context-stroke;fill-rule:evenodd;stroke:context-stroke;stroke-width:1pt"
         d="M 5.77,0 -2.88,5 V -5 Z"
         id="path2099-8" />
    </marker>
    <marker
       style="overflow:visible"
       id="TriangleOutS-8-6"
       refX="0"
       refY="0"
       orient="auto"
       inkscape:stockid="TriangleOutS"
       inkscape:isstock="true">
      <path
         transform="scale(0.2)"
         style="fill:context-stroke;fill-rule:evenodd;stroke:context-stroke;stroke-width:1pt"
         d="M 5.77,0 -2.88,5 V -5 Z"
         id="path2099-8-5" />
    </marker>
    <marker
       style="overflow:visible"
       id="TriangleInS-6"
       refX="0"
       refY="0"
       orient="auto"
       inkscape:stockid="TriangleInS"
       inkscape:isstock="true">
      <path
         transform="scale(-0.2)"
         style="fill:context-stroke;fill-rule:evenodd;stroke:context-stroke;stroke-width:1pt"
         d="M 5.77,0 -2.88,5 V -5 Z"
         id="path2090-3" />
    </marker>
    <marker
       style="overflow:visible"
       id="TriangleOutS-8-6-5"
       refX="0"
       refY="0"
       orient="auto"
       inkscape:stockid="TriangleOutS"
       inkscape:isstock="true">
      <path
         transform="scale(0.2)"
         style="fill:context-stroke;fill-rule:evenodd;stroke:context-stroke;stroke-width:1pt"
         d="M 5.77,0 -2.88,5 V -5 Z"
         id="path2099-8-5-4" />
    </marker>
    <marker
       style="overflow:visible"
       id="TriangleInS-3-9"
       refX="0"
       refY="0"
       orient="auto"
       inkscape:stockid="TriangleInS"
       inkscape:isstock="true">
      <path
         transform="scale(-0.2)"
         style="fill:context-stroke;fill-rule:evenodd;stroke:context-stroke;stroke-width:1pt"
         d="M 5.77,0 -2.88,5 V -5 Z"
         id="path2090-8-6" />
    </marker>
    <marker
       style="overflow:visible"
       id="TriangleOutS-6-4"
       refX="0"
       refY="0"
       orient="auto"
       inkscape:stockid="TriangleOutS"
       inkscape:isstock="true">
      <path
         transform="scale(0.2)"
         style="fill:context-stroke;fill-rule:evenodd;stroke:context-stroke;stroke-width:1pt"
         d="M 5.77,0 -2.88,5 V -5 Z"
         id="path2099-9-4" />
    </marker>
    <marker
       style="overflow:visible"
       id="TriangleOutM-6"
       refX="0"
       refY="0"
       orient="auto"
       inkscape:stockid="TriangleOutM"
       inkscape:isstock="true">
      <path
         transform="scale(0.4)"
         style="fill:context-stroke;fill-rule:evenodd;stroke:context-stroke;stroke-width:1pt"
         d="M 5.77,0 -2.88,5 V -5 Z"
         id="path2096-5" />
    </marker>
  </defs>
  <g
     inkscape:label="Layer 1"
     inkscape:groupmode="layer"
     id="layer1"
     transform="translate(-0.96128899,-33.918701)">
    <rect
       style="fill:#323232;fill-opacity:1;stroke-width:1.58113;stroke-dasharray:4.74341, 4.74341;stroke:none"
       id="rect846"
       width="200"
       height="300"
       x="0.96128899"
       y="33.918701"
       rx="16.666666" />
    <path
       style="fill:none;stroke:#c8c8c8;stroke-width:1;stroke-linecap:butt;stroke-linejoin:miter;stroke-miterlimit:4;stroke-dasharray:none;stroke-opacity:1"
       d="M 0.96128899,134.4187 H 200.96129"
       id="path1211" />
    <path
       style="fill:none;stroke:#c8c8c8;stroke-width:1;stroke-linecap:butt;stroke-linejoin:miter;stroke-miterlimit:4;stroke-dasharray:none;stroke-opacity:1"
       d="M 101.46129,333.9187 V 33.918701"
       id="path1211-6" />
    <path
       style="fill:none;stroke:#c8c8c8;stroke-width:1;stroke-linecap:butt;stroke-linejoin:miter;stroke-miterlimit:4;stroke-dasharray:none;stroke-opacity:1"
       d="M 0.96128899,234.4187 H 200.96128"
       id="path1211-5" />
    <g
       id="path1586">
      <path
         style="color:#000000;fill:#ffffff;-inkscape-stroke:none"
         d="m 40.164062,80.917969 v 6 h 21.59375 v -6 z"
         id="path1094" />
      <g
         id="g1076">
        <g
           id="path1086">
          <path
             style="color:#000000;fill:#ffffff;fill-rule:evenodd;stroke-width:1.2pt;-inkscape-stroke:none"
             d="m 68.681967,83.918701 -10.38,6 v -12 z"
             id="path1090" />
          <path
             style="color:#000000;fill:#ffffff;fill-rule:evenodd;-inkscape-stroke:none"
             d="M 57.501953,76.533203 V 91.304687 L 70.28125,83.917969 69.082031,83.226562 Z m 1.599609,2.771484 7.982422,4.613282 -7.982422,4.615234 z"
             id="path1092" />
        </g>
        <g
           id="path1078">
          <path
             style="color:#000000;fill:#ffffff;fill-rule:evenodd;stroke-width:1.2pt;-inkscape-stroke:none"
             d="m 33.240613,83.918701 10.38,-6 v 12 z"
             id="path1082" />
          <path
             style="color:#000000;fill:#ffffff;fill-rule:evenodd;-inkscape-stroke:none"
             d="m 44.419922,76.533203 -12.777344,7.384766 1.197266,0.693359 11.580078,6.693359 z m -1.59961,2.771484 v 9.228516 l -7.982421,-4.615234 z"
             id="path1084" />
        </g>
      </g>
    </g>
    <g
       id="path1586-5">
      <path
         style="color:#000000;fill:#ffffff;-inkscape-stroke:none"
         d="m 47.960937,173.12109 v 21.59375 h 6 v -21.59375 z"
         id="path1699" />
      <g
         id="g1681">
        <g
           id="path1691">
          <path
             style="color:#000000;fill:#ffffff;fill-rule:evenodd;stroke-width:1.2pt;-inkscape-stroke:none"
             d="m 50.96129,201.63939 -6,-10.38 h 12 z"
             id="path1695" />
          <path
             style="color:#000000;fill:#ffffff;fill-rule:evenodd;-inkscape-stroke:none"
             d="m 43.574219,190.45898 7.386718,12.7793 0.69336,-1.19922 6.693359,-11.58008 z m 2.773437,1.59961 h 9.228516 l -4.615235,7.98243 z"
             id="path1697" />
        </g>
        <g
           id="path1683">
          <path
             style="color:#000000;fill:#ffffff;fill-rule:evenodd;stroke-width:1.2pt;-inkscape-stroke:none"
             d="m 50.96129,166.19803 6,10.38 h -12 z"
             id="path1687" />
          <path
             style="color:#000000;fill:#ffffff;fill-rule:evenodd;-inkscape-stroke:none"
             d="m 50.960937,164.59961 -0.691406,1.19726 -6.695312,11.58204 h 14.773437 z m 0,3.19531 4.615235,7.98242 h -9.228516 z"
             id="path1689" />
        </g>
      </g>
    </g>
    <g
       id="path2403"
       transform="rotate(45)">
      <path
         style="color:#000000;fill:#ffffff;stroke-linecap:round;-inkscape-stroke:none"
         d="m 237.90625,150.18359 c -4.4959,-0.42653 -9.05202,1.13992 -12.34961,4.4375 -4.39678,4.39679 -5.71741,11.03267 -3.33789,16.77735 2.37952,5.74467 8.00467,9.50195 14.22266,9.50195 a 3.000005,3.000005 0 0 0 3,-3 3.000005,3.000005 0 0 0 -3,-3 c -3.80845,0 -7.22226,-2.28028 -8.67969,-5.79883 -1.45743,-3.51854 -0.65587,-7.5453 2.03711,-10.23828 2.69298,-2.69298 6.71973,-3.49454 10.23828,-2.03711 3.51855,1.45743 5.80078,4.87124 5.80078,8.67969 a 3.000005,3.000005 0 0 0 3,3 3.000005,3.000005 0 0 0 3,-3 c 0,-6.21799 -3.75923,-11.84313 -9.50391,-14.22266 -1.43616,-0.59488 -2.9291,-0.95743 -4.42773,-1.09961 z"
         id="path1735" />
      <g
         id="g1725">
        <g
           id="path1727">
          <path
             style="color:#000000;fill:#ffffff;fill-rule:evenodd;stroke-width:1.2pt;-inkscape-stroke:none"
             d="m 248.83697,172.43057 -6.00001,-10.38001 h 12.00002 z"
             id="path1731" />
          <path
             style="color:#000000;fill:#ffffff;fill-rule:evenodd;-inkscape-stroke:none"
             d="m 241.45117,161.25 7.38672,12.7793 0.69141,-1.19922 6.69336,-11.58008 z m 2.77149,1.59961 h 9.22851 l -4.61523,7.98242 z"
             id="path1733" />
        </g>
      </g>
    </g>
    <g
       id="path2403-6-5"
       transform="matrix(-0.8660254,-0.5,-0.5,0.8660254,0,0)">
      <path
         style="color:#000000;fill:#ffffff;stroke-linecap:round;-inkscape-stroke:none"
         d="m -227.29687,73.03125 c -3.27849,0.431621 -6.41861,1.912742 -8.87696,4.371094 a 3.000005,3.000005 0 0 0 0,4.242187 3.000005,3.000005 0 0 0 4.24219,0 c 3.01696,-3.016958 7.64484,-3.625499 11.33984,-1.492187 3.69501,2.133311 5.48319,6.447117 4.37891,10.568359 a 3.000005,3.000005 0 0 0 2.12109,3.673828 3.000005,3.000005 0 0 0 3.67383,-2.121094 c 1.79964,-6.716341 -1.15212,-13.841725 -7.17383,-17.318359 -3.01085,-1.738317 -6.42659,-2.355449 -9.70507,-1.923828 z"
         id="path1721" />
      <g
         id="g1703">
        <g
           id="path1713">
          <path
             style="color:#000000;fill:#ffffff;fill-rule:evenodd;stroke-width:1.2pt;-inkscape-stroke:none"
             d="m -215.10794,98.184327 -3.10901,-11.579243 11.59113,3.105833 z"
             id="path1717" />
          <path
             style="color:#000000;fill:#ffffff;fill-rule:evenodd;-inkscape-stroke:none"
             d="m -219.34961,85.472656 3.82813,14.25586 0.97851,-0.978516 9.46289,-9.453125 z m 2.26563,2.263672 8.91211,2.388672 -6.52344,6.515625 z"
             id="path1719" />
        </g>
        <g
           id="path1705">
          <path
             style="color:#000000;fill:#ffffff;fill-rule:evenodd;stroke-width:1.2pt;-inkscape-stroke:none"
             d="m -238.94877,84.419816 3.09713,-11.582429 8.4853,8.485296 z"
             id="path1709" />
          <path
             style="color:#000000;fill:#ffffff;fill-rule:evenodd;-inkscape-stroke:none"
             d="m -236.26562,71.291016 -3.81446,14.259765 1.33789,-0.357422 12.92188,-3.455078 z m 0.83007,3.09375 6.52344,6.523437 -8.90625,2.380859 z"
             id="path1711" />
        </g>
      </g>
    </g>
    <g
       id="g8821"
       transform="translate(5.2277675,-15.218772)">
      <g
         id="path1586-5-4">
        <path
           style="color:#000000;fill:#ffffff;-inkscape-stroke:none"
           d="m 143.73437,91.443359 v 11.232421 h 4 V 91.443359 Z"
           id="path1568" />
        <g
           id="g1558">
          <g
             id="path1560">
            <path
               style="color:#000000;fill:#ffffff;fill-rule:evenodd;stroke-width:1.6pt;-inkscape-stroke:none"
               d="m 145.73352,82.211074 8,13.84 h -16 z"
               id="path1564" />
            <path
               style="color:#000000;fill:#ffffff;fill-rule:evenodd;-inkscape-stroke:none"
               d="m 145.73437,80.080078 -0.92382,1.597656 -8.92578,15.439453 h 19.69726 z m 0,4.259766 6.15235,10.644531 h -12.30664 z"
               id="path1566" />
          </g>
        </g>
      </g>
      <g
         aria-label="CLIMB"
         id="text4496"
         style="font-size:13.7243px;stroke-width:0.343107">
        <path
           d="m 132.78322,117.68601 q -1.05211,0.5093 -2.74754,0.5093 -2.21143,0 -3.47798,-1.30005 -1.26655,-1.30006 -1.26655,-3.46459 0,-2.30525 1.42068,-3.73933 1.42738,-1.43408 3.69912,-1.43408 1.40728,0 2.37227,0.35517 v 2.08411 q -0.96499,-0.57632 -2.19803,-0.57632 -1.35367,0 -2.18463,0.85107 -0.83096,0.85107 -0.83096,2.30525 0,1.39388 0.78405,2.22484 0.78405,0.82426 2.11092,0.82426 1.26654,0 2.31865,-0.61652 z"
           style="-inkscape-font-specification:'Segoe UI Bold';fill:#ffffff"
           id="path1352" />
        <path
           d="m 140.18148,118.02778 h -5.72293 v -9.60969 h 2.16453 v 7.85394 h 3.5584 z"
           style="-inkscape-font-specification:'Segoe UI Bold';fill:#ffffff"
           id="path1354" />
        <path
           d="m 143.63936,118.02778 h -2.16453 v -9.60969 h 2.16453 z"
           style="-inkscape-font-specification:'Segoe UI Bold';fill:#ffffff"
           id="path1356" />
        <path
           d="m 156.77394,118.02778 h -2.13772 v -5.74973 q 0,-0.93149 0.0804,-2.05731 h -0.0536 q -0.16754,0.88458 -0.30156,1.27325 l -2.25165,6.53379 h -1.76914 l -2.29185,-6.46677 q -0.0938,-0.26136 -0.30156,-1.34027 h -0.0603 q 0.0871,1.42068 0.0871,2.49289 v 5.31415 h -1.95008 v -9.60969 h 3.16972 l 1.96349,5.69612 q 0.23454,0.68353 0.34177,1.37377 h 0.0402 q 0.18094,-0.79746 0.38198,-1.38717 l 1.96348,-5.68272 h 3.08931 z"
           style="-inkscape-font-specification:'Segoe UI Bold';fill:#ffffff"
           id="path1358" />
        <path
           d="m 158.95857,118.02778 v -9.60969 h 3.49809 q 1.60832,0 2.47279,0.58971 0.86447,0.58972 0.86447,1.66193 0,0.77735 -0.5294,1.36037 -0.52271,0.58301 -1.34027,0.81086 v 0.0268 q 1.0253,0.12733 1.63512,0.75725 0.61652,0.62993 0.61652,1.5346 0,1.32016 -0.94488,2.09752 -0.94489,0.77065 -2.58001,0.77065 z m 2.16453,-8.01478 v 2.27845 h 0.95159 q 0.67013,0 1.0521,-0.32166 0.38868,-0.32837 0.38868,-0.89798 0,-1.05881 -1.58151,-1.05881 z m 0,3.88677 v 2.53309 h 1.17273 q 0.75055,0 1.17273,-0.34846 0.42889,-0.34847 0.42889,-0.95159 0,-0.57631 -0.42219,-0.90468 -0.41548,-0.32836 -1.16603,-0.32836 z"
           style="-inkscape-font-specification:'Segoe UI Bold';fill:#ffffff"
           id="path1360" />
      </g>
    </g>
    <g
       id="g8816"
       transform="translate(-41.265236,184.78124)">
      <g
         id="path1586-5-4-9">
        <path
           style="color:#000000;fill:#ffffff;-inkscape-stroke:none"
           d="m 190.22656,95.599609 v 11.232421 h 4 V 95.599609 Z"
           id="path1749" />
        <g
           id="g1739">
          <g
             id="path1741">
            <path
               style="color:#000000;fill:#ffffff;fill-rule:evenodd;stroke-width:1.6pt;-inkscape-stroke:none"
               d="m 192.22653,116.06387 -8,-13.84 h 16 z"
               id="path1745" />
            <path
               style="color:#000000;fill:#ffffff;fill-rule:evenodd;-inkscape-stroke:none"
               d="m 182.37695,101.15625 9.84961,17.03906 0.92383,-1.59765 8.92383,-15.44141 z m 3.69922,2.13477 h 12.30078 l -6.15039,10.64062 z"
               id="path1747" />
          </g>
        </g>
      </g>
      <g
         aria-label="CLIMB"
         id="text4496-6"
         style="font-size:13.7243px;stroke-width:0.343107">
        <path
           d="m 179.27623,89.508391 q -1.05211,0.509301 -2.74755,0.509301 -2.21143,0 -3.47798,-1.300056 -1.26655,-1.300056 -1.26655,-3.464582 0,-2.305253 1.42068,-3.739336 1.42738,-1.434082 3.69913,-1.434082 1.40728,0 2.37227,0.35517 v 2.08411 q -0.96499,-0.576313 -2.19804,-0.576313 -1.35366,0 -2.18463,0.851067 -0.83096,0.851068 -0.83096,2.305254 0,1.393874 0.78405,2.224838 0.78406,0.824262 2.11092,0.824262 1.26655,0 2.31866,-0.616522 z"
           style="-inkscape-font-specification:'Segoe UI Bold';fill:#ffffff"
           id="path1751" />
        <path
           d="m 186.67448,89.850159 h -5.72292 v -9.609691 h 2.16452 v 7.853945 h 3.5584 z"
           style="-inkscape-font-specification:'Segoe UI Bold';fill:#ffffff"
           id="path1753" />
        <path
           d="m 190.13236,89.850159 h -2.16452 v -9.609691 h 2.16452 z"
           style="-inkscape-font-specification:'Segoe UI Bold';fill:#ffffff"
           id="path1755" />
        <path
           d="m 203.26695,89.850159 h -2.13772 v -5.749732 q 0,-0.931483 0.0804,-2.057304 h -0.0536 q -0.16753,0.884574 -0.30156,1.27325 l -2.25164,6.533786 h -1.76915 l -2.29185,-6.466773 q -0.0938,-0.261351 -0.30156,-1.340263 h -0.0603 q 0.0871,1.420679 0.0871,2.49289 v 5.314146 h -1.95009 v -9.609691 h 3.16973 l 1.96348,5.696121 q 0.23455,0.683534 0.34177,1.37377 h 0.0402 q 0.18093,-0.797457 0.38197,-1.387173 l 1.96349,-5.682718 h 3.08931 z"
           style="-inkscape-font-specification:'Segoe UI Bold';fill:#ffffff"
           id="path1757" />
        <path
           d="m 205.45158,89.850159 v -9.609691 h 3.49809 q 1.60831,0 2.47278,0.589716 0.86447,0.589716 0.86447,1.661927 0,0.777353 -0.5294,1.360368 -0.5227,0.583014 -1.34026,0.810859 v 0.02681 q 1.0253,0.127325 1.63512,0.757249 0.61652,0.629924 0.61652,1.534602 0,1.32016 -0.94489,2.097513 -0.94488,0.770652 -2.58001,0.770652 z m 2.16452,-8.014777 v 2.278448 h 0.95159 q 0.67013,0 1.05211,-0.321663 0.38867,-0.328365 0.38867,-0.897977 0,-1.058808 -1.58151,-1.058808 z m 0,3.886764 v 2.533099 h 1.17273 q 0.75055,0 1.17274,-0.348469 0.42888,-0.348468 0.42888,-0.951587 0,-0.576313 -0.42218,-0.904678 -0.41548,-0.328365 -1.16603,-0.328365 z"
           style="-inkscape-font-specification:'Segoe UI Bold';fill:#ffffff"
           id="path1759" />
      </g>
    </g>
  </g>
</svg>
