<?xml version="1.0" encoding="UTF-8" standalone="no"?>
<svg
   viewBox="0 0 48 48"
   version="1.1"
   id="svg19"
   sodipodi:docname="hexapod-app-icon (1).svg"
   inkscape:version="1.3.2 (091e20e, 2023-11-25, custom)"
   xmlns:inkscape="http://www.inkscape.org/namespaces/inkscape"
   xmlns:sodipodi="http://sodipodi.sourceforge.net/DTD/sodipodi-0.dtd"
   xmlns="http://www.w3.org/2000/svg"
   xmlns:svg="http://www.w3.org/2000/svg">
  <defs
     id="defs19" />
  <sodipodi:namedview
     id="namedview19"
     pagecolor="#ffffff"
     bordercolor="#000000"
     borderopacity="0.25"
     inkscape:showpageshadow="2"
     inkscape:pageopacity="0.0"
     inkscape:pagecheckerboard="0"
     inkscape:deskcolor="#d1d1d1"
     inkscape:zoom="26.752207"
     inkscape:cx="8.5787316"
     inkscape:cy="30.801198"
     inkscape:window-width="3840"
     inkscape:window-height="2054"
     inkscape:window-x="-11"
     inkscape:window-y="-11"
     inkscape:window-maximized="1"
     inkscape:current-layer="svg19" />
  <!-- Background -->
  <circle
     cx="24"
     cy="24"
     r="24"
     fill="#2196F3"
     id="circle1"
     style="fill:#0f5fab;fill-opacity:1" />
  <!-- Robot Body Base Layer -->
  <rect
     x="16"
     y="12"
     width="16"
     height="24"
     rx="2"
     fill="#FFFFFF"
     id="rect1" />
  <!-- Body Details -->
  <rect
     x="18"
     y="14"
     width="12"
     height="20"
     rx="1"
     fill="#E3F2FD"
     id="rect2" />
  <rect
     x="19"
     y="15"
     width="10"
     height="18"
     fill="#1976D2"
     id="rect3"
     style="fill:#9c27b0;fill-opacity:1" />
  <!-- Technological Lines -->
  <line
     x1="20"
     y1="18"
     x2="28"
     y2="18"
     stroke="#90CAF9"
     stroke-width="0.5"
     id="line3" />
  <line
     x1="20"
     y1="21"
     x2="28"
     y2="21"
     stroke="#90CAF9"
     stroke-width="0.5"
     id="line4" />
  <line
     x1="20"
     y1="24"
     x2="28"
     y2="24"
     stroke="#90CAF9"
     stroke-width="0.5"
     id="line5" />
  <line
     x1="20"
     y1="27"
     x2="28"
     y2="27"
     stroke="#90CAF9"
     stroke-width="0.5"
     id="line6" />
  <line
     x1="20"
     y1="30"
     x2="28"
     y2="30"
     stroke="#90CAF9"
     stroke-width="0.5"
     id="line7" />
  <!-- Corner Accents -->
  <circle
     cx="16"
     cy="12"
     r="1"
     fill="#1976D2"
     id="circle7"
     style="fill:#19b5ff;fill-opacity:1" />
  <circle
     cx="32"
     cy="12"
     r="1"
     fill="#1976D2"
     id="circle8"
     style="fill:#19b5ff;fill-opacity:1" />
  <circle
     cx="16"
     cy="36"
     r="1"
     fill="#1976D2"
     id="circle9"
     style="fill:#19b5ff;fill-opacity:1" />
  <circle
     cx="32"
     cy="36"
     r="1"
     fill="#1976D2"
     id="circle10"
     style="fill:#19b5ff;fill-opacity:1" />
  <!-- Legs with Joints -->
  <!-- Right Side -->
  <path
     d="M32 16 C34 16, 36 14, 38 12"
     stroke="#FFFFFF"
     stroke-width="2.5"
     stroke-linecap="round"
     id="path10" />
  <circle
     cx="35"
     cy="14"
     r="1"
     fill="#FFFFFF"
     id="circle11" />
  <path
     d="M32 24 C35 24, 37 24, 40 24"
     stroke="#FFFFFF"
     stroke-width="2.5"
     stroke-linecap="round"
     id="path11" />
  <circle
     cx="36"
     cy="24"
     r="1"
     fill="#FFFFFF"
     id="circle12" />
  <path
     d="M32 32 C34 32, 36 34, 38 36"
     stroke="#FFFFFF"
     stroke-width="2.5"
     stroke-linecap="round"
     id="path12" />
  <circle
     cx="35"
     cy="34"
     r="1"
     fill="#FFFFFF"
     id="circle13" />
  <!-- Left Side -->
  <path
     d="M16 16 C14 16, 12 14, 10 12"
     stroke="#FFFFFF"
     stroke-width="2.5"
     stroke-linecap="round"
     id="path13" />
  <circle
     cx="13"
     cy="14"
     r="1"
     fill="#FFFFFF"
     id="circle14" />
  <path
     d="M16 24 C13 24, 11 24, 8 24"
     stroke="#FFFFFF"
     stroke-width="2.5"
     stroke-linecap="round"
     id="path14" />
  <circle
     cx="12"
     cy="24"
     r="1"
     fill="#FFFFFF"
     id="circle15" />
  <path
     d="M16 32 C14 32, 12 34, 10 36"
     stroke="#FFFFFF"
     stroke-width="2.5"
     stroke-linecap="round"
     id="path15" />
  <circle
     cx="13"
     cy="34"
     r="1"
     fill="#FFFFFF"
     id="circle16" />
  <!-- Control Interface -->
  <!-- LED Indicators -->
  <circle
     cx="17.5"
     cy="13"
     r="0.5"
     fill="#FF4081"
     id="circle17" />
  <circle
     cx="30.5"
     cy="13"
     r="0.5"
     fill="#69F0AE"
     id="circle18" />
  <!-- Additional Tech Details -->
  <rect
     x="20"
     y="32"
     width="8"
     height="2"
     fill="#90CAF9"
     rx="0.5"
     id="rect18" />
  <rect
     x="20"
     y="14"
     width="8"
     height="2"
     fill="#90CAF9"
     rx="0.5"
     id="rect19" />
</svg>
